<?xml version="1.0" encoding="UTF-8"?>
<svg width="48px" height="48px" viewBox="0 0 48 48" version="1.1" xmlns="http://www.w3.org/2000/svg" xmlns:xlink="http://www.w3.org/1999/xlink">
    <!-- Generator: Sketch 48.2 (47327) - http://www.bohemiancoding.com/sketch -->
    <title>Group 6</title>
    <desc>Created with Sketch.</desc>
    <defs>
        <polygon id="path-1" points="0 0 20 0 20 14 0 14"></polygon>
    </defs>
    <g id="2_main_PMP_2_0_dt" stroke="none" stroke-width="1" fill="none" fill-rule="evenodd" transform="translate(-188.000000, -1021.000000)">
        <g id="Group-5" transform="translate(188.000000, 877.000000)">
            <g id="Group-19">
                <g id="Group-16" transform="translate(0.000000, 144.000000)">
                    <g id="Group-6">
                        <circle id="Oval" fill="#FBB040" cx="24" cy="24" r="24"></circle>
                        <path d="M43.5,23.9994957 C43.5,34.7693491 34.7690632,43.5 23.9997479,43.5 C13.2304325,43.5 4.5,34.7693491 4.5,23.9994957 C4.5,13.2306509 13.1749596,4.5 23.9997479,4.5 C34.7690632,4.5 43.5,13.2306509 43.5,23.9994957" id="Fill-38" fill="#FFFFFF"></path>
                        <g id="Group-11" transform="translate(15.000000, 8.000000)">
                            <path d="M2.30608993,32 C1.03830393,32 0,30.9995509 0,29.7716595 L0,2.23230462 C0,1.0044132 1.03830393,0 2.30608993,0 L15.6949345,0 C16.9622083,0 18,1.0044132 18,2.23230462 L18,29.7716595 C18,30.9995509 16.9622083,32 15.6949345,32 L2.30608993,32 Z" id="Fill-39" fill="#353F49"></path>
                            <path d="M10.7889,29.6900462 C10.7889,30.0334961 10.5445782,30.3101 10.2381493,30.3101 L7.34119052,30.3101 C7.0393812,30.3101 6.7889,30.0334961 6.7889,29.6900462 L6.7889,29.4313063 C6.7889,29.0918902 7.0393812,28.8101 7.34119052,28.8101 L10.2381493,28.8101 C10.5445782,28.8101 10.7889,29.0918902 10.7889,29.4313063 L10.7889,29.6900462 Z" id="Fill-40" fill="#474F59"></path>
                            <path d="M9.5,2.49877551 C9.5,2.77714286 9.28618421,3 9.00657895,3 C8.72944079,3 8.5,2.77714286 8.5,2.49877551 C8.5,2.22693878 8.72944079,2 9.00657895,2 C9.28618421,2 9.5,2.22693878 9.5,2.49877551" id="Fill-42" fill="#FFFFFF"></path>
                            <polygon id="Fill-43" fill="#FFFFFF" points="1 27.5 17 27.5 17 4.5 1 4.5"></polygon>
                            <g id="Group-50" transform="translate(1.000000, 9.141000)">
                                <mask id="mask-2" fill="white">
                                    <use xlink:href="#path-1"></use>
                                </mask>
                                <g id="Clip-46"></g>
                                <polygon id="Fill-45" fill="#ADECF7" mask="url(#mask-2)" points="-2 14 22 14 22 0 -2 0"></polygon>
                                <path d="M6,7.00072767 C6,4.79055242 7.78974826,3 10.0002426,3 C12.2083106,3 14,4.79055242 14,7.00072767 C14,9.20896246 12.2083106,11 10.0002426,11 C7.78974826,11 6,9.20896246 6,7.00072767" id="Fill-48" fill="#76D0DE" mask="url(#mask-2)"></path>
                                <polygon id="Fill-49" fill="#C2F2F9" mask="url(#mask-2)" points="8.5 5 8.5 9 12 7.00023745"></polygon>
                            </g>
                        </g>
                    </g>
                </g>
            </g>
        </g>
    </g>
</svg>