<?xml version="1.0" encoding="UTF-8"?>
<svg width="48px" height="48px" viewBox="0 0 48 48" version="1.1" xmlns="http://www.w3.org/2000/svg" xmlns:xlink="http://www.w3.org/1999/xlink">
    <!-- Generator: Sketch 48.2 (47327) - http://www.bohemiancoding.com/sketch -->
    <title>Group 8</title>
    <desc>Created with Sketch.</desc>
    <defs></defs>
    <g id="2_main_PMP_2_0_dt" stroke="none" stroke-width="1" fill="none" fill-rule="evenodd" transform="translate(-188.000000, -1093.000000)">
        <g id="Group-5" transform="translate(188.000000, 877.000000)">
            <g id="Group-19">
                <g id="Group-13" transform="translate(0.000000, 216.000000)">
                    <g id="Group-8">
                        <path d="M24,0 C10.7451665,0 0,10.7451665 0,24 C0,37.2548335 10.7451665,48 24,48 C37.2548335,48 48,37.2548335 48,24 C48,10.7451665 37.2548335,0 24,0" id="Fill-9" fill="#FBB040"></path>
                        <path d="M43.5,24 C43.5,34.7693491 34.7696804,43.5 23.9994957,43.5 C13.2303196,43.5 4.5,34.7693491 4.5,24 C4.5,13.2306509 13.2303196,4.5 23.9994957,4.5 C34.7696804,4.5 43.5,13.2306509 43.5,24" id="Fill-12" fill="#FFFFFF"></path>
                        <path d="M24,9.5 C32.0082156,9.5 38.5,15.9907854 38.5,24 C38.5,32.0072167 32.0082156,38.5 24,38.5 C15.9917844,38.5 9.5,32.0072167 9.5,24 C9.5,15.9907854 15.9917844,9.5 24,9.5" id="Fill-14" fill="#353F49"></path>
                        <path d="M24.0012549,12 C30.6278471,12 36,17.3705346 36,24 C36,30.6254497 30.6278471,36 24.0012549,36 C17.3746627,36 12,30.6254497 12,24 C12,17.3705346 17.3746627,12 24.0012549,12" id="Fill-16" fill="#D9D8D7"></path>
                        <path d="M24.0002521,12.5 C30.3495649,12.5 35.5,17.6509393 35.5,24.0012604 C35.5,30.3520857 30.3495649,35.5 24.0002521,35.5 C17.6484185,35.5 12.5,30.3520857 12.5,24.0012604 C12.5,17.6509393 17.6484185,12.5 24.0002521,12.5" id="Fill-18" fill="#FFFFFF"></path>
                        <polygon id="Fill-20" fill="#353F49" points="24.1245 23.9454697 29.92 23.9454697 29.92 23.2429545 24.1245 23.2429545"></polygon>
                        <polygon id="Fill-22" fill="#353F49" points="24.36215 23.0131429 23.88465 23.0131429 23.88565 15.9879914 24.36365 15.9879914"></polygon>
                        <path d="M23.9991562,22.5 C24.8260829,22.5 25.5,23.1726659 25.5,24.0016873 C25.5,24.8273341 24.8260829,25.5 23.9991562,25.5 C23.1705419,25.5 22.5,24.8273341 22.5,24.0016873 C22.5,23.1726659 23.1705419,22.5 23.9991562,22.5" id="Fill-23" fill="#353F49"></path>
                        <polygon id="Fill-24" fill="#F77B55" points="25.2933 22.251497 25.4968 22.4489263 18.7368 29.0743202 18.5323 28.8754212"></polygon>
                        <path d="M23.9997192,23 C24.5501264,23 25,23.4476271 25,23.9997192 C25,24.550688 24.5501264,25 24.0008425,25 C23.449312,25 23.0011233,24.5490031 23,23.9991575 C23,23.4476271 23.4487504,23 23.9997192,23" id="Fill-25" fill="#F77B55"></path>
                        <path d="M24.000846,23.5 C24.2777778,23.5 24.5,23.7263514 24.5,24.0022523 C24.5,24.2759009 24.2777778,24.5 24.000846,24.5 C23.7222222,24.5 23.5,24.2759009 23.5,24.0022523 C23.5,23.7263514 23.7222222,23.5 24.000846,23.5" id="Fill-26" fill="#353F49"></path>
                    </g>
                </g>
            </g>
        </g>
    </g>
</svg>