<?xml version="1.0" encoding="UTF-8"?>
<svg width="48px" height="48px" viewBox="0 0 48 48" version="1.1" xmlns="http://www.w3.org/2000/svg" xmlns:xlink="http://www.w3.org/1999/xlink">
    <!-- Generator: Sketch 48.2 (47327) - http://www.bohemiancoding.com/sketch -->
    <title>Group 2</title>
    <desc>Created with Sketch.</desc>
    <defs></defs>
    <g id="2_main_PMP_2_0_dt" stroke="none" stroke-width="1" fill="none" fill-rule="evenodd" transform="translate(-188.000000, -877.000000)">
        <g id="Group-5" transform="translate(188.000000, 877.000000)">
            <g id="Group-19">
                <g id="Group-14">
                    <g id="Group-2">
                        <path d="M24,0 C10.7451665,0 0,10.7451665 0,23.9995011 C0,37.2543345 10.7451665,47.9995011 24,47.9995011 C37.2543345,47.9995011 48,37.2543345 48,23.9995011 C48,10.7451665 37.2543345,0 24,0" id="Fill-27" fill="#FBB040"></path>
                        <path d="M43.5,24 C43.5,34.7693491 34.769766,43.5 24,43.5 C13.230234,43.5 4.5,34.7693491 4.5,24 C4.5,13.2306509 13.230234,4.5 24,4.5 C34.769766,4.5 43.5,13.2306509 43.5,24" id="Fill-28" fill="#FFFFFF"></path>
                        <polygon id="Fill-29" fill="#474F59" points="23.5 24.5 42.2475 24.5 42.2475 23.5 23.5 23.5"></polygon>
                        <polygon id="Fill-30" fill="#353F49" points="41 22 41 26.4345 46.544 24.2175"></polygon>
                        <g id="Group-10" transform="translate(11.500000, 11.500000)">
                            <path d="M25,12.5 C25,19.4032856 19.4017756,25 12.5,25 C5.59772105,25 0,19.4032856 0,12.5 C0,5.59671445 5.59772105,0 12.5,0 C19.4017756,0 25,5.59671445 25,12.5" id="Fill-31" fill="#F77B55"></path>
                            <path d="M12.5,6 C8.91638004,6 6,8.91588321 6,12.5 C6,16.08362 8.91638004,19 12.5,19 C16.0841168,19 19,16.08362 19,12.5 C19,8.91588321 16.0841168,6 12.5,6 M12.5,22.5 C6.98579722,22.5 2.5,18.0142028 2.5,12.5 C2.5,6.98579722 6.98579722,2.5 12.5,2.5 C18.0142028,2.5 22.5,6.98579722 22.5,12.5 C22.5,18.0142028 18.0142028,22.5 12.5,22.5" id="Fill-32" fill="#FFFFFF"></path>
                            <path d="M16.5,12.5002653 C16.5,14.7094303 14.7073082,16.5 12.4997347,16.5 C10.2932224,16.5 8.5,14.7094303 8.5,12.5002653 C8.5,10.2911002 10.2932224,8.5 12.4997347,8.5 C14.7073082,8.5 16.5,10.2911002 16.5,12.5002653" id="Fill-33" fill="#A82607"></path>
                            <path d="M13,12.5002687 C13,12.7764643 12.7764643,13.0005373 12.4997313,13.0005373 C12.2246104,13.0005373 12,12.7764643 12,12.5002687 C12,12.2240731 12.2246104,12 12.4997313,12 C12.7764643,12 13,12.2240731 13,12.5002687" id="Fill-34" fill="#F77B55"></path>
                        </g>
                        <polygon id="Fill-35" fill="#F77B55" points="2 22 7.813 22 10.031 24.2165 7.813 26.435 2 26.435 4.217 24.2165"></polygon>
                        <path d="M1.9665,24.5 L24.0985,24.5 C24.356,24.5 24.564,24.2768817 24.564,23.9994624 C24.564,23.7241935 24.356,23.5 24.0985,23.5 L1.9665,23.5 C1.709,23.5 1.5,23.7241935 1.5,23.9994624 C1.5,24.2768817 1.709,24.5 1.9665,24.5" id="Fill-36" fill="#474F59"></path>
                    </g>
                </g>
            </g>
        </g>
    </g>
</svg>