<svg xmlns="http://www.w3.org/2000/svg" width="1212.4" height="312.9" viewBox="0 0 1212.4 312.9"><path fill="#FC981C" d="M39 171.9H0v116.9c0 21.4 15.2 30.2 33.8 19.5L134.9 250l-19.5-33.8L39 260.3v-88.4zm235.1-6.3c5.9-9.8 2.2-21.1-11.1-28.9L34 4.5C20.6-3.2 9-.7 3.5 9.3 1.2 13.2 0 18.3 0 24.5v118.1h39V52.3l60 104h120.1l-78.3 45.2 19.5 33.8 102.4-59.1c5.3-3.1 9.1-6.8 11.4-10.6z"/><g fill="#FFF"><path d="M341.3 77.3c-1.5-3.2.5-6.4 4.2-6.4h32.9c2 0 3.7 1.5 4.2 2.7l40.8 86.1h1.5l40.8-86.1c.5-1.2 2.2-2.7 4.2-2.7h32.9c3.7 0 5.7 3.2 4.2 6.4l-77.6 163.9c-.7 1.5-2.2 2.7-4.2 2.7h-2.5c-2 0-3.5-1.2-4.2-2.7L341.3 77.3zM709.6 75.6c0-2.5 2-4.7 4.7-4.7h102.3c2.7 0 4.7 2.2 4.7 4.7v26.9c0 2.5-2 4.7-4.7 4.7h-68.5v35.6h56.4c2.5 0 4.7 2.2 4.7 4.7v26.9c0 2.5-2.2 4.7-4.7 4.7h-56.4v60.1c0 2.5-2.2 4.7-4.7 4.7h-29.2c-2.7 0-4.7-2.2-4.7-4.7V75.6zM845.8 75.6c0-2.5 2.2-4.7 4.7-4.7h29.7c2.5 0 4.7 2.2 4.7 4.7v163.6c0 2.5-2.2 4.7-4.7 4.7h-29.7c-2.5 0-4.7-2.2-4.7-4.7V75.6zM911.8 77.3c-1.5-3.2.5-6.4 4.2-6.4h32.9c2 0 3.7 1.5 4.2 2.7l40.8 86.1h1.5l40.8-86.1c.5-1.2 2.2-2.7 4.2-2.7h32.9c3.7 0 5.7 3.2 4.2 6.4l-77.6 163.9c-.7 1.5-2.2 2.7-4.2 2.7h-2.5c-2 0-3.5-1.2-4.2-2.7L911.8 77.3zM1100.7 75.6c0-2.5 2-4.7 4.7-4.7h102.3c2.7 0 4.7 2.2 4.7 4.7v26.9c0 2.5-2 4.7-4.7 4.7h-68.5v30.7h56.4c2.5 0 4.7 2.2 4.7 4.7v26.9c0 2.7-2.2 4.7-4.7 4.7h-56.4v33.4h68.5c2.7 0 4.7 2.2 4.7 4.7v26.9c0 2.5-2 4.7-4.7 4.7h-102.3c-2.7 0-4.7-2.2-4.7-4.7V75.6zM598.1 191.5l19.9 47c.5 3.2-1.7 5.4-4.7 5.4h-29.1c-2.2 0-4.4-2-4.7-4l-31-83.3-.1-.3h-.5l-32.5 83.6c-.2 2-2.2 4-4.7 4h-29.2c-3 0-5.2-2.2-4.7-5.4l64-163.6c.2-2.2 2.5-4 4.4-4h4c1.2 0 3.5 1 4.2 2.5l44.7 118.1zM590.6 131.2l20.9-56.4c.2-2.2 2.5-4 4.4-4h4c1.2 0 3.5 1 4.2 2.5l44.7 118.1 19.9 47c.5 3.2-1.7 5.4-4.7 5.4h-29.1c-2.2 0-4.4-2-4.7-4l-31-83.3-.1-.3h-.5l-9.3 24-18.7-49z"/></g></svg>