<svg id="圖層_1" xmlns="http://www.w3.org/2000/svg" viewBox="0 0 600 150"><style>.st0{fill:#fff}</style><switch><g><path class="st0" d="M130.4 79.3c2.8-4.6 1.1-10-5.3-13.7L16.2 2.7C9.8-.9 4.3.3 1.6 5 .6 6.9 0 9.3 0 12.2v56.2h18.5V25.5L47 75h57.1L67 96.4l9.3 16.1L125 84.4c2.5-1.5 4.3-3.2 5.4-5.1M18.5 82.4H0V138c0 10.2 7.2 14.4 16.1 9.3l48.1-27.8-9.3-16.1-36.3 21v-42zM158.2 33.7c-.8-1.7.3-3.3 2.2-3.3h17c1 0 1.9.8 2.2 1.4l21 44.5h.8l21-44.5c.3-.6 1.1-1.4 2.2-1.4h17c1.9 0 2.9 1.7 2.2 3.3l-40.1 84.6c-.4.8-1.1 1.4-2.2 1.4h-1.3c-1 0-1.8-.6-2.2-1.4l-39.8-84.6zM347.6 32.8c0-1.3 1-2.4 2.4-2.4h52.8c1.4 0 2.4 1.1 2.4 2.4v13.9c0 1.3-1 2.4-2.4 2.4h-35.3v18.4h29.1c1.3 0 2.4 1.1 2.4 2.4v13.9c0 1.3-1.1 2.4-2.4 2.4h-29.1v31c0 1.3-1.2 2.4-2.4 2.4H350c-1.4 0-2.4-1.1-2.4-2.4V32.8zM417.9 32.8c0-1.3 1.1-2.4 2.4-2.4h15.3c1.3 0 2.4 1.1 2.4 2.4v84.5c0 1.3-1.1 2.4-2.4 2.4h-15.3c-1.3 0-2.4-1.1-2.4-2.4V32.8zM447.5 33.7c-.8-1.7.3-3.3 2.2-3.3h17c1 0 1.9.8 2.2 1.4l21 44.5h.8l21.1-44.5c.3-.6 1.1-1.4 2.2-1.4h17c1.9 0 2.9 1.7 2.2 3.3l-40.1 84.6c-.4.8-1.1 1.4-2.2 1.4h-1.3c-1 0-1.8-.6-2.2-1.4l-39.9-84.6zM542.3 32.8c0-1.3 1-2.4 2.4-2.4h52.8c1.4 0 2.4 1.1 2.4 2.4v13.9c0 1.3-1 2.4-2.4 2.4h-35.3v15.8h29.1c1.3 0 2.4 1.1 2.4 2.4v13.9c0 1.4-1.1 2.4-2.4 2.4h-29.1v17.2h35.3c1.4 0 2.4 1.1 2.4 2.4v13.9c0 1.3-1 2.4-2.4 2.4h-52.8c-1.4 0-2.4-1.1-2.4-2.4V32.8zM295.9 117.3l-18-85.5c-.4-.8-1.1-1.4-2.2-1.4h-10.3c-1 0-1.8.6-2.2 1.4l-12 25.4v.2l-27.9 59c-.8 1.7.3 3.3 2.2 3.3h17c1 0 1.9-.8 2.2-1.4l21-44.5h.7l9.3 44.5c.3.6 1.1 1.4 2.2 1.4h15.9c1.8 0 2.4-1.2 2.1-2.4M336.9 117.3l-18-85.5c-.4-.8-1.1-1.4-2.2-1.4h-10.3c-1 0-1.8.6-2.2 1.4l-12.1 25.5s-.3.6-.3.9c0 .3.1.9.1.9s5.2 24.7 5.3 25.3c.3 1.1 1.1 1.8 2 1.8.8 0 1.7-.5 2.1-1.3.2-.5 5.2-11.1 5.2-11.1h.7l9.3 44.5c.3.6 1.1 1.4 2.2 1.4h15.9c2 0 2.6-1.2 2.3-2.4"/></g></switch></svg>