<?xml version="1.0" encoding="UTF-8"?>
<svg width="1020px" height="395px" viewBox="0 0 1020 395" version="1.1" xmlns="http://www.w3.org/2000/svg" xmlns:xlink="http://www.w3.org/1999/xlink">
    <!-- Generator: Sketch 48.2 (47327) - http://www.bohemiancoding.com/sketch -->
    <title>5R</title>
    <desc>Created with Sketch.</desc>
    <defs>
        <linearGradient x1="50%" y1="0%" x2="50%" y2="96.5954943%" id="linearGradient-1">
            <stop stop-color="#FFFFFF" stop-opacity="0.598816803" offset="0%"></stop>
            <stop stop-color="#FFFFFF" stop-opacity="0" offset="48.4913106%"></stop>
            <stop stop-color="#FFFFFF" stop-opacity="0.802507926" offset="100%"></stop>
        </linearGradient>
        <path d="M149.383718,291.111007 C127.765139,291.111007 107.121587,286.129774 88.0267003,276.306501 L87.937385,276.260812 L57.0592457,283.950484 L54.8327405,252.182903 L54.7620325,252.112775 C29.21464,226.74068 15.1448073,192.948942 15.1448073,156.9641 C15.1448073,149.820047 15.7205726,142.613835 16.8556224,135.546285 L16.8715716,135.447468 L0,108.459766 L29.5070416,96.5422083 L29.552231,96.4534854 C49.1006062,57.8707099 86.2095574,30.9286983 128.81938,24.3828605 L128.918265,24.3674536 L149.383718,0 L169.849171,24.3674536 L169.948056,24.3828605 C212.557878,30.9286983 249.667361,57.8707099 269.215205,96.4534854 L269.260394,96.5422083 L298.767967,108.459766 L281.896396,135.447468 L281.911813,135.546285 C283.047395,142.616491 283.622628,149.822703 283.622628,156.9641 C283.622628,192.948942 269.552795,226.740149 244.005403,252.112775 L243.935227,252.182903 L241.70819,283.950484 L210.829519,276.260812 L210.740735,276.306501 C191.645848,286.129774 171.002296,291.111007 149.383718,291.111007" id="path-2"></path>
        <filter x="-6.7%" y="-5.5%" width="113.4%" height="113.7%" filterUnits="objectBoundingBox" id="filter-3">
            <feOffset dx="0" dy="4" in="SourceAlpha" result="shadowOffsetOuter1"></feOffset>
            <feGaussianBlur stdDeviation="6" in="shadowOffsetOuter1" result="shadowBlurOuter1"></feGaussianBlur>
            <feColorMatrix values="0 0 0 0 0   0 0 0 0 0   0 0 0 0 0  0 0 0 0.19811481 0" type="matrix" in="shadowBlurOuter1"></feColorMatrix>
        </filter>
        <filter x="-6.0%" y="-4.8%" width="112.0%" height="112.4%" filterUnits="objectBoundingBox" id="filter-4">
            <feGaussianBlur stdDeviation="6" in="SourceAlpha" result="shadowBlurInner1"></feGaussianBlur>
            <feOffset dx="0" dy="0" in="shadowBlurInner1" result="shadowOffsetInner1"></feOffset>
            <feComposite in="shadowOffsetInner1" in2="SourceAlpha" operator="arithmetic" k2="-1" k3="1" result="shadowInnerInner1"></feComposite>
            <feColorMatrix values="0 0 0 0 1   0 0 0 0 1   0 0 0 0 1  0 0 0 1 0" type="matrix" in="shadowInnerInner1"></feColorMatrix>
        </filter>
        <linearGradient x1="15.9323662%" y1="92.1065645%" x2="88.2601351%" y2="0%" id="linearGradient-5">
            <stop stop-color="#575757" offset="0%"></stop>
            <stop stop-color="#000000" offset="100%"></stop>
        </linearGradient>
        <linearGradient x1="79.6280987%" y1="8.45452687%" x2="16.0340548%" y2="88.397565%" id="linearGradient-6">
            <stop stop-color="#141414" offset="0%"></stop>
            <stop stop-color="#818181" offset="100%"></stop>
        </linearGradient>
        <path d="M150,45.0514286 C144.016915,45.0514286 139.166667,40.1956369 139.166667,34.2057143 C139.166667,28.2157917 144.016915,23.36 150,23.36 C155.983085,23.36 160.833333,28.2157917 160.833333,34.2057143 C160.833333,40.1956369 155.983085,45.0514286 150,45.0514286 Z M78.3333333,266.971429 C72.3502485,266.971429 67.5,262.115637 67.5,256.125714 C67.5,250.135792 72.3502485,245.28 78.3333333,245.28 C84.3164181,245.28 89.1666667,250.135792 89.1666667,256.125714 C89.1666667,262.115637 84.3164181,266.971429 78.3333333,266.971429 Z M223.333333,266.971429 C217.350249,266.971429 212.5,262.115637 212.5,256.125714 C212.5,250.135792 217.350249,245.28 223.333333,245.28 C229.316418,245.28 234.166667,250.135792 234.166667,256.125714 C234.166667,262.115637 229.316418,266.971429 223.333333,266.971429 Z M266.666667,130.148571 C260.683582,130.148571 255.833333,125.29278 255.833333,119.302857 C255.833333,113.312935 260.683582,108.457143 266.666667,108.457143 C272.649751,108.457143 277.5,113.312935 277.5,119.302857 C277.5,125.29278 272.649751,130.148571 266.666667,130.148571 Z M31.6666667,130.148571 C25.6835819,130.148571 20.8333333,125.29278 20.8333333,119.302857 C20.8333333,113.312935 25.6835819,108.457143 31.6666667,108.457143 C37.6497515,108.457143 42.5,113.312935 42.5,119.302857 C42.5,125.29278 37.6497515,130.148571 31.6666667,130.148571 Z" id="path-7"></path>
    </defs>
    <g id="1_main_PMP_dt" stroke="none" stroke-width="1" fill="none" fill-rule="evenodd" transform="translate(-130.000000, -2356.000000)">
        <g id="5R" transform="translate(128.000000, 2356.000000)">
            <g id="Group">
                <g id="Group-13" transform="translate(0.000000, 146.000000)">
                    <text id="Right-Place" font-family="PingFangTC-Medium, PingFang TC" font-size="36" font-weight="400" line-spacing="28" letter-spacing="-0.327272803" fill="#FC981C">
                        <tspan x="130" y="38">Right Place</tspan>
                    </text>
                    <text id="我是說明文我是說明文我是說明文我是說明文" font-family="PingFangTC-Light, PingFang TC" font-size="16" font-weight="300" line-spacing="24" fill="#4A4A4A">
                        <tspan x="2" y="65">我是說明文我是說明文我是說明文我是說明文</tspan>
                    </text>
                </g>
                <g id="Group-12" transform="translate(702.000000, 146.000000)">
                    <text id="我是說明文我是說明文我是說明文我是說明文" font-family="PingFangTC-Light, PingFang TC" font-size="16" font-weight="300" line-spacing="24" fill="#4A4A4A">
                        <tspan x="0" y="65">我是說明文我是說明文我是說明文我是說明文</tspan>
                    </text>
                    <text id="Right-Time" font-family="PingFangTC-Medium, PingFang TC" font-size="36" font-weight="400" line-spacing="28" letter-spacing="-0.327272803" fill="#FC981C">
                        <tspan x="0" y="38">Right Time</tspan>
                    </text>
                </g>
                <g id="Group-14" transform="translate(0.000000, 298.000000)">
                    <text id="我是說明文我是說明文我是說明文我是說明文" font-family="PingFangTC-Light, PingFang TC" font-size="16" font-weight="300" line-spacing="24" fill="#4A4A4A">
                        <tspan x="2" y="65">我是說明文我是說明文我是說明文我是說明文</tspan>
                    </text>
                    <text id="Right-Format" font-family="PingFangTC-Medium, PingFang TC" font-size="36" font-weight="400" line-spacing="28" letter-spacing="-0.327272803" fill="#FC981C">
                        <tspan x="103" y="38">Right Format</tspan>
                    </text>
                </g>
                <g id="Group-11" transform="translate(702.000000, 298.000000)">
                    <text id="我是說明文我是說明文我是說明文我是說明文" font-family="PingFangTC-Light, PingFang TC" font-size="16" font-weight="300" line-spacing="24" fill="#4A4A4A">
                        <tspan x="0" y="65">我是說明文我是說明文我是說明文我是說明文</tspan>
                    </text>
                    <text id="Right-Content" font-family="PingFangTC-Medium, PingFang TC" font-size="36" font-weight="400" line-spacing="28" letter-spacing="-0.327272803" fill="#FC981C">
                        <tspan x="0" y="38">Right Content</tspan>
                    </text>
                </g>
                <g id="Group-16" transform="translate(352.000000, 0.000000)">
                    <text id="我是說明文我是說明文我是說明文我是說明文" font-family="PingFangTC-Light, PingFang TC" font-size="16" font-weight="300" line-spacing="24" fill="#4A4A4A">
                        <tspan x="0" y="65">我是說明文我是說明文我是說明文我是說明文</tspan>
                    </text>
                    <text id="Right-Audience" font-family="PingFangTC-Medium, PingFang TC" font-size="36" font-weight="400" line-spacing="28" letter-spacing="-0.327272803" fill="#FC981C">
                        <tspan x="33" y="38">Right Audience</tspan>
                    </text>
                </g>
                <g id="img_5r" transform="translate(362.000000, 88.000000)">
                    <g id="Page-1" stroke-width="1" fill-rule="evenodd">
                        <g id="Fill-1">
                            <use fill="black" fill-opacity="1" filter="url(#filter-3)" xlink:href="#path-2"></use>
                            <use fill="url(#linearGradient-1)" fill-rule="evenodd" xlink:href="#path-2"></use>
                            <use fill="black" fill-opacity="1" filter="url(#filter-4)" xlink:href="#path-2"></use>
                        </g>
                        <path d="M93.1212416,102.617143 L180.498594,102.617143 C186.694602,102.617143 192.116027,103.286389 196.763033,104.624902 C201.410038,105.963415 205.282485,107.812648 208.380489,110.172658 C211.478493,112.532667 213.819563,115.368158 215.403769,118.679217 C216.987976,121.990275 217.780067,125.583071 217.780067,129.457713 C217.780067,132.698323 217.181598,135.709932 215.984642,138.49263 C214.787686,141.275327 213.080289,143.793807 210.8624,146.048145 C208.644511,148.302482 205.986604,150.239774 202.8886,151.860079 C199.790597,153.480384 196.375803,154.74843 192.644116,155.664255 L230.136816,205.646892 L210.070301,205.646892 L174.267413,157.249328 L162.121891,157.249328 L162.121891,205.646892 L144.801319,205.646892 L144.801319,115.297727 L93.754921,115.297727 L86.0451547,129.352042 C92.4523898,129.352042 98.5074882,130.355911 104.210632,132.363681 C109.913775,134.37145 114.930354,137.154106 119.260518,140.711732 C123.590682,144.269358 127.023078,148.513789 129.557809,153.445152 C132.092539,158.376515 133.359885,163.76571 133.359885,169.612897 C133.430295,174.896501 132.268561,179.880625 129.874648,184.56542 C127.480736,189.250215 124.224361,193.33614 120.105424,196.823318 C115.986487,200.310496 111.128327,203.057929 105.530797,205.065698 C99.9332675,207.073467 93.9661792,208.077337 87.6293532,208.077337 C84.742577,208.077337 82.1022724,207.795549 79.7083604,207.231965 C77.3144483,206.66838 75.2726128,205.928687 73.5827926,205.012862 C71.8929723,204.097038 70.57282,203.022721 69.6222961,201.789881 C68.6717722,200.55704 68.1965174,199.236159 68.1965174,197.827198 C68.1965174,195.995549 68.9182007,194.621833 70.3615888,193.706008 C71.8049769,192.790183 73.4771698,192.332278 75.3782176,192.332278 C77.4200838,192.332278 79.1802868,192.719736 80.6588795,193.494665 C82.1374722,194.269593 83.6336448,195.132569 85.1474421,196.083618 C86.6612395,197.034666 88.3510344,197.897642 90.2168776,198.67257 C92.0827208,199.447499 94.4941989,199.834957 97.4513844,199.834957 C100.831025,199.834957 103.99939,199.165711 106.956576,197.827198 C109.913761,196.488685 112.50126,194.674675 114.719149,192.385114 C116.937038,190.095552 118.697241,187.418567 119.999811,184.354077 C121.302381,181.289587 121.953656,177.99619 121.953656,174.473788 C121.953656,169.683321 120.756718,165.350832 118.362806,161.476189 C115.968894,157.601547 112.5541,154.290538 108.118321,151.543065 C103.682543,148.795591 98.313924,146.66457 92.0123026,145.149937 C85.7106812,143.635304 78.6874711,142.877999 70.9424616,142.877999 L93.1212416,102.617143 Z M162.121891,152.071422 L172.155148,152.071422 C176.027653,152.071422 179.618467,151.560682 182.927698,150.539185 C186.23693,149.517688 189.088459,148.055913 191.482371,146.153816 C193.876283,144.251719 195.742098,141.94458 197.079872,139.232331 C198.417647,136.520081 199.086524,133.473249 199.086524,130.091743 C199.086524,126.992029 198.558463,124.156537 197.502325,121.585184 C196.446188,119.01383 194.950015,116.79475 193.013763,114.927877 C191.07751,113.061004 188.771644,111.616841 186.096096,110.595344 C183.420547,109.573847 180.49861,109.063107 177.330197,109.063107 L162.121891,109.063107 L162.121891,152.071422 Z" id="Combined-Shape" fill="url(#linearGradient-5)"></path>
                        <path d="M149.999734,280.037541 C82.0757324,280.037541 27.011973,225.10514 27.011973,157.343176 C27.011973,89.5812127 82.0757324,34.6488118 149.999734,34.6488118 C217.923735,34.6488118 272.987495,89.5812127 272.987495,157.343176 C272.987495,225.10514 217.923735,280.037541 149.999734,280.037541 Z" id="Path" stroke="url(#linearGradient-6)" stroke-width="4" stroke-linecap="round" stroke-linejoin="round" stroke-dasharray="2,13"></path>
                    </g>
                    <g id="Combined-Shape">
                        <use fill="#FC981C" fill-rule="evenodd" xlink:href="#path-7"></use>
                        <path stroke="#FFFFFF" stroke-width="4" d="M150,43.0514286 C154.878004,43.0514286 158.833333,39.0915784 158.833333,34.2057143 C158.833333,29.3198501 154.878004,25.36 150,25.36 C145.121996,25.36 141.166667,29.3198501 141.166667,34.2057143 C141.166667,39.0915784 145.121996,43.0514286 150,43.0514286 Z M78.3333333,264.971429 C83.2113369,264.971429 87.1666667,261.011578 87.1666667,256.125714 C87.1666667,251.23985 83.2113369,247.28 78.3333333,247.28 C73.4553297,247.28 69.5,251.23985 69.5,256.125714 C69.5,261.011578 73.4553297,264.971429 78.3333333,264.971429 Z M223.333333,264.971429 C228.211337,264.971429 232.166667,261.011578 232.166667,256.125714 C232.166667,251.23985 228.211337,247.28 223.333333,247.28 C218.45533,247.28 214.5,251.23985 214.5,256.125714 C214.5,261.011578 218.45533,264.971429 223.333333,264.971429 Z M266.666667,128.148571 C271.54467,128.148571 275.5,124.188721 275.5,119.302857 C275.5,114.416993 271.54467,110.457143 266.666667,110.457143 C261.788663,110.457143 257.833333,114.416993 257.833333,119.302857 C257.833333,124.188721 261.788663,128.148571 266.666667,128.148571 Z M31.6666667,128.148571 C36.5446703,128.148571 40.5,124.188721 40.5,119.302857 C40.5,114.416993 36.5446703,110.457143 31.6666667,110.457143 C26.7886631,110.457143 22.8333333,114.416993 22.8333333,119.302857 C22.8333333,124.188721 26.7886631,128.148571 31.6666667,128.148571 Z"></path>
                    </g>
                </g>
            </g>
        </g>
    </g>
</svg>