<?xml version="1.0" encoding="UTF-8"?>
<svg width="340px" height="488px" viewBox="0 0 340 488" version="1.1" xmlns="http://www.w3.org/2000/svg" xmlns:xlink="http://www.w3.org/1999/xlink">
    <!-- Generator: Sketch 48.2 (47327) - http://www.bohemiancoding.com/sketch -->
    <title>Group</title>
    <desc>Created with Sketch.</desc>
    <defs>
        <linearGradient x1="50%" y1="0%" x2="50%" y2="96.5954943%" id="linearGradient-1">
            <stop stop-color="#FFFFFF" stop-opacity="0.598816803" offset="0%"></stop>
            <stop stop-color="#FFFFFF" stop-opacity="0" offset="48.4913106%"></stop>
            <stop stop-color="#FFFFFF" stop-opacity="0.802507926" offset="100%"></stop>
        </linearGradient>
        <path d="M86.1446106,167.488525 C73.677897,167.488525 61.7734487,164.62261 50.7620639,158.970864 L50.7105587,158.944577 L32.904165,163.368772 L31.6202137,145.091533 L31.5794388,145.051185 C16.8471091,130.453542 8.73350554,111.01172 8.73350554,90.3081125 C8.73350554,86.1978352 9.0655302,82.0517952 9.72007558,77.9855337 L9.72927294,77.92868 L0,62.4015094 L17.0157273,55.5448322 L17.0417865,55.4937861 C28.3146829,33.295477 49.7141781,17.7945936 74.2858424,14.0284951 L74.3428661,14.0196308 L86.1446106,0 L97.9463551,14.0196308 L98.0033787,14.0284951 C122.575043,17.7945936 143.974845,33.295477 155.247435,55.4937861 L155.273494,55.5448322 L172.289528,62.4015094 L162.560255,77.92868 L162.569146,77.9855337 C163.223998,82.0533235 163.555716,86.1993636 163.555716,90.3081125 C163.555716,111.01172 155.442112,130.453236 140.709782,145.051185 L140.669314,145.091533 L139.385056,163.368772 L121.578356,158.944577 L121.527157,158.970864 C110.515772,164.62261 98.6113241,167.488525 86.1446106,167.488525" id="path-2"></path>
        <filter x="-11.6%" y="-9.6%" width="123.2%" height="123.9%" filterUnits="objectBoundingBox" id="filter-3">
            <feOffset dx="0" dy="4" in="SourceAlpha" result="shadowOffsetOuter1"></feOffset>
            <feGaussianBlur stdDeviation="6" in="shadowOffsetOuter1" result="shadowBlurOuter1"></feGaussianBlur>
            <feColorMatrix values="0 0 0 0 0   0 0 0 0 0   0 0 0 0 0  0 0 0 0.19811481 0" type="matrix" in="shadowBlurOuter1"></feColorMatrix>
        </filter>
        <filter x="-10.4%" y="-8.4%" width="120.9%" height="121.5%" filterUnits="objectBoundingBox" id="filter-4">
            <feGaussianBlur stdDeviation="6" in="SourceAlpha" result="shadowBlurInner1"></feGaussianBlur>
            <feOffset dx="0" dy="0" in="shadowBlurInner1" result="shadowOffsetInner1"></feOffset>
            <feComposite in="shadowOffsetInner1" in2="SourceAlpha" operator="arithmetic" k2="-1" k3="1" result="shadowInnerInner1"></feComposite>
            <feColorMatrix values="0 0 0 0 1   0 0 0 0 1   0 0 0 0 1  0 0 0 1 0" type="matrix" in="shadowInnerInner1"></feColorMatrix>
        </filter>
        <linearGradient x1="79.6280987%" y1="8.45452687%" x2="17.1683953%" y2="86.971604%" id="linearGradient-5">
            <stop stop-color="#6A8389" offset="0%"></stop>
            <stop stop-color="#C3D4D8" offset="100%"></stop>
        </linearGradient>
        <polygon id="path-6" points="0 0 9.61111111 0 9.61111111 6.72 0 6.72"></polygon>
    </defs>
    <g id="1_main_PMP_m_1" stroke="none" stroke-width="1" fill="none" fill-rule="evenodd" transform="translate(0.000000, -2287.000000)">
        <g id="Group-4-Copy" transform="translate(-15.000000, 2134.000000)">
            <g id="Group" transform="translate(0.000000, 160.000000)">
                <g id="img_5r" opacity="0.601222826">
                    <g id="Page-1">
                        <g id="Fill-1">
                            <use fill="black" fill-opacity="1" filter="url(#filter-3)" xlink:href="#path-2"></use>
                            <use fill="url(#linearGradient-1)" fill-rule="evenodd" xlink:href="#path-2"></use>
                            <use fill="black" fill-opacity="1" filter="url(#filter-4)" xlink:href="#path-2"></use>
                        </g>
                        <g id="Group-19" transform="translate(52.380556, 50.880000)" fill="#6A8389">
                            <path d="M0.393424605,35.554033 C-2.79952954,11.7703593 13.8956308,0 34.0291908,0 C51.5661102,0 63.1231337,13.1357664 63.1231337,30.6495816 C63.1231337,31.5161211 62.5781798,31.7504377 62.50952,33.8366112 C62.4370757,35.9233246 67.3622047,46.0928805 67.992578,47.7298572 C68.5748353,49.2464362 68.216939,52.0053251 65.9176444,51.9405371 C63.0609614,51.8573925 62.7544248,53.6957519 64.1676287,54.6772901 C64.8477398,55.152402 64.1865507,57.2105007 63.7372881,57.4955679 C63.2864037,57.7822548 60.7070633,58.6822681 60.5448746,58.844778 C60.3799828,59.0083676 61.5066534,59.7037588 61.8548184,60.3160054 C62.2024428,60.9287919 61.3639274,62.930741 61.3639274,62.930741 C61.3639274,62.930741 60.5535247,63.4339277 59.0716609,64.4035881 C57.3530017,65.5255002 58.9289349,69.2254348 58.9078504,70.287418 C58.8883877,71.3499411 57.4346367,75.0288196 53.6696972,75.0288196 C49.9063796,75.0288196 43.6037282,72.576054 43.6037282,72.576054 L41.8964222,80.64 C40.654057,80.1989017 19.5976435,73.56893 14.2519052,71.9746054 C13.6620791,71.8002177 13.0706311,71.6263699 12.4791831,71.4519822 L13.8956308,60.5632796 C10.2134075,54.4310957 1.37520664,44.8683873 0.393424605,35.554033 Z M5.94691764,19.3241223 L6.21187996,22.4672954 L8.03139309,22.3069993 C8.3236928,23.3215044 8.80682847,24.2511159 9.43979403,25.0504869 L8.27112091,26.4430586 L10.6768106,28.4720688 L11.837598,27.0910975 C12.7313201,27.5888588 13.7291346,27.91156 14.7821495,28.0307275 L14.9356595,29.8282576 L18.067367,29.5551216 L17.913857,27.7612825 C18.9290202,27.4665276 19.8595427,26.9729846 20.6581097,26.3328551 L22.0333904,27.4918375 L24.0568824,25.0831788 L22.6689845,23.908905 C23.1573774,23.0140946 23.4785916,22.0175174 23.5900441,20.9650474 L25.4095572,20.8073878 L25.1409148,17.6721241 L23.3124645,17.8255654 C23.015959,16.8200242 22.5280919,15.8977948 21.8914463,15.1094969 L23.0806224,13.6884515 L20.6791385,11.658914 L19.4826023,13.0910325 C18.5972916,12.6027623 17.6120944,12.2826976 16.5759024,12.168803 L16.4202896,10.3043072 L13.2875307,10.575334 L13.447875,12.4387753 C12.4432261,12.7303664 11.5337324,13.2128364 10.7451541,13.8418928 L9.32150728,12.6396726 L7.29591234,15.0509677 L8.70851904,16.2410603 C8.22275477,17.1332342 7.89418046,18.1187384 7.77379083,19.1638263 L5.94691764,19.3241223 Z M11.8938353,38.8473849 L12.1609005,41.9891276 L13.9783107,41.8298518 C14.2706104,42.8466857 14.7553233,43.7764981 15.3867117,44.5755144 L14.2180385,45.9657501 L16.6232025,47.9957262 L17.7845156,46.6160386 C18.6787634,47.1139075 19.6760522,47.4372058 20.7269643,47.5569264 L20.8820514,49.352208 L24.0142846,49.0832322 L23.8607747,47.2874232 C24.8769893,46.9926047 25.8080375,46.4968454 26.6045016,45.8581597 L27.9797823,47.0179201 L30.0038001,44.610323 L28.6164279,43.4342132 C29.104295,42.5370999 29.4249836,41.5424168 29.5369617,40.4897195 L31.3564748,40.330971 L31.0873067,37.1939749 L29.2593821,37.3474494 C28.9634024,36.3427457 28.4750095,35.4203169 27.8383639,34.6329035 L29.0285915,33.2126059 L26.6265818,31.181575 L25.4284685,32.6103111 C24.5442093,32.1235176 23.559012,31.8033837 22.5249229,31.6905193 L22.3661558,29.8282576 L19.2360255,30.0956511 L19.3947926,31.9605499 C18.3901438,32.2522041 17.4811758,32.7368879 16.6920717,33.3629159 L15.2689506,32.1614907 L13.2433557,34.5727795 L14.6559624,35.7657662 C14.1691467,36.6570782 13.843201,37.6427953 13.7201827,38.6881091 L11.8938353,38.8473849 Z M34.1279771,36.471372 L35.8696697,34.3998309 C37.2119696,35.1429823 38.7069003,35.630592 40.2826668,35.8093111 L40.517197,38.5055689 L45.2136512,38.0969156 L44.9849709,35.4065263 C46.5064924,34.9615957 47.8987828,34.2179109 49.0974928,33.2597631 L51.1619969,35.003208 L54.1959988,31.3856132 L52.116604,29.6293646 C52.8462535,28.2849702 53.3270139,26.7901316 53.4982581,25.2126021 L56.2254031,24.9751991 L55.8222877,20.2671512 L53.0807837,20.5013532 C52.6367186,18.9910434 51.9028145,17.6082377 50.9503347,16.4249572 L52.7324452,14.2947322 L49.1299335,11.2522396 L47.333464,13.3947349 C46.0076503,12.6665212 44.531865,12.1853134 42.9779029,12.0092617 L42.7407136,9.21964325 L38.0421321,9.62456205 L38.2809168,12.4184484 C36.7780089,12.8559101 35.4144364,13.5830568 34.2300855,14.5246664 L32.0959137,12.7204037 L29.0560618,16.3385319 L31.1764064,18.1283903 C30.4467568,19.4594475 29.9548283,20.9409489 29.7718841,22.5088755 L27.0314438,22.7462785 L27.4356229,27.4607284 L30.1590451,27.2201245 C30.5972603,28.7485729 31.3253144,30.1377805 32.2724761,31.3391996 L30.5196154,33.4283459 L34.1279771,36.471372 Z M15.2655336,15.2024745 C16.6085143,15.0909732 17.8572771,15.5284782 18.8134156,16.3329875 C19.7690556,17.1404967 20.4116325,18.3030101 20.5262893,19.6480256 C20.6389522,21.0000411 20.2047516,22.2510555 19.4021536,23.2095665 C18.5960661,24.1690775 17.4400258,24.8145849 16.0965465,24.9295862 C14.7535658,25.0430875 13.5053015,24.6035825 12.5466705,23.8020733 C11.589535,22.993564 10.9484536,21.8305506 10.8303072,20.4860352 C10.7171458,19.1355197 11.1518449,17.8840053 11.9579324,16.9259943 C12.766014,15.9654832 13.9215558,15.3209758 15.2655336,15.2024745 Z M21.2119406,34.7272404 C22.5539294,34.6127384 23.8041924,35.0512461 24.760833,35.8547602 C25.7154796,36.6642744 26.3585574,37.8267949 26.4727162,39.1718185 C26.5873735,40.5208422 26.1506788,41.7763642 25.3495733,42.7333811 C24.5424856,43.6918979 23.3884351,44.3379092 22.0444522,44.4534113 C20.6999708,44.5674133 19.4507049,44.1274055 18.4935657,43.3253915 C17.5359281,42.5143772 16.8948443,41.3533568 16.7771959,40.0083332 C16.6640342,38.6603095 17.0997319,37.4067875 17.904327,36.4472706 C18.7129101,35.4892538 19.8679577,34.8462425 21.2119406,34.7272404 Z M40.605816,16.3181869 C42.6958982,16.1434878 44.6369129,16.8218237 46.1254949,18.0782926 C47.6135539,19.3352861 48.6120441,21.1399847 48.791448,23.2363729 C48.970852,25.3327611 48.2908953,27.281206 47.0423903,28.7716562 C45.7876088,30.2663033 43.9872928,31.2672815 41.8993028,31.448276 C39.8102668,31.6266473 37.868729,30.9446391 36.3775318,29.6949903 C34.8884267,28.4364229 33.8894135,26.628052 33.7100095,24.5337623 C33.5337438,22.4410464 34.2069009,20.4889292 35.4611594,18.9979544 C36.7185562,17.5038318 38.5157339,16.5007552 40.605816,16.3181869 Z" id="Fill-10"></path>
                        </g>
                        <path d="M86.5,156 C50.4052633,156 21.1444444,126.773009 21.1444444,90.72 C21.1444444,54.6669913 50.4052633,25.44 86.5,25.44 C122.594737,25.44 151.855556,54.6669913 151.855556,90.72 C151.855556,126.773009 122.594737,156 86.5,156 Z" id="Path" stroke="url(#linearGradient-5)" stroke-width="4" stroke-linecap="round" stroke-linejoin="round" stroke-dasharray="2,13"></path>
                    </g>
                    <g id="Group-9" transform="translate(113.411111, 131.520000)">
                        <ellipse id="Oval" fill="#00AEEF" cx="11.5333333" cy="11.52" rx="11.5333333" ry="11.52"></ellipse>
                        <path d="M20.9041667,11.52 C20.9041667,16.6892876 16.7087088,20.88 11.5332122,20.88 C6.35795786,20.88 2.1625,16.6892876 2.1625,11.52 C2.1625,6.35047038 6.16699085,2.16 11.5332122,2.16 C16.7087088,2.16 20.9041667,6.35047038 20.9041667,11.52" id="Fill-54" fill="#FFFFFF"></path>
                        <g id="Group-12" transform="translate(3.363889, 4.800000)">
                            <path d="M5.76666667,8.64 L5.76666667,4.8 L10.5722222,4.8 L10.5722222,8.64 L5.76666667,8.64 Z M9.07385,6 L7.8390625,7.23336 L6.97478333,6.37008 L6.72777778,6.61656 L7.8390625,7.72656 L9.32085556,6.24648 L9.07385,6 Z" id="Combined-Shape" fill="#5D949B"></path>
                            <polygon id="Fill-58" fill="#C9C9C9" points="0 8.64 4.80555556 8.64 4.80555556 4.8 0 4.8"></polygon>
                            <path d="M11.5333333,8.64 L11.5333333,4.8 L16.3388889,4.8 L16.3388889,8.64 L11.5333333,8.64 Z M15.0807944,6 L13.8460069,7.23336 L12.9817278,6.37008 L12.7347222,6.61656 L13.8460069,7.72656 L15.3278,6.24648 L15.0807944,6 Z" id="Combined-Shape" fill="#99C69C"></path>
                            <polygon id="Fill-60" fill="#C9C9C9" points="8.65 3.84 13.4555556 3.84 13.4555556 0 8.65 0"></polygon>
                            <path d="M2.88333333,3.84 L2.88333333,0 L7.68888889,0 L7.68888889,3.84 L2.88333333,3.84 Z M6.43079444,1.2 L5.19600694,2.4336 L4.33172778,1.57008 L4.08472222,1.8168 L5.19600694,2.9268 L6.6778,1.44672 L6.43079444,1.2 Z" id="Combined-Shape" fill="#FF916E"></path>
                            <polygon id="Fill-62" fill="#C9C9C9" points="8.65 13.44 13.4555556 13.44 13.4555556 9.6 8.65 9.6"></polygon>
                            <polygon id="Fill-63" fill="#C9C9C9" points="2.88333333 13.44 7.68888889 13.44 7.68888889 9.6 2.88333333 9.6"></polygon>
                        </g>
                    </g>
                    <g id="Group-6" transform="translate(37.002778, 131.520000)">
                        <ellipse id="Oval" fill="#FBB040" cx="11.5333333" cy="11.52" rx="11.5333333" ry="11.52"></ellipse>
                        <path d="M20.9041667,11.519758 C20.9041667,16.6892876 16.7084665,20.88 11.5332122,20.88 C6.35795786,20.88 2.1625,16.6892876 2.1625,11.519758 C2.1625,6.35071242 6.33130003,2.16 11.5332122,2.16 C16.7084665,2.16 20.9041667,6.35071242 20.9041667,11.519758" id="Fill-38" fill="#FFFFFF"></path>
                        <g id="Group-11" transform="translate(7.208333, 3.840000)">
                            <path d="M1.10820433,15.36 C0.498962721,15.36 0,14.8797845 0,14.2903966 L0,1.07150622 C0,0.482118336 0.498962721,0 1.10820433,0 L7.54228799,0 C8.15128344,0 8.65,0.482118336 8.65,1.07150622 L8.65,14.2903966 C8.65,14.8797845 8.15128344,15.36 7.54228799,15.36 L1.10820433,15.36 Z" id="Fill-39" fill="#353F49"></path>
                            <path d="M5.18466583,14.2512222 C5.18466583,14.4160781 5.06725562,14.548848 4.91999954,14.548848 L3.52784989,14.548848 C3.38281374,14.548848 3.26244361,14.4160781 3.26244361,14.2512222 L3.26244361,14.127027 C3.26244361,13.9641073 3.38281374,13.828848 3.52784989,13.828848 L4.91999954,13.828848 C5.06725562,13.828848 5.18466583,13.9641073 5.18466583,14.127027 L5.18466583,14.2512222 Z" id="Fill-40" fill="#474F59"></path>
                            <polygon id="Fill-43" fill="#FFFFFF" points="0.480555556 13.2 8.16944444 13.2 8.16944444 2.16 0.480555556 2.16"></polygon>
                            <g id="Group-50" transform="translate(0.480556, 4.387680)">
                                <mask id="mask-7" fill="white">
                                    <use xlink:href="#path-6"></use>
                                </mask>
                                <g id="Clip-46"></g>
                                <polygon id="Fill-45" fill="#ADECF7" mask="url(#mask-7)" points="-0.961111111 6.72 10.5722222 6.72 10.5722222 0 -0.961111111 0"></polygon>
                                <path d="M2.88333333,3.36034928 C2.88333333,2.29946516 3.7434068,1.44 4.80567216,1.44 C5.86677148,1.44 6.72777778,2.29946516 6.72777778,3.36034928 C6.72777778,4.42030198 5.86677148,5.28 4.80567216,5.28 C3.7434068,5.28 2.88333333,4.42030198 2.88333333,3.36034928" id="Fill-48" fill="#76D0DE" mask="url(#mask-7)"></path>
                                <polygon id="Fill-49" fill="#C2F2F9" mask="url(#mask-7)" points="4.08472222 2.4 4.08472222 4.32 5.76666667 3.36011397"></polygon>
                            </g>
                        </g>
                    </g>
                    <g id="Group-8" transform="translate(136.477778, 58.560000)">
                        <path d="M11.5333333,0 C5.16364947,0 0,5.15767993 0,11.52 C0,17.8823201 5.16364947,23.04 11.5333333,23.04 C17.9030172,23.04 23.0666667,17.8823201 23.0666667,11.52 C23.0666667,5.15767993 17.9030172,0 11.5333333,0" id="Fill-9" fill="#FBB040"></path>
                        <path d="M20.9041667,11.52 C20.9041667,16.6892876 16.7087631,20.88 11.533091,20.88 C6.35790361,20.88 2.1625,16.6892876 2.1625,11.52 C2.1625,6.35071242 6.35790361,2.16 11.533091,2.16 C16.7087631,2.16 20.9041667,6.35071242 20.9041667,11.52" id="Fill-12" fill="#FFFFFF"></path>
                        <path d="M11.5333333,4.56 C15.3817258,4.56 18.5013889,7.67557699 18.5013889,11.52 C18.5013889,15.363464 15.3817258,18.48 11.5333333,18.48 C7.68494082,18.48 4.56527778,15.363464 4.56527778,11.52 C4.56527778,7.67557699 7.68494082,4.56 11.5333333,4.56" id="Fill-14" fill="#353F49"></path>
                        <path d="M11.5339364,5.76 C14.7183821,5.76 17.3,8.33785661 17.3,11.52 C17.3,14.7002158 14.7183821,17.28 11.5339364,17.28 C8.3494907,17.28 5.76666667,14.7002158 5.76666667,11.52 C5.76666667,8.33785661 8.3494907,5.76 11.5339364,5.76" id="Fill-16" fill="#D9D8D7"></path>
                        <path d="M11.5334545,6 C14.584652,6 17.0597222,8.47245085 17.0597222,11.520605 C17.0597222,14.5690011 14.584652,17.04 11.5334545,17.04 C8.48104555,17.04 6.00694444,14.5690011 6.00694444,11.520605 C6.00694444,8.47245085 8.48104555,6 11.5334545,6" id="Fill-18" fill="#FFFFFF"></path>
                        <path d="M11.5329278,10.8 C11.9303121,10.8 12.2541667,11.1228796 12.2541667,11.5208099 C12.2541667,11.9171204 11.9303121,12.24 11.5329278,12.24 C11.1347326,12.24 10.8125,11.9171204 10.8125,11.5208099 C10.8125,11.1228796 11.1347326,10.8 11.5329278,10.8" id="Fill-23" fill="#353F49"></path>
                        <polygon id="Fill-24" fill="#F77B55" points="12.1548358 10.6807185 12.2526289 10.7754846 9.00407333 13.9556737 8.90579972 13.8602022"></polygon>
                        <path d="M11.5331984,11.04 C11.7976996,11.04 12.0138889,11.254861 12.0138889,11.5198652 C12.0138889,11.7843302 11.7976996,12 11.5337382,12 C11.2686972,12 11.0533176,11.7835215 11.0527778,11.5195956 C11.0527778,11.254861 11.2684273,11.04 11.5331984,11.04" id="Fill-25" fill="#F77B55"></path>
                    </g>
                    <g id="Group-2" transform="translate(74.966667, 13.440000)">
                        <path d="M11.5333333,0 C5.16364947,0 0,5.15767993 0,11.5197605 C0,17.8820806 5.16364947,23.0397605 11.5333333,23.0397605 C17.9027774,23.0397605 23.0666667,17.8820806 23.0666667,11.5197605 C23.0666667,5.15767993 17.9027774,0 11.5333333,0" id="Fill-27" fill="#FBB040"></path>
                        <path d="M20.9041667,11.52 C20.9041667,16.6892876 16.7088042,20.88 11.5333333,20.88 C6.35786247,20.88 2.1625,16.6892876 2.1625,11.52 C2.1625,6.35071242 6.35786247,2.16 11.5333333,2.16 C16.7088042,2.16 20.9041667,6.35071242 20.9041667,11.52" id="Fill-28" fill="#FFFFFF"></path>
                        <polygon id="Fill-30" fill="#353F49" points="19.7027778 10.56 19.7027778 12.68856 22.3669778 11.6244"></polygon>
                        <g id="Group-10" transform="translate(5.526389, 5.520000)">
                            <path d="M12.0138889,6 C12.0138889,9.31357707 9.32363108,12 6.00694444,12 C2.69001595,12 0,9.31357707 0,6 C0,2.68642293 2.69001595,0 6.00694444,0 C9.32363108,0 12.0138889,2.68642293 12.0138889,6" id="Fill-31" fill="#F77B55"></path>
                            <path d="M6.00694444,2.88 C4.28481596,2.88 2.88333333,4.27962394 2.88333333,6 C2.88333333,7.72013758 4.28481596,9.12 6.00694444,9.12 C7.72931168,9.12 9.13055556,7.72013758 9.13055556,6 C9.13055556,4.27962394 7.72931168,2.88 6.00694444,2.88 M6.00694444,10.8 C3.35706366,10.8 1.20138889,8.64681733 1.20138889,6 C1.20138889,3.35318267 3.35706366,1.2 6.00694444,1.2 C8.65682522,1.2 10.8125,3.35318267 10.8125,6 C10.8125,8.64681733 8.65682522,10.8 6.00694444,10.8" id="Fill-32" fill="#FFFFFF"></path>
                            <path d="M7.92916667,6.00012733 C7.92916667,7.06052656 7.06767865,7.92 6.00681697,7.92 C4.94646519,7.92 4.08472222,7.06052656 4.08472222,6.00012733 C4.08472222,4.9397281 4.94646519,4.08 6.00681697,4.08 C7.06767865,4.08 7.92916667,4.9397281 7.92916667,6.00012733" id="Fill-33" fill="#A82607"></path>
                        </g>
                        <polygon id="Fill-35" fill="#F77B55" points="0.961111111 10.56 3.75458056 10.56 4.82045278 11.62392 3.75458056 12.6888 0.961111111 12.6888 2.02650278 11.62392"></polygon>
                    </g>
                    <g id="Group-3" transform="translate(12.975000, 58.560000)">
                        <path d="M11.5333333,0 C5.16364947,0 0,5.15767993 0,11.52 C0,17.8823201 5.16364947,23.04 11.5333333,23.04 C17.9030172,23.04 23.0666667,17.8823201 23.0666667,11.52 C23.0666667,5.15767993 17.9030172,0 11.5333333,0" id="Fill-1" fill="#00AEEF"></path>
                        <path d="M20.9041667,11.52 C20.9041667,16.6892876 16.7086419,20.88 11.5332116,20.88 C6.35778128,20.88 2.1625,16.6892876 2.1625,11.52 C2.1625,6.35071242 6.15176735,2.16 11.5332116,2.16 C16.9475304,2.16 20.9041667,6.35071242 20.9041667,11.52" id="Fill-3" fill="#FFFFFF"></path>
                        <path d="M15.9328194,9.6372 C15.9328194,12.04344 11.5705764,17.86752 11.5705764,17.86752 C11.5705764,17.86752 7.20833333,12.04344 7.20833333,9.6372 C7.20833333,7.23072 9.16131111,5.28 11.5705764,5.28 C13.9798417,5.28 15.9328194,7.23072 15.9328194,9.6372 Z M13.5094018,9.6372 C13.5094018,8.56752 12.6412782,7.70064 11.5706004,7.70064 C10.4999226,7.70064 9.63179903,8.56752 9.63179903,9.6372 C9.63179903,10.70664 10.4999226,11.57352 11.5706004,11.57352 C12.6412782,11.57352 13.5094018,10.70664 13.5094018,9.6372 Z" id="Combined-Shape" fill="#DB4F4F"></path>
                    </g>
                </g>
                <g id="Group-11" transform="translate(147.000000, 0.000000)">
                    <g id="Group-16" transform="translate(0.000000, 286.000000)">
                        <text id="Right-Place" font-family="PingFangTC-Medium, PingFang TC" font-size="24" font-weight="400" line-spacing="24" letter-spacing="-0.218181863" fill="#FC981C">
                            <tspan x="0" y="25">Right Place</tspan>
                        </text>
                        <text id="不僅基於用戶實時地理位置的分析，還包括廣" font-family="PingFangTC-Light, PingFang TC" font-size="14" font-weight="300" letter-spacing="-0.127272725" fill="#4A4A4A">
                            <tspan x="0" y="49">不僅基於用戶實時地理位置的分</tspan>
                            <tspan x="0" y="69">析，還包括廣告展示時用戶所處場</tspan>
                            <tspan x="0" y="89">景的分析推算。</tspan>
                        </text>
                    </g>
                    <g id="Group-14" transform="translate(0.000000, 90.000000)">
                        <text id="廣告展示的時段和投放頻率控制的組合分析" font-family="PingFangTC-Light, PingFang TC" font-size="14" font-weight="300" letter-spacing="-0.127272725" fill="#4A4A4A">
                            <tspan x="0" y="49">廣告展示的時段和投放頻率控制的</tspan>
                            <tspan x="0" y="69">組合分析</tspan>
                        </text>
                        <text id="Right-Time" font-family="PingFangTC-Medium, PingFang TC" font-size="24" font-weight="400" line-spacing="24" letter-spacing="-0.218181863" fill="#FC981C">
                            <tspan x="0" y="25">Right Time</tspan>
                        </text>
                    </g>
                    <g id="Group-17" transform="translate(0.000000, 390.000000)">
                        <text id="通過VMFive的創新型廣告格式搭配優質" font-family="PingFangTC-Light, PingFang TC" font-size="14" font-weight="300" letter-spacing="-0.127272725" fill="#4A4A4A">
                            <tspan x="0" y="49">通過VMFive的創新型廣告格式搭</tspan>
                            <tspan x="0" y="69">配優質的媒體和版位所提供的曝光</tspan>
                            <tspan x="0" y="89">環境</tspan>
                        </text>
                        <text id="Right-Format" font-family="PingFangTC-Medium, PingFang TC" font-size="24" font-weight="400" line-spacing="24" letter-spacing="-0.218181863" fill="#FC981C">
                            <tspan x="0" y="25">Right Format</tspan>
                        </text>
                    </g>
                    <g id="Group-15" transform="translate(0.000000, 180.000000)">
                        <text id="素材本身也會經過數據的優化針對不同的受眾" font-family="PingFangTC-Light, PingFang TC" font-size="14" font-weight="300" letter-spacing="-0.127272725" fill="#4A4A4A">
                            <tspan x="0" y="49">素材本身也會經過數據的優化針對</tspan>
                            <tspan x="0" y="69">不同的受眾屬性和行銷階段進行調</tspan>
                            <tspan x="0" y="89">整</tspan>
                        </text>
                        <text id="Right-Content" font-family="PingFangTC-Medium, PingFang TC" font-size="24" font-weight="400" line-spacing="24" letter-spacing="-0.218181863" fill="#FC981C">
                            <tspan x="0" y="25">Right Content</tspan>
                        </text>
                    </g>
                    <g id="Group-12">
                        <text id="基於用戶輪廓和興趣標籤的受眾分析" font-family="PingFangTC-Light, PingFang TC" font-size="14" font-weight="300" letter-spacing="-0.127272725" fill="#4A4A4A">
                            <tspan x="0" y="49">基於用戶輪廓和興趣標籤的受眾分</tspan>
                            <tspan x="0" y="69">析</tspan>
                        </text>
                        <text id="Right-Audience" font-family="PingFangTC-Medium, PingFang TC" font-size="24" font-weight="400" line-spacing="24" letter-spacing="-0.218181863" fill="#FC981C">
                            <tspan x="0" y="25">Right Audience</tspan>
                        </text>
                    </g>
                </g>
            </g>
        </g>
    </g>
</svg>