<?xml version="1.0" encoding="UTF-8"?>
<svg width="315px" height="802px" viewBox="0 0 315 802" version="1.1" xmlns="http://www.w3.org/2000/svg" xmlns:xlink="http://www.w3.org/1999/xlink">
    <!-- Generator: Sketch 48.2 (47327) - http://www.bohemiancoding.com/sketch -->
    <title>Group 4</title>
    <desc>Created with Sketch.</desc>
    <defs>
        <linearGradient x1="50%" y1="3.40144231%" x2="50%" y2="85.9786184%" id="linearGradient-1">
            <stop stop-color="#A8DEFF" stop-opacity="0" offset="0%"></stop>
            <stop stop-color="#E2F4FF" offset="18.3992347%"></stop>
            <stop stop-color="#E3F4FE" stop-opacity="0.401834239" offset="43.3055644%"></stop>
            <stop stop-color="#E7F3FA" stop-opacity="0.198596014" offset="77.2939254%"></stop>
            <stop stop-color="#E9F2F8" offset="100%"></stop>
        </linearGradient>
        <linearGradient x1="50%" y1="51.8614477%" x2="50%" y2="100%" id="linearGradient-2">
            <stop stop-color="#6A8389" offset="0%"></stop>
            <stop stop-color="#6A8389" stop-opacity="0.170912591" offset="100%"></stop>
        </linearGradient>
        <linearGradient x1="50%" y1="2.17688901%" x2="50%" y2="98.2262436%" id="linearGradient-3">
            <stop stop-color="#FFFFFF" stop-opacity="0" offset="2.0049426%"></stop>
            <stop stop-color="#FFFFFF" offset="100%"></stop>
        </linearGradient>
        <linearGradient x1="50%" y1="3.67574593%" x2="50%" y2="97.2978329%" id="linearGradient-4">
            <stop stop-color="#6A8389" stop-opacity="0" offset="0%"></stop>
            <stop stop-color="#6A8389" offset="100%"></stop>
        </linearGradient>
        <rect id="path-5" x="0" y="0" width="62.8628763" height="84.8101266"></rect>
        <polygon id="path-7" points="1.68 17.9605263 42 17.9605263 42 47.0394737 1.68 47.0394737"></polygon>
    </defs>
    <g id="2_main_PMP_2_1_m" stroke="none" stroke-width="1" fill="none" fill-rule="evenodd" transform="translate(-30.000000, -1123.000000)">
        <g id="Group-4" transform="translate(0.000000, 1117.000000)">
            <g id="Group-25" transform="translate(0.000000, 214.000000)">
                <path d="M281.900901,129.5 C226.661855,166.325123 216.803403,400.170925 216.803403,445.135828 L246.761996,440.035828 L188.5,503 L130.238004,440.035828 L160.196597,445.135828 C160.196597,400.170925 150.338145,166.325123 95.0990991,129.5 C60.0942343,109.339429 28.3945346,95.1727627 0,87 C83.2773105,87 145.735293,87 187.373949,87 C229.513071,87 292.721755,87 377,87 C348.605465,95.1727627 316.905766,109.339429 281.900901,129.5 Z" id="Combined-Shape" fill="url(#linearGradient-1)"></path>
                <g id="Group-19" transform="translate(147.000000, 62.000000)" fill="url(#linearGradient-2)">
                    <path d="M0.47852834,43.0088769 C-3.40511042,14.2383266 16.9014674,0 41.3902231,0 C62.7206454,0 76.7776291,15.8900274 76.7776291,37.0760775 C76.7776291,38.1243099 76.1147933,38.4077571 76.0312813,40.9313521 C75.9431662,43.4556002 81.9336757,55.7574726 82.7004083,57.7376848 C83.4086168,59.5722548 82.973302,62.9096177 80.176635,62.8312452 C76.7020079,62.7306671 76.3291628,64.9544873 78.0480642,66.1418309 C78.8752938,66.7165626 78.0710794,69.2061962 77.5246344,69.5510353 C76.9762168,69.8978336 73.8389258,70.9865585 73.6416532,71.1831429 C73.4410928,71.3810335 74.8114794,72.2222318 75.2349578,72.9628521 C75.6577786,73.7041254 74.6378796,76.1258362 74.6378796,76.1258362 C74.6378796,76.1258362 73.6521744,76.7345294 71.849761,77.9075047 C69.7593296,79.2646554 71.6761612,83.7403791 71.6505157,85.0250352 C71.626843,86.3103445 69.8586235,90.7605971 65.2792702,90.7605971 C60.7018897,90.7605971 53.0358787,87.7935443 53.0358787,87.7935443 L50.9592565,97.54831 C49.4481488,97.0147238 23.8369124,88.9946031 17.3348094,87.0659861 C16.6173949,86.8550334 15.8980077,86.6447339 15.1786205,86.4337812 L16.9014674,73.2619738 C12.4227231,65.8440153 1.67268479,54.2762321 0.47852834,43.0088769 Z M7.45475487,24.0915258 L7.78689823,28.0101428 L10.0677478,27.8103006 C10.4341599,29.0750916 11.0397943,30.2340451 11.8332479,31.2306268 L10.3682584,32.9667562 L13.3839092,35.4963382 L14.8390135,33.774671 C15.9593383,34.3952338 17.210148,34.7975477 18.5301543,34.9461147 L18.7225865,37.1871087 L22.6483365,36.8465881 L22.4559043,34.6101957 C23.7284615,34.2427226 24.8949173,33.6274189 25.8959605,32.8293647 L27.6199427,34.2742766 L30.1564899,31.2713841 L28.4166913,29.8074082 C29.0289159,28.6918415 29.4315738,27.4494013 29.5712849,26.1372792 L31.8521344,25.9407239 L31.515378,22.0319675 L29.2233252,22.2232638 C28.851641,20.9696482 28.2400754,19.819898 27.4420087,18.8371212 L28.9326998,17.0654935 L25.9223211,14.5352541 L24.4224038,16.3206867 C23.3126232,15.7119568 22.0776299,15.3129297 20.7787121,15.1709365 L20.5836438,12.8464557 L16.6565758,13.1843469 L16.8575752,15.5075129 C15.5981983,15.8710417 14.458103,16.4725405 13.4695811,17.2567898 L11.6849696,15.7579731 L9.14578634,18.7641525 L10.9165586,20.2478496 C10.3076291,21.3601294 9.89574496,22.5887648 9.74483061,23.8916836 L7.45475487,24.0915258 Z M14.9095097,48.4313213 L15.2442892,52.3481551 L17.5225026,52.1495847 C17.8889148,53.4172791 18.4965262,54.5764831 19.2880028,55.5726226 L17.8230133,57.3058396 L20.8380051,59.8366258 L22.2937684,58.1165591 C23.4147522,58.737256 24.6649029,59.1403144 25.9822731,59.2895709 L26.1766824,61.5277617 L30.1030914,61.1924276 L29.9106591,58.9535793 C31.1845344,58.5860269 32.3516492,57.9679601 33.3500563,57.171706 L35.0740385,58.6175877 L37.6112447,55.6160188 L35.8721052,54.149754 C36.4836708,53.0313161 36.8856697,51.7912375 37.0260398,50.4788319 L39.3068893,50.280919 L38.9694738,46.3700029 L36.6780801,46.5613406 C36.3070549,45.3087691 35.6948303,44.1587704 34.8967636,43.1770962 L36.3887727,41.4064007 L33.3777349,38.8742995 L31.8758407,40.6555153 C30.7673781,40.0486264 29.5323847,39.649513 28.236103,39.5088042 L28.0370806,37.1871087 L24.1133077,37.5204703 L24.3123301,39.8454533 C23.0529532,40.2090607 21.9135169,40.8133196 20.924336,41.5937933 L19.1403835,40.0959676 L16.6012002,43.1021392 L18.3719725,44.5894446 C17.7617249,45.7006497 17.3531359,46.9295506 17.1989265,48.2327509 L14.9095097,48.4313213 Z M42.7811042,45.4691285 L44.9644019,42.8865229 C46.6470411,43.8130152 48.5210105,44.4209219 50.4963116,44.6437323 L50.7903068,48.0051767 L56.6775441,47.4957057 L56.3908821,44.1415775 C58.2981843,43.5868793 60.0434891,42.6597219 61.5461313,41.465192 L64.134089,43.6387575 L67.9373603,39.1286755 L65.3307362,36.9391474 C66.2453879,35.263081 66.8480447,33.3994547 67.0627079,31.432737 L70.4813188,31.136765 L69.9759937,25.2672068 L66.5393831,25.5591883 C65.9827255,23.6762739 65.0627406,21.9523199 63.86876,20.4771153 L66.1027236,17.8213481 L61.5867973,14.0282501 L59.334834,16.6993147 C57.6728612,15.7914454 55.8228914,15.19152 53.8749232,14.9720351 L53.5775947,11.4941972 L47.6876908,11.9990125 L47.9870193,15.4821712 C46.10305,16.0275579 44.3937446,16.9340971 42.9091021,18.1080087 L40.2338125,15.8586211 L36.423208,20.3693682 L39.0811646,22.6007979 C38.1665129,24.2602368 37.5498563,26.1072354 37.3205267,28.0619812 L33.8852494,28.3579532 L34.3919078,34.2354926 L37.8058521,33.9355299 C38.3551765,35.8410579 39.2678282,37.5729932 40.4551422,39.0708113 L38.2578447,41.6753654 L42.7811042,45.4691285 Z M19.1361,18.9530371 C20.8195927,18.8140276 22.3849785,19.3594683 23.5835453,20.3624559 C24.7814872,21.3691837 25.5869891,22.8184977 25.7307171,24.4953384 C25.8719455,26.1809061 25.3276537,27.740555 24.3215575,28.9355377 C23.3110869,30.1317672 21.8619334,30.936526 20.1778158,31.079899 C18.4943231,31.221402 16.9295622,30.6734678 15.7278709,29.6742203 C14.5280543,28.6662458 13.7244271,27.2163085 13.5763247,25.5400912 C13.4344714,23.8563935 13.9793881,22.2961213 14.9898587,21.1017619 C16.0028289,19.9042857 17.4513575,19.1007736 19.1361,18.9530371 Z M26.5902148,43.2947068 C28.272464,43.1519563 29.8397304,43.698647 31.0389267,44.700394 C32.2356233,45.7096214 33.0417531,47.1589442 33.1848568,48.835795 C33.3285854,50.5176328 32.781167,52.0829014 31.7769417,53.2760213 C30.7652175,54.4710114 29.3185581,55.2763985 27.6338092,55.4203957 C25.9484354,55.5625228 24.3824189,55.013962 23.1825977,54.0140851 C21.9821517,53.0029876 21.1785214,51.5555349 21.0310434,49.8786841 C20.8891896,48.198093 21.4353582,46.6353179 22.4439578,45.4390811 C23.4575567,44.2447145 24.9054659,43.4430675 26.5902148,43.2947068 Z M50.9013952,20.3440039 C53.5214164,20.1262054 55.9545741,20.9718916 57.8205852,22.5383407 C59.6859406,24.1054438 60.9375974,26.3553748 61.1624891,28.9689575 C61.3873808,31.5825401 60.5350215,34.0116807 58.9699588,35.869836 C57.3970282,37.7332236 55.1402432,38.9811504 52.5228447,39.2067976 C49.9041349,39.4291745 47.4703215,38.5789099 45.6010321,37.0209634 C43.7343654,35.4518982 42.482053,33.1973888 42.2571613,30.5864224 C42.0362035,27.9774181 42.8800392,25.5436991 44.4523141,23.6848898 C46.028523,21.8221563 48.2813741,20.5716132 50.9013952,20.3440039 Z" id="Fill-10"></path>
                </g>
                <path d="M233.388889,98 C267.565219,101.687253 291,109.424246 291,118.375317 C291,130.870584 245.333044,141 189,141 C132.666956,141 87,130.870584 87,118.375317 C87,110.263122 106.248093,103.148106 135.166667,99.154685" id="Combined-Shape-Copy-2" stroke="url(#linearGradient-3)" stroke-width="5" stroke-linecap="round" stroke-dasharray="2,10"></path>
                <g id="Group-21" transform="translate(37.000000, 10.000000)">
                    <path d="M196.422891,90.7468354 C230.57905,94.4326787 254,102.166714 254,111.114362 C254,123.604853 208.359997,133.730396 152.060201,133.730396 C95.7604041,133.730396 50.1204013,123.604853 50.1204013,111.114362 C50.1204013,103.005269 69.3571342,95.8929728 98.2586399,91.901079" id="Combined-Shape" stroke="url(#linearGradient-4)" stroke-width="5" stroke-linecap="round" stroke-dasharray="2,10"></path>
                    <g id="Group-20">
                        <mask id="mask-6" fill="white">
                            <use xlink:href="#path-5"></use>
                        </mask>
                        <g id="Rectangle-9"></g>
                        <g id="Group-7" mask="url(#mask-6)">
                            <g transform="translate(0.849498, 0.000000)">
                                <polygon id="Fill-20" fill="#E4B58F" points="23.7859532 50.0379747 37.3779264 50.0379747 37.3779264 39.8607595 23.7859532 39.8607595"></polygon>
                                <path d="M46.2359922,24.0219601 C45.5724218,15.8203874 38.8474657,9.32911392 30.5858203,9.32911392 C22.3047723,9.32911392 15.5953383,15.8203874 14.9356485,24.0219601 C12.708225,24.6667626 11.0434783,26.6601458 11.0434783,29.1253356 C11.0434783,32.1095129 13.4300034,34.5235903 16.371444,34.5235903 C16.6469616,34.5235903 16.8836738,34.4056387 17.1436692,34.3663214 C19.9143667,39.7999616 24.8736822,44.1012658 30.5858203,44.1012658 C36.2901974,44.1012658 41.2456324,39.7999616 44.0202104,34.3663214 C44.2840863,34.4056387 44.5207986,34.5235903 44.7924356,34.5235903 C47.7338762,34.5235903 50.1204013,32.1095129 50.1204013,29.1253356 C50.1204013,26.6601458 48.4595351,24.6706943 46.2359922,24.0219601" id="Fill-22" fill="#FDD5AE"></path>
                                <path d="M28.8775508,0.423222409 C19.4148529,1.87592712 14.4414716,8.6130174 14.4414716,16.5544961 L14.8806156,19.9091856 C21.4022893,19.1184922 30.4008892,16.2013709 37.4618625,12.3246703 L46.0521356,20.3544304 L47.6067491,17.3869042 C48.2409692,9.35396064 45.2838555,1.87592712 38.0610923,1.87592712 C34.4653239,0.51957713 31.4041434,0.0353422274 28.8775508,0.423222409 Z" id="Fill-23" fill="#3C2415"></path>
                                <polygon id="Fill-24" fill="#3C2415" points="15.0828428 24.8695887 17.3892308 25.443038 17.3892308 18.0032884 14.4414716 16.9620253"></polygon>
                                <polygon id="Fill-25" fill="#3C2415" points="45.0234114 25.443038 46.8323367 24.627556 47.6313712 16.9620253 45.0234114 17.9633613"></polygon>
                                <path d="M49.270903,27.9873418 C49.18323,31.0594752 47.027271,33.0140943 44.173913,33.0759494 C44.4688132,32.2470919 44.4887389,31.921322 44.6361889,31.273906 C46.7164303,31.1831853 48.4101135,29.8636112 49.270903,27.9873418" id="Fill-26" fill="#E4B58F"></path>
                                <path d="M11.8929766,27.9873418 C11.9806496,31.0594752 14.1366086,33.018218 16.9899666,33.0759494 C16.6910813,32.2470919 16.6751407,31.921322 16.5276907,31.273906 C14.4474493,31.1831853 12.7537661,29.8636112 11.8929766,27.9873418" id="Fill-27" fill="#E4B58F"></path>
                                <polygon id="Fill-30" fill="#F1F2F2" points="50.1204013 51.6106042 50.1204013 100.924051 11.0434783 100.924051 11.0434783 51.6106042 19.5164932 48.2936437 21.568673 47.4936709 31.0872113 50.2486992 40.9866467 47.4936709 42.9299987 48.3677875"></polygon>
                                <polygon id="Fill-35" fill="#E6E7E8" points="12.7424749 106.860759 19.5384615 106.860759 19.5384615 102.620253 12.7424749 102.620253"></polygon>
                                <polygon id="Fill-36" fill="#E6E7E8" points="22.0869565 106.860759 25.5316722 106.860759 25.5316722 102.620253 22.0869565 102.620253"></polygon>
                                <polygon id="Fill-37" fill="#E6E7E8" points="35.6789298 106.860759 39.127893 106.860759 39.127893 102.620253 35.6789298 102.620253"></polygon>
                                <polygon id="Fill-38" fill="#E6E7E8" points="40.7759197 106.860759 47.5719064 106.860759 47.5719064 102.620253 40.7759197 102.620253"></polygon>
                                <polygon id="Fill-39" fill="#E6E7E8" points="27.1839465 106.860759 33.9799331 106.860759 33.9799331 102.620253 27.1839465 102.620253"></polygon>
                                <polygon id="Fill-40" fill="#008A7E" points="33.3079597 55.1183081 30.5819398 55.1265823 27.8177938 55.1183081 27.1839465 51.7341772 27.1839465 48.3417722 30.4913902 48.6065452 33.9799331 48.3417722 33.9799331 51.7341772"></polygon>
                                <polygon id="Combined-Shape" fill="#ABADB0" points="29.7803812 48.4919163 29.7324415 48.3417722 30.5819398 48.419024 31.4314381 48.3417722 31.3834984 48.4919163 31.5658625 48.5085002 38.2274247 56.1025651 37.0621485 60.2151899 30.5819398 50.6941983 24.1017311 60.2151899 22.9364548 56.1025651 29.5980171 48.5085002"></polygon>
                                <polygon id="Fill-42" fill="#009B8E" points="30.5819398 55.1265823 28.2781279 55.1304504 24.6354515 83.7387677 30.5819398 88.2025316 36.5284281 83.7387677 32.9098754 55.1304504"></polygon>
                                <path d="M30.5819398,47.8419394 L37.3759245,44.1012658 C38.649171,45.3025852 39.9264214,47.3085619 39.9264214,47.3085619 L36.5551209,55.9746835 L30.5819398,49.2640406 L24.6087587,55.9746835 L21.2374582,47.3085619 C21.2374582,47.3085619 22.5147086,45.3025852 23.7879551,44.1012658 L30.5819398,47.8419394 Z" id="Combined-Shape" fill="#FFFFFF"></path>
                                <path d="M21.143016,47.3347877 L32.2809365,75.4810127 L31.4314381,109.316618 C31.4314381,111.561259 29.6543821,113.391385 27.4378805,113.42267 L11.0434783,113.64557 L11.0434783,51.7263079 L22.7697354,44.9493671 L21.143016,47.3347877 Z" id="Fill-45" fill="#363637"></path>
                                <polygon id="Fill-46" fill="#242627" points="21.3810354 49.4433665 31.2320254 77.2537792 31.4314381 78.0253165 14.4414716 58.0822463 18.6091981 54.0375204 14.7964263 50.0122778 20.6232669 46.6455696 21.7080723 48.9562849"></polygon>
                                <polygon id="Combined-Shape" fill="#58595B" points="19.7369902 53.1620493 16.5660694 48.5181704 22.7383907 44.9493671 21.546754 47.2636997 31.4314381 73.3684365 31.3777587 76.3059237 16.1404682 56.4618524"></polygon>
                                <path d="M38.9824808,47.3347877 L50.1204013,75.4810127 L49.270903,109.316618 C49.270903,111.561259 47.493847,113.391385 45.2773454,113.42267 L28.8829431,113.64557 L28.8829431,51.7263079 L40.6092003,44.9493671 L38.9824808,47.3347877 Z" id="Fill-45-Copy" fill="#414042" transform="translate(39.501672, 79.297468) scale(-1, 1) translate(-39.501672, -79.297468) "></path>
                                <polygon id="Fill-49" fill="#242627" points="40.640478 49.4485876 29.8614424 74.2983089 29.8614424 76.429329 47.5719064 58.1035887 43.4090658 54.0513148 47.2173678 50.0185606 41.3973581 46.6455696 40.3138245 48.960597"></polygon>
                                <polygon id="Combined-Shape-Copy" fill="#58595B" transform="translate(37.377926, 60.627645) scale(-1, 1) translate(-37.377926, -60.627645) " points="33.3289635 53.1620493 30.1580427 48.5181704 36.3303639 44.9493671 35.1387272 47.2636997 45.0234114 73.3684365 44.9697319 76.3059237 29.7324415 56.4618524"></polygon>
                                <path d="M33.1304348,80.1435011 C33.1304348,80.8468046 32.5617967,81.4177215 31.8561873,81.4177215 C31.1505779,81.4177215 30.5819398,80.8468046 30.5819398,80.1435011 C30.5819398,79.4401976 31.1505779,78.8734177 31.8561873,78.8734177 C32.5617967,78.8734177 33.1304348,79.4401976 33.1304348,80.1435011" id="Fill-51" fill="#707073"></path>
                                <path d="M33.1304348,88.6245137 C33.1304348,89.3278172 32.5617967,89.8987342 31.8561873,89.8987342 C31.1505779,89.8987342 30.5819398,89.3278172 30.5819398,88.6245137 C30.5819398,87.9212103 31.1505779,87.3544304 31.8561873,87.3544304 C32.5617967,87.3544304 33.1304348,87.9212103 33.1304348,88.6245137" id="Fill-51-Copy" fill="#707073"></path>
                                <path d="M33.1304348,97.1055264 C33.1304348,97.8088299 32.5617967,98.3797468 31.8561873,98.3797468 C31.1505779,98.3797468 30.5819398,97.8088299 30.5819398,97.1055264 C30.5819398,96.4022229 31.1505779,95.835443 31.8561873,95.835443 C32.5617967,95.835443 33.1304348,96.4022229 33.1304348,97.1055264" id="Fill-51-Copy-2" fill="#707073"></path>
                                <polygon id="Fill-54" fill="#414042" points="13.5919732 105.783671 24.6354515 105.783671 24.6354515 101.772152 13.5919732 101.772152"></polygon>
                                <polygon id="Fill-55" fill="#5B595B" points="37.3779264 105.783671 48.4214047 105.783671 48.4214047 101.772152 37.3779264 101.772152"></polygon>
                                <path d="M49.7699588,51.7341772 L51.3242245,52.809871 C55.4498858,55.6679189 58.1431845,60.26121 58.676511,65.3530892 L61.0955275,88.390211 C61.3926666,91.1893705 60.71458,94.0081594 59.1869806,96.340138 L48.4214047,112.797468 L49.7699588,51.7341772 Z" id="Fill-56" fill="#414042"></path>
                                <path d="M11.3939208,51.7341772 L9.84346455,52.8059452 C5.71399381,55.6679189 3.02450456,60.2572841 2.48736861,65.3530892 L0.0683520721,88.3862851 C-0.228786967,91.1893705 0.449299558,94.0081594 1.97689897,96.340138 L12.7424749,112.797468 L11.3939208,51.7341772 Z" id="Fill-57" fill="#363637"></path>
                                <path d="M25.4849498,26.2911392 C25.4849498,27.2288433 24.7230497,27.9873418 23.7859532,27.9873418 C22.8488567,27.9873418 22.0869565,27.2288433 22.0869565,26.2911392 C22.0869565,25.3534351 22.8488567,24.5949367 23.7859532,24.5949367 C24.7230497,24.5949367 25.4849498,25.3534351 25.4849498,26.2911392" id="Fill-76" fill="#542524"></path>
                                <path d="M39.0769231,26.2911392 C39.0769231,27.2288433 38.3150229,27.9873418 37.3779264,27.9873418 C36.4408299,27.9873418 35.6789298,27.2288433 35.6789298,26.2911392 C35.6789298,25.3534351 36.4408299,24.5949367 37.3779264,24.5949367 C38.3150229,24.5949367 39.0769231,25.3534351 39.0769231,26.2911392" id="Fill-76-Copy" fill="#542524"></path>
                            </g>
                        </g>
                    </g>
                    <g id="Page-1" transform="translate(60.706030, 71.195054) rotate(-15.000000) translate(-60.706030, -71.195054) translate(36.706030, 47.695054)">
                        <path d="M47.0204748,23.4715731 C47.0204748,36.4342995 36.4945007,46.9431462 23.5102374,46.9431462 C10.5259741,46.9431462 0,36.4342995 0,23.4715731 C0,10.50848 10.5259741,0 23.5102374,0 C36.4945007,0 47.0204748,10.50848 47.0204748,23.4715731" id="Fill-1" fill="#63ACC6"></path>
                        <g id="Group-38" transform="translate(5.002178, 8.989113)">
                            <polygon id="Fill-3" fill="#E6E5E5" points="6.58564802 27.6171253 11.5809254 27.6171253 11.5809254 16.8656414 6.58564802 16.8656414"></polygon>
                            <polygon id="Fill-5" fill="#353F49" points="2.83909832 16.8656414 15.3274751 16.8656414 15.3274751 6.11415752 2.83909832 6.11415752"></polygon>
                            <polygon id="Fill-6" fill="#474F59" points="4.55875693 14.9733759 4.92813249 14.9733759 4.92813249 8.00569477 4.55875693 8.00569477"></polygon>
                            <polygon id="Fill-7" fill="#474F59" points="5.35030217 14.9733759 5.7193111 14.9733759 5.7193111 8.00569477 5.35030217 8.00569477"></polygon>
                            <polygon id="Fill-8" fill="#474F59" points="6.14111416 14.9733759 6.5103064 14.9733759 6.5103064 8.00569477 6.14111416 8.00569477"></polygon>
                            <polygon id="Fill-9" fill="#474F59" points="6.9326594 14.9733759 7.30185165 14.9733759 7.30185165 8.00569477 6.9326594 8.00569477"></polygon>
                            <polygon id="Fill-10" fill="#474F59" points="7.72347139 14.9733759 8.09284695 14.9733759 8.09284695 8.00569477 7.72347139 8.00569477"></polygon>
                            <polygon id="Fill-11" fill="#474F59" points="8.51519994 14.9733759 8.88420887 14.9733759 8.88420887 8.00569477 8.51519994 8.00569477"></polygon>
                            <polygon id="Fill-12" fill="#474F59" points="9.30619524 14.9733759 9.67538749 14.9733759 9.67538749 8.00569477 9.30619524 8.00569477"></polygon>
                            <polygon id="Fill-13" fill="#474F59" points="10.0971905 14.9733759 10.4663828 14.9733759 10.4663828 8.00569477 10.0971905 8.00569477"></polygon>
                            <path d="M30.8275184,8.76565978 L30.8275184,14.2134109 C32.3425998,14.2134109 33.5702465,12.9946265 33.5702465,11.4896264 C33.5702465,9.98462617 32.3425998,8.76565978 30.8275184,8.76565978" id="Fill-14" fill="#474F59"></path>
                            <polygon id="Fill-15" fill="#353F49" points="29.5542085 23.5560281 31.2194231 23.5560281 31.2194231 0.119282618 29.5542085 0.119282618"></polygon>
                            <polygon id="Fill-16" fill="#CCCBCA" points="1.73152158 14.9733759 2.83909832 14.9733759 2.83909832 8.00569477 1.73152158 8.00569477"></polygon>
                            <polygon id="Fill-17" fill="#FFFFFF" points="0.623761532 13.6897742 1.73152158 13.6897742 1.73152158 9.28929643 0.623761532 9.28929643"></polygon>
                            <polygon id="Fill-18" fill="#FFFFFF" points="29.55507 1.15024234 29.55507 11.4878785 15.3290699 11.4878785 15.3290699 6.11168136"></polygon>
                            <polygon id="Fill-19" fill="#E6E5E5" points="29.55507 11.4879331 29.55507 21.8253872 15.3290699 16.8639481 15.3290699 11.4879331"></polygon>
                            <polygon id="Fill-31" fill="#FFFFFF" points="34.7579127 11.7629152 36.6040572 11.7629152 36.6040572 11.2128782 34.7579127 11.2128782"></polygon>
                            <polygon id="Fill-32" fill="#FFFFFF" points="36.0589212 13.9373546 34.353561 13.2360165 34.5652874 12.7278559 36.2706476 13.429376"></polygon>
                            <polygon id="Fill-33" fill="#FFFFFF" points="34.7171072 15.7397498 33.4119191 14.4434031 33.8034755 14.0543171 35.1088469 15.3508458"></polygon>
                            <polygon id="Fill-34" fill="#FFFFFF" points="32.7838157 16.8948456 32.0771443 15.2010376 32.5887707 14.9905634 33.2952588 16.6843714"></polygon>
                            <polygon id="Fill-35" fill="#FFFFFF" points="34.5641326 10.2481924 34.3518562 9.74021385 36.0572164 9.03814747 36.2694928 9.54630807"></polygon>
                            <polygon id="Fill-36" fill="#FFFFFF" points="33.8008908 8.92265974 33.4093344 8.53375575 34.7145225 7.2368629 35.1064455 7.62576689"></polygon>
                            <polygon id="Fill-37" fill="#FFFFFF" points="32.5855628 7.98794283 32.0737531 7.77746858 32.7800578 6.08311439 33.2918675 6.29340658"></polygon>
                        </g>
                    </g>
                </g>
                <g id="Group-22" transform="translate(143.000000, 0.000000)">
                    <path d="M34.0740741,34.1935484 L34.0740741,18.8064516 L54.5185185,18.8064516 L54.5185185,34.1935484 L34.0740741,34.1935484 Z M48.1439407,23.6149194 L42.8907407,28.5570625 L39.2138074,25.0978508 L38.162963,26.0855101 L42.8907407,30.5333427 L49.1947852,24.6025786 L48.1439407,23.6149194 Z" id="Combined-Shape" fill="#5D949B"></path>
                    <polygon id="Fill-58" fill="#C9C9C9" points="10.2222222 34.1935484 30.6666667 34.1935484 30.6666667 18.8064516 10.2222222 18.8064516"></polygon>
                    <path d="M57.9259259,34.1935484 L57.9259259,18.8064516 L78.3703704,18.8064516 L78.3703704,34.1935484 L57.9259259,34.1935484 Z M73.0180148,23.6149194 L67.7648148,28.5570625 L64.0878815,25.0978508 L63.037037,26.0855101 L67.7648148,30.5333427 L74.0688593,24.6025786 L73.0180148,23.6149194 Z" id="Combined-Shape" fill="#99C69C"></path>
                    <polygon id="Fill-60" fill="#C9C9C9" points="47.7037037 15.3870968 68.1481481 15.3870968 68.1481481 0 47.7037037 0"></polygon>
                    <polygon id="Fill-60-Copy-2" fill="#C9C9C9" points="0 15.3870968 20.4444444 15.3870968 20.4444444 0 0 0"></polygon>
                    <polygon id="Fill-60-Copy" fill="#8A9DC0" points="71.5555556 15.3870968 92 15.3870968 92 0 71.5555556 0"></polygon>
                    <path d="M23.8518519,15.3870968 L23.8518519,0 L44.2962963,0 L44.2962963,15.3870968 L23.8518519,15.3870968 Z M38.9439407,4.80846774 L33.6907407,9.75157258 L30.0138074,6.29139919 L28.962963,7.28002016 L33.6907407,11.7278528 L39.9947852,5.79708871 L38.9439407,4.80846774 Z" id="Combined-Shape" fill="#FF916E"></path>
                    <polygon id="Fill-62" fill="#C9C9C9" points="47.7037037 53 68.1481481 53 68.1481481 37.6129032 47.7037037 37.6129032"></polygon>
                    <polygon id="Fill-62-Copy" fill="#C9C9C9" points="71.5555556 53 92 53 92 37.6129032 71.5555556 37.6129032"></polygon>
                    <polygon id="Fill-63" fill="#E39898" points="23.8518519 53 44.2962963 53 44.2962963 37.6129032 23.8518519 37.6129032"></polygon>
                    <polygon id="Fill-63-Copy" fill="#C9C9C9" points="0 53 20.4444444 53 20.4444444 37.6129032 0 37.6129032"></polygon>
                </g>
                <g id="Group-11" transform="translate(283.000000, 31.000000)">
                    <path d="M4.51993625,65 C2.0350757,65 0,62.9678378 0,60.4736834 L0,4.53436876 C0,2.04021431 2.0350757,0 4.51993625,0 L30.7620717,0 C33.2459283,0 35.28,2.04021431 35.28,4.53436876 L35.28,60.4736834 C35.28,62.9678378 33.2459283,65 30.7620717,65 L4.51993625,65 Z" id="Fill-39" fill="#353F49"></path>
                    <path d="M21.84,61.0200528 C21.84,61.8033595 21.3269242,62.4342105 20.6834236,62.4342105 L14.5998101,62.4342105 C13.9660105,62.4342105 13.44,61.8033595 13.44,61.0200528 L13.44,60.4299442 C13.44,59.6558374 13.9660105,59.0131579 14.5998101,59.0131579 L20.6834236,59.0131579 C21.3269242,59.0131579 21.84,59.6558374 21.84,60.4299442 L21.84,61.0200528 Z" id="Fill-40" fill="#474F59"></path>
                    <polygon id="Fill-43" fill="#FFFFFF" points="1.68 56.4473684 33.6 56.4473684 33.6 8.55263158 1.68 8.55263158"></polygon>
                    <mask id="mask-8" fill="white">
                        <use xlink:href="#path-7"></use>
                    </mask>
                    <use id="Clip-46" fill="#ADECF7" xlink:href="#path-7"></use>
                    <path d="M14.28,32.5014003 C14.28,28.248267 17.6626242,24.8026316 21.8404586,24.8026316 C26.013707,24.8026316 29.4,28.248267 29.4,32.5014003 C29.4,36.7507995 26.013707,40.1973684 21.8404586,40.1973684 C17.6626242,40.1973684 14.28,36.7507995 14.28,32.5014003" id="Fill-48" fill="#76D0DE" mask="url(#mask-8)"></path>
                    <polygon id="Fill-49" fill="#C2F2F9" mask="url(#mask-8)" points="19.32 28.2236842 19.32 36.7763158 26.04 32.5005077"></polygon>
                </g>
                <g id="Group" transform="translate(74.000000, 446.000000)">
                    <path d="M5.61220532,66.7620081 L6.76323099,85.1634552 L6.76238195,85.2141824 C6.76238195,86.752723 8.03001017,88 9.59367302,88 L10.1597048,88 C11.7230847,88 12.9887318,86.752723 12.9887318,85.2141824 L12.9887318,64.3201323 L14.1216444,64.3201323 L14.1216444,85.2141824 C14.1216444,86.752723 15.3901217,88 16.9540676,88 L17.5181183,88 L17.5181183,87.9927533 C18.9331978,87.9941469 20.2611084,86.8407989 20.3378057,85.355494 L20.9151581,74.6709986 L20.9151581,66.8272288 C20.9151581,65.7772863 21.215721,64.7627415 21.76647,63.8900656 C21.7336401,63.6439549 21.7209044,63.3944995 21.7265647,63.1444866 C21.7030744,62.4259436 21.8372239,61.7023836 22.1304284,61.02537 C23.4852255,57.903136 25.0053039,54.6039141 25.9650108,51.3409259 C26.3784971,49.9381225 26.7101917,48.4726069 27,46.9903679 L25.9910483,36.627238 C25.2571881,35.9505031 24.6467228,35.1561479 24.1856899,34.2831933 C24.1670108,34.276504 24.1486148,34.2698147 24.1299357,34.2631254 L24.1324829,34.2555999 L18.3999958,32.235708 C18.2007526,32.1660277 17.9992453,32.1194813 17.798021,32.0946751 L15.1274829,38.2831201 L14.4244714,35.5931826 L14.9650318,33.9543024 L13.5567447,33.3971389 L12.1481745,33.9543024 L12.6887349,35.5926252 L11.9857234,38.282284 L9.31518538,32.0941176 C9.06981059,32.1233834 8.83490739,32.1838658 8.61330594,32.2708268 L2.98044046,34.2555999 C1.83875431,34.6569584 1.12045995,35.7066221 1.10206392,36.8334916 L0,48.1520776 C0.26377082,50.2698006 0.65942705,52.3373539 1.37658934,54.4364027 C2.30827769,57.1656399 3.69958386,59.6303707 5.26069957,62.0530147 C6.2008784,63.5126772 6.2721984,65.2814415 5.61220532,66.7620081 M12.9581923,16.0012519 C9.463782,16.0726344 6.6848245,19.2038488 6.75116343,22.994987 C6.81666263,26.7861253 9.72969755,31.3178932 13.223548,31.2462193 C16.7179583,31.1745455 19.4706042,26.5268175 19.405105,22.7359706 C19.338766,18.944541 16.4528825,15.929578 12.9581923,16.0012519" id="Fill-1-Copy" fill-opacity="0.3" fill="#6A8389"></path>
                    <path d="M181.027924,89.1774784 L182.264211,108.951825 L182.263299,109.006337 C182.263299,110.659666 183.624826,112 185.304315,112 L185.912276,112 C187.591461,112 188.95086,110.659666 188.95086,109.006337 L188.95086,86.5534185 L190.167692,86.5534185 L190.167692,109.006337 C190.167692,110.659666 191.530131,112 193.209924,112 L193.815757,112 L193.815757,111.992213 C195.335657,111.99371 196.761931,110.754313 196.84431,109.158192 L197.464429,97.6765449 L197.464429,89.2475651 C197.464429,88.1192883 197.787256,87.02905 198.378801,86.0912653 C198.343539,85.8267927 198.32986,85.5587258 198.33594,85.29006 C198.31071,84.5179077 198.454796,83.7403641 198.769719,83.0128397 C200.224872,79.6576612 201.857549,76.1122901 202.888345,72.6058561 C203.33246,71.098392 203.688724,69.5235367 204,67.9307106 L202.916311,56.7944055 C202.128091,56.0671806 201.472406,55.2135599 200.977222,54.2754757 C200.95716,54.2682874 200.937401,54.261099 200.917338,54.2539106 L200.920074,54.2458236 L194.762958,52.0752311 C194.548957,52.0003521 194.332523,51.9503329 194.116393,51.923676 L191.248037,58.5738301 L190.492951,55.683201 L191.073553,53.9220468 L189.560948,53.3233143 L188.048039,53.9220468 L188.628641,55.682602 L187.873555,58.5729316 L185.005199,51.9230769 C184.741648,51.9545261 184.489345,52.0195211 184.251329,52.1129701 L178.201214,54.2458236 C176.974958,54.6771267 176.203457,55.805104 176.183698,57.0160473 L175,69.1790933 C175.283309,71.454816 175.708273,73.6766259 176.478559,75.932281 C177.479261,78.8651419 178.973627,81.513762 180.650381,84.1171552 C181.660203,85.6857206 181.736806,87.5864493 181.027924,89.1774784 M189.370678,35.00132 C185.602704,35.0765877 182.606193,38.3782273 182.677725,42.375709 C182.748352,46.3731906 185.889437,51.1516128 189.656808,51.0760379 C193.424782,51.000463 196.392922,46.0997693 196.322295,42.1025948 C196.250762,38.104806 193.138954,34.9257451 189.370678,35.00132" id="Fill-1-Copy-3" fill-opacity="0.481770833" fill="#6A8389"></path>
                    <path d="M171,38.6153523 C171,42.8208893 163.5,53 163.5,53 C163.5,53 156,42.8208893 156,38.6153523 C156,34.409396 159.357753,31 163.5,31 C167.642247,31 171,34.409396 171,38.6153523 Z M166.833421,38.6153523 C166.833421,36.7458054 165.340857,35.2307047 163.500041,35.2307047 C161.659226,35.2307047 160.166662,36.7458054 160.166662,38.6153523 C160.166662,40.4844799 161.659226,41.9995805 163.500041,41.9995805 C165.340857,41.9995805 166.833421,40.4844799 166.833421,38.6153523 Z" id="Combined-Shape-Copy-3" fill-opacity="0.3" fill="#DB4F4F"></path>
                    <path d="M27,4.49998093 C27,6.98507093 22.5,13 22.5,13 C22.5,13 18,6.98507093 18,4.49998093 C18,2.01464308 20.0146516,0 22.5,0 C24.9853484,0 27,2.01464308 27,4.49998093 Z M24.5000523,4.49998093 C24.5000523,3.39524863 23.6045139,2.49996187 22.5000248,2.49996187 C21.3955357,2.49996187 20.4999972,3.39524863 20.4999972,4.49998093 C20.4999972,5.60446538 21.3955357,6.49975214 22.5000248,6.49975214 C23.6045139,6.49975214 24.5000523,5.60446538 24.5000523,4.49998093 Z" id="Combined-Shape-Copy-4" fill-opacity="0.1" fill="#DB4F4F"></path>
                    <path d="M40.9100324,25.1864347 L41.5068605,34.5557409 L41.5064203,34.5815693 C41.5064203,35.3649347 42.163709,36 42.9744971,36 L43.2679951,36 C44.0786365,36 44.734898,35.3649347 44.734898,34.5815693 L44.734898,23.9431259 L45.3223341,23.9431259 L45.3223341,34.5815693 C45.3223341,35.3649347 45.9800631,36 46.790998,36 L47.0834687,36 L47.0834687,35.9963102 C47.8172137,35.9970198 48.5057599,35.4097795 48.5455289,34.6535197 L48.8448968,29.2133872 L48.8448968,25.2196426 C48.8448968,24.6850524 49.0007442,24.1684853 49.2863178,23.7241525 C49.2692949,23.5988424 49.2626912,23.4718294 49.2656261,23.3445325 C49.253446,22.9786781 49.323005,22.6102693 49.4750369,22.2655601 C50.1775243,20.6758391 50.9657131,18.9960028 51.463339,17.3346152 C51.6777392,16.6203619 51.849729,15.8741779 52,15.1194791 L51.4768399,9.84297352 C51.0963197,9.49840625 50.7797822,9.09395126 50.5407281,8.64947652 C50.5310427,8.64607058 50.521504,8.64266464 50.5118185,8.63925871 L50.5131393,8.63542703 L47.5407386,7.60697605 C47.4374273,7.57149754 47.332942,7.5477979 47.2286035,7.53516755 L45.84388,10.6860848 L45.4793556,9.31647246 L45.7596461,8.48201796 L45.0294232,8.19833181 L44.2990535,8.48201796 L44.579344,9.31618863 L44.2148196,10.685659 L42.8300961,7.53488372 C42.7028647,7.54978469 42.5810631,7.58058004 42.4661586,7.62485722 L39.5454136,8.63542703 C38.9534282,8.83978323 38.5809792,9.37423147 38.5714406,9.9479899 L38,15.7109768 C38.1367701,16.7892396 38.3419251,17.8419579 38.7137871,18.9107124 C39.1968847,20.3003346 39.9183027,21.5552804 40.7277701,22.7887971 C41.2152703,23.5320009 41.252251,24.4325874 40.9100324,25.1864347 M44.9336668,0.000618659862 C43.000956,0.0358948868 41.4639523,1.58329738 41.5006435,3.45682499 C41.5368702,5.3303526 43.1480303,7.56988907 45.0804315,7.53446886 C47.0131424,7.49904865 48.5355934,5.20220631 48.4993667,3.32882268 C48.4626755,1.45515109 46.8665325,-0.0348015517 44.9336668,0.000618659862" id="Fill-1-Copy-2" fill-opacity="0.1" fill="#6A8389"></path>
                    <path d="M211.74147,46.6727832 L212.508821,59.0864578 L212.508255,59.1206786 C212.508255,60.158583 213.35334,61 214.395782,61 L214.773137,61 C215.81539,61 216.659155,60.158583 216.659155,59.1206786 L216.659155,45.0254861 L217.41443,45.0254861 L217.41443,59.1206786 C217.41443,60.158583 218.260081,61 219.302712,61 L219.678746,61 L219.678746,60.9951113 C220.622132,60.9960515 221.507406,60.2179992 221.558537,59.2160079 L221.943439,52.0082133 L221.943439,46.7167813 C221.943439,46.0084868 222.143814,45.3240716 222.51098,44.7353617 C222.489093,44.5693346 222.480603,44.4010512 222.484376,44.2323918 C222.468716,43.7476604 222.558149,43.2595445 222.753619,42.8028289 C223.656817,40.69656 224.670203,38.4708944 225.310007,36.2696722 C225.585665,35.3233366 225.806794,34.3346951 226,33.334772 L225.327366,26.3437716 C224.838125,25.8872441 224.431149,25.3513696 224.123793,24.7624717 C224.111341,24.7579591 224.099077,24.7534464 224.086624,24.7489338 L224.088322,24.7438571 L220.266664,23.3812316 C220.133835,23.334225 219.999497,23.3028247 219.865347,23.2860903 L218.084989,27.460835 L217.616314,25.6461946 L217.976688,24.5406008 L217.03783,24.1647365 L216.098783,24.5406008 L216.459157,25.6458186 L215.990482,27.4602709 L214.210124,23.2857143 C214.04654,23.305457 213.889938,23.3462587 213.742204,23.4049229 L209.98696,24.7438571 C209.225836,25.0146148 208.746973,25.7227213 208.734709,26.482911 L208,34.118465 C208.175847,35.5470877 208.439618,36.9418657 208.917726,38.3578907 C209.538852,40.1990428 210.466389,41.861758 211.507133,43.4960814 C212.133919,44.4807743 212.181466,45.6739883 211.74147,46.6727832 M216.490204,13.0008445 C214.12362,13.0489994 212.241574,15.1613266 212.286502,17.7188405 C212.330861,20.2763543 214.303711,23.3334994 216.669916,23.285148 C219.036501,23.2367966 220.900727,20.1014245 220.856367,17.5441072 C220.811439,14.9863967 218.856979,12.9524931 216.490204,13.0008445" id="Fill-1-Copy-4" fill-opacity="0.2" fill="#6A8389"></path>
                    <path d="M56.6907999,104.816237 L58.2681314,130.102218 L58.2669679,130.171924 C58.2669679,132.286079 60.004088,134 62.1468853,134 L62.9225585,134 C65.0649679,134 66.7993732,132.286079 66.7993732,130.171924 L66.7993732,101.460782 L68.3518831,101.460782 L68.3518831,130.171924 C68.3518831,132.286079 70.0901668,134 72.2333519,134 L73.0063102,134 L73.0063102,133.990042 C74.9454932,133.991957 76.7652226,132.407107 76.8703263,130.366105 L77.661513,115.684219 L77.661513,104.905859 C77.661513,103.463101 78.0733955,102.068985 78.8281255,100.869815 C78.7831364,100.531626 78.7656838,100.188842 78.7734405,99.8452922 C78.7412501,98.8579206 78.9250846,97.863655 79.3268834,96.9333503 C81.1834572,92.6429947 83.2665276,88.1094347 84.5816815,83.6256647 C85.1483108,81.6980304 85.6028553,79.6842213 86,77.6474322 L84.6173625,63.4071439 C83.6117022,62.4772222 82.7751386,61.3856748 82.1433528,60.1861217 C82.1177556,60.1769298 82.0925462,60.1677378 82.066949,60.1585458 L82.0704395,60.1482048 L74.2148091,57.3726106 C73.9417721,57.2768608 73.6656324,57.2129 73.3898806,57.1788131 L69.7302544,65.6825414 L68.7668683,61.9862174 L69.5076362,59.7341828 L67.5777612,58.9685677 L65.6474985,59.7341828 L66.3882664,61.9854514 L65.4248802,65.6813924 L61.765254,57.1780471 C61.4289997,57.218262 61.1070953,57.3013728 60.8034193,57.4208685 L53.0843073,60.1482048 C51.5197744,60.6997235 50.5354451,62.142098 50.5102357,63.6905632 L49,79.2437723 C49.3614637,82.1537993 49.9036593,84.9948863 50.8864372,87.8792523 C52.1631954,91.6295792 54.0698001,95.0164399 56.2091068,98.3454678 C57.4975,100.351234 57.5952349,102.781746 56.6907999,104.816237 M67.3341999,36.0016456 C62.4924477,36.0954804 58.6420058,40.2115714 58.7339231,45.1951552 C58.8246769,50.1787391 62.8608924,56.1359066 67.701869,56.0416888 C72.5436211,55.9474711 76.3576063,49.8378699 76.2668525,44.8546691 C76.1749353,39.8707022 72.1763399,35.9074279 67.3341999,36.0016456" id="Fill-1" fill="#353F49"></path>
                    <path d="M97,111.115333 C97,117.80596 85,134 85,134 C85,134 73,117.80596 73,111.115333 C73,104.424039 78.3724043,99 85,99 C91.6275957,99 97,104.424039 97,111.115333 Z M90.3334729,111.115333 C90.3334729,108.141054 87.9453704,105.730667 85.0000661,105.730667 C82.0547618,105.730667 79.6666593,108.141054 79.6666593,111.115333 C79.6666593,114.088945 82.0547618,116.499333 85.0000661,116.499333 C87.9453704,116.499333 90.3334729,114.088945 90.3334729,111.115333 Z" id="Combined-Shape" fill="#DB4F4F"></path>
                    <g id="Page-1" transform="translate(123.000000, 70.000000)">
                        <path d="M38.1884471,78 L2.81155294,78 C1.25876846,78 0,76.7305101 0,75.1644998 L0,2.83550016 C0,1.26948994 1.25876846,0 2.81155294,0 L38.1884471,0 C39.7412315,0 41,1.26948994 41,2.83550016 L41,75.1644998 C41,76.7305101 39.7412315,78 38.1884471,78" id="Fill-1" fill="#353F49"></path>
                        <path d="M24.3437953,74.6086957 L16.6565674,74.6086957 C15.9484951,74.6086957 15.375,74.2289502 15.375,73.7608696 C15.375,73.2925489 15.9484951,72.9130435 16.6565674,72.9130435 L24.3437953,72.9130435 C25.0515049,72.9130435 25.625,73.2925489 25.625,73.7608696 C25.625,74.2289502 25.0515049,74.6086957 24.3437953,74.6086957" id="Fill-4" fill="#979EA0"></path>
                        <path d="M38.3835155,70.3695652 L2.61688351,70.3695652 C2.1149265,70.3695652 1.70833333,69.9633707 1.70833333,69.4627956 L1.70833333,9.38503044 C1.70833333,8.88445541 2.1149265,8.47826087 2.61688351,8.47826087 L38.3835155,8.47826087 C38.8850735,8.47826087 39.2916667,8.88445541 39.2916667,9.38503044 L39.2916667,69.4627956 C39.2916667,69.9633707 38.8850735,70.3695652 38.3835155,70.3695652" id="Fill-6" fill="#E8EDED"></path>
                        <polygon id="Fill-8" fill="#99C69C" points="1.70833333 50.0217391 39.2916667 50.0217391 39.2916667 29.673913 1.70833333 29.673913"></polygon>
                        <polygon id="Fill-19" fill="#FFFFFF" points="17.9375 36.4565217 17.9375 43.2391304 23.9166667 39.8480318"></polygon>
                        <polygon id="Fill-10" fill="#D2D8D8" points="4.27083333 15.2608696 19.6458333 15.2608696 19.6458333 12.7173913 4.27083333 12.7173913"></polygon>
                        <polygon id="Fill-11" fill="#D2D8D8" points="4.27083333 19.5 36.7291667 19.5 36.7291667 17.8043478 4.27083333 17.8043478"></polygon>
                        <polygon id="Fill-12" fill="#D2D8D8" points="4.27083333 22.8913043 36.7291667 22.8913043 36.7291667 21.1956522 4.27083333 21.1956522"></polygon>
                        <polygon id="Fill-13" fill="#D2D8D8" points="4.27083333 26.2826087 36.7291667 26.2826087 36.7291667 24.5869565 4.27083333 24.5869565"></polygon>
                        <polygon id="Fill-14" fill="#D2D8D8" points="4.27083333 55.1086957 36.7291667 55.1086957 36.7291667 53.4130435 4.27083333 53.4130435"></polygon>
                        <polygon id="Fill-15" fill="#D2D8D8" points="4.27083333 58.5 36.7291667 58.5 36.7291667 56.8043478 4.27083333 56.8043478"></polygon>
                        <polygon id="Fill-16" fill="#D2D8D8" points="4.27083333 61.8913043 36.7291667 61.8913043 36.7291667 60.1956522 4.27083333 60.1956522"></polygon>
                        <polygon id="Fill-17" fill="#D2D8D8" points="4.27083333 65.2826087 36.7291667 65.2826087 36.7291667 63.5869565 4.27083333 63.5869565"></polygon>
                        <polygon id="Fill-18" fill="#D2D8D8" points="4.27083333 68.673913 36.7291667 68.673913 36.7291667 66.9782609 4.27083333 66.9782609"></polygon>
                    </g>
                </g>
            </g>
            <g id="Group-4-Copy" transform="translate(30.000000, 0.000000)" fill="#000000" font-family="PingFangTC-Light, PingFang TC" font-weight="300">
                <text id="相較於傳統的投放優化演算法，VMFive" font-size="16" letter-spacing="-0.145454586">
                    <tspan x="0" y="69">相較於傳統的投放優化演算法，VMFive 5R</tspan>
                    <tspan x="0" y="91">智能演算法引入了更多維度的數據。VMFive</tspan>
                    <tspan x="0" y="113">融合了從媒體端，廣告平台端到廣告主端的</tspan>
                    <tspan x="0" y="135">貫穿整個數位行銷週期的所有數據。并以此</tspan>
                    <tspan x="0" y="157">為基礎，通過機器學習的方式不斷分析訓練</tspan>
                    <tspan x="0" y="179">廣告投放演算法。</tspan>
                </text>
                <text id="5R-特色" font-size="20" line-spacing="32" letter-spacing="-0.181818262">
                    <tspan x="122" y="21">5R 特色</tspan>
                </text>
            </g>
            <g id="Group-4-Copy-2" transform="translate(30.000000, 406.000000)" fill="#000000" font-family="PingFangTC-Light, PingFang TC" font-weight="300">
                <text id="VMFive透過和媒體，廣告主的深入數據" font-size="16" letter-spacing="-0.145454586">
                    <tspan x="0" y="69">VMFive透過和媒體，廣告主的深入數據合</tspan>
                    <tspan x="0" y="91">作，通過分析媒體端用戶行為，自有廣告平</tspan>
                    <tspan x="0" y="113">台上的用戶對於廣告反饋數據，以及廣告主</tspan>
                    <tspan x="0" y="135">端用戶的最終成效數據，搭配VMFive自己收</tspan>
                    <tspan x="0" y="157">集的投放數據，通過不同的組合試驗，</tspan>
                    <tspan x="0" y="179">lookalike人群定位，retargeting再行銷等方</tspan>
                    <tspan x="0" y="201">式為廣告主帶來前所未有的廣告成效體驗。</tspan>
                </text>
                <text id="如何實現" font-size="20" line-spacing="32" letter-spacing="-0.181818262">
                    <tspan x="118" y="21">如何實現</tspan>
                </text>
            </g>
        </g>
    </g>
</svg>