<?xml version="1.0" encoding="UTF-8"?>
<svg width="1042px" height="424px" viewBox="0 0 1042 424" version="1.1" xmlns="http://www.w3.org/2000/svg" xmlns:xlink="http://www.w3.org/1999/xlink" style="background: #F7F7F7;">
    <!-- Generator: Sketch 48.2 (47327) - http://www.bohemiancoding.com/sketch -->
    <title>5r_text_dt</title>
    <desc>Created with Sketch.</desc>
    <defs>
        <linearGradient x1="50%" y1="0%" x2="50%" y2="96.5954943%" id="linearGradient-1">
            <stop stop-color="#FFFFFF" stop-opacity="0.598816803" offset="0%"></stop>
            <stop stop-color="#FFFFFF" offset="48.4913106%"></stop>
            <stop stop-color="#FFFFFF" stop-opacity="0" offset="100%"></stop>
        </linearGradient>
        <path d="M149.383718,291.111007 C127.765139,291.111007 107.121587,286.129774 88.0267003,276.306501 L87.937385,276.260812 L57.0592457,283.950484 L54.8327405,252.182903 L54.7620325,252.112775 C29.21464,226.74068 15.1448073,192.948942 15.1448073,156.9641 C15.1448073,149.820047 15.7205726,142.613835 16.8556224,135.546285 L16.8715716,135.447468 L0,108.459766 L29.5070416,96.5422083 L29.552231,96.4534854 C49.1006062,57.8707099 86.2095574,30.9286983 128.81938,24.3828605 L128.918265,24.3674536 L149.383718,0 L169.849171,24.3674536 L169.948056,24.3828605 C212.557878,30.9286983 249.667361,57.8707099 269.215205,96.4534854 L269.260394,96.5422083 L298.767967,108.459766 L281.896396,135.447468 L281.911813,135.546285 C283.047395,142.616491 283.622628,149.822703 283.622628,156.9641 C283.622628,192.948942 269.552795,226.740149 244.005403,252.112775 L243.935227,252.182903 L241.70819,283.950484 L210.829519,276.260812 L210.740735,276.306501 C191.645848,286.129774 171.002296,291.111007 149.383718,291.111007" id="path-2"></path>
        <filter x="-6.7%" y="-5.5%" width="113.4%" height="113.7%" filterUnits="objectBoundingBox" id="filter-3">
            <feOffset dx="0" dy="4" in="SourceAlpha" result="shadowOffsetOuter1"></feOffset>
            <feGaussianBlur stdDeviation="6" in="shadowOffsetOuter1" result="shadowBlurOuter1"></feGaussianBlur>
            <feColorMatrix values="0 0 0 0 0   0 0 0 0 0   0 0 0 0 0  0 0 0 0.19811481 0" type="matrix" in="shadowBlurOuter1"></feColorMatrix>
        </filter>
        <filter x="-6.0%" y="-4.8%" width="112.0%" height="112.4%" filterUnits="objectBoundingBox" id="filter-4">
            <feGaussianBlur stdDeviation="6" in="SourceAlpha" result="shadowBlurInner1"></feGaussianBlur>
            <feOffset dx="0" dy="0" in="shadowBlurInner1" result="shadowOffsetInner1"></feOffset>
            <feComposite in="shadowOffsetInner1" in2="SourceAlpha" operator="arithmetic" k2="-1" k3="1" result="shadowInnerInner1"></feComposite>
            <feColorMatrix values="0 0 0 0 1   0 0 0 0 1   0 0 0 0 1  0 0 0 1 0" type="matrix" in="shadowInnerInner1"></feColorMatrix>
        </filter>
        <linearGradient x1="79.6280987%" y1="8.45452687%" x2="17.1683953%" y2="86.971604%" id="linearGradient-5">
            <stop stop-color="#6A8389" offset="0%"></stop>
            <stop stop-color="#C3D4D8" offset="100%"></stop>
        </linearGradient>
        <polygon id="path-6" points="0 0 16.6666667 0 16.6666667 11.68 0 11.68"></polygon>
    </defs>
    <g id="Symbols" stroke="none" stroke-width="1" fill="none" fill-rule="evenodd">
        <g id="5r_text_dt">
            <g id="Group-13" transform="translate(130.000000, 176.000000)" fill="#FC981C" font-family="PingFangTC-Medium, PingFang TC" font-size="36" font-weight="400" letter-spacing="-0.327272803" line-spacing="28">
                <text id="Right-Place">
                    <tspan x="0" y="38">Right Place</tspan>
                </text>
            </g>
            <g id="Group-12" transform="translate(702.000000, 176.000000)" fill="#FC981C" font-family="PingFangTC-Medium, PingFang TC" font-size="36" font-weight="400" letter-spacing="-0.327272803" line-spacing="28">
                <text id="Right-Time">
                    <tspan x="0" y="38">Right Time</tspan>
                </text>
            </g>
            <g id="Group-14" transform="translate(103.000000, 298.000000)" fill="#FC981C" font-family="PingFangTC-Medium, PingFang TC" font-size="36" font-weight="400" letter-spacing="-0.327272803" line-spacing="28">
                <text id="Right-Format">
                    <tspan x="0" y="38">Right Format</tspan>
                </text>
            </g>
            <g id="Group-11" transform="translate(702.000000, 298.000000)" fill="#FC981C" font-family="PingFangTC-Medium, PingFang TC" font-size="36" font-weight="400" letter-spacing="-0.327272803" line-spacing="28">
                <text id="Right-Content">
                    <tspan x="0" y="38">Right Content</tspan>
                </text>
            </g>
            <g id="Group-16" transform="translate(385.000000, 30.000000)" fill="#FC981C" font-family="PingFangTC-Medium, PingFang TC" font-size="36" font-weight="400" letter-spacing="-0.327272803" line-spacing="28">
                <text id="Right-Audience">
                    <tspan x="0" y="38">Right Audience</tspan>
                </text>
            </g>
            <g id="img_5r" transform="translate(362.000000, 88.000000)">
                <g id="Page-1">
                    <g id="Fill-1">
                        <use fill="black" fill-opacity="1" filter="url(#filter-3)" xlink:href="#path-2"></use>
                        <use fill="url(#linearGradient-1)" fill-rule="evenodd" xlink:href="#path-2"></use>
                        <use fill="black" fill-opacity="1" filter="url(#filter-4)" xlink:href="#path-2"></use>
                    </g>
                    <g id="Group-19" transform="translate(90.833333, 88.434286)" fill="#6A8389">
                        <path d="M0.682239199,61.7962954 C-4.8546755,20.4580055 24.0964696,0 59.0101574,0 C89.4210004,0 109.462082,22.831213 109.462082,53.2718919 C109.462082,54.77802 108.517075,55.1852845 108.398011,58.8112527 C108.272386,62.4381594 116.813072,80.1138161 117.906205,82.9590375 C118.915899,85.5949963 118.29527,90.3902079 114.308054,90.2776002 C109.354268,90.133087 108.822702,93.3283307 111.273345,95.0343375 C112.452728,95.8601273 111.306157,99.4372989 110.527089,99.9327728 C109.745209,100.431062 105.272364,101.995371 104.991112,102.277828 C104.705173,102.562163 106.658937,103.770819 107.262691,104.834962 C107.865508,105.900043 106.411435,109.379621 106.411435,109.379621 C106.411435,109.379621 105.006112,110.254208 102.436406,111.93957 C99.4560724,113.88956 102.188904,120.320398 102.152342,122.166227 C102.118591,124.012993 99.5976359,130.407234 93.0688391,130.407234 C86.5428548,130.407234 75.6134014,126.144094 75.6134014,126.144094 L72.6527552,140.16 C70.4983648,139.393329 33.984353,127.869807 24.7142865,125.098719 C23.6914667,124.795617 22.6658343,124.493453 21.640202,124.19035 L24.0964696,105.264748 C17.7111113,94.6064282 2.38475141,77.9855304 0.682239199,61.7962954 Z M10.3125739,33.587165 L10.7720462,39.0502991 L13.9272713,38.7716893 C14.4341494,40.5349958 15.2719569,42.1507491 16.369585,43.540132 L14.3429842,45.9605543 L18.5147005,49.4871672 L20.5276265,47.0869075 C22.0774337,47.9520641 23.8077478,48.5129496 25.6337853,48.7200739 L25.8999875,51.8443524 L31.3306942,51.3696161 L31.064492,48.2517529 C32.8248906,47.7394409 34.4385134,46.8816161 35.8233117,45.76901 L38.2081914,47.7834319 L41.7171372,43.5969537 L39.3103778,41.5559539 C40.1573018,40.0006883 40.7143208,38.2685421 40.9075908,36.4392491 L44.0628159,36.1652217 L43.5969621,30.7158348 L40.426239,30.9825303 C39.9120676,29.234804 39.0660553,27.6318814 37.9620456,26.2617446 L40.0242008,23.7918324 L35.8597777,20.264303 L33.7848594,22.7534612 C32.2496386,21.9048012 30.5412042,21.3484982 28.7443395,21.1505386 L28.4744907,17.9098672 L23.0419607,18.3809377 L23.3200144,21.6197761 C21.5778488,22.1265892 20.0006921,22.9651679 18.6332152,24.058528 L16.1644635,21.9689548 L12.6518711,26.1600154 L15.1014781,28.2285095 C14.2591123,29.7791928 13.6893303,31.4920929 13.4805621,33.3085552 L10.3125739,33.587165 Z M20.6251479,67.5204548 L21.0882667,72.9811028 L24.2398452,72.7042662 C24.7467233,74.4716204 25.5872658,76.0877229 26.682159,77.4764893 L24.6555582,79.8928513 L28.8263628,83.4211431 L30.8402004,81.0231147 C32.3909193,81.8884583 34.1203217,82.4503816 35.9427127,82.6584674 L36.2116498,85.7788377 L41.6432681,85.3113321 L41.3770659,82.1900452 C43.1392878,81.6776224 44.7538223,80.8159456 46.1349739,79.7058491 L48.5198537,81.721623 L52.0297111,77.5369901 L49.6238634,75.4927992 C50.4698758,73.9335307 51.0259831,72.2046769 51.2201648,70.3749886 L54.3753899,70.0990686 L53.9086244,64.6466707 L50.7388129,64.9134239 C50.2255532,63.1671532 49.3786292,61.5638842 48.2746195,60.1952847 L50.338598,57.7266721 L46.1732633,54.196547 L44.09561,56.6798264 C42.5622126,55.833733 40.8537781,55.2773098 39.06056,55.0811408 L38.7852413,51.8443524 L33.3572696,52.3091079 L33.6325883,55.5504797 C31.8904227,56.0574023 30.3141777,56.899829 28.9457891,57.9879252 L26.4779491,55.8997338 L22.9653567,60.0907834 L25.4149637,62.164308 C24.5707746,63.713493 24.0055508,65.4267633 23.7922244,67.2436181 L20.6251479,67.5204548 Z M59.1814631,63.3907181 L62.2017393,59.7901823 C64.529427,61.0818502 67.1217924,61.9293623 69.8543354,62.2399932 L70.2610352,66.9263459 L78.4051755,66.2160676 L78.0086201,61.5399147 C80.6470966,60.7665831 83.0614731,59.473988 85.1401609,57.8086359 L88.7202258,60.8389091 L93.9815008,54.5511849 L90.3756138,51.4986576 C91.640902,49.161972 92.4745905,46.5638002 92.7715459,43.8219037 L97.500699,43.4092747 L96.801655,35.2262389 L92.0476018,35.6333044 C91.2775467,33.0082422 90.0048807,30.6047942 88.3531815,28.54814 L91.4435466,24.845606 L85.1964165,19.5574641 L82.0811514,23.2813249 C79.7820526,22.0156202 77.2228872,21.1792351 74.5281553,20.8732406 L74.1168444,16.024618 L65.9690152,16.7284055 L66.3830928,21.5844461 C63.7768941,22.3447961 61.4123175,23.6086463 59.3585297,25.2452535 L55.6576538,22.1092731 L50.3862343,28.3979245 L54.0631324,31.5088689 C52.7978442,33.8223731 51.944789,36.3973635 51.6275448,39.1225694 L46.8753361,39.5351984 L47.5762246,47.7293612 L52.2989222,47.3111687 C53.0588329,49.9677576 54.3213545,52.3823327 55.9638314,54.4705136 L52.9241885,58.1016488 L59.1814631,63.3907181 Z M26.4720235,26.4233485 C28.8008919,26.2295486 30.9663764,26.989974 32.6244201,28.3882877 C34.2815993,29.7918158 35.3958945,31.8123747 35.5947214,34.1501397 C35.7900905,36.5000714 35.0371416,38.6744535 33.6453531,40.340437 C32.2475134,42.0081585 30.2428193,43.1301119 27.9130865,43.3299951 C25.5842181,43.5272712 23.419598,42.7633696 21.757232,41.3702702 C20.0974595,39.9650041 18.9857576,37.9435761 18.7808795,35.6066802 C18.5846459,33.2593556 19.3384593,31.0841044 20.736299,29.4189901 C22.1375966,27.7495304 24.1414262,26.6293151 26.4720235,26.4233485 Z M36.783712,60.3592512 C39.1108602,60.1602358 41.2789463,60.922404 42.9378607,62.318988 C44.5933172,63.7260008 45.7084811,65.746572 45.9064443,68.0843512 C46.105272,70.4290829 45.3479979,72.6112998 43.9587976,74.2746861 C42.5592236,75.9406797 40.5579799,77.0635089 38.2273738,77.2642625 C35.8959032,77.4624088 33.729546,76.6976335 32.0697672,75.3036566 C30.4091239,73.8940366 29.2974178,71.8760726 29.0934034,69.5382934 C28.8971691,67.1952999 29.6527142,65.0165592 31.0479658,63.3488275 C32.4501332,61.683703 34.4531059,60.5660882 36.783712,60.3592512 Z M70.4147099,28.3625629 C74.0391298,28.0589194 77.4050513,29.2379316 79.9864074,31.4217942 C82.5668565,33.6065687 84.2983424,36.7433067 84.6094475,40.3870291 C84.9205526,44.0307514 83.741437,47.4173342 81.5763994,50.0078786 C79.4004776,52.6057177 76.2785424,54.345513 72.6577505,54.6600987 C69.0351447,54.9701251 65.6683162,53.7847299 63.082425,51.6127213 C60.5001619,49.4252113 58.767769,46.2820904 58.4566639,42.6420154 C58.1510009,39.0046759 59.3183253,35.6117102 61.49334,33.020254 C63.6737968,30.4233268 66.79029,28.679884 70.4147099,28.3625629 Z" id="Fill-10"></path>
                    </g>
                    <path d="M150,271.142857 C87.407971,271.142857 36.6666667,220.343563 36.6666667,157.68 C36.6666667,95.0164373 87.407971,44.2171429 150,44.2171429 C212.592029,44.2171429 263.333333,95.0164373 263.333333,157.68 C263.333333,220.343563 212.592029,271.142857 150,271.142857 Z" id="Path" stroke="url(#linearGradient-5)" stroke-width="4" stroke-linecap="round" stroke-linejoin="round" stroke-dasharray="2,13"></path>
                </g>
                <g id="Group-9" transform="translate(196.666667, 228.594286)">
                    <ellipse id="Oval" fill="#00AEEF" cx="20" cy="20.0228571" rx="20" ry="20.0228571"></ellipse>
                    <path d="M36.25,20.0228571 C36.25,29.0075713 28.9746396,36.2914286 19.9997899,36.2914286 C11.0253604,36.2914286 3.75,29.0075713 3.75,20.0228571 C3.75,11.0377223 10.6942038,3.75428571 19.9997899,3.75428571 C28.9746396,3.75428571 36.25,11.0377223 36.25,20.0228571" id="Fill-54" fill="#FFFFFF"></path>
                    <g id="Group-12" transform="translate(5.833333, 8.342857)">
                        <path d="M10,15.0171429 L10,8.34285714 L18.3333333,8.34285714 L18.3333333,15.0171429 L10,15.0171429 Z M15.735,10.4285714 L13.59375,12.5722686 L12.095,11.0718057 L11.6666667,11.5002114 L13.59375,13.4294971 L16.1633333,10.8569771 L15.735,10.4285714 Z" id="Combined-Shape" fill="#5D949B"></path>
                        <polygon id="Fill-58" fill="#C9C9C9" points="0 15.0171429 8.33333333 15.0171429 8.33333333 8.34285714 0 8.34285714"></polygon>
                        <path d="M20,15.0171429 L20,8.34285714 L28.3333333,8.34285714 L28.3333333,15.0171429 L20,15.0171429 Z M26.1516667,10.4285714 L24.0104167,12.5722686 L22.5116667,11.0718057 L22.0833333,11.5002114 L24.0104167,13.4294971 L26.58,10.8569771 L26.1516667,10.4285714 Z" id="Combined-Shape" fill="#99C69C"></path>
                        <polygon id="Fill-60" fill="#C9C9C9" points="15 6.67428571 23.3333333 6.67428571 23.3333333 0 15 0"></polygon>
                        <path d="M5,6.67428571 L5,0 L13.3333333,0 L13.3333333,6.67428571 L5,6.67428571 Z M11.1516667,2.08571429 L9.01041667,4.22982857 L7.51166667,2.72894857 L7.08333333,3.15777143 L9.01041667,5.08705714 L11.58,2.51453714 L11.1516667,2.08571429 Z" id="Combined-Shape" fill="#FF916E"></path>
                        <polygon id="Fill-62" fill="#C9C9C9" points="15 23.36 23.3333333 23.36 23.3333333 16.6857143 15 16.6857143"></polygon>
                        <polygon id="Fill-63" fill="#C9C9C9" points="5 23.36 13.3333333 23.36 13.3333333 16.6857143 5 16.6857143"></polygon>
                    </g>
                </g>
                <g id="Group-6" transform="translate(64.166667, 228.594286)">
                    <ellipse id="Oval" fill="#FBB040" cx="20" cy="20.0228571" rx="20" ry="20.0228571"></ellipse>
                    <path d="M36.25,20.0224365 C36.25,29.0075713 28.9742193,36.2914286 19.9997899,36.2914286 C11.0253604,36.2914286 3.75,29.0075713 3.75,20.0224365 C3.75,11.038143 10.979133,3.75428571 19.9997899,3.75428571 C28.9742193,3.75428571 36.25,11.038143 36.25,20.0224365" id="Fill-38" fill="#FFFFFF"></path>
                    <g id="Group-11" transform="translate(12.500000, 6.674286)">
                        <path d="M1.92174161,26.6971429 C0.865253273,26.6971429 0,25.8624825 0,24.8380702 L0,1.86237985 C0,0.837967583 0.865253273,0 1.92174161,0 L13.0791121,0 C14.1351736,0 15,0.837967583 15,1.86237985 L15,24.8380702 C15,25.8624825 14.1351736,26.6971429 13.0791121,26.6971429 L1.92174161,26.6971429 Z" id="Fill-39" fill="#353F49"></path>
                        <path d="M8.99075,24.7699814 C8.99075,25.0565167 8.78714848,25.2872834 8.53179111,25.2872834 L6.11765876,25.2872834 C5.866151,25.2872834 5.65741667,25.0565167 5.65741667,24.7699814 L5.65741667,24.5541184 C5.65741667,24.2709484 5.866151,24.0358549 6.11765876,24.0358549 L8.53179111,24.0358549 C8.78714848,24.0358549 8.99075,24.2709484 8.99075,24.5541184 L8.99075,24.7699814 Z" id="Fill-40" fill="#474F59"></path>
                        <path d="M7.91666667,2.08469271 C7.91666667,2.31693061 7.73848684,2.50285714 7.50548246,2.50285714 C7.27453399,2.50285714 7.08333333,2.31693061 7.08333333,2.08469271 C7.08333333,1.85790321 7.27453399,1.66857143 7.50548246,1.66857143 C7.73848684,1.66857143 7.91666667,1.85790321 7.91666667,2.08469271" id="Fill-42" fill="#FFFFFF"></path>
                        <polygon id="Fill-43" fill="#FFFFFF" points="0.833333333 22.9428571 14.1666667 22.9428571 14.1666667 3.75428571 0.833333333 3.75428571"></polygon>
                        <g id="Group-50" transform="translate(0.833333, 7.626206)">
                            <mask id="mask-7" fill="white">
                                <use xlink:href="#path-6"></use>
                            </mask>
                            <g id="Clip-46"></g>
                            <polygon id="Fill-45" fill="#ADECF7" mask="url(#mask-7)" points="-1.66666667 11.68 18.3333333 11.68 18.3333333 0 -1.66666667 0"></polygon>
                            <path d="M5,5.84060708 C5,3.99668945 6.49145688,2.50285714 8.33353554,2.50285714 C10.1735922,2.50285714 11.6666667,3.99668945 11.6666667,5.84060708 C11.6666667,7.68290583 10.1735922,9.17714286 8.33353554,9.17714286 C6.49145688,9.17714286 5,7.68290583 5,5.84060708" id="Fill-48" fill="#76D0DE" mask="url(#mask-7)"></path>
                            <polygon id="Fill-49" fill="#C2F2F9" mask="url(#mask-7)" points="7.08333333 4.17142857 7.08333333 7.50857143 10 5.8401981"></polygon>
                        </g>
                    </g>
                </g>
                <g id="Group-8" transform="translate(236.666667, 101.782857)">
                    <path d="M20,0 C8.95430543,0 0,8.96453893 0,20.0228571 C0,31.0811754 8.95430543,40.0457143 20,40.0457143 C31.0456946,40.0457143 40,31.0811754 40,20.0228571 C40,8.96453893 31.0456946,0 20,0" id="Fill-9" fill="#FBB040"></path>
                    <path d="M36.25,20.0228571 C36.25,29.0075713 28.9747336,36.2914286 19.9995798,36.2914286 C11.0252664,36.2914286 3.75,29.0075713 3.75,20.0228571 C3.75,11.038143 11.0252664,3.75428571 19.9995798,3.75428571 C28.9747336,3.75428571 36.25,11.038143 36.25,20.0228571" id="Fill-12" fill="#FFFFFF"></path>
                    <path d="M20,7.92571429 C26.673513,7.92571429 32.0833333,13.3408838 32.0833333,20.0228571 C32.0833333,26.7031636 26.673513,32.12 20,32.12 C13.326487,32.12 7.91666667,26.7031636 7.91666667,20.0228571 C7.91666667,13.3408838 13.326487,7.92571429 20,7.92571429" id="Fill-14" fill="#353F49"></path>
                    <path d="M20.0010458,10.0114286 C25.523206,10.0114286 30,14.4919889 30,20.0228571 C30,25.5503752 25.523206,30.0342857 20.0010458,30.0342857 C14.4788856,30.0342857 10,25.5503752 10,20.0228571 C10,14.4919889 14.4788856,10.0114286 20.0010458,10.0114286" id="Fill-16" fill="#D9D8D7"></path>
                    <path d="M20.0002101,10.4285714 C25.2913041,10.4285714 29.5833333,14.7259265 29.5833333,20.0239087 C29.5833333,25.3223115 25.2913041,29.6171429 20.0002101,29.6171429 C14.7070154,29.6171429 10.4166667,25.3223115 10.4166667,20.0239087 C10.4166667,14.7259265 14.7070154,10.4285714 20.0002101,10.4285714" id="Fill-18" fill="#FFFFFF"></path>
                    <polygon id="Fill-20" fill="#353F49" points="20.10375 19.9773633 24.9333333 19.9773633 24.9333333 19.3912649 20.10375 19.3912649"></polygon>
                    <polygon id="Fill-22" fill="#353F49" points="20.3017917 19.1995364 19.903875 19.1995364 19.9047083 13.3385528 20.3030417 13.3385528"></polygon>
                    <path d="M19.9992968,18.7714286 C20.6884024,18.7714286 21.25,19.3326241 21.25,20.0242648 C21.25,20.7130901 20.6884024,21.2742857 19.9992968,21.2742857 C19.3087849,21.2742857 18.75,20.7130901 18.75,20.0242648 C18.75,19.3326241 19.3087849,18.7714286 19.9992968,18.7714286" id="Fill-23" fill="#353F49"></path>
                    <polygon id="Fill-24" fill="#F77B55" points="21.07775 18.564106 21.2473333 18.7288185 15.614 24.25629 15.4435833 24.0903514"></polygon>
                    <path d="M19.999766,19.1885714 C20.4584386,19.1885714 20.8333333,19.5620203 20.8333333,20.0226229 C20.8333333,20.4822883 20.4584386,20.8571429 20.000702,20.8571429 C19.5410933,20.8571429 19.1676027,20.4808826 19.1666667,20.0221543 C19.1666667,19.5620203 19.5406253,19.1885714 19.999766,19.1885714" id="Fill-25" fill="#F77B55"></path>
                    <path d="M20.000705,19.6057143 C20.2314815,19.6057143 20.4166667,19.794556 20.4166667,20.0247362 C20.4166667,20.2530373 20.2314815,20.44 20.000705,20.44 C19.7685185,20.44 19.5833333,20.2530373 19.5833333,20.0247362 C19.5833333,19.794556 19.7685185,19.6057143 20.000705,19.6057143" id="Fill-26" fill="#353F49"></path>
                </g>
                <g id="Group-2" transform="translate(130.000000, 23.360000)">
                    <path d="M20,0 C8.95430543,0 0,8.96453893 0,20.0224409 C0,31.0807591 8.95430543,40.045298 20,40.045298 C31.0452788,40.045298 40,31.0807591 40,20.0224409 C40,8.96453893 31.0452788,0 20,0" id="Fill-27" fill="#FBB040"></path>
                    <path d="M36.25,20.0228571 C36.25,29.0075713 28.974805,36.2914286 20,36.2914286 C11.025195,36.2914286 3.75,29.0075713 3.75,20.0228571 C3.75,11.038143 11.025195,3.75428571 20,3.75428571 C28.974805,3.75428571 36.25,11.038143 36.25,20.0228571" id="Fill-28" fill="#FFFFFF"></path>
                    <polygon id="Fill-29" fill="#474F59" points="19.5833333 20.44 35.20625 20.44 35.20625 19.6057143 19.5833333 19.6057143"></polygon>
                    <polygon id="Fill-30" fill="#353F49" points="34.1666667 18.3542857 34.1666667 22.0539257 38.7866667 20.2043143"></polygon>
                    <g id="Group-10" transform="translate(9.583333, 9.594286)">
                        <path d="M20.8333333,10.4285714 C20.8333333,16.1878839 16.1681464,20.8571429 10.4166667,20.8571429 C4.66476754,20.8571429 0,16.1878839 0,10.4285714 C0,4.66925891 4.66476754,0 10.4166667,0 C16.1681464,0 20.8333333,4.66925891 20.8333333,10.4285714" id="Fill-31" fill="#F77B55"></path>
                        <path d="M10.4166667,5.00571429 C7.4303167,5.00571429 5,7.43839399 5,10.4285714 C5,13.4183344 7.4303167,15.8514286 10.4166667,15.8514286 C13.4034307,15.8514286 15.8333333,13.4183344 15.8333333,10.4285714 C15.8333333,7.43839399 13.4034307,5.00571429 10.4166667,5.00571429 M10.4166667,18.7714286 C5.82149768,18.7714286 2.08333333,15.028992 2.08333333,10.4285714 C2.08333333,5.82815082 5.82149768,2.08571429 10.4166667,2.08571429 C15.0118356,2.08571429 18.75,5.82815082 18.75,10.4285714 C18.75,15.028992 15.0118356,18.7714286 10.4166667,18.7714286" id="Fill-32" fill="#FFFFFF"></path>
                        <path d="M13.75,10.4287927 C13.75,12.2718676 12.2560901,13.7657143 10.4164456,13.7657143 C8.5776853,13.7657143 7.08333333,12.2718676 7.08333333,10.4287927 C7.08333333,8.58571789 8.5776853,7.09142857 10.4164456,7.09142857 C12.2560901,7.09142857 13.75,8.58571789 13.75,10.4287927" id="Fill-33" fill="#A82607"></path>
                        <path d="M10.8333333,10.4287956 C10.8333333,10.6592216 10.6470536,10.8461626 10.4164428,10.8461626 C10.1871754,10.8461626 10,10.6592216 10,10.4287956 C10,10.1983695 10.1871754,10.0114286 10.4164428,10.0114286 C10.6470536,10.0114286 10.8333333,10.1983695 10.8333333,10.4287956" id="Fill-34" fill="#F77B55"></path>
                    </g>
                    <polygon id="Fill-35" fill="#F77B55" points="1.66666667 18.3542857 6.51083333 18.3542857 8.35916667 20.20348 6.51083333 22.0543429 1.66666667 22.0543429 3.51416667 20.20348"></polygon>
                    <path d="M1.63875,20.44 L20.0820833,20.44 C20.2966667,20.44 20.47,20.2538556 20.47,20.0224086 C20.47,19.7927558 20.2966667,19.6057143 20.0820833,19.6057143 L1.63875,19.6057143 C1.42416667,19.6057143 1.25,19.7927558 1.25,20.0224086 C1.25,20.2538556 1.42416667,20.44 1.63875,20.44" id="Fill-36" fill="#474F59"></path>
                </g>
                <g id="Group-3" transform="translate(22.500000, 101.782857)">
                    <path d="M20,0 C8.95430543,0 0,8.96453893 0,20.0228571 C0,31.0811754 8.95430543,40.0457143 20,40.0457143 C31.0456946,40.0457143 40,31.0811754 40,20.0228571 C40,8.96453893 31.0456946,0 20,0" id="Fill-1" fill="#00AEEF"></path>
                    <path d="M36.25,20.0228571 C36.25,29.0075713 28.9745235,36.2914286 19.9997889,36.2914286 C11.0250542,36.2914286 3.75,29.0075713 3.75,20.0228571 C3.75,11.038143 10.6678047,3.75428571 19.9997889,3.75428571 C29.388781,3.75428571 36.25,11.038143 36.25,20.0228571" id="Fill-3" fill="#FFFFFF"></path>
                    <path d="M27.6291667,16.7503714 C27.6291667,20.9326457 20.0645833,31.0554514 20.0645833,31.0554514 C20.0645833,31.0554514 12.5,20.9326457 12.5,16.7503714 C12.5,12.56768 15.8866667,9.17714286 20.0645833,9.17714286 C24.2425,9.17714286 27.6291667,12.56768 27.6291667,16.7503714 Z M23.4267083,16.7503714 C23.4267083,14.8911657 21.9212917,13.3844457 20.064625,13.3844457 C18.2079583,13.3844457 16.7025417,14.8911657 16.7025417,16.7503714 C16.7025417,18.60916 18.2079583,20.11588 20.064625,20.11588 C21.9212917,20.11588 23.4267083,18.60916 23.4267083,16.7503714 Z" id="Combined-Shape" fill="#DB4F4F"></path>
                </g>
            </g>
        </g>
    </g>
</svg>