<?xml version="1.0" encoding="UTF-8"?>
<svg width="312px" height="495px" viewBox="0 0 312 495" version="1.1" xmlns="http://www.w3.org/2000/svg" xmlns:xlink="http://www.w3.org/1999/xlink">
    <!-- Generator: Sketch 48.2 (47327) - http://www.bohemiancoding.com/sketch -->
    <title>Group 5</title>
    <desc>Created with Sketch.</desc>
    <defs>
        <polygon id="path-1" points="0 0 20 0 20 14 0 14"></polygon>
    </defs>
    <g id="2_main_PMP_2_1_m" stroke="none" stroke-width="1" fill="none" fill-rule="evenodd" transform="translate(-30.000000, -532.000000)">
        <g id="Group-5" transform="translate(30.000000, 532.000000)">
            <text id="將此五大維度的數據與成效數據進行組合分析" font-family="PingFangTC-Light, PingFang TC" font-size="16" font-weight="300" letter-spacing="-0.145454556" fill="#000000">
                <tspan x="0" y="427">將此五大維度的數據與成效數據進行組合分</tspan>
                <tspan x="0" y="449">析，通過機器學習的方式不斷訓練出最佳的</tspan>
                <tspan x="0" y="471">投放組合，來優化廣告主的每一次曝光機</tspan>
                <tspan x="0" y="493">會。</tspan>
            </text>
            <g id="Group-19">
                <g id="Group-14">
                    <g id="Group-2">
                        <path d="M24,0 C10.7451665,0 0,10.7451665 0,23.9995011 C0,37.2543345 10.7451665,47.9995011 24,47.9995011 C37.2543345,47.9995011 48,37.2543345 48,23.9995011 C48,10.7451665 37.2543345,0 24,0" id="Fill-27" fill="#FBB040"></path>
                        <path d="M43.5,24 C43.5,34.7693491 34.769766,43.5 24,43.5 C13.230234,43.5 4.5,34.7693491 4.5,24 C4.5,13.2306509 13.230234,4.5 24,4.5 C34.769766,4.5 43.5,13.2306509 43.5,24" id="Fill-28" fill="#FFFFFF"></path>
                        <polygon id="Fill-29" fill="#474F59" points="23.5 24.5 42.2475 24.5 42.2475 23.5 23.5 23.5"></polygon>
                        <polygon id="Fill-30" fill="#353F49" points="41 22 41 26.4345 46.544 24.2175"></polygon>
                        <g id="Group-10" transform="translate(11.500000, 11.500000)">
                            <path d="M25,12.5 C25,19.4032856 19.4017756,25 12.5,25 C5.59772105,25 0,19.4032856 0,12.5 C0,5.59671445 5.59772105,0 12.5,0 C19.4017756,0 25,5.59671445 25,12.5" id="Fill-31" fill="#F77B55"></path>
                            <path d="M12.5,6 C8.91638004,6 6,8.91588321 6,12.5 C6,16.08362 8.91638004,19 12.5,19 C16.0841168,19 19,16.08362 19,12.5 C19,8.91588321 16.0841168,6 12.5,6 M12.5,22.5 C6.98579722,22.5 2.5,18.0142028 2.5,12.5 C2.5,6.98579722 6.98579722,2.5 12.5,2.5 C18.0142028,2.5 22.5,6.98579722 22.5,12.5 C22.5,18.0142028 18.0142028,22.5 12.5,22.5" id="Fill-32" fill="#FFFFFF"></path>
                            <path d="M16.5,12.5002653 C16.5,14.7094303 14.7073082,16.5 12.4997347,16.5 C10.2932224,16.5 8.5,14.7094303 8.5,12.5002653 C8.5,10.2911002 10.2932224,8.5 12.4997347,8.5 C14.7073082,8.5 16.5,10.2911002 16.5,12.5002653" id="Fill-33" fill="#A82607"></path>
                            <path d="M13,12.5002687 C13,12.7764643 12.7764643,13.0005373 12.4997313,13.0005373 C12.2246104,13.0005373 12,12.7764643 12,12.5002687 C12,12.2240731 12.2246104,12 12.4997313,12 C12.7764643,12 13,12.2240731 13,12.5002687" id="Fill-34" fill="#F77B55"></path>
                        </g>
                        <polygon id="Fill-35" fill="#F77B55" points="2 22 7.813 22 10.031 24.2165 7.813 26.435 2 26.435 4.217 24.2165"></polygon>
                        <path d="M1.9665,24.5 L24.0985,24.5 C24.356,24.5 24.564,24.2768817 24.564,23.9994624 C24.564,23.7241935 24.356,23.5 24.0985,23.5 L1.9665,23.5 C1.709,23.5 1.5,23.7241935 1.5,23.9994624 C1.5,24.2768817 1.709,24.5 1.9665,24.5" id="Fill-36" fill="#474F59"></path>
                    </g>
                    <text id="1.-受眾：基於用戶輪廓和興趣標籤的受眾" font-family="PingFangTC-Light, PingFang TC" font-size="16" font-weight="300" letter-spacing="-0.145454541" fill="#000000">
                        <tspan x="72" y="17">1. 受眾：基於用戶輪廓和興趣標籤</tspan>
                        <tspan x="72" y="39">的受眾分析</tspan>
                    </text>
                </g>
                <g id="Group-15" transform="translate(0.000000, 68.000000)">
                    <g id="Group-9">
                        <circle id="Oval" fill="#00AEEF" cx="24" cy="24" r="24"></circle>
                        <path d="M43.5,24 C43.5,34.7693491 34.7695675,43.5 23.9997479,43.5 C13.2304325,43.5 4.5,34.7693491 4.5,24 C4.5,13.2301466 12.8330445,4.5 23.9997479,4.5 C34.7695675,4.5 43.5,13.2301466 43.5,24" id="Fill-54" fill="#FFFFFF"></path>
                        <g id="Group-12" transform="translate(7.000000, 10.000000)">
                            <path d="M12,18 L12,10 L22,10 L22,18 L12,18 Z M18.882,12.5 L16.3125,15.0695 L14.514,13.271 L14,13.7845 L16.3125,16.097 L19.396,13.0135 L18.882,12.5 Z" id="Combined-Shape" fill="#5D949B"></path>
                            <polygon id="Fill-58" fill="#C9C9C9" points="0 18 10 18 10 10 0 10"></polygon>
                            <path d="M24,18 L24,10 L34,10 L34,18 L24,18 Z M31.382,12.5 L28.8125,15.0695 L27.014,13.271 L26.5,13.7845 L28.8125,16.097 L31.896,13.0135 L31.382,12.5 Z" id="Combined-Shape" fill="#99C69C"></path>
                            <polygon id="Fill-60" fill="#C9C9C9" points="18 8 28 8 28 0 18 0"></polygon>
                            <path d="M6,8 L6,0 L16,0 L16,8 L6,8 Z M13.382,2.5 L10.8125,5.07 L9.014,3.271 L8.5,3.785 L10.8125,6.0975 L13.896,3.014 L13.382,2.5 Z" id="Combined-Shape" fill="#FF916E"></path>
                            <polygon id="Fill-62" fill="#C9C9C9" points="18 28 28 28 28 20 18 20"></polygon>
                            <polygon id="Fill-63" fill="#C9C9C9" points="6 28 16 28 16 20 6 20"></polygon>
                        </g>
                    </g>
                    <text id="2.-格式：通過VMFive的創新型廣告" font-family="PingFangTC-Light, PingFang TC" font-size="16" font-weight="300" letter-spacing="-0.145454541" fill="#000000">
                        <tspan x="72" y="17">2. 格式：通過VMFive的創新型廣</tspan>
                        <tspan x="72" y="39">告格式搭配優質的媒體和版位所提</tspan>
                        <tspan x="72" y="61">供的曝光環境</tspan>
                    </text>
                </g>
                <g id="Group-16" transform="translate(0.000000, 154.000000)">
                    <g id="Group-6">
                        <circle id="Oval" fill="#FBB040" cx="24" cy="24" r="24"></circle>
                        <path d="M43.5,23.9994957 C43.5,34.7693491 34.7690632,43.5 23.9997479,43.5 C13.2304325,43.5 4.5,34.7693491 4.5,23.9994957 C4.5,13.2306509 13.1749596,4.5 23.9997479,4.5 C34.7690632,4.5 43.5,13.2306509 43.5,23.9994957" id="Fill-38" fill="#FFFFFF"></path>
                        <g id="Group-11" transform="translate(15.000000, 8.000000)">
                            <path d="M2.30608993,32 C1.03830393,32 0,30.9995509 0,29.7716595 L0,2.23230462 C0,1.0044132 1.03830393,0 2.30608993,0 L15.6949345,0 C16.9622083,0 18,1.0044132 18,2.23230462 L18,29.7716595 C18,30.9995509 16.9622083,32 15.6949345,32 L2.30608993,32 Z" id="Fill-39" fill="#353F49"></path>
                            <path d="M10.7889,29.6900462 C10.7889,30.0334961 10.5445782,30.3101 10.2381493,30.3101 L7.34119052,30.3101 C7.0393812,30.3101 6.7889,30.0334961 6.7889,29.6900462 L6.7889,29.4313063 C6.7889,29.0918902 7.0393812,28.8101 7.34119052,28.8101 L10.2381493,28.8101 C10.5445782,28.8101 10.7889,29.0918902 10.7889,29.4313063 L10.7889,29.6900462 Z" id="Fill-40" fill="#474F59"></path>
                            <path d="M9.5,2.49877551 C9.5,2.77714286 9.28618421,3 9.00657895,3 C8.72944079,3 8.5,2.77714286 8.5,2.49877551 C8.5,2.22693878 8.72944079,2 9.00657895,2 C9.28618421,2 9.5,2.22693878 9.5,2.49877551" id="Fill-42" fill="#FFFFFF"></path>
                            <polygon id="Fill-43" fill="#FFFFFF" points="1 27.5 17 27.5 17 4.5 1 4.5"></polygon>
                            <g id="Group-50" transform="translate(1.000000, 9.141000)">
                                <mask id="mask-2" fill="white">
                                    <use xlink:href="#path-1"></use>
                                </mask>
                                <g id="Clip-46"></g>
                                <polygon id="Fill-45" fill="#ADECF7" mask="url(#mask-2)" points="-2 14 22 14 22 0 -2 0"></polygon>
                                <path d="M6,7.00072767 C6,4.79055242 7.78974826,3 10.0002426,3 C12.2083106,3 14,4.79055242 14,7.00072767 C14,9.20896246 12.2083106,11 10.0002426,11 C7.78974826,11 6,9.20896246 6,7.00072767" id="Fill-48" fill="#76D0DE" mask="url(#mask-2)"></path>
                                <polygon id="Fill-49" fill="#C2F2F9" mask="url(#mask-2)" points="8.5 5 8.5 9 12 7.00023745"></polygon>
                            </g>
                        </g>
                    </g>
                    <text id="3.-內容：素材本身也會經過數據的優化針" font-family="PingFangTC-Light, PingFang TC" font-size="16" font-weight="300" letter-spacing="-0.145454541" fill="#000000">
                        <tspan x="72" y="17">3. 內容：素材本身也會經過數據</tspan>
                        <tspan x="72" y="39">的優化針對不同的受眾屬性和行銷</tspan>
                        <tspan x="72" y="61">階段進行調整</tspan>
                    </text>
                </g>
                <g id="Group-13" transform="translate(0.000000, 240.000000)">
                    <g id="Group-8">
                        <path d="M24,0 C10.7451665,0 0,10.7451665 0,24 C0,37.2548335 10.7451665,48 24,48 C37.2548335,48 48,37.2548335 48,24 C48,10.7451665 37.2548335,0 24,0" id="Fill-9" fill="#FBB040"></path>
                        <path d="M43.5,24 C43.5,34.7693491 34.7696804,43.5 23.9994957,43.5 C13.2303196,43.5 4.5,34.7693491 4.5,24 C4.5,13.2306509 13.2303196,4.5 23.9994957,4.5 C34.7696804,4.5 43.5,13.2306509 43.5,24" id="Fill-12" fill="#FFFFFF"></path>
                        <path d="M24,9.5 C32.0082156,9.5 38.5,15.9907854 38.5,24 C38.5,32.0072167 32.0082156,38.5 24,38.5 C15.9917844,38.5 9.5,32.0072167 9.5,24 C9.5,15.9907854 15.9917844,9.5 24,9.5" id="Fill-14" fill="#353F49"></path>
                        <path d="M24.0012549,12 C30.6278471,12 36,17.3705346 36,24 C36,30.6254497 30.6278471,36 24.0012549,36 C17.3746627,36 12,30.6254497 12,24 C12,17.3705346 17.3746627,12 24.0012549,12" id="Fill-16" fill="#D9D8D7"></path>
                        <path d="M24.0002521,12.5 C30.3495649,12.5 35.5,17.6509393 35.5,24.0012604 C35.5,30.3520857 30.3495649,35.5 24.0002521,35.5 C17.6484185,35.5 12.5,30.3520857 12.5,24.0012604 C12.5,17.6509393 17.6484185,12.5 24.0002521,12.5" id="Fill-18" fill="#FFFFFF"></path>
                        <polygon id="Fill-20" fill="#353F49" points="24.1245 23.9454697 29.92 23.9454697 29.92 23.2429545 24.1245 23.2429545"></polygon>
                        <polygon id="Fill-22" fill="#353F49" points="24.36215 23.0131429 23.88465 23.0131429 23.88565 15.9879914 24.36365 15.9879914"></polygon>
                        <path d="M23.9991562,22.5 C24.8260829,22.5 25.5,23.1726659 25.5,24.0016873 C25.5,24.8273341 24.8260829,25.5 23.9991562,25.5 C23.1705419,25.5 22.5,24.8273341 22.5,24.0016873 C22.5,23.1726659 23.1705419,22.5 23.9991562,22.5" id="Fill-23" fill="#353F49"></path>
                        <polygon id="Fill-24" fill="#F77B55" points="25.2933 22.251497 25.4968 22.4489263 18.7368 29.0743202 18.5323 28.8754212"></polygon>
                        <path d="M23.9997192,23 C24.5501264,23 25,23.4476271 25,23.9997192 C25,24.550688 24.5501264,25 24.0008425,25 C23.449312,25 23.0011233,24.5490031 23,23.9991575 C23,23.4476271 23.4487504,23 23.9997192,23" id="Fill-25" fill="#F77B55"></path>
                        <path d="M24.000846,23.5 C24.2777778,23.5 24.5,23.7263514 24.5,24.0022523 C24.5,24.2759009 24.2777778,24.5 24.000846,24.5 C23.7222222,24.5 23.5,24.2759009 23.5,24.0022523 C23.5,23.7263514 23.7222222,23.5 24.000846,23.5" id="Fill-26" fill="#353F49"></path>
                    </g>
                    <text id="4.-時間：廣告展示的時段和投放頻率控制" font-family="PingFangTC-Light, PingFang TC" font-size="16" font-weight="300" letter-spacing="-0.145454541" fill="#000000">
                        <tspan x="72" y="17">4. 時間：廣告展示的時段和投放</tspan>
                        <tspan x="72" y="39">頻率控制的組合分析</tspan>
                    </text>
                </g>
                <g id="Group-18" transform="translate(0.000000, 308.000000)">
                    <g id="Group-3">
                        <path d="M24,0 C10.7451665,0 0,10.7451665 0,24 C0,37.2548335 10.7451665,48 24,48 C37.2548335,48 48,37.2548335 48,24 C48,10.7451665 37.2548335,0 24,0" id="Fill-1" fill="#00AEEF"></path>
                        <path d="M43.5,24 C43.5,34.7693491 34.7694282,43.5 23.9997466,43.5 C13.2300651,43.5 4.5,34.7693491 4.5,24 C4.5,13.2306509 12.8013656,4.5 23.9997466,4.5 C35.2665372,4.5 43.5,13.2306509 43.5,24" id="Fill-3" fill="#FFFFFF"></path>
                        <path d="M33.155,20.0775 C33.155,25.0905 24.0775,37.224 24.0775,37.224 C24.0775,37.224 15,25.0905 15,20.0775 C15,15.064 19.064,11 24.0775,11 C29.091,11 33.155,15.064 33.155,20.0775 Z M28.11205,20.0775 C28.11205,17.849 26.30555,16.043 24.07755,16.043 C21.84955,16.043 20.04305,17.849 20.04305,20.0775 C20.04305,22.3055 21.84955,24.1115 24.07755,24.1115 C26.30555,24.1115 28.11205,22.3055 28.11205,20.0775 Z" id="Combined-Shape" fill="#DB4F4F"></path>
                    </g>
                    <text id="5.-地點：不僅基於用戶實時地理位置的分" font-family="PingFangTC-Light, PingFang TC" font-size="16" font-weight="300" letter-spacing="-0.145454541" fill="#000000">
                        <tspan x="72" y="17">5. 地點：不僅基於用戶實時地理</tspan>
                        <tspan x="72" y="39">位置的分析，還包括廣告展示時用</tspan>
                        <tspan x="72" y="61">戶所處場景的分析推算。</tspan>
                    </text>
                </g>
            </g>
        </g>
    </g>
</svg>