<?xml version="1.0" encoding="UTF-8"?>
<svg width="884px" height="229px" viewBox="0 0 884 229" version="1.1" xmlns="http://www.w3.org/2000/svg" xmlns:xlink="http://www.w3.org/1999/xlink">
    <!-- Generator: Sketch 48.2 (47327) - http://www.bohemiancoding.com/sketch -->
    <title>Group 7</title>
    <desc>Created with Sketch.</desc>
    <defs></defs>
    <g id="2_main_PMP_2_0_dt" stroke="none" stroke-width="1" fill="none" fill-rule="evenodd" transform="translate(-198.000000, -451.000000)">
        <g id="Group-52">
            <g id="Group-7" transform="translate(198.000000, 451.000000)">
                <path d="M153.766627,191.745665 C153.766627,219.302875 131.417887,241.62968 103.853944,241.62968 C76.2751214,241.62968 53.9263807,219.302875 53.9263807,191.745665 C53.9263807,164.19589 76.2751214,141.865368 103.853944,141.865368 C131.417887,141.865368 153.766627,164.19589 153.766627,191.745665 M199.676774,175.790513 L190.087051,175.790513 C185.690211,175.790513 181.036704,172.363055 179.734763,168.166091 L174.225694,154.794543 C172.153749,150.935865 173.00187,145.225913 176.100489,142.12187 L182.904059,135.333867 C186.013837,132.222389 186.013837,127.144398 182.904059,124.036637 L171.588335,112.75056 C168.489716,109.646517 163.404708,109.646517 160.29493,112.75056 L153.49136,119.542281 C150.392741,122.646324 144.671642,123.490177 140.803019,121.412141 L127.441388,115.921517 C123.252859,114.620421 119.804576,109.95878 119.804576,105.568511 L119.804576,95.9887285 C119.804576,91.6021768 116.20378,88 111.82182,88 L95.8525886,88 C91.4557491,88 87.8549533,91.6021768 87.8549533,95.9887285 L87.8549533,105.568511 C87.8549533,109.95878 84.4252697,114.620421 80.2330209,115.921517 L66.8602308,121.412141 C62.9841676,123.493895 57.2816676,122.653758 54.1793291,119.542281 L47.3645999,112.75056 C44.2622614,109.646517 39.1772533,109.646517 36.071195,112.75056 L24.7815098,124.036637 C21.664292,127.136963 21.664292,132.222389 24.7815098,135.322715 L31.5664804,142.12187 C34.6762586,145.225913 35.5318196,150.935865 33.4412749,154.794543 L27.9433656,168.173526 C26.6339853,172.370489 21.9767577,175.797948 17.5873579,175.797948 L7.99391543,175.790513 C3.60079578,175.790513 0,179.385255 0,183.775524 L0,199.738111 C0,204.124663 3.60079578,207.723122 7.99391543,207.723122 L17.5873579,207.723122 C21.9767577,207.730557 26.6228259,211.16545 27.9284863,215.354979 L33.4412749,228.719092 C35.5132204,232.588922 34.6688189,238.313744 31.5664804,241.402917 L24.7629107,248.194638 C21.664292,251.302398 21.664292,256.376672 24.7629107,259.491867 L36.071195,270.781662 C39.1772533,273.889422 44.2622614,273.889422 47.3645999,270.781662 L54.1718895,263.993659 C57.2630685,260.893333 62.9730081,260.04948 66.834192,262.13495 L80.2330209,267.640444 C84.4252697,268.94154 87.8549533,273.592029 87.8549533,277.982298 L87.8549533,287.543493 C87.8549533,291.92261 91.4483094,295.52107 95.8525886,295.52107 L111.82182,295.52107 C116.20378,295.52107 119.804576,291.92261 119.804576,287.543493 L119.804576,277.982298 C119.804576,273.592029 123.252859,268.94154 127.441388,267.640444 L140.825338,262.13495 C144.697681,260.04948 150.407621,260.893333 153.517399,263.993659 L160.29493,270.781662 C163.404708,273.889422 168.489716,273.889422 171.588335,270.781662 L182.904059,259.491867 C186.013837,256.376672 186.013837,251.302398 182.904059,248.194638 L176.100489,241.402917 C173.00187,238.313744 172.153749,232.588922 174.225694,228.719092 L179.734763,215.354979 C181.036704,211.16545 185.708811,207.730557 190.087051,207.730557 L199.676774,207.730557 C204.062454,207.730557 207.65209,204.139532 207.65209,199.749263 L207.65209,183.775524 C207.65209,179.385255 204.062454,175.790513 199.676774,175.790513" id="Fill-3" fill="#79C8CF"></path>
                <path d="M697.059105,91.8245455 C712.992594,108.0558 712.743518,134.116519 696.520057,150.042927 C680.289162,165.973052 654.229021,165.73884 638.295531,149.507585 C622.369476,133.283766 622.614836,107.219329 638.845731,91.2854864 C655.069191,75.3590787 681.13305,75.6007259 697.059105,91.8245455 M714.855095,55.9046222 L709.211829,61.443919 C706.624403,63.9830732 701.903094,64.65225 698.709704,62.9346962 L687.739165,58.2430234 C684.289264,57.1649052 681.486219,53.313421 681.515959,49.692431 L681.594028,41.7664036 C681.627486,38.1379784 678.690609,35.145271 675.062264,35.1118122 L661.879773,35.0002827 C658.258863,34.9668239 655.266222,37.9074841 655.232764,41.5284741 L655.158413,49.4582191 C655.124955,53.0792091 652.243841,56.8823639 648.767916,57.8935644 L637.730461,62.3770489 C634.511048,64.0314026 629.786021,63.2804376 627.250641,60.692954 L621.70775,55.049563 C619.176087,52.4695147 614.975237,52.4249029 612.395245,54.9603394 L602.99352,64.1838262 C600.409811,66.7266981 600.372635,70.9239236 602.908016,73.5076896 L608.44719,79.1510805 C610.986288,81.7385642 611.659167,86.4636958 609.945369,89.6497209 L605.250083,100.613067 C604.171988,104.077916 600.324307,106.881023 596.703397,106.840129 L588.766393,106.773212 C585.145483,106.74347 582.15656,109.676695 582.119384,113.297685 L582.000422,126.469315 C581.959529,130.09774 584.896406,133.090448 588.528469,133.116471 L596.450603,133.19826 C600.071513,133.231718 603.878301,136.101743 604.878326,139.581463 L609.376582,150.63775 C611.030899,153.868387 610.272515,158.574931 607.688806,161.114085 L602.038105,166.649664 C599.454397,169.188818 599.409786,173.382326 601.948884,175.96981 L611.175884,185.371744 C613.714982,187.95551 617.912114,187.996404 620.49954,185.45725 L626.142806,179.914235 C628.73395,177.382516 633.458977,176.720775 636.644932,178.434611 L647.619188,183.118848 C651.072807,184.204402 653.887005,188.063321 653.846112,191.673159 L653.764325,199.602904 C653.738302,203.223894 656.67518,206.212883 660.29609,206.257495 L673.47858,206.372742 C677.106925,206.406201 680.095849,203.472976 680.125589,199.848268 L680.207376,191.918523 C680.237116,188.304969 683.107078,184.509249 686.590437,183.505484 L697.657633,179.007129 C700.873328,177.352775 705.583484,178.107458 708.122582,180.694941 L713.646886,186.323462 C716.182267,188.907228 720.375682,188.948122 722.966825,186.40525 L732.364833,177.178046 C734.944825,174.646327 734.985718,170.449101 732.454055,167.869053 L726.926034,162.236815 C724.386936,159.653049 723.725209,154.920482 725.442725,151.734457 L730.134294,140.759957 C731.20867,137.291391 735.056352,134.492001 738.677261,134.518025 L746.59196,134.603531 C750.220305,134.63699 753.209229,131.696329 753.238969,128.07534 L753.372802,114.892557 C753.402542,111.260414 750.465665,108.271424 746.844755,108.237965 L738.915186,108.16733 C735.301711,108.141306 731.494923,105.256411 730.47631,101.780409 L725.992924,90.7278391 C724.338607,87.5083552 725.100709,82.7832235 727.673265,80.2552223 L733.320248,74.7159255 C735.900239,72.1804889 735.941132,67.9944163 733.398317,65.4069327 L724.163882,55.9975635 C721.624784,53.4137975 717.435086,53.3729034 714.855095,55.9046222" id="Fill-6" fill="#FD947C"></path>
                <path d="M827.059104,179.822105 C842.992594,196.053705 842.747235,222.114979 826.520057,238.041726 C810.289162,253.975909 784.229021,253.737974 768.295531,237.506373 C752.373194,221.282208 752.614836,195.217217 768.845731,179.283034 C785.069191,163.356287 811.136767,163.597939 827.059104,179.822105 M844.855095,143.901416 L839.215547,149.444548 C836.624403,151.980039 831.906811,152.64923 828.713421,150.93164 L817.739165,146.239867 C814.289264,145.161726 811.489936,141.310159 811.515959,137.69281 L811.597745,129.762896 C811.627486,126.134393 808.690608,123.141622 805.065981,123.108163 L791.879773,123.000349 C788.258863,122.963171 785.26994,125.903894 785.232764,129.524961 L785.158413,137.454875 C785.124955,141.075943 782.247558,144.879178 778.767916,145.8904 L767.730461,150.37398 C764.514766,152.028369 759.789739,151.277388 757.250641,148.68985 L751.711467,143.046338 C749.176087,140.466235 744.975237,140.421622 742.395245,142.957113 L732.99352,152.184514 C730.409811,154.723722 730.372635,158.921037 732.911733,161.504858 L738.44719,167.14837 C740.986288,169.735908 741.659167,174.461141 739.945369,177.650951 L735.250083,188.610814 C734.171988,192.075736 730.328025,194.878903 726.703397,194.838008 L718.77011,194.771089 C715.145483,194.741347 712.15656,197.674635 712.119384,201.295702 L712.000422,214.467613 C711.959529,218.096115 714.896406,221.088886 718.528469,221.11491 L726.45432,221.1967 C730.07523,221.23016 733.882018,224.100246 734.882044,227.580039 L739.380299,238.636563 C741.030899,241.867268 740.276233,246.57763 737.688806,249.11312 L732.038105,254.648818 C729.454397,257.188026 729.413503,261.385341 731.952601,263.969162 L741.179601,273.375014 C743.714982,275.955117 747.915832,275.996012 750.49954,273.456804 L756.146524,267.913671 C758.73395,265.381899 763.458977,264.720143 766.644932,266.434016 L777.619188,271.118353 C781.072807,272.200212 783.887005,276.059214 783.846112,279.672845 L783.768043,287.602759 C783.74202,291.223826 786.67518,294.21288 790.299807,294.257493 L803.482298,294.372742 C807.106925,294.406202 810.099566,291.472914 810.129307,287.844412 L810.211093,279.918215 C810.237116,276.308301 813.110795,272.508783 816.590437,271.508714 L827.657633,267.006546 C830.877045,265.348439 835.587202,266.106856 838.1263,268.694394 L843.650604,274.323035 C846.185984,276.906856 850.375681,276.947751 852.966825,274.408542 L862.364833,265.177423 C864.944824,262.645651 864.985718,258.448336 862.454055,255.868232 L856.926033,250.235874 C854.390653,247.652053 853.728926,242.919386 855.442724,239.733293 L860.134293,228.758559 C861.212388,225.289919 865.060069,222.49047 868.680979,222.516494 L876.59196,222.602002 C880.220305,222.635461 883.212946,219.694738 883.242687,216.073671 L883.372801,202.890607 C883.402542,199.258387 880.469382,196.269334 876.844755,196.235874 L868.915185,196.165237 C865.301711,196.139213 861.49864,193.254256 860.476309,189.781898 L855.992924,178.725375 C854.338607,175.505822 855.100708,170.784308 857.676982,168.252535 L863.320248,162.71312 C865.903956,160.177629 865.941132,155.991468 863.402034,153.407647 L854.167599,143.994359 C851.628501,141.410538 847.435086,141.369643 844.855095,143.901416" id="Fill-8" fill="#D7D7D7"></path>
                <path d="M406.308616,148.434486 C406.308616,187.866825 374.35349,219.805827 334.934585,219.805827 C295.504489,219.805827 263.549364,187.866825 263.549364,148.434486 C263.549364,109.020796 295.504489,77.0668747 334.934585,77.0668747 C374.35349,77.0668747 406.308616,109.020796 406.308616,148.434486 M471.953328,125.607592 L458.238025,125.607592 C451.952933,125.607592 445.298568,120.702794 443.437286,114.69768 L435.563203,95.5671021 C432.601563,90.046873 433.810091,81.8746959 438.245091,77.4361333 L447.969266,67.719784 C452.411726,63.2700317 452.411726,56.0042166 447.969266,51.5581942 L431.792147,35.411524 C427.360877,30.9692315 420.083598,30.9692315 415.641138,35.411524 L405.916963,45.1316031 C401.478233,49.5701658 393.302018,50.7786484 387.766661,47.8059304 L368.665202,39.9470636 C362.674782,38.0858512 357.743688,31.4168176 357.743688,25.135692 L357.743688,11.4283663 C357.743688,5.15470046 352.599984,0 346.329811,0 L323.494598,0 C317.209505,0 312.062071,5.15470046 312.062071,11.4283663 L312.062071,25.135692 C312.062071,31.4168176 307.157088,38.0858512 301.170397,39.9470636 L282.042828,47.8059304 C276.496281,50.7823782 268.342446,49.5813554 263.907446,45.1316031 L254.168351,35.411524 C249.725891,30.9692315 242.459802,30.9692315 238.017342,35.411524 L221.877523,51.5581942 C217.416413,55.9967569 217.416413,63.2700317 221.877523,67.7085944 L231.575588,77.4361333 C236.025508,81.8746959 237.245227,90.046873 234.261206,95.5671021 L226.394583,114.70887 C224.522111,120.713984 217.864016,125.618782 211.582654,125.618782 L197.871081,125.607592 C191.589719,125.607592 186.442284,130.747373 186.442284,137.032229 L186.442284,159.870312 C186.442284,166.147708 191.589719,171.291218 197.871081,171.291218 L211.582654,171.291218 C217.864016,171.306138 224.510921,176.222126 226.372203,182.21605 L234.261206,201.339168 C237.219116,206.870587 236.010588,215.061414 231.575588,219.485057 L221.851413,229.197676 C217.416413,233.643699 217.416413,240.905784 221.851413,245.362996 L238.017342,261.513396 C242.459802,265.959418 249.725891,265.959418 254.168351,261.513396 L263.896256,251.800777 C268.316336,247.365944 276.481361,246.161191 282.005528,249.141369 L301.170397,257.018885 C307.157088,258.880097 312.062071,265.537941 312.062071,271.819067 L312.062071,285.496554 C312.062071,291.76649 317.198315,296.91373 323.494598,296.91373 L346.329811,296.91373 C352.599984,296.91373 357.743688,291.76649 357.743688,285.496554 L357.743688,271.819067 C357.743688,265.537941 362.674782,258.880097 368.665202,257.018885 L387.803961,249.141369 C393.335588,246.161191 401.504343,247.365944 405.950533,251.800777 L415.641138,261.513396 C420.083598,265.959418 427.360877,265.959418 431.792147,261.513396 L447.969266,245.362996 C452.411726,240.905784 452.411726,233.643699 447.969266,229.197676 L438.245091,219.485057 C433.810091,215.061414 432.601563,206.870587 435.563203,201.339168 L443.437286,182.21605 C445.298568,176.222126 451.979043,171.306138 458.238025,171.306138 L471.953328,171.306138 C478.21977,171.306138 483.356015,166.170087 483.356015,159.888961 L483.356015,137.032229 C483.356015,130.747373 478.21977,125.607592 471.953328,125.607592" id="Fill-10" fill="#49AABF"></path>
                <path d="M406.308616,148.434486 C406.308616,187.866825 374.35349,219.805827 334.934585,219.805827 C295.504489,219.805827 263.549364,187.866825 263.549364,148.434486 C263.549364,109.020796 295.504489,77.0668747 334.934585,77.0668747 C374.35349,77.0668747 406.308616,109.020796 406.308616,148.434486 Z M471.953328,125.607592 L458.238025,125.607592 C451.952933,125.607592 445.298568,120.702794 443.437286,114.69768 L435.563203,95.5671021 C432.601563,90.046873 433.810091,81.8746959 438.245091,77.4361333 L447.969266,67.719784 C452.411726,63.2700317 452.411726,56.0042166 447.969266,51.5581942 L431.792147,35.411524 C427.360877,30.9692315 420.083598,30.9692315 415.641138,35.411524 L405.916963,45.1316031 C401.478233,49.5701658 393.302018,50.7786484 387.766661,47.8059304 L368.665202,39.9470636 C362.674782,38.0858512 357.743688,31.4168176 357.743688,25.135692 L357.743688,11.4283663 C357.743688,5.15470046 352.599984,0 346.329811,0 L323.494598,0 C317.209505,0 312.062071,5.15470046 312.062071,11.4283663 L312.062071,25.135692 C312.062071,31.4168176 307.157088,38.0858512 301.170397,39.9470636 L282.042828,47.8059304 C276.496281,50.7823782 268.342446,49.5813554 263.907446,45.1316031 L254.168351,35.411524 C249.725891,30.9692315 242.459802,30.9692315 238.017342,35.411524 L221.877523,51.5581942 C217.416413,55.9967569 217.416413,63.2700317 221.877523,67.7085944 L231.575588,77.4361333 C236.025508,81.8746959 237.245227,90.046873 234.261206,95.5671021 L226.394583,114.70887 C224.522111,120.713984 217.864016,125.618782 211.582654,125.618782 L197.871081,125.607592 C191.589719,125.607592 186.442284,130.747373 186.442284,137.032229 L186.442284,159.870312 C186.442284,166.147708 191.589719,171.291218 197.871081,171.291218 L211.582654,171.291218 C217.864016,171.306138 224.510921,176.222126 226.372203,182.21605 L234.261206,201.339168 C237.219116,206.870587 236.010588,215.061414 231.575588,219.485057 L221.851413,229.197676 C217.416413,233.643699 217.416413,240.905784 221.851413,245.362996 L238.017342,261.513396 C242.459802,265.959418 249.725891,265.959418 254.168351,261.513396 L263.896256,251.800777 C268.316336,247.365944 276.481361,246.161191 282.005528,249.141369 L301.170397,257.018885 C307.157088,258.880097 312.062071,265.537941 312.062071,271.819067 L312.062071,285.496554 C312.062071,291.76649 317.198315,296.91373 323.494598,296.91373 L346.329811,296.91373 C352.599984,296.91373 357.743688,291.76649 357.743688,285.496554 L357.743688,271.819067 C357.743688,265.537941 362.674782,258.880097 368.665202,257.018885 L387.803961,249.141369 C393.335588,246.161191 401.504343,247.365944 405.950533,251.800777 L415.641138,261.513396 C420.083598,265.959418 427.360877,265.959418 431.792147,261.513396 L447.969266,245.362996 C452.411726,240.905784 452.411726,233.643699 447.969266,229.197676 L438.245091,219.485057 C433.810091,215.061414 432.601563,206.870587 435.563203,201.339168 L443.437286,182.21605 C445.298568,176.222126 451.979043,171.306138 458.238025,171.306138 L471.953328,171.306138 C478.21977,171.306138 483.356015,166.170087 483.356015,159.888961 L483.356015,137.032229 C483.356015,130.747373 478.21977,125.607592 471.953328,125.607592 Z" id="Stroke-12" fill="#9AABD1"></path>
                <path d="M614.514041,292.396876 C614.514041,328.256056 585.45236,357.298256 549.60713,357.298256 C513.746959,357.298256 484.685278,328.256056 484.685278,292.396876 C484.685278,256.552638 513.746959,227.495497 549.60713,227.495497 C585.45236,227.495497 614.514041,256.552638 614.514041,292.396876 M674.206285,271.635905 L661.74114,271.635905 C656.02219,271.635905 649.970786,267.17592 648.278634,261.718601 L641.114071,244.319428 C638.424558,239.299143 639.522775,231.865834 643.553309,227.827941 L652.402554,218.993883 C656.444294,214.948519 656.444294,208.340718 652.402554,204.295355 L637.688677,189.611768 C633.658143,185.573875 627.042689,185.573875 622.997213,189.611768 L614.155439,198.449561 C610.12117,202.487454 602.68392,203.585642 597.65229,200.884997 L580.282519,193.735573 C574.83252,192.043468 570.349998,185.981026 570.349998,180.265969 L570.349998,167.804904 C570.349998,162.097318 565.669499,157.409478 559.96549,157.409478 L539.20021,157.409478 C533.48873,157.409478 528.808231,162.097318 528.808231,167.804904 L528.808231,180.265969 C528.808231,185.981026 524.344387,192.043468 518.898123,193.735573 L501.50594,200.884997 C496.459368,203.593112 489.04453,202.49866 485.013996,198.449561 L476.157281,189.611768 C472.115541,185.573875 465.511293,185.573875 461.469552,189.611768 L446.79303,204.295355 C442.736348,208.333248 442.736348,214.948519 446.79303,218.986412 L455.612391,227.827941 C459.654131,231.865834 460.767291,239.299143 458.05163,244.319428 L450.898273,261.729807 C449.194914,267.187126 443.14351,271.647111 437.432031,271.647111 L424.959415,271.635905 C419.247936,271.635905 414.567436,276.31254 414.567436,282.027597 L414.567436,302.796038 C414.567436,308.503624 419.247936,313.183994 424.959415,313.183994 L437.432031,313.183994 C443.14351,313.1952 449.183708,317.666392 450.87586,323.11624 L458.05163,340.504207 C460.744878,345.539433 459.64666,352.987683 455.612391,357.0069 L446.766882,365.844693 C442.736348,369.886322 442.736348,376.490387 446.766882,380.543222 L461.469552,395.234279 C465.511293,399.275908 472.115541,399.275908 476.157281,395.234279 L485.00279,386.400221 C489.022118,382.366063 496.451897,381.267876 501.472321,383.983462 L518.898123,391.144092 C524.344387,392.836197 528.808231,398.891169 528.808231,404.606225 L528.808231,417.041143 C528.808231,422.741258 533.477524,427.421628 539.20021,427.421628 L559.96549,427.421628 C565.669499,427.421628 570.349998,422.741258 570.349998,417.041143 L570.349998,404.606225 C570.349998,398.891169 574.83252,392.836197 580.282519,391.144092 L597.685908,383.983462 C602.717539,381.267876 610.143583,382.366063 614.185323,386.400221 L622.997213,395.234279 C627.042689,399.275908 633.658143,399.275908 637.688677,395.234279 L652.402554,380.543222 C656.444294,376.490387 656.444294,369.886322 652.402554,365.844693 L643.553309,357.0069 C639.522775,352.987683 638.424558,345.539433 641.114071,340.504207 L648.278634,323.11624 C649.970786,317.666392 656.048338,313.1952 661.74114,313.1952 L674.206285,313.1952 C679.914029,313.1952 684.579587,308.526036 684.579587,302.814715 L684.579587,282.027597 C684.579587,276.31254 679.914029,271.635905 674.206285,271.635905" id="Fill-14" fill="#FDB54F"></path>
            </g>
        </g>
    </g>
</svg>