<?xml version="1.0" encoding="UTF-8"?>
<svg width="340px" height="438px" viewBox="0 0 340 438" version="1.1" xmlns="http://www.w3.org/2000/svg" xmlns:xlink="http://www.w3.org/1999/xlink">
    <!-- Generator: Sketch 48.2 (47327) - http://www.bohemiancoding.com/sketch -->
    <title>Group 31</title>
    <desc>Created with Sketch.</desc>
    <defs>
        <linearGradient x1="50%" y1="0%" x2="50%" y2="96.5954943%" id="linearGradient-1">
            <stop stop-color="#FFFFFF" stop-opacity="0.598816803" offset="0%"></stop>
            <stop stop-color="#FFFFFF" stop-opacity="0" offset="48.4913106%"></stop>
            <stop stop-color="#FFFFFF" stop-opacity="0.802507926" offset="100%"></stop>
        </linearGradient>
        <path d="M86.1446106,167.488525 C73.677897,167.488525 61.7734487,164.62261 50.7620639,158.970864 L50.7105587,158.944577 L32.904165,163.368772 L31.6202137,145.091533 L31.5794388,145.051185 C16.8471091,130.453542 8.73350554,111.01172 8.73350554,90.3081125 C8.73350554,86.1978352 9.0655302,82.0517952 9.72007558,77.9855337 L9.72927294,77.92868 L0,62.4015094 L17.0157273,55.5448322 L17.0417865,55.4937861 C28.3146829,33.295477 49.7141781,17.7945936 74.2858424,14.0284951 L74.3428661,14.0196308 L86.1446106,0 L97.9463551,14.0196308 L98.0033787,14.0284951 C122.575043,17.7945936 143.974845,33.295477 155.247435,55.4937861 L155.273494,55.5448322 L172.289528,62.4015094 L162.560255,77.92868 L162.569146,77.9855337 C163.223998,82.0533235 163.555716,86.1993636 163.555716,90.3081125 C163.555716,111.01172 155.442112,130.453236 140.709782,145.051185 L140.669314,145.091533 L139.385056,163.368772 L121.578356,158.944577 L121.527157,158.970864 C110.515772,164.62261 98.6113241,167.488525 86.1446106,167.488525" id="path-2"></path>
        <filter x="-11.6%" y="-9.6%" width="123.2%" height="123.9%" filterUnits="objectBoundingBox" id="filter-3">
            <feOffset dx="0" dy="4" in="SourceAlpha" result="shadowOffsetOuter1"></feOffset>
            <feGaussianBlur stdDeviation="6" in="shadowOffsetOuter1" result="shadowBlurOuter1"></feGaussianBlur>
            <feColorMatrix values="0 0 0 0 0   0 0 0 0 0   0 0 0 0 0  0 0 0 0.19811481 0" type="matrix" in="shadowBlurOuter1"></feColorMatrix>
        </filter>
        <filter x="-10.4%" y="-8.4%" width="120.9%" height="121.5%" filterUnits="objectBoundingBox" id="filter-4">
            <feGaussianBlur stdDeviation="6" in="SourceAlpha" result="shadowBlurInner1"></feGaussianBlur>
            <feOffset dx="0" dy="0" in="shadowBlurInner1" result="shadowOffsetInner1"></feOffset>
            <feComposite in="shadowOffsetInner1" in2="SourceAlpha" operator="arithmetic" k2="-1" k3="1" result="shadowInnerInner1"></feComposite>
            <feColorMatrix values="0 0 0 0 1   0 0 0 0 1   0 0 0 0 1  0 0 0 1 0" type="matrix" in="shadowInnerInner1"></feColorMatrix>
        </filter>
        <linearGradient x1="15.9323662%" y1="92.1065645%" x2="88.2601351%" y2="0%" id="linearGradient-5">
            <stop stop-color="#575757" offset="0%"></stop>
            <stop stop-color="#000000" offset="100%"></stop>
        </linearGradient>
        <linearGradient x1="79.6280987%" y1="8.45452687%" x2="16.0340548%" y2="88.397565%" id="linearGradient-6">
            <stop stop-color="#141414" offset="0%"></stop>
            <stop stop-color="#818181" offset="100%"></stop>
        </linearGradient>
        <path d="M86.5,25.92 C83.0497544,25.92 80.2527778,23.1262568 80.2527778,19.68 C80.2527778,16.2337432 83.0497544,13.44 86.5,13.44 C89.9502456,13.44 92.7472222,16.2337432 92.7472222,19.68 C92.7472222,23.1262568 89.9502456,25.92 86.5,25.92 Z M45.1722222,153.6 C41.7219767,153.6 38.925,150.806257 38.925,147.36 C38.925,143.913743 41.7219767,141.12 45.1722222,141.12 C48.6224678,141.12 51.4194444,143.913743 51.4194444,147.36 C51.4194444,150.806257 48.6224678,153.6 45.1722222,153.6 Z M128.788889,153.6 C125.338643,153.6 122.541667,150.806257 122.541667,147.36 C122.541667,143.913743 125.338643,141.12 128.788889,141.12 C132.239134,141.12 135.036111,143.913743 135.036111,147.36 C135.036111,150.806257 132.239134,153.6 128.788889,153.6 Z M153.777778,74.88 C150.327532,74.88 147.530556,72.0862568 147.530556,68.64 C147.530556,65.1937432 150.327532,62.4 153.777778,62.4 C157.228023,62.4 160.025,65.1937432 160.025,68.64 C160.025,72.0862568 157.228023,74.88 153.777778,74.88 Z M18.2611111,74.88 C14.8108655,74.88 12.0138889,72.0862568 12.0138889,68.64 C12.0138889,65.1937432 14.8108655,62.4 18.2611111,62.4 C21.7113567,62.4 24.5083333,65.1937432 24.5083333,68.64 C24.5083333,72.0862568 21.7113567,74.88 18.2611111,74.88 Z" id="path-7"></path>
    </defs>
    <g id="1_main_PMP_m" stroke="none" stroke-width="1" fill="none" fill-rule="evenodd" transform="translate(0.000000, -2287.000000)">
        <g id="Group-4-Copy" transform="translate(-15.000000, 2134.000000)">
            <g id="Group-31" transform="translate(0.000000, 160.000000)">
                <g id="5r" opacity="0.601222826">
                    <g id="Page-1" stroke-width="1" fill-rule="evenodd">
                        <g id="Fill-1">
                            <use fill="black" fill-opacity="1" filter="url(#filter-3)" xlink:href="#path-2"></use>
                            <use fill="url(#linearGradient-1)" fill-rule="evenodd" xlink:href="#path-2"></use>
                            <use fill="black" fill-opacity="1" filter="url(#filter-4)" xlink:href="#path-2"></use>
                        </g>
                        <path d="M53.699916,59.04 L104.087523,59.04 C107.660554,59.04 110.786909,59.4250459 113.466682,60.1951491 C116.146455,60.9652524 118.379566,62.0291949 120.166082,63.3870086 C121.952597,64.7448222 123.302614,66.3762008 124.216174,68.2811931 C125.129733,70.1861854 125.586505,72.2532737 125.586505,74.48252 C125.586505,76.3469805 125.241388,78.0796869 124.551144,79.6806911 C123.860899,81.2816953 122.8763,82.7306836 121.597317,84.0276997 C120.318335,85.3247157 118.785608,86.4393221 116.999093,87.3715524 C115.212577,88.3037827 113.24338,89.0333433 111.09144,89.560256 L132.712231,118.31739 L121.14054,118.31739 L100.494208,90.4722159 L93.4902902,90.4722159 L93.4902902,118.31739 L83.5020942,118.31739 L83.5020942,66.3356787 L54.0653378,66.3356787 L49.6193725,74.4217227 C53.3142115,74.4217227 56.8059849,74.9992915 60.0947976,76.1544464 C63.3836103,77.3096013 66.2765039,78.9105814 68.7735654,80.9574349 C71.2706269,83.0042883 73.2499752,85.4462897 74.7116697,88.2835123 C76.1733643,91.1207349 76.9042006,94.2213673 76.9042006,97.5855027 C76.9448032,100.625384 76.2748699,103.492962 74.8943806,106.188324 C73.5138914,108.883685 71.6360481,111.234492 69.2607945,113.240813 C66.8855409,115.247135 64.0840017,116.82785 60.856093,117.983004 C57.6281843,119.138159 54.1871633,119.715728 50.532927,119.715728 C48.8682194,119.715728 47.3456438,119.553604 45.9651545,119.22935 C44.5846652,118.905096 43.4072067,118.479519 42.4327437,117.952606 C41.4582807,117.425693 40.6969929,116.807593 40.1488574,116.098287 C39.600722,115.388982 39.3266584,114.629023 39.3266584,113.818388 C39.3266584,112.764562 39.742829,111.974205 40.5751829,111.447292 C41.4075367,110.920379 42.3718346,110.656927 43.4681055,110.656927 C44.6455816,110.656927 45.660632,110.879848 46.5132872,111.325698 C47.3659423,111.771547 48.2287352,112.268053 49.1016916,112.815232 C49.9746481,113.362411 50.9490965,113.858917 52.0250661,114.304766 C53.1010356,114.750616 54.4916547,114.973537 56.196965,114.973537 C58.145891,114.973537 59.9729818,114.588491 61.6782921,113.818388 C63.3836023,113.048285 64.8757264,112.004608 66.1547092,110.687326 C67.4336919,109.370044 68.4487423,107.82986 69.1998909,106.066729 C69.9510394,104.303598 70.3266081,102.408767 70.3266081,100.38218 C70.3266081,97.6260204 69.6363738,95.1333551 68.2558845,92.9041088 C66.8753953,90.6748625 64.9061974,88.7698988 62.348232,87.1891605 C59.7902666,85.6084222 56.6943628,84.3823551 53.0604278,83.5109224 C49.4264928,82.6394898 45.3764417,82.20378 40.9101529,82.20378 L53.699916,59.04 Z M93.4902902,87.4931471 L99.2761354,87.4931471 C101.50928,87.4931471 103.579983,87.1992963 105.488306,86.6115859 C107.39663,86.0238755 109.041011,85.1828543 110.4215,84.088497 C111.80199,82.9941397 112.877943,81.6667448 113.649393,80.1062724 C114.420843,78.5457999 114.806562,76.792828 114.806562,74.8473039 C114.806562,73.0639069 114.502047,71.4325284 113.893008,69.9531194 C113.283968,68.4737105 112.421175,67.1969795 111.304603,66.1228881 C110.188031,65.0487967 108.858315,64.2179083 107.315415,63.6301979 C105.772515,63.0424875 104.087532,62.7486367 102.260414,62.7486367 L93.4902902,62.7486367 L93.4902902,87.4931471 Z" id="Combined-Shape" fill="url(#linearGradient-5)"></path>
                        <path d="M86.4998465,161.117489 C47.330339,161.117489 15.5769044,129.512546 15.5769044,90.5262111 C15.5769044,51.5398758 47.330339,19.9349328 86.4998465,19.9349328 C125.669354,19.9349328 157.422789,51.5398758 157.422789,90.5262111 C157.422789,129.512546 125.669354,161.117489 86.4998465,161.117489 Z" id="Path" stroke="url(#linearGradient-6)" stroke-width="4" stroke-linecap="round" stroke-linejoin="round" stroke-dasharray="2,13"></path>
                    </g>
                    <g id="Combined-Shape">
                        <use fill="#FC981C" fill-rule="evenodd" xlink:href="#path-7"></use>
                        <path stroke="#FFFFFF" stroke-width="4" d="M86.5,23.92 C88.8461936,23.92 90.7472222,22.0211691 90.7472222,19.68 C90.7472222,17.3388309 88.8461936,15.44 86.5,15.44 C84.1538064,15.44 82.2527778,17.3388309 82.2527778,19.68 C82.2527778,22.0211691 84.1538064,23.92 86.5,23.92 Z M45.1722222,151.6 C47.5184158,151.6 49.4194444,149.701169 49.4194444,147.36 C49.4194444,145.018831 47.5184158,143.12 45.1722222,143.12 C42.8260286,143.12 40.925,145.018831 40.925,147.36 C40.925,149.701169 42.8260286,151.6 45.1722222,151.6 Z M128.788889,151.6 C131.135083,151.6 133.036111,149.701169 133.036111,147.36 C133.036111,145.018831 131.135083,143.12 128.788889,143.12 C126.442695,143.12 124.541667,145.018831 124.541667,147.36 C124.541667,149.701169 126.442695,151.6 128.788889,151.6 Z M153.777778,72.88 C156.123971,72.88 158.025,70.9811691 158.025,68.64 C158.025,66.2988309 156.123971,64.4 153.777778,64.4 C151.431584,64.4 149.530556,66.2988309 149.530556,68.64 C149.530556,70.9811691 151.431584,72.88 153.777778,72.88 Z M18.2611111,72.88 C20.6073047,72.88 22.5083333,70.9811691 22.5083333,68.64 C22.5083333,66.2988309 20.6073047,64.4 18.2611111,64.4 C15.9149175,64.4 14.0138889,66.2988309 14.0138889,68.64 C14.0138889,70.9811691 15.9149175,72.88 18.2611111,72.88 Z"></path>
                    </g>
                </g>
                <g id="Group-11" transform="translate(147.000000, 0.000000)">
                    <g id="Group-16" transform="translate(0.000000, 270.000000)">
                        <text id="Right-Place" font-family="PingFangTC-Medium, PingFang TC" font-size="24" font-weight="400" line-spacing="24" letter-spacing="-0.218181863" fill="#FC981C">
                            <tspan x="0" y="25">Right Place</tspan>
                        </text>
                        <text id="我是說明文我是說明文我是說明文我是說明文" font-family="PingFangTC-Light, PingFang TC" font-size="14" font-weight="300" letter-spacing="-0.127272725" fill="#4A4A4A">
                            <tspan x="0" y="49">我是說明文我是說明文我是說明文</tspan>
                            <tspan x="0" y="69">我是說明文</tspan>
                        </text>
                    </g>
                    <g id="Group-14" transform="translate(0.000000, 90.000000)">
                        <text id="我是說明文我是說明文我是說明文我是說明文" font-family="PingFangTC-Light, PingFang TC" font-size="14" font-weight="300" letter-spacing="-0.127272725" fill="#4A4A4A">
                            <tspan x="0" y="49">我是說明文我是說明文我是說明文</tspan>
                            <tspan x="0" y="69">我是說明文</tspan>
                        </text>
                        <text id="Right-Time" font-family="PingFangTC-Medium, PingFang TC" font-size="24" font-weight="400" line-spacing="24" letter-spacing="-0.218181863" fill="#FC981C">
                            <tspan x="0" y="25">Right Time</tspan>
                        </text>
                    </g>
                    <g id="Group-17" transform="translate(0.000000, 360.000000)">
                        <text id="我是說明文我是說明文我是說明文我是說明文" font-family="PingFangTC-Light, PingFang TC" font-size="14" font-weight="300" letter-spacing="-0.127272725" fill="#4A4A4A">
                            <tspan x="0" y="49">我是說明文我是說明文我是說明文</tspan>
                            <tspan x="0" y="69">我是說明文</tspan>
                        </text>
                        <text id="Right-Format" font-family="PingFangTC-Medium, PingFang TC" font-size="24" font-weight="400" line-spacing="24" letter-spacing="-0.218181863" fill="#FC981C">
                            <tspan x="0" y="25">Right Format</tspan>
                        </text>
                    </g>
                    <g id="Group-15" transform="translate(0.000000, 180.000000)">
                        <text id="我是說明文我是說明文我是說明文我是說明文" font-family="PingFangTC-Light, PingFang TC" font-size="14" font-weight="300" letter-spacing="-0.127272725" fill="#4A4A4A">
                            <tspan x="0" y="49">我是說明文我是說明文我是說明文</tspan>
                            <tspan x="0" y="69">我是說明文</tspan>
                        </text>
                        <text id="Right-Content" font-family="PingFangTC-Medium, PingFang TC" font-size="24" font-weight="400" line-spacing="24" letter-spacing="-0.218181863" fill="#FC981C">
                            <tspan x="0" y="25">Right Content</tspan>
                        </text>
                    </g>
                    <g id="Group-12">
                        <text id="我是說明文我是說明文我是說明文我是說明文" font-family="PingFangTC-Light, PingFang TC" font-size="14" font-weight="300" letter-spacing="-0.127272725" fill="#4A4A4A">
                            <tspan x="0" y="49">我是說明文我是說明文我是說明文</tspan>
                            <tspan x="0" y="69">我是說明文</tspan>
                        </text>
                        <text id="Right-Audience" font-family="PingFangTC-Medium, PingFang TC" font-size="24" font-weight="400" line-spacing="24" letter-spacing="-0.218181863" fill="#FC981C">
                            <tspan x="0" y="25">Right Audience</tspan>
                        </text>
                    </g>
                </g>
            </g>
        </g>
    </g>
</svg>