<?xml version="1.0" encoding="utf-8"?>
<!-- Generator: Adobe Illustrator 17.0.0, SVG Export Plug-In . SVG Version: 6.00 Build 0)  -->
<!DOCTYPE svg PUBLIC "-//W3C//DTD SVG 1.1//EN" "http://www.w3.org/Graphics/SVG/1.1/DTD/svg11.dtd">
<svg version="1.1" id="圖層_1" xmlns="http://www.w3.org/2000/svg" xmlns:xlink="http://www.w3.org/1999/xlink" x="0px" y="0px"
	 width="72px" height="72px" viewBox="0 0 72 72" enable-background="new 0 0 72 72" xml:space="preserve">
<g>
	<polyline fill="#8CB5D9" points="33.2,71.1 4.6,8.8 8.6,7 37.3,69.2 33.2,71.1 	"/>
	
		<rect x="20.8" y="4.3" transform="matrix(0.9086 -0.4177 0.4177 0.9086 -14.1029 12.6836)" fill="#568CBE" width="2.3" height="68.5"/>
	<g>
		<path fill="#568CBE" d="M10.7,5.8C9.6,3.5,6.8,2.4,4.4,3.5C2.1,4.6,1,7.4,2.1,9.8c1.1,2.4,3.9,3.4,6.2,2.3
			C10.7,11,11.8,8.2,10.7,5.8"/>
		<path fill="#8CB5D9" d="M6.3,6c-0.5-1.1-1.7-1.5-2.8-1C2.4,5.4,2,6.7,2.5,7.7c0.5,1.1,1.7,1.5,2.8,1C6.3,8.3,6.8,7,6.3,6"/>
		<path fill="#F29600" d="M41.5,34.5c6.9,0.5,13.7,2.3,20,5.6c-0.6-4.6-1.8-9.2-3.7-13.8c4.2-2.5,9-4.6,14.1-6.2
			C62.8,15.4,53,12.7,43,12C42.5,19.5,42,27,41.5,34.5"/>
		<path fill="#E35D4A" d="M49.5,12.8c-2.2-0.3-4.3-0.6-6.5-0.7c-0.5,7.5-1,15-1.5,22.5c1.5,0.1,3,0.3,4.5,0.5
			C47.2,27.6,48.3,20.2,49.5,12.8"/>
		<path fill="#F4BC1B" d="M44.6,33.4c-9.4-1.2-19.1,0.2-27.9,4.2C13.3,30.3,10,23,6.7,15.7c13-5.9,27.2-8,40.9-6.2
			C46.6,17.5,45.6,25.4,44.6,33.4"/>
		<path fill="#E35D4A" d="M21.6,34.6c-0.2,0.1-0.5,0-0.6-0.2c-2.6-6.4-5.1-12.9-7.7-19.3c-0.1-0.2,0.1-0.5,0.4-0.6
			c0.3-0.1,0.6-0.1,0.7,0.2c2.5,6.5,4.9,12.9,7.4,19.4C21.9,34.3,21.8,34.5,21.6,34.6"/>
	</g>
	<polygon fill="#FFFFFF" points="2.4,6.9 0.1,7.4 2.4,7.2 2.3,9.6 2.8,7.2 5,8.1 2.9,6.9 4.4,5.1 2.7,6.7 1.4,4.7 	"/>
	<g>
		<path fill="#F29600" d="M49.5,12.8C48.3,20.2,47.2,27.6,46,35c-1.5-0.2-3-0.4-4.5-0.5c6.9,0.5,13.7,2.3,20,5.6
			c-0.6-4.6-1.8-9.2-3.7-13.8c4.2-2.5,9-4.6,14.1-6.2C64.8,16.4,57.2,14,49.5,12.8"/>
		<path fill="#E95513" d="M47.3,12.4c-0.9,7-1.8,14-2.7,21c-1-0.1-2-0.2-3-0.3c0,0.5-0.1,0.9-0.1,1.4c1.5,0.1,3,0.3,4.5,0.5
			c1.2-7.4,2.4-14.8,3.5-22.2C48.8,12.6,48,12.5,47.3,12.4"/>
		<path fill="#F29600" d="M38.1,8.9c-1,0-1.9,0-2.9,0.1v24.1c1-0.1,1.9-0.1,2.9-0.1c1.2,0,2.3,0,3.5,0.1c1,0.1,2,0.2,3,0.3
			c0.9-7,1.8-14,2.7-21c0.1-1,0.2-1.9,0.4-2.9C44.5,9.1,41.3,8.9,38.1,8.9"/>
	</g>
</g>
</svg>
