<?xml version="1.0" encoding="UTF-8"?>
<svg width="51px" height="51px" viewBox="0 0 51 51" version="1.1" xmlns="http://www.w3.org/2000/svg" xmlns:xlink="http://www.w3.org/1999/xlink">
    <!-- Generator: Sketch 48.2 (47327) - http://www.bohemiancoding.com/sketch -->
    <title>icon s/ 1 copy 2</title>
    <desc>Created with Sketch.</desc>
    <defs>
        <linearGradient x1="50%" y1="96.8391263%" x2="50%" y2="0%" id="linearGradient-1">
            <stop stop-color="#FFB75D" offset="0%"></stop>
            <stop stop-color="#FF9454" offset="100%"></stop>
        </linearGradient>
    </defs>
    <g id="3_AdPlay_dt" stroke="none" stroke-width="1" fill="none" fill-rule="evenodd" transform="translate(-594.000000, -888.000000)">
        <g id="Group-17" transform="translate(80.000000, 888.000000)">
            <g id="Group-22" transform="translate(387.000000, 0.000000)">
                <g id="icon-s/-adplay2" transform="translate(127.000000, 0.000000)">
                    <circle id="Oval" fill="url(#linearGradient-1)" cx="25.5" cy="25.5" r="25.5"></circle>
                    <g id="cloud-storage-download" stroke-width="1" transform="translate(9.000000, 14.000000)" fill="#FFFFFF">
                        <path d="M31.5642961,13.3889163 C30.6073608,12.2014358 29.384463,11.4317527 27.8945793,11.0793892 C28.3647394,10.3749011 28.5991572,9.59077001 28.5991572,8.72717503 C28.5991572,7.52256004 28.1693912,6.49424618 27.3103407,5.64187525 C26.4511096,4.78980283 25.4141688,4.36358752 24.1995184,4.36358752 C23.1109263,4.36358752 22.1600109,4.71589128 21.3466521,5.42049881 C20.6709098,3.78405648 19.5905651,2.47161898 18.1068819,1.48312661 C16.6231988,0.494335736 14.9874511,0 13.1997592,0 C10.7707593,0 8.69669722,0.852490336 6.97793405,2.55705309 C5.25905049,4.26119793 4.3998796,6.31824356 4.3998796,8.72735414 C4.3998796,8.87505784 4.41137775,9.11941969 4.43425366,9.4602009 C3.08222739,10.0852252 2.0052538,11.022672 1.20297168,12.2725414 C0.40099056,13.522769 0,14.8861326 0,16.3637069 C0,18.4660667 0.753520317,20.2640039 2.26013955,21.7582949 C3.76681899,23.2530635 5.58015597,24 7.6999097,24 L26.4001204,24 C28.2217047,24 29.7770858,23.3605278 31.0663237,22.0823594 C32.355381,20.8041911 33,19.2616606 33,17.4544695 C32.9998194,15.9317602 32.5212916,14.5767549 31.5642961,13.3889163 Z M21.8281297,14.0451649 L15.7952114,20.0285974 C15.6922096,20.1305094 15.5603721,20.1817938 15.3998796,20.1817938 C15.2395075,20.1817938 15.10767,20.1305094 15.0045478,20.0285974 L8.95471337,14.0283885 C8.85159119,13.9262377 8.8001204,13.7954895 8.8001204,13.6363229 C8.8001204,13.4886192 8.85430018,13.3607367 8.96314133,13.2528545 C9.07222329,13.1449126 9.20087016,13.0910014 9.34980435,13.0910014 L13.1998194,13.0910014 L13.1998194,7.09109091 C13.1998194,6.94338721 13.2543002,6.81550471 13.3630811,6.70738369 C13.4719825,6.59962089 13.60081,6.54570964 13.7497442,6.54570964 L17.0500752,6.54570964 C17.1992502,6.54570964 17.3275359,6.59944178 17.4369791,6.70738369 C17.5455794,6.81550471 17.5999398,6.94338721 17.5999398,7.09109091 L17.5999398,13.0910014 L21.4499549,13.0910014 C21.6103872,13.0910014 21.7422247,13.1420469 21.8450458,13.2441977 C21.9482282,13.3463485 21.9992776,13.4770967 21.9992776,13.6362632 C21.9992776,13.7732205 21.942449,13.9090434 21.8281297,14.0451649 Z" id="Shape" fill-rule="nonzero"></path>
                    </g>
                </g>
            </g>
        </g>
    </g>
</svg>