<?xml version="1.0" encoding="UTF-8"?>
<svg width="51px" height="51px" viewBox="0 0 51 51" version="1.1" xmlns="http://www.w3.org/2000/svg" xmlns:xlink="http://www.w3.org/1999/xlink">
    <!-- Generator: Sketch 48.2 (47327) - http://www.bohemiancoding.com/sketch -->
    <title>icon s/ 1 copy 5</title>
    <desc>Created with Sketch.</desc>
    <defs>
        <linearGradient x1="50%" y1="96.8391263%" x2="50%" y2="0%" id="linearGradient-1">
            <stop stop-color="#FFB75D" offset="0%"></stop>
            <stop stop-color="#FF9454" offset="100%"></stop>
        </linearGradient>
    </defs>
    <g id="3_AdPlay_dt" stroke="none" stroke-width="1" fill="none" fill-rule="evenodd" transform="translate(-594.000000, -1135.000000)">
        <g id="Group-17" transform="translate(80.000000, 888.000000)">
            <g id="Group-19" transform="translate(387.000000, 247.000000)">
                <g id="icon-s/-adplay5" transform="translate(127.000000, 0.000000)">
                    <circle id="Oval" fill="url(#linearGradient-1)" cx="25.5" cy="25.5" r="25.5"></circle>
                    <g id="broken-link" stroke-width="1" transform="translate(11.000000, 11.000000)" fill="#FFFFFF">
                        <path d="M12.3642115,22.0738852 L8.84980425,25.50577 C7.39280279,26.9285593 5.03330159,26.9285593 3.57752343,25.5060544 C2.121454,24.0841752 2.121454,21.7798504 3.57723217,20.3582556 L10.60727,13.4932914 C12.0630482,12.0716397 14.4227824,12.0716397 15.8785606,13.4932914 C16.3638588,13.9671942 17.1507281,13.9671942 17.6360263,13.4932914 C18.1213246,13.0193886 18.1213246,12.2509958 17.6360263,11.777093 C15.2095935,9.40763567 11.2762371,9.40763567 8.84980425,11.777093 L1.81982465,18.6420572 C-0.606608215,21.0115146 -0.606608215,24.8525111 1.81982465,27.2219684 C4.24596624,29.5926772 8.17961387,29.5926772 10.6073283,27.2219684 L14.1217356,23.7900836 C14.6070338,23.3161807 14.6070338,22.547788 14.1217356,22.0738852 C13.6364373,21.5999823 12.8495098,21.5999823 12.3642115,22.0738852 Z" id="Shape" fill-rule="nonzero"></path>
                        <path d="M27.2485005,9.99675587 C29.5838332,7.70971394 29.5838332,4.00231652 27.2485005,1.71527459 C24.9132238,-0.571712438 21.127713,-0.571712438 18.7912029,1.71500006 L14.7327115,5.6895686 C14.2656338,6.14698797 14.2656338,6.88865414 14.7327115,7.3460735 C15.1997893,7.80349287 15.9571157,7.80349287 16.4241935,7.3460735 L20.4824045,3.37177948 C21.8844788,1.99957629 24.1558413,1.99957629 25.5570185,3.37177948 C26.9581397,4.74392777 26.9581397,6.96810268 25.5570185,8.34025097 L18.1151708,15.6282137 C16.7139936,17.0004168 14.4429114,17.0004168 13.0417902,15.6282137 C12.5747125,15.1707943 11.8173861,15.1707943 11.3503083,15.6282137 C10.8832306,16.085633 10.8832306,16.8272992 11.3503083,17.2847186 C13.685641,19.5717605 17.47132,19.5717605 19.8066527,17.2847186 L27.2485005,9.99675587 Z" id="Shape" fill-rule="nonzero"></path>
                        <path d="M22.0489331,20.3515338 C21.5802214,19.8828221 20.8202456,19.8828221 20.3515338,20.3515338 C19.8828221,20.8202456 19.8828221,21.5802214 20.3515338,22.0489331 L23.9510669,25.6484662 C24.4197786,26.1171779 25.1797544,26.1171779 25.6484662,25.6484662 C26.1171779,25.1797544 26.1171779,24.4197786 25.6484662,23.9510669 L22.0489331,20.3515338 Z" id="Shape" fill-rule="nonzero"></path>
                        <path d="M5.95229572,7.64867702 C6.42072636,8.11710766 7.18024637,8.11710766 7.64867702,7.64867702 C8.11710766,7.18024637 8.11710766,6.42072636 7.64867702,5.95229572 L4.04770428,2.35132298 C3.57927364,1.88289234 2.81975363,1.88289234 2.35132298,2.35132298 C1.88289234,2.81975363 1.88289234,3.57927364 2.35132298,4.04770428 L5.95229572,7.64867702 Z" id="Shape" fill-rule="nonzero"></path>
                        <path d="M27.8000113,18 L24.1999887,18 C23.5372471,18 23,18.4477101 23,19 C23,19.5522899 23.5372471,20 24.1999887,20 L27.8000113,20 C28.4627529,20 29,19.5522899 29,19 C29,18.4477101 28.4627529,18 27.8000113,18 Z" id="Shape" fill-rule="nonzero"></path>
                        <path d="M9,6 C9.55228988,6 10,5.46275793 10,4.8000225 L10,1.20003375 C10,0.537242071 9.55228988,0 9,0 C8.44771012,0 8,0.537242071 8,1.1999775 L8,4.79996625 C7.99995312,5.46270168 8.44771012,6 9,6 Z" id="Shape" fill-rule="nonzero"></path>
                        <path d="M1.19998875,10 L4.80001125,10 C5.46275289,10 6,9.55228988 6,9 C6,8.44771012 5.46275289,8 4.80001125,8 L1.19998875,8 C0.537247108,8 0,8.44771012 0,9 C-6.39141175e-18,9.55228988 0.537247108,10 1.19998875,10 Z" id="Shape" fill-rule="nonzero"></path>
                        <path d="M19,23 C18.4477101,23 18,23.5372471 18,24.1999887 L18,27.8000113 C18,28.4627529 18.4477101,29 19,29 C19.5522899,29 20,28.4627529 20,27.8000113 L20,24.1999887 C20.0000469,23.5373034 19.5522899,23 19,23 Z" id="Shape" fill-rule="nonzero"></path>
                    </g>
                </g>
            </g>
        </g>
    </g>
</svg>