<?xml version="1.0" encoding="UTF-8"?>
<svg width="51px" height="51px" viewBox="0 0 51 51" version="1.1" xmlns="http://www.w3.org/2000/svg" xmlns:xlink="http://www.w3.org/1999/xlink">
    <!-- Generator: Sketch 48.2 (47327) - http://www.bohemiancoding.com/sketch -->
    <title>icon s/ 1 copy 3</title>
    <desc>Created with Sketch.</desc>
    <defs>
        <linearGradient x1="50%" y1="96.8391263%" x2="50%" y2="0%" id="linearGradient-1">
            <stop stop-color="#FFB75D" offset="0%"></stop>
            <stop stop-color="#FF9454" offset="100%"></stop>
        </linearGradient>
    </defs>
    <g id="3_AdPlay_dt" stroke="none" stroke-width="1" fill="none" fill-rule="evenodd" transform="translate(-1006.000000, -888.000000)">
        <g id="Group-17" transform="translate(80.000000, 888.000000)">
            <g id="Group-23" transform="translate(799.000000, 0.000000)">
                <g id="icon-s/-adplay3" transform="translate(127.000000, 0.000000)">
                    <circle id="Oval" fill="url(#linearGradient-1)" cx="25.5" cy="25.5" r="25.5"></circle>
                    <g id="mobile-phone" stroke-width="1" transform="translate(16.000000, 10.000000)" fill="#FFFFFF">
                        <path d="M18.0597397,0.950064168 C17.4334194,0.316454553 16.6908988,0 15.8333044,0 L3.16686885,0 C2.30901454,0 1.56692723,0.316717244 0.940173669,0.950064168 C0.313420107,1.58306084 0,2.33321749 0,3.19983363 L0,28.7999912 C0,29.6665198 0.313420107,30.4165889 0.940173669,31.0497607 C1.56692723,31.6831952 2.30901454,32 3.16686885,32 L15.8333044,32 C16.6908122,32 17.4334194,31.6829325 18.059653,31.0497607 C18.6864932,30.4165889 19,29.6665198 19,28.7999912 L19,3.19983363 C19,2.33321749 18.6869265,1.58341109 18.0597397,0.950064168 Z M7.52095609,3.19983363 L11.4796505,3.19983363 C11.7435923,3.19983363 11.8752166,3.33319287 11.8752166,3.59991134 C11.8752166,3.86654225 11.7435057,4.00007662 11.4796505,4.00007662 L7.52095609,4.00007662 C7.2571009,4.00007662 7.12512998,3.86654225 7.12512998,3.59991134 C7.12504333,3.33319287 7.25701425,3.19983363 7.52095609,3.19983363 Z M10.8983025,30.2125659 C10.5104484,30.6038873 10.0446075,30.7998544 9.5001733,30.7998544 C8.95599905,30.7998544 8.49015816,30.6038873 8.10247733,30.2125659 C7.7147965,29.820544 7.52095609,29.3495399 7.52095609,28.7999912 C7.52095609,28.2498297 7.71505646,27.7790006 8.10247733,27.387329 C8.48989821,26.9960077 8.9560857,26.7994276 9.5001733,26.7994276 C10.0446942,26.7994276 10.5105351,26.9960077 10.8983025,27.387329 C11.2858967,27.7790006 11.4795638,28.2498297 11.4795638,28.7999912 C11.4795638,29.3501528 11.2856368,29.8206316 10.8983025,30.2125659 Z M16.6253899,24.8001773 C16.6253899,25.0165468 16.5471432,25.2047208 16.3902165,25.3626854 C16.2331166,25.5209126 16.048028,25.5997198 15.833911,25.5997198 L3.16686885,25.5997198 C2.95249193,25.5997198 2.7669701,25.5206499 2.61030337,25.3626854 C2.45363665,25.2047208 2.37530328,25.0165468 2.37530328,24.8001773 L2.37530328,7.2002605 C2.37530328,6.98362836 2.45354999,6.79597974 2.61030337,6.63784003 C2.76705675,6.47978788 2.95249193,6.40019264 3.16686885,6.40019264 L15.8333044,6.40019264 C16.048028,6.40019264 16.2332899,6.47943762 16.3902165,6.63784003 C16.5471432,6.7960673 16.6250433,6.98362836 16.6250433,7.2002605 L16.6250433,24.8000898 L16.6253899,24.8000898 L16.6253899,24.8001773 Z" id="Shape" fill-rule="nonzero"></path>
                    </g>
                </g>
            </g>
        </g>
    </g>
</svg>