<?xml version="1.0" encoding="UTF-8"?>
<svg width="51px" height="51px" viewBox="0 0 51 51" version="1.1" xmlns="http://www.w3.org/2000/svg" xmlns:xlink="http://www.w3.org/1999/xlink">
    <!-- Generator: Sketch 48.2 (47327) - http://www.bohemiancoding.com/sketch -->
    <title>icon s/ 1 copy 6</title>
    <desc>Created with Sketch.</desc>
    <defs>
        <linearGradient x1="50%" y1="96.8391263%" x2="50%" y2="0%" id="linearGradient-1">
            <stop stop-color="#FFB75D" offset="0%"></stop>
            <stop stop-color="#FF9454" offset="100%"></stop>
        </linearGradient>
    </defs>
    <g id="3_AdPlay_dt" stroke="none" stroke-width="1" fill="none" fill-rule="evenodd" transform="translate(-1006.000000, -1135.000000)">
        <g id="Group-17" transform="translate(80.000000, 888.000000)">
            <g id="Group-18" transform="translate(799.000000, 247.000000)">
                <g id="icon-s/-adplay6" transform="translate(127.000000, 0.000000)">
                    <circle id="Oval" fill="url(#linearGradient-1)" cx="25.5" cy="25.5" r="25.5"></circle>
                    <g id="starred-badge" stroke-width="1" transform="translate(14.000000, 8.000000)" fill="#FFFFFF">
                        <path d="M24,11.9354925 C24,5.35270527 18.610459,0 11.9946795,0 C5.38044011,0 0,5.35423704 0,11.9354925 C0,16.8661948 3.02023196,21.1105243 7.31948755,22.9262999 L4.51977691,35 L12.2756866,29.5646487 L20.0270459,35 L17.4643782,22.5448192 C21.3361725,20.562359 24,16.5553148 24,11.9354925 Z M11.9962196,20.5548394 C7.20922689,20.5548394 3.33127202,16.6919906 3.33127202,11.9370243 C3.33127202,7.1850519 7.20922689,3.32220312 11.9962196,3.32220312 C16.7741815,3.32220312 20.6641775,7.1850519 20.6641775,11.9370243 C20.6641775,16.6904589 16.7726414,20.5548394 11.9962196,20.5548394 Z" id="Shape" fill-rule="nonzero"></path>
                        <polygon id="Shape" fill-rule="nonzero" points="13.6507856 8.96534586 12 4 10.3492144 8.96534586 5 8.96534586 9.32542764 12.036152 7.6761057 17 12 13.9336193 16.3238943 17 14.6745724 12.036152 19 8.96534586"></polygon>
                    </g>
                </g>
            </g>
        </g>
    </g>
</svg>