<?xml version="1.0" encoding="UTF-8"?>
<svg width="51px" height="51px" viewBox="0 0 51 51" version="1.1" xmlns="http://www.w3.org/2000/svg" xmlns:xlink="http://www.w3.org/1999/xlink">
    <!-- Generator: Sketch 48.2 (47327) - http://www.bohemiancoding.com/sketch -->
    <title>icon s/ 1 copy 4</title>
    <desc>Created with Sketch.</desc>
    <defs>
        <linearGradient x1="50%" y1="96.8391263%" x2="50%" y2="0%" id="linearGradient-1">
            <stop stop-color="#FFB75D" offset="0%"></stop>
            <stop stop-color="#FF9454" offset="100%"></stop>
        </linearGradient>
    </defs>
    <g id="3_AdPlay_dt" stroke="none" stroke-width="1" fill="none" fill-rule="evenodd" transform="translate(-207.000000, -1135.000000)">
        <g id="Group-17" transform="translate(80.000000, 888.000000)">
            <g id="Group-20" transform="translate(0.000000, 247.000000)">
                <g id="icon-s/-adplay4" transform="translate(127.000000, 0.000000)">
                    <circle id="Oval" fill="url(#linearGradient-1)" cx="25.5" cy="25.5" r="25.5"></circle>
                    <g id="gamepad-controller" stroke-width="1" transform="translate(9.000000, 15.000000)" fill="#FFFFFF">
                        <path d="M30.0495251,3.89066451 C25.6908413,-3.31677779 19.1248161,1.69752597 19.1248161,1.69752597 C18.6989783,2.02144901 17.9137629,2.28777196 17.3802349,2.28901067 L15.6215001,2.29024938 C15.0879721,2.29086874 14.3027567,2.02454578 13.8775343,1.70062275 C13.8775343,1.70062275 7.31089369,-3.31491972 2.95159448,3.89252258 C-1.40647399,11.0974875 0.349799299,18.9441048 0.349799299,18.9441048 C0.657485579,20.8653462 1.67161956,22.1474125 3.58542822,21.98638 C5.49369852,21.8259669 9.63577122,16.8122825 9.63577122,16.8122825 C9.97791836,16.3991723 10.6948274,16.0616234 11.2271247,16.0616234 L21.7709181,16.0597653 C22.3038307,16.0597653 23.0201244,16.3973142 23.3616562,16.8104244 C23.3616562,16.8104244 27.5043442,21.8241088 29.4156914,21.984522 C31.3270386,22.1455545 32.343634,20.8622494 32.6494742,18.9422468 C32.6488588,18.9422468 34.408209,11.0968681 30.0495251,3.89066451 Z M12.5378682,9.75720172 L10.2769894,9.75720172 L10.2769894,11.9503403 C10.2769894,11.9503403 9.79822958,12.3182375 9.05732101,12.3089472 C8.3176432,12.2977988 7.98288053,11.9076047 7.98288053,11.9076047 L7.98288053,9.75782107 L5.84753774,9.75782107 C5.84753774,9.75782107 5.58108143,9.48282714 5.50969821,8.75880033 C5.43954574,8.03477351 5.80446167,7.44948237 5.80446167,7.44948237 L8.06595582,7.44948237 L8.06595582,5.17396953 C8.06595582,5.17396953 8.53117748,4.92313047 9.20008745,4.94233049 C9.86961279,4.96338859 10.3600647,5.21670507 10.3600647,5.21670507 L10.3508341,7.44886302 L12.4861769,7.44886302 C12.4861769,7.44886302 12.8590927,7.93072175 12.8898613,8.51291611 C12.9206299,9.09572983 12.5378682,9.75720172 12.5378682,9.75720172 Z M22.9081266,12.2569213 C21.9179921,12.2569213 21.1198539,11.4511396 21.1198539,10.4558349 C21.1198539,9.45867227 21.9179921,8.65474857 22.9081266,8.65474857 C23.8939534,8.65474857 24.6982454,9.45867227 24.6982454,10.4558349 C24.6982454,11.4517589 23.8939534,12.2569213 22.9081266,12.2569213 Z M22.9081266,7.30145636 C21.9179921,7.30145636 21.1198539,6.49629395 21.1198539,5.50098934 C21.1198539,4.50382666 21.9179921,3.69990296 22.9081266,3.69990296 C23.8939534,3.69990296 24.6982454,4.50382666 24.6982454,5.50098934 C24.6982454,6.4969133 23.8939534,7.30145636 22.9081266,7.30145636 Z M27.3646547,9.9615891 C26.3745202,9.9615891 25.576382,9.15642669 25.576382,8.16050272 C25.576382,7.1639594 26.3745202,6.35941634 27.3646547,6.35941634 C28.3504815,6.35941634 29.1547734,7.1639594 29.1547734,8.16050272 C29.1547734,9.15642669 28.3504815,9.9615891 27.3646547,9.9615891 Z" id="Shape" fill-rule="nonzero"></path>
                    </g>
                </g>
            </g>
        </g>
    </g>
</svg>