<?xml version="1.0" encoding="utf-8"?>
<!-- Generator: Adobe Illustrator 17.0.0, SVG Export Plug-In . SVG Version: 6.00 Build 0)  -->
<!DOCTYPE svg PUBLIC "-//W3C//DTD SVG 1.1//EN" "http://www.w3.org/Graphics/SVG/1.1/DTD/svg11.dtd">
<svg version="1.1" id="圖層_1" xmlns="http://www.w3.org/2000/svg" xmlns:xlink="http://www.w3.org/1999/xlink" x="0px" y="0px"
	 width="276.9px" height="276.9px" viewBox="0 0 276.9 312.9" enable-background="new 0 0 276.9 312.9" xml:space="preserve">
<g>
	<path fill="#ffffff" d="M39,171.9l-39,0l0,116.9c0,21.4,15.2,30.2,33.8,19.5L134.9,250l-19.5-33.8L39,260.3L39,171.9z M274.1,165.6
		c5.9-9.8,2.2-21.1-11.1-28.9L34,4.5C20.6-3.2,9-0.7,3.5,9.3C1.2,13.2,0,18.3,0,24.5l0,118.1l39,0l0-90.3l60,104h120.1l-78.3,45.2
		l19.5,33.8l102.4-59.1C268,173.1,271.8,169.4,274.1,165.6z"/>
</g>
</svg>
