<svg width="347" height="123" viewBox="0 0 347 123" fill="none" xmlns="http://www.w3.org/2000/svg">
<path d="M61.2377 10.9459V0C38.5718 0 18.7999 12.3208 8.21063 30.6225L17.6936 36.0979C26.4049 21.0809 42.6527 10.9459 61.2377 10.9459Z" fill="white"/>
<path d="M17.6936 86.3875L8.21063 91.8628C18.7999 110.165 38.5718 122.485 61.2377 122.485V111.549C42.6527 111.549 26.4049 101.414 17.6936 86.3875Z" fill="url(#paint0_linear_30_180)"/>
<path d="M10.9337 61.2475C10.9276 52.4177 13.26 43.7437 17.6936 36.1077L8.21064 30.6323C2.832 39.939 0.00012207 50.4984 0.00012207 61.2475C0.00012207 71.9966 2.832 82.5561 8.21064 91.8627L17.6936 86.3873C13.26 78.7513 10.9276 70.0774 10.9337 61.2475Z" fill="white"/>
<path d="M114.265 30.6323C103.676 12.3306 83.9012 0 61.2377 0V10.9361C79.8203 10.9361 96.0706 21.0712 104.779 36.0906C109.207 43.7289 111.54 52.4013 111.54 61.2304C111.54 70.0595 109.207 78.7319 104.779 86.3702C96.0706 101.397 79.8203 111.525 61.2377 111.525V122.461C83.9012 122.461 103.676 110.14 114.265 91.8383C119.643 82.5316 122.475 71.9722 122.475 61.2231C122.475 50.4739 119.643 39.9145 114.265 30.6079V30.6323Z" fill="#180B3D"/>
<path d="M61.2377 100.618V111.551C79.8203 111.551 96.0706 101.416 104.779 86.397L95.3159 80.9216C91.8628 86.9057 86.896 91.8758 80.9143 95.3331C74.9326 98.7903 68.1466 100.613 61.2377 100.618Z" fill="#00DFB2"/>
<path d="M61.2377 10.9458V21.8795C68.1464 21.8842 74.9322 23.7064 80.9139 27.1632C86.8956 30.62 91.8625 35.5897 95.3159 41.5732L104.782 36.1076C96.0706 21.0809 79.8203 10.9458 61.2377 10.9458Z" fill="url(#paint1_linear_30_180)"/>
<path d="M100.606 61.2475C100.611 68.1577 98.7862 74.9461 95.316 80.9217L104.782 86.3873C109.21 78.749 111.542 70.0766 111.542 61.2475C111.542 52.4185 109.21 43.746 104.782 36.1077L95.316 41.5733C98.7865 47.5488 100.612 54.3373 100.606 61.2475Z" fill="#00DFB2"/>
<path d="M61.2377 21.8795V10.9458C42.6552 10.9458 26.4049 21.0809 17.6936 36.1003C13.2655 43.7386 10.9335 52.4111 10.9335 61.2401C10.9335 70.0692 13.2655 78.7416 17.6936 86.3799C26.4049 101.407 42.6552 111.534 61.2377 111.534V100.618C50.7967 100.618 40.7833 96.4702 33.4004 89.0873C26.0174 81.7043 21.8698 71.6909 21.8698 61.2499C21.8698 50.8089 26.0174 40.7954 33.4004 33.4125C40.7833 26.0296 50.7967 21.8819 61.2377 21.8819V21.8795Z" fill="#180B3D"/>
<path d="M36.6255 75.4634L27.1595 80.929C30.6136 86.9116 35.5808 91.8803 41.5624 95.3363C47.5441 98.7922 54.3296 100.614 61.2378 100.618V89.6818C56.2487 89.6787 51.3481 88.3633 47.0281 85.8676C42.708 83.372 39.1204 79.7838 36.6255 75.4634Z" fill="url(#paint2_linear_30_180)"/>
<path d="M32.7961 61.2475C32.7923 56.2568 34.111 51.3542 36.6181 47.0388L27.1522 41.5732C23.6871 47.5511 21.8623 54.338 21.8623 61.2475C21.8623 68.157 23.6871 74.9439 27.1522 80.9217L36.6254 75.4634C34.1145 71.1467 32.7932 66.2414 32.7961 61.2475Z" fill="#00CAFF"/>
<path d="M27.1595 41.5732L36.6255 47.0388C39.1198 42.7174 42.7071 39.1283 47.0272 36.6317C51.3473 34.1352 56.2482 32.8191 61.2378 32.8155V21.8794C54.3291 21.8841 47.5433 23.7063 41.5616 27.1631C35.58 30.6199 30.613 35.5896 27.1595 41.5732Z" fill="#00CAFF"/>
<path d="M95.316 41.5732C91.8627 35.5899 86.8961 30.6205 80.915 27.1637C74.9338 23.7069 68.1484 21.8845 61.2402 21.8794V32.8155C68.7808 32.8155 76.0126 35.811 81.3446 41.143C86.6766 46.475 89.6721 53.7068 89.6721 61.2474C89.6721 68.788 86.6766 76.0198 81.3446 81.3518C76.0126 86.6838 68.7808 89.6793 61.2402 89.6793V100.618C68.1519 100.624 74.9431 98.8081 80.9299 95.3543C86.9168 91.9004 91.8879 86.9301 95.3427 80.9438C98.7975 74.9575 100.614 68.1666 100.609 61.2549C100.605 54.3432 98.7789 47.5548 95.316 41.5732Z" fill="#180B3D"/>
<path d="M76.3744 52.507L85.8476 47.0365C83.3538 42.7152 79.767 39.126 75.4473 36.6294C71.1275 34.1329 66.227 32.8167 61.2377 32.8132V43.7469C64.3075 43.7508 67.3222 44.5623 69.9791 46.1C72.636 47.6376 74.8416 49.8473 76.3744 52.507Z" fill="url(#paint3_linear_30_180)"/>
<path d="M78.736 61.2475C78.735 64.3177 77.9202 67.3328 76.3744 69.9856L85.8476 75.4561C88.3504 71.139 89.6685 66.2375 89.6685 61.2475C89.6685 56.2574 88.3504 51.3559 85.8476 47.0388L76.3744 52.5069C77.9206 55.1603 78.7355 58.1764 78.736 61.2475Z" fill="#E068FE"/>
<path d="M61.2377 78.7457V89.6794C66.2263 89.6766 71.1264 88.3616 75.446 85.8663C79.7657 83.3711 83.3529 79.7834 85.8476 75.4634L76.3744 69.9929C74.8407 72.6513 72.6347 74.8595 69.9779 76.3958C67.321 77.9321 64.3068 78.7425 61.2377 78.7457Z" fill="#E068FE"/>
<path d="M61.2378 43.7493V32.8157C53.6971 32.8157 46.4654 35.8112 41.1334 41.1432C35.8013 46.4752 32.8058 53.707 32.8058 61.2476C32.8058 68.7882 35.8013 76.0199 41.1334 81.3519C46.4654 86.684 53.6971 89.6795 61.2378 89.6795V78.7458C56.5969 78.7458 52.1462 76.9023 48.8646 73.6207C45.5831 70.3391 43.7395 65.8884 43.7395 61.2476C43.7395 56.6068 45.5831 52.156 48.8646 48.8745C52.1462 45.5929 56.5969 43.7493 61.2378 43.7493Z" fill="#180B3D"/>
<path d="M76.3744 52.5069C74.8412 49.8465 72.6349 47.6364 69.977 46.0987C67.3192 44.561 64.3035 43.7499 61.2328 43.7468V78.7433C64.3055 78.7497 67.3255 77.9454 69.988 76.4116C72.6505 74.8778 74.8612 72.6688 76.3971 70.0075C77.933 67.3462 78.7397 64.3268 78.7357 61.2542C78.7317 58.1815 77.9172 55.1642 76.3744 52.5069Z" fill="#180B3D"/>
<path d="M46.1011 52.5069C44.5686 55.1658 43.7623 58.181 43.7631 61.2499C43.764 64.3188 44.5719 67.3336 46.1059 69.9916C47.6399 72.6496 49.846 74.8574 52.5028 76.3936C55.1596 77.9297 58.1737 78.74 61.2426 78.7433V43.7468C58.1719 43.7491 55.1559 44.5599 52.4979 46.0977C49.8399 47.6355 47.6337 49.846 46.1011 52.5069Z" fill="white"/>
<path d="M165.055 77.3365C165.103 77.4372 165.125 77.5483 165.119 77.6597C165.112 77.771 165.078 77.879 165.019 77.9736C164.96 78.0681 164.878 78.1461 164.78 78.2004C164.683 78.2547 164.573 78.2835 164.462 78.2841H155.992C155.673 78.2812 155.362 78.1842 155.099 78.0051C154.835 77.8261 154.63 77.5731 154.51 77.2779L151.55 69.8732H139.339L136.376 77.2779C136.256 77.5727 136.052 77.8254 135.788 78.0044C135.525 78.1834 135.215 78.2807 134.896 78.2841H126.425C126.313 78.2802 126.203 78.2502 126.105 78.1965C126.007 78.1427 125.923 78.0667 125.86 77.9746C125.796 77.8825 125.755 77.7767 125.74 77.6659C125.725 77.5551 125.736 77.4423 125.772 77.3365L143.959 37.2847C144.076 37.0037 144.273 36.7634 144.526 36.5944C144.779 36.4254 145.076 36.3352 145.381 36.3352C145.685 36.3352 145.982 36.4254 146.235 36.5944C146.488 36.7634 146.686 37.0037 146.802 37.2847L165.055 77.3365ZM142.306 62.4685H148.526L145.447 54.7683L142.306 62.4685Z" fill="white"/>
<path d="M171.334 78.2842C171.194 78.2848 171.055 78.2577 170.925 78.2045C170.796 78.1512 170.678 78.0729 170.579 77.9739C170.479 77.875 170.401 77.7573 170.347 77.6278C170.294 77.4983 170.266 77.3595 170.267 77.2194V37.8856C170.266 37.7453 170.293 37.6062 170.347 37.4764C170.4 37.3467 170.479 37.2287 170.578 37.1295C170.677 37.0303 170.795 36.9517 170.925 36.8983C171.054 36.8449 171.194 36.8177 171.334 36.8184H185.188C200.945 36.8184 205.744 48.8437 205.744 57.4915C205.744 66.3786 200.945 78.2842 185.188 78.2842H171.334ZM185.193 69.4582C194.791 69.4582 196.154 60.5735 196.154 57.4915C196.154 54.4094 194.791 45.5858 185.193 45.5858H179.686V69.4582H185.193Z" fill="white"/>
<path d="M260.007 65.9047C260.007 73.1311 253.728 78.7579 244.665 78.7579C238.919 78.7579 234.24 77.3366 229.204 74.7308C228.953 74.6045 228.762 74.3842 228.674 74.1178C228.585 73.8515 228.605 73.5609 228.73 73.3094L231.988 67.2675C232.114 67.0162 232.334 66.8252 232.6 66.7364C232.867 66.6475 233.158 66.6682 233.409 66.7937C237.202 68.5032 240.875 69.8733 244.309 69.8733C247.391 69.8733 249.997 68.3933 249.997 66.3199C249.997 63.7117 246.797 62.5858 242.887 61.3427C236.904 59.389 229.382 57.0787 229.382 48.5481C229.382 40.7869 235.128 36.1663 243.058 36.1663C245.664 36.1663 251.117 36.5228 258.046 39.7221C258.305 39.8559 258.504 40.0829 258.603 40.3575C258.702 40.632 258.693 40.9337 258.578 41.202L255.911 47.3075C255.854 47.4363 255.771 47.5524 255.668 47.649C255.565 47.7456 255.444 47.8209 255.312 47.8704C255.18 47.9199 255.039 47.9427 254.898 47.9375C254.757 47.9323 254.618 47.8991 254.49 47.8399C251.884 46.8923 246.968 45.1144 243.652 45.1144C241.163 45.1144 238.853 45.8837 238.911 48.1354C239.156 50.6826 243.307 51.7987 247.916 53.4667C253.67 55.4791 260.007 58.3217 260.007 65.9047Z" fill="white"/>
<path d="M305.324 57.4914C305.324 66.3785 300.464 78.9362 284.768 78.9362C269.011 78.9362 264.154 66.3785 264.154 57.4914C264.154 48.8437 269.011 36.1077 284.768 36.1077C300.459 36.1077 305.324 48.8437 305.324 57.4914ZM295.668 57.4914C295.668 54.4118 294.305 45.0534 284.768 45.0534C275.171 45.0534 273.808 54.4118 273.808 57.4914C273.808 60.571 275.171 70.0516 284.768 70.0516C294.305 70.0516 295.668 60.5661 295.668 57.4914Z" fill="white"/>
<path d="M312.914 78.2841C312.774 78.2848 312.636 78.2577 312.506 78.2044C312.377 78.1511 312.259 78.0727 312.16 77.9737C312.061 77.8747 311.983 77.757 311.929 77.6276C311.876 77.4981 311.849 77.3593 311.85 77.2193V37.1211C311.842 36.8935 311.925 36.672 312.08 36.5054C312.235 36.3387 312.45 36.2405 312.678 36.2322C313.245 36.2387 313.792 36.4484 314.219 36.8232L336.728 57.8528V37.8904C336.728 37.7501 336.755 37.611 336.808 37.4812C336.862 37.3515 336.94 37.2336 337.039 37.1343C337.139 37.0351 337.257 36.9565 337.386 36.9031C337.516 36.8497 337.655 36.8225 337.795 36.8232H345.142C345.282 36.8229 345.42 36.8503 345.55 36.9038C345.679 36.9574 345.797 37.036 345.896 37.1352C345.995 37.2344 346.073 37.3522 346.127 37.4818C346.18 37.6114 346.207 37.7503 346.206 37.8904V77.8152C346.203 78.0185 346.121 78.2126 345.978 78.3566C345.834 78.5006 345.64 78.5832 345.437 78.587C345.195 78.588 344.955 78.5412 344.732 78.4494C344.508 78.3577 344.304 78.2226 344.133 78.0521L321.386 56.5609V77.2364C321.387 77.3764 321.36 77.5152 321.307 77.6447C321.253 77.7742 321.175 77.8918 321.076 77.9908C320.977 78.0898 320.859 78.1682 320.73 78.2215C320.6 78.2748 320.462 78.3019 320.322 78.3012L312.914 78.2841Z" fill="white"/>
<path d="M217.003 47.3466C220.106 47.3466 222.622 44.8307 222.622 41.7271C222.622 38.6236 220.106 36.1077 217.003 36.1077C213.899 36.1077 211.383 38.6236 211.383 41.7271C211.383 44.8307 213.899 47.3466 217.003 47.3466Z" fill="white"/>
<path d="M217.003 53.5106C215.371 53.5104 213.758 53.1702 212.265 52.5117V77.2193C212.264 77.3593 212.291 77.498 212.345 77.6275C212.398 77.757 212.476 77.8747 212.575 77.9737C212.674 78.0727 212.792 78.1511 212.921 78.2043C213.051 78.2576 213.19 78.2847 213.33 78.2841H220.676C220.816 78.2847 220.954 78.2576 221.084 78.2043C221.213 78.1511 221.331 78.0727 221.43 77.9737C221.529 77.8747 221.607 77.757 221.661 77.6275C221.714 77.498 221.741 77.3593 221.74 77.2193V52.5068C220.248 53.167 218.634 53.5089 217.003 53.5106Z" fill="white"/>
<defs>
<linearGradient id="paint0_linear_30_180" x1="62.515" y1="104.435" x2="18.2553" y2="104.435" gradientUnits="userSpaceOnUse">
<stop stop-color="white" stop-opacity="0"/>
<stop offset="1" stop-color="white"/>
</linearGradient>
<linearGradient id="paint1_linear_30_180" x1="58.9323" y1="26.2583" x2="89.5182" y2="26.2583" gradientUnits="userSpaceOnUse">
<stop stop-color="#00DFB2" stop-opacity="0"/>
<stop offset="1" stop-color="#00DFB2"/>
</linearGradient>
<linearGradient id="paint2_linear_30_180" x1="58.3487" y1="88.0357" x2="33.2381" y2="88.0357" gradientUnits="userSpaceOnUse">
<stop stop-color="#00CAFF" stop-opacity="0"/>
<stop offset="1" stop-color="#00CAFF"/>
</linearGradient>
<linearGradient id="paint3_linear_30_180" x1="61.079" y1="42.6626" x2="73.4462" y2="42.6626" gradientUnits="userSpaceOnUse">
<stop stop-color="#E068FE" stop-opacity="0"/>
<stop offset="1" stop-color="#E068FE"/>
</linearGradient>
</defs>
</svg>
