<svg width="190" height="1051" viewBox="0 0 190 1051" fill="none" xmlns="http://www.w3.org/2000/svg">
<g clip-path="url(#clip0_762_7361)">
<rect opacity="0.1" width="230" height="17" transform="matrix(0.824126 -0.566406 0 1 0 10.2734)" fill="#FC981C"/>
<rect opacity="0.1" width="230" height="17" transform="matrix(0.824126 -0.566406 0 1 0 50.2734)" fill="#FC981C"/>
<rect opacity="0.1" width="230" height="17" transform="matrix(0.824126 -0.566406 0 1 0 90.2734)" fill="#FC981C"/>
<rect opacity="0.1" width="230" height="17" transform="matrix(0.824126 -0.566406 0 1 0 130.273)" fill="#FC981C"/>
<rect opacity="0.1" width="230" height="17" transform="matrix(0.824126 -0.566406 0 1 0 170.273)" fill="#FC981C"/>
<rect opacity="0.1" width="230" height="17" transform="matrix(0.824126 -0.566406 0 1 0 210.273)" fill="#FC981C"/>
<rect opacity="0.1" width="230" height="17" transform="matrix(0.824126 -0.566406 0 1 0 250.273)" fill="#FC981C"/>
<rect opacity="0.1" width="230" height="17" transform="matrix(0.824126 -0.566406 0 1 0 290.273)" fill="#FC981C"/>
<rect opacity="0.1" width="230" height="17" transform="matrix(0.824126 -0.566406 0 1 0 330.273)" fill="#FC981C"/>
<rect opacity="0.1" width="230" height="17" transform="matrix(0.824126 -0.566406 0 1 0 370.273)" fill="#FC981C"/>
<rect opacity="0.1" width="230" height="17" transform="matrix(0.824126 -0.566406 0 1 0 410.273)" fill="#FC981C"/>
<rect opacity="0.1" width="230" height="17" transform="matrix(0.824126 -0.566406 0 1 0 450.273)" fill="#FC981C"/>
<rect opacity="0.1" width="230" height="17" transform="matrix(0.824126 -0.566406 0 1 0 490.273)" fill="#FC981C"/>
<rect opacity="0.1" width="230" height="17" transform="matrix(0.824126 -0.566406 0 1 0 530.273)" fill="#FC981C"/>
<rect opacity="0.1" width="230" height="17" transform="matrix(0.824126 -0.566406 0 1 0 570.273)" fill="#FC981C"/>
<rect opacity="0.1" width="230" height="17" transform="matrix(0.824126 -0.566406 0 1 0 610.273)" fill="#FC981C"/>
<rect opacity="0.1" width="230" height="17" transform="matrix(0.824126 -0.566406 0 1 0 650.273)" fill="#FC981C"/>
<rect opacity="0.1" width="230" height="17" transform="matrix(0.824126 -0.566406 0 1 0 690.273)" fill="#FC981C"/>
<rect opacity="0.1" width="230" height="17" transform="matrix(0.824126 -0.566406 0 1 0 730.273)" fill="#FC981C"/>
<rect opacity="0.1" width="230" height="17" transform="matrix(0.824126 -0.566406 0 1 0 770.273)" fill="#FC981C"/>
<rect opacity="0.1" width="230" height="17" transform="matrix(0.824126 -0.566406 0 1 0 810.273)" fill="#FC981C"/>
<rect opacity="0.1" width="230" height="17" transform="matrix(0.824126 -0.566406 0 1 0 850.273)" fill="#FC981C"/>
<rect opacity="0.1" width="230" height="17" transform="matrix(0.824126 -0.566406 0 1 0 890.273)" fill="#FC981C"/>
<rect opacity="0.1" width="230" height="17" transform="matrix(0.824126 -0.566406 0 1 0 930.273)" fill="#FC981C"/>
<rect opacity="0.1" width="230" height="17" transform="matrix(0.824126 -0.566406 0 1 0 970.273)" fill="#FC981C"/>
<rect opacity="0.1" width="230" height="17" transform="matrix(0.824126 -0.566406 0 1 0 1010.27)" fill="#FC981C"/>
<rect opacity="0.1" width="230" height="17" transform="matrix(0.824126 -0.566406 0 1 0 1050.27)" fill="#FC981C"/>
<rect opacity="0.1" width="230" height="17" transform="matrix(0.824126 -0.566406 0 1 0 1090.27)" fill="#FC981C"/>
<rect opacity="0.1" width="230" height="17" transform="matrix(0.824126 -0.566406 0 1 0 1130.27)" fill="#FC981C"/>
<rect opacity="0.1" width="230" height="17" transform="matrix(0.824126 -0.566406 0 1 0 1170.27)" fill="#FC981C"/>
<line x1="94.5" y1="2.18557e-08" x2="94.4999" y2="2845" stroke="#FC981C"/>
</g>
<circle cx="94" cy="43" r="6.5" fill="#FC981C" stroke="#FC981C"/>
<circle cx="94" cy="775" r="6.5" fill="#FC981C" stroke="#FC981C"/>
<circle cx="94" cy="402" r="6.5" fill="#FC981C" stroke="#FC981C"/>
<defs>
<clipPath id="clip0_762_7361">
<rect width="190" height="1051" fill="white"/>
</clipPath>
</defs>
</svg>
