<svg width="467" height="110" viewBox="0 0 467 110" fill="none" xmlns="http://www.w3.org/2000/svg">
<g filter="url(#filter0_d_762_7360)">
<g filter="url(#filter1_d_762_7360)">
<path fill-rule="evenodd" clip-rule="evenodd" d="M22.3032 46.6873L11.1967 40.3645V53.01H4.00008V30.6221C3.99729 30.3592 4.06534 30.1005 4.19767 29.8725C4.33001 29.6444 4.52174 29.4554 4.75276 29.325C4.98377 29.1946 5.24546 29.1274 5.51151 29.1305C5.77756 29.1337 6.03821 29.207 6.26601 29.3429L25.8896 40.5121L22.3032 46.6873ZM29.6606 43.0602L49.1602 54.0675C49.3552 54.2093 49.5122 54.3951 49.6181 54.609C49.724 54.8229 49.7758 55.0585 49.7685 55.296C49.7613 55.5335 49.6952 55.7659 49.5764 55.9732C49.4576 56.1805 49.2893 56.3566 49.0859 56.4867L6.25161 80.6787C6.02216 80.8054 5.76297 80.8712 5.49946 80.8695C5.23594 80.8678 4.97744 80.7987 4.74973 80.669C4.52201 80.5393 4.33272 80.3537 4.20118 80.1305C4.06964 79.9073 4.00049 79.6541 4 79.3965V57.406H11.1511V69.8408L19.7872 55.3256H37.1089L26.0726 49.1082L29.6606 43.0602Z" fill="#FC981C"/>
</g>
<g filter="url(#filter2_d_762_7360)">
<path d="M102.62 67.18H88.2095L84.6895 74H74.8445L95.6345 35.39H106.525L113.675 74H103.72L102.62 67.18ZM101.52 60.03L99.2645 45.73L91.8945 60.03H101.52ZM131.731 48.865C133.161 47.0317 134.793 45.6017 136.626 44.575C138.496 43.5117 140.44 42.98 142.456 42.98L140.696 52.935H138.111C135.765 52.935 133.913 53.4483 132.556 54.475C131.2 55.465 130.301 57.225 129.861 59.755L127.331 74H117.926L123.316 43.31H132.721L131.731 48.865ZM155.257 48.865C156.687 47.0317 158.318 45.6017 160.152 44.575C162.022 43.5117 163.965 42.98 165.982 42.98L164.222 52.935H161.637C159.29 52.935 157.438 53.4483 156.082 54.475C154.725 55.465 153.827 57.225 153.387 59.755L150.857 74H141.452L146.842 43.31H156.247L155.257 48.865ZM165.857 58.6C166.407 55.4467 167.489 52.6783 169.102 50.295C170.715 47.9117 172.659 46.0783 174.932 44.795C177.205 43.5117 179.607 42.87 182.137 42.87C184.3 42.87 186.115 43.31 187.582 44.19C189.049 45.07 190.112 46.225 190.772 47.655L191.542 43.31H200.947L195.502 74H186.097L186.922 69.655C185.749 71.085 184.264 72.24 182.467 73.12C180.67 74 178.69 74.44 176.527 74.44C174.364 74.44 172.439 73.945 170.752 72.955C169.102 71.965 167.819 70.5717 166.902 68.775C165.985 66.9417 165.527 64.7967 165.527 62.34C165.527 61.1667 165.637 59.92 165.857 58.6ZM188.847 58.655C188.957 57.995 189.012 57.39 189.012 56.84C189.012 55.0433 188.48 53.6317 187.417 52.605C186.39 51.5783 185.07 51.065 183.457 51.065C181.587 51.065 179.882 51.7433 178.342 53.1C176.802 54.42 175.83 56.2533 175.427 58.6C175.317 59.26 175.262 59.865 175.262 60.415C175.262 62.2117 175.775 63.6417 176.802 64.705C177.865 65.7317 179.185 66.245 180.762 66.245C182.632 66.245 184.337 65.5667 185.877 64.21C187.417 62.8533 188.407 61.0017 188.847 58.655ZM226.451 42.98C229.531 42.98 231.951 43.8417 233.711 45.565C235.471 47.2883 236.351 49.69 236.351 52.77C236.351 53.7967 236.241 54.8967 236.021 56.07L232.831 74H223.481L226.451 57.335C226.561 56.7117 226.616 56.1617 226.616 55.685C226.616 54.145 226.176 52.9533 225.296 52.11C224.453 51.2667 223.261 50.845 221.721 50.845C219.888 50.845 218.348 51.4133 217.101 52.55C215.855 53.6867 215.048 55.2817 214.681 57.335V57.06L211.711 74H202.306L207.696 43.31H217.101L216.386 47.435C217.596 46.0783 219.063 44.9967 220.786 44.19C222.546 43.3833 224.435 42.98 226.451 42.98ZM256.527 42.87C258.69 42.87 260.523 43.31 262.027 44.19C263.53 45.07 264.575 46.225 265.162 47.655L265.932 43.31H275.337L269.947 73.945C269.433 76.7683 268.407 79.3167 266.867 81.59C265.363 83.9 263.328 85.7333 260.762 87.09C258.232 88.4467 255.28 89.125 251.907 89.125C247.36 89.125 243.858 88.0433 241.402 85.88C238.945 83.7533 237.845 80.8567 238.102 77.19H247.397C247.507 78.3633 248.038 79.28 248.992 79.94C249.982 80.6367 251.283 80.985 252.897 80.985C254.84 80.985 256.49 80.4167 257.847 79.28C259.203 78.18 260.102 76.4017 260.542 73.945L261.312 69.6C260.138 71.03 258.653 72.2033 256.857 73.12C255.097 74 253.135 74.44 250.972 74.44C248.808 74.44 246.883 73.945 245.197 72.955C243.547 71.965 242.245 70.5533 241.292 68.72C240.375 66.8867 239.917 64.7417 239.917 62.285C239.917 61.1483 240.027 59.92 240.247 58.6C240.797 55.4467 241.878 52.6783 243.492 50.295C245.105 47.9117 247.048 46.0783 249.322 44.795C251.595 43.5117 253.997 42.87 256.527 42.87ZM263.237 58.655C263.347 57.995 263.402 57.39 263.402 56.84C263.402 55.0433 262.87 53.6317 261.807 52.605C260.78 51.5783 259.46 51.065 257.847 51.065C255.977 51.065 254.272 51.7433 252.732 53.1C251.192 54.42 250.22 56.2533 249.817 58.6C249.707 59.26 249.652 59.865 249.652 60.415C249.652 62.2117 250.165 63.6417 251.192 64.705C252.255 65.7317 253.575 66.245 255.152 66.245C257.022 66.245 258.727 65.5667 260.267 64.21C261.807 62.8533 262.797 61.0017 263.237 58.655ZM295.836 42.87C299.796 42.87 302.931 43.9517 305.241 46.115C307.587 48.2417 308.761 51.1567 308.761 54.86C308.761 56.07 308.669 57.1517 308.486 58.105C308.339 58.9483 308.119 59.8467 307.826 60.8H286.541C286.504 61.02 286.486 61.3683 286.486 61.845C286.486 63.4583 286.926 64.6867 287.806 65.53C288.686 66.3733 289.859 66.795 291.326 66.795C293.672 66.795 295.469 65.805 296.716 63.825H306.726C305.406 66.9417 303.261 69.49 300.291 71.47C297.321 73.45 293.984 74.44 290.281 74.44C286.321 74.44 283.149 73.34 280.766 71.14C278.419 68.94 277.246 65.9517 277.246 62.175C277.246 61.0383 277.356 59.865 277.576 58.655C278.126 55.465 279.262 52.6783 280.986 50.295C282.709 47.9117 284.854 46.0783 287.421 44.795C289.987 43.5117 292.792 42.87 295.836 42.87ZM299.246 56.015C299.319 55.5017 299.356 55.1533 299.356 54.97C299.356 53.5033 298.897 52.385 297.981 51.615C297.064 50.8083 295.854 50.405 294.351 50.405C292.737 50.405 291.307 50.9 290.061 51.89C288.851 52.8433 287.971 54.2183 287.421 56.015H299.246ZM355.247 42.98C358.547 42.98 361.114 43.86 362.947 45.62C364.817 47.3433 365.752 49.7633 365.752 52.88C365.752 53.8333 365.642 54.8967 365.422 56.07L362.232 74H352.882L355.852 57.335C355.926 56.9683 355.962 56.4733 355.962 55.85C355.962 54.31 355.522 53.1367 354.642 52.33C353.799 51.5233 352.607 51.12 351.067 51.12C349.234 51.12 347.694 51.67 346.447 52.77C345.201 53.8333 344.412 55.355 344.082 57.335L341.112 74H331.762L334.732 57.335C334.806 56.9683 334.842 56.4733 334.842 55.85C334.842 54.31 334.402 53.1367 333.522 52.33C332.679 51.5233 331.487 51.12 329.947 51.12C328.114 51.12 326.574 51.67 325.327 52.77C324.081 53.8333 323.292 55.355 322.962 57.335V57.06L319.992 74H310.587L315.977 43.31H325.382L324.722 47.215C325.896 45.895 327.307 44.8683 328.957 44.135C330.644 43.365 332.459 42.98 334.402 42.98C336.749 42.98 338.729 43.475 340.342 44.465C341.992 45.455 343.166 46.885 343.862 48.755C345.219 47.0317 346.906 45.6383 348.922 44.575C350.939 43.5117 353.047 42.98 355.247 42.98ZM387.95 42.87C391.91 42.87 395.045 43.9517 397.355 46.115C399.702 48.2417 400.875 51.1567 400.875 54.86C400.875 56.07 400.783 57.1517 400.6 58.105C400.453 58.9483 400.233 59.8467 399.94 60.8H378.655C378.618 61.02 378.6 61.3683 378.6 61.845C378.6 63.4583 379.04 64.6867 379.92 65.53C380.8 66.3733 381.973 66.795 383.44 66.795C385.787 66.795 387.583 65.805 388.83 63.825H398.84C397.52 66.9417 395.375 69.49 392.405 71.47C389.435 73.45 386.098 74.44 382.395 74.44C378.435 74.44 375.263 73.34 372.88 71.14C370.533 68.94 369.36 65.9517 369.36 62.175C369.36 61.0383 369.47 59.865 369.69 58.655C370.24 55.465 371.377 52.6783 373.1 50.295C374.823 47.9117 376.968 46.0783 379.535 44.795C382.102 43.5117 384.907 42.87 387.95 42.87ZM391.36 56.015C391.433 55.5017 391.47 55.1533 391.47 54.97C391.47 53.5033 391.012 52.385 390.095 51.615C389.178 50.8083 387.968 50.405 386.465 50.405C384.852 50.405 383.422 50.9 382.175 51.89C380.965 52.8433 380.085 54.2183 379.535 56.015H391.36ZM426.847 42.98C429.927 42.98 432.347 43.8417 434.107 45.565C435.867 47.2883 436.747 49.69 436.747 52.77C436.747 53.7967 436.637 54.8967 436.417 56.07L433.227 74H423.877L426.847 57.335C426.957 56.7117 427.012 56.1617 427.012 55.685C427.012 54.145 426.572 52.9533 425.692 52.11C424.848 51.2667 423.657 50.845 422.117 50.845C420.283 50.845 418.743 51.4133 417.497 52.55C416.25 53.6867 415.443 55.2817 415.077 57.335V57.06L412.107 74H402.702L408.092 43.31H417.497L416.782 47.435C417.992 46.0783 419.458 44.9967 421.182 44.19C422.942 43.3833 424.83 42.98 426.847 42.98ZM452.522 63.44C452.486 63.6233 452.467 63.8617 452.467 64.155C452.467 64.815 452.651 65.2917 453.017 65.585C453.421 65.8783 454.062 66.025 454.942 66.025H458.297L456.867 74H452.082C445.922 74 442.842 71.415 442.842 66.245C442.842 65.475 442.934 64.5033 443.117 63.33L445.317 51.12H441.577L442.952 43.31H446.692L448.012 35.83H457.417L456.097 43.31H462.257L460.882 51.12H454.722L452.522 63.44Z" fill="#FC981C"/>
</g>
</g>
<defs>
<filter id="filter0_d_762_7360" x="0" y="0" width="466.257" height="118" filterUnits="userSpaceOnUse" color-interpolation-filters="sRGB">
<feFlood flood-opacity="0" result="BackgroundImageFix"/>
<feColorMatrix in="SourceAlpha" type="matrix" values="0 0 0 0 0 0 0 0 0 0 0 0 0 0 0 0 0 0 127 0" result="hardAlpha"/>
<feOffset dy="4"/>
<feGaussianBlur stdDeviation="2"/>
<feComposite in2="hardAlpha" operator="out"/>
<feColorMatrix type="matrix" values="0 0 0 0 0 0 0 0 0 0 0 0 0 0 0 0 0 0 0.25 0"/>
<feBlend mode="normal" in2="BackgroundImageFix" result="effect1_dropShadow_762_7360"/>
<feBlend mode="normal" in="SourceGraphic" in2="effect1_dropShadow_762_7360" result="shape"/>
</filter>
<filter id="filter1_d_762_7360" x="0" y="29.1304" width="53.7695" height="59.7391" filterUnits="userSpaceOnUse" color-interpolation-filters="sRGB">
<feFlood flood-opacity="0" result="BackgroundImageFix"/>
<feColorMatrix in="SourceAlpha" type="matrix" values="0 0 0 0 0 0 0 0 0 0 0 0 0 0 0 0 0 0 127 0" result="hardAlpha"/>
<feOffset dy="4"/>
<feGaussianBlur stdDeviation="2"/>
<feComposite in2="hardAlpha" operator="out"/>
<feColorMatrix type="matrix" values="0 0 0 0 0 0 0 0 0 0 0 0 0 0 0 0 0 0 0 0"/>
<feBlend mode="normal" in2="BackgroundImageFix" result="effect1_dropShadow_762_7360"/>
<feBlend mode="normal" in="SourceGraphic" in2="effect1_dropShadow_762_7360" result="shape"/>
</filter>
<filter id="filter2_d_762_7360" x="70.8447" y="35.39" width="395.412" height="61.735" filterUnits="userSpaceOnUse" color-interpolation-filters="sRGB">
<feFlood flood-opacity="0" result="BackgroundImageFix"/>
<feColorMatrix in="SourceAlpha" type="matrix" values="0 0 0 0 0 0 0 0 0 0 0 0 0 0 0 0 0 0 127 0" result="hardAlpha"/>
<feOffset dy="4"/>
<feGaussianBlur stdDeviation="2"/>
<feComposite in2="hardAlpha" operator="out"/>
<feColorMatrix type="matrix" values="0 0 0 0 0 0 0 0 0 0 0 0 0 0 0 0 0 0 0 0"/>
<feBlend mode="normal" in2="BackgroundImageFix" result="effect1_dropShadow_762_7360"/>
<feBlend mode="normal" in="SourceGraphic" in2="effect1_dropShadow_762_7360" result="shape"/>
</filter>
</defs>
</svg>
