<svg width="24" height="24" viewBox="0 0 24 24" fill="none" xmlns="http://www.w3.org/2000/svg">
    <path
        d="M13.7958 22.3925L12.6066 23.6125C12.1031 24.1291 11.2889 24.1291 10.7908 23.6125L0.377635 12.9343C-0.12588 12.4177 -0.12588 11.5823 0.377635 11.0712L10.7908 0.387452C11.2943 -0.12915 12.1085 -0.12915 12.6066 0.387452L13.7958 1.60751C14.3047 2.12961 14.2939 2.98145 13.7744 3.49256L7.31972 9.80169L22.7144 9.80169C23.4269 9.80169 24 10.3897 24 11.1207L24 12.8793C24 13.6103 23.4269 14.1983 22.7144 14.1983L7.31972 14.1983L13.7744 20.5074C14.2993 21.0185 14.31 21.8704 13.7958 22.3925Z"
        fill="#FC981C" />
</svg>