<svg width="254" height="110" viewBox="0 0 254 110" fill="none" xmlns="http://www.w3.org/2000/svg">
<g filter="url(#filter0_d_146_230)">
<g filter="url(#filter1_d_146_230)">
<path fill-rule="evenodd" clip-rule="evenodd" d="M22.3032 46.6873L11.1967 40.3646V53.0101H4.00008V30.6221C3.99729 30.3593 4.06534 30.1006 4.19767 29.8725C4.33001 29.6445 4.52174 29.4555 4.75276 29.3251C4.98377 29.1946 5.24546 29.1275 5.51151 29.1306C5.77756 29.1337 6.03821 29.2071 6.26601 29.3429L25.8896 40.5122L22.3032 46.6873ZM29.6606 43.0603L49.1602 54.0676C49.3552 54.2094 49.5122 54.3952 49.6181 54.609C49.724 54.8229 49.7758 55.0586 49.7685 55.2961C49.7613 55.5336 49.6952 55.7659 49.5764 55.9732C49.4576 56.1805 49.2893 56.3567 49.0859 56.4868L6.25161 80.6788C6.02216 80.8055 5.76297 80.8713 5.49946 80.8696C5.23594 80.8679 4.97744 80.7987 4.74973 80.6691C4.52201 80.5394 4.33272 80.3538 4.20118 80.1306C4.06964 79.9073 4.00049 79.6542 4 79.3966V57.4061H11.1511V69.8408L19.7872 55.3256H37.1089L26.0726 49.1083L29.6606 43.0603Z" fill="#FC981C"/>
</g>
<g filter="url(#filter2_d_146_230)">
<path d="M112.354 45.4C111.951 47.6733 111.016 49.5617 109.549 51.065C108.083 52.5683 106.323 53.6133 104.269 54.2C106.103 54.6033 107.551 55.5017 108.614 56.895C109.678 58.2883 110.209 59.92 110.209 61.79C110.209 62.3767 110.154 62.945 110.044 63.495C109.494 66.7217 107.918 69.2883 105.314 71.195C102.711 73.065 99.3926 74 95.3592 74H77.3742L84.1942 35.39H101.574C105.058 35.39 107.753 36.105 109.659 37.535C111.566 38.965 112.519 40.945 112.519 43.475C112.519 44.0983 112.464 44.74 112.354 45.4ZM96.9542 51.065C98.5309 51.065 99.7959 50.7167 100.749 50.02C101.703 49.3233 102.289 48.315 102.509 46.995C102.546 46.775 102.564 46.4817 102.564 46.115C102.564 45.0517 102.216 44.245 101.519 43.695C100.823 43.1083 99.7959 42.815 98.4392 42.815H92.2792L90.8492 51.065H96.9542ZM100.694 62.23C100.768 61.79 100.804 61.46 100.804 61.24C100.804 60.1767 100.419 59.3517 99.6492 58.765C98.8792 58.1417 97.8159 57.83 96.4592 57.83H89.6392L88.0992 66.52H95.0292C96.6426 66.52 97.9259 66.1533 98.8792 65.42C99.8326 64.6867 100.438 63.6233 100.694 62.23ZM127.434 48.865C128.864 47.0317 130.496 45.6017 132.329 44.575C134.199 43.5117 136.142 42.98 138.159 42.98L136.399 52.935H133.814C131.467 52.935 129.616 53.4483 128.259 54.475C126.902 55.465 126.004 57.225 125.564 59.755L123.034 74H113.629L119.019 43.31H128.424L127.434 48.865ZM138.034 58.6C138.584 55.4467 139.666 52.6783 141.279 50.295C142.893 47.9117 144.836 46.0783 147.109 44.795C149.383 43.5117 151.785 42.87 154.315 42.87C156.478 42.87 158.293 43.31 159.76 44.19C161.226 45.07 162.29 46.225 162.95 47.655L163.72 43.31H173.125L167.68 74H158.275L159.1 69.655C157.926 71.085 156.441 72.24 154.645 73.12C152.848 74 150.868 74.44 148.705 74.44C146.541 74.44 144.616 73.945 142.929 72.955C141.279 71.965 139.996 70.5717 139.079 68.775C138.163 66.9417 137.704 64.7967 137.704 62.34C137.704 61.1667 137.814 59.92 138.034 58.6ZM161.025 58.655C161.135 57.995 161.19 57.39 161.19 56.84C161.19 55.0433 160.658 53.6317 159.595 52.605C158.568 51.5783 157.248 51.065 155.634 51.065C153.764 51.065 152.059 51.7433 150.519 53.1C148.98 54.42 148.008 56.2533 147.604 58.6C147.495 59.26 147.44 59.865 147.44 60.415C147.44 62.2117 147.953 63.6417 148.98 64.705C150.043 65.7317 151.363 66.245 152.939 66.245C154.809 66.245 156.515 65.5667 158.055 64.21C159.595 62.8533 160.585 61.0017 161.025 58.655ZM198.629 42.98C201.709 42.98 204.129 43.8417 205.889 45.565C207.649 47.2883 208.529 49.69 208.529 52.77C208.529 53.7967 208.419 54.8967 208.199 56.07L205.009 74H195.659L198.629 57.335C198.739 56.7117 198.794 56.1617 198.794 55.685C198.794 54.145 198.354 52.9533 197.474 52.11C196.63 51.2667 195.439 50.845 193.899 50.845C192.065 50.845 190.525 51.4133 189.279 52.55C188.032 53.6867 187.225 55.2817 186.859 57.335V57.06L183.889 74H174.484L179.874 43.31H189.279L188.564 47.435C189.774 46.0783 191.24 44.9967 192.964 44.19C194.724 43.3833 196.612 42.98 198.629 42.98ZM212.424 58.6C212.974 55.4467 214.056 52.6783 215.669 50.295C217.282 47.9117 219.226 46.0783 221.499 44.795C223.772 43.5117 226.174 42.87 228.704 42.87C230.721 42.87 232.481 43.2917 233.984 44.135C235.524 44.9783 236.642 46.115 237.339 47.545L239.869 33.3H249.274L242.069 74H232.664L233.434 69.6C232.261 71.0667 230.794 72.24 229.034 73.12C227.274 74 225.312 74.44 223.149 74.44C220.986 74.44 219.061 73.945 217.374 72.955C215.724 71.965 214.422 70.5533 213.469 68.72C212.552 66.8867 212.094 64.7417 212.094 62.285C212.094 61.1483 212.204 59.92 212.424 58.6ZM235.414 58.655C235.524 57.995 235.579 57.39 235.579 56.84C235.579 55.0433 235.047 53.6317 233.984 52.605C232.957 51.5783 231.637 51.065 230.024 51.065C228.154 51.065 226.449 51.7433 224.909 53.1C223.369 54.42 222.397 56.2533 221.994 58.6C221.884 59.26 221.829 59.865 221.829 60.415C221.829 62.2117 222.342 63.6417 223.369 64.705C224.432 65.7317 225.752 66.245 227.329 66.245C229.199 66.245 230.904 65.5667 232.444 64.21C233.984 62.8533 234.974 61.0017 235.414 58.655Z" fill="#FC981C"/>
</g>
</g>
<defs>
<filter id="filter0_d_146_230" x="0" y="0" width="253.274" height="118" filterUnits="userSpaceOnUse" color-interpolation-filters="sRGB">
<feFlood flood-opacity="0" result="BackgroundImageFix"/>
<feColorMatrix in="SourceAlpha" type="matrix" values="0 0 0 0 0 0 0 0 0 0 0 0 0 0 0 0 0 0 127 0" result="hardAlpha"/>
<feOffset dy="4"/>
<feGaussianBlur stdDeviation="2"/>
<feComposite in2="hardAlpha" operator="out"/>
<feColorMatrix type="matrix" values="0 0 0 0 0 0 0 0 0 0 0 0 0 0 0 0 0 0 0.25 0"/>
<feBlend mode="normal" in2="BackgroundImageFix" result="effect1_dropShadow_146_230"/>
<feBlend mode="normal" in="SourceGraphic" in2="effect1_dropShadow_146_230" result="shape"/>
</filter>
<filter id="filter1_d_146_230" x="0" y="29.1305" width="53.7692" height="59.7391" filterUnits="userSpaceOnUse" color-interpolation-filters="sRGB">
<feFlood flood-opacity="0" result="BackgroundImageFix"/>
<feColorMatrix in="SourceAlpha" type="matrix" values="0 0 0 0 0 0 0 0 0 0 0 0 0 0 0 0 0 0 127 0" result="hardAlpha"/>
<feOffset dy="4"/>
<feGaussianBlur stdDeviation="2"/>
<feComposite in2="hardAlpha" operator="out"/>
<feColorMatrix type="matrix" values="0 0 0 0 0 0 0 0 0 0 0 0 0 0 0 0 0 0 0 0"/>
<feBlend mode="normal" in2="BackgroundImageFix" result="effect1_dropShadow_146_230"/>
<feBlend mode="normal" in="SourceGraphic" in2="effect1_dropShadow_146_230" result="shape"/>
</filter>
<filter id="filter2_d_146_230" x="73.3742" y="33.3" width="179.9" height="49.1399" filterUnits="userSpaceOnUse" color-interpolation-filters="sRGB">
<feFlood flood-opacity="0" result="BackgroundImageFix"/>
<feColorMatrix in="SourceAlpha" type="matrix" values="0 0 0 0 0 0 0 0 0 0 0 0 0 0 0 0 0 0 127 0" result="hardAlpha"/>
<feOffset dy="4"/>
<feGaussianBlur stdDeviation="2"/>
<feComposite in2="hardAlpha" operator="out"/>
<feColorMatrix type="matrix" values="0 0 0 0 0 0 0 0 0 0 0 0 0 0 0 0 0 0 0 0"/>
<feBlend mode="normal" in2="BackgroundImageFix" result="effect1_dropShadow_146_230"/>
<feBlend mode="normal" in="SourceGraphic" in2="effect1_dropShadow_146_230" result="shape"/>
</filter>
</defs>
</svg>
