<svg width="311" height="110" viewBox="0 0 311 110" fill="none" xmlns="http://www.w3.org/2000/svg">
<g filter="url(#filter0_d_762_6095)">
<g filter="url(#filter1_d_762_6095)">
<path fill-rule="evenodd" clip-rule="evenodd" d="M22.3032 46.6873L11.1967 40.3645V53.01H4.00008V30.6221C3.99729 30.3592 4.06534 30.1005 4.19767 29.8725C4.33001 29.6444 4.52174 29.4554 4.75276 29.325C4.98377 29.1946 5.24546 29.1274 5.51151 29.1305C5.77756 29.1337 6.03821 29.207 6.26601 29.3429L25.8896 40.5121L22.3032 46.6873ZM29.6606 43.0602L49.1602 54.0675C49.3552 54.2093 49.5122 54.3951 49.6181 54.609C49.724 54.8229 49.7758 55.0585 49.7685 55.296C49.7613 55.5335 49.6952 55.7659 49.5764 55.9732C49.4576 56.1805 49.2893 56.3566 49.0859 56.4867L6.25161 80.6787C6.02216 80.8054 5.76297 80.8712 5.49946 80.8695C5.23594 80.8678 4.97744 80.7987 4.74973 80.669C4.52201 80.5393 4.33272 80.3537 4.20118 80.1305C4.06964 79.9073 4.00049 79.6541 4 79.3965V57.406H11.1511V69.8408L19.7872 55.3256H37.1089L26.0726 49.1082L29.6606 43.0602Z" fill="#FC981C"/>
</g>
<g filter="url(#filter2_d_762_6095)">
<path d="M79.244 54.64C79.904 50.8267 81.3157 47.435 83.479 44.465C85.679 41.4583 88.3924 39.13 91.619 37.48C94.8457 35.7933 98.329 34.95 102.069 34.95C106.652 34.95 110.356 36.16 113.179 38.58C116.039 41 117.652 44.3 118.019 48.48H107.679C107.202 46.9033 106.322 45.7117 105.039 44.905C103.792 44.0617 102.252 43.64 100.419 43.64C97.5224 43.64 95.0107 44.6483 92.884 46.665C90.7574 48.645 89.4007 51.3033 88.814 54.64C88.6307 55.6667 88.539 56.565 88.539 57.335C88.539 59.9017 89.254 61.9367 90.684 63.44C92.114 64.9433 94.0757 65.695 96.569 65.695C98.3657 65.695 100.034 65.2733 101.574 64.43C103.151 63.5867 104.471 62.3767 105.534 60.8H115.874C114.041 64.98 111.272 68.28 107.569 70.7C103.866 73.0833 99.7224 74.275 95.139 74.275C91.839 74.275 88.9607 73.6333 86.504 72.35C84.0474 71.0667 82.159 69.2517 80.839 66.905C79.519 64.5583 78.859 61.8267 78.859 58.71C78.859 57.3167 78.9874 55.96 79.244 54.64ZM133.294 74.44C130.654 74.44 128.307 73.9083 126.254 72.845C124.2 71.7817 122.605 70.2783 121.469 68.335C120.369 66.3917 119.819 64.1367 119.819 61.57C119.819 58.0867 120.644 54.915 122.294 52.055C123.944 49.195 126.217 46.9583 129.114 45.345C132.01 43.695 135.237 42.87 138.794 42.87C141.434 42.87 143.78 43.42 145.834 44.52C147.924 45.5833 149.537 47.0867 150.674 49.03C151.81 50.9733 152.379 53.2283 152.379 55.795C152.379 59.315 151.535 62.505 149.849 65.365C148.199 68.1883 145.907 70.4067 142.974 72.02C140.077 73.6333 136.85 74.44 133.294 74.44ZM134.614 66.355C136.154 66.355 137.529 65.8967 138.739 64.98C139.985 64.0267 140.939 62.8167 141.599 61.35C142.295 59.8467 142.644 58.2883 142.644 56.675C142.644 54.8417 142.149 53.43 141.159 52.44C140.169 51.45 138.922 50.955 137.419 50.955C135.842 50.955 134.449 51.4317 133.239 52.385C132.065 53.3017 131.149 54.5117 130.489 56.015C129.829 57.5183 129.499 59.095 129.499 60.745C129.499 62.5417 129.975 63.935 130.929 64.925C131.882 65.8783 133.11 66.355 134.614 66.355ZM178.433 42.98C181.513 42.98 183.933 43.8417 185.693 45.565C187.453 47.2883 188.333 49.69 188.333 52.77C188.333 53.7967 188.223 54.8967 188.003 56.07L184.813 74H175.463L178.433 57.335C178.543 56.7117 178.598 56.1617 178.598 55.685C178.598 54.145 178.158 52.9533 177.278 52.11C176.435 51.2667 175.243 50.845 173.703 50.845C171.87 50.845 170.33 51.4133 169.083 52.55C167.836 53.6867 167.03 55.2817 166.663 57.335V57.06L163.693 74H154.288L159.678 43.31H169.083L168.368 47.435C169.578 46.0783 171.045 44.9967 172.768 44.19C174.528 43.3833 176.416 42.98 178.433 42.98ZM204.109 63.44C204.072 63.6233 204.054 63.8617 204.054 64.155C204.054 64.815 204.237 65.2917 204.604 65.585C205.007 65.8783 205.649 66.025 206.529 66.025H209.884L208.454 74H203.669C197.509 74 194.429 71.415 194.429 66.245C194.429 65.475 194.52 64.5033 194.704 63.33L196.904 51.12H193.164L194.539 43.31H198.279L199.599 35.83H209.004L207.684 43.31H213.844L212.469 51.12H206.309L204.109 63.44ZM214.572 58.6C215.122 55.4467 216.204 52.6783 217.817 50.295C219.431 47.9117 221.374 46.0783 223.647 44.795C225.921 43.5117 228.322 42.87 230.852 42.87C233.016 42.87 234.831 43.31 236.297 44.19C237.764 45.07 238.827 46.225 239.487 47.655L240.257 43.31H249.662L244.217 74H234.812L235.637 69.655C234.464 71.085 232.979 72.24 231.182 73.12C229.386 74 227.406 74.44 225.242 74.44C223.079 74.44 221.154 73.945 219.467 72.955C217.817 71.965 216.534 70.5717 215.617 68.775C214.701 66.9417 214.242 64.7967 214.242 62.34C214.242 61.1667 214.352 59.92 214.572 58.6ZM237.562 58.655C237.672 57.995 237.727 57.39 237.727 56.84C237.727 55.0433 237.196 53.6317 236.132 52.605C235.106 51.5783 233.786 51.065 232.172 51.065C230.302 51.065 228.597 51.7433 227.057 53.1C225.517 54.42 224.546 56.2533 224.142 58.6C224.032 59.26 223.977 59.865 223.977 60.415C223.977 62.2117 224.491 63.6417 225.517 64.705C226.581 65.7317 227.901 66.245 229.477 66.245C231.347 66.245 233.052 65.5667 234.592 64.21C236.132 62.8533 237.122 61.0017 237.562 58.655ZM251.902 58.655C252.452 55.465 253.588 52.6783 255.312 50.295C257.035 47.9117 259.162 46.0783 261.692 44.795C264.258 43.5117 267.045 42.87 270.052 42.87C273.902 42.87 276.945 43.8783 279.182 45.895C281.418 47.9117 282.61 50.7533 282.757 54.42H272.747C272.343 52.0733 270.913 50.9 268.457 50.9C266.733 50.9 265.248 51.5783 264.002 52.935C262.755 54.255 261.912 56.1617 261.472 58.655C261.325 59.425 261.252 60.2317 261.252 61.075C261.252 62.7983 261.655 64.1183 262.462 65.035C263.268 65.9517 264.368 66.41 265.762 66.41C268.182 66.41 269.997 65.2367 271.207 62.89H281.272C279.842 66.4833 277.642 69.3067 274.672 71.36C271.702 73.4133 268.31 74.44 264.497 74.44C260.537 74.44 257.383 73.3583 255.037 71.195C252.727 68.995 251.572 66.0067 251.572 62.23C251.572 61.0933 251.682 59.9017 251.902 58.655ZM297.082 63.44C297.046 63.6233 297.027 63.8617 297.027 64.155C297.027 64.815 297.211 65.2917 297.577 65.585C297.981 65.8783 298.622 66.025 299.502 66.025H302.857L301.427 74H296.642C290.482 74 287.402 71.415 287.402 66.245C287.402 65.475 287.494 64.5033 287.677 63.33L289.877 51.12H286.137L287.512 43.31H291.252L292.572 35.83H301.977L300.657 43.31H306.817L305.442 51.12H299.282L297.082 63.44Z" fill="#FC981C"/>
</g>
</g>
<defs>
<filter id="filter0_d_762_6095" x="0" y="0" width="310.817" height="118" filterUnits="userSpaceOnUse" color-interpolation-filters="sRGB">
<feFlood flood-opacity="0" result="BackgroundImageFix"/>
<feColorMatrix in="SourceAlpha" type="matrix" values="0 0 0 0 0 0 0 0 0 0 0 0 0 0 0 0 0 0 127 0" result="hardAlpha"/>
<feOffset dy="4"/>
<feGaussianBlur stdDeviation="2"/>
<feComposite in2="hardAlpha" operator="out"/>
<feColorMatrix type="matrix" values="0 0 0 0 0 0 0 0 0 0 0 0 0 0 0 0 0 0 0.25 0"/>
<feBlend mode="normal" in2="BackgroundImageFix" result="effect1_dropShadow_762_6095"/>
<feBlend mode="normal" in="SourceGraphic" in2="effect1_dropShadow_762_6095" result="shape"/>
</filter>
<filter id="filter1_d_762_6095" x="0" y="29.1304" width="53.769" height="59.7391" filterUnits="userSpaceOnUse" color-interpolation-filters="sRGB">
<feFlood flood-opacity="0" result="BackgroundImageFix"/>
<feColorMatrix in="SourceAlpha" type="matrix" values="0 0 0 0 0 0 0 0 0 0 0 0 0 0 0 0 0 0 127 0" result="hardAlpha"/>
<feOffset dy="4"/>
<feGaussianBlur stdDeviation="2"/>
<feComposite in2="hardAlpha" operator="out"/>
<feColorMatrix type="matrix" values="0 0 0 0 0 0 0 0 0 0 0 0 0 0 0 0 0 0 0 0"/>
<feBlend mode="normal" in2="BackgroundImageFix" result="effect1_dropShadow_762_6095"/>
<feBlend mode="normal" in="SourceGraphic" in2="effect1_dropShadow_762_6095" result="shape"/>
</filter>
<filter id="filter2_d_762_6095" x="74.8589" y="34.95" width="235.958" height="47.49" filterUnits="userSpaceOnUse" color-interpolation-filters="sRGB">
<feFlood flood-opacity="0" result="BackgroundImageFix"/>
<feColorMatrix in="SourceAlpha" type="matrix" values="0 0 0 0 0 0 0 0 0 0 0 0 0 0 0 0 0 0 127 0" result="hardAlpha"/>
<feOffset dy="4"/>
<feGaussianBlur stdDeviation="2"/>
<feComposite in2="hardAlpha" operator="out"/>
<feColorMatrix type="matrix" values="0 0 0 0 0 0 0 0 0 0 0 0 0 0 0 0 0 0 0 0"/>
<feBlend mode="normal" in2="BackgroundImageFix" result="effect1_dropShadow_762_6095"/>
<feBlend mode="normal" in="SourceGraphic" in2="effect1_dropShadow_762_6095" result="shape"/>
</filter>
</defs>
</svg>
