<svg width="267" height="110" viewBox="0 0 267 110" fill="none" xmlns="http://www.w3.org/2000/svg">
<g filter="url(#filter0_d_762_6444)">
<g filter="url(#filter1_d_762_6444)">
<path fill-rule="evenodd" clip-rule="evenodd" d="M22.3032 46.6873L11.1967 40.3645V53.01H4.00008V30.6221C3.99729 30.3592 4.06534 30.1005 4.19767 29.8725C4.33001 29.6444 4.52174 29.4554 4.75276 29.325C4.98377 29.1946 5.24546 29.1274 5.51151 29.1305C5.77756 29.1337 6.03821 29.207 6.26601 29.3429L25.8896 40.5121L22.3032 46.6873ZM29.6606 43.0602L49.1602 54.0675C49.3552 54.2093 49.5122 54.3951 49.6181 54.609C49.724 54.8229 49.7758 55.0585 49.7685 55.296C49.7613 55.5335 49.6952 55.7659 49.5764 55.9732C49.4576 56.1805 49.2893 56.3566 49.0859 56.4867L6.25161 80.6787C6.02216 80.8054 5.76297 80.8712 5.49946 80.8695C5.23594 80.8678 4.97744 80.7987 4.74973 80.669C4.52201 80.5393 4.33272 80.3537 4.20118 80.1305C4.06964 79.9073 4.00049 79.6541 4 79.3965V57.406H11.1511V69.8408L19.7872 55.3256H37.1089L26.0726 49.1082L29.6606 43.0602Z" fill="#FC981C"/>
</g>
<g filter="url(#filter2_d_762_6444)">
<path d="M92.2793 42.815L90.9043 50.845H103.499L102.234 57.94H89.6393L88.0993 66.575H102.344L101.024 74H77.3743L84.1943 35.39H107.844L106.524 42.815H92.2793ZM122.475 65.2L133.035 43.31H143.1L126.765 74H115.105L109.66 43.31H119.67L122.475 65.2ZM160.699 42.87C164.659 42.87 167.794 43.9517 170.104 46.115C172.451 48.2417 173.624 51.1567 173.624 54.86C173.624 56.07 173.532 57.1517 173.349 58.105C173.202 58.9483 172.982 59.8467 172.689 60.8H151.404C151.367 61.02 151.349 61.3683 151.349 61.845C151.349 63.4583 151.789 64.6867 152.669 65.53C153.549 66.3733 154.722 66.795 156.189 66.795C158.536 66.795 160.332 65.805 161.579 63.825H171.589C170.269 66.9417 168.124 69.49 165.154 71.47C162.184 73.45 158.847 74.44 155.144 74.44C151.184 74.44 148.012 73.34 145.629 71.14C143.282 68.94 142.109 65.9517 142.109 62.175C142.109 61.0383 142.219 59.865 142.439 58.655C142.989 55.465 144.126 52.6783 145.849 50.295C147.572 47.9117 149.717 46.0783 152.284 44.795C154.851 43.5117 157.656 42.87 160.699 42.87ZM164.109 56.015C164.182 55.5017 164.219 55.1533 164.219 54.97C164.219 53.5033 163.761 52.385 162.844 51.615C161.927 50.8083 160.717 50.405 159.214 50.405C157.601 50.405 156.171 50.9 154.924 51.89C153.714 52.8433 152.834 54.2183 152.284 56.015H164.109ZM199.595 42.98C202.675 42.98 205.095 43.8417 206.855 45.565C208.615 47.2883 209.495 49.69 209.495 52.77C209.495 53.7967 209.385 54.8967 209.165 56.07L205.975 74H196.625L199.595 57.335C199.705 56.7117 199.76 56.1617 199.76 55.685C199.76 54.145 199.32 52.9533 198.44 52.11C197.597 51.2667 196.405 50.845 194.865 50.845C193.032 50.845 191.492 51.4133 190.245 52.55C188.999 53.6867 188.192 55.2817 187.825 57.335V57.06L184.855 74H175.45L180.84 43.31H190.245L189.53 47.435C190.74 46.0783 192.207 44.9967 193.93 44.19C195.69 43.3833 197.579 42.98 199.595 42.98ZM225.271 63.44C225.234 63.6233 225.216 63.8617 225.216 64.155C225.216 64.815 225.399 65.2917 225.766 65.585C226.169 65.8783 226.811 66.025 227.691 66.025H231.046L229.616 74H224.831C218.671 74 215.591 71.415 215.591 66.245C215.591 65.475 215.683 64.5033 215.866 63.33L218.066 51.12H214.326L215.701 43.31H219.441L220.761 35.83H230.166L228.846 43.31H235.006L233.631 51.12H227.471L225.271 63.44ZM247.615 74.44C245.195 74.44 243.013 74.055 241.07 73.285C239.163 72.515 237.66 71.4517 236.56 70.095C235.46 68.7017 234.91 67.1067 234.91 65.31C234.91 65.0533 234.946 64.595 235.02 63.935H244.095C244.021 65.0717 244.351 65.9883 245.085 66.685C245.855 67.345 246.936 67.675 248.33 67.675C249.503 67.675 250.475 67.455 251.245 67.015C252.015 66.575 252.4 65.9517 252.4 65.145C252.4 64.375 251.978 63.77 251.135 63.33C250.328 62.8533 248.971 62.285 247.065 61.625C245.085 60.965 243.416 60.3233 242.06 59.7C240.74 59.04 239.603 58.105 238.65 56.895C237.696 55.685 237.22 54.1633 237.22 52.33C237.22 50.5333 237.751 48.92 238.815 47.49C239.878 46.0233 241.363 44.8867 243.27 44.08C245.213 43.2733 247.45 42.87 249.98 42.87C252.51 42.87 254.71 43.2917 256.58 44.135C258.45 44.9417 259.898 46.0783 260.925 47.545C261.951 49.0117 262.465 50.6617 262.465 52.495L262.41 53.32H253.885C253.958 52.22 253.628 51.34 252.895 50.68C252.161 50.02 251.116 49.69 249.76 49.69C248.696 49.69 247.816 49.91 247.12 50.35C246.46 50.79 246.13 51.395 246.13 52.165C246.13 52.9717 246.57 53.65 247.45 54.2C248.366 54.7133 249.778 55.3 251.685 55.96C253.665 56.62 255.296 57.28 256.58 57.94C257.9 58.5633 259.018 59.4617 259.935 60.635C260.888 61.7717 261.365 63.2017 261.365 64.925C261.365 66.905 260.76 68.61 259.55 70.04C258.376 71.47 256.745 72.57 254.655 73.34C252.601 74.0733 250.255 74.44 247.615 74.44Z" fill="#FC981C"/>
</g>
</g>
<defs>
<filter id="filter0_d_762_6444" x="0" y="0" width="269.769" height="118" filterUnits="userSpaceOnUse" color-interpolation-filters="sRGB">
<feFlood flood-opacity="0" result="BackgroundImageFix"/>
<feColorMatrix in="SourceAlpha" type="matrix" values="0 0 0 0 0 0 0 0 0 0 0 0 0 0 0 0 0 0 127 0" result="hardAlpha"/>
<feOffset dy="4"/>
<feGaussianBlur stdDeviation="2"/>
<feComposite in2="hardAlpha" operator="out"/>
<feColorMatrix type="matrix" values="0 0 0 0 0 0 0 0 0 0 0 0 0 0 0 0 0 0 0.25 0"/>
<feBlend mode="normal" in2="BackgroundImageFix" result="effect1_dropShadow_762_6444"/>
<feBlend mode="normal" in="SourceGraphic" in2="effect1_dropShadow_762_6444" result="shape"/>
</filter>
<filter id="filter1_d_762_6444" x="0" y="29.1304" width="53.7693" height="59.7391" filterUnits="userSpaceOnUse" color-interpolation-filters="sRGB">
<feFlood flood-opacity="0" result="BackgroundImageFix"/>
<feColorMatrix in="SourceAlpha" type="matrix" values="0 0 0 0 0 0 0 0 0 0 0 0 0 0 0 0 0 0 127 0" result="hardAlpha"/>
<feOffset dy="4"/>
<feGaussianBlur stdDeviation="2"/>
<feComposite in2="hardAlpha" operator="out"/>
<feColorMatrix type="matrix" values="0 0 0 0 0 0 0 0 0 0 0 0 0 0 0 0 0 0 0 0"/>
<feBlend mode="normal" in2="BackgroundImageFix" result="effect1_dropShadow_762_6444"/>
<feBlend mode="normal" in="SourceGraphic" in2="effect1_dropShadow_762_6444" result="shape"/>
</filter>
<filter id="filter2_d_762_6444" x="73.3743" y="35.39" width="193.091" height="47.05" filterUnits="userSpaceOnUse" color-interpolation-filters="sRGB">
<feFlood flood-opacity="0" result="BackgroundImageFix"/>
<feColorMatrix in="SourceAlpha" type="matrix" values="0 0 0 0 0 0 0 0 0 0 0 0 0 0 0 0 0 0 127 0" result="hardAlpha"/>
<feOffset dy="4"/>
<feGaussianBlur stdDeviation="2"/>
<feComposite in2="hardAlpha" operator="out"/>
<feColorMatrix type="matrix" values="0 0 0 0 0 0 0 0 0 0 0 0 0 0 0 0 0 0 0 0"/>
<feBlend mode="normal" in2="BackgroundImageFix" result="effect1_dropShadow_762_6444"/>
<feBlend mode="normal" in="SourceGraphic" in2="effect1_dropShadow_762_6444" result="shape"/>
</filter>
</defs>
</svg>
