<svg width="23" height="26" viewBox="0 0 23 26" fill="none" xmlns="http://www.w3.org/2000/svg">
<path d="M3.61649 5.64537L9.19773 8.82269L11 5.71955L1.13872 0.106751C1.02424 0.0384952 0.893263 0.00162939 0.759565 5.27986e-05C0.625868 -0.0015238 0.494366 0.0322346 0.378276 0.097771C0.262186 0.163307 0.165838 0.258296 0.0993358 0.372891C0.0328335 0.487487 -0.00136406 0.617492 4.16514e-05 0.749578V12H3.61649V5.64537Z" fill="#FC981C"/>
<path d="M22.6939 12.5314L12.895 7L11.092 10.0392L16.6379 13.1636H7.93341L3.59359 20.4578V14.2091H0V25.2598C0.000245372 25.3892 0.0349941 25.5164 0.101095 25.6286C0.167197 25.7408 0.262323 25.8341 0.376755 25.8992C0.491187 25.9644 0.621088 25.9991 0.75351 26C0.885932 26.0008 1.01618 25.9678 1.13148 25.9041L22.6566 13.7471C22.7588 13.6817 22.8434 13.5932 22.9031 13.489C22.9628 13.3849 22.996 13.2681 22.9997 13.1488C23.0033 13.0294 22.9773 12.911 22.9241 12.8035C22.8709 12.696 22.792 12.6027 22.6939 12.5314Z" fill="#FC981C"/>
</svg>
