<svg width="54" height="53" viewBox="0 0 54 53" fill="none" xmlns="http://www.w3.org/2000/svg">
<circle opacity="0.5" cx="27.0818" cy="26.6437" r="25.9468" stroke="#B9B9B9" stroke-width="0.786267"/>
<path d="M27.2482 21.6778C24.4099 21.6778 22.1205 23.9672 22.1205 26.8055C22.1205 29.6438 24.4099 31.9332 27.2482 31.9332C30.0865 31.9332 32.3759 29.6438 32.3759 26.8055C32.3759 23.9672 30.0865 21.6778 27.2482 21.6778ZM27.2482 30.1391C25.414 30.1391 23.9145 28.6441 23.9145 26.8055C23.9145 24.9669 25.4096 23.4718 27.2482 23.4718C29.0868 23.4718 30.5818 24.9669 30.5818 26.8055C30.5818 28.6441 29.0824 30.1391 27.2482 30.1391ZM33.7816 21.4681C33.7816 22.133 33.2461 22.6641 32.5856 22.6641C31.9207 22.6641 31.3896 22.1286 31.3896 21.4681C31.3896 20.8076 31.9251 20.2721 32.5856 20.2721C33.2461 20.2721 33.7816 20.8076 33.7816 21.4681ZM37.1777 22.6819C37.1019 21.0798 36.7359 19.6607 35.5622 18.4915C34.393 17.3222 32.9739 16.9563 31.3717 16.876C29.7205 16.7822 24.7714 16.7822 23.1202 16.876C21.5225 16.9518 20.1034 17.3178 18.9297 18.487C17.756 19.6562 17.3945 21.0754 17.3142 22.6775C17.2205 24.3287 17.2205 29.2778 17.3142 30.929C17.3901 32.5312 17.756 33.9503 18.9297 35.1195C20.1034 36.2888 21.5181 36.6547 23.1202 36.735C24.7714 36.8288 29.7205 36.8288 31.3717 36.735C32.9739 36.6592 34.393 36.2932 35.5622 35.1195C36.7315 33.9503 37.0974 32.5312 37.1777 30.929C37.2715 29.2778 37.2715 24.3332 37.1777 22.6819ZM35.0446 32.7007C34.6965 33.5754 34.0226 34.2493 33.1434 34.6019C31.8269 35.124 28.703 35.0035 27.2482 35.0035C25.7934 35.0035 22.665 35.1195 21.3529 34.6019C20.4783 34.2538 19.8044 33.5799 19.4518 32.7007C18.9297 31.3842 19.0502 28.2603 19.0502 26.8055C19.0502 25.3506 18.9342 22.2223 19.4518 20.9102C19.7999 20.0356 20.4738 19.3617 21.3529 19.0091C22.6695 18.487 25.7934 18.6075 27.2482 18.6075C28.703 18.6075 31.8314 18.4915 33.1434 19.0091C34.0181 19.3572 34.692 20.0311 35.0446 20.9102C35.5667 22.2267 35.4462 25.3506 35.4462 26.8055C35.4462 28.2603 35.5667 31.3887 35.0446 32.7007Z" fill="#B9B9B9"/>
</svg>
