<svg width="343" height="110" viewBox="0 0 343 110" fill="none" xmlns="http://www.w3.org/2000/svg">
<g filter="url(#filter0_d_239_72519)">
<g filter="url(#filter1_d_239_72519)">
<path fill-rule="evenodd" clip-rule="evenodd" d="M23.0186 46.6872L11.9121 40.3645V53.01H4.71548V30.622C4.71268 30.3592 4.78073 30.1005 4.91307 29.8724C5.04541 29.6444 5.23713 29.4553 5.46815 29.3249C5.69916 29.1945 5.96085 29.1273 6.2269 29.1305C6.49296 29.1336 6.7536 29.207 6.9814 29.3428L26.605 40.5121L23.0186 46.6872ZM30.376 43.0601L49.8756 54.0675C50.0706 54.2092 50.2276 54.395 50.3335 54.6089C50.4394 54.8228 50.4912 55.0585 50.4839 55.296C50.4766 55.5335 50.4106 55.7658 50.2918 55.9731C50.173 56.1804 50.0047 56.3566 49.8013 56.4867L6.967 80.6787C6.73755 80.8054 6.47837 80.8712 6.21485 80.8694C5.95134 80.8677 5.69284 80.7986 5.46512 80.6689C5.23741 80.5393 5.04811 80.3537 4.91657 80.1304C4.78503 79.9072 4.71588 79.6541 4.71539 79.3964V57.406H11.8665V69.8407L20.5026 55.3255H37.8243L26.788 49.1081L30.376 43.0601Z" fill="#FC981C"/>
</g>
<g filter="url(#filter2_d_239_72519)">
<path d="M94.3146 35.39L87.4946 74H78.0896L84.9096 35.39H94.3146ZM118.455 42.98C121.535 42.98 123.955 43.8417 125.715 45.565C127.475 47.2883 128.355 49.69 128.355 52.77C128.355 53.7967 128.245 54.8967 128.025 56.07L124.835 74H115.485L118.455 57.335C118.565 56.7117 118.62 56.1617 118.62 55.685C118.62 54.145 118.18 52.9533 117.3 52.11C116.457 51.2667 115.265 50.845 113.725 50.845C111.892 50.845 110.352 51.4133 109.105 52.55C107.859 53.6867 107.052 55.2817 106.685 57.335V57.06L103.715 74H94.3103L99.7003 43.31H109.105L108.39 47.435C109.6 46.0783 111.067 44.9967 112.79 44.19C114.55 43.3833 116.439 42.98 118.455 42.98ZM146.716 65.2L157.276 43.31H167.341L151.006 74H139.346L133.901 43.31H143.911L146.716 65.2ZM184.94 42.87C188.9 42.87 192.035 43.9517 194.345 46.115C196.691 48.2417 197.865 51.1567 197.865 54.86C197.865 56.07 197.773 57.1517 197.59 58.105C197.443 58.9483 197.223 59.8467 196.93 60.8H175.645C175.608 61.02 175.59 61.3683 175.59 61.845C175.59 63.4583 176.03 64.6867 176.91 65.53C177.79 66.3733 178.963 66.795 180.43 66.795C182.776 66.795 184.573 65.805 185.82 63.825H195.83C194.51 66.9417 192.365 69.49 189.395 71.47C186.425 73.45 183.088 74.44 179.385 74.44C175.425 74.44 172.253 73.34 169.87 71.14C167.523 68.94 166.35 65.9517 166.35 62.175C166.35 61.0383 166.46 59.865 166.68 58.655C167.23 55.465 168.366 52.6783 170.09 50.295C171.813 47.9117 173.958 46.0783 176.525 44.795C179.091 43.5117 181.896 42.87 184.94 42.87ZM188.35 56.015C188.423 55.5017 188.46 55.1533 188.46 54.97C188.46 53.5033 188.001 52.385 187.085 51.615C186.168 50.8083 184.958 50.405 183.455 50.405C181.841 50.405 180.411 50.9 179.165 51.89C177.955 52.8433 177.075 54.2183 176.525 56.015H188.35ZM212.451 74.44C210.031 74.44 207.85 74.055 205.906 73.285C204 72.515 202.496 71.4517 201.396 70.095C200.296 68.7017 199.746 67.1067 199.746 65.31C199.746 65.0533 199.783 64.595 199.856 63.935H208.931C208.858 65.0717 209.188 65.9883 209.921 66.685C210.691 67.345 211.773 67.675 213.166 67.675C214.34 67.675 215.311 67.455 216.081 67.015C216.851 66.575 217.236 65.9517 217.236 65.145C217.236 64.375 216.815 63.77 215.971 63.33C215.165 62.8533 213.808 62.285 211.901 61.625C209.921 60.965 208.253 60.3233 206.896 59.7C205.576 59.04 204.44 58.105 203.486 56.895C202.533 55.685 202.056 54.1633 202.056 52.33C202.056 50.5333 202.588 48.92 203.651 47.49C204.715 46.0233 206.2 44.8867 208.106 44.08C210.05 43.2733 212.286 42.87 214.816 42.87C217.346 42.87 219.546 43.2917 221.416 44.135C223.286 44.9417 224.735 46.0783 225.761 47.545C226.788 49.0117 227.301 50.6617 227.301 52.495L227.246 53.32H218.721C218.795 52.22 218.465 51.34 217.731 50.68C216.998 50.02 215.953 49.69 214.596 49.69C213.533 49.69 212.653 49.91 211.956 50.35C211.296 50.79 210.966 51.395 210.966 52.165C210.966 52.9717 211.406 53.65 212.286 54.2C213.203 54.7133 214.615 55.3 216.521 55.96C218.501 56.62 220.133 57.28 221.416 57.94C222.736 58.5633 223.855 59.4617 224.771 60.635C225.725 61.7717 226.201 63.2017 226.201 64.925C226.201 66.905 225.596 68.61 224.386 70.04C223.213 71.47 221.581 72.57 219.491 73.34C217.438 74.0733 215.091 74.44 212.451 74.44ZM243.12 63.44C243.083 63.6233 243.065 63.8617 243.065 64.155C243.065 64.815 243.248 65.2917 243.615 65.585C244.018 65.8783 244.66 66.025 245.54 66.025H248.895L247.465 74H242.68C236.52 74 233.44 71.415 233.44 66.245C233.44 65.475 233.532 64.5033 233.715 63.33L235.915 51.12H232.175L233.55 43.31H237.29L238.61 35.83H248.015L246.695 43.31H252.855L251.48 51.12H245.32L243.12 63.44ZM266.729 74.44C264.089 74.44 261.742 73.9083 259.689 72.845C257.636 71.7817 256.041 70.2783 254.904 68.335C253.804 66.3917 253.254 64.1367 253.254 61.57C253.254 58.0867 254.079 54.915 255.729 52.055C257.379 49.195 259.652 46.9583 262.549 45.345C265.446 43.695 268.672 42.87 272.229 42.87C274.869 42.87 277.216 43.42 279.269 44.52C281.359 45.5833 282.972 47.0867 284.109 49.03C285.246 50.9733 285.814 53.2283 285.814 55.795C285.814 59.315 284.971 62.505 283.284 65.365C281.634 68.1883 279.342 70.4067 276.409 72.02C273.512 73.6333 270.286 74.44 266.729 74.44ZM268.049 66.355C269.589 66.355 270.964 65.8967 272.174 64.98C273.421 64.0267 274.374 62.8167 275.034 61.35C275.731 59.8467 276.079 58.2883 276.079 56.675C276.079 54.8417 275.584 53.43 274.594 52.44C273.604 51.45 272.357 50.955 270.854 50.955C269.277 50.955 267.884 51.4317 266.674 52.385C265.501 53.3017 264.584 54.5117 263.924 56.015C263.264 57.5183 262.934 59.095 262.934 60.745C262.934 62.5417 263.411 63.935 264.364 64.925C265.317 65.8783 266.546 66.355 268.049 66.355ZM301.528 48.865C302.958 47.0317 304.59 45.6017 306.423 44.575C308.293 43.5117 310.237 42.98 312.253 42.98L310.493 52.935H307.908C305.562 52.935 303.71 53.4483 302.353 54.475C300.997 55.465 300.098 57.225 299.658 59.755L297.128 74H287.723L293.113 43.31H302.518L301.528 48.865ZM324.009 74.44C321.589 74.44 319.407 74.055 317.464 73.285C315.557 72.515 314.054 71.4517 312.954 70.095C311.854 68.7017 311.304 67.1067 311.304 65.31C311.304 65.0533 311.34 64.595 311.414 63.935H320.489C320.415 65.0717 320.745 65.9883 321.479 66.685C322.249 67.345 323.33 67.675 324.724 67.675C325.897 67.675 326.869 67.455 327.639 67.015C328.409 66.575 328.794 65.9517 328.794 65.145C328.794 64.375 328.372 63.77 327.529 63.33C326.722 62.8533 325.365 62.285 323.459 61.625C321.479 60.965 319.81 60.3233 318.454 59.7C317.134 59.04 315.997 58.105 315.044 56.895C314.09 55.685 313.614 54.1633 313.614 52.33C313.614 50.5333 314.145 48.92 315.209 47.49C316.272 46.0233 317.757 44.8867 319.664 44.08C321.607 43.2733 323.844 42.87 326.374 42.87C328.904 42.87 331.104 43.2917 332.974 44.135C334.844 44.9417 336.292 46.0783 337.319 47.545C338.345 49.0117 338.859 50.6617 338.859 52.495L338.804 53.32H330.279C330.352 52.22 330.022 51.34 329.289 50.68C328.555 50.02 327.51 49.69 326.154 49.69C325.09 49.69 324.21 49.91 323.514 50.35C322.854 50.79 322.524 51.395 322.524 52.165C322.524 52.9717 322.964 53.65 323.844 54.2C324.76 54.7133 326.172 55.3 328.079 55.96C330.059 56.62 331.69 57.28 332.974 57.94C334.294 58.5633 335.412 59.4617 336.329 60.635C337.282 61.7717 337.759 63.2017 337.759 64.925C337.759 66.905 337.154 68.61 335.944 70.04C334.77 71.47 333.139 72.57 331.049 73.34C328.995 74.0733 326.649 74.44 324.009 74.44Z" fill="#FC981C"/>
</g>
</g>
<defs>
<filter id="filter0_d_239_72519" x="0.715393" y="0" width="344.769" height="118" filterUnits="userSpaceOnUse" color-interpolation-filters="sRGB">
<feFlood flood-opacity="0" result="BackgroundImageFix"/>
<feColorMatrix in="SourceAlpha" type="matrix" values="0 0 0 0 0 0 0 0 0 0 0 0 0 0 0 0 0 0 127 0" result="hardAlpha"/>
<feOffset dy="4"/>
<feGaussianBlur stdDeviation="2"/>
<feComposite in2="hardAlpha" operator="out"/>
<feColorMatrix type="matrix" values="0 0 0 0 0 0 0 0 0 0 0 0 0 0 0 0 0 0 0.25 0"/>
<feBlend mode="normal" in2="BackgroundImageFix" result="effect1_dropShadow_239_72519"/>
<feBlend mode="normal" in="SourceGraphic" in2="effect1_dropShadow_239_72519" result="shape"/>
</filter>
<filter id="filter1_d_239_72519" x="0.715393" y="29.1304" width="53.7692" height="59.7393" filterUnits="userSpaceOnUse" color-interpolation-filters="sRGB">
<feFlood flood-opacity="0" result="BackgroundImageFix"/>
<feColorMatrix in="SourceAlpha" type="matrix" values="0 0 0 0 0 0 0 0 0 0 0 0 0 0 0 0 0 0 127 0" result="hardAlpha"/>
<feOffset dy="4"/>
<feGaussianBlur stdDeviation="2"/>
<feComposite in2="hardAlpha" operator="out"/>
<feColorMatrix type="matrix" values="0 0 0 0 0 0 0 0 0 0 0 0 0 0 0 0 0 0 0 0"/>
<feBlend mode="normal" in2="BackgroundImageFix" result="effect1_dropShadow_239_72519"/>
<feBlend mode="normal" in="SourceGraphic" in2="effect1_dropShadow_239_72519" result="shape"/>
</filter>
<filter id="filter2_d_239_72519" x="74.0896" y="35.3901" width="268.769" height="47.0498" filterUnits="userSpaceOnUse" color-interpolation-filters="sRGB">
<feFlood flood-opacity="0" result="BackgroundImageFix"/>
<feColorMatrix in="SourceAlpha" type="matrix" values="0 0 0 0 0 0 0 0 0 0 0 0 0 0 0 0 0 0 127 0" result="hardAlpha"/>
<feOffset dy="4"/>
<feGaussianBlur stdDeviation="2"/>
<feComposite in2="hardAlpha" operator="out"/>
<feColorMatrix type="matrix" values="0 0 0 0 0 0 0 0 0 0 0 0 0 0 0 0 0 0 0 0"/>
<feBlend mode="normal" in2="BackgroundImageFix" result="effect1_dropShadow_239_72519"/>
<feBlend mode="normal" in="SourceGraphic" in2="effect1_dropShadow_239_72519" result="shape"/>
</filter>
</defs>
</svg>
