<svg width="1440" height="335" viewBox="0 0 1440 335" fill="none" xmlns="http://www.w3.org/2000/svg">
<g opacity="0.05">
<rect width="15" height="368.25" transform="matrix(1 0 -0.523473 0.909709 -12.2313 0)" fill="white"/>
<rect width="15" height="368.25" transform="matrix(1 0 -0.523473 0.909709 30.7687 0)" fill="white"/>
<rect width="15" height="368.25" transform="matrix(1 0 -0.523473 0.909709 73.7687 0)" fill="white"/>
<rect width="15" height="368.25" transform="matrix(1 0 -0.523473 0.909709 116.769 0)" fill="white"/>
<rect width="15" height="368.25" transform="matrix(1 0 -0.523473 0.909709 159.769 0)" fill="white"/>
<rect width="15" height="368.25" transform="matrix(1 0 -0.523473 0.909709 202.769 0)" fill="white"/>
<rect width="15" height="368.25" transform="matrix(1 0 -0.523473 0.909709 245.769 0)" fill="white"/>
<rect width="15" height="368.25" transform="matrix(1 0 -0.523473 0.909709 288.769 0)" fill="white"/>
<rect width="15" height="368.25" transform="matrix(1 0 -0.523473 0.909709 331.769 0)" fill="white"/>
<rect width="15" height="368.25" transform="matrix(1 0 -0.523473 0.909709 374.769 0)" fill="white"/>
<rect width="15" height="368.25" transform="matrix(1 0 -0.523473 0.909709 417.769 0)" fill="white"/>
<rect width="15" height="368.25" transform="matrix(1 0 -0.523473 0.909709 460.769 0)" fill="white"/>
<rect width="15" height="368.25" transform="matrix(1 0 -0.523473 0.909709 503.769 0)" fill="white"/>
<rect width="15" height="368.25" transform="matrix(1 0 -0.523473 0.909709 546.769 0)" fill="white"/>
<rect width="15" height="368.25" transform="matrix(1 0 -0.523473 0.909709 589.769 0)" fill="white"/>
<rect width="15" height="368.25" transform="matrix(1 0 -0.523473 0.909709 632.769 0)" fill="white"/>
<rect width="15" height="368.25" transform="matrix(1 0 -0.523473 0.909709 675.769 0)" fill="white"/>
<rect width="15" height="368.25" transform="matrix(1 0 -0.523473 0.909709 718.769 0)" fill="white"/>
<rect width="15" height="368.25" transform="matrix(1 0 -0.523473 0.909709 761.769 0)" fill="white"/>
<rect width="15" height="368.25" transform="matrix(1 0 -0.523473 0.909709 804.769 0)" fill="white"/>
<rect width="15" height="368.25" transform="matrix(1 0 -0.523473 0.909709 847.769 0)" fill="white"/>
<rect width="15" height="368.25" transform="matrix(1 0 -0.523473 0.909709 890.769 0)" fill="white"/>
<rect width="15" height="368.25" transform="matrix(1 0 -0.523473 0.909709 933.769 0)" fill="white"/>
<rect width="15" height="368.25" transform="matrix(1 0 -0.523473 0.909709 976.769 0)" fill="white"/>
<rect width="15" height="368.25" transform="matrix(1 0 -0.523473 0.909709 1019.77 0)" fill="white"/>
<rect width="15" height="368.25" transform="matrix(1 0 -0.523473 0.909709 1062.77 0)" fill="white"/>
<rect width="15" height="368.25" transform="matrix(1 0 -0.523473 0.909709 1105.77 0)" fill="white"/>
<rect width="15" height="368.25" transform="matrix(1 0 -0.523473 0.909709 1148.77 0)" fill="white"/>
<rect width="15" height="368.25" transform="matrix(1 0 -0.523473 0.909709 1191.77 0)" fill="white"/>
<rect width="15" height="368.25" transform="matrix(1 0 -0.523473 0.909709 1234.77 0)" fill="white"/>
<rect width="15" height="368.25" transform="matrix(1 0 -0.523473 0.909709 1277.77 0)" fill="white"/>
<rect width="15" height="368.25" transform="matrix(1 0 -0.523473 0.909709 1320.77 0)" fill="white"/>
<rect width="15" height="368.25" transform="matrix(1 0 -0.523473 0.909709 1363.77 0)" fill="white"/>
<rect width="15" height="368.25" transform="matrix(1 0 -0.523473 0.909709 1406.77 0)" fill="white"/>
<rect width="15" height="368.25" transform="matrix(1 0 -0.523473 0.909709 1449.77 0)" fill="white"/>
<rect width="15" height="368.25" transform="matrix(1 0 -0.523473 0.909709 1492.77 0)" fill="white"/>
<rect width="15" height="368.25" transform="matrix(1 0 -0.523473 0.909709 1535.77 0)" fill="white"/>
<rect width="15" height="368.25" transform="matrix(1 0 -0.523473 0.909709 1578.77 0)" fill="white"/>
<rect width="15" height="368.25" transform="matrix(1 0 -0.523473 0.909709 1621.77 0)" fill="white"/>
</g>
</svg>
