<svg width="214" height="110" viewBox="0 0 214 110" fill="none" xmlns="http://www.w3.org/2000/svg">
<g filter="url(#filter0_d_762_6168)">
<g filter="url(#filter1_d_762_6168)">
<path fill-rule="evenodd" clip-rule="evenodd" d="M22.3032 46.6873L11.1967 40.3646V53.0101H4.00008V30.6221C3.99729 30.3593 4.06534 30.1006 4.19767 29.8725C4.33001 29.6445 4.52174 29.4555 4.75276 29.3251C4.98377 29.1946 5.24546 29.1275 5.51151 29.1306C5.77756 29.1337 6.03821 29.2071 6.26601 29.3429L25.8896 40.5122L22.3032 46.6873ZM29.6606 43.0603L49.1602 54.0676C49.3552 54.2094 49.5122 54.3952 49.6181 54.609C49.724 54.8229 49.7758 55.0586 49.7685 55.2961C49.7613 55.5336 49.6952 55.7659 49.5764 55.9732C49.4576 56.1805 49.2893 56.3567 49.0859 56.4868L6.25161 80.6788C6.02216 80.8055 5.76297 80.8713 5.49946 80.8696C5.23594 80.8679 4.97744 80.7987 4.74973 80.6691C4.52201 80.5394 4.33272 80.3538 4.20118 80.1306C4.06964 79.9073 4.00049 79.6542 4 79.3966V57.4061H11.1511V69.8408L19.7872 55.3256H37.1089L26.0726 49.1083L29.6606 43.0603Z" fill="#FC981C"/>
</g>
<g filter="url(#filter2_d_762_6168)">
<path d="M108.395 35.39L103.775 61.68C103.041 65.75 101.336 68.885 98.6595 71.085C95.9829 73.285 92.7012 74.385 88.8145 74.385C85.2945 74.385 82.5079 73.505 80.4545 71.745C78.4379 69.985 77.4295 67.455 77.4295 64.155C77.4295 63.0183 77.5212 61.9917 77.7045 61.075H87.0545C86.9445 61.6617 86.8895 62.1933 86.8895 62.67C86.8895 63.77 87.1645 64.595 87.7145 65.145C88.2645 65.695 89.0345 65.97 90.0245 65.97C91.1612 65.97 92.0962 65.6217 92.8295 64.925C93.5995 64.1917 94.1129 63.11 94.3695 61.68L98.9895 35.39H108.395ZM123.196 74.44C120.556 74.44 118.21 73.9083 116.156 72.845C114.103 71.7817 112.508 70.2783 111.371 68.335C110.271 66.3917 109.721 64.1367 109.721 61.57C109.721 58.0867 110.546 54.915 112.196 52.055C113.846 49.195 116.12 46.9583 119.016 45.345C121.913 43.695 125.14 42.87 128.696 42.87C131.336 42.87 133.683 43.42 135.736 44.52C137.826 45.5833 139.44 47.0867 140.576 49.03C141.713 50.9733 142.281 53.2283 142.281 55.795C142.281 59.315 141.438 62.505 139.751 65.365C138.101 68.1883 135.81 70.4067 132.876 72.02C129.98 73.6333 126.753 74.44 123.196 74.44ZM124.516 66.355C126.056 66.355 127.431 65.8967 128.641 64.98C129.888 64.0267 130.841 62.8167 131.501 61.35C132.198 59.8467 132.546 58.2883 132.546 56.675C132.546 54.8417 132.051 53.43 131.061 52.44C130.071 51.45 128.825 50.955 127.321 50.955C125.745 50.955 124.351 51.4317 123.141 52.385C121.968 53.3017 121.051 54.5117 120.391 56.015C119.731 57.5183 119.401 59.095 119.401 60.745C119.401 62.5417 119.878 63.935 120.831 64.925C121.785 65.8783 123.013 66.355 124.516 66.355ZM158.216 47.655C159.389 46.225 160.874 45.07 162.671 44.19C164.468 43.31 166.429 42.87 168.556 42.87C171.856 42.87 174.514 43.9517 176.531 46.115C178.584 48.2417 179.611 51.1567 179.611 54.86C179.611 56.0333 179.501 57.28 179.281 58.6C178.731 61.7533 177.649 64.54 176.036 66.96C174.423 69.3433 172.479 71.195 170.206 72.515C167.933 73.7983 165.531 74.44 163.001 74.44C160.838 74.44 159.023 74.0183 157.556 73.175C156.089 72.295 155.026 71.14 154.366 69.71L153.596 74H144.191L151.396 33.3H160.801L158.216 47.655ZM169.766 58.6C169.876 57.9767 169.931 57.4083 169.931 56.895C169.931 55.0617 169.399 53.6317 168.336 52.605C167.309 51.5783 165.989 51.065 164.376 51.065C162.506 51.065 160.801 51.7433 159.261 53.1C157.721 54.4567 156.731 56.3083 156.291 58.655C156.181 59.315 156.126 59.92 156.126 60.47C156.126 62.2667 156.639 63.6783 157.666 64.705C158.693 65.7317 160.013 66.245 161.626 66.245C163.496 66.245 165.201 65.5667 166.741 64.21C168.318 62.8167 169.326 60.9467 169.766 58.6ZM194.28 74.44C191.86 74.44 189.678 74.055 187.735 73.285C185.828 72.515 184.325 71.4517 183.225 70.095C182.125 68.7017 181.575 67.1067 181.575 65.31C181.575 65.0533 181.612 64.595 181.685 63.935H190.76C190.687 65.0717 191.017 65.9883 191.75 66.685C192.52 67.345 193.602 67.675 194.995 67.675C196.168 67.675 197.14 67.455 197.91 67.015C198.68 66.575 199.065 65.9517 199.065 65.145C199.065 64.375 198.643 63.77 197.8 63.33C196.993 62.8533 195.637 62.285 193.73 61.625C191.75 60.965 190.082 60.3233 188.725 59.7C187.405 59.04 186.268 58.105 185.315 56.895C184.362 55.685 183.885 54.1633 183.885 52.33C183.885 50.5333 184.417 48.92 185.48 47.49C186.543 46.0233 188.028 44.8867 189.935 44.08C191.878 43.2733 194.115 42.87 196.645 42.87C199.175 42.87 201.375 43.2917 203.245 44.135C205.115 44.9417 206.563 46.0783 207.59 47.545C208.617 49.0117 209.13 50.6617 209.13 52.495L209.075 53.32H200.55C200.623 52.22 200.293 51.34 199.56 50.68C198.827 50.02 197.782 49.69 196.425 49.69C195.362 49.69 194.482 49.91 193.785 50.35C193.125 50.79 192.795 51.395 192.795 52.165C192.795 52.9717 193.235 53.65 194.115 54.2C195.032 54.7133 196.443 55.3 198.35 55.96C200.33 56.62 201.962 57.28 203.245 57.94C204.565 58.5633 205.683 59.4617 206.6 60.635C207.553 61.7717 208.03 63.2017 208.03 64.925C208.03 66.905 207.425 68.61 206.215 70.04C205.042 71.47 203.41 72.57 201.32 73.34C199.267 74.0733 196.92 74.44 194.28 74.44Z" fill="#FC981C"/>
</g>
</g>
<defs>
<filter id="filter0_d_762_6168" x="0" y="0" width="215.77" height="118" filterUnits="userSpaceOnUse" color-interpolation-filters="sRGB">
<feFlood flood-opacity="0" result="BackgroundImageFix"/>
<feColorMatrix in="SourceAlpha" type="matrix" values="0 0 0 0 0 0 0 0 0 0 0 0 0 0 0 0 0 0 127 0" result="hardAlpha"/>
<feOffset dy="4"/>
<feGaussianBlur stdDeviation="2"/>
<feComposite in2="hardAlpha" operator="out"/>
<feColorMatrix type="matrix" values="0 0 0 0 0 0 0 0 0 0 0 0 0 0 0 0 0 0 0.25 0"/>
<feBlend mode="normal" in2="BackgroundImageFix" result="effect1_dropShadow_762_6168"/>
<feBlend mode="normal" in="SourceGraphic" in2="effect1_dropShadow_762_6168" result="shape"/>
</filter>
<filter id="filter1_d_762_6168" x="0" y="29.1305" width="53.7695" height="59.7391" filterUnits="userSpaceOnUse" color-interpolation-filters="sRGB">
<feFlood flood-opacity="0" result="BackgroundImageFix"/>
<feColorMatrix in="SourceAlpha" type="matrix" values="0 0 0 0 0 0 0 0 0 0 0 0 0 0 0 0 0 0 127 0" result="hardAlpha"/>
<feOffset dy="4"/>
<feGaussianBlur stdDeviation="2"/>
<feComposite in2="hardAlpha" operator="out"/>
<feColorMatrix type="matrix" values="0 0 0 0 0 0 0 0 0 0 0 0 0 0 0 0 0 0 0 0"/>
<feBlend mode="normal" in2="BackgroundImageFix" result="effect1_dropShadow_762_6168"/>
<feBlend mode="normal" in="SourceGraphic" in2="effect1_dropShadow_762_6168" result="shape"/>
</filter>
<filter id="filter2_d_762_6168" x="73.4297" y="33.3" width="139.7" height="49.1399" filterUnits="userSpaceOnUse" color-interpolation-filters="sRGB">
<feFlood flood-opacity="0" result="BackgroundImageFix"/>
<feColorMatrix in="SourceAlpha" type="matrix" values="0 0 0 0 0 0 0 0 0 0 0 0 0 0 0 0 0 0 127 0" result="hardAlpha"/>
<feOffset dy="4"/>
<feGaussianBlur stdDeviation="2"/>
<feComposite in2="hardAlpha" operator="out"/>
<feColorMatrix type="matrix" values="0 0 0 0 0 0 0 0 0 0 0 0 0 0 0 0 0 0 0 0"/>
<feBlend mode="normal" in2="BackgroundImageFix" result="effect1_dropShadow_762_6168"/>
<feBlend mode="normal" in="SourceGraphic" in2="effect1_dropShadow_762_6168" result="shape"/>
</filter>
</defs>
</svg>
