<svg width="281" height="110" viewBox="0 0 281 110" fill="none" xmlns="http://www.w3.org/2000/svg">
<g filter="url(#filter0_d_762_6106)">
<g filter="url(#filter1_d_762_6106)">
<path fill-rule="evenodd" clip-rule="evenodd" d="M22.3032 46.6873L11.1967 40.3645V53.01H4.00008V30.6221C3.99729 30.3592 4.06534 30.1005 4.19767 29.8725C4.33001 29.6444 4.52174 29.4554 4.75276 29.325C4.98377 29.1946 5.24546 29.1274 5.51151 29.1305C5.77756 29.1337 6.03821 29.207 6.26601 29.3429L25.8896 40.5121L22.3032 46.6873ZM29.6606 43.0602L49.1602 54.0675C49.3552 54.2093 49.5122 54.3951 49.6181 54.609C49.724 54.8229 49.7758 55.0585 49.7685 55.296C49.7613 55.5335 49.6952 55.7659 49.5764 55.9732C49.4576 56.1805 49.2893 56.3566 49.0859 56.4867L6.25161 80.6787C6.02216 80.8054 5.76297 80.8712 5.49946 80.8695C5.23594 80.8678 4.97744 80.7987 4.74973 80.669C4.52201 80.5393 4.33272 80.3537 4.20118 80.1305C4.06964 79.9073 4.00049 79.6541 4 79.3965V57.406H11.1511V69.8408L19.7872 55.3256H37.1089L26.0726 49.1082L29.6606 43.0602Z" fill="#FC981C"/>
</g>
<g filter="url(#filter2_d_762_6106)">
<path d="M108.395 35.39L103.775 61.68C103.041 65.75 101.336 68.885 98.6595 71.085C95.9829 73.285 92.7012 74.385 88.8145 74.385C85.2945 74.385 82.5079 73.505 80.4545 71.745C78.4379 69.985 77.4295 67.455 77.4295 64.155C77.4295 63.0183 77.5212 61.9917 77.7045 61.075H87.0545C86.9445 61.6617 86.8895 62.1933 86.8895 62.67C86.8895 63.77 87.1645 64.595 87.7145 65.145C88.2645 65.695 89.0345 65.97 90.0245 65.97C91.1612 65.97 92.0962 65.6217 92.8295 64.925C93.5995 64.1917 94.1129 63.11 94.3695 61.68L98.9895 35.39H108.395ZM123.196 74.44C120.556 74.44 118.21 73.9083 116.156 72.845C114.103 71.7817 112.508 70.2783 111.371 68.335C110.271 66.3917 109.721 64.1367 109.721 61.57C109.721 58.0867 110.546 54.915 112.196 52.055C113.846 49.195 116.12 46.9583 119.016 45.345C121.913 43.695 125.14 42.87 128.696 42.87C131.336 42.87 133.683 43.42 135.736 44.52C137.826 45.5833 139.44 47.0867 140.576 49.03C141.713 50.9733 142.281 53.2283 142.281 55.795C142.281 59.315 141.438 62.505 139.751 65.365C138.101 68.1883 135.81 70.4067 132.876 72.02C129.98 73.6333 126.753 74.44 123.196 74.44ZM124.516 66.355C126.056 66.355 127.431 65.8967 128.641 64.98C129.888 64.0267 130.841 62.8167 131.501 61.35C132.198 59.8467 132.546 58.2883 132.546 56.675C132.546 54.8417 132.051 53.43 131.061 52.44C130.071 51.45 128.825 50.955 127.321 50.955C125.745 50.955 124.351 51.4317 123.141 52.385C121.968 53.3017 121.051 54.5117 120.391 56.015C119.731 57.5183 119.401 59.095 119.401 60.745C119.401 62.5417 119.878 63.935 120.831 64.925C121.785 65.8783 123.013 66.355 124.516 66.355ZM154.916 40.12C153.449 40.12 152.276 39.735 151.396 38.965C150.553 38.1583 150.131 37.15 150.131 35.94C150.131 34.29 150.773 32.8783 152.056 31.705C153.339 30.5317 154.898 29.945 156.731 29.945C158.198 29.945 159.353 30.3483 160.196 31.155C161.039 31.925 161.461 32.9333 161.461 34.18C161.461 35.7933 160.819 37.1867 159.536 38.36C158.253 39.5333 156.713 40.12 154.916 40.12ZM158.986 43.31L153.596 74H144.191L149.581 43.31H158.986ZM184.557 42.98C187.637 42.98 190.057 43.8417 191.817 45.565C193.577 47.2883 194.457 49.69 194.457 52.77C194.457 53.7967 194.347 54.8967 194.127 56.07L190.937 74H181.587L184.557 57.335C184.667 56.7117 184.722 56.1617 184.722 55.685C184.722 54.145 184.282 52.9533 183.402 52.11C182.558 51.2667 181.367 50.845 179.827 50.845C177.993 50.845 176.453 51.4133 175.207 52.55C173.96 53.6867 173.153 55.2817 172.787 57.335V57.06L169.817 74H160.412L165.802 43.31H175.207L174.492 47.435C175.702 46.0783 177.168 44.9967 178.892 44.19C180.652 43.3833 182.54 42.98 184.557 42.98ZM226.262 35.39L222.192 58.435C222.045 59.3883 221.972 60.0483 221.972 60.415C221.972 62.1017 222.448 63.4033 223.402 64.32C224.355 65.2 225.767 65.64 227.637 65.64C229.837 65.64 231.633 65.0167 233.027 63.77C234.42 62.5233 235.318 60.745 235.722 58.435L239.792 35.39H249.197L245.127 58.435C244.503 61.9183 243.257 64.87 241.387 67.29C239.553 69.6733 237.298 71.4517 234.622 72.625C231.982 73.7983 229.103 74.385 225.987 74.385C221.953 74.385 218.69 73.34 216.197 71.25C213.74 69.16 212.512 66.135 212.512 62.175C212.512 61.0017 212.622 59.755 212.842 58.435L216.857 35.39H226.262ZM261.741 74.44C259.321 74.44 257.139 74.055 255.196 73.285C253.289 72.515 251.786 71.4517 250.686 70.095C249.586 68.7017 249.036 67.1067 249.036 65.31C249.036 65.0533 249.073 64.595 249.146 63.935H258.221C258.148 65.0717 258.478 65.9883 259.211 66.685C259.981 67.345 261.063 67.675 262.456 67.675C263.629 67.675 264.601 67.455 265.371 67.015C266.141 66.575 266.526 65.9517 266.526 65.145C266.526 64.375 266.104 63.77 265.261 63.33C264.454 62.8533 263.098 62.285 261.191 61.625C259.211 60.965 257.543 60.3233 256.186 59.7C254.866 59.04 253.729 58.105 252.776 56.895C251.823 55.685 251.346 54.1633 251.346 52.33C251.346 50.5333 251.878 48.92 252.941 47.49C254.004 46.0233 255.489 44.8867 257.396 44.08C259.339 43.2733 261.576 42.87 264.106 42.87C266.636 42.87 268.836 43.2917 270.706 44.135C272.576 44.9417 274.024 46.0783 275.051 47.545C276.078 49.0117 276.591 50.6617 276.591 52.495L276.536 53.32H268.011C268.084 52.22 267.754 51.34 267.021 50.68C266.288 50.02 265.243 49.69 263.886 49.69C262.823 49.69 261.943 49.91 261.246 50.35C260.586 50.79 260.256 51.395 260.256 52.165C260.256 52.9717 260.696 53.65 261.576 54.2C262.493 54.7133 263.904 55.3 265.811 55.96C267.791 56.62 269.423 57.28 270.706 57.94C272.026 58.5633 273.144 59.4617 274.061 60.635C275.014 61.7717 275.491 63.2017 275.491 64.925C275.491 66.905 274.886 68.61 273.676 70.04C272.503 71.47 270.871 72.57 268.781 73.34C266.728 74.0733 264.381 74.44 261.741 74.44Z" fill="#FC981C"/>
</g>
</g>
<defs>
<filter id="filter0_d_762_6106" x="0" y="0" width="283.77" height="118" filterUnits="userSpaceOnUse" color-interpolation-filters="sRGB">
<feFlood flood-opacity="0" result="BackgroundImageFix"/>
<feColorMatrix in="SourceAlpha" type="matrix" values="0 0 0 0 0 0 0 0 0 0 0 0 0 0 0 0 0 0 127 0" result="hardAlpha"/>
<feOffset dy="4"/>
<feGaussianBlur stdDeviation="2"/>
<feComposite in2="hardAlpha" operator="out"/>
<feColorMatrix type="matrix" values="0 0 0 0 0 0 0 0 0 0 0 0 0 0 0 0 0 0 0.25 0"/>
<feBlend mode="normal" in2="BackgroundImageFix" result="effect1_dropShadow_762_6106"/>
<feBlend mode="normal" in="SourceGraphic" in2="effect1_dropShadow_762_6106" result="shape"/>
</filter>
<filter id="filter1_d_762_6106" x="0" y="29.1304" width="53.7695" height="59.7391" filterUnits="userSpaceOnUse" color-interpolation-filters="sRGB">
<feFlood flood-opacity="0" result="BackgroundImageFix"/>
<feColorMatrix in="SourceAlpha" type="matrix" values="0 0 0 0 0 0 0 0 0 0 0 0 0 0 0 0 0 0 127 0" result="hardAlpha"/>
<feOffset dy="4"/>
<feGaussianBlur stdDeviation="2"/>
<feComposite in2="hardAlpha" operator="out"/>
<feColorMatrix type="matrix" values="0 0 0 0 0 0 0 0 0 0 0 0 0 0 0 0 0 0 0 0"/>
<feBlend mode="normal" in2="BackgroundImageFix" result="effect1_dropShadow_762_6106"/>
<feBlend mode="normal" in="SourceGraphic" in2="effect1_dropShadow_762_6106" result="shape"/>
</filter>
<filter id="filter2_d_762_6106" x="73.4297" y="29.945" width="207.161" height="52.495" filterUnits="userSpaceOnUse" color-interpolation-filters="sRGB">
<feFlood flood-opacity="0" result="BackgroundImageFix"/>
<feColorMatrix in="SourceAlpha" type="matrix" values="0 0 0 0 0 0 0 0 0 0 0 0 0 0 0 0 0 0 127 0" result="hardAlpha"/>
<feOffset dy="4"/>
<feGaussianBlur stdDeviation="2"/>
<feComposite in2="hardAlpha" operator="out"/>
<feColorMatrix type="matrix" values="0 0 0 0 0 0 0 0 0 0 0 0 0 0 0 0 0 0 0 0"/>
<feBlend mode="normal" in2="BackgroundImageFix" result="effect1_dropShadow_762_6106"/>
<feBlend mode="normal" in="SourceGraphic" in2="effect1_dropShadow_762_6106" result="shape"/>
</filter>
</defs>
</svg>
