<svg width="46" height="23" viewBox="0 0 46 23" fill="none" xmlns="http://www.w3.org/2000/svg">
<path d="M11.1945 9.85781C10.9484 9.00703 10.6461 7.52344 10.6461 7.52344H10.6109C10.6109 7.52344 10.3086 9.00703 10.0625 9.85781L9.28203 12.4945H11.9609L11.1945 9.85781ZM43.8125 0H24.125V22.5H43.8125C44.7477 22.5 45.5 21.7477 45.5 20.8125V1.6875C45.5 0.752344 44.7477 0 43.8125 0ZM42.125 8.4375C42.125 8.90156 41.7453 9.28125 41.2812 9.28125H40.4797C39.9945 10.9406 38.9539 12.6141 37.4773 14.1961C38.068 14.6461 38.6797 15.075 39.3125 15.4617C39.6992 15.7008 39.8258 16.2 39.6008 16.6008L39.0453 17.5781C38.8063 17.993 38.2789 18.1266 37.8711 17.8805C36.9852 17.332 36.1484 16.7484 35.382 16.1297C34.6156 16.7414 33.7859 17.332 32.893 17.8805C32.4852 18.1266 31.9578 17.993 31.7188 17.5781L31.1633 16.6008C30.9383 16.207 31.0648 15.7008 31.4586 15.4617C32.1125 15.0609 32.7242 14.6391 33.2938 14.1961C32.7383 13.6055 32.2461 13.0008 31.8172 12.3891C31.5359 11.9883 31.6625 11.4328 32.0773 11.1867L32.5344 10.9125L33.0477 10.6102C33.4273 10.3852 33.9195 10.4906 34.1727 10.8492C34.5242 11.3414 34.932 11.8336 35.3961 12.3188C36.3453 11.3203 37.0695 10.2867 37.5055 9.28125H29.4688C29.0047 9.28125 28.625 8.90156 28.625 8.4375V7.3125C28.625 6.84844 29.0047 6.46875 29.4688 6.46875H33.9688V5.34375C33.9688 4.87969 34.3484 4.5 34.8125 4.5H35.9375C36.4016 4.5 36.7812 4.87969 36.7812 5.34375V6.46875H41.2812C41.7453 6.46875 42.125 6.84844 42.125 7.3125V8.4375ZM0.5 1.6875V20.8125C0.5 21.7477 1.25234 22.5 2.1875 22.5H21.875V0H2.1875C1.25234 0 0.5 0.752344 0.5 1.6875ZM4.64141 16.882L8.68437 4.99219C8.80391 4.64766 9.12031 4.42266 9.48594 4.42266H11.7711C12.1297 4.42266 12.4531 4.65469 12.5727 4.99219L16.6156 16.882C16.7984 17.4305 16.3977 18 15.8141 18H14.2039C14.0219 17.9999 13.8449 17.9409 13.6992 17.832C13.5535 17.723 13.4469 17.5698 13.3953 17.3953L12.7344 15.1523H8.50156L7.86172 17.3883C7.75625 17.7469 7.42578 18 7.05312 18H5.44297C4.86641 18 4.45859 17.4305 4.64141 16.882Z" fill="white"/>
</svg>
