<svg width="201" height="57" viewBox="0 0 201 57" fill="none" xmlns="http://www.w3.org/2000/svg">
    <rect width="185.009" height="51.3841" rx="4" transform="matrix(1 0 -0.217066 0.976157 15.9906 6.5)"
        fill="#FC981C" />
    <g>
        <rect x="1.391467" y="0.488078" width="184.009" height="50.3841" rx="3.5"
            transform="matrix(1 0 -0.217066 0.976157 11.2597 0.511637)" stroke="white" />
        <animateTransform attributeName="transform" type="translate" values="0,0; -2,0; 0,0; 2,0;0,0" begin="0s" dur="2s"
            repeatCount="indefinite" />
    </g>
    <g>
        <path
            d="M161.803 23.5717L162.596 22.7583C162.931 22.4139 163.474 22.4139 163.806 22.7583L170.748 29.8771C171.084 30.2215 171.084 30.7785 170.748 31.1192L163.806 38.2417C163.47 38.5861 162.928 38.5861 162.596 38.2417L161.803 37.4283C161.464 37.0803 161.471 36.5124 161.817 36.1716L166.12 31.9655H155.857C155.382 31.9655 155 31.5735 155 31.0862V29.9138C155 29.4265 155.382 29.0345 155.857 29.0345H166.12L161.817 24.8284C161.467 24.4876 161.46 23.9197 161.803 23.5717Z"
            fill="black" />
        <animateTransform attributeName="transform" type="translate" values="0,0; -3,0; 0,0; 3,0;0,0" begin="0s"
            dur="2s" repeatCount="indefinite" />
    </g>
    <path
        d="M43.3691 34.4434V36.5H36.9267V34.4434H43.3691ZM37.7793 23.7031V36.5H35.1425V23.7031H37.7793ZM53.4677 34.4434V36.5H46.6562V34.4434H53.4677ZM47.5175 23.7031V36.5H44.8808V23.7031H47.5175ZM52.58 28.915V30.9189H46.6562V28.915H52.58ZM53.459 23.7031V25.7686H46.6562V23.7031H53.459ZM60.209 25.8916L56.7285 36.5H53.9248L58.6797 23.7031H60.4638L60.209 25.8916ZM63.1006 36.5L59.6113 25.8916L59.33 23.7031H61.1318L65.9131 36.5H63.1006ZM62.9424 31.7363V33.8018H56.1836V31.7363H62.9424ZM67.0996 23.7031H71.872C72.8506 23.7031 73.6914 23.8496 74.3945 24.1426C75.1035 24.4355 75.6484 24.8691 76.0293 25.4434C76.4101 26.0176 76.6006 26.7236 76.6006 27.5615C76.6006 28.2471 76.4834 28.8359 76.249 29.3281C76.0205 29.8145 75.6953 30.2217 75.2734 30.5498C74.8574 30.8721 74.3681 31.1299 73.8056 31.3232L72.9707 31.7627H68.8222L68.8047 29.7061H71.8896C72.3525 29.7061 72.7363 29.624 73.041 29.46C73.3457 29.2959 73.5742 29.0674 73.7265 28.7744C73.8847 28.4814 73.9638 28.1416 73.9638 27.7549C73.9638 27.3447 73.8877 26.9902 73.7353 26.6914C73.583 26.3926 73.3515 26.1641 73.041 26.0059C72.7304 25.8477 72.3408 25.7686 71.872 25.7686H69.7363V36.5H67.0996V23.7031ZM74.2539 36.5L71.3359 30.7959L74.122 30.7783L77.0752 36.377V36.5H74.2539ZM89.0459 23.7031V36.5H86.4091L81.2675 27.9219V36.5H78.6308V23.7031H81.2675L86.4179 32.29V23.7031H89.0459ZM97.0263 23.7031H99.2588L102.546 33.0986L105.833 23.7031H108.065L103.442 36.5H101.649L97.0263 23.7031ZM95.8222 23.7031H98.0459L98.4502 32.8613V36.5H95.8222V23.7031ZM107.046 23.7031H109.278V36.5H106.642V32.8613L107.046 23.7031ZM122.102 29.8027V30.4092C122.102 31.3818 121.97 32.2549 121.706 33.0283C121.442 33.8018 121.07 34.4609 120.59 35.0059C120.109 35.5449 119.535 35.958 118.867 36.2451C118.205 36.5322 117.47 36.6758 116.661 36.6758C115.858 36.6758 115.123 36.5322 114.455 36.2451C113.793 35.958 113.219 35.5449 112.732 35.0059C112.246 34.4609 111.868 33.8018 111.599 33.0283C111.335 32.2549 111.203 31.3818 111.203 30.4092V29.8027C111.203 28.8242 111.335 27.9512 111.599 27.1836C111.862 26.4102 112.234 25.751 112.715 25.2061C113.201 24.6611 113.775 24.2451 114.437 23.958C115.105 23.6709 115.841 23.5273 116.644 23.5273C117.452 23.5273 118.187 23.6709 118.85 23.958C119.518 24.2451 120.092 24.6611 120.572 25.2061C121.059 25.751 121.434 26.4102 121.697 27.1836C121.967 27.9512 122.102 28.8242 122.102 29.8027ZM119.438 30.4092V29.7852C119.438 29.1055 119.377 28.5078 119.254 27.9922C119.131 27.4766 118.949 27.043 118.709 26.6914C118.469 26.3398 118.176 26.0762 117.83 25.9004C117.484 25.7188 117.089 25.6279 116.644 25.6279C116.198 25.6279 115.803 25.7188 115.457 25.9004C115.117 26.0762 114.827 26.3398 114.587 26.6914C114.353 27.043 114.174 27.4766 114.051 27.9922C113.928 28.5078 113.866 29.1055 113.866 29.7852V30.4092C113.866 31.083 113.928 31.6807 114.051 32.2021C114.174 32.7178 114.355 33.1543 114.596 33.5117C114.836 33.8633 115.129 34.1299 115.475 34.3115C115.82 34.4932 116.216 34.584 116.661 34.584C117.106 34.584 117.502 34.4932 117.848 34.3115C118.193 34.1299 118.483 33.8633 118.718 33.5117C118.952 33.1543 119.131 32.7178 119.254 32.2021C119.377 31.6807 119.438 31.083 119.438 30.4092ZM124 23.7031H128.772C129.751 23.7031 130.592 23.8496 131.295 24.1426C132.004 24.4355 132.549 24.8691 132.93 25.4434C133.311 26.0176 133.501 26.7236 133.501 27.5615C133.501 28.2471 133.384 28.8359 133.149 29.3281C132.921 29.8145 132.596 30.2217 132.174 30.5498C131.758 30.8721 131.269 31.1299 130.706 31.3232L129.871 31.7627H125.723L125.705 29.7061H128.79C129.253 29.7061 129.637 29.624 129.941 29.46C130.246 29.2959 130.475 29.0674 130.627 28.7744C130.785 28.4814 130.864 28.1416 130.864 27.7549C130.864 27.3447 130.788 26.9902 130.636 26.6914C130.483 26.3926 130.252 26.1641 129.941 26.0059C129.631 25.8477 129.241 25.7686 128.772 25.7686H126.637V36.5H124V23.7031ZM131.154 36.5L128.236 30.7959L131.022 30.7783L133.976 36.377V36.5H131.154ZM144.118 34.4434V36.5H137.307V34.4434H144.118ZM138.168 23.7031V36.5H135.531V23.7031H138.168ZM143.23 28.915V30.9189H137.307V28.915H143.23ZM144.109 23.7031V25.7686H137.307V23.7031H144.109Z"
        fill="black" />
</svg>