<svg width="55" height="53" viewBox="0 0 55 53" fill="none" xmlns="http://www.w3.org/2000/svg">
<path d="M30.0505 24.4905V27.6635C30.0505 27.7438 29.9871 27.8063 29.9055 27.8063H29.3892C29.3394 27.8063 29.2941 27.7795 29.2714 27.7483L27.7949 25.7847V27.6679C27.7949 27.7483 27.7315 27.8107 27.6499 27.8107H27.1336C27.0521 27.8107 26.9887 27.7483 26.9887 27.6679V24.4949C26.9887 24.4146 27.0521 24.3521 27.1336 24.3521H27.6454C27.6907 24.3521 27.7405 24.3744 27.7632 24.4146L29.2397 26.3782V24.4949C29.2397 24.4146 29.3031 24.3521 29.3847 24.3521H29.901C29.9825 24.3477 30.0505 24.4146 30.0505 24.4905ZM26.3364 24.3477H25.8201C25.7386 24.3477 25.6752 24.4101 25.6752 24.4905V27.6635C25.6752 27.7438 25.7386 27.8063 25.8201 27.8063H26.3364C26.418 27.8063 26.4814 27.7438 26.4814 27.6635V24.4905C26.4814 24.4146 26.418 24.3477 26.3364 24.3477ZM25.0909 27.0074H23.6823V24.4905C23.6823 24.4101 23.6188 24.3477 23.5373 24.3477H23.021C22.9394 24.3477 22.876 24.4101 22.876 24.4905V27.6635C22.876 27.7036 22.8896 27.7349 22.9168 27.7616C22.944 27.784 22.9757 27.8018 23.0164 27.8018H25.0863C25.1679 27.8018 25.2313 27.7393 25.2313 27.659V27.1502C25.2313 27.0744 25.1679 27.0074 25.0909 27.0074ZM32.7681 24.3477H30.6982C30.6212 24.3477 30.5532 24.4101 30.5532 24.4905V27.6635C30.5532 27.7393 30.6166 27.8063 30.6982 27.8063H32.7681C32.8496 27.8063 32.913 27.7438 32.913 27.6635V27.1547C32.913 27.0744 32.8496 27.0119 32.7681 27.0119H31.3595V26.4764H32.7681C32.8496 26.4764 32.913 26.4139 32.913 26.3336V25.8204C32.913 25.74 32.8496 25.6776 32.7681 25.6776H31.3595V25.142H32.7681C32.8496 25.142 32.913 25.0795 32.913 24.9992V24.4905C32.9085 24.4146 32.8451 24.3477 32.7681 24.3477ZM38.0176 20.4517V33.1838C38.013 35.1831 36.3508 36.8031 34.3171 36.7986H21.3949C19.3658 36.7942 17.7217 35.1519 17.7262 33.1526V20.4205C17.7307 18.4212 19.3975 16.8012 21.4266 16.8057H34.3488C36.3779 16.8101 38.0221 18.448 38.0176 20.4517ZM35.2275 25.923C35.2275 22.6652 31.912 20.0144 27.8402 20.0144C23.7683 20.0144 20.4528 22.6652 20.4528 25.923C20.4528 28.8416 23.0799 31.2872 26.6308 31.7513C27.4959 31.9343 27.3963 32.2467 27.2015 33.3936C27.1698 33.5766 27.0521 34.1121 27.8402 33.7863C28.6283 33.4605 32.0932 31.3184 33.6468 29.5601C34.7157 28.3998 35.2275 27.2261 35.2275 25.923Z" fill="#B9B9B9"/>
<path opacity="0.5" d="M54.0508 26.6437C54.0508 40.9682 42.2635 52.5905 27.7109 52.5905C13.1582 52.5905 1.37092 40.9682 1.37092 26.6437C1.37092 12.3191 13.1582 0.696844 27.7109 0.696844C42.2635 0.696844 54.0508 12.3191 54.0508 26.6437Z" stroke="#B9B9B9" stroke-width="0.786267"/>
</svg>
