<svg width="53" height="53" viewBox="0 0 53 53" fill="none" xmlns="http://www.w3.org/2000/svg">
<circle opacity="0.5" cx="26.3399" cy="26.3399" r="25.9468" stroke="#B9B9B9" stroke-width="0.786267"/>
<path d="M35.5 16H17.4953C16.6703 16 16 16.6797 16 17.5141V35.4859C16 36.3203 16.6703 37 17.4953 37H35.5C36.325 37 37 36.3203 37 35.4859V17.5141C37 16.6797 36.325 16 35.5 16ZM22.3469 34H19.2344V23.9781H22.3516V34H22.3469ZM20.7906 22.6094C19.7922 22.6094 18.9859 21.7984 18.9859 20.8047C18.9859 19.8109 19.7922 19 20.7906 19C21.7844 19 22.5953 19.8109 22.5953 20.8047C22.5953 21.8031 21.7891 22.6094 20.7906 22.6094ZM34.0141 34H30.9016V29.125C30.9016 27.9625 30.8781 26.4672 29.2844 26.4672C27.6625 26.4672 27.4141 27.7328 27.4141 29.0406V34H24.3016V23.9781H27.2875V25.3469H27.3297C27.7469 24.5594 28.7641 23.7297 30.2781 23.7297C33.4281 23.7297 34.0141 25.8062 34.0141 28.5062V34Z" fill="#B9B9B9"/>
</svg>
