<svg width="352" height="110" viewBox="0 0 352 110" fill="none" xmlns="http://www.w3.org/2000/svg">
<g filter="url(#filter0_d_146_224)">
<g filter="url(#filter1_d_146_224)">
<path fill-rule="evenodd" clip-rule="evenodd" d="M22.3032 46.6873L11.1967 40.3646V53.0101H4.00008V30.6221C3.99729 30.3593 4.06534 30.1006 4.19767 29.8725C4.33001 29.6445 4.52174 29.4555 4.75276 29.3251C4.98377 29.1946 5.24546 29.1275 5.51151 29.1306C5.77756 29.1337 6.03821 29.2071 6.26601 29.3429L25.8896 40.5122L22.3032 46.6873ZM29.6606 43.0603L49.1602 54.0676C49.3552 54.2094 49.5122 54.3952 49.6181 54.609C49.724 54.8229 49.7758 55.0586 49.7685 55.2961C49.7613 55.5336 49.6952 55.7659 49.5764 55.9732C49.4576 56.1805 49.2893 56.3567 49.0859 56.4868L6.25161 80.6788C6.02216 80.8055 5.76297 80.8713 5.49946 80.8696C5.23594 80.8679 4.97744 80.7987 4.74973 80.6691C4.52201 80.5394 4.33272 80.3538 4.20118 80.1306C4.06964 79.9073 4.00049 79.6542 4 79.3966V57.4061H11.1511V69.8408L19.7872 55.3256H37.1089L26.0726 49.1083L29.6606 43.0603Z" fill="#FC981C"/>
</g>
<g filter="url(#filter2_d_146_224)">
<path d="M88.0442 66.85H100.364L99.0992 74H77.3742L84.1942 35.39H93.5992L88.0442 66.85ZM117.61 74.44C114.97 74.44 112.623 73.9083 110.57 72.845C108.517 71.7817 106.922 70.2783 105.785 68.335C104.685 66.3917 104.135 64.1367 104.135 61.57C104.135 58.0867 104.96 54.915 106.61 52.055C108.26 49.195 110.533 46.9583 113.43 45.345C116.327 43.695 119.553 42.87 123.11 42.87C125.75 42.87 128.097 43.42 130.15 44.52C132.24 45.5833 133.853 47.0867 134.99 49.03C136.127 50.9733 136.695 53.2283 136.695 55.795C136.695 59.315 135.852 62.505 134.165 65.365C132.515 68.1883 130.223 70.4067 127.29 72.02C124.393 73.6333 121.167 74.44 117.61 74.44ZM118.93 66.355C120.47 66.355 121.845 65.8967 123.055 64.98C124.302 64.0267 125.255 62.8167 125.915 61.35C126.612 59.8467 126.96 58.2883 126.96 56.675C126.96 54.8417 126.465 53.43 125.475 52.44C124.485 51.45 123.238 50.955 121.735 50.955C120.158 50.955 118.765 51.4317 117.555 52.385C116.382 53.3017 115.465 54.5117 114.805 56.015C114.145 57.5183 113.815 59.095 113.815 60.745C113.815 62.5417 114.292 63.935 115.245 64.925C116.198 65.8783 117.427 66.355 118.93 66.355ZM139.485 58.655C140.035 55.465 141.171 52.6783 142.895 50.295C144.618 47.9117 146.745 46.0783 149.275 44.795C151.841 43.5117 154.628 42.87 157.635 42.87C161.485 42.87 164.528 43.8783 166.765 45.895C169.001 47.9117 170.193 50.7533 170.34 54.42H160.33C159.926 52.0733 158.496 50.9 156.04 50.9C154.316 50.9 152.831 51.5783 151.585 52.935C150.338 54.255 149.495 56.1617 149.055 58.655C148.908 59.425 148.835 60.2317 148.835 61.075C148.835 62.7983 149.238 64.1183 150.045 65.035C150.851 65.9517 151.951 66.41 153.345 66.41C155.765 66.41 157.58 65.2367 158.79 62.89H168.855C167.425 66.4833 165.225 69.3067 162.255 71.36C159.285 73.4133 155.893 74.44 152.08 74.44C148.12 74.44 144.966 73.3583 142.62 71.195C140.31 68.995 139.155 66.0067 139.155 62.23C139.155 61.0933 139.265 59.9017 139.485 58.655ZM172.785 58.6C173.335 55.4467 174.417 52.6783 176.03 50.295C177.644 47.9117 179.587 46.0783 181.86 44.795C184.134 43.5117 186.535 42.87 189.065 42.87C191.229 42.87 193.044 43.31 194.51 44.19C195.977 45.07 197.04 46.225 197.7 47.655L198.47 43.31H207.875L202.43 74H193.025L193.85 69.655C192.677 71.085 191.192 72.24 189.395 73.12C187.599 74 185.619 74.44 183.455 74.44C181.292 74.44 179.367 73.945 177.68 72.955C176.03 71.965 174.747 70.5717 173.83 68.775C172.914 66.9417 172.455 64.7967 172.455 62.34C172.455 61.1667 172.565 59.92 172.785 58.6ZM195.775 58.655C195.885 57.995 195.94 57.39 195.94 56.84C195.94 55.0433 195.409 53.6317 194.345 52.605C193.319 51.5783 191.999 51.065 190.385 51.065C188.515 51.065 186.81 51.7433 185.27 53.1C183.73 54.42 182.759 56.2533 182.355 58.6C182.245 59.26 182.19 59.865 182.19 60.415C182.19 62.2117 182.704 63.6417 183.73 64.705C184.794 65.7317 186.114 66.245 187.69 66.245C189.56 66.245 191.265 65.5667 192.805 64.21C194.345 62.8533 195.335 61.0017 195.775 58.655ZM221.995 63.44C221.958 63.6233 221.94 63.8617 221.94 64.155C221.94 64.815 222.123 65.2917 222.49 65.585C222.893 65.8783 223.535 66.025 224.415 66.025H227.77L226.34 74H221.555C215.395 74 212.315 71.415 212.315 66.245C212.315 65.475 212.406 64.5033 212.59 63.33L214.79 51.12H211.05L212.425 43.31H216.165L217.485 35.83H226.89L225.57 43.31H231.73L230.355 51.12H224.195L221.995 63.44ZM242.303 40.12C240.837 40.12 239.663 39.735 238.783 38.965C237.94 38.1583 237.518 37.15 237.518 35.94C237.518 34.29 238.16 32.8783 239.443 31.705C240.727 30.5317 242.285 29.945 244.118 29.945C245.585 29.945 246.74 30.3483 247.583 31.155C248.427 31.925 248.848 32.9333 248.848 34.18C248.848 35.7933 248.207 37.1867 246.923 38.36C245.64 39.5333 244.1 40.12 242.303 40.12ZM246.373 43.31L240.983 74H231.578L236.968 43.31H246.373ZM261.824 74.44C259.184 74.44 256.837 73.9083 254.784 72.845C252.731 71.7817 251.136 70.2783 249.999 68.335C248.899 66.3917 248.349 64.1367 248.349 61.57C248.349 58.0867 249.174 54.915 250.824 52.055C252.474 49.195 254.747 46.9583 257.644 45.345C260.541 43.695 263.767 42.87 267.324 42.87C269.964 42.87 272.311 43.42 274.364 44.52C276.454 45.5833 278.067 47.0867 279.204 49.03C280.341 50.9733 280.909 53.2283 280.909 55.795C280.909 59.315 280.066 62.505 278.379 65.365C276.729 68.1883 274.437 70.4067 271.504 72.02C268.607 73.6333 265.381 74.44 261.824 74.44ZM263.144 66.355C264.684 66.355 266.059 65.8967 267.269 64.98C268.516 64.0267 269.469 62.8167 270.129 61.35C270.826 59.8467 271.174 58.2883 271.174 56.675C271.174 54.8417 270.679 53.43 269.689 52.44C268.699 51.45 267.452 50.955 265.949 50.955C264.372 50.955 262.979 51.4317 261.769 52.385C260.596 53.3017 259.679 54.5117 259.019 56.015C258.359 57.5183 258.029 59.095 258.029 60.745C258.029 62.5417 258.506 63.935 259.459 64.925C260.412 65.8783 261.641 66.355 263.144 66.355ZM306.964 42.98C310.044 42.98 312.464 43.8417 314.224 45.565C315.984 47.2883 316.864 49.69 316.864 52.77C316.864 53.7967 316.754 54.8967 316.534 56.07L313.344 74H303.994L306.964 57.335C307.074 56.7117 307.129 56.1617 307.129 55.685C307.129 54.145 306.689 52.9533 305.809 52.11C304.965 51.2667 303.774 50.845 302.234 50.845C300.4 50.845 298.86 51.4133 297.614 52.55C296.367 53.6867 295.56 55.2817 295.194 57.335V57.06L292.224 74H282.819L288.209 43.31H297.614L296.899 47.435C298.109 46.0783 299.575 44.9967 301.299 44.19C303.059 43.3833 304.947 42.98 306.964 42.98ZM332.639 74.44C330.219 74.44 328.037 74.055 326.094 73.285C324.187 72.515 322.684 71.4517 321.584 70.095C320.484 68.7017 319.934 67.1067 319.934 65.31C319.934 65.0533 319.971 64.595 320.044 63.935H329.119C329.046 65.0717 329.376 65.9883 330.109 66.685C330.879 67.345 331.961 67.675 333.354 67.675C334.527 67.675 335.499 67.455 336.269 67.015C337.039 66.575 337.424 65.9517 337.424 65.145C337.424 64.375 337.002 63.77 336.159 63.33C335.352 62.8533 333.996 62.285 332.089 61.625C330.109 60.965 328.441 60.3233 327.084 59.7C325.764 59.04 324.627 58.105 323.674 56.895C322.721 55.685 322.244 54.1633 322.244 52.33C322.244 50.5333 322.776 48.92 323.839 47.49C324.902 46.0233 326.387 44.8867 328.294 44.08C330.237 43.2733 332.474 42.87 335.004 42.87C337.534 42.87 339.734 43.2917 341.604 44.135C343.474 44.9417 344.922 46.0783 345.949 47.545C346.976 49.0117 347.489 50.6617 347.489 52.495L347.434 53.32H338.909C338.982 52.22 338.652 51.34 337.919 50.68C337.186 50.02 336.141 49.69 334.784 49.69C333.721 49.69 332.841 49.91 332.144 50.35C331.484 50.79 331.154 51.395 331.154 52.165C331.154 52.9717 331.594 53.65 332.474 54.2C333.391 54.7133 334.802 55.3 336.709 55.96C338.689 56.62 340.321 57.28 341.604 57.94C342.924 58.5633 344.042 59.4617 344.959 60.635C345.912 61.7717 346.389 63.2017 346.389 64.925C346.389 66.905 345.784 68.61 344.574 70.04C343.401 71.47 341.769 72.57 339.679 73.34C337.626 74.0733 335.279 74.44 332.639 74.44Z" fill="#FC981C"/>
</g>
</g>
<defs>
<filter id="filter0_d_146_224" x="0" y="0" width="354.769" height="118" filterUnits="userSpaceOnUse" color-interpolation-filters="sRGB">
<feFlood flood-opacity="0" result="BackgroundImageFix"/>
<feColorMatrix in="SourceAlpha" type="matrix" values="0 0 0 0 0 0 0 0 0 0 0 0 0 0 0 0 0 0 127 0" result="hardAlpha"/>
<feOffset dy="4"/>
<feGaussianBlur stdDeviation="2"/>
<feComposite in2="hardAlpha" operator="out"/>
<feColorMatrix type="matrix" values="0 0 0 0 0 0 0 0 0 0 0 0 0 0 0 0 0 0 0.25 0"/>
<feBlend mode="normal" in2="BackgroundImageFix" result="effect1_dropShadow_146_224"/>
<feBlend mode="normal" in="SourceGraphic" in2="effect1_dropShadow_146_224" result="shape"/>
</filter>
<filter id="filter1_d_146_224" x="0" y="29.1305" width="53.7692" height="59.7391" filterUnits="userSpaceOnUse" color-interpolation-filters="sRGB">
<feFlood flood-opacity="0" result="BackgroundImageFix"/>
<feColorMatrix in="SourceAlpha" type="matrix" values="0 0 0 0 0 0 0 0 0 0 0 0 0 0 0 0 0 0 127 0" result="hardAlpha"/>
<feOffset dy="4"/>
<feGaussianBlur stdDeviation="2"/>
<feComposite in2="hardAlpha" operator="out"/>
<feColorMatrix type="matrix" values="0 0 0 0 0 0 0 0 0 0 0 0 0 0 0 0 0 0 0 0"/>
<feBlend mode="normal" in2="BackgroundImageFix" result="effect1_dropShadow_146_224"/>
<feBlend mode="normal" in="SourceGraphic" in2="effect1_dropShadow_146_224" result="shape"/>
</filter>
<filter id="filter2_d_146_224" x="73.3742" y="29.9449" width="278.115" height="52.495" filterUnits="userSpaceOnUse" color-interpolation-filters="sRGB">
<feFlood flood-opacity="0" result="BackgroundImageFix"/>
<feColorMatrix in="SourceAlpha" type="matrix" values="0 0 0 0 0 0 0 0 0 0 0 0 0 0 0 0 0 0 127 0" result="hardAlpha"/>
<feOffset dy="4"/>
<feGaussianBlur stdDeviation="2"/>
<feComposite in2="hardAlpha" operator="out"/>
<feColorMatrix type="matrix" values="0 0 0 0 0 0 0 0 0 0 0 0 0 0 0 0 0 0 0 0"/>
<feBlend mode="normal" in2="BackgroundImageFix" result="effect1_dropShadow_146_224"/>
<feBlend mode="normal" in="SourceGraphic" in2="effect1_dropShadow_146_224" result="shape"/>
</filter>
</defs>
</svg>
