<svg width="823" height="798" viewBox="0 0 823 798" fill="none" xmlns="http://www.w3.org/2000/svg">
<g opacity="0.5">
<g filter="url(#filter0_f_29_1646)">
<ellipse cx="644.544" cy="240.512" rx="135.592" ry="135.78" fill="url(#paint0_radial_29_1646)"/>
<animate attributeName="opacity"
         values="0.7;1;0.7" dur="2s"
         begin='0s'
         repeatCount="indefinite"/>
</g>
<g filter="url(#filter2_f_29_1646)">
<ellipse cx="463.856" cy="393.5" rx="181.248" ry="180.5" fill="url(#paint2_radial_29_1646)"/>
<animate attributeName="opacity"
         values="0.7;1;0.7" dur="2s"
         begin='0.5s'
         repeatCount="indefinite"/>
</g>
<g filter="url(#filter1_f_29_1646)">
<ellipse cx="315.976" cy="579.732" rx="96.7193" ry="96.8537" fill="url(#paint1_radial_29_1646)"/>
<animate attributeName="opacity"
         values="0.7;1;0.7" dur="2s"
         begin='1s'
         repeatCount="indefinite"/>
</g>
</g>
<g filter="url(#filter3_d_29_1646)">
<mask id="mask0_29_1646" style="mask-type:alpha" maskUnits="userSpaceOnUse" x="-52" y="0" width="797" height="798">
<rect x="-51.9279" width="796.893" height="798" fill="url(#paint3_radial_29_1646)"/>
</mask>
<g mask="url(#mask0_29_1646)">
<g filter="url(#filter4_d_29_1646)">
<path d="M87.5836 204.879L80.8331 208.258L74.0825 204.879V194.739L80.8331 191.359L87.5836 194.739V204.879Z" fill="#B9B9B9"/>
<path d="M106.173 204.879L99.4227 208.258L92.6722 204.879V194.739L99.4227 191.359L106.173 194.739V204.879Z" fill="#B9B9B9"/>
<path d="M560.97 252.593L554.219 255.973L547.469 252.593V242.453L554.219 239.073L560.97 242.453V252.593Z" fill="#B9B9B9"/>
<path d="M180.402 363.96L173.651 367.34L166.901 363.96V353.82L173.651 350.44L180.402 353.82V363.96Z" fill="#B9B9B9"/>
<path d="M282.515 379.865L275.765 383.245L269.014 379.865V369.725L275.765 366.345L282.515 369.725V379.865Z" fill="#B9B9B9"/>
<path d="M217.549 395.77L210.798 399.15L204.048 395.77V385.63L210.798 382.25L217.549 385.63V395.77Z" fill="#B9B9B9"/>
<path d="M273.22 395.77L266.47 399.15L259.719 395.77V385.63L266.47 382.25L273.22 385.63V395.77Z" fill="#B9B9B9"/>
<path d="M226.811 411.675L220.061 415.055L213.31 411.675V401.535L220.061 398.155L226.811 401.535V411.675Z" fill="#B9B9B9"/>
<path d="M245.401 411.675L238.65 415.055L231.9 411.675V401.535L238.65 398.155L245.401 401.535V411.675Z" fill="#B9B9B9"/>
<path d="M263.958 411.675L257.207 415.055L250.457 411.675V401.535L257.207 398.155L263.958 401.535V411.675Z" fill="#B9B9B9"/>
<path d="M282.515 411.675L275.765 415.055L269.014 411.675V401.535L275.765 398.155L282.515 401.535V411.675Z" fill="#B9B9B9"/>
<path d="M254.663 427.579L247.913 430.959L241.162 427.579V417.44L247.913 414.06L254.663 417.44V427.579Z" fill="#B9B9B9"/>
<path d="M273.22 427.579L266.47 430.959L259.719 427.579V417.44L266.47 414.06L273.22 417.44V427.579Z" fill="#B9B9B9"/>
<path d="M291.81 427.579L285.059 430.959L278.309 427.579V417.44L285.059 414.06L291.81 417.44V427.579Z" fill="#B9B9B9"/>
<path d="M282.515 443.484L275.765 446.864L269.014 443.484V433.344L275.765 429.964L282.515 433.344V443.484Z" fill="#B9B9B9"/>
<path d="M301.072 443.484L294.322 446.864L287.571 443.484V433.344L294.322 429.964L301.072 433.344V443.484Z" fill="#B9B9B9"/>
<path d="M319.629 443.484L312.879 446.864L306.128 443.484V433.344L312.879 429.964L319.629 433.344V443.484Z" fill="#B9B9B9"/>
<path d="M338.219 443.484L331.469 446.864L324.718 443.484V433.344L331.469 429.964L338.219 433.344V443.484Z" fill="#B9B9B9"/>
<path d="M273.22 459.389L266.47 462.769L259.719 459.389V449.25L266.47 445.87L273.22 449.25V459.389Z" fill="#B9B9B9"/>
<path d="M291.81 459.389L285.059 462.769L278.309 459.389V449.25L285.059 445.87L291.81 449.25V459.389Z" fill="#B9B9B9"/>
<path d="M310.367 459.389L303.617 462.769L296.866 459.389V449.25L303.617 445.87L310.367 449.25V459.389Z" fill="#B9B9B9"/>
<path d="M328.924 459.389L322.174 462.769L315.423 459.389V449.25L322.174 445.87L328.924 449.25V459.389Z" fill="#B9B9B9"/>
<path d="M282.515 475.294L275.765 478.674L269.014 475.294V465.154L275.765 461.774L282.515 465.154V475.294Z" fill="#B9B9B9"/>
<path d="M301.072 475.294L294.322 478.674L287.571 475.294V465.154L294.322 461.774L301.072 465.154V475.294Z" fill="#B9B9B9"/>
<path d="M319.629 475.294L312.879 478.674L306.128 475.294V465.154L312.879 461.774L319.629 465.154V475.294Z" fill="#B9B9B9"/>
<path d="M338.219 475.294L331.469 478.674L324.718 475.294V465.154L331.469 461.774L338.219 465.154V475.294Z" fill="#B9B9B9"/>
<path d="M356.776 475.294L350.026 478.674L343.275 475.294V465.154L350.026 461.774L356.776 465.154V475.294Z" fill="#B9B9B9"/>
<path d="M486.709 475.294L479.958 478.674L473.208 475.294V465.154L479.958 461.774L486.709 465.154V475.294Z" fill="#B9B9B9"/>
<path d="M310.367 491.199L303.617 494.579L296.866 491.199V481.059L303.617 477.679L310.367 481.059V491.199Z" fill="#B9B9B9"/>
<path d="M328.924 491.199L322.174 494.579L315.423 491.199V481.059L322.174 477.679L328.924 481.059V491.199Z" fill="#B9B9B9"/>
<path d="M347.481 491.199L340.731 494.579L333.98 491.199V481.059L340.731 477.679L347.481 481.059V491.199Z" fill="#B9B9B9"/>
<path d="M366.039 491.199L359.288 494.579L352.537 491.199V481.059L359.288 477.679L366.039 481.059V491.199Z" fill="#B9B9B9"/>
<path d="M496.004 491.199L489.253 494.579L482.503 491.199V481.059L489.253 477.679L496.004 481.059V491.199Z" fill="#B9B9B9"/>
<path d="M338.219 507.104L331.469 510.484L324.718 507.104V496.964L331.469 493.584L338.219 496.964V507.104Z" fill="#B9B9B9"/>
<path d="M356.776 507.104L350.026 510.484L343.275 507.104V496.964L350.026 493.584L356.776 496.964V507.104Z" fill="#B9B9B9"/>
<path d="M505.299 507.104L498.548 510.484L491.797 507.104V496.964L498.548 493.584L505.299 496.964V507.104Z" fill="#B9B9B9"/>
<path d="M328.924 523.009L322.174 526.389L315.423 523.009V512.869L322.174 509.489L328.924 512.869V523.009Z" fill="#B9B9B9"/>
<path d="M347.481 523.009L340.731 526.389L333.98 523.009V512.869L340.731 509.489L347.481 512.869V523.009Z" fill="#B9B9B9"/>
<path d="M533.118 523.009L526.367 526.389L519.617 523.009V512.869L526.367 509.489L533.118 512.869V523.009Z" fill="#B9B9B9"/>
<path d="M468.152 538.914L461.401 542.294L454.651 538.914V528.774L461.401 525.394L468.152 528.774V538.914Z" fill="#B9B9B9"/>
<path d="M505.299 538.914L498.548 542.294L491.797 538.914V528.774L498.548 525.394L505.299 528.774V538.914Z" fill="#B9B9B9"/>
<path d="M124.731 554.818L117.98 558.198L111.229 554.818V544.679L117.98 541.299L124.731 544.679V554.818Z" fill="#B9B9B9"/>
<path d="M291.81 554.818L285.059 558.198L278.309 554.818V544.679L285.059 541.299L291.81 544.679V554.818Z" fill="#B9B9B9"/>
<path d="M514.561 554.818L507.81 558.198L501.06 554.818V544.679L507.81 541.299L514.561 544.679V554.818Z" fill="#B9B9B9"/>
<path d="M533.118 554.818L526.367 558.198L519.617 554.818V544.679L526.367 541.299L533.118 544.679V554.818Z" fill="#B9B9B9"/>
<path d="M301.072 570.723L294.322 574.103L287.571 570.723V560.584L294.322 557.204L301.072 560.584V570.723Z" fill="#B9B9B9"/>
<path d="M449.595 570.723L442.844 574.103L436.093 570.723V560.584L442.844 557.204L449.595 560.584V570.723Z" fill="#B9B9B9"/>
<path d="M523.856 570.723L517.105 574.103L510.355 570.723V560.584L517.105 557.204L523.856 560.584V570.723Z" fill="#B9B9B9"/>
<path d="M440.3 586.661L433.549 590.041L426.799 586.661V576.521L433.549 573.141L440.3 576.521V586.661Z" fill="#B9B9B9"/>
<path d="M458.89 586.661L452.139 590.041L445.388 586.661V576.521L452.139 573.141L458.89 576.521V586.661Z" fill="#B9B9B9"/>
<path d="M412.448 602.566L405.697 605.946L398.947 602.566V592.426L405.697 589.046L412.448 592.426V602.566Z" fill="#B9B9B9"/>
<path d="M431.037 602.566L424.287 605.946L417.536 602.566V592.426L424.287 589.046L431.037 592.426V602.566Z" fill="#B9B9B9"/>
<path d="M22.6173 252.593L15.8668 255.973L9.11621 252.593V242.453L15.8668 239.073L22.6173 242.453V252.593Z" fill="#B9B9B9"/>
<path d="M31.9122 236.688L25.1617 240.068L18.4111 236.688V226.549L25.1617 223.169L31.9122 226.549V236.688Z" fill="#B9B9B9"/>
<path d="M59.7316 252.593L52.981 255.973L46.2305 252.593V242.453L52.981 239.073L59.7316 242.453V252.593Z" fill="#B9B9B9"/>
<path d="M41.1746 252.593L34.424 255.973L27.6735 252.593V242.453L34.424 239.073L41.1746 242.453V252.593Z" fill="#B9B9B9"/>
<path d="M13.3225 236.688L6.57197 240.068L-0.178589 236.688V226.549L6.57197 223.169L13.3225 226.549V236.688Z" fill="#B9B9B9"/>
<path d="M78.3214 220.784L71.5709 224.163L64.8203 220.784V210.644L71.5709 207.264L78.3214 210.644V220.784Z" fill="#B9B9B9"/>
<path d="M59.7316 220.784L52.981 224.163L46.2305 220.784V210.644L52.981 207.264L59.7316 210.644V220.784Z" fill="#B9B9B9"/>
<path d="M291.81 523.009L285.059 526.389L278.309 523.009V512.869L285.059 509.489L291.81 512.869V523.009Z" fill="#B9B9B9"/>
<path d="M319.629 507.104L312.879 510.484L306.128 507.104V496.964L312.879 493.584L319.629 496.964V507.104Z" fill="#B9B9B9"/>
<path d="M291.81 491.199L285.059 494.579L278.309 491.199V481.059L285.059 477.679L291.81 481.059V491.199Z" fill="#B9B9B9"/>
<path d="M263.958 475.294L257.207 478.674L250.457 475.294V465.154L257.207 461.774L263.958 465.154V475.294Z" fill="#B9B9B9"/>
<path d="M254.663 459.389L247.913 462.769L241.162 459.389V449.25L247.913 445.87L254.663 449.25V459.389Z" fill="#B9B9B9"/>
<path d="M245.401 443.484L238.65 446.864L231.9 443.484V433.344L238.65 429.964L245.401 433.344V443.484Z" fill="#B9B9B9"/>
<path d="M236.106 427.579L229.355 430.959L222.605 427.579V417.44L229.355 414.06L236.106 417.44V427.579Z" fill="#B9B9B9"/>
<path d="M208.254 411.675L201.503 415.055L194.753 411.675V401.535L201.503 398.155L208.254 401.535V411.675Z" fill="#B9B9B9"/>
<path d="M254.663 395.77L247.913 399.15L241.162 395.77V385.63L247.913 382.25L254.663 385.63V395.77Z" fill="#B9B9B9"/>
<path d="M198.992 395.77L192.241 399.15L185.491 395.77V385.63L192.241 382.25L198.992 385.63V395.77Z" fill="#B9B9B9"/>
<path d="M263.958 379.865L257.207 383.245L250.457 379.865V369.725L257.207 366.345L263.958 369.725V379.865Z" fill="#B9B9B9"/>
<path d="M143.288 363.96L136.537 367.34L129.786 363.96V353.82L136.537 350.44L143.288 353.82V363.96Z" fill="#B9B9B9"/>
<path d="M133.993 348.055L127.242 351.435L120.492 348.055V337.915L127.242 334.535L133.993 337.915V348.055Z" fill="#B9B9B9"/>
<path d="M106.173 523.009L99.4227 526.389L92.6722 523.009V512.869L99.4227 509.489L106.173 512.869V523.009Z" fill="#B9B9B9"/>
<path d="M115.435 507.104L108.685 510.484L101.934 507.104V496.964L108.685 493.584L115.435 496.964V507.104Z" fill="#B9B9B9"/>
<path d="M78.3214 507.104L71.5709 510.484L64.8203 507.104V496.964L71.5709 493.584L78.3214 496.964V507.104Z" fill="#B9B9B9"/>
<path d="M106.173 395.77L99.4227 399.15L92.6722 395.77V385.63L99.4227 382.25L106.173 385.63V395.77Z" fill="#B9B9B9"/>
<path d="M115.435 379.865L108.685 383.245L101.934 379.865V369.725L108.685 366.345L115.435 369.725V379.865Z" fill="#B9B9B9"/>
<path d="M96.8787 379.865L90.1281 383.245L83.3776 379.865V369.725L90.1281 366.345L96.8787 369.725V379.865Z" fill="#B9B9B9"/>
<path d="M59.7316 379.865L52.981 383.245L46.2305 379.865V369.725L52.981 366.345L59.7316 369.725V379.865Z" fill="#B9B9B9"/>
<path d="M50.4694 363.96L43.7188 367.34L36.9683 363.96V353.82L43.7188 350.44L50.4694 353.82V363.96Z" fill="#B9B9B9"/>
<path d="M217.549 363.96L210.798 367.34L204.048 363.96V353.82L210.798 350.44L217.549 353.82V363.96Z" fill="#B9B9B9"/>
<path d="M551.708 268.498L544.957 271.878L538.207 268.498V258.358L544.957 254.978L551.708 258.358V268.498Z" fill="#B9B9B9"/>
<path d="M523.856 252.593L517.105 255.973L510.355 252.593V242.453L517.105 239.073L523.856 242.453V252.593Z" fill="#B9B9B9"/>
<path d="M533.118 236.688L526.367 240.068L519.617 236.688V226.549L526.367 223.169L533.118 226.549V236.688Z" fill="#B9B9B9"/>
<path d="M542.413 220.784L535.662 224.163L528.912 220.784V210.644L535.662 207.264L542.413 210.644V220.784Z" fill="#B9B9B9"/>
<path d="M50.4694 236.688L43.7188 240.068L36.9683 236.688V226.549L43.7188 223.169L50.4694 226.549V236.688Z" fill="#B9B9B9"/>
<path d="M96.8787 507.104L90.1281 510.484L83.3776 507.104V496.964L90.1281 493.584L96.8787 496.964V507.104Z" fill="#B9B9B9"/>
<path d="M106.173 491.199L99.4227 494.579L92.6722 491.199V481.059L99.4227 477.679L106.173 481.059V491.199Z" fill="#B9B9B9"/>
<path d="M87.5836 491.199L80.8331 494.579L74.0825 491.199V481.059L80.8331 477.679L87.5836 481.059V491.199Z" fill="#B9B9B9"/>
<path d="M69.0265 491.199L62.2759 494.579L55.5254 491.199V481.059L62.2759 477.679L69.0265 481.059V491.199Z" fill="#B9B9B9"/>
<path d="M133.993 475.294L127.242 478.674L120.492 475.294V465.154L127.242 461.774L133.993 465.154V475.294Z" fill="#B9B9B9"/>
<path d="M115.435 475.294L108.685 478.674L101.934 475.294V465.154L108.685 461.774L115.435 465.154V475.294Z" fill="#B9B9B9"/>
<path d="M96.8787 475.294L90.1281 478.674L83.3776 475.294V465.154L90.1281 461.774L96.8787 465.154V475.294Z" fill="#B9B9B9"/>
<path d="M78.3214 475.294L71.5709 478.674L64.8203 475.294V465.154L71.5709 461.774L78.3214 465.154V475.294Z" fill="#B9B9B9"/>
<path d="M59.7316 475.294L52.981 478.674L46.2305 475.294V465.154L52.981 461.774L59.7316 465.154V475.294Z" fill="#B9B9B9"/>
<path d="M143.288 459.389L136.537 462.769L129.786 459.389V449.25L136.537 445.87L143.288 449.25V459.389Z" fill="#B9B9B9"/>
<path d="M124.731 459.389L117.98 462.769L111.229 459.389V449.25L117.98 445.87L124.731 449.25V459.389Z" fill="#B9B9B9"/>
<path d="M106.173 459.389L99.4227 462.769L92.6722 459.389V449.25L99.4227 445.87L106.173 449.25V459.389Z" fill="#B9B9B9"/>
<path d="M87.5836 459.389L80.8331 462.769L74.0825 459.389V449.25L80.8331 445.87L87.5836 449.25V459.389Z" fill="#B9B9B9"/>
<path d="M69.0265 459.389L62.2759 462.769L55.5254 459.389V449.25L62.2759 445.87L69.0265 449.25V459.389Z" fill="#B9B9B9"/>
<path d="M171.14 443.484L164.389 446.864L157.639 443.484V433.344L164.389 429.964L171.14 433.344V443.484Z" fill="#B9B9B9"/>
<path d="M152.583 443.484L145.832 446.864L139.081 443.484V433.344L145.832 429.964L152.583 433.344V443.484Z" fill="#B9B9B9"/>
<path d="M133.993 443.484L127.242 446.864L120.492 443.484V433.344L127.242 429.964L133.993 433.344V443.484Z" fill="#B9B9B9"/>
<path d="M115.435 443.484L108.685 446.864L101.934 443.484V433.344L108.685 429.964L115.435 433.344V443.484Z" fill="#B9B9B9"/>
<path d="M96.8787 443.484L90.1281 446.864L83.3776 443.484V433.344L90.1281 429.964L96.8787 433.344V443.484Z" fill="#B9B9B9"/>
<path d="M78.3214 443.484L71.5709 446.864L64.8203 443.484V433.344L71.5709 429.964L78.3214 433.344V443.484Z" fill="#B9B9B9"/>
<path d="M59.7316 443.484L52.981 446.864L46.2305 443.484V433.344L52.981 429.964L59.7316 433.344V443.484Z" fill="#B9B9B9"/>
<path d="M180.402 427.579L173.651 430.959L166.901 427.579V417.44L173.651 414.06L180.402 417.44V427.579Z" fill="#B9B9B9"/>
<path d="M161.845 427.579L155.094 430.959L148.344 427.579V417.44L155.094 414.06L161.845 417.44V427.579Z" fill="#B9B9B9"/>
<path d="M143.288 427.579L136.537 430.959L129.786 427.579V417.44L136.537 414.06L143.288 417.44V427.579Z" fill="#B9B9B9"/>
<path d="M124.731 427.579L117.98 430.959L111.229 427.579V417.44L117.98 414.06L124.731 417.44V427.579Z" fill="#B9B9B9"/>
<path d="M106.173 427.579L99.4227 430.959L92.6722 427.579V417.44L99.4227 414.06L106.173 417.44V427.579Z" fill="#B9B9B9"/>
<path d="M87.5836 427.579L80.8331 430.959L74.0825 427.579V417.44L80.8331 414.06L87.5836 417.44V427.579Z" fill="#B9B9B9"/>
<path d="M69.0265 427.579L62.2759 430.959L55.5254 427.579V417.44L62.2759 414.06L69.0265 417.44V427.579Z" fill="#B9B9B9"/>
<path d="M50.4694 427.579L43.7188 430.959L36.9683 427.579V417.44L43.7188 414.06L50.4694 417.44V427.579Z" fill="#B9B9B9"/>
<path d="M31.9122 427.579L25.1617 430.959L18.4111 427.579V417.44L25.1617 414.06L31.9122 417.44V427.579Z" fill="#B9B9B9"/>
<path d="M189.697 411.675L182.946 415.055L176.196 411.675V401.535L182.946 398.155L189.697 401.535V411.675Z" fill="#B9B9B9"/>
<path d="M171.14 411.675L164.389 415.055L157.639 411.675V401.535L164.389 398.155L171.14 401.535V411.675Z" fill="#B9B9B9"/>
<path d="M152.583 411.675L145.832 415.055L139.081 411.675V401.535L145.832 398.155L152.583 401.535V411.675Z" fill="#B9B9B9"/>
<path d="M133.993 411.675L127.242 415.055L120.492 411.675V401.535L127.242 398.155L133.993 401.535V411.675Z" fill="#B9B9B9"/>
<path d="M115.435 411.675L108.685 415.055L101.934 411.675V401.535L108.685 398.155L115.435 401.535V411.675Z" fill="#B9B9B9"/>
<path d="M96.8787 411.675L90.1281 415.055L83.3776 411.675V401.535L90.1281 398.155L96.8787 401.535V411.675Z" fill="#B9B9B9"/>
<path d="M78.3214 411.675L71.5709 415.055L64.8203 411.675V401.535L71.5709 398.155L78.3214 401.535V411.675Z" fill="#B9B9B9"/>
<path d="M59.7316 411.675L52.981 415.055L46.2305 411.675V401.535L52.981 398.155L59.7316 401.535V411.675Z" fill="#B9B9B9"/>
<path d="M41.1746 411.675L34.424 415.055L27.6735 411.675V401.535L34.424 398.155L41.1746 401.535V411.675Z" fill="#B9B9B9"/>
<path d="M22.6173 411.675L15.8668 415.055L9.11621 411.675V401.535L15.8668 398.155L22.6173 401.535V411.675Z" fill="#B9B9B9"/>
<path d="M236.106 395.77L229.355 399.15L222.605 395.77V385.63L229.355 382.25L236.106 385.63V395.77Z" fill="#B9B9B9"/>
<path d="M180.402 395.77L173.651 399.15L166.901 395.77V385.63L173.651 382.25L180.402 385.63V395.77Z" fill="#B9B9B9"/>
<path d="M161.845 395.77L155.094 399.15L148.344 395.77V385.63L155.094 382.25L161.845 385.63V395.77Z" fill="#B9B9B9"/>
<path d="M143.288 395.77L136.537 399.15L129.786 395.77V385.63L136.537 382.25L143.288 385.63V395.77Z" fill="#B9B9B9"/>
<path d="M124.731 395.77L117.98 399.15L111.229 395.77V385.63L117.98 382.25L124.731 385.63V395.77Z" fill="#B9B9B9"/>
<path d="M69.0265 395.77L62.2759 399.15L55.5254 395.77V385.63L62.2759 382.25L69.0265 385.63V395.77Z" fill="#B9B9B9"/>
<path d="M96.8787 538.914L90.1281 542.294L83.3776 538.914V528.774L90.1281 525.394L96.8787 528.774V538.914Z" fill="#B9B9B9"/>
<path d="M50.4694 395.77L43.7188 399.15L36.9683 395.77V385.63L43.7188 382.25L50.4694 385.63V395.77Z" fill="#B9B9B9"/>
<path d="M245.401 379.865L238.65 383.245L231.9 379.865V369.725L238.65 366.345L245.401 369.725V379.865Z" fill="#B9B9B9"/>
<path d="M226.811 379.865L220.061 383.245L213.31 379.865V369.725L220.061 366.345L226.811 369.725V379.865Z" fill="#B9B9B9"/>
<path d="M208.254 379.865L201.503 383.245L194.753 379.865V369.725L201.503 366.345L208.254 369.725V379.865Z" fill="#B9B9B9"/>
<path d="M189.697 379.865L182.946 383.245L176.196 379.865V369.725L182.946 366.345L189.697 369.725V379.865Z" fill="#B9B9B9"/>
<path d="M171.14 379.865L164.389 383.245L157.639 379.865V369.725L164.389 366.345L171.14 369.725V379.865Z" fill="#B9B9B9"/>
<path d="M152.583 379.865L145.832 383.245L139.081 379.865V369.725L145.832 366.345L152.583 369.725V379.865Z" fill="#B9B9B9"/>
<path d="M133.993 379.865L127.242 383.245L120.492 379.865V369.725L127.242 366.345L133.993 369.725V379.865Z" fill="#B9B9B9"/>
<path d="M106.173 363.96L99.4227 367.34L92.6722 363.96V353.82L99.4227 350.44L106.173 353.82V363.96Z" fill="#B9B9B9"/>
<path d="M78.3214 379.865L71.5709 383.245L64.8203 379.865V369.725L71.5709 366.345L78.3214 369.725V379.865Z" fill="#B9B9B9"/>
<path d="M124.731 363.96L117.98 367.34L111.229 363.96V353.82L117.98 350.44L124.731 353.82V363.96Z" fill="#B9B9B9"/>
<path d="M41.1746 379.865L34.424 383.245L27.6735 379.865V369.725L34.424 366.345L41.1746 369.725V379.865Z" fill="#B9B9B9"/>
<path d="M273.22 363.96L266.47 367.34L259.719 363.96V353.82L266.47 350.44L273.22 353.82V363.96Z" fill="#B9B9B9"/>
<path d="M254.663 363.96L247.913 367.34L241.162 363.96V353.82L247.913 350.44L254.663 353.82V363.96Z" fill="#B9B9B9"/>
<path d="M236.106 363.96L229.355 367.34L222.605 363.96V353.82L229.355 350.44L236.106 353.82V363.96Z" fill="#B9B9B9"/>
<path d="M87.5836 363.96L80.8331 367.34L74.0825 363.96V353.82L80.8331 350.44L87.5836 353.82V363.96Z" fill="#B9B9B9"/>
<path d="M69.0265 363.96L62.2759 367.34L55.5254 363.96V353.82L62.2759 350.44L69.0265 353.82V363.96Z" fill="#B9B9B9"/>
<path d="M59.7316 284.436L52.981 287.816L46.2305 284.436V274.296L52.981 270.916L59.7316 274.296V284.436Z" fill="#B9B9B9"/>
<path d="M31.9122 363.96L25.1617 367.34L18.4111 363.96V353.82L25.1617 350.44L31.9122 353.82V363.96Z" fill="#B9B9B9"/>
<path d="M263.958 348.055L257.207 351.435L250.457 348.055V337.915L257.207 334.535L263.958 337.915V348.055Z" fill="#B9B9B9"/>
<path d="M115.435 348.055L108.685 351.435L101.934 348.055V337.915L108.685 334.535L115.435 337.915V348.055Z" fill="#B9B9B9"/>
<path d="M96.8787 348.055L90.1281 351.435L83.3776 348.055V337.915L90.1281 334.535L96.8787 337.915V348.055Z" fill="#B9B9B9"/>
<path d="M78.3214 348.055L71.5709 351.435L64.8203 348.055V337.915L71.5709 334.535L78.3214 337.915V348.055Z" fill="#B9B9B9"/>
<path d="M59.7316 348.055L52.981 351.435L46.2305 348.055V337.915L52.981 334.535L59.7316 337.915V348.055Z" fill="#B9B9B9"/>
<path d="M106.173 332.15L99.4227 335.53L92.6722 332.15V322.01L99.4227 318.63L106.173 322.01V332.15Z" fill="#B9B9B9"/>
<path d="M87.5836 332.15L80.8331 335.53L74.0825 332.15V322.01L80.8331 318.63L87.5836 322.01V332.15Z" fill="#B9B9B9"/>
<path d="M69.0265 332.15L62.2759 335.53L55.5254 332.15V322.01L62.2759 318.63L69.0265 322.01V332.15Z" fill="#B9B9B9"/>
<path d="M96.8787 316.245L90.1281 319.625L83.3776 316.245V306.105L90.1281 302.725L96.8787 306.105V316.245Z" fill="#B9B9B9"/>
<path d="M78.3214 316.245L71.5709 319.625L64.8203 316.245V306.105L71.5709 302.725L78.3214 306.105V316.245Z" fill="#B9B9B9"/>
<path d="M106.173 300.34L99.4227 303.72L92.6722 300.34V290.201L99.4227 286.821L106.173 290.201V300.34Z" fill="#B9B9B9"/>
<path d="M87.5836 300.34L80.8331 303.72L74.0825 300.34V290.201L80.8331 286.821L87.5836 290.201V300.34Z" fill="#B9B9B9"/>
<path d="M69.0265 300.34L62.2759 303.72L55.5254 300.34V290.201L62.2759 286.821L69.0265 290.201V300.34Z" fill="#B9B9B9"/>
<path d="M115.435 284.436L108.685 287.816L101.934 284.436V274.296L108.685 270.916L115.435 274.296V284.436Z" fill="#B9B9B9"/>
<path d="M96.8787 284.436L90.1281 287.816L83.3776 284.436V274.296L90.1281 270.916L96.8787 274.296V284.436Z" fill="#B9B9B9"/>
<path d="M78.3214 284.436L71.5709 287.816L64.8203 284.436V274.296L71.5709 270.916L78.3214 274.296V284.436Z" fill="#B9B9B9"/>
<path d="M570.265 204.879L563.514 208.258L556.764 204.879V194.739L563.514 191.359L570.265 194.739V204.879Z" fill="#B9B9B9"/>
<path d="M69.0265 268.498L62.2759 271.878L55.5254 268.498V258.358L62.2759 254.978L69.0265 258.358V268.498Z" fill="#B9B9B9"/>
<path d="M161.845 363.96L155.094 367.34L148.344 363.96V353.82L155.094 350.44L161.845 353.82V363.96Z" fill="#B9B9B9"/>
<path d="M560.97 284.436L554.219 287.816L547.469 284.436V274.296L554.219 270.916L560.97 274.296V284.436Z" fill="#B9B9B9"/>
<path d="M542.413 252.593L535.662 255.973L528.912 252.593V242.453L535.662 239.073L542.413 242.453V252.593Z" fill="#B9B9B9"/>
<path d="M560.97 220.784L554.219 224.163L547.469 220.784V210.644L554.219 207.264L560.97 210.644V220.784Z" fill="#B9B9B9"/>
<path d="M69.0265 204.879L62.2759 208.258L55.5254 204.879V194.739L62.2759 191.359L69.0265 194.739V204.879Z" fill="#B9B9B9"/>
<path d="M50.4694 204.879L43.7188 208.258L36.9683 204.879V194.739L43.7188 191.359L50.4694 194.739V204.879Z" fill="#B9B9B9"/>
<path d="M542.413 284.436L535.662 287.816L528.912 284.436V274.296L535.662 270.916L542.413 274.296V284.436Z" fill="#B9B9B9"/>
<path d="M356.776 538.914L350.026 542.294L343.275 538.914V528.774L350.026 525.394L356.776 528.774V538.914Z" fill="#B9B9B9"/>
<path d="M366.039 523.009L359.288 526.389L352.537 523.009V512.869L359.288 509.489L366.039 512.869V523.009Z" fill="#B9B9B9"/>
<path d="M375.334 507.104L368.583 510.484L361.832 507.104V496.964L368.583 493.584L375.334 496.964V507.104Z" fill="#B9B9B9"/>
<path d="M347.481 459.389L340.731 462.769L333.98 459.389V449.25L340.731 445.87L347.481 449.25V459.389Z" fill="#B9B9B9"/>
<path d="M347.481 427.579L340.731 430.959L333.98 427.579V417.44L340.731 414.06L347.481 417.44V427.579Z" fill="#B9B9B9"/>
<path d="M328.924 427.579L322.174 430.959L315.423 427.579V417.44L322.174 414.06L328.924 417.44V427.579Z" fill="#B9B9B9"/>
<path d="M477.447 523.009L470.696 526.389L463.945 523.009V512.869L470.696 509.489L477.447 512.869V523.009Z" fill="#B9B9B9"/>
<path d="M486.709 507.104L479.958 510.484L473.208 507.104V496.964L479.958 493.584L486.709 496.964V507.104Z" fill="#B9B9B9"/>
<path d="M263.958 443.484L257.207 446.864L250.457 443.484V433.344L257.207 429.964L263.958 433.344V443.484Z" fill="#B9B9B9"/>
<path d="M366.039 427.579L359.288 430.959L352.537 427.579V417.44L359.288 414.06L366.039 417.44V427.579Z" fill="#B9B9B9"/>
<path d="M393.891 443.484L387.14 446.864L380.389 443.484V433.344L387.14 429.964L393.891 433.344V443.484Z" fill="#B9B9B9"/>
<path d="M310.367 427.579L303.617 430.959L296.866 427.579V417.44L303.617 414.06L310.367 417.44V427.579Z" fill="#B9B9B9"/>
<path d="M412.448 411.675L405.697 415.055L398.947 411.675V401.535L405.697 398.155L412.448 401.535V411.675Z" fill="#B9B9B9"/>
<path d="M356.776 411.675L350.026 415.055L343.275 411.675V401.535L350.026 398.155L356.776 401.535V411.675Z" fill="#B9B9B9"/>
<path d="M356.776 379.865L350.026 383.245L343.275 379.865V369.725L350.026 366.345L356.776 369.725V379.865Z" fill="#B9B9B9"/>
<path d="M319.629 379.865L312.879 383.245L306.128 379.865V369.725L312.879 366.345L319.629 369.725V379.865Z" fill="#B9B9B9"/>
<path d="M477.447 363.96L470.696 367.34L463.945 363.96V353.82L470.696 350.44L477.447 353.82V363.96Z" fill="#B9B9B9"/>
<path d="M356.776 316.245L350.026 319.625L343.275 316.245V306.105L350.026 302.725L356.776 306.105V316.245Z" fill="#B9B9B9"/>
<path d="M440.3 236.688L433.549 240.068L426.799 236.688V226.549L433.549 223.169L440.3 226.549V236.688Z" fill="#B9B9B9"/>
<path d="M291.81 236.688L285.059 240.068L278.309 236.688V226.549L285.059 223.169L291.81 226.549V236.688Z" fill="#B9B9B9"/>
<path d="M431.037 220.784L424.287 224.163L417.536 220.784V210.644L424.287 207.264L431.037 210.644V220.784Z" fill="#B9B9B9"/>
<path d="M393.891 220.784L387.14 224.163L380.389 220.784V210.644L387.14 207.264L393.891 210.644V220.784Z" fill="#B9B9B9"/>
<path d="M254.663 204.879L247.913 208.258L241.162 204.879V194.739L247.913 191.359L254.663 194.739V204.879Z" fill="#B9B9B9"/>
<path d="M161.845 204.879L155.094 208.258L148.344 204.879V194.739L155.094 191.359L161.845 194.739V204.879Z" fill="#B9B9B9"/>
<path d="M579.527 188.974L572.777 192.354L566.026 188.974V178.834L572.777 175.454L579.527 178.834V188.974Z" fill="#B9B9B9"/>
<path d="M440.3 173.069L433.549 176.449L426.799 173.069V162.929L433.549 159.549L440.3 162.929V173.069Z" fill="#B9B9B9"/>
<path d="M180.402 141.259L173.651 144.639L166.901 141.259V131.119L173.651 127.739L180.402 131.119V141.259Z" fill="#B9B9B9"/>
<path d="M616.674 125.354L609.923 128.734L603.173 125.354V115.214L609.923 111.834L616.674 115.214V125.354Z" fill="#B9B9B9"/>
<path d="M542.413 125.354L535.662 128.734L528.912 125.354V115.214L535.662 111.834L542.413 115.214V125.354Z" fill="#B9B9B9"/>
<path d="M523.856 125.354L517.105 128.734L510.355 125.354V115.214L517.105 111.834L523.856 115.214V125.354Z" fill="#B9B9B9"/>
<path d="M468.152 125.354L461.401 128.734L454.651 125.354V115.214L461.401 111.834L468.152 115.214V125.354Z" fill="#B9B9B9"/>
<path d="M514.561 109.449L507.81 112.829L501.06 109.449V99.3093L507.81 95.9294L514.561 99.3093V109.449Z" fill="#B9B9B9"/>
<path d="M403.185 427.579L396.435 430.959L389.684 427.579V417.44L396.435 414.06L403.185 417.44V427.579Z" fill="#B9B9B9"/>
<path d="M384.628 427.579L377.878 430.959L371.127 427.579V417.44L377.878 414.06L384.628 417.44V427.579Z" fill="#B9B9B9"/>
<path d="M431.037 411.675L424.287 415.055L417.536 411.675V401.535L424.287 398.155L431.037 401.535V411.675Z" fill="#B9B9B9"/>
<path d="M375.334 411.675L368.583 415.055L361.832 411.675V401.535L368.583 398.155L375.334 401.535V411.675Z" fill="#B9B9B9"/>
<path d="M393.891 411.675L387.14 415.055L380.389 411.675V401.535L387.14 398.155L393.891 401.535V411.675Z" fill="#B9B9B9"/>
<path d="M78.3214 252.593L71.5709 255.973L64.8203 252.593V242.453L71.5709 239.073L78.3214 242.453V252.593Z" fill="#B9B9B9"/>
<path d="M375.334 379.865L368.583 383.245L361.832 379.865V369.725L368.583 366.345L375.334 369.725V379.865Z" fill="#B9B9B9"/>
<path d="M338.219 411.675L331.469 415.055L324.718 411.675V401.535L331.469 398.155L338.219 401.535V411.675Z" fill="#B9B9B9"/>
<path d="M319.629 411.675L312.879 415.055L306.128 411.675V401.535L312.879 398.155L319.629 401.535V411.675Z" fill="#B9B9B9"/>
<path d="M301.072 411.675L294.322 415.055L287.571 411.675V401.535L294.322 398.155L301.072 401.535V411.675Z" fill="#B9B9B9"/>
<path d="M458.89 395.77L452.139 399.15L445.388 395.77V385.63L452.139 382.25L458.89 385.63V395.77Z" fill="#B9B9B9"/>
<path d="M440.3 395.77L433.549 399.15L426.799 395.77V385.63L433.549 382.25L440.3 385.63V395.77Z" fill="#B9B9B9"/>
<path d="M421.742 395.77L414.992 399.15L408.241 395.77V385.63L414.992 382.25L421.742 385.63V395.77Z" fill="#B9B9B9"/>
<path d="M403.185 395.77L396.435 399.15L389.684 395.77V385.63L396.435 382.25L403.185 385.63V395.77Z" fill="#B9B9B9"/>
<path d="M384.628 395.77L377.878 399.15L371.127 395.77V385.63L377.878 382.25L384.628 385.63V395.77Z" fill="#B9B9B9"/>
<path d="M366.039 395.77L359.288 399.15L352.537 395.77V385.63L359.288 382.25L366.039 385.63V395.77Z" fill="#B9B9B9"/>
<path d="M347.481 395.77L340.731 399.15L333.98 395.77V385.63L340.731 382.25L347.481 385.63V395.77Z" fill="#B9B9B9"/>
<path d="M328.924 395.77L322.174 399.15L315.423 395.77V385.63L322.174 382.25L328.924 385.63V395.77Z" fill="#B9B9B9"/>
<path d="M310.367 395.77L303.617 399.15L296.866 395.77V385.63L303.617 382.25L310.367 385.63V395.77Z" fill="#B9B9B9"/>
<path d="M291.81 395.77L285.059 399.15L278.309 395.77V385.63L285.059 382.25L291.81 385.63V395.77Z" fill="#B9B9B9"/>
<path d="M468.152 379.865L461.401 383.245L454.651 379.865V369.725L461.401 366.345L468.152 369.725V379.865Z" fill="#B9B9B9"/>
<path d="M449.595 379.865L442.844 383.245L436.093 379.865V369.725L442.844 366.345L449.595 369.725V379.865Z" fill="#B9B9B9"/>
<path d="M431.037 379.865L424.287 383.245L417.536 379.865V369.725L424.287 366.345L431.037 369.725V379.865Z" fill="#B9B9B9"/>
<path d="M412.448 379.865L405.697 383.245L398.947 379.865V369.725L405.697 366.345L412.448 369.725V379.865Z" fill="#B9B9B9"/>
<path d="M393.891 379.865L387.14 383.245L380.389 379.865V369.725L387.14 366.345L393.891 369.725V379.865Z" fill="#B9B9B9"/>
<path d="M338.219 379.865L331.469 383.245L324.718 379.865V369.725L331.469 366.345L338.219 369.725V379.865Z" fill="#B9B9B9"/>
<path d="M375.334 316.245L368.583 319.625L361.832 316.245V306.105L368.583 302.725L375.334 306.105V316.245Z" fill="#B9B9B9"/>
<path d="M338.219 316.245L331.469 319.625L324.718 316.245V306.105L331.469 302.725L338.219 306.105V316.245Z" fill="#B9B9B9"/>
<path d="M301.072 379.865L294.322 383.245L287.571 379.865V369.725L294.322 366.345L301.072 369.725V379.865Z" fill="#B9B9B9"/>
<path d="M393.891 316.245L387.14 319.625L380.389 316.245V306.105L387.14 302.725L393.891 306.105V316.245Z" fill="#B9B9B9"/>
<path d="M458.89 363.96L452.139 367.34L445.388 363.96V353.82L452.139 350.44L458.89 353.82V363.96Z" fill="#B9B9B9"/>
<path d="M440.3 363.96L433.549 367.34L426.799 363.96V353.82L433.549 350.44L440.3 353.82V363.96Z" fill="#B9B9B9"/>
<path d="M421.742 363.96L414.992 367.34L408.241 363.96V353.82L414.992 350.44L421.742 353.82V363.96Z" fill="#B9B9B9"/>
<path d="M403.185 363.96L396.435 367.34L389.684 363.96V353.82L396.435 350.44L403.185 353.82V363.96Z" fill="#B9B9B9"/>
<path d="M384.628 363.96L377.878 367.34L371.127 363.96V353.82L377.878 350.44L384.628 353.82V363.96Z" fill="#B9B9B9"/>
<path d="M366.039 363.96L359.288 367.34L352.537 363.96V353.82L359.288 350.44L366.039 353.82V363.96Z" fill="#B9B9B9"/>
<path d="M347.481 363.96L340.731 367.34L333.98 363.96V353.82L340.731 350.44L347.481 353.82V363.96Z" fill="#B9B9B9"/>
<path d="M328.924 363.96L322.174 367.34L315.423 363.96V353.82L322.174 350.44L328.924 353.82V363.96Z" fill="#B9B9B9"/>
<path d="M310.367 363.96L303.617 367.34L296.866 363.96V353.82L303.617 350.44L310.367 353.82V363.96Z" fill="#B9B9B9"/>
<path d="M291.81 363.96L285.059 367.34L278.309 363.96V353.82L285.059 350.44L291.81 353.82V363.96Z" fill="#B9B9B9"/>
<path d="M198.992 363.96L192.241 367.34L185.491 363.96V353.82L192.241 350.44L198.992 353.82V363.96Z" fill="#B9B9B9"/>
<path d="M486.709 348.055L479.958 351.435L473.208 348.055V337.915L479.958 334.535L486.709 337.915V348.055Z" fill="#B9B9B9"/>
<path d="M468.152 348.055L461.401 351.435L454.651 348.055V337.915L461.401 334.535L468.152 337.915V348.055Z" fill="#B9B9B9"/>
<path d="M449.595 348.055L442.844 351.435L436.093 348.055V337.915L442.844 334.535L449.595 337.915V348.055Z" fill="#B9B9B9"/>
<path d="M431.037 348.055L424.287 351.435L417.536 348.055V337.915L424.287 334.535L431.037 337.915V348.055Z" fill="#B9B9B9"/>
<path d="M412.448 348.055L405.697 351.435L398.947 348.055V337.915L405.697 334.535L412.448 337.915V348.055Z" fill="#B9B9B9"/>
<path d="M393.891 348.055L387.14 351.435L380.389 348.055V337.915L387.14 334.535L393.891 337.915V348.055Z" fill="#B9B9B9"/>
<path d="M375.334 348.055L368.583 351.435L361.832 348.055V337.915L368.583 334.535L375.334 337.915V348.055Z" fill="#B9B9B9"/>
<path d="M356.776 348.055L350.026 351.435L343.275 348.055V337.915L350.026 334.535L356.776 337.915V348.055Z" fill="#B9B9B9"/>
<path d="M338.219 348.055L331.469 351.435L324.718 348.055V337.915L331.469 334.535L338.219 337.915V348.055Z" fill="#B9B9B9"/>
<path d="M319.629 348.055L312.879 351.435L306.128 348.055V337.915L312.879 334.535L319.629 337.915V348.055Z" fill="#B9B9B9"/>
<path d="M301.072 348.055L294.322 351.435L287.571 348.055V337.915L294.322 334.535L301.072 337.915V348.055Z" fill="#B9B9B9"/>
<path d="M282.515 348.055L275.765 351.435L269.014 348.055V337.915L275.765 334.535L282.515 337.915V348.055Z" fill="#B9B9B9"/>
<path d="M245.401 348.055L238.65 351.435L231.9 348.055V337.915L238.65 334.535L245.401 337.915V348.055Z" fill="#B9B9B9"/>
<path d="M226.811 348.055L220.061 351.435L213.31 348.055V337.915L220.061 334.535L226.811 337.915V348.055Z" fill="#B9B9B9"/>
<path d="M208.254 348.055L201.503 351.435L194.753 348.055V337.915L201.503 334.535L208.254 337.915V348.055Z" fill="#B9B9B9"/>
<path d="M189.697 348.055L182.946 351.435L176.196 348.055V337.915L182.946 334.535L189.697 337.915V348.055Z" fill="#B9B9B9"/>
<path d="M171.14 348.055L164.389 351.435L157.639 348.055V337.915L164.389 334.535L171.14 337.915V348.055Z" fill="#B9B9B9"/>
<path d="M152.583 348.055L145.832 351.435L139.081 348.055V337.915L145.832 334.535L152.583 337.915V348.055Z" fill="#B9B9B9"/>
<path d="M496.004 332.15L489.253 335.53L482.503 332.15V322.01L489.253 318.63L496.004 322.01V332.15Z" fill="#B9B9B9"/>
<path d="M477.447 332.15L470.696 335.53L463.945 332.15V322.01L470.696 318.63L477.447 322.01V332.15Z" fill="#B9B9B9"/>
<path d="M458.89 332.15L452.139 335.53L445.388 332.15V322.01L452.139 318.63L458.89 322.01V332.15Z" fill="#B9B9B9"/>
<path d="M440.3 332.15L433.549 335.53L426.799 332.15V322.01L433.549 318.63L440.3 322.01V332.15Z" fill="#B9B9B9"/>
<path d="M421.742 332.15L414.992 335.53L408.241 332.15V322.01L414.992 318.63L421.742 322.01V332.15Z" fill="#B9B9B9"/>
<path d="M403.185 332.15L396.435 335.53L389.684 332.15V322.01L396.435 318.63L403.185 322.01V332.15Z" fill="#B9B9B9"/>
<path d="M384.628 332.15L377.878 335.53L371.127 332.15V322.01L377.878 318.63L384.628 322.01V332.15Z" fill="#B9B9B9"/>
<path d="M366.039 332.15L359.288 335.53L352.537 332.15V322.01L359.288 318.63L366.039 322.01V332.15Z" fill="#B9B9B9"/>
<path d="M347.481 332.15L340.731 335.53L333.98 332.15V322.01L340.731 318.63L347.481 322.01V332.15Z" fill="#B9B9B9"/>
<path d="M328.924 332.15L322.174 335.53L315.423 332.15V322.01L322.174 318.63L328.924 322.01V332.15Z" fill="#B9B9B9"/>
<path d="M310.367 332.15L303.617 335.53L296.866 332.15V322.01L303.617 318.63L310.367 322.01V332.15Z" fill="#B9B9B9"/>
<path d="M291.81 332.15L285.059 335.53L278.309 332.15V322.01L285.059 318.63L291.81 322.01V332.15Z" fill="#B9B9B9"/>
<path d="M273.22 332.15L266.47 335.53L259.719 332.15V322.01L266.47 318.63L273.22 322.01V332.15Z" fill="#B9B9B9"/>
<path d="M254.663 332.15L247.913 335.53L241.162 332.15V322.01L247.913 318.63L254.663 322.01V332.15Z" fill="#B9B9B9"/>
<path d="M236.106 332.15L229.355 335.53L222.605 332.15V322.01L229.355 318.63L236.106 322.01V332.15Z" fill="#B9B9B9"/>
<path d="M217.549 332.15L210.798 335.53L204.048 332.15V322.01L210.798 318.63L217.549 322.01V332.15Z" fill="#B9B9B9"/>
<path d="M198.992 332.15L192.241 335.53L185.491 332.15V322.01L192.241 318.63L198.992 322.01V332.15Z" fill="#B9B9B9"/>
<path d="M180.402 332.15L173.651 335.53L166.901 332.15V322.01L173.651 318.63L180.402 322.01V332.15Z" fill="#B9B9B9"/>
<path d="M161.845 332.15L155.094 335.53L148.344 332.15V322.01L155.094 318.63L161.845 322.01V332.15Z" fill="#B9B9B9"/>
<path d="M143.288 332.15L136.537 335.53L129.786 332.15V322.01L136.537 318.63L143.288 322.01V332.15Z" fill="#B9B9B9"/>
<path d="M124.731 332.15L117.98 335.53L111.229 332.15V322.01L117.98 318.63L124.731 322.01V332.15Z" fill="#B9B9B9"/>
<path d="M486.709 316.245L479.958 319.625L473.208 316.245V306.105L479.958 302.725L486.709 306.105V316.245Z" fill="#B9B9B9"/>
<path d="M468.152 316.245L461.401 319.625L454.651 316.245V306.105L461.401 302.725L468.152 306.105V316.245Z" fill="#B9B9B9"/>
<path d="M449.595 316.245L442.844 319.625L436.093 316.245V306.105L442.844 302.725L449.595 306.105V316.245Z" fill="#B9B9B9"/>
<path d="M431.037 316.245L424.287 319.625L417.536 316.245V306.105L424.287 302.725L431.037 306.105V316.245Z" fill="#B9B9B9"/>
<path d="M412.448 316.245L405.697 319.625L398.947 316.245V306.105L405.697 302.725L412.448 306.105V316.245Z" fill="#B9B9B9"/>
<path d="M319.629 316.245L312.879 319.625L306.128 316.245V306.105L312.879 302.725L319.629 306.105V316.245Z" fill="#B9B9B9"/>
<path d="M458.89 236.688L452.139 240.068L445.388 236.688V226.549L452.139 223.169L458.89 226.549V236.688Z" fill="#B9B9B9"/>
<path d="M301.072 316.245L294.322 319.625L287.571 316.245V306.105L294.322 302.725L301.072 306.105V316.245Z" fill="#B9B9B9"/>
<path d="M282.515 316.245L275.765 319.625L269.014 316.245V306.105L275.765 302.725L282.515 306.105V316.245Z" fill="#B9B9B9"/>
<path d="M263.958 316.245L257.207 319.625L250.457 316.245V306.105L257.207 302.725L263.958 306.105V316.245Z" fill="#B9B9B9"/>
<path d="M245.401 316.245L238.65 319.625L231.9 316.245V306.105L238.65 302.725L245.401 306.105V316.245Z" fill="#B9B9B9"/>
<path d="M226.811 316.245L220.061 319.625L213.31 316.245V306.105L220.061 302.725L226.811 306.105V316.245Z" fill="#B9B9B9"/>
<path d="M208.254 316.245L201.503 319.625L194.753 316.245V306.105L201.503 302.725L208.254 306.105V316.245Z" fill="#B9B9B9"/>
<path d="M189.697 316.245L182.946 319.625L176.196 316.245V306.105L182.946 302.725L189.697 306.105V316.245Z" fill="#B9B9B9"/>
<path d="M171.14 316.245L164.389 319.625L157.639 316.245V306.105L164.389 302.725L171.14 306.105V316.245Z" fill="#B9B9B9"/>
<path d="M152.583 316.245L145.832 319.625L139.081 316.245V306.105L145.832 302.725L152.583 306.105V316.245Z" fill="#B9B9B9"/>
<path d="M133.993 316.245L127.242 319.625L120.492 316.245V306.105L127.242 302.725L133.993 306.105V316.245Z" fill="#B9B9B9"/>
<path d="M115.435 316.245L108.685 319.625L101.934 316.245V306.105L108.685 302.725L115.435 306.105V316.245Z" fill="#B9B9B9"/>
<path d="M477.447 300.34L470.696 303.72L463.945 300.34V290.201L470.696 286.821L477.447 290.201V300.34Z" fill="#B9B9B9"/>
<path d="M458.89 300.34L452.139 303.72L445.388 300.34V290.201L452.139 286.821L458.89 290.201V300.34Z" fill="#B9B9B9"/>
<path d="M440.3 300.34L433.549 303.72L426.799 300.34V290.201L433.549 286.821L440.3 290.201V300.34Z" fill="#B9B9B9"/>
<path d="M421.742 300.34L414.992 303.72L408.241 300.34V290.201L414.992 286.821L421.742 290.201V300.34Z" fill="#B9B9B9"/>
<path d="M403.185 300.34L396.435 303.72L389.684 300.34V290.201L396.435 286.821L403.185 290.201V300.34Z" fill="#B9B9B9"/>
<path d="M384.628 300.34L377.878 303.72L371.127 300.34V290.201L377.878 286.821L384.628 290.201V300.34Z" fill="#B9B9B9"/>
<path d="M366.039 300.34L359.288 303.72L352.537 300.34V290.201L359.288 286.821L366.039 290.201V300.34Z" fill="#B9B9B9"/>
<path d="M347.481 300.34L340.731 303.72L333.98 300.34V290.201L340.731 286.821L347.481 290.201V300.34Z" fill="#B9B9B9"/>
<path d="M328.924 300.34L322.174 303.72L315.423 300.34V290.201L322.174 286.821L328.924 290.201V300.34Z" fill="#B9B9B9"/>
<path d="M310.367 300.34L303.617 303.72L296.866 300.34V290.201L303.617 286.821L310.367 290.201V300.34Z" fill="#B9B9B9"/>
<path d="M291.81 300.34L285.059 303.72L278.309 300.34V290.201L285.059 286.821L291.81 290.201V300.34Z" fill="#B9B9B9"/>
<path d="M273.22 300.34L266.47 303.72L259.719 300.34V290.201L266.47 286.821L273.22 290.201V300.34Z" fill="#B9B9B9"/>
<path d="M254.663 300.34L247.913 303.72L241.162 300.34V290.201L247.913 286.821L254.663 290.201V300.34Z" fill="#B9B9B9"/>
<path d="M236.106 300.34L229.355 303.72L222.605 300.34V290.201L229.355 286.821L236.106 290.201V300.34Z" fill="#B9B9B9"/>
<path d="M217.549 300.34L210.798 303.72L204.048 300.34V290.201L210.798 286.821L217.549 290.201V300.34Z" fill="#B9B9B9"/>
<path d="M198.992 300.34L192.241 303.72L185.491 300.34V290.201L192.241 286.821L198.992 290.201V300.34Z" fill="#B9B9B9"/>
<path d="M180.402 300.34L173.651 303.72L166.901 300.34V290.201L173.651 286.821L180.402 290.201V300.34Z" fill="#B9B9B9"/>
<path d="M161.845 300.34L155.094 303.72L148.344 300.34V290.201L155.094 286.821L161.845 290.201V300.34Z" fill="#B9B9B9"/>
<path d="M143.288 300.34L136.537 303.72L129.786 300.34V290.201L136.537 286.821L143.288 290.201V300.34Z" fill="#B9B9B9"/>
<path d="M124.731 300.34L117.98 303.72L111.229 300.34V290.201L117.98 286.821L124.731 290.201V300.34Z" fill="#B9B9B9"/>
<path d="M468.152 284.436L461.401 287.816L454.651 284.436V274.296L461.401 270.916L468.152 274.296V284.436Z" fill="#B9B9B9"/>
<path d="M449.595 284.436L442.844 287.816L436.093 284.436V274.296L442.844 270.916L449.595 274.296V284.436Z" fill="#B9B9B9"/>
<path d="M431.037 284.436L424.287 287.816L417.536 284.436V274.296L424.287 270.916L431.037 274.296V284.436Z" fill="#B9B9B9"/>
<path d="M412.448 284.436L405.697 287.816L398.947 284.436V274.296L405.697 270.916L412.448 274.296V284.436Z" fill="#B9B9B9"/>
<path d="M393.891 284.436L387.14 287.816L380.389 284.436V274.296L387.14 270.916L393.891 274.296V284.436Z" fill="#B9B9B9"/>
<path d="M375.334 284.436L368.583 287.816L361.832 284.436V274.296L368.583 270.916L375.334 274.296V284.436Z" fill="#B9B9B9"/>
<path d="M356.776 284.436L350.026 287.816L343.275 284.436V274.296L350.026 270.916L356.776 274.296V284.436Z" fill="#B9B9B9"/>
<path d="M338.219 284.436L331.469 287.816L324.718 284.436V274.296L331.469 270.916L338.219 274.296V284.436Z" fill="#B9B9B9"/>
<path d="M319.629 284.436L312.879 287.816L306.128 284.436V274.296L312.879 270.916L319.629 274.296V284.436Z" fill="#B9B9B9"/>
<path d="M301.072 284.436L294.322 287.816L287.571 284.436V274.296L294.322 270.916L301.072 274.296V284.436Z" fill="#B9B9B9"/>
<path d="M282.515 284.436L275.765 287.816L269.014 284.436V274.296L275.765 270.916L282.515 274.296V284.436Z" fill="#B9B9B9"/>
<path d="M263.958 284.436L257.207 287.816L250.457 284.436V274.296L257.207 270.916L263.958 274.296V284.436Z" fill="#B9B9B9"/>
<path d="M245.401 284.436L238.65 287.816L231.9 284.436V274.296L238.65 270.916L245.401 274.296V284.436Z" fill="#B9B9B9"/>
<path d="M226.811 284.436L220.061 287.816L213.31 284.436V274.296L220.061 270.916L226.811 274.296V284.436Z" fill="#B9B9B9"/>
<path d="M208.254 284.436L201.503 287.816L194.753 284.436V274.296L201.503 270.916L208.254 274.296V284.436Z" fill="#B9B9B9"/>
<path d="M189.697 284.436L182.946 287.816L176.196 284.436V274.296L182.946 270.916L189.697 274.296V284.436Z" fill="#B9B9B9"/>
<path d="M171.14 284.436L164.389 287.816L157.639 284.436V274.296L164.389 270.916L171.14 274.296V284.436Z" fill="#B9B9B9"/>
<path d="M152.583 284.436L145.832 287.816L139.081 284.436V274.296L145.832 270.916L152.583 274.296V284.436Z" fill="#B9B9B9"/>
<path d="M133.993 284.436L127.242 287.816L120.492 284.436V274.296L127.242 270.916L133.993 274.296V284.436Z" fill="#B9B9B9"/>
<path d="M496.004 268.498L489.253 271.878L482.503 268.498V258.358L489.253 254.978L496.004 258.358V268.498Z" fill="#B9B9B9"/>
<path d="M477.447 268.498L470.696 271.878L463.945 268.498V258.358L470.696 254.978L477.447 258.358V268.498Z" fill="#B9B9B9"/>
<path d="M458.89 268.498L452.139 271.878L445.388 268.498V258.358L452.139 254.978L458.89 258.358V268.498Z" fill="#B9B9B9"/>
<path d="M440.3 268.498L433.549 271.878L426.799 268.498V258.358L433.549 254.978L440.3 258.358V268.498Z" fill="#B9B9B9"/>
<path d="M421.742 268.498L414.992 271.878L408.241 268.498V258.358L414.992 254.978L421.742 258.358V268.498Z" fill="#B9B9B9"/>
<path d="M403.185 268.498L396.435 271.878L389.684 268.498V258.358L396.435 254.978L403.185 258.358V268.498Z" fill="#B9B9B9"/>
<path d="M384.628 268.498L377.878 271.878L371.127 268.498V258.358L377.878 254.978L384.628 258.358V268.498Z" fill="#B9B9B9"/>
<path d="M366.039 268.498L359.288 271.878L352.537 268.498V258.358L359.288 254.978L366.039 258.358V268.498Z" fill="#B9B9B9"/>
<path d="M347.481 268.498L340.731 271.878L333.98 268.498V258.358L340.731 254.978L347.481 258.358V268.498Z" fill="#B9B9B9"/>
<path d="M328.924 268.498L322.174 271.878L315.423 268.498V258.358L322.174 254.978L328.924 258.358V268.498Z" fill="#B9B9B9"/>
<path d="M310.367 268.498L303.617 271.878L296.866 268.498V258.358L303.617 254.978L310.367 258.358V268.498Z" fill="#B9B9B9"/>
<path d="M291.81 268.498L285.059 271.878L278.309 268.498V258.358L285.059 254.978L291.81 258.358V268.498Z" fill="#B9B9B9"/>
<path d="M273.22 268.498L266.47 271.878L259.719 268.498V258.358L266.47 254.978L273.22 258.358V268.498Z" fill="#B9B9B9"/>
<path d="M254.663 268.498L247.913 271.878L241.162 268.498V258.358L247.913 254.978L254.663 258.358V268.498Z" fill="#B9B9B9"/>
<path d="M236.106 268.498L229.355 271.878L222.605 268.498V258.358L229.355 254.978L236.106 258.358V268.498Z" fill="#B9B9B9"/>
<path d="M217.549 268.498L210.798 271.878L204.048 268.498V258.358L210.798 254.978L217.549 258.358V268.498Z" fill="#B9B9B9"/>
<path d="M198.992 268.498L192.241 271.878L185.491 268.498V258.358L192.241 254.978L198.992 258.358V268.498Z" fill="#B9B9B9"/>
<path d="M180.402 268.498L173.651 271.878L166.901 268.498V258.358L173.651 254.978L180.402 258.358V268.498Z" fill="#B9B9B9"/>
<path d="M161.845 268.498L155.094 271.878L148.344 268.498V258.358L155.094 254.978L161.845 258.358V268.498Z" fill="#B9B9B9"/>
<path d="M143.288 268.498L136.537 271.878L129.786 268.498V258.358L136.537 254.978L143.288 258.358V268.498Z" fill="#B9B9B9"/>
<path d="M124.731 268.498L117.98 271.878L111.229 268.498V258.358L117.98 254.978L124.731 258.358V268.498Z" fill="#B9B9B9"/>
<path d="M106.173 268.498L99.4227 271.878L92.6722 268.498V258.358L99.4227 254.978L106.173 258.358V268.498Z" fill="#B9B9B9"/>
<path d="M87.5836 268.498L80.8331 271.878L74.0825 268.498V258.358L80.8331 254.978L87.5836 258.358V268.498Z" fill="#B9B9B9"/>
<path d="M449.595 252.593L442.844 255.973L436.093 252.593V242.453L442.844 239.073L449.595 242.453V252.593Z" fill="#B9B9B9"/>
<path d="M431.037 252.593L424.287 255.973L417.536 252.593V242.453L424.287 239.073L431.037 242.453V252.593Z" fill="#B9B9B9"/>
<path d="M412.448 252.593L405.697 255.973L398.947 252.593V242.453L405.697 239.073L412.448 242.453V252.593Z" fill="#B9B9B9"/>
<path d="M393.891 252.593L387.14 255.973L380.389 252.593V242.453L387.14 239.073L393.891 242.453V252.593Z" fill="#B9B9B9"/>
<path d="M375.334 252.593L368.583 255.973L361.832 252.593V242.453L368.583 239.073L375.334 242.453V252.593Z" fill="#B9B9B9"/>
<path d="M356.776 252.593L350.026 255.973L343.275 252.593V242.453L350.026 239.073L356.776 242.453V252.593Z" fill="#B9B9B9"/>
<path d="M338.219 252.593L331.469 255.973L324.718 252.593V242.453L331.469 239.073L338.219 242.453V252.593Z" fill="#B9B9B9"/>
<path d="M319.629 252.593L312.879 255.973L306.128 252.593V242.453L312.879 239.073L319.629 242.453V252.593Z" fill="#B9B9B9"/>
<path d="M301.072 252.593L294.322 255.973L287.571 252.593V242.453L294.322 239.073L301.072 242.453V252.593Z" fill="#B9B9B9"/>
<path d="M282.515 252.593L275.765 255.973L269.014 252.593V242.453L275.765 239.073L282.515 242.453V252.593Z" fill="#B9B9B9"/>
<path d="M263.958 252.593L257.207 255.973L250.457 252.593V242.453L257.207 239.073L263.958 242.453V252.593Z" fill="#B9B9B9"/>
<path d="M245.401 252.593L238.65 255.973L231.9 252.593V242.453L238.65 239.073L245.401 242.453V252.593Z" fill="#B9B9B9"/>
<path d="M226.811 252.593L220.061 255.973L213.31 252.593V242.453L220.061 239.073L226.811 242.453V252.593Z" fill="#B9B9B9"/>
<path d="M208.254 252.593L201.503 255.973L194.753 252.593V242.453L201.503 239.073L208.254 242.453V252.593Z" fill="#B9B9B9"/>
<path d="M189.697 252.593L182.946 255.973L176.196 252.593V242.453L182.946 239.073L189.697 242.453V252.593Z" fill="#B9B9B9"/>
<path d="M171.14 252.593L164.389 255.973L157.639 252.593V242.453L164.389 239.073L171.14 242.453V252.593Z" fill="#B9B9B9"/>
<path d="M152.583 252.593L145.832 255.973L139.081 252.593V242.453L145.832 239.073L152.583 242.453V252.593Z" fill="#B9B9B9"/>
<path d="M133.993 252.593L127.242 255.973L120.492 252.593V242.453L127.242 239.073L133.993 242.453V252.593Z" fill="#B9B9B9"/>
<path d="M115.435 252.593L108.685 255.973L101.934 252.593V242.453L108.685 239.073L115.435 242.453V252.593Z" fill="#B9B9B9"/>
<path d="M96.8787 252.593L90.1281 255.973L83.3776 252.593V242.453L90.1281 239.073L96.8787 242.453V252.593Z" fill="#B9B9B9"/>
<path d="M496.004 236.688L489.253 240.068L482.503 236.688V226.549L489.253 223.169L496.004 226.549V236.688Z" fill="#B9B9B9"/>
<path d="M384.628 236.688L377.878 240.068L371.127 236.688V226.549L377.878 223.169L384.628 226.549V236.688Z" fill="#B9B9B9"/>
<path d="M421.742 236.688L414.992 240.068L408.241 236.688V226.549L414.992 223.169L421.742 226.549V236.688Z" fill="#B9B9B9"/>
<path d="M366.039 236.688L359.288 240.068L352.537 236.688V226.549L359.288 223.169L366.039 226.549V236.688Z" fill="#B9B9B9"/>
<path d="M403.185 236.688L396.435 240.068L389.684 236.688V226.549L396.435 223.169L403.185 226.549V236.688Z" fill="#B9B9B9"/>
<path d="M347.481 236.688L340.731 240.068L333.98 236.688V226.549L340.731 223.169L347.481 226.549V236.688Z" fill="#B9B9B9"/>
<path d="M310.367 236.688L303.617 240.068L296.866 236.688V226.549L303.617 223.169L310.367 226.549V236.688Z" fill="#B9B9B9"/>
<path d="M328.924 236.688L322.174 240.068L315.423 236.688V226.549L322.174 223.169L328.924 226.549V236.688Z" fill="#B9B9B9"/>
<path d="M291.81 204.879L285.059 208.258L278.309 204.879V194.739L285.059 191.359L291.81 194.739V204.879Z" fill="#B9B9B9"/>
<path d="M449.595 220.784L442.844 224.163L436.093 220.784V210.644L442.844 207.264L449.595 210.644V220.784Z" fill="#B9B9B9"/>
<path d="M273.22 236.688L266.47 240.068L259.719 236.688V226.549L266.47 223.169L273.22 226.549V236.688Z" fill="#B9B9B9"/>
<path d="M254.663 236.688L247.913 240.068L241.162 236.688V226.549L247.913 223.169L254.663 226.549V236.688Z" fill="#B9B9B9"/>
<path d="M236.106 236.688L229.355 240.068L222.605 236.688V226.549L229.355 223.169L236.106 226.549V236.688Z" fill="#B9B9B9"/>
<path d="M217.549 236.688L210.798 240.068L204.048 236.688V226.549L210.798 223.169L217.549 226.549V236.688Z" fill="#B9B9B9"/>
<path d="M198.992 236.688L192.241 240.068L185.491 236.688V226.549L192.241 223.169L198.992 226.549V236.688Z" fill="#B9B9B9"/>
<path d="M180.402 236.688L173.651 240.068L166.901 236.688V226.549L173.651 223.169L180.402 226.549V236.688Z" fill="#B9B9B9"/>
<path d="M161.845 236.688L155.094 240.068L148.344 236.688V226.549L155.094 223.169L161.845 226.549V236.688Z" fill="#B9B9B9"/>
<path d="M143.288 236.688L136.537 240.068L129.786 236.688V226.549L136.537 223.169L143.288 226.549V236.688Z" fill="#B9B9B9"/>
<path d="M124.731 236.688L117.98 240.068L111.229 236.688V226.549L117.98 223.169L124.731 226.549V236.688Z" fill="#B9B9B9"/>
<path d="M106.173 236.688L99.4227 240.068L92.6722 236.688V226.549L99.4227 223.169L106.173 226.549V236.688Z" fill="#B9B9B9"/>
<path d="M87.5836 236.688L80.8331 240.068L74.0825 236.688V226.549L80.8331 223.169L87.5836 226.549V236.688Z" fill="#B9B9B9"/>
<path d="M69.0265 236.688L62.2759 240.068L55.5254 236.688V226.549L62.2759 223.169L69.0265 226.549V236.688Z" fill="#B9B9B9"/>
<path d="M523.856 220.784L517.105 224.163L510.355 220.784V210.644L517.105 207.264L523.856 210.644V220.784Z" fill="#B9B9B9"/>
<path d="M505.299 220.784L498.548 224.163L491.797 220.784V210.644L498.548 207.264L505.299 210.644V220.784Z" fill="#B9B9B9"/>
<path d="M486.709 220.784L479.958 224.163L473.208 220.784V210.644L479.958 207.264L486.709 210.644V220.784Z" fill="#B9B9B9"/>
<path d="M468.152 220.784L461.401 224.163L454.651 220.784V210.644L461.401 207.264L468.152 210.644V220.784Z" fill="#B9B9B9"/>
<path d="M180.402 204.879L173.651 208.258L166.901 204.879V194.739L173.651 191.359L180.402 194.739V204.879Z" fill="#B9B9B9"/>
<path d="M412.448 220.784L405.697 224.163L398.947 220.784V210.644L405.697 207.264L412.448 210.644V220.784Z" fill="#B9B9B9"/>
<path d="M375.334 220.784L368.583 224.163L361.832 220.784V210.644L368.583 207.264L375.334 210.644V220.784Z" fill="#B9B9B9"/>
<path d="M356.776 220.784L350.026 224.163L343.275 220.784V210.644L350.026 207.264L356.776 210.644V220.784Z" fill="#B9B9B9"/>
<path d="M338.219 220.784L331.469 224.163L324.718 220.784V210.644L331.469 207.264L338.219 210.644V220.784Z" fill="#B9B9B9"/>
<path d="M319.629 220.784L312.879 224.163L306.128 220.784V210.644L312.879 207.264L319.629 210.644V220.784Z" fill="#B9B9B9"/>
<path d="M301.072 220.784L294.322 224.163L287.571 220.784V210.644L294.322 207.264L301.072 210.644V220.784Z" fill="#B9B9B9"/>
<path d="M282.515 220.784L275.765 224.163L269.014 220.784V210.644L275.765 207.264L282.515 210.644V220.784Z" fill="#B9B9B9"/>
<path d="M263.958 220.784L257.207 224.163L250.457 220.784V210.644L257.207 207.264L263.958 210.644V220.784Z" fill="#B9B9B9"/>
<path d="M245.401 220.784L238.65 224.163L231.9 220.784V210.644L238.65 207.264L245.401 210.644V220.784Z" fill="#B9B9B9"/>
<path d="M226.811 220.784L220.061 224.163L213.31 220.784V210.644L220.061 207.264L226.811 210.644V220.784Z" fill="#B9B9B9"/>
<path d="M208.254 220.784L201.503 224.163L194.753 220.784V210.644L201.503 207.264L208.254 210.644V220.784Z" fill="#B9B9B9"/>
<path d="M189.697 220.784L182.946 224.163L176.196 220.784V210.644L182.946 207.264L189.697 210.644V220.784Z" fill="#B9B9B9"/>
<path d="M171.14 220.784L164.389 224.163L157.639 220.784V210.644L164.389 207.264L171.14 210.644V220.784Z" fill="#B9B9B9"/>
<path d="M152.583 220.784L145.832 224.163L139.081 220.784V210.644L145.832 207.264L152.583 210.644V220.784Z" fill="#B9B9B9"/>
<path d="M133.993 220.784L127.242 224.163L120.492 220.784V210.644L127.242 207.264L133.993 210.644V220.784Z" fill="#B9B9B9"/>
<path d="M115.435 220.784L108.685 224.163L101.934 220.784V210.644L108.685 207.264L115.435 210.644V220.784Z" fill="#B9B9B9"/>
<path d="M96.8787 220.784L90.1281 224.163L83.3776 220.784V210.644L90.1281 207.264L96.8787 210.644V220.784Z" fill="#B9B9B9"/>
<path d="M551.708 204.879L544.957 208.258L538.207 204.879V194.739L544.957 191.359L551.708 194.739V204.879Z" fill="#B9B9B9"/>
<path d="M533.118 204.879L526.367 208.258L519.617 204.879V194.739L526.367 191.359L533.118 194.739V204.879Z" fill="#B9B9B9"/>
<path d="M514.561 204.879L507.81 208.258L501.06 204.879V194.739L507.81 191.359L514.561 194.739V204.879Z" fill="#B9B9B9"/>
<path d="M496.004 204.879L489.253 208.258L482.503 204.879V194.739L489.253 191.359L496.004 194.739V204.879Z" fill="#B9B9B9"/>
<path d="M477.447 204.879L470.696 208.258L463.945 204.879V194.739L470.696 191.359L477.447 194.739V204.879Z" fill="#B9B9B9"/>
<path d="M458.89 204.879L452.139 208.258L445.388 204.879V194.739L452.139 191.359L458.89 194.739V204.879Z" fill="#B9B9B9"/>
<path d="M440.3 204.879L433.549 208.258L426.799 204.879V194.739L433.549 191.359L440.3 194.739V204.879Z" fill="#B9B9B9"/>
<path d="M421.742 204.879L414.992 208.258L408.241 204.879V194.739L414.992 191.359L421.742 194.739V204.879Z" fill="#B9B9B9"/>
<path d="M403.185 204.879L396.435 208.258L389.684 204.879V194.739L396.435 191.359L403.185 194.739V204.879Z" fill="#B9B9B9"/>
<path d="M384.628 204.879L377.878 208.258L371.127 204.879V194.739L377.878 191.359L384.628 194.739V204.879Z" fill="#B9B9B9"/>
<path d="M366.039 204.879L359.288 208.258L352.537 204.879V194.739L359.288 191.359L366.039 194.739V204.879Z" fill="#B9B9B9"/>
<path d="M310.367 204.879L303.617 208.258L296.866 204.879V194.739L303.617 191.359L310.367 194.739V204.879Z" fill="#B9B9B9"/>
<path d="M273.22 204.879L266.47 208.258L259.719 204.879V194.739L266.47 191.359L273.22 194.739V204.879Z" fill="#B9B9B9"/>
<path d="M217.549 204.879L210.798 208.258L204.048 204.879V194.739L210.798 191.359L217.549 194.739V204.879Z" fill="#B9B9B9"/>
<path d="M236.106 204.879L229.355 208.258L222.605 204.879V194.739L229.355 191.359L236.106 194.739V204.879Z" fill="#B9B9B9"/>
<path d="M198.992 204.879L192.241 208.258L185.491 204.879V194.739L192.241 191.359L198.992 194.739V204.879Z" fill="#B9B9B9"/>
<path d="M143.288 204.879L136.537 208.258L129.786 204.879V194.739L136.537 191.359L143.288 194.739V204.879Z" fill="#B9B9B9"/>
<path d="M124.731 204.879L117.98 208.258L111.229 204.879V194.739L117.98 191.359L124.731 194.739V204.879Z" fill="#B9B9B9"/>
<path d="M560.97 125.354L554.219 128.734L547.469 125.354V115.214L554.219 111.834L560.97 115.214V125.354Z" fill="#B9B9B9"/>
<path d="M421.742 173.069L414.992 176.449L408.241 173.069V162.929L414.992 159.549L421.742 162.929V173.069Z" fill="#B9B9B9"/>
<path d="M560.97 188.974L554.219 192.354L547.469 188.974V178.834L554.219 175.454L560.97 178.834V188.974Z" fill="#B9B9B9"/>
<path d="M542.413 188.974L535.662 192.354L528.912 188.974V178.834L535.662 175.454L542.413 178.834V188.974Z" fill="#B9B9B9"/>
<path d="M523.856 188.974L517.105 192.354L510.355 188.974V178.834L517.105 175.454L523.856 178.834V188.974Z" fill="#B9B9B9"/>
<path d="M505.299 188.974L498.548 192.354L491.797 188.974V178.834L498.548 175.454L505.299 178.834V188.974Z" fill="#B9B9B9"/>
<path d="M486.709 188.974L479.958 192.354L473.208 188.974V178.834L479.958 175.454L486.709 178.834V188.974Z" fill="#B9B9B9"/>
<path d="M468.152 188.974L461.401 192.354L454.651 188.974V178.834L461.401 175.454L468.152 178.834V188.974Z" fill="#B9B9B9"/>
<path d="M449.595 188.974L442.844 192.354L436.093 188.974V178.834L442.844 175.454L449.595 178.834V188.974Z" fill="#B9B9B9"/>
<path d="M431.037 188.974L424.287 192.354L417.536 188.974V178.834L424.287 175.454L431.037 178.834V188.974Z" fill="#B9B9B9"/>
<path d="M412.448 188.974L405.697 192.354L398.947 188.974V178.834L405.697 175.454L412.448 178.834V188.974Z" fill="#B9B9B9"/>
<path d="M245.401 188.974L238.65 192.354L231.9 188.974V178.834L238.65 175.454L245.401 178.834V188.974Z" fill="#B9B9B9"/>
<path d="M226.811 188.974L220.061 192.354L213.31 188.974V178.834L220.061 175.454L226.811 178.834V188.974Z" fill="#B9B9B9"/>
<path d="M208.254 188.974L201.503 192.354L194.753 188.974V178.834L201.503 175.454L208.254 178.834V188.974Z" fill="#B9B9B9"/>
<path d="M189.697 188.974L182.946 192.354L176.196 188.974V178.834L182.946 175.454L189.697 178.834V188.974Z" fill="#B9B9B9"/>
<path d="M171.14 188.974L164.389 192.354L157.639 188.974V178.834L164.389 175.454L171.14 178.834V188.974Z" fill="#B9B9B9"/>
<path d="M152.583 188.974L145.832 192.354L139.081 188.974V178.834L145.832 175.454L152.583 178.834V188.974Z" fill="#B9B9B9"/>
<path d="M133.993 188.974L127.242 192.354L120.492 188.974V178.834L127.242 175.454L133.993 178.834V188.974Z" fill="#B9B9B9"/>
<path d="M570.265 173.069L563.514 176.449L556.764 173.069V162.929L563.514 159.549L570.265 162.929V173.069Z" fill="#B9B9B9"/>
<path d="M551.708 173.069L544.957 176.449L538.207 173.069V162.929L544.957 159.549L551.708 162.929V173.069Z" fill="#B9B9B9"/>
<path d="M533.118 173.069L526.367 176.449L519.617 173.069V162.929L526.367 159.549L533.118 162.929V173.069Z" fill="#B9B9B9"/>
<path d="M514.561 173.069L507.81 176.449L501.06 173.069V162.929L507.81 159.549L514.561 162.929V173.069Z" fill="#B9B9B9"/>
<path d="M496.004 173.069L489.253 176.449L482.503 173.069V162.929L489.253 159.549L496.004 162.929V173.069Z" fill="#B9B9B9"/>
<path d="M477.447 173.069L470.696 176.449L463.945 173.069V162.929L470.696 159.549L477.447 162.929V173.069Z" fill="#B9B9B9"/>
<path d="M458.89 173.069L452.139 176.449L445.388 173.069V162.929L452.139 159.549L458.89 162.929V173.069Z" fill="#B9B9B9"/>
<path d="M236.106 173.069L229.355 176.449L222.605 173.069V162.929L229.355 159.549L236.106 162.929V173.069Z" fill="#B9B9B9"/>
<path d="M217.549 173.069L210.798 176.449L204.048 173.069V162.929L210.798 159.549L217.549 162.929V173.069Z" fill="#B9B9B9"/>
<path d="M198.992 173.069L192.241 176.449L185.491 173.069V162.929L192.241 159.549L198.992 162.929V173.069Z" fill="#B9B9B9"/>
<path d="M180.402 173.069L173.651 176.449L166.901 173.069V162.929L173.651 159.549L180.402 162.929V173.069Z" fill="#B9B9B9"/>
<path d="M161.845 173.069L155.094 176.449L148.344 173.069V162.929L155.094 159.549L161.845 162.929V173.069Z" fill="#B9B9B9"/>
<path d="M143.288 173.069L136.537 176.449L129.786 173.069V162.929L136.537 159.549L143.288 162.929V173.069Z" fill="#B9B9B9"/>
<path d="M124.731 173.069L117.98 176.449L111.229 173.069V162.929L117.98 159.549L124.731 162.929V173.069Z" fill="#B9B9B9"/>
<path d="M598.117 157.164L591.366 160.544L584.616 157.164V147.024L591.366 143.644L598.117 147.024V157.164Z" fill="#B9B9B9"/>
<path d="M579.527 157.164L572.777 160.544L566.026 157.164V147.024L572.777 143.644L579.527 147.024V157.164Z" fill="#B9B9B9"/>
<path d="M560.97 157.164L554.219 160.544L547.469 157.164V147.024L554.219 143.644L560.97 147.024V157.164Z" fill="#B9B9B9"/>
<path d="M542.413 157.164L535.662 160.544L528.912 157.164V147.024L535.662 143.644L542.413 147.024V157.164Z" fill="#B9B9B9"/>
<path d="M523.856 157.164L517.105 160.544L510.355 157.164V147.024L517.105 143.644L523.856 147.024V157.164Z" fill="#B9B9B9"/>
<path d="M505.299 157.164L498.548 160.544L491.797 157.164V147.024L498.548 143.644L505.299 147.024V157.164Z" fill="#B9B9B9"/>
<path d="M486.709 157.164L479.958 160.544L473.208 157.164V147.024L479.958 143.644L486.709 147.024V157.164Z" fill="#B9B9B9"/>
<path d="M468.152 157.164L461.401 160.544L454.651 157.164V147.024L461.401 143.644L468.152 147.024V157.164Z" fill="#B9B9B9"/>
<path d="M449.595 157.164L442.844 160.544L436.093 157.164V147.024L442.844 143.644L449.595 147.024V157.164Z" fill="#B9B9B9"/>
<path d="M208.254 157.164L201.503 160.544L194.753 157.164V147.024L201.503 143.644L208.254 147.024V157.164Z" fill="#B9B9B9"/>
<path d="M189.697 157.164L182.946 160.544L176.196 157.164V147.024L182.946 143.644L189.697 147.024V157.164Z" fill="#B9B9B9"/>
<path d="M171.14 157.164L164.389 160.544L157.639 157.164V147.024L164.389 143.644L171.14 147.024V157.164Z" fill="#B9B9B9"/>
<path d="M152.583 157.164L145.832 160.544L139.081 157.164V147.024L145.832 143.644L152.583 147.024V157.164Z" fill="#B9B9B9"/>
<path d="M607.379 141.259L600.629 144.639L593.878 141.259V131.119L600.629 127.739L607.379 131.119V141.259Z" fill="#B9B9B9"/>
<path d="M588.822 141.259L582.071 144.639L575.321 141.259V131.119L582.071 127.739L588.822 131.119V141.259Z" fill="#B9B9B9"/>
<path d="M570.265 141.259L563.514 144.639L556.764 141.259V131.119L563.514 127.739L570.265 131.119V141.259Z" fill="#B9B9B9"/>
<path d="M551.708 141.259L544.957 144.639L538.207 141.259V131.119L544.957 127.739L551.708 131.119V141.259Z" fill="#B9B9B9"/>
<path d="M533.118 141.259L526.367 144.639L519.617 141.259V131.119L526.367 127.739L533.118 131.119V141.259Z" fill="#B9B9B9"/>
<path d="M514.561 141.259L507.81 144.639L501.06 141.259V131.119L507.81 127.739L514.561 131.119V141.259Z" fill="#B9B9B9"/>
<path d="M496.004 141.259L489.253 144.639L482.503 141.259V131.119L489.253 127.739L496.004 131.119V141.259Z" fill="#B9B9B9"/>
<path d="M198.992 141.259L192.241 144.639L185.491 141.259V131.119L192.241 127.739L198.992 131.119V141.259Z" fill="#B9B9B9"/>
<path d="M579.527 125.354L572.777 128.734L566.026 125.354V115.214L572.777 111.834L579.527 115.214V125.354Z" fill="#B9B9B9"/>
<path d="M486.709 125.354L479.958 128.734L473.208 125.354V115.214L479.958 111.834L486.709 115.214V125.354Z" fill="#B9B9B9"/>
<path d="M505.299 125.354L498.548 128.734L491.797 125.354V115.214L498.548 111.834L505.299 115.214V125.354Z" fill="#B9B9B9"/>
<path d="M171.14 125.354L164.389 128.734L157.639 125.354V115.214L164.389 111.834L171.14 115.214V125.354Z" fill="#B9B9B9"/>
<path d="M449.595 125.354L442.844 128.734L436.093 125.354V115.214L442.844 111.834L449.595 115.214V125.354Z" fill="#B9B9B9"/>
<path d="M189.697 125.354L182.946 128.734L176.196 125.354V115.214L182.946 111.834L189.697 115.214V125.354Z" fill="#B9B9B9"/>
<path d="M551.708 109.449L544.957 112.829L538.207 109.449V99.3093L544.957 95.9294L551.708 99.3093V109.449Z" fill="#B9B9B9"/>
<path d="M533.118 109.449L526.367 112.829L519.617 109.449V99.3093L526.367 95.9294L533.118 99.3093V109.449Z" fill="#B9B9B9"/>
<path d="M458.89 109.449L452.139 112.829L445.388 109.449V99.3093L452.139 95.9294L458.89 99.3093V109.449Z" fill="#B9B9B9"/>
<path d="M496.004 109.449L489.253 112.829L482.503 109.449V99.3093L489.253 95.9294L496.004 99.3093V109.449Z" fill="#B9B9B9"/>
<path d="M477.447 109.449L470.696 112.829L463.945 109.449V99.3093L470.696 95.9294L477.447 99.3093V109.449Z" fill="#B9B9B9"/>
<path d="M542.413 93.5444L535.662 96.9244L528.912 93.5444V83.4045L535.662 80.0245L542.413 83.4045V93.5444Z" fill="#B9B9B9"/>
<path d="M496.004 77.6394L489.253 81.0194L482.503 77.6394V67.4995L489.253 64.1196L496.004 67.4995V77.6394Z" fill="#B9B9B9"/>
<path d="M523.856 93.5444L517.105 96.9244L510.355 93.5444V83.4045L517.105 80.0245L523.856 83.4045V93.5444Z" fill="#B9B9B9"/>
<path d="M505.299 93.5444L498.548 96.9244L491.797 93.5444V83.4045L498.548 80.0245L505.299 83.4045V93.5444Z" fill="#B9B9B9"/>
<path d="M486.709 93.5444L479.958 96.9244L473.208 93.5444V83.4045L479.958 80.0245L486.709 83.4045V93.5444Z" fill="#B9B9B9"/>
<path d="M533.118 77.6394L526.367 81.0194L519.617 77.6394V67.4995L526.367 64.1196L533.118 67.4995V77.6394Z" fill="#B9B9B9"/>
<path d="M514.561 77.6394L507.81 81.0194L501.06 77.6394V67.4995L507.81 64.1196L514.561 67.4995V77.6394Z" fill="#B9B9B9"/>
<path d="M523.856 61.7346L517.105 65.1145L510.355 61.7346V51.5947L517.105 48.2147L523.856 51.5947V61.7346Z" fill="#B9B9B9"/>
<path d="M505.299 61.7346L498.548 65.1145L491.797 61.7346V51.5947L498.548 48.2147L505.299 51.5947V61.7346Z" fill="#B9B9B9"/>
<path d="M486.709 61.7346L479.958 65.1145L473.208 61.7346V51.5947L479.958 48.2147L486.709 51.5947V61.7346Z" fill="#B9B9B9"/>
<path d="M496.004 459.389L489.253 462.769L482.503 459.389V449.25L489.253 445.87L496.004 449.25V459.389Z" fill="#B9B9B9"/>
<path d="M87.5836 395.77L80.8331 399.15L74.0825 395.77V385.63L80.8331 382.25L87.5836 385.63V395.77Z" fill="#B9B9B9"/>
<path d="M347.481 204.879L340.731 208.258L333.98 204.879V194.739L340.731 191.359L347.481 194.739V204.879Z" fill="#B9B9B9"/>
<path d="M328.924 204.879L322.174 208.258L315.423 204.879V194.739L322.174 191.359L328.924 194.739V204.879Z" fill="#B9B9B9"/>
<path d="M319.629 188.974L312.879 192.354L306.128 188.974V178.834L312.879 175.454L319.629 178.834V188.974Z" fill="#B9B9B9"/>
<path d="M366.039 173.069L359.288 176.449L352.537 173.069V162.929L359.288 159.549L366.039 162.929V173.069Z" fill="#B9B9B9"/>
<path d="M254.663 173.069L247.913 176.449L241.162 173.069V162.929L247.913 159.549L254.663 162.929V173.069Z" fill="#B9B9B9"/>
<path d="M431.037 157.164L424.287 160.544L417.536 157.164V147.024L424.287 143.644L431.037 147.024V157.164Z" fill="#B9B9B9"/>
<path d="M356.776 157.164L350.026 160.544L343.275 157.164V147.024L350.026 143.644L356.776 147.024V157.164Z" fill="#B9B9B9"/>
<path d="M301.072 157.164L294.322 160.544L287.571 157.164V147.024L294.322 143.644L301.072 147.024V157.164Z" fill="#B9B9B9"/>
<path d="M440.3 141.259L433.549 144.639L426.799 141.259V131.119L433.549 127.739L440.3 131.119V141.259Z" fill="#B9B9B9"/>
<path d="M421.742 141.259L414.992 144.639L408.241 141.259V131.119L414.992 127.739L421.742 131.119V141.259Z" fill="#B9B9B9"/>
<path d="M403.185 141.259L396.435 144.639L389.684 141.259V131.119L396.435 127.739L403.185 131.119V141.259Z" fill="#B9B9B9"/>
<path d="M366.039 141.259L359.288 144.639L352.537 141.259V131.119L359.288 127.739L366.039 131.119V141.259Z" fill="#B9B9B9"/>
<path d="M393.891 125.354L387.14 128.734L380.389 125.354V115.214L387.14 111.834L393.891 115.214V125.354Z" fill="#B9B9B9"/>
<path d="M319.629 125.354L312.879 128.734L306.128 125.354V115.214L312.879 111.834L319.629 115.214V125.354Z" fill="#B9B9B9"/>
<path d="M347.481 109.449L340.731 112.829L333.98 109.449V99.3093L340.731 95.9294L347.481 99.3093V109.449Z" fill="#B9B9B9"/>
<path d="M273.22 109.449L266.47 112.829L259.719 109.449V99.3093L266.47 95.9294L273.22 99.3093V109.449Z" fill="#B9B9B9"/>
<path d="M236.106 109.449L229.355 112.829L222.605 109.449V99.3093L229.355 95.9294L236.106 99.3093V109.449Z" fill="#B9B9B9"/>
<path d="M356.776 188.974L350.026 192.354L343.275 188.974V178.834L350.026 175.454L356.776 178.834V188.974Z" fill="#B9B9B9"/>
<path d="M393.891 188.974L387.14 192.354L380.389 188.974V178.834L387.14 175.454L393.891 178.834V188.974Z" fill="#B9B9B9"/>
<path d="M375.334 188.974L368.583 192.354L361.832 188.974V178.834L368.583 175.454L375.334 178.834V188.974Z" fill="#B9B9B9"/>
<path d="M338.219 188.974L331.469 192.354L324.718 188.974V178.834L331.469 175.454L338.219 178.834V188.974Z" fill="#B9B9B9"/>
<path d="M403.185 173.069L396.435 176.449L389.684 173.069V162.929L396.435 159.549L403.185 162.929V173.069Z" fill="#B9B9B9"/>
<path d="M301.072 188.974L294.322 192.354L287.571 188.974V178.834L294.322 175.454L301.072 178.834V188.974Z" fill="#B9B9B9"/>
<path d="M282.515 188.974L275.765 192.354L269.014 188.974V178.834L275.765 175.454L282.515 178.834V188.974Z" fill="#B9B9B9"/>
<path d="M263.958 188.974L257.207 192.354L250.457 188.974V178.834L257.207 175.454L263.958 178.834V188.974Z" fill="#B9B9B9"/>
<path d="M384.628 173.069L377.878 176.449L371.127 173.069V162.929L377.878 159.549L384.628 162.929V173.069Z" fill="#B9B9B9"/>
<path d="M347.481 173.069L340.731 176.449L333.98 173.069V162.929L340.731 159.549L347.481 162.929V173.069Z" fill="#B9B9B9"/>
<path d="M393.891 157.164L387.14 160.544L380.389 157.164V147.024L387.14 143.644L393.891 147.024V157.164Z" fill="#B9B9B9"/>
<path d="M328.924 173.069L322.174 176.449L315.423 173.069V162.929L322.174 159.549L328.924 162.929V173.069Z" fill="#B9B9B9"/>
<path d="M291.81 173.069L285.059 176.449L278.309 173.069V162.929L285.059 159.549L291.81 162.929V173.069Z" fill="#B9B9B9"/>
<path d="M310.367 173.069L303.617 176.449L296.866 173.069V162.929L303.617 159.549L310.367 162.929V173.069Z" fill="#B9B9B9"/>
<path d="M375.334 157.164L368.583 160.544L361.832 157.164V147.024L368.583 143.644L375.334 147.024V157.164Z" fill="#B9B9B9"/>
<path d="M273.22 173.069L266.47 176.449L259.719 173.069V162.929L266.47 159.549L273.22 162.929V173.069Z" fill="#B9B9B9"/>
<path d="M338.219 157.164L331.469 160.544L324.718 157.164V147.024L331.469 143.644L338.219 147.024V157.164Z" fill="#B9B9B9"/>
<path d="M412.448 157.164L405.697 160.544L398.947 157.164V147.024L405.697 143.644L412.448 147.024V157.164Z" fill="#B9B9B9"/>
<path d="M319.629 157.164L312.879 160.544L306.128 157.164V147.024L312.879 143.644L319.629 147.024V157.164Z" fill="#B9B9B9"/>
<path d="M263.958 157.164L257.207 160.544L250.457 157.164V147.024L257.207 143.644L263.958 147.024V157.164Z" fill="#B9B9B9"/>
<path d="M226.811 157.164L220.061 160.544L213.31 157.164V147.024L220.061 143.644L226.811 147.024V157.164Z" fill="#B9B9B9"/>
<path d="M245.401 157.164L238.65 160.544L231.9 157.164V147.024L238.65 143.644L245.401 147.024V157.164Z" fill="#B9B9B9"/>
<path d="M477.447 141.259L470.696 144.639L463.945 141.259V131.119L470.696 127.739L477.447 131.119V141.259Z" fill="#B9B9B9"/>
<path d="M458.89 141.259L452.139 144.639L445.388 141.259V131.119L452.139 127.739L458.89 131.119V141.259Z" fill="#B9B9B9"/>
<path d="M384.628 141.259L377.878 144.639L371.127 141.259V131.119L377.878 127.739L384.628 131.119V141.259Z" fill="#B9B9B9"/>
<path d="M198.992 109.449L192.241 112.829L185.491 109.449V99.3093L192.241 95.9294L198.992 99.3093V109.449Z" fill="#B9B9B9"/>
<path d="M217.549 141.259L210.798 144.639L204.048 141.259V131.119L210.798 127.739L217.549 131.119V141.259Z" fill="#B9B9B9"/>
<path d="M347.481 141.259L340.731 144.639L333.98 141.259V131.119L340.731 127.739L347.481 131.119V141.259Z" fill="#B9B9B9"/>
<path d="M328.924 141.259L322.174 144.639L315.423 141.259V131.119L322.174 127.739L328.924 131.119V141.259Z" fill="#B9B9B9"/>
<path d="M310.367 141.259L303.617 144.639L296.866 141.259V131.119L303.617 127.739L310.367 131.119V141.259Z" fill="#B9B9B9"/>
<path d="M291.81 141.259L285.059 144.639L278.309 141.259V131.119L285.059 127.739L291.81 131.119V141.259Z" fill="#B9B9B9"/>
<path d="M273.22 141.259L266.47 144.639L259.719 141.259V131.119L266.47 127.739L273.22 131.119V141.259Z" fill="#B9B9B9"/>
<path d="M254.663 141.259L247.913 144.639L241.162 141.259V131.119L247.913 127.739L254.663 131.119V141.259Z" fill="#B9B9B9"/>
<path d="M236.106 141.259L229.355 144.639L222.605 141.259V131.119L229.355 127.739L236.106 131.119V141.259Z" fill="#B9B9B9"/>
<path d="M431.037 125.354L424.287 128.734L417.536 125.354V115.214L424.287 111.834L431.037 115.214V125.354Z" fill="#B9B9B9"/>
<path d="M412.448 125.354L405.697 128.734L398.947 125.354V115.214L405.697 111.834L412.448 115.214V125.354Z" fill="#B9B9B9"/>
<path d="M338.219 125.354L331.469 128.734L324.718 125.354V115.214L331.469 111.834L338.219 115.214V125.354Z" fill="#B9B9B9"/>
<path d="M375.334 125.354L368.583 128.734L361.832 125.354V115.214L368.583 111.834L375.334 115.214V125.354Z" fill="#B9B9B9"/>
<path d="M356.776 125.354L350.026 128.734L343.275 125.354V115.214L350.026 111.834L356.776 115.214V125.354Z" fill="#B9B9B9"/>
<path d="M208.254 125.354L201.503 128.734L194.753 125.354V115.214L201.503 111.834L208.254 115.214V125.354Z" fill="#B9B9B9"/>
<path d="M291.81 109.449L285.059 112.829L278.309 109.449V99.3093L285.059 95.9294L291.81 99.3093V109.449Z" fill="#B9B9B9"/>
<path d="M301.072 125.354L294.322 128.734L287.571 125.354V115.214L294.322 111.834L301.072 115.214V125.354Z" fill="#B9B9B9"/>
<path d="M282.515 125.354L275.765 128.734L269.014 125.354V115.214L275.765 111.834L282.515 115.214V125.354Z" fill="#B9B9B9"/>
<path d="M263.958 125.354L257.207 128.734L250.457 125.354V115.214L257.207 111.834L263.958 115.214V125.354Z" fill="#B9B9B9"/>
<path d="M245.401 125.354L238.65 128.734L231.9 125.354V115.214L238.65 111.834L245.401 115.214V125.354Z" fill="#B9B9B9"/>
<path d="M226.811 125.354L220.061 128.734L213.31 125.354V115.214L220.061 111.834L226.811 115.214V125.354Z" fill="#B9B9B9"/>
<path d="M440.3 109.449L433.549 112.829L426.799 109.449V99.3093L433.549 95.9294L440.3 99.3093V109.449Z" fill="#B9B9B9"/>
<path d="M421.742 109.449L414.992 112.829L408.241 109.449V99.3093L414.992 95.9294L421.742 99.3093V109.449Z" fill="#B9B9B9"/>
<path d="M310.367 109.449L303.617 112.829L296.866 109.449V99.3093L303.617 95.9294L310.367 99.3093V109.449Z" fill="#B9B9B9"/>
<path d="M328.924 109.449L322.174 112.829L315.423 109.449V99.3093L322.174 95.9294L328.924 99.3093V109.449Z" fill="#B9B9B9"/>
<path d="M254.663 109.449L247.913 112.829L241.162 109.449V99.3093L247.913 95.9294L254.663 99.3093V109.449Z" fill="#B9B9B9"/>
<path d="M217.549 109.449L210.798 112.829L204.048 109.449V99.3093L210.798 95.9294L217.549 99.3093V109.449Z" fill="#B9B9B9"/>
<path d="M226.811 93.5444L220.061 96.9244L213.31 93.5444V83.4045L220.061 80.0245L226.811 83.4045V93.5444Z" fill="#B9B9B9"/>
<path d="M301.072 93.5444L294.322 96.9244L287.571 93.5444V83.4045L294.322 80.0245L301.072 83.4045V93.5444Z" fill="#B9B9B9"/>
<path d="M366.039 109.449L359.288 112.829L352.537 109.449V99.3093L359.288 95.9294L366.039 99.3093V109.449Z" fill="#B9B9B9"/>
<path d="M291.81 77.6394L285.059 81.0194L278.309 77.6394V67.4995L285.059 64.1196L291.81 67.4995V77.6394Z" fill="#B9B9B9"/>
<path d="M384.628 459.389L377.878 462.769L371.127 459.389V449.25L377.878 445.87L384.628 449.25V459.389Z" fill="#B9B9B9"/>
<path d="M87.5836 523.009L80.8331 526.389L74.0825 523.009V512.869L80.8331 509.489L87.5836 512.869V523.009Z" fill="#B9B9B9"/>
<path d="M477.447 713.9L470.696 717.28L463.945 713.9V703.76L470.696 700.38L477.447 703.76V713.9Z" fill="#B9B9B9"/>
<path d="M672.346 697.995L665.595 701.375L658.844 697.995V687.856L665.595 684.476L672.346 687.856V697.995Z" fill="#B9B9B9"/>
<path d="M653.788 697.995L647.038 701.375L640.287 697.995V687.856L647.038 684.476L653.788 687.856V697.995Z" fill="#B9B9B9"/>
<path d="M412.448 697.995L405.697 701.375L398.947 697.995V687.856L405.697 684.476L412.448 687.856V697.995Z" fill="#B9B9B9"/>
<path d="M393.891 697.995L387.14 701.375L380.389 697.995V687.856L387.14 684.476L393.891 687.856V697.995Z" fill="#B9B9B9"/>
<path d="M375.334 697.995L368.583 701.375L361.832 697.995V687.856L368.583 684.476L375.334 687.856V697.995Z" fill="#B9B9B9"/>
<path d="M663.083 682.09L656.333 685.47L649.582 682.09V671.95L656.333 668.57L663.083 671.95V682.09Z" fill="#B9B9B9"/>
<path d="M366.039 682.09L359.288 685.47L352.537 682.09V671.95L359.288 668.57L366.039 671.95V682.09Z" fill="#B9B9B9"/>
<path d="M347.481 682.09L340.731 685.47L333.98 682.09V671.95L340.731 668.57L347.481 671.95V682.09Z" fill="#B9B9B9"/>
<path d="M672.346 666.186L665.595 669.565L658.844 666.186V656.046L665.595 652.666L672.346 656.046V666.186Z" fill="#B9B9B9"/>
<path d="M653.788 666.186L647.038 669.565L640.287 666.186V656.046L647.038 652.666L653.788 656.046V666.186Z" fill="#B9B9B9"/>
<path d="M635.231 666.186L628.481 669.565L621.73 666.186V656.046L628.481 652.666L635.231 656.046V666.186Z" fill="#B9B9B9"/>
<path d="M616.674 666.186L609.923 669.565L603.173 666.186V656.046L609.923 652.666L616.674 656.046V666.186Z" fill="#B9B9B9"/>
<path d="M505.299 666.186L498.548 669.565L491.797 666.186V656.046L498.548 652.666L505.299 656.046V666.186Z" fill="#B9B9B9"/>
<path d="M338.219 666.186L331.469 669.565L324.718 666.186V656.046L331.469 652.666L338.219 656.046V666.186Z" fill="#B9B9B9"/>
<path d="M663.083 650.281L656.333 653.661L649.582 650.281V640.141L656.333 636.761L663.083 640.141V650.281Z" fill="#B9B9B9"/>
<path d="M644.526 650.281L637.776 653.661L631.025 650.281V640.141L637.776 636.761L644.526 640.141V650.281Z" fill="#B9B9B9"/>
<path d="M607.379 650.281L600.629 653.661L593.878 650.281V640.141L600.629 636.761L607.379 640.141V650.281Z" fill="#B9B9B9"/>
<path d="M496.004 650.281L489.253 653.661L482.503 650.281V640.141L489.253 636.761L496.004 640.141V650.281Z" fill="#B9B9B9"/>
<path d="M477.447 650.281L470.696 653.661L463.945 650.281V640.141L470.696 636.761L477.447 640.141V650.281Z" fill="#B9B9B9"/>
<path d="M440.3 650.281L433.549 653.661L426.799 650.281V640.141L433.549 636.761L440.3 640.141V650.281Z" fill="#B9B9B9"/>
<path d="M421.742 650.281L414.992 653.661L408.241 650.281V640.141L414.992 636.761L421.742 640.141V650.281Z" fill="#B9B9B9"/>
<path d="M403.185 650.281L396.435 653.661L389.684 650.281V640.141L396.435 636.761L403.185 640.141V650.281Z" fill="#B9B9B9"/>
<path d="M328.924 650.281L322.174 653.661L315.423 650.281V640.141L322.174 636.761L328.924 640.141V650.281Z" fill="#B9B9B9"/>
<path d="M310.367 650.281L303.617 653.661L296.866 650.281V640.141L303.617 636.761L310.367 640.141V650.281Z" fill="#B9B9B9"/>
<path d="M598.117 634.376L591.366 637.756L584.616 634.376V624.236L591.366 620.856L598.117 624.236V634.376Z" fill="#B9B9B9"/>
<path d="M505.299 634.376L498.548 637.756L491.797 634.376V624.236L498.548 620.856L505.299 624.236V634.376Z" fill="#B9B9B9"/>
<path d="M449.595 634.376L442.844 637.756L436.093 634.376V624.236L442.844 620.856L449.595 624.236V634.376Z" fill="#B9B9B9"/>
<path d="M431.037 634.376L424.287 637.756L417.536 634.376V624.236L424.287 620.856L431.037 624.236V634.376Z" fill="#B9B9B9"/>
<path d="M412.448 634.376L405.697 637.756L398.947 634.376V624.236L405.697 620.856L412.448 624.236V634.376Z" fill="#B9B9B9"/>
<path d="M393.891 634.376L387.14 637.756L380.389 634.376V624.236L387.14 620.856L393.891 624.236V634.376Z" fill="#B9B9B9"/>
<path d="M319.629 634.376L312.879 637.756L306.128 634.376V624.236L312.879 620.856L319.629 624.236V634.376Z" fill="#B9B9B9"/>
<path d="M301.072 634.376L294.322 637.756L287.571 634.376V624.236L294.322 620.856L301.072 624.236V634.376Z" fill="#B9B9B9"/>
<path d="M551.708 618.471L544.957 621.851L538.207 618.471V608.331L544.957 604.951L551.708 608.331V618.471Z" fill="#B9B9B9"/>
<path d="M496.004 618.471L489.253 621.851L482.503 618.471V608.331L489.253 604.951L496.004 608.331V618.471Z" fill="#B9B9B9"/>
<path d="M458.89 618.471L452.139 621.851L445.388 618.471V608.331L452.139 604.951L458.89 608.331V618.471Z" fill="#B9B9B9"/>
<path d="M440.3 618.471L433.549 621.851L426.799 618.471V608.331L433.549 604.951L440.3 608.331V618.471Z" fill="#B9B9B9"/>
<path d="M421.742 618.471L414.992 621.851L408.241 618.471V608.331L414.992 604.951L421.742 608.331V618.471Z" fill="#B9B9B9"/>
<path d="M384.628 618.471L377.878 621.851L371.127 618.471V608.331L377.878 604.951L384.628 608.331V618.471Z" fill="#B9B9B9"/>
<path d="M310.367 618.471L303.617 621.851L296.866 618.471V608.331L303.617 604.951L310.367 608.331V618.471Z" fill="#B9B9B9"/>
<path d="M291.81 618.471L285.059 621.851L278.309 618.471V608.331L285.059 604.951L291.81 608.331V618.471Z" fill="#B9B9B9"/>
<path d="M449.595 602.566L442.844 605.946L436.093 602.566V592.426L442.844 589.046L449.595 592.426V602.566Z" fill="#B9B9B9"/>
<path d="M282.515 602.566L275.765 605.946L269.014 602.566V592.426L275.765 589.046L282.515 592.426V602.566Z" fill="#B9B9B9"/>
<path d="M273.22 586.661L266.47 590.041L259.719 586.661V576.521L266.47 573.141L273.22 576.521V586.661Z" fill="#B9B9B9"/>
<path d="M347.481 650.281L340.731 653.661L333.98 650.281V640.141L340.731 636.761L347.481 640.141V650.281Z" fill="#B9B9B9"/>
<path d="M403.185 618.471L396.435 621.851L389.684 618.471V608.331L396.435 604.951L403.185 608.331V618.471Z" fill="#B9B9B9"/>
<path d="M319.629 602.566L312.879 605.946L306.128 602.566V592.426L312.879 589.046L319.629 592.426V602.566Z" fill="#B9B9B9"/>
<path d="M310.367 586.661L303.617 590.041L296.866 586.661V576.521L303.617 573.141L310.367 576.521V586.661Z" fill="#B9B9B9"/>
</g>
</g>
</g>
<g filter="url(#filter5_d_29_1646)">
<path d="M328.924 586.661L322.174 590.041L315.423 586.661V576.521L322.174 573.141L328.924 576.521V586.661Z" fill="#7AD9EF"/>
<path d="M653.788 284.436L647.038 287.816L640.287 284.436V274.296L647.038 270.916L653.788 274.296V284.436Z" fill="#7AD9EF"/>
<path d="M625.936 300.341L619.186 303.721L612.435 300.341V290.201L619.186 286.821L625.936 290.201V300.341Z" fill="#7AD9EF"/>
<path d="M607.379 300.341L600.629 303.721L593.878 300.341V290.201L600.629 286.821L607.379 290.201V300.341Z" fill="#7AD9EF"/>
<path d="M635.231 284.436L628.481 287.816L621.73 284.436V274.296L628.481 270.916L635.231 274.296V284.436Z" fill="#7AD9EF"/>
<path d="M616.674 284.436L609.923 287.816L603.173 284.436V274.296L609.923 270.916L616.674 274.296V284.436Z" fill="#7AD9EF"/>
<path d="M598.117 284.436L591.366 287.816L584.616 284.436V274.296L591.366 270.916L598.117 274.296V284.436Z" fill="#7AD9EF"/>
<path d="M663.083 268.498L656.333 271.878L649.582 268.498V258.358L656.333 254.978L663.083 258.358V268.498Z" fill="#7AD9EF"/>
<path d="M644.526 268.498L637.775 271.878L631.025 268.498V258.358L637.775 254.978L644.526 258.358V268.498Z" fill="#7AD9EF"/>
<path d="M672.345 252.593L665.595 255.973L658.844 252.593V242.453L665.595 239.073L672.345 242.453V252.593Z" fill="#7AD9EF"/>
<path d="M681.64 236.688L674.89 240.068L668.139 236.688V226.548L674.89 223.168L681.64 226.548V236.688Z" fill="#7AD9EF"/>
<path d="M672.345 220.784L665.595 224.164L658.844 220.784V210.644L665.595 207.264L672.345 210.644V220.784Z" fill="#7AD9EF"/>
<path d="M663.083 204.879L656.333 208.259L649.582 204.879V194.739L656.333 191.359L663.083 194.739V204.879Z" fill="#7AD9EF"/>
<path d="M709.492 188.974L702.742 192.354L695.991 188.974V178.834L702.742 175.454L709.492 178.834V188.974Z" fill="#7AD9EF"/>
<path d="M690.935 188.974L684.185 192.354L677.434 188.974V178.834L684.185 175.454L690.935 178.834V188.974Z" fill="#7AD9EF"/>
<path d="M672.345 188.974L665.595 192.354L658.844 188.974V178.834L665.595 175.454L672.345 178.834V188.974Z" fill="#7AD9EF"/>
<path d="M681.64 173.069L674.89 176.449L668.139 173.069V162.929L674.89 159.549L681.64 162.929V173.069Z" fill="#7AD9EF"/>
<path d="M588.822 300.341L582.071 303.721L575.321 300.341V290.201L582.071 286.821L588.822 290.201V300.341Z" fill="#7AD9EF"/>
<path d="M449.594 411.675L442.844 415.054L436.093 411.675V401.535L442.844 398.155L449.594 401.535V411.675Z" fill="#7AD9EF"/>
<path d="M579.527 316.245L572.777 319.625L566.026 316.245V306.106L572.777 302.726L579.527 306.106V316.245Z" fill="#7AD9EF"/>
</g>
<g filter="url(#filter6_d_29_1646)">
<path d="M496.004 395.77L489.253 399.15L482.502 395.77V385.63L489.253 382.25L496.004 385.63V395.77Z" fill="#7AD9EF"/>
<path d="M486.709 411.675L479.958 415.055L473.208 411.675V401.535L479.958 398.155L486.709 401.535V411.675Z" fill="#7AD9EF"/>
</g>
<defs>
<filter id="filter0_f_29_1646" x="466.318" y="62.0975" width="356.453" height="356.829" filterUnits="userSpaceOnUse" color-interpolation-filters="sRGB">
<feFlood flood-opacity="0" result="BackgroundImageFix"/>
<feBlend mode="normal" in="SourceGraphic" in2="BackgroundImageFix" result="shape"/>
<feGaussianBlur stdDeviation="21.3171" result="effect1_foregroundBlur_29_1646"/>
</filter>
<filter id="filter1_f_29_1646" x="176.622" y="440.244" width="278.707" height="278.976" filterUnits="userSpaceOnUse" color-interpolation-filters="sRGB">
<feFlood flood-opacity="0" result="BackgroundImageFix"/>
<feBlend mode="normal" in="SourceGraphic" in2="BackgroundImageFix" result="shape"/>
<feGaussianBlur stdDeviation="21.3171" result="effect1_foregroundBlur_29_1646"/>
</filter>
<filter id="filter2_f_29_1646" x="198.607" y="129" width="530.497" height="529" filterUnits="userSpaceOnUse" color-interpolation-filters="sRGB">
<feFlood flood-opacity="0" result="BackgroundImageFix"/>
<feBlend mode="normal" in="SourceGraphic" in2="BackgroundImageFix" result="shape"/>
<feGaussianBlur stdDeviation="42" result="effect1_foregroundBlur_29_1646"/>
</filter>
<filter id="filter3_d_29_1646" x="-3.88591" y="48.2147" width="679.939" height="676.48" filterUnits="userSpaceOnUse" color-interpolation-filters="sRGB">
<feFlood flood-opacity="0" result="BackgroundImageFix"/>
<feColorMatrix in="SourceAlpha" type="matrix" values="0 0 0 0 0 0 0 0 0 0 0 0 0 0 0 0 0 0 127 0" result="hardAlpha"/>
<feOffset dy="3.70732"/>
<feGaussianBlur stdDeviation="1.85366"/>
<feComposite in2="hardAlpha" operator="out"/>
<feColorMatrix type="matrix" values="0 0 0 0 0 0 0 0 0 0 0 0 0 0 0 0 0 0 0 0"/>
<feBlend mode="normal" in2="BackgroundImageFix" result="effect1_dropShadow_29_1646"/>
<feBlend mode="normal" in="SourceGraphic" in2="effect1_dropShadow_29_1646" result="shape"/>
</filter>
<filter id="filter4_d_29_1646" x="-2.03225" y="46.3611" width="679.939" height="676.48" filterUnits="userSpaceOnUse" color-interpolation-filters="sRGB">
<feFlood flood-opacity="0" result="BackgroundImageFix"/>
<feColorMatrix in="SourceAlpha" type="matrix" values="0 0 0 0 0 0 0 0 0 0 0 0 0 0 0 0 0 0 127 0" result="hardAlpha"/>
<feOffset dx="1.85366" dy="1.85366"/>
<feGaussianBlur stdDeviation="1.85366"/>
<feComposite in2="hardAlpha" operator="out"/>
<feColorMatrix type="matrix" values="0 0 0 0 0 0 0 0 0 0 0 0 0 0 0 0 0 0 0 0"/>
<feBlend mode="normal" in2="BackgroundImageFix" result="effect1_dropShadow_29_1646"/>
<feBlend mode="normal" in="SourceGraphic" in2="effect1_dropShadow_29_1646" result="shape"/>
</filter>
<filter id="filter5_d_29_1646" x="311.716" y="159.549" width="401.484" height="437.906" filterUnits="userSpaceOnUse" color-interpolation-filters="sRGB">
<feFlood flood-opacity="0" result="BackgroundImageFix"/>
<feColorMatrix in="SourceAlpha" type="matrix" values="0 0 0 0 0 0 0 0 0 0 0 0 0 0 0 0 0 0 127 0" result="hardAlpha"/>
<feOffset dy="3.70732"/>
<feGaussianBlur stdDeviation="1.85366"/>
<feComposite in2="hardAlpha" operator="out"/>
<feColorMatrix type="matrix" values="0 0 0 0 0 0 0 0 0 0 0 0 0 0 0 0 0 0 0 0"/>
<feBlend mode="normal" in2="BackgroundImageFix" result="effect1_dropShadow_29_1646"/>
<feBlend mode="normal" in="SourceGraphic" in2="effect1_dropShadow_29_1646" result="shape"/>
</filter>
<filter id="filter6_d_29_1646" x="469.208" y="382.25" width="30.7959" height="40.8043" filterUnits="userSpaceOnUse" color-interpolation-filters="sRGB">
<feFlood flood-opacity="0" result="BackgroundImageFix"/>
<feColorMatrix in="SourceAlpha" type="matrix" values="0 0 0 0 0 0 0 0 0 0 0 0 0 0 0 0 0 0 127 0" result="hardAlpha"/>
<feOffset dy="4"/>
<feGaussianBlur stdDeviation="2"/>
<feComposite in2="hardAlpha" operator="out"/>
<feColorMatrix type="matrix" values="0 0 0 0 0 0 0 0 0 0 0 0 0 0 0 0 0 0 0 0"/>
<feBlend mode="normal" in2="BackgroundImageFix" result="effect1_dropShadow_29_1646"/>
<feBlend mode="normal" in="SourceGraphic" in2="effect1_dropShadow_29_1646" result="shape"/>
</filter>
<radialGradient id="paint0_radial_29_1646" cx="0" cy="0" r="1" gradientUnits="userSpaceOnUse" gradientTransform="translate(644.544 240.512) rotate(90) scale(135.78 135.592)">
<stop stop-color="white"/>
<stop offset="0.260417" stop-color="#7AD9EF" stop-opacity="0.932285"/>
<stop offset="0.9999" stop-color="#7AD9EF" stop-opacity="0"/>
<stop offset="1" stop-color="#E068FE" stop-opacity="0"/>
</radialGradient>
<radialGradient id="paint1_radial_29_1646" cx="0" cy="0" r="1" gradientUnits="userSpaceOnUse" gradientTransform="translate(315.976 579.732) rotate(90) scale(96.8537 96.7193)">
<stop stop-color="white"/>
<stop offset="0.411458" stop-color="#7AD9EF"/>
<stop offset="0.9999" stop-color="#7AD9EF" stop-opacity="0"/>
</radialGradient>
<radialGradient id="paint2_radial_29_1646" cx="0" cy="0" r="1" gradientUnits="userSpaceOnUse" gradientTransform="translate(463.856 393.5) rotate(90) scale(180.5 181.248)">
<stop stop-color="white"/>
<stop offset="0.302083" stop-color="#7AD9EF"/>
<stop offset="0.9999" stop-color="#7AD9EF" stop-opacity="0"/>
<stop offset="1" stop-color="white"/>
</radialGradient>
<radialGradient id="paint3_radial_29_1646" cx="0" cy="0" r="1" gradientUnits="userSpaceOnUse" gradientTransform="translate(452.099 410.878) rotate(-157.487) scale(373.636 374.003)">
<stop stop-color="#D9D9D9"/>
<stop offset="1" stop-color="#D9D9D9" stop-opacity="0"/>
</radialGradient>
</defs>
</svg>
