<svg width="428" height="108" viewBox="0 0 428 108" fill="none" xmlns="http://www.w3.org/2000/svg">
    <g filter="url(#filter0_d_762_6383)">
        <path
            d="M97.9301 19.9085C97.7868 19.6449 97.718 19.3472 97.7307 19.0473C97.7435 18.7475 97.837 18.4567 98.0021 18.2063C98.1673 17.9559 98.3976 17.7552 98.6679 17.6258C98.9382 17.4964 99.238 17.4434 99.5362 17.472H111.956C112.289 17.4973 112.611 17.6061 112.892 17.7886C113.173 17.971 113.404 18.2212 113.563 18.5162L128.89 51.017H129.455L144.784 18.5162C144.933 18.213 145.161 17.9557 145.443 17.7719C145.726 17.588 146.053 17.4845 146.39 17.472H158.766C159.06 17.4575 159.352 17.5197 159.614 17.6529C159.877 17.786 160.1 17.9854 160.262 18.2313C160.424 18.4772 160.521 18.7612 160.54 19.0553C160.559 19.3494 160.501 19.6435 160.372 19.9085L131.149 81.7341C131.002 82.0354 130.773 82.289 130.489 82.466C130.205 82.643 129.877 82.7364 129.542 82.735H128.587C128.254 82.7314 127.927 82.6361 127.644 82.4596C127.36 82.2832 127.131 82.0322 126.98 81.7341L97.9301 19.9085Z"
            fill="white" />
        <path
            d="M236.103 19.2556C236.097 19.0235 236.137 18.7926 236.221 18.5764C236.306 18.3602 236.434 18.1632 236.596 17.9969C236.757 17.8307 236.95 17.6986 237.164 17.6084C237.377 17.5182 237.607 17.4718 237.839 17.4719H276.4C276.631 17.4718 276.86 17.5182 277.074 17.6084C277.287 17.6986 277.481 17.8307 277.643 17.9969C277.805 18.1632 277.932 18.3602 278.016 18.5764C278.101 18.7926 278.142 19.0235 278.136 19.2556V29.3932C278.142 29.6234 278.102 29.8523 278.016 30.0662C277.931 30.28 277.804 30.4743 277.641 30.6371C277.479 30.7999 277.284 30.9278 277.071 31.0131C276.857 31.0985 276.629 31.1394 276.4 31.1334H250.605V44.5777H271.84C272.309 44.5888 272.755 44.7801 273.087 45.1123C273.418 45.4445 273.609 45.8918 273.62 46.3615V56.4991C273.609 56.9687 273.418 57.4161 273.087 57.7482C272.755 58.0804 272.309 58.2717 271.84 58.2828H250.605V80.9073C250.595 81.3697 250.41 81.8109 250.088 82.1419C249.766 82.473 249.33 82.6694 248.869 82.6914H237.839C237.607 82.6914 237.377 82.645 237.164 82.5549C236.95 82.4647 236.757 82.3326 236.596 82.1664C236.434 82.0001 236.306 81.8031 236.221 81.5869C236.137 81.3707 236.097 81.1395 236.103 80.9073V19.2556Z"
            fill="white" />
        <path
            d="M300.369 17.4718H289.166C288.207 17.4718 287.429 18.251 287.429 19.2122V80.9944C287.429 81.9556 288.207 82.7348 289.166 82.7348H300.369C301.329 82.7348 302.106 81.9556 302.106 80.9944V19.2122C302.106 18.251 301.329 17.4718 300.369 17.4718Z"
            fill="white" />
        <path
            d="M308.968 19.9085C308.825 19.6449 308.755 19.3472 308.768 19.0473C308.78 18.7475 308.875 18.4567 309.04 18.2063C309.205 17.9559 309.436 17.7552 309.706 17.6258C309.976 17.4964 310.276 17.4434 310.574 17.472H322.994C323.327 17.4973 323.649 17.6061 323.93 17.7886C324.211 17.971 324.441 18.2212 324.6 18.5162L339.928 51.017H340.493L355.908 18.5162C356.057 18.213 356.284 17.9557 356.567 17.7719C356.85 17.588 357.178 17.4845 357.515 17.472H369.89C370.184 17.4575 370.477 17.5197 370.739 17.6529C371.002 17.786 371.225 17.9854 371.387 18.2313C371.549 18.4772 371.644 18.7612 371.664 19.0553C371.683 19.3494 371.626 19.6435 371.497 19.9085L342.273 81.7341C342.127 82.0354 341.898 82.289 341.614 82.466C341.33 82.643 341.001 82.7364 340.666 82.735H339.711C339.378 82.7314 339.052 82.6361 338.769 82.4596C338.485 82.2832 338.256 82.0322 338.105 81.7341L308.968 19.9085Z"
            fill="white" />
        <path
            d="M377.966 19.2556C377.961 19.0235 378.001 18.7926 378.086 18.5764C378.171 18.3602 378.297 18.1632 378.459 17.9969C378.621 17.8307 378.815 17.6986 379.029 17.6084C379.242 17.5182 379.471 17.4718 379.703 17.4719H418.22C418.692 17.4719 419.144 17.6597 419.478 17.9943C419.812 18.3288 420 18.7825 420 19.2556V29.3932C420 29.6255 419.954 29.8553 419.864 30.0693C419.774 30.2834 419.642 30.4773 419.476 30.6395C419.31 30.8017 419.113 30.9288 418.897 31.0137C418.682 31.0985 418.452 31.1392 418.22 31.1334H392.47V42.7069H413.704C414.169 42.7067 414.615 42.8886 414.947 43.2138C415.28 43.539 415.472 43.9815 415.484 44.4471V54.6282C415.484 54.8605 415.438 55.0903 415.348 55.3043C415.258 55.5184 415.126 55.7123 414.96 55.8745C414.794 56.0367 414.598 56.1638 414.382 56.2486C414.166 56.3335 413.935 56.3742 413.704 56.3684H392.47V68.9425H418.22C418.452 68.9367 418.682 68.9774 418.897 69.0622C419.113 69.1471 419.31 69.2745 419.476 69.4367C419.642 69.5989 419.774 69.7925 419.864 70.0065C419.954 70.2206 420 70.4507 420 70.6829V80.8638C420 81.0961 419.954 81.3261 419.864 81.5402C419.774 81.7542 419.642 81.9479 419.476 82.1101C419.31 82.2722 419.113 82.3996 418.897 82.4845C418.682 82.5693 418.452 82.6101 418.22 82.6042H379.703C379.473 82.6102 379.245 82.5693 379.032 82.484C378.818 82.3986 378.624 82.2707 378.461 82.1079C378.299 81.9451 378.171 81.7508 378.086 81.537C378.001 81.3231 377.96 81.094 377.966 80.8638V19.2556Z"
            fill="white" />
        <path
            d="M198.411 80.9945L185.384 18.5161C185.253 18.1999 185.029 17.9308 184.743 17.7444C184.456 17.558 184.119 17.4632 183.778 17.4719H176.266C175.926 17.4745 175.595 17.574 175.31 17.759C175.026 17.944 174.799 18.2067 174.658 18.5161L165.974 37.0508L145.608 80.1678C145.46 80.4282 145.387 80.7249 145.399 81.0245C145.41 81.3241 145.504 81.6146 145.671 81.8634C145.838 82.1121 146.071 82.3092 146.344 82.4324C146.617 82.5556 146.919 82.6 147.216 82.5607H159.591C159.921 82.5439 160.243 82.4434 160.524 82.2683C160.805 82.0933 161.037 81.8495 161.198 81.5601L176.526 49.0157H177.047L183.821 81.5601C183.979 81.8523 184.211 82.0982 184.492 82.2736C184.774 82.4491 185.096 82.548 185.427 82.5607H197.022C198.368 82.5607 198.802 81.6907 198.585 80.8205"
            fill="white" />
        <path
            d="M228.287 80.9945L215.26 18.5161C215.128 18.1999 214.904 17.9308 214.617 17.7444C214.33 17.558 213.994 17.4632 213.652 17.4719H206.14C205.801 17.4745 205.47 17.574 205.185 17.759C204.9 17.944 204.675 18.2067 204.534 18.5161L195.85 37.1377C195.743 37.3423 195.67 37.5627 195.632 37.7904V38.4429C195.632 38.4429 199.453 56.499 199.496 56.934C199.561 57.2897 199.742 57.6143 200.008 57.8579C200.275 58.1015 200.614 58.2507 200.973 58.2828C201.288 58.2724 201.596 58.1785 201.863 58.0103C202.13 57.8422 202.347 57.6059 202.493 57.3257L206.314 49.1896H206.792L213.609 81.734C213.76 82.0321 213.989 82.2831 214.273 82.4595C214.556 82.636 214.883 82.7313 215.216 82.7349H226.81C228.243 82.7349 228.678 81.8646 228.461 80.9945"
            fill="white" />
        <path
            d="M20.6795 23.8675L40.0462 35.0492L46.3 24.1285L12.0818 4.37568C11.6846 4.13547 11.2301 4.00573 10.7661 4.00019C10.3022 3.99464 9.84592 4.11344 9.44309 4.34408C9.04026 4.57472 8.70594 4.90901 8.47518 5.3123C8.24442 5.71559 8.12576 6.17311 8.13064 6.63795V46.231H20.6795V23.8675Z"
            fill="#FC981C" />
        <path
            d="M87.2477 47.7973L53.0295 28.0009L46.7333 38.8781L66.1 50.0598H35.7036L20.5489 76.165V53.8015H8V93.3507C8.00086 93.8141 8.1222 94.2693 8.35303 94.6708C8.58385 95.0723 8.91604 95.4061 9.31563 95.6393C9.71523 95.8725 10.1688 95.9969 10.6313 95.9999C11.0937 96.003 11.5485 95.8847 11.9511 95.6568L87.1173 52.1482C87.4742 51.9142 87.7696 51.5974 87.9781 51.2246C88.1866 50.8517 88.3024 50.4339 88.3152 50.0067C88.328 49.5796 88.2371 49.1558 88.0512 48.7711C87.8654 48.3864 87.59 48.0523 87.2477 47.7973Z"
            fill="#FC981C" />
    </g>
    <defs>
        <filter id="filter0_d_762_6383" x="0" y="0" width="428" height="108" filterUnits="userSpaceOnUse"
            color-interpolation-filters="sRGB">
            <feFlood flood-opacity="0" result="BackgroundImageFix" />
            <feColorMatrix in="SourceAlpha" type="matrix" values="0 0 0 0 0 0 0 0 0 0 0 0 0 0 0 0 0 0 127 0"
                result="hardAlpha" />
            <feOffset dy="4" />
            <feGaussianBlur stdDeviation="4" />
            <feComposite in2="hardAlpha" operator="out" />
            <feColorMatrix type="matrix" values="0 0 0 0 0 0 0 0 0 0 0 0 0 0 0 0 0 0 0.5 0" />
            <feBlend mode="normal" in2="BackgroundImageFix" result="effect1_dropShadow_762_6383" />
            <feBlend mode="normal" in="SourceGraphic" in2="effect1_dropShadow_762_6383" result="shape" />
        </filter>
    </defs>
</svg>