<svg width="144" height="32" viewBox="0 0 144 32" fill="none" xmlns="http://www.w3.org/2000/svg">
<path d="M31.7136 5.53339C31.6639 5.44171 31.64 5.33814 31.6444 5.23384C31.6489 5.12954 31.6813 5.02841 31.7386 4.94132C31.796 4.85422 31.8759 4.7844 31.9697 4.7394C32.0635 4.6944 32.1676 4.67595 32.2711 4.68592H36.5818C36.6976 4.69471 36.8092 4.73256 36.9067 4.79602C37.0041 4.85948 37.0844 4.94651 37.1396 5.04911L42.4596 16.3537H42.6557L47.976 5.04911C48.0277 4.94365 48.1067 4.85415 48.2049 4.7902C48.3031 4.72626 48.4166 4.69026 48.5335 4.68592H52.8291C52.9311 4.68087 53.0324 4.70251 53.1235 4.74882C53.2145 4.79514 53.292 4.86447 53.3483 4.95C53.4046 5.03552 53.438 5.13433 53.4447 5.23661C53.4514 5.3389 53.4312 5.44119 53.3866 5.53339L43.2433 27.038C43.1923 27.1427 43.1131 27.231 43.0145 27.2925C42.9158 27.3541 42.802 27.3866 42.6859 27.3861H42.3543C42.2386 27.3848 42.1252 27.3517 42.0268 27.2903C41.9285 27.2289 41.8489 27.1416 41.7965 27.038L31.7136 5.53339V5.53339Z" fill="white"/>
<path d="M79.6715 5.30631C79.6695 5.22555 79.6833 5.14524 79.7127 5.07004C79.7421 4.99484 79.7864 4.92632 79.8426 4.86849C79.8988 4.81067 79.9657 4.76472 80.0398 4.73336C80.114 4.702 80.1938 4.68586 80.2742 4.68588H93.6581C93.7386 4.68586 93.818 4.702 93.8921 4.73336C93.9663 4.76472 94.0335 4.81067 94.0897 4.86849C94.1459 4.92632 94.1899 4.99484 94.2192 5.07004C94.2486 5.14524 94.2628 5.22555 94.2608 5.30631V8.83243C94.2629 8.91249 94.2488 8.99211 94.2192 9.06649C94.1897 9.14087 94.1454 9.20845 94.089 9.26508C94.0326 9.32171 93.9651 9.36619 93.891 9.39587C93.8169 9.42556 93.7378 9.4398 93.6581 9.43771H84.7052V14.114H92.0755C92.2382 14.1178 92.3932 14.1844 92.5082 14.2999C92.6233 14.4155 92.6895 14.5711 92.6933 14.7344V18.2605C92.6895 18.4239 92.6233 18.5795 92.5082 18.695C92.3932 18.8106 92.2382 18.8771 92.0755 18.881H84.7052V26.7504C84.7016 26.9112 84.6375 27.0647 84.5257 27.1798C84.4138 27.2949 84.2625 27.3633 84.1025 27.3709H80.2742C80.1938 27.3709 80.114 27.3548 80.0398 27.3234C79.9657 27.2921 79.8988 27.2461 79.8426 27.1883C79.7864 27.1305 79.7421 27.0619 79.7127 26.9868C79.6833 26.9116 79.6695 26.8311 79.6715 26.7504V5.30631Z" fill="white"/>
<path d="M101.978 4.68582H98.0893C97.7563 4.68582 97.4864 4.95685 97.4864 5.29117V26.7807C97.4864 27.115 97.7563 27.386 98.0893 27.386H101.978C102.311 27.386 102.581 27.115 102.581 26.7807V5.29117C102.581 4.95685 102.311 4.68582 101.978 4.68582Z" fill="white"/>
<path d="M104.962 5.53339C104.912 5.44171 104.888 5.33814 104.893 5.23384C104.897 5.12954 104.93 5.02841 104.987 4.94132C105.045 4.85422 105.124 4.7844 105.218 4.7394C105.312 4.6944 105.416 4.67595 105.52 4.68592H109.83C109.946 4.69471 110.058 4.73256 110.155 4.79602C110.253 4.85948 110.333 4.94651 110.388 5.04911L115.708 16.3537H115.904L121.254 5.04911C121.306 4.94365 121.385 4.85415 121.483 4.7902C121.582 4.72626 121.695 4.69026 121.812 4.68592H126.107C126.209 4.68087 126.311 4.70251 126.402 4.74882C126.493 4.79514 126.571 4.86447 126.627 4.95C126.683 5.03552 126.716 5.13433 126.723 5.23661C126.73 5.3389 126.71 5.44119 126.665 5.53339L116.522 27.038C116.471 27.1427 116.392 27.231 116.293 27.2925C116.195 27.3541 116.08 27.3866 115.964 27.3861H115.633C115.517 27.3848 115.404 27.3517 115.306 27.2903C115.207 27.2289 115.128 27.1416 115.075 27.038L104.962 5.53339Z" fill="white"/>
<path d="M128.911 5.30631C128.909 5.22555 128.923 5.14524 128.952 5.07004C128.982 4.99484 129.026 4.92632 129.082 4.86849C129.138 4.81067 129.205 4.76472 129.279 4.73336C129.354 4.702 129.433 4.68586 129.513 4.68588H142.882C143.046 4.68588 143.203 4.75121 143.319 4.86757C143.435 4.98393 143.5 5.14175 143.5 5.30631V8.83243C143.5 8.91322 143.484 8.99315 143.453 9.0676C143.422 9.14205 143.376 9.2095 143.318 9.26591C143.261 9.32232 143.192 9.36654 143.117 9.39606C143.042 9.42557 142.963 9.43973 142.882 9.43771H133.945V13.4633H141.315C141.476 13.4632 141.631 13.5265 141.746 13.6396C141.862 13.7527 141.929 13.9066 141.933 14.0685V17.6098C141.933 17.6906 141.917 17.7705 141.885 17.845C141.854 17.9194 141.808 17.9869 141.751 18.0433C141.693 18.0997 141.625 18.1439 141.55 18.1734C141.475 18.203 141.395 18.2171 141.315 18.2151H133.945V22.5887H142.882C142.963 22.5867 143.042 22.6008 143.117 22.6303C143.192 22.6599 143.261 22.7042 143.318 22.7606C143.376 22.817 143.422 22.8844 143.453 22.9588C143.484 23.0332 143.5 23.1133 143.5 23.1941V26.7352C143.5 26.816 143.484 26.896 143.453 26.9705C143.422 27.0449 143.376 27.1123 143.318 27.1687C143.261 27.2251 143.192 27.2694 143.117 27.2989C143.042 27.3285 142.963 27.3426 142.882 27.3406H129.513C129.434 27.3427 129.355 27.3284 129.281 27.2988C129.206 27.2691 129.139 27.2246 129.083 27.168C129.026 27.1113 128.982 27.0438 128.952 26.9694C128.923 26.895 128.909 26.8153 128.911 26.7352V5.30631Z" fill="white"/>
<path d="M66.5892 26.7807L62.0677 5.04908C62.0221 4.93911 61.9446 4.84549 61.8451 4.78066C61.7455 4.71584 61.6288 4.68285 61.5102 4.68589H58.9029C58.7851 4.68679 58.6701 4.72139 58.5713 4.78574C58.4725 4.85009 58.3939 4.94148 58.345 5.04908L55.3307 11.4959L48.2621 26.4931C48.2107 26.5837 48.1854 26.6869 48.1893 26.7911C48.1931 26.8953 48.2259 26.9964 48.2839 27.0829C48.3418 27.1694 48.4228 27.238 48.5175 27.2809C48.6122 27.3237 48.717 27.3391 48.82 27.3255H53.1152C53.2299 27.3196 53.3415 27.2847 53.439 27.2238C53.5365 27.1629 53.617 27.0781 53.673 26.9774L58.9934 15.6576H59.174L61.5253 26.9774C61.5802 27.0791 61.6605 27.1646 61.7582 27.2256C61.856 27.2866 61.9677 27.321 62.0828 27.3255H66.1072C66.5744 27.3255 66.7249 27.0229 66.6496 26.7202" fill="white"/>
<path d="M76.9587 26.7807L72.4372 5.04908C72.3916 4.93911 72.3137 4.84549 72.2142 4.78066C72.1147 4.71584 71.998 4.68285 71.8794 4.68589H69.272C69.1542 4.68679 69.0393 4.72139 68.9405 4.78574C68.8417 4.85009 68.7634 4.94148 68.7145 5.04908L65.7002 11.5261C65.6632 11.5973 65.6377 11.674 65.6248 11.7532V11.9801C65.6248 11.9801 66.9509 18.2605 66.966 18.4118C66.9886 18.5355 67.0511 18.6485 67.1437 18.7332C67.2363 18.8179 67.3538 18.8698 67.4785 18.881C67.588 18.8774 67.6946 18.8447 67.7873 18.7862C67.88 18.7277 67.9555 18.6455 68.0062 18.5481L69.3323 15.7181H69.4983L71.8643 27.0379C71.9166 27.1416 71.9963 27.2289 72.0946 27.2903C72.1929 27.3516 72.3063 27.3848 72.4221 27.3861H76.4461C76.9435 27.3861 77.0944 27.0834 77.0191 26.7807" fill="white"/>
<path d="M4.9009 6.91043L11.6228 10.7997L13.7934 7.00122L1.91673 0.130672C1.77886 0.0471215 1.62111 0.00199452 1.46009 6.46301e-05C1.29907 -0.00186526 1.14069 0.0394579 1.00087 0.11968C0.861058 0.199902 0.74502 0.316176 0.664926 0.456451C0.584832 0.596726 0.543645 0.755864 0.545338 0.917548V14.689H4.9009V6.91043Z" fill="#FC981C"/>
<path d="M28.0059 15.2338L16.1292 8.34814L13.9438 12.1315L20.6658 16.0208H10.1156L4.85556 25.1009V17.3223H0.5V31.0785C0.500297 31.2397 0.542414 31.398 0.622531 31.5377C0.702648 31.6773 0.817945 31.7934 0.95664 31.8745C1.09534 31.9556 1.25278 31.9989 1.41328 32C1.57378 32.001 1.73164 31.9599 1.87139 31.8806L27.9606 16.7472C28.0845 16.6658 28.187 16.5556 28.2594 16.4259C28.3318 16.2963 28.372 16.1509 28.3764 16.0023C28.3808 15.8538 28.3493 15.7064 28.2848 15.5726C28.2203 15.4388 28.1247 15.3225 28.0059 15.2338Z" fill="#FC981C"/>
</svg>
