<svg width="15" height="16" viewBox="0 0 15 16" fill="none" xmlns="http://www.w3.org/2000/svg">
<g clip-path="url(#clip0_32_23)">
<path d="M13.8847 5.64311C13.9925 5.55266 14.1528 5.63728 14.1528 5.78025V11.7471C14.1528 12.5203 13.5585 13.1477 12.826 13.1477H1.32683C0.594307 13.1477 0 12.5203 0 11.7471V5.78317C0 5.63728 0.157561 5.55558 0.268129 5.64603C0.887314 6.15373 1.70829 6.79856 4.52779 8.96064C5.11104 9.40998 6.0951 10.3553 7.0764 10.3495C8.06323 10.3583 9.06664 9.39247 9.62778 8.96064C12.4473 6.79856 13.2655 6.15081 13.8847 5.64311ZM7.0764 9.4129C7.7177 9.42457 8.64095 8.5609 9.10534 8.20493C12.7735 5.3951 13.0526 5.15001 13.8985 4.44974C14.0588 4.31844 14.1528 4.11419 14.1528 3.89828V3.3439C14.1528 2.57068 13.5585 1.94336 12.826 1.94336H1.32683C0.594307 1.94336 0 2.57068 0 3.3439V3.89828C0 4.11419 0.0939835 4.31552 0.254308 4.44974C1.10016 5.14709 1.37935 5.3951 5.04747 8.20493C5.51185 8.5609 6.4351 9.42457 7.0764 9.4129Z" fill="#B9B9B9"/>
</g>
<defs>
<clipPath id="clip0_32_23">
<rect width="14.1528" height="14.9391" fill="white" transform="translate(0 0.0761719)"/>
</clipPath>
</defs>
</svg>
