<svg width="356" height="110" viewBox="0 0 356 110" fill="none" xmlns="http://www.w3.org/2000/svg">
<g filter="url(#filter0_d_762_6440)">
<g filter="url(#filter1_d_762_6440)">
<path fill-rule="evenodd" clip-rule="evenodd" d="M22.3032 46.6873L11.1967 40.3645V53.01H4.00008V30.6221C3.99729 30.3592 4.06534 30.1005 4.19767 29.8725C4.33001 29.6444 4.52174 29.4554 4.75276 29.325C4.98377 29.1946 5.24546 29.1274 5.51151 29.1306C5.77756 29.1337 6.03821 29.2071 6.26601 29.3429L25.8896 40.5122L22.3032 46.6873ZM29.6606 43.0602L49.1602 54.0675C49.3552 54.2093 49.5122 54.3951 49.6181 54.609C49.724 54.8229 49.7758 55.0585 49.7685 55.296C49.7613 55.5336 49.6952 55.7659 49.5764 55.9732C49.4576 56.1805 49.2893 56.3567 49.0859 56.4867L6.25161 80.6788C6.02216 80.8055 5.76297 80.8712 5.49946 80.8695C5.23594 80.8678 4.97744 80.7987 4.74973 80.669C4.52201 80.5393 4.33272 80.3537 4.20118 80.1305C4.06964 79.9073 4.00049 79.6541 4 79.3965V57.4061H11.1511V69.8408L19.7872 55.3256H37.1089L26.0726 49.1082L29.6606 43.0602Z" fill="#FC981C"/>
</g>
<g filter="url(#filter2_d_762_6440)">
<path d="M127.919 35.39L121.099 74H111.694L115.819 50.845L103.059 74H95.4693L90.8493 50.735L86.7793 74H77.3743L84.1943 35.39H95.3043L101.464 62.12L116.864 35.39H127.919ZM138.588 40.12C137.121 40.12 135.948 39.735 135.068 38.965C134.224 38.1583 133.803 37.15 133.803 35.94C133.803 34.29 134.444 32.8783 135.728 31.705C137.011 30.5317 138.569 29.945 140.403 29.945C141.869 29.945 143.024 30.3483 143.868 31.155C144.711 31.925 145.133 32.9333 145.133 34.18C145.133 35.7933 144.491 37.1867 143.208 38.36C141.924 39.5333 140.384 40.12 138.588 40.12ZM142.658 43.31L137.268 74H127.863L133.253 43.31H142.658ZM160.693 33.3L153.488 74H144.083L151.288 33.3H160.693ZM179.444 42.87C183.404 42.87 186.539 43.9517 188.849 46.115C191.196 48.2417 192.369 51.1567 192.369 54.86C192.369 56.07 192.277 57.1517 192.094 58.105C191.947 58.9483 191.727 59.8467 191.434 60.8H170.149C170.112 61.02 170.094 61.3683 170.094 61.845C170.094 63.4583 170.534 64.6867 171.414 65.53C172.294 66.3733 173.467 66.795 174.934 66.795C177.281 66.795 179.077 65.805 180.324 63.825H190.334C189.014 66.9417 186.869 69.49 183.899 71.47C180.929 73.45 177.592 74.44 173.889 74.44C169.929 74.44 166.757 73.34 164.374 71.14C162.027 68.94 160.854 65.9517 160.854 62.175C160.854 61.0383 160.964 59.865 161.184 58.655C161.734 55.465 162.871 52.6783 164.594 50.295C166.317 47.9117 168.462 46.0783 171.029 44.795C173.596 43.5117 176.401 42.87 179.444 42.87ZM182.854 56.015C182.927 55.5017 182.964 55.1533 182.964 54.97C182.964 53.5033 182.506 52.385 181.589 51.615C180.672 50.8083 179.462 50.405 177.959 50.405C176.346 50.405 174.916 50.9 173.669 51.89C172.459 52.8433 171.579 54.2183 171.029 56.015H182.854ZM206.956 74.44C204.536 74.44 202.354 74.055 200.411 73.285C198.504 72.515 197.001 71.4517 195.901 70.095C194.801 68.7017 194.251 67.1067 194.251 65.31C194.251 65.0533 194.287 64.595 194.361 63.935H203.436C203.362 65.0717 203.692 65.9883 204.426 66.685C205.196 67.345 206.277 67.675 207.671 67.675C208.844 67.675 209.816 67.455 210.586 67.015C211.356 66.575 211.741 65.9517 211.741 65.145C211.741 64.375 211.319 63.77 210.476 63.33C209.669 62.8533 208.312 62.285 206.406 61.625C204.426 60.965 202.757 60.3233 201.401 59.7C200.081 59.04 198.944 58.105 197.991 56.895C197.037 55.685 196.561 54.1633 196.561 52.33C196.561 50.5333 197.092 48.92 198.156 47.49C199.219 46.0233 200.704 44.8867 202.611 44.08C204.554 43.2733 206.791 42.87 209.321 42.87C211.851 42.87 214.051 43.2917 215.921 44.135C217.791 44.9417 219.239 46.0783 220.266 47.545C221.292 49.0117 221.806 50.6617 221.806 52.495L221.751 53.32H213.226C213.299 52.22 212.969 51.34 212.236 50.68C211.502 50.02 210.457 49.69 209.101 49.69C208.037 49.69 207.157 49.91 206.461 50.35C205.801 50.79 205.471 51.395 205.471 52.165C205.471 52.9717 205.911 53.65 206.791 54.2C207.707 54.7133 209.119 55.3 211.026 55.96C213.006 56.62 214.637 57.28 215.921 57.94C217.241 58.5633 218.359 59.4617 219.276 60.635C220.229 61.7717 220.706 63.2017 220.706 64.925C220.706 66.905 220.101 68.61 218.891 70.04C217.717 71.47 216.086 72.57 213.996 73.34C211.942 74.0733 209.596 74.44 206.956 74.44ZM237.625 63.44C237.588 63.6233 237.57 63.8617 237.57 64.155C237.57 64.815 237.753 65.2917 238.12 65.585C238.523 65.8783 239.165 66.025 240.045 66.025H243.4L241.97 74H237.185C231.025 74 227.945 71.415 227.945 66.245C227.945 65.475 228.036 64.5033 228.22 63.33L230.42 51.12H226.68L228.055 43.31H231.795L233.115 35.83H242.52L241.2 43.31H247.36L245.985 51.12H239.825L237.625 63.44ZM261.233 74.44C258.593 74.44 256.247 73.9083 254.193 72.845C252.14 71.7817 250.545 70.2783 249.408 68.335C248.308 66.3917 247.758 64.1367 247.758 61.57C247.758 58.0867 248.583 54.915 250.233 52.055C251.883 49.195 254.157 46.9583 257.053 45.345C259.95 43.695 263.177 42.87 266.733 42.87C269.373 42.87 271.72 43.42 273.773 44.52C275.863 45.5833 277.477 47.0867 278.613 49.03C279.75 50.9733 280.318 53.2283 280.318 55.795C280.318 59.315 279.475 62.505 277.788 65.365C276.138 68.1883 273.847 70.4067 270.913 72.02C268.017 73.6333 264.79 74.44 261.233 74.44ZM262.553 66.355C264.093 66.355 265.468 65.8967 266.678 64.98C267.925 64.0267 268.878 62.8167 269.538 61.35C270.235 59.8467 270.583 58.2883 270.583 56.675C270.583 54.8417 270.088 53.43 269.098 52.44C268.108 51.45 266.862 50.955 265.358 50.955C263.782 50.955 262.388 51.4317 261.178 52.385C260.005 53.3017 259.088 54.5117 258.428 56.015C257.768 57.5183 257.438 59.095 257.438 60.745C257.438 62.5417 257.915 63.935 258.868 64.925C259.822 65.8783 261.05 66.355 262.553 66.355ZM306.373 42.98C309.453 42.98 311.873 43.8417 313.633 45.565C315.393 47.2883 316.273 49.69 316.273 52.77C316.273 53.7967 316.163 54.8967 315.943 56.07L312.753 74H303.403L306.373 57.335C306.483 56.7117 306.538 56.1617 306.538 55.685C306.538 54.145 306.098 52.9533 305.218 52.11C304.374 51.2667 303.183 50.845 301.643 50.845C299.809 50.845 298.269 51.4133 297.023 52.55C295.776 53.6867 294.969 55.2817 294.603 57.335V57.06L291.633 74H282.228L287.618 43.31H297.023L296.308 47.435C297.518 46.0783 298.984 44.9967 300.708 44.19C302.468 43.3833 304.356 42.98 306.373 42.98ZM338.428 42.87C342.388 42.87 345.523 43.9517 347.833 46.115C350.18 48.2417 351.353 51.1567 351.353 54.86C351.353 56.07 351.262 57.1517 351.078 58.105C350.932 58.9483 350.712 59.8467 350.418 60.8H329.133C329.097 61.02 329.078 61.3683 329.078 61.845C329.078 63.4583 329.518 64.6867 330.398 65.53C331.278 66.3733 332.452 66.795 333.918 66.795C336.265 66.795 338.062 65.805 339.308 63.825H349.318C347.998 66.9417 345.853 69.49 342.883 71.47C339.913 73.45 336.577 74.44 332.873 74.44C328.913 74.44 325.742 73.34 323.358 71.14C321.012 68.94 319.838 65.9517 319.838 62.175C319.838 61.0383 319.948 59.865 320.168 58.655C320.718 55.465 321.855 52.6783 323.578 50.295C325.302 47.9117 327.447 46.0783 330.013 44.795C332.58 43.5117 335.385 42.87 338.428 42.87ZM341.838 56.015C341.912 55.5017 341.948 55.1533 341.948 54.97C341.948 53.5033 341.49 52.385 340.573 51.615C339.657 50.8083 338.447 50.405 336.943 50.405C335.33 50.405 333.9 50.9 332.653 51.89C331.443 52.8433 330.563 54.2183 330.013 56.015H341.838Z" fill="#FC981C"/>
</g>
</g>
<defs>
<filter id="filter0_d_762_6440" x="0" y="0" width="356.769" height="118" filterUnits="userSpaceOnUse" color-interpolation-filters="sRGB">
<feFlood flood-opacity="0" result="BackgroundImageFix"/>
<feColorMatrix in="SourceAlpha" type="matrix" values="0 0 0 0 0 0 0 0 0 0 0 0 0 0 0 0 0 0 127 0" result="hardAlpha"/>
<feOffset dy="4"/>
<feGaussianBlur stdDeviation="2"/>
<feComposite in2="hardAlpha" operator="out"/>
<feColorMatrix type="matrix" values="0 0 0 0 0 0 0 0 0 0 0 0 0 0 0 0 0 0 0.25 0"/>
<feBlend mode="normal" in2="BackgroundImageFix" result="effect1_dropShadow_762_6440"/>
<feBlend mode="normal" in="SourceGraphic" in2="effect1_dropShadow_762_6440" result="shape"/>
</filter>
<filter id="filter1_d_762_6440" x="0" y="29.1304" width="53.7693" height="59.7391" filterUnits="userSpaceOnUse" color-interpolation-filters="sRGB">
<feFlood flood-opacity="0" result="BackgroundImageFix"/>
<feColorMatrix in="SourceAlpha" type="matrix" values="0 0 0 0 0 0 0 0 0 0 0 0 0 0 0 0 0 0 127 0" result="hardAlpha"/>
<feOffset dy="4"/>
<feGaussianBlur stdDeviation="2"/>
<feComposite in2="hardAlpha" operator="out"/>
<feColorMatrix type="matrix" values="0 0 0 0 0 0 0 0 0 0 0 0 0 0 0 0 0 0 0 0"/>
<feBlend mode="normal" in2="BackgroundImageFix" result="effect1_dropShadow_762_6440"/>
<feBlend mode="normal" in="SourceGraphic" in2="effect1_dropShadow_762_6440" result="shape"/>
</filter>
<filter id="filter2_d_762_6440" x="73.3743" y="29.945" width="281.979" height="52.495" filterUnits="userSpaceOnUse" color-interpolation-filters="sRGB">
<feFlood flood-opacity="0" result="BackgroundImageFix"/>
<feColorMatrix in="SourceAlpha" type="matrix" values="0 0 0 0 0 0 0 0 0 0 0 0 0 0 0 0 0 0 127 0" result="hardAlpha"/>
<feOffset dy="4"/>
<feGaussianBlur stdDeviation="2"/>
<feComposite in2="hardAlpha" operator="out"/>
<feColorMatrix type="matrix" values="0 0 0 0 0 0 0 0 0 0 0 0 0 0 0 0 0 0 0 0"/>
<feBlend mode="normal" in2="BackgroundImageFix" result="effect1_dropShadow_762_6440"/>
<feBlend mode="normal" in="SourceGraphic" in2="effect1_dropShadow_762_6440" result="shape"/>
</filter>
</defs>
</svg>
