<svg width="201" height="57" viewBox="0 0 201 57" fill="none" xmlns="http://www.w3.org/2000/svg">
    <rect width="185.009" height="51.3841" rx="4" transform="matrix(1 0 -0.217066 0.976157 15.9906 6)" fill="#FC981C" />
    <g>
        <rect x="1.391467" y="0.488078" width="184.009" height="50.3841" rx="3.5"
            transform="matrix(1 0 -0.217066 0.976157 11.2597 0.0116373)" stroke="white" />
        <animateTransform attributeName="transform" type="translate" values="0,0; -2,0; 0,0; 2,0;0,0" begin="0s"
            dur="2s" repeatCount="indefinite" />
    </g>
    <g>
        <path
            d="M161.803 23.0717L162.596 22.2583C162.931 21.9139 163.474 21.9139 163.806 22.2583L170.748 29.3771C171.084 29.7215 171.084 30.2785 170.748 30.6192L163.806 37.7417C163.47 38.0861 162.928 38.0861 162.596 37.7417L161.803 36.9283C161.464 36.5803 161.471 36.0124 161.817 35.6716L166.12 31.4655H155.857C155.382 31.4655 155 31.0735 155 30.5862V29.4138C155 28.9265 155.382 28.5345 155.857 28.5345H166.12L161.817 24.3284C161.467 23.9876 161.46 23.4197 161.803 23.0717Z"
            fill="black" />
        <animateTransform attributeName="transform" type="translate" values="0,0; -3,0; 0,0; 3,0;0,0" begin="0s"
            dur="2s" repeatCount="indefinite" />
    </g>
    <path
        d="M35.1425 23.2031H39.915C40.8935 23.2031 41.7343 23.3496 42.4375 23.6426C43.1465 23.9355 43.6914 24.3691 44.0722 24.9434C44.4531 25.5176 44.6435 26.2236 44.6435 27.0615C44.6435 27.7471 44.5263 28.3359 44.292 28.8281C44.0634 29.3145 43.7383 29.7217 43.3164 30.0498C42.9004 30.3721 42.4111 30.6299 41.8486 30.8232L41.0136 31.2627H36.8652L36.8476 29.2061H39.9326C40.3955 29.2061 40.7793 29.124 41.084 28.96C41.3886 28.7959 41.6172 28.5674 41.7695 28.2744C41.9277 27.9814 42.0068 27.6416 42.0068 27.2549C42.0068 26.8447 41.9306 26.4902 41.7783 26.1914C41.6259 25.8926 41.3945 25.6641 41.084 25.5059C40.7734 25.3477 40.3838 25.2686 39.915 25.2686H37.7793V36H35.1425V23.2031ZM42.2968 36L39.3789 30.2959L42.165 30.2783L45.1181 35.877V36H42.2968ZM55.2607 33.9434V36H48.4492V33.9434H55.2607ZM49.3105 23.2031V36H46.6738V23.2031H49.3105ZM54.373 28.415V30.4189H48.4492V28.415H54.373ZM55.2519 23.2031V25.2686H48.4492V23.2031H55.2519ZM62.0019 25.3916L58.5215 36H55.7177L60.4726 23.2031H62.2568L62.0019 25.3916ZM64.8935 36L61.4043 25.3916L61.123 23.2031H62.9248L67.706 36H64.8935ZM64.7353 31.2363V33.3018H57.9765V31.2363H64.7353ZM72.8213 36H70.0351L70.0527 33.9434H72.8213C73.5127 33.9434 74.0957 33.7881 74.5703 33.4775C75.0449 33.1611 75.4023 32.7012 75.6425 32.0977C75.8886 31.4941 76.0117 30.7646 76.0117 29.9092V29.2852C76.0117 28.6289 75.9414 28.0518 75.8008 27.5537C75.666 27.0557 75.4638 26.6367 75.1943 26.2969C74.9248 25.957 74.5937 25.7021 74.2011 25.5322C73.8086 25.3564 73.3574 25.2686 72.8476 25.2686H69.9824V23.2031H72.8476C73.7031 23.2031 74.4853 23.3496 75.1943 23.6426C75.9091 23.9297 76.5273 24.3428 77.0488 24.8818C77.5703 25.4209 77.9716 26.0654 78.2529 26.8154C78.54 27.5596 78.6836 28.3887 78.6836 29.3027V29.9092C78.6836 30.8174 78.54 31.6465 78.2529 32.3965C77.9716 33.1465 77.5703 33.791 77.0488 34.3301C76.5332 34.8633 75.915 35.2764 75.1943 35.5693C74.4795 35.8564 73.6884 36 72.8213 36ZM71.5293 23.2031V36H68.8925V23.2031H71.5293ZM86.2861 23.2031H88.5185L91.8056 32.5986L95.0927 23.2031H97.3252L92.7021 36H90.9091L86.2861 23.2031ZM85.082 23.2031H87.3056L87.7099 32.3613V36H85.082V23.2031ZM96.3056 23.2031H98.5381V36H95.9013V32.3613L96.3056 23.2031ZM111.361 29.3027V29.9092C111.361 30.8818 111.229 31.7549 110.966 32.5283C110.702 33.3018 110.33 33.9609 109.85 34.5059C109.369 35.0449 108.795 35.458 108.127 35.7451C107.465 36.0322 106.729 36.1758 105.921 36.1758C105.118 36.1758 104.383 36.0322 103.715 35.7451C103.053 35.458 102.478 35.0449 101.992 34.5059C101.506 33.9609 101.128 33.3018 100.858 32.5283C100.595 31.7549 100.463 30.8818 100.463 29.9092V29.3027C100.463 28.3242 100.595 27.4512 100.858 26.6836C101.122 25.9102 101.494 25.251 101.975 24.7061C102.461 24.1611 103.035 23.7451 103.697 23.458C104.365 23.1709 105.101 23.0273 105.903 23.0273C106.712 23.0273 107.447 23.1709 108.109 23.458C108.777 23.7451 109.352 24.1611 109.832 24.7061C110.318 25.251 110.693 25.9102 110.957 26.6836C111.227 27.4512 111.361 28.3242 111.361 29.3027ZM108.698 29.9092V29.2852C108.698 28.6055 108.637 28.0078 108.514 27.4922C108.391 26.9766 108.209 26.543 107.969 26.1914C107.728 25.8398 107.436 25.5762 107.09 25.4004C106.744 25.2188 106.349 25.1279 105.903 25.1279C105.458 25.1279 105.062 25.2188 104.717 25.4004C104.377 25.5762 104.087 25.8398 103.847 26.1914C103.612 26.543 103.434 26.9766 103.311 27.4922C103.187 28.0078 103.126 28.6055 103.126 29.2852V29.9092C103.126 30.583 103.187 31.1807 103.311 31.7021C103.434 32.2178 103.615 32.6543 103.855 33.0117C104.096 33.3633 104.389 33.6299 104.734 33.8115C105.08 33.9932 105.476 34.084 105.921 34.084C106.366 34.084 106.762 33.9932 107.107 33.8115C107.453 33.6299 107.743 33.3633 107.978 33.0117C108.212 32.6543 108.391 32.2178 108.514 31.7021C108.637 31.1807 108.698 30.583 108.698 29.9092ZM113.26 23.2031H118.032C119.011 23.2031 119.852 23.3496 120.555 23.6426C121.264 23.9355 121.809 24.3691 122.189 24.9434C122.57 25.5176 122.761 26.2236 122.761 27.0615C122.761 27.7471 122.644 28.3359 122.409 28.8281C122.181 29.3145 121.855 29.7217 121.434 30.0498C121.018 30.3721 120.528 30.6299 119.966 30.8232L119.131 31.2627H114.982L114.965 29.2061H118.05C118.513 29.2061 118.896 29.124 119.201 28.96C119.506 28.7959 119.734 28.5674 119.887 28.2744C120.045 27.9814 120.124 27.6416 120.124 27.2549C120.124 26.8447 120.048 26.4902 119.895 26.1914C119.743 25.8926 119.512 25.6641 119.201 25.5059C118.891 25.3477 118.501 25.2686 118.032 25.2686H115.896V36H113.26V23.2031ZM120.414 36L117.496 30.2959L120.282 30.2783L123.235 35.877V36H120.414ZM133.378 33.9434V36H126.566V33.9434H133.378ZM127.428 23.2031V36H124.791V23.2031H127.428ZM132.49 28.415V30.4189H126.566V28.415H132.49ZM133.369 23.2031V25.2686H126.566V23.2031H133.369Z"
        fill="black" />
</svg>