<svg width="232" height="110" viewBox="0 0 232 110" fill="none" xmlns="http://www.w3.org/2000/svg">
<g filter="url(#filter0_d_235_57337)">
<path fill-rule="evenodd" clip-rule="evenodd" d="M22.3032 46.6872L11.1967 40.3645V53.01H4.00008V30.622C3.99729 30.3592 4.06534 30.1005 4.19767 29.8724C4.33001 29.6444 4.52174 29.4553 4.75276 29.3249C4.98377 29.1945 5.24546 29.1273 5.51151 29.1305C5.77756 29.1336 6.03821 29.207 6.26601 29.3428L25.8896 40.5121L22.3032 46.6872ZM29.6606 43.0601L49.1602 54.0675C49.3552 54.2092 49.5122 54.395 49.6181 54.6089C49.724 54.8228 49.7758 55.0585 49.7685 55.296C49.7613 55.5335 49.6952 55.7658 49.5764 55.9731C49.4576 56.1804 49.2893 56.3566 49.0859 56.4867L6.25161 80.6787C6.02216 80.8054 5.76297 80.8712 5.49946 80.8694C5.23594 80.8677 4.97744 80.7986 4.74973 80.6689C4.52201 80.5393 4.33272 80.3537 4.20118 80.1304C4.06964 79.9072 4.00049 79.6541 4 79.3964V57.406H11.1511V69.8407L19.7872 55.3255H37.1089L26.0726 49.1081L29.6606 43.0601Z" fill="#FC981C"/>
<g filter="url(#filter1_d_235_57337)">
<path d="M111.914 74H102.509L91.0142 50.185L86.7792 74H77.3742L84.1942 35.39H93.5992L105.094 59.315L109.329 35.39H118.734L111.914 74ZM137.872 42.87C141.832 42.87 144.967 43.9517 147.277 46.115C149.623 48.2417 150.797 51.1567 150.797 54.86C150.797 56.07 150.705 57.1517 150.522 58.105C150.375 58.9483 150.155 59.8467 149.862 60.8H128.577C128.54 61.02 128.522 61.3683 128.522 61.845C128.522 63.4583 128.962 64.6867 129.842 65.53C130.722 66.3733 131.895 66.795 133.362 66.795C135.708 66.795 137.505 65.805 138.752 63.825H148.762C147.442 66.9417 145.297 69.49 142.327 71.47C139.357 73.45 136.02 74.44 132.317 74.44C128.357 74.44 125.185 73.34 122.802 71.14C120.455 68.94 119.282 65.9517 119.282 62.175C119.282 61.0383 119.392 59.865 119.612 58.655C120.162 55.465 121.298 52.6783 123.022 50.295C124.745 47.9117 126.89 46.0783 129.457 44.795C132.023 43.5117 134.828 42.87 137.872 42.87ZM141.282 56.015C141.355 55.5017 141.392 55.1533 141.392 54.97C141.392 53.5033 140.933 52.385 140.017 51.615C139.1 50.8083 137.89 50.405 136.387 50.405C134.773 50.405 133.343 50.9 132.097 51.89C130.887 52.8433 130.007 54.2183 129.457 56.015H141.282ZM202.123 43.31L188.373 74H177.978L176.658 54.09L168.133 74H157.793L154.878 43.31H164.283L164.723 65.255L173.798 43.31H183.753L185.128 65.255L193.268 43.31H202.123ZM213.025 74.44C210.605 74.44 208.423 74.055 206.48 73.285C204.573 72.515 203.07 71.4517 201.97 70.095C200.87 68.7017 200.32 67.1067 200.32 65.31C200.32 65.0533 200.357 64.595 200.43 63.935H209.505C209.432 65.0717 209.762 65.9883 210.495 66.685C211.265 67.345 212.347 67.675 213.74 67.675C214.913 67.675 215.885 67.455 216.655 67.015C217.425 66.575 217.81 65.9517 217.81 65.145C217.81 64.375 217.388 63.77 216.545 63.33C215.738 62.8533 214.382 62.285 212.475 61.625C210.495 60.965 208.827 60.3233 207.47 59.7C206.15 59.04 205.013 58.105 204.06 56.895C203.107 55.685 202.63 54.1633 202.63 52.33C202.63 50.5333 203.162 48.92 204.225 47.49C205.288 46.0233 206.773 44.8867 208.68 44.08C210.623 43.2733 212.86 42.87 215.39 42.87C217.92 42.87 220.12 43.2917 221.99 44.135C223.86 44.9417 225.308 46.0783 226.335 47.545C227.362 49.0117 227.875 50.6617 227.875 52.495L227.82 53.32H219.295C219.368 52.22 219.038 51.34 218.305 50.68C217.572 50.02 216.527 49.69 215.17 49.69C214.107 49.69 213.227 49.91 212.53 50.35C211.87 50.79 211.54 51.395 211.54 52.165C211.54 52.9717 211.98 53.65 212.86 54.2C213.777 54.7133 215.188 55.3 217.095 55.96C219.075 56.62 220.707 57.28 221.99 57.94C223.31 58.5633 224.428 59.4617 225.345 60.635C226.298 61.7717 226.775 63.2017 226.775 64.925C226.775 66.905 226.17 68.61 224.96 70.04C223.787 71.47 222.155 72.57 220.065 73.34C218.012 74.0733 215.665 74.44 213.025 74.44Z" fill="#FC981C"/>
</g>
</g>
<defs>
<filter id="filter0_d_235_57337" x="0" y="0" width="234.769" height="118" filterUnits="userSpaceOnUse" color-interpolation-filters="sRGB">
<feFlood flood-opacity="0" result="BackgroundImageFix"/>
<feColorMatrix in="SourceAlpha" type="matrix" values="0 0 0 0 0 0 0 0 0 0 0 0 0 0 0 0 0 0 127 0" result="hardAlpha"/>
<feOffset dy="4"/>
<feGaussianBlur stdDeviation="2"/>
<feComposite in2="hardAlpha" operator="out"/>
<feColorMatrix type="matrix" values="0 0 0 0 0 0 0 0 0 0 0 0 0 0 0 0 0 0 0.25 0"/>
<feBlend mode="normal" in2="BackgroundImageFix" result="effect1_dropShadow_235_57337"/>
<feBlend mode="normal" in="SourceGraphic" in2="effect1_dropShadow_235_57337" result="shape"/>
</filter>
<filter id="filter1_d_235_57337" x="73.3742" y="35.3901" width="158.501" height="47.0498" filterUnits="userSpaceOnUse" color-interpolation-filters="sRGB">
<feFlood flood-opacity="0" result="BackgroundImageFix"/>
<feColorMatrix in="SourceAlpha" type="matrix" values="0 0 0 0 0 0 0 0 0 0 0 0 0 0 0 0 0 0 127 0" result="hardAlpha"/>
<feOffset dy="4"/>
<feGaussianBlur stdDeviation="2"/>
<feComposite in2="hardAlpha" operator="out"/>
<feColorMatrix type="matrix" values="0 0 0 0 0 0 0 0 0 0 0 0 0 0 0 0 0 0 0 0"/>
<feBlend mode="normal" in2="BackgroundImageFix" result="effect1_dropShadow_235_57337"/>
<feBlend mode="normal" in="SourceGraphic" in2="effect1_dropShadow_235_57337" result="shape"/>
</filter>
</defs>
</svg>
