<svg width="322" height="110" viewBox="0 0 322 110" fill="none" xmlns="http://www.w3.org/2000/svg">
    <g filter="url(#filter0_d_147_240)">
        <g filter="url(#filter1_d_147_240)">
            <path fill-rule="evenodd" clip-rule="evenodd"
                d="M22.9122 46.6872L11.8057 40.3645V53.01H4.60909V30.622C4.60629 30.3592 4.67435 30.1005 4.80668 29.8724C4.93902 29.6444 5.13075 29.4553 5.36177 29.3249C5.59278 29.1945 5.85446 29.1273 6.12052 29.1305C6.38657 29.1336 6.64722 29.207 6.87502 29.3428L26.4986 40.5121L22.9122 46.6872ZM30.2696 43.0601L49.7692 54.0675C49.9642 54.2092 50.1212 54.395 50.2271 54.6089C50.333 54.8228 50.3848 55.0585 50.3776 55.296C50.3703 55.5335 50.3042 55.7658 50.1854 55.9731C50.0666 56.1804 49.8983 56.3566 49.6949 56.4867L6.86061 80.6787C6.63116 80.8054 6.37198 80.8712 6.10847 80.8694C5.84495 80.8677 5.58645 80.7986 5.35874 80.6689C5.13102 80.5393 4.94172 80.3537 4.81019 80.1304C4.67865 79.9072 4.6095 79.6541 4.60901 79.3964V57.406H11.7601V69.8407L20.3962 55.3255H37.7179L26.6816 49.1081L30.2696 43.0601Z"
                fill="#FC981C" />
        </g>
        <g filter="url(#filter2_d_147_240)">
            <path
                d="M112.028 47.82C111.662 50.0567 110.8 52.11 109.443 53.98C108.087 55.8133 106.235 57.2983 103.888 58.435C101.578 59.5717 98.8466 60.14 95.6932 60.14H89.8632L87.3882 74H77.9832L84.8032 35.39H100.038C104.072 35.39 107.115 36.2883 109.168 38.085C111.222 39.845 112.248 42.2467 112.248 45.29C112.248 46.2067 112.175 47.05 112.028 47.82ZM96.2432 52.77C99.7632 52.77 101.835 51.12 102.458 47.82C102.532 47.2333 102.568 46.8117 102.568 46.555C102.568 45.3817 102.183 44.4833 101.413 43.86C100.68 43.2 99.5432 42.87 98.0032 42.87H92.8882L91.1832 52.77H96.2432ZM113.185 58.6C113.735 55.4467 114.816 52.6783 116.43 50.295C118.043 47.9117 119.986 46.0783 122.26 44.795C124.533 43.5117 126.935 42.87 129.465 42.87C131.628 42.87 133.443 43.31 134.91 44.19C136.376 45.07 137.44 46.225 138.1 47.655L138.87 43.31H148.275L142.83 74H133.425L134.25 69.655C133.076 71.085 131.591 72.24 129.795 73.12C127.998 74 126.018 74.44 123.855 74.44C121.691 74.44 119.766 73.945 118.08 72.955C116.43 71.965 115.146 70.5717 114.23 68.775C113.313 66.9417 112.855 64.7967 112.855 62.34C112.855 61.1667 112.965 59.92 113.185 58.6ZM136.175 58.655C136.285 57.995 136.34 57.39 136.34 56.84C136.34 55.0433 135.808 53.6317 134.745 52.605C133.718 51.5783 132.398 51.065 130.785 51.065C128.915 51.065 127.21 51.7433 125.67 53.1C124.13 54.42 123.158 56.2533 122.755 58.6C122.645 59.26 122.59 59.865 122.59 60.415C122.59 62.2117 123.103 63.6417 124.13 64.705C125.193 65.7317 126.513 66.245 128.09 66.245C129.96 66.245 131.665 65.5667 133.205 64.21C134.745 62.8533 135.735 61.0017 136.175 58.655ZM163.439 48.865C164.869 47.0317 166.5 45.6017 168.334 44.575C170.204 43.5117 172.147 42.98 174.164 42.98L172.404 52.935H169.819C167.472 52.935 165.62 53.4483 164.264 54.475C162.907 55.465 162.009 57.225 161.569 59.755L159.039 74H149.634L155.024 43.31H164.429L163.439 48.865ZM185.919 63.44C185.882 63.6233 185.864 63.8617 185.864 64.155C185.864 64.815 186.047 65.2917 186.414 65.585C186.817 65.8783 187.459 66.025 188.339 66.025H191.694L190.264 74H185.479C179.319 74 176.239 71.415 176.239 66.245C176.239 65.475 176.331 64.5033 176.514 63.33L178.714 51.12H174.974L176.349 43.31H180.089L181.409 35.83H190.814L189.494 43.31H195.654L194.279 51.12H188.119L185.919 63.44ZM219.648 42.98C222.728 42.98 225.148 43.8417 226.908 45.565C228.668 47.2883 229.548 49.69 229.548 52.77C229.548 53.7967 229.438 54.8967 229.218 56.07L226.028 74H216.678L219.648 57.335C219.758 56.7117 219.813 56.1617 219.813 55.685C219.813 54.145 219.373 52.9533 218.493 52.11C217.649 51.2667 216.458 50.845 214.918 50.845C213.084 50.845 211.544 51.4133 210.298 52.55C209.051 53.6867 208.244 55.2817 207.878 57.335V57.06L204.908 74H195.503L200.893 43.31H210.298L209.583 47.435C210.793 46.0783 212.259 44.9967 213.983 44.19C215.743 43.3833 217.631 42.98 219.648 42.98ZM251.703 42.87C255.663 42.87 258.798 43.9517 261.108 46.115C263.455 48.2417 264.628 51.1567 264.628 54.86C264.628 56.07 264.537 57.1517 264.353 58.105C264.207 58.9483 263.987 59.8467 263.693 60.8H242.408C242.372 61.02 242.353 61.3683 242.353 61.845C242.353 63.4583 242.793 64.6867 243.673 65.53C244.553 66.3733 245.727 66.795 247.193 66.795C249.54 66.795 251.337 65.805 252.583 63.825H262.593C261.273 66.9417 259.128 69.49 256.158 71.47C253.188 73.45 249.852 74.44 246.148 74.44C242.188 74.44 239.017 73.34 236.633 71.14C234.287 68.94 233.113 65.9517 233.113 62.175C233.113 61.0383 233.223 59.865 233.443 58.655C233.993 55.465 235.13 52.6783 236.853 50.295C238.577 47.9117 240.722 46.0783 243.288 44.795C245.855 43.5117 248.66 42.87 251.703 42.87ZM255.113 56.015C255.187 55.5017 255.223 55.1533 255.223 54.97C255.223 53.5033 254.765 52.385 253.848 51.615C252.932 50.8083 251.722 50.405 250.218 50.405C248.605 50.405 247.175 50.9 245.928 51.89C244.718 52.8433 243.838 54.2183 243.288 56.015H255.113ZM280.26 48.865C281.69 47.0317 283.322 45.6017 285.155 44.575C287.025 43.5117 288.968 42.98 290.985 42.98L289.225 52.935H286.64C284.293 52.935 282.442 53.4483 281.085 54.475C279.728 55.465 278.83 57.225 278.39 59.755L275.86 74H266.455L271.845 43.31H281.25L280.26 48.865ZM302.74 74.44C300.32 74.44 298.139 74.055 296.195 73.285C294.289 72.515 292.785 71.4517 291.685 70.095C290.585 68.7017 290.035 67.1067 290.035 65.31C290.035 65.0533 290.072 64.595 290.145 63.935H299.22C299.147 65.0717 299.477 65.9883 300.21 66.685C300.98 67.345 302.062 67.675 303.455 67.675C304.629 67.675 305.6 67.455 306.37 67.015C307.14 66.575 307.525 65.9517 307.525 65.145C307.525 64.375 307.104 63.77 306.26 63.33C305.454 62.8533 304.097 62.285 302.19 61.625C300.21 60.965 298.542 60.3233 297.185 59.7C295.865 59.04 294.729 58.105 293.775 56.895C292.822 55.685 292.345 54.1633 292.345 52.33C292.345 50.5333 292.877 48.92 293.94 47.49C295.004 46.0233 296.489 44.8867 298.395 44.08C300.339 43.2733 302.575 42.87 305.105 42.87C307.635 42.87 309.835 43.2917 311.705 44.135C313.575 44.9417 315.024 46.0783 316.05 47.545C317.077 49.0117 317.59 50.6617 317.59 52.495L317.535 53.32H309.01C309.084 52.22 308.754 51.34 308.02 50.68C307.287 50.02 306.242 49.69 304.885 49.69C303.822 49.69 302.942 49.91 302.245 50.35C301.585 50.79 301.255 51.395 301.255 52.165C301.255 52.9717 301.695 53.65 302.575 54.2C303.492 54.7133 304.904 55.3 306.81 55.96C308.79 56.62 310.422 57.28 311.705 57.94C313.025 58.5633 314.144 59.4617 315.06 60.635C316.014 61.7717 316.49 63.2017 316.49 64.925C316.49 66.905 315.885 68.61 314.675 70.04C313.502 71.47 311.87 72.57 309.78 73.34C307.727 74.0733 305.38 74.44 302.74 74.44Z"
                fill="#FC981C" />
        </g>
    </g>
    <defs>
        <filter id="filter0_d_147_240" x="0.609009" y="0" width="323.769" height="118" filterUnits="userSpaceOnUse"
            color-interpolation-filters="sRGB">
            <feFlood flood-opacity="0" result="BackgroundImageFix" />
            <feColorMatrix in="SourceAlpha" type="matrix" values="0 0 0 0 0 0 0 0 0 0 0 0 0 0 0 0 0 0 127 0"
                result="hardAlpha" />
            <feOffset dy="4" />
            <feGaussianBlur stdDeviation="2" />
            <feComposite in2="hardAlpha" operator="out" />
            <feColorMatrix type="matrix" values="0 0 0 0 0 0 0 0 0 0 0 0 0 0 0 0 0 0 0.25 0" />
            <feBlend mode="normal" in2="BackgroundImageFix" result="effect1_dropShadow_147_240" />
            <feBlend mode="normal" in="SourceGraphic" in2="effect1_dropShadow_147_240" result="shape" />
        </filter>
        <filter id="filter1_d_147_240" x="0.609009" y="29.1304" width="53.7692" height="59.739"
            filterUnits="userSpaceOnUse" color-interpolation-filters="sRGB">
            <feFlood flood-opacity="0" result="BackgroundImageFix" />
            <feColorMatrix in="SourceAlpha" type="matrix" values="0 0 0 0 0 0 0 0 0 0 0 0 0 0 0 0 0 0 127 0"
                result="hardAlpha" />
            <feOffset dy="4" />
            <feGaussianBlur stdDeviation="2" />
            <feComposite in2="hardAlpha" operator="out" />
            <feColorMatrix type="matrix" values="0 0 0 0 0 0 0 0 0 0 0 0 0 0 0 0 0 0 0 0" />
            <feBlend mode="normal" in2="BackgroundImageFix" result="effect1_dropShadow_147_240" />
            <feBlend mode="normal" in="SourceGraphic" in2="effect1_dropShadow_147_240" result="shape" />
        </filter>
        <filter id="filter2_d_147_240" x="73.9832" y="35.3899" width="247.607" height="47.05"
            filterUnits="userSpaceOnUse" color-interpolation-filters="sRGB">
            <feFlood flood-opacity="0" result="BackgroundImageFix" />
            <feColorMatrix in="SourceAlpha" type="matrix" values="0 0 0 0 0 0 0 0 0 0 0 0 0 0 0 0 0 0 127 0"
                result="hardAlpha" />
            <feOffset dy="4" />
            <feGaussianBlur stdDeviation="2" />
            <feComposite in2="hardAlpha" operator="out" />
            <feColorMatrix type="matrix" values="0 0 0 0 0 0 0 0 0 0 0 0 0 0 0 0 0 0 0 0" />
            <feBlend mode="normal" in2="BackgroundImageFix" result="effect1_dropShadow_147_240" />
            <feBlend mode="normal" in="SourceGraphic" in2="effect1_dropShadow_147_240" result="shape" />
        </filter>
    </defs>
</svg>