<svg width="15" height="15" viewBox="0 0 15 15" fill="none" xmlns="http://www.w3.org/2000/svg">
<g clip-path="url(#clip0_32_21)">
<path d="M14.5128 10.4597L11.2449 9.13285C11.1053 9.07649 10.9501 9.06461 10.8028 9.09901C10.6554 9.13341 10.5239 9.21222 10.4279 9.32359L8.98066 10.9987C6.70938 9.98418 4.88152 8.25252 3.81063 6.10078L5.57881 4.72973C5.69659 4.63897 5.77996 4.51433 5.81629 4.37468C5.85261 4.23502 5.83992 4.08796 5.78014 3.95575L4.3796 0.859822C4.31398 0.717301 4.19793 0.600938 4.05145 0.530797C3.90497 0.460655 3.73725 0.441133 3.57721 0.475595L0.542708 1.13901C0.388407 1.17276 0.250739 1.25507 0.152173 1.3725C0.0536071 1.48992 -3.55448e-05 1.63553 1.76707e-08 1.78556C1.76707e-08 8.87578 6.06608 14.6115 13.5385 14.6115C13.6969 14.6116 13.8507 14.5608 13.9747 14.4675C14.0987 14.3741 14.1857 14.2436 14.2213 14.0974L14.9216 11.2226C14.9577 11.0702 14.9367 10.9107 14.8621 10.7715C14.7874 10.6322 14.6639 10.522 14.5128 10.4597Z" fill="#B9B9B9"/>
</g>
<defs>
<clipPath id="clip0_32_21">
<rect width="14.9391" height="14.1528" fill="white" transform="translate(0 0.458496)"/>
</clipPath>
</defs>
</svg>
