<svg width="24" height="24" viewBox="0 0 24 24" fill="none" xmlns="http://www.w3.org/2000/svg">
    <path
        d="M10.2042 1.60751L11.3934 0.387449C11.8969 -0.129153 12.7111 -0.129153 13.2092 0.387449L23.6224 11.0657C24.1259 11.5823 24.1259 12.4177 23.6224 12.9288L13.2092 23.6125C12.7057 24.1291 11.8915 24.1291 11.3934 23.6125L10.2042 22.3925C9.69535 21.8704 9.70606 21.0185 10.2256 20.5074L16.6803 14.1983L1.28557 14.1983C0.573153 14.1983 2.37969e-06 13.6103 2.25189e-06 12.8793L1.9444e-06 11.1207C1.8166e-06 10.3897 0.573152 9.80169 1.28557 9.80169L16.6803 9.80169L10.2256 3.49256C9.7007 2.98145 9.68999 2.12961 10.2042 1.60751Z"
        fill="#FC981C" />
</svg>