<svg width="18" height="261" viewBox="0 0 18 261" fill="none" xmlns="http://www.w3.org/2000/svg">
<path d="M11.5455 5.97994C11.9773 5.9288 12.3125 5.72141 12.5511 5.35778C12.7898 4.99414 12.9091 4.54812 12.9091 4.01971C12.9091 3.63335 12.8466 3.29528 12.7216 3.00551C12.5966 2.71857 12.4247 2.49414 12.206 2.33221C11.9872 2.17312 11.7386 2.09357 11.4602 2.09357C11.2273 2.09357 11.027 2.14897 10.8594 2.25977C10.6946 2.3734 10.5568 2.51829 10.446 2.69443C10.3381 2.87056 10.2486 3.05522 10.1776 3.2484C10.1094 3.44158 10.054 3.61914 10.0114 3.78107L9.77273 4.66744C9.71307 4.89471 9.63068 5.14755 9.52557 5.42596C9.42045 5.70721 9.27699 5.97568 9.09517 6.23136C8.91619 6.48988 8.68608 6.70295 8.40483 6.87056C8.12358 7.03818 7.77841 7.12198 7.36932 7.12198C6.89773 7.12198 6.47159 6.9984 6.09091 6.75124C5.71023 6.50693 5.40767 6.14897 5.18324 5.67738C4.95881 5.20863 4.84659 4.63903 4.84659 3.96857C4.84659 3.34357 4.94744 2.80238 5.14915 2.34499C5.35085 1.89045 5.6321 1.53249 5.9929 1.27113C6.35369 1.01261 6.77273 0.8663 7.25 0.832209L7.25 1.92312C6.92045 1.95153 6.64773 2.06232 6.43182 2.2555C6.21875 2.45153 6.05966 2.69869 5.95455 2.99698C5.85227 3.29812 5.80114 3.62198 5.80114 3.96857C5.80114 4.37198 5.86648 4.7342 5.99716 5.05522C6.13068 5.37624 6.31534 5.6305 6.55114 5.818C6.78977 6.0055 7.06818 6.09925 7.38636 6.09925C7.67614 6.09925 7.91193 6.01829 8.09375 5.85636C8.27557 5.69443 8.4233 5.48136 8.53693 5.21715C8.65057 4.95295 8.75 4.66744 8.83523 4.36062L9.14205 3.28676C9.33807 2.60494 9.6179 2.06516 9.98153 1.66744C10.3452 1.26971 10.821 1.07085 11.4091 1.07085C11.8977 1.07085 12.3239 1.20295 12.6875 1.46715C13.054 1.7342 13.3381 2.09215 13.5398 2.54102C13.7443 2.99272 13.8466 3.49698 13.8466 4.0538C13.8466 4.6163 13.7457 5.1163 13.544 5.5538C13.3452 5.9913 13.0724 6.33789 12.7259 6.59357C12.3793 6.8521 11.9858 6.98846 11.5455 7.00266L11.5455 5.97994ZM11 15.8823L11 14.8255C11.304 14.763 11.571 14.6536 11.8011 14.4973C12.0312 14.3439 12.2244 14.1564 12.3807 13.9348C12.5398 13.7161 12.6591 13.4732 12.7386 13.2061C12.8182 12.9391 12.858 12.6607 12.858 12.3709C12.858 11.8425 12.7244 11.3638 12.4574 10.9348C12.1903 10.5087 11.7969 10.1692 11.277 9.91637C10.7571 9.66637 10.1193 9.54137 9.36364 9.54137C8.60795 9.54137 7.97017 9.66637 7.45028 9.91637C6.9304 10.1692 6.53693 10.5087 6.26989 10.9348C6.00284 11.3638 5.86932 11.8425 5.86932 12.3709C5.86932 12.6607 5.90909 12.9391 5.98864 13.2061C6.06818 13.4732 6.18608 13.7161 6.34233 13.9348C6.50142 14.1564 6.69602 14.3439 6.92614 14.4973C7.15909 14.6536 7.42614 14.763 7.72727 14.8255L7.72727 15.8823C7.28125 15.8027 6.8821 15.6578 6.52983 15.4476C6.17756 15.2374 5.87784 14.976 5.63068 14.6635C5.38636 14.351 5.20028 14.0002 5.07244 13.611C4.9446 13.2246 4.88068 12.8113 4.88068 12.3709C4.88068 11.6266 5.0625 10.9647 5.42614 10.3851C5.78977 9.80558 6.30682 9.34961 6.97727 9.01722C7.64773 8.68484 8.44318 8.51864 9.36364 8.51864C10.2841 8.51864 11.0795 8.68484 11.75 9.01722C12.4205 9.34961 12.9375 9.80558 13.3011 10.3851C13.6648 10.9647 13.8466 11.6266 13.8466 12.3709C13.8466 12.8113 13.7827 13.2246 13.6548 13.611C13.527 14.0002 13.3395 14.351 13.0923 14.6635C12.848 14.976 12.5497 15.2374 12.1974 15.4476C11.848 15.6578 11.4489 15.8027 11 15.8823ZM5 17.59L13.7273 17.59L13.7273 20.5389C13.7273 21.2207 13.6108 21.7804 13.3778 22.2179C13.1477 22.6554 12.831 22.9792 12.4276 23.1895C12.0241 23.3997 11.5653 23.5048 11.0511 23.5048C10.5369 23.5048 10.081 23.3997 9.68324 23.1895C9.28551 22.9792 8.97301 22.6568 8.74574 22.2221C8.52131 21.7875 8.40909 21.2321 8.40909 20.5559L8.40909 18.1696L9.36364 18.1696L9.36364 20.5218C9.36364 20.9877 9.43182 21.3627 9.56818 21.6468C9.70454 21.9338 9.89773 22.1412 10.1477 22.269C10.4006 22.3997 10.7017 22.465 11.0511 22.465C11.4006 22.465 11.706 22.3997 11.9673 22.269C12.2287 22.1383 12.4304 21.9295 12.5724 21.6426C12.7173 21.3556 12.7898 20.9764 12.7898 20.5048L12.7898 18.6468L5 18.6468L5 17.59ZM8.92045 21.698L5 23.8457L5 22.6184L8.92045 20.5048L8.92045 21.698ZM9.36364 32.6294C8.44318 32.6294 7.64773 32.4632 6.97727 32.1309C6.30682 31.7985 5.78977 31.3425 5.42614 30.763C5.0625 30.1834 4.88068 29.5215 4.88068 28.7772C4.88068 28.0328 5.0625 27.3709 5.42614 26.7914C5.78977 26.2118 6.30682 25.7559 6.97727 25.4235C7.64773 25.0911 8.44318 24.9249 9.36364 24.9249C10.2841 24.9249 11.0795 25.0911 11.75 25.4235C12.4205 25.7559 12.9375 26.2118 13.3011 26.7914C13.6648 27.3709 13.8466 28.0328 13.8466 28.7772C13.8466 29.5215 13.6648 30.1834 13.3011 30.763C12.9375 31.3425 12.4205 31.7985 11.75 32.1309C11.0795 32.4632 10.2841 32.6294 9.36364 32.6294ZM9.36364 31.6067C10.1193 31.6067 10.7571 31.4803 11.277 31.2275C11.7969 30.9775 12.1903 30.638 12.4574 30.209C12.7244 29.7828 12.858 29.3056 12.858 28.7772C12.858 28.2488 12.7244 27.7701 12.4574 27.3411C12.1903 26.915 11.7969 26.5755 11.277 26.3226C10.7571 26.0726 10.1193 25.9476 9.36364 25.9476C8.60795 25.9476 7.97017 26.0726 7.45028 26.3226C6.9304 26.5755 6.53693 26.915 6.26989 27.3411C6.00284 27.7701 5.86932 28.2488 5.86932 28.7772C5.86932 29.3056 6.00284 29.7828 6.26989 30.209C6.53693 30.638 6.9304 30.9775 7.45028 31.2275C7.97017 31.4803 8.60795 31.6067 9.36364 31.6067ZM5 34.4064L13.7273 34.4064L13.7273 35.4632L5.9375 35.4632L5.9375 39.5201L5 39.5201L5 34.4064ZM5 41.1564L13.7273 41.1564L13.7273 42.2132L5.9375 42.2132L5.9375 46.2701L5 46.2701L5 41.1564Z" fill="white"/>
<line x1="5.5" y1="59" x2="5.49999" y2="261" stroke="#B9B9B9"/>
<line x1="5.64645" y1="260.646" x2="12.6464" y2="253.646" stroke="#B9B9B9"/>
</svg>
