<svg width="369" height="110" viewBox="0 0 369 110" fill="none" xmlns="http://www.w3.org/2000/svg">
<g filter="url(#filter0_d_762_6820)">
<path fill-rule="evenodd" clip-rule="evenodd" d="M22.3032 46.6872L11.1967 40.3645V53.01H4.00008V30.622C3.99729 30.3592 4.06534 30.1005 4.19767 29.8724C4.33001 29.6444 4.52174 29.4553 4.75276 29.3249C4.98377 29.1945 5.24546 29.1273 5.51151 29.1305C5.77756 29.1336 6.03821 29.207 6.26601 29.3428L25.8896 40.5121L22.3032 46.6872ZM29.6606 43.0601L49.1602 54.0675C49.3552 54.2092 49.5122 54.395 49.6181 54.6089C49.724 54.8228 49.7758 55.0585 49.7685 55.296C49.7613 55.5335 49.6952 55.7658 49.5764 55.9731C49.4576 56.1804 49.2893 56.3566 49.0859 56.4867L6.25161 80.6787C6.02216 80.8054 5.76297 80.8712 5.49946 80.8694C5.23594 80.8677 4.97744 80.7986 4.74973 80.6689C4.52201 80.5393 4.33272 80.3537 4.20118 80.1304C4.06964 79.9072 4.00049 79.6541 4 79.3964V57.406H11.1511V69.8407L19.7872 55.3255H37.1089L26.0726 49.1081L29.6606 43.0601Z" fill="#FC981C"/>
<g filter="url(#filter1_d_762_6820)">
<path d="M92.7195 74.385C88.5395 74.385 85.1295 73.4867 82.4895 71.69C79.8862 69.8567 78.5845 67.2717 78.5845 63.935C78.5845 63.605 78.6212 63.11 78.6945 62.45H88.4845C88.3745 63.8433 88.7045 64.9433 89.4745 65.75C90.2445 66.5567 91.4179 66.96 92.9945 66.96C94.4245 66.96 95.5429 66.6483 96.3495 66.025C97.1929 65.4017 97.6145 64.5217 97.6145 63.385C97.6145 62.2117 97.0829 61.2583 96.0195 60.525C94.9929 59.7917 93.3795 58.9667 91.1795 58.05C89.0529 57.17 87.3112 56.345 85.9545 55.575C84.6345 54.7683 83.4795 53.6867 82.4895 52.33C81.4995 50.9733 81.0045 49.2683 81.0045 47.215C80.9679 44.685 81.5912 42.485 82.8745 40.615C84.1579 38.745 85.9362 37.315 88.2095 36.325C90.4829 35.335 93.0862 34.84 96.0195 34.84C98.6595 34.84 101.006 35.2617 103.06 36.105C105.113 36.9117 106.708 38.1033 107.845 39.68C108.981 41.22 109.55 43.0533 109.55 45.18C109.55 45.73 109.531 46.1333 109.495 46.39H99.4845C99.5212 46.2433 99.5395 46.0233 99.5395 45.73C99.5395 44.7033 99.1729 43.8783 98.4395 43.255C97.7429 42.595 96.7712 42.265 95.5245 42.265C94.2045 42.265 93.1229 42.595 92.2795 43.255C91.4729 43.8783 91.0695 44.74 91.0695 45.84C91.0695 46.94 91.5829 47.875 92.6095 48.645C93.6362 49.3783 95.2312 50.24 97.3945 51.23C99.5579 52.22 101.318 53.1367 102.675 53.98C104.068 54.8233 105.26 55.96 106.25 57.39C107.24 58.7833 107.735 60.5067 107.735 62.56C107.735 64.8333 107.13 66.8683 105.92 68.665C104.71 70.4617 102.968 71.8733 100.695 72.9C98.4212 73.89 95.7629 74.385 92.7195 74.385ZM135.898 42.98C138.905 42.98 141.27 43.8417 142.993 45.565C144.753 47.2883 145.633 49.69 145.633 52.77C145.633 53.7967 145.523 54.8967 145.303 56.07L142.113 74H132.763L135.733 57.335C135.843 56.7117 135.898 56.1617 135.898 55.685C135.898 54.145 135.458 52.9533 134.578 52.11C133.735 51.2667 132.543 50.845 131.003 50.845C129.17 50.845 127.63 51.4133 126.383 52.55C125.137 53.6867 124.33 55.2817 123.963 57.335V57.225L120.993 74H111.588L118.793 33.3H128.198L125.723 47.38C126.933 46.0233 128.418 44.96 130.178 44.19C131.938 43.3833 133.845 42.98 135.898 42.98ZM162.674 74.44C160.034 74.44 157.687 73.9083 155.634 72.845C153.581 71.7817 151.986 70.2783 150.849 68.335C149.749 66.3917 149.199 64.1367 149.199 61.57C149.199 58.0867 150.024 54.915 151.674 52.055C153.324 49.195 155.597 46.9583 158.494 45.345C161.391 43.695 164.617 42.87 168.174 42.87C170.814 42.87 173.161 43.42 175.214 44.52C177.304 45.5833 178.917 47.0867 180.054 49.03C181.191 50.9733 181.759 53.2283 181.759 55.795C181.759 59.315 180.916 62.505 179.229 65.365C177.579 68.1883 175.287 70.4067 172.354 72.02C169.457 73.6333 166.231 74.44 162.674 74.44ZM163.994 66.355C165.534 66.355 166.909 65.8967 168.119 64.98C169.366 64.0267 170.319 62.8167 170.979 61.35C171.676 59.8467 172.024 58.2883 172.024 56.675C172.024 54.8417 171.529 53.43 170.539 52.44C169.549 51.45 168.302 50.955 166.799 50.955C165.222 50.955 163.829 51.4317 162.619 52.385C161.446 53.3017 160.529 54.5117 159.869 56.015C159.209 57.5183 158.879 59.095 158.879 60.745C158.879 62.5417 159.356 63.935 160.309 64.925C161.262 65.8783 162.491 66.355 163.994 66.355ZM233.168 43.31L219.418 74H209.023L207.703 54.09L199.178 74H188.838L185.923 43.31H195.328L195.768 65.255L204.843 43.31H214.798L216.173 65.255L224.313 43.31H233.168ZM232.19 58.655C232.74 55.465 233.877 52.6783 235.6 50.295C237.323 47.9117 239.45 46.0783 241.98 44.795C244.547 43.5117 247.333 42.87 250.34 42.87C254.19 42.87 257.233 43.8783 259.47 45.895C261.707 47.9117 262.898 50.7533 263.045 54.42H253.035C252.632 52.0733 251.202 50.9 248.745 50.9C247.022 50.9 245.537 51.5783 244.29 52.935C243.043 54.255 242.2 56.1617 241.76 58.655C241.613 59.425 241.54 60.2317 241.54 61.075C241.54 62.7983 241.943 64.1183 242.75 65.035C243.557 65.9517 244.657 66.41 246.05 66.41C248.47 66.41 250.285 65.2367 251.495 62.89H261.56C260.13 66.4833 257.93 69.3067 254.96 71.36C251.99 73.4133 248.598 74.44 244.785 74.44C240.825 74.44 237.672 73.3583 235.325 71.195C233.015 68.995 231.86 66.0067 231.86 62.23C231.86 61.0933 231.97 59.9017 232.19 58.655ZM265.491 58.6C266.041 55.4467 267.123 52.6783 268.736 50.295C270.349 47.9117 272.293 46.0783 274.566 44.795C276.839 43.5117 279.241 42.87 281.771 42.87C283.934 42.87 285.749 43.31 287.216 44.19C288.683 45.07 289.746 46.225 290.406 47.655L291.176 43.31H300.581L295.136 74H285.731L286.556 69.655C285.383 71.085 283.898 72.24 282.101 73.12C280.304 74 278.324 74.44 276.161 74.44C273.998 74.44 272.073 73.945 270.386 72.955C268.736 71.965 267.453 70.5717 266.536 68.775C265.619 66.9417 265.161 64.7967 265.161 62.34C265.161 61.1667 265.271 59.92 265.491 58.6ZM288.481 58.655C288.591 57.995 288.646 57.39 288.646 56.84C288.646 55.0433 288.114 53.6317 287.051 52.605C286.024 51.5783 284.704 51.065 283.091 51.065C281.221 51.065 279.516 51.7433 277.976 53.1C276.436 54.42 275.464 56.2533 275.061 58.6C274.951 59.26 274.896 59.865 274.896 60.415C274.896 62.2117 275.409 63.6417 276.436 64.705C277.499 65.7317 278.819 66.245 280.396 66.245C282.266 66.245 283.971 65.5667 285.511 64.21C287.051 62.8533 288.041 61.0017 288.481 58.655ZM314.7 74.44C312.28 74.44 310.098 74.055 308.155 73.285C306.248 72.515 304.745 71.4517 303.645 70.095C302.545 68.7017 301.995 67.1067 301.995 65.31C301.995 65.0533 302.032 64.595 302.105 63.935H311.18C311.107 65.0717 311.437 65.9883 312.17 66.685C312.94 67.345 314.022 67.675 315.415 67.675C316.588 67.675 317.56 67.455 318.33 67.015C319.1 66.575 319.485 65.9517 319.485 65.145C319.485 64.375 319.063 63.77 318.22 63.33C317.413 62.8533 316.057 62.285 314.15 61.625C312.17 60.965 310.502 60.3233 309.145 59.7C307.825 59.04 306.688 58.105 305.735 56.895C304.782 55.685 304.305 54.1633 304.305 52.33C304.305 50.5333 304.837 48.92 305.9 47.49C306.963 46.0233 308.448 44.8867 310.355 44.08C312.298 43.2733 314.535 42.87 317.065 42.87C319.595 42.87 321.795 43.2917 323.665 44.135C325.535 44.9417 326.983 46.0783 328.01 47.545C329.037 49.0117 329.55 50.6617 329.55 52.495L329.495 53.32H320.97C321.043 52.22 320.713 51.34 319.98 50.68C319.247 50.02 318.202 49.69 316.845 49.69C315.782 49.69 314.902 49.91 314.205 50.35C313.545 50.79 313.215 51.395 313.215 52.165C313.215 52.9717 313.655 53.65 314.535 54.2C315.452 54.7133 316.863 55.3 318.77 55.96C320.75 56.62 322.382 57.28 323.665 57.94C324.985 58.5633 326.103 59.4617 327.02 60.635C327.973 61.7717 328.45 63.2017 328.45 64.925C328.45 66.905 327.845 68.61 326.635 70.04C325.462 71.47 323.83 72.57 321.74 73.34C319.687 74.0733 317.34 74.44 314.7 74.44ZM351.749 42.87C355.709 42.87 358.844 43.9517 361.154 46.115C363.501 48.2417 364.674 51.1567 364.674 54.86C364.674 56.07 364.582 57.1517 364.399 58.105C364.252 58.9483 364.032 59.8467 363.739 60.8H342.454C342.417 61.02 342.399 61.3683 342.399 61.845C342.399 63.4583 342.839 64.6867 343.719 65.53C344.599 66.3733 345.772 66.795 347.239 66.795C349.586 66.795 351.382 65.805 352.629 63.825H362.639C361.319 66.9417 359.174 69.49 356.204 71.47C353.234 73.45 349.897 74.44 346.194 74.44C342.234 74.44 339.062 73.34 336.679 71.14C334.332 68.94 333.159 65.9517 333.159 62.175C333.159 61.0383 333.269 59.865 333.489 58.655C334.039 55.465 335.176 52.6783 336.899 50.295C338.622 47.9117 340.767 46.0783 343.334 44.795C345.901 43.5117 348.706 42.87 351.749 42.87ZM355.159 56.015C355.232 55.5017 355.269 55.1533 355.269 54.97C355.269 53.5033 354.811 52.385 353.894 51.615C352.977 50.8083 351.767 50.405 350.264 50.405C348.651 50.405 347.221 50.9 345.974 51.89C344.764 52.8433 343.884 54.2183 343.334 56.015H355.159Z" fill="#FC981C"/>
</g>
</g>
<defs>
<filter id="filter0_d_762_6820" x="0" y="0" width="370.77" height="118" filterUnits="userSpaceOnUse" color-interpolation-filters="sRGB">
<feFlood flood-opacity="0" result="BackgroundImageFix"/>
<feColorMatrix in="SourceAlpha" type="matrix" values="0 0 0 0 0 0 0 0 0 0 0 0 0 0 0 0 0 0 127 0" result="hardAlpha"/>
<feOffset dy="4"/>
<feGaussianBlur stdDeviation="2"/>
<feComposite in2="hardAlpha" operator="out"/>
<feColorMatrix type="matrix" values="0 0 0 0 0 0 0 0 0 0 0 0 0 0 0 0 0 0 0.25 0"/>
<feBlend mode="normal" in2="BackgroundImageFix" result="effect1_dropShadow_762_6820"/>
<feBlend mode="normal" in="SourceGraphic" in2="effect1_dropShadow_762_6820" result="shape"/>
</filter>
<filter id="filter1_d_762_6820" x="74.585" y="33.3" width="294.089" height="49.1399" filterUnits="userSpaceOnUse" color-interpolation-filters="sRGB">
<feFlood flood-opacity="0" result="BackgroundImageFix"/>
<feColorMatrix in="SourceAlpha" type="matrix" values="0 0 0 0 0 0 0 0 0 0 0 0 0 0 0 0 0 0 127 0" result="hardAlpha"/>
<feOffset dy="4"/>
<feGaussianBlur stdDeviation="2"/>
<feComposite in2="hardAlpha" operator="out"/>
<feColorMatrix type="matrix" values="0 0 0 0 0 0 0 0 0 0 0 0 0 0 0 0 0 0 0 0"/>
<feBlend mode="normal" in2="BackgroundImageFix" result="effect1_dropShadow_762_6820"/>
<feBlend mode="normal" in="SourceGraphic" in2="effect1_dropShadow_762_6820" result="shape"/>
</filter>
</defs>
</svg>
