<svg width="241" height="110" viewBox="0 0 241 110" fill="none" xmlns="http://www.w3.org/2000/svg">
    <g filter="url(#filter0_d_762_6406)">
        <g filter="url(#filter1_d_762_6406)">
            <path fill-rule="evenodd" clip-rule="evenodd"
                d="M22.3032 46.6872L11.1967 40.3645V53.01H4.00008V30.622C3.99729 30.3592 4.06534 30.1005 4.19767 29.8724C4.33001 29.6444 4.52174 29.4553 4.75276 29.3249C4.98377 29.1945 5.24546 29.1273 5.51151 29.1305C5.77756 29.1336 6.03821 29.207 6.26601 29.3428L25.8896 40.5121L22.3032 46.6872ZM29.6606 43.0601L49.1602 54.0675C49.3552 54.2092 49.5122 54.395 49.6181 54.6089C49.724 54.8228 49.7758 55.0585 49.7685 55.296C49.7613 55.5335 49.6952 55.7658 49.5764 55.9731C49.4576 56.1804 49.2893 56.3566 49.0859 56.4867L6.25161 80.6787C6.02216 80.8054 5.76297 80.8712 5.49946 80.8694C5.23594 80.8677 4.97744 80.7986 4.74973 80.6689C4.52201 80.5393 4.33272 80.3537 4.20118 80.1304C4.06964 79.9072 4.00049 79.6541 4 79.3964V57.406H11.1511V69.8407L19.7872 55.3255H37.1089L26.0726 49.1081L29.6606 43.0601Z"
                fill="#FC981C" />
        </g>
        <g filter="url(#filter2_d_762_6406)">
            <path
                d="M111.969 35.39L110.704 42.815H100.419L94.9192 74H85.5142L91.0142 42.815H80.7842L82.1042 35.39H111.969ZM129.009 42.87C132.969 42.87 136.104 43.9517 138.414 46.115C140.761 48.2417 141.934 51.1567 141.934 54.86C141.934 56.07 141.843 57.1517 141.659 58.105C141.513 58.9483 141.293 59.8467 140.999 60.8H119.714C119.678 61.02 119.659 61.3683 119.659 61.845C119.659 63.4583 120.099 64.6867 120.979 65.53C121.859 66.3733 123.033 66.795 124.499 66.795C126.846 66.795 128.643 65.805 129.889 63.825H139.899C138.579 66.9417 136.434 69.49 133.464 71.47C130.494 73.45 127.158 74.44 123.454 74.44C119.494 74.44 116.323 73.34 113.939 71.14C111.593 68.94 110.419 65.9517 110.419 62.175C110.419 61.0383 110.529 59.865 110.749 58.655C111.299 55.465 112.436 52.6783 114.159 50.295C115.883 47.9117 118.028 46.0783 120.594 44.795C123.161 43.5117 125.966 42.87 129.009 42.87ZM132.419 56.015C132.493 55.5017 132.529 55.1533 132.529 54.97C132.529 53.5033 132.071 52.385 131.154 51.615C130.238 50.8083 129.028 50.405 127.524 50.405C125.911 50.405 124.481 50.9 123.234 51.89C122.024 52.8433 121.144 54.2183 120.594 56.015H132.419ZM144.641 58.6C145.191 55.4467 146.273 52.6783 147.886 50.295C149.499 47.9117 151.443 46.0783 153.716 44.795C155.989 43.5117 158.391 42.87 160.921 42.87C163.084 42.87 164.899 43.31 166.366 44.19C167.833 45.07 168.896 46.225 169.556 47.655L170.326 43.31H179.731L174.286 74H164.881L165.706 69.655C164.533 71.085 163.048 72.24 161.251 73.12C159.454 74 157.474 74.44 155.311 74.44C153.148 74.44 151.223 73.945 149.536 72.955C147.886 71.965 146.603 70.5717 145.686 68.775C144.769 66.9417 144.311 64.7967 144.311 62.34C144.311 61.1667 144.421 59.92 144.641 58.6ZM167.631 58.655C167.741 57.995 167.796 57.39 167.796 56.84C167.796 55.0433 167.264 53.6317 166.201 52.605C165.174 51.5783 163.854 51.065 162.241 51.065C160.371 51.065 158.666 51.7433 157.126 53.1C155.586 54.42 154.614 56.2533 154.211 58.6C154.101 59.26 154.046 59.865 154.046 60.415C154.046 62.2117 154.559 63.6417 155.586 64.705C156.649 65.7317 157.969 66.245 159.546 66.245C161.416 66.245 163.121 65.5667 164.661 64.21C166.201 62.8533 167.191 61.0017 167.631 58.655ZM225.75 42.98C229.05 42.98 231.617 43.86 233.45 45.62C235.32 47.3433 236.255 49.7633 236.255 52.88C236.255 53.8333 236.145 54.8967 235.925 56.07L232.735 74H223.385L226.355 57.335C226.428 56.9683 226.465 56.4733 226.465 55.85C226.465 54.31 226.025 53.1367 225.145 52.33C224.302 51.5233 223.11 51.12 221.57 51.12C219.737 51.12 218.197 51.67 216.95 52.77C215.703 53.8333 214.915 55.355 214.585 57.335L211.615 74H202.265L205.235 57.335C205.308 56.9683 205.345 56.4733 205.345 55.85C205.345 54.31 204.905 53.1367 204.025 52.33C203.182 51.5233 201.99 51.12 200.45 51.12C198.617 51.12 197.077 51.67 195.83 52.77C194.583 53.8333 193.795 55.355 193.465 57.335V57.06L190.495 74H181.09L186.48 43.31H195.885L195.225 47.215C196.398 45.895 197.81 44.8683 199.46 44.135C201.147 43.365 202.962 42.98 204.905 42.98C207.252 42.98 209.232 43.475 210.845 44.465C212.495 45.455 213.668 46.885 214.365 48.755C215.722 47.0317 217.408 45.6383 219.425 44.575C221.442 43.5117 223.55 42.98 225.75 42.98Z"
                fill="#FC981C" />
        </g>
    </g>
    <defs>
        <filter id="filter0_d_762_6406" x="0" y="0" width="242.769" height="118" filterUnits="userSpaceOnUse"
            color-interpolation-filters="sRGB">
            <feFlood flood-opacity="0" result="BackgroundImageFix" />
            <feColorMatrix in="SourceAlpha" type="matrix" values="0 0 0 0 0 0 0 0 0 0 0 0 0 0 0 0 0 0 127 0"
                result="hardAlpha" />
            <feOffset dy="4" />
            <feGaussianBlur stdDeviation="2" />
            <feComposite in2="hardAlpha" operator="out" />
            <feColorMatrix type="matrix" values="0 0 0 0 0 0 0 0 0 0 0 0 0 0 0 0 0 0 0.25 0" />
            <feBlend mode="normal" in2="BackgroundImageFix" result="effect1_dropShadow_762_6406" />
            <feBlend mode="normal" in="SourceGraphic" in2="effect1_dropShadow_762_6406" result="shape" />
        </filter>
        <filter id="filter1_d_762_6406" x="0" y="29.1304" width="53.7692" height="59.739" filterUnits="userSpaceOnUse"
            color-interpolation-filters="sRGB">
            <feFlood flood-opacity="0" result="BackgroundImageFix" />
            <feColorMatrix in="SourceAlpha" type="matrix" values="0 0 0 0 0 0 0 0 0 0 0 0 0 0 0 0 0 0 127 0"
                result="hardAlpha" />
            <feOffset dy="4" />
            <feGaussianBlur stdDeviation="2" />
            <feComposite in2="hardAlpha" operator="out" />
            <feColorMatrix type="matrix" values="0 0 0 0 0 0 0 0 0 0 0 0 0 0 0 0 0 0 0 0" />
            <feBlend mode="normal" in2="BackgroundImageFix" result="effect1_dropShadow_762_6406" />
            <feBlend mode="normal" in="SourceGraphic" in2="effect1_dropShadow_762_6406" result="shape" />
        </filter>
        <filter id="filter2_d_762_6406" x="76.7842" y="35.3899" width="163.471" height="47.05"
            filterUnits="userSpaceOnUse" color-interpolation-filters="sRGB">
            <feFlood flood-opacity="0" result="BackgroundImageFix" />
            <feColorMatrix in="SourceAlpha" type="matrix" values="0 0 0 0 0 0 0 0 0 0 0 0 0 0 0 0 0 0 127 0"
                result="hardAlpha" />
            <feOffset dy="4" />
            <feGaussianBlur stdDeviation="2" />
            <feComposite in2="hardAlpha" operator="out" />
            <feColorMatrix type="matrix" values="0 0 0 0 0 0 0 0 0 0 0 0 0 0 0 0 0 0 0 0" />
            <feBlend mode="normal" in2="BackgroundImageFix" result="effect1_dropShadow_762_6406" />
            <feBlend mode="normal" in="SourceGraphic" in2="effect1_dropShadow_762_6406" result="shape" />
        </filter>
    </defs>
</svg>