<svg width="255" height="110" viewBox="0 0 255 110" fill="none" xmlns="http://www.w3.org/2000/svg">
<g filter="url(#filter0_d_146_223)">
<g filter="url(#filter1_d_146_223)">
<path fill-rule="evenodd" clip-rule="evenodd" d="M23.0725 46.6872L11.966 40.3644V53.0099H4.76937V30.6219C4.76657 30.3591 4.83462 30.1004 4.96696 29.8724C5.0993 29.6443 5.29103 29.4553 5.52204 29.3249C5.75306 29.1945 6.01474 29.1273 6.2808 29.1304C6.54685 29.1336 6.8075 29.2069 7.03529 29.3427L26.6589 40.512L23.0725 46.6872ZM30.4299 43.0601L49.9295 54.0674C50.1245 54.2092 50.2815 54.395 50.3874 54.6089C50.4933 54.8228 50.5451 55.0584 50.5378 55.2959C50.5305 55.5334 50.4645 55.7658 50.3457 55.9731C50.2269 56.1804 50.0586 56.3565 49.8552 56.4866L7.02089 80.6786C6.79144 80.8053 6.53226 80.8711 6.26875 80.8694C6.00523 80.8677 5.74673 80.7985 5.51902 80.6689C5.2913 80.5392 5.102 80.3536 4.97046 80.1304C4.83892 79.9071 4.76978 79.654 4.76929 79.3964V57.4059H11.9204V69.8406L20.5565 55.3254H37.8782L26.8419 49.1081L30.4299 43.0601Z" fill="#FC981C"/>
</g>
<g filter="url(#filter2_d_146_223)">
<path d="M92.0585 35.3899L96.5135 64.5399L111.199 35.3899H121.209L100.694 73.9999H88.9235L82.0485 35.3899H92.0585ZM129.044 40.1199C127.578 40.1199 126.404 39.7349 125.524 38.9649C124.681 38.1582 124.259 37.1499 124.259 35.9399C124.259 34.2899 124.901 32.8782 126.184 31.7049C127.468 30.5315 129.026 29.9449 130.859 29.9449C132.326 29.9449 133.481 30.3482 134.324 31.1549C135.168 31.9249 135.589 32.9332 135.589 34.1799C135.589 35.7932 134.948 37.1865 133.664 38.3599C132.381 39.5332 130.841 40.1199 129.044 40.1199ZM133.114 43.3099L127.724 73.9999H118.319L123.709 43.3099H133.114ZM147.3 74.4399C144.88 74.4399 142.698 74.0549 140.755 73.2849C138.848 72.5149 137.345 71.4515 136.245 70.0949C135.145 68.7015 134.595 67.1065 134.595 65.3099C134.595 65.0532 134.632 64.5949 134.705 63.9349H143.78C143.707 65.0715 144.037 65.9882 144.77 66.6849C145.54 67.3449 146.622 67.6749 148.015 67.6749C149.188 67.6749 150.16 67.4549 150.93 67.0149C151.7 66.5749 152.085 65.9515 152.085 65.1449C152.085 64.3749 151.663 63.7699 150.82 63.3299C150.013 62.8532 148.657 62.2849 146.75 61.6249C144.77 60.9649 143.102 60.3232 141.745 59.6999C140.425 59.0399 139.288 58.1049 138.335 56.8949C137.382 55.6849 136.905 54.1632 136.905 52.3299C136.905 50.5332 137.437 48.9199 138.5 47.4899C139.563 46.0232 141.048 44.8865 142.955 44.0799C144.898 43.2732 147.135 42.8699 149.665 42.8699C152.195 42.8699 154.395 43.2915 156.265 44.1349C158.135 44.9415 159.583 46.0782 160.61 47.5449C161.637 49.0115 162.15 50.6615 162.15 52.4949L162.095 53.3199H153.57C153.643 52.2199 153.313 51.3399 152.58 50.6799C151.847 50.0199 150.802 49.6899 149.445 49.6899C148.382 49.6899 147.502 49.9099 146.805 50.3499C146.145 50.7899 145.815 51.3949 145.815 52.1649C145.815 52.9715 146.255 53.6499 147.135 54.1999C148.052 54.7132 149.463 55.2999 151.37 55.9599C153.35 56.6199 154.982 57.2799 156.265 57.9399C157.585 58.5632 158.703 59.4615 159.62 60.6349C160.573 61.7715 161.05 63.2015 161.05 64.9249C161.05 66.9049 160.445 68.6099 159.235 70.0399C158.062 71.4699 156.43 72.5699 154.34 73.3399C152.287 74.0732 149.94 74.4399 147.3 74.4399ZM175.934 40.1199C174.467 40.1199 173.294 39.7349 172.414 38.9649C171.571 38.1582 171.149 37.1499 171.149 35.9399C171.149 34.2899 171.791 32.8782 173.074 31.7049C174.357 30.5315 175.916 29.9449 177.749 29.9449C179.216 29.9449 180.371 30.3482 181.214 31.1549C182.057 31.9249 182.479 32.9332 182.479 34.1799C182.479 35.7932 181.837 37.1865 180.554 38.3599C179.271 39.5332 177.731 40.1199 175.934 40.1199ZM180.004 43.3099L174.614 73.9999H165.209L170.599 43.3099H180.004ZM195.455 74.4399C192.815 74.4399 190.468 73.9082 188.415 72.8449C186.361 71.7815 184.766 70.2782 183.63 68.3349C182.53 66.3915 181.98 64.1365 181.98 61.5699C181.98 58.0865 182.805 54.9149 184.455 52.0549C186.105 49.1949 188.378 46.9582 191.275 45.3449C194.171 43.6949 197.398 42.8699 200.955 42.8699C203.595 42.8699 205.941 43.4199 207.995 44.5199C210.085 45.5832 211.698 47.0865 212.835 49.0299C213.971 50.9732 214.54 53.2282 214.54 55.7949C214.54 59.3149 213.696 62.5049 212.01 65.3649C210.36 68.1882 208.068 70.4065 205.135 72.0199C202.238 73.6332 199.011 74.4399 195.455 74.4399ZM196.775 66.3549C198.315 66.3549 199.69 65.8965 200.9 64.9799C202.146 64.0265 203.1 62.8165 203.76 61.3499C204.456 59.8465 204.805 58.2882 204.805 56.6749C204.805 54.8415 204.31 53.4299 203.32 52.4399C202.33 51.4499 201.083 50.9549 199.58 50.9549C198.003 50.9549 196.61 51.4315 195.4 52.3849C194.226 53.3015 193.31 54.5115 192.65 56.0149C191.99 57.5182 191.66 59.0949 191.66 60.7449C191.66 62.5415 192.136 63.9349 193.09 64.9249C194.043 65.8782 195.271 66.3549 196.775 66.3549ZM240.594 42.9799C243.674 42.9799 246.094 43.8415 247.854 45.5649C249.614 47.2882 250.494 49.6899 250.494 52.7699C250.494 53.7965 250.384 54.8965 250.164 56.0699L246.974 73.9999H237.624L240.594 57.3349C240.704 56.7115 240.759 56.1615 240.759 55.6849C240.759 54.1449 240.319 52.9532 239.439 52.1099C238.596 51.2665 237.404 50.8449 235.864 50.8449C234.031 50.8449 232.491 51.4132 231.244 52.5499C229.998 53.6865 229.191 55.2815 228.824 57.3349V57.0599L225.854 73.9999H216.449L221.839 43.3099H231.244L230.529 47.4349C231.739 46.0782 233.206 44.9965 234.929 44.1899C236.689 43.3832 238.578 42.9799 240.594 42.9799Z" fill="#FC981C"/>
</g>
</g>
<defs>
<filter id="filter0_d_146_223" x="0.769287" y="-0.00012207" width="256.769" height="118" filterUnits="userSpaceOnUse" color-interpolation-filters="sRGB">
<feFlood flood-opacity="0" result="BackgroundImageFix"/>
<feColorMatrix in="SourceAlpha" type="matrix" values="0 0 0 0 0 0 0 0 0 0 0 0 0 0 0 0 0 0 127 0" result="hardAlpha"/>
<feOffset dy="4"/>
<feGaussianBlur stdDeviation="2"/>
<feComposite in2="hardAlpha" operator="out"/>
<feColorMatrix type="matrix" values="0 0 0 0 0 0 0 0 0 0 0 0 0 0 0 0 0 0 0.25 0"/>
<feBlend mode="normal" in2="BackgroundImageFix" result="effect1_dropShadow_146_223"/>
<feBlend mode="normal" in="SourceGraphic" in2="effect1_dropShadow_146_223" result="shape"/>
</filter>
<filter id="filter1_d_146_223" x="0.769287" y="29.1303" width="53.7692" height="59.7391" filterUnits="userSpaceOnUse" color-interpolation-filters="sRGB">
<feFlood flood-opacity="0" result="BackgroundImageFix"/>
<feColorMatrix in="SourceAlpha" type="matrix" values="0 0 0 0 0 0 0 0 0 0 0 0 0 0 0 0 0 0 127 0" result="hardAlpha"/>
<feOffset dy="4"/>
<feGaussianBlur stdDeviation="2"/>
<feComposite in2="hardAlpha" operator="out"/>
<feColorMatrix type="matrix" values="0 0 0 0 0 0 0 0 0 0 0 0 0 0 0 0 0 0 0 0"/>
<feBlend mode="normal" in2="BackgroundImageFix" result="effect1_dropShadow_146_223"/>
<feBlend mode="normal" in="SourceGraphic" in2="effect1_dropShadow_146_223" result="shape"/>
</filter>
<filter id="filter2_d_146_223" x="78.0485" y="29.9449" width="176.446" height="52.495" filterUnits="userSpaceOnUse" color-interpolation-filters="sRGB">
<feFlood flood-opacity="0" result="BackgroundImageFix"/>
<feColorMatrix in="SourceAlpha" type="matrix" values="0 0 0 0 0 0 0 0 0 0 0 0 0 0 0 0 0 0 127 0" result="hardAlpha"/>
<feOffset dy="4"/>
<feGaussianBlur stdDeviation="2"/>
<feComposite in2="hardAlpha" operator="out"/>
<feColorMatrix type="matrix" values="0 0 0 0 0 0 0 0 0 0 0 0 0 0 0 0 0 0 0 0"/>
<feBlend mode="normal" in2="BackgroundImageFix" result="effect1_dropShadow_146_223"/>
<feBlend mode="normal" in="SourceGraphic" in2="effect1_dropShadow_146_223" result="shape"/>
</filter>
</defs>
</svg>
