<?xml version="1.0" encoding="utf-8"?>
<!-- Generator: Adobe Illustrator 17.0.0, SVG Export Plug-In . SVG Version: 6.00 Build 0)  -->
<!DOCTYPE svg PUBLIC "-//W3C//DTD SVG 1.1//EN" "http://www.w3.org/Graphics/SVG/1.1/DTD/svg11.dtd">
<svg version="1.1" id="圖層_1" xmlns="http://www.w3.org/2000/svg" xmlns:xlink="http://www.w3.org/1999/xlink" x="0px" y="0px"
	 width="200px" height="140px" viewBox="0 0 200 140" enable-background="new 0 0 200 140" xml:space="preserve">
<g>
	<g>
		<polygon fill-rule="evenodd" clip-rule="evenodd" fill="#F29600" points="91.5,93.4 116.5,93.4 128.3,114.7 79.8,114.7 		"/>
		<path fill-rule="evenodd" clip-rule="evenodd" fill="#E95513" d="M45,10.5h118c3.3,0,6,2.7,6,6v76.3c0,3.3-2.7,6-6,6H45
			c-3.3,0-6-2.7-6-6V16.5C39,13.2,41.7,10.5,45,10.5z"/>
		<g>
			<circle fill-rule="evenodd" clip-rule="evenodd" fill="#F5F4F4" cx="161.7" cy="93.5" r="0.8"/>
			<circle fill-rule="evenodd" clip-rule="evenodd" fill="#F5F4F4" cx="158.7" cy="93.5" r="0.8"/>
			<circle fill-rule="evenodd" clip-rule="evenodd" fill="#F5F4F4" cx="155.6" cy="93.5" r="0.8"/>
		</g>
		<path fill-rule="evenodd" clip-rule="evenodd" fill="#F29600" d="M32,108.3h144c1.8,0,3.2,1.4,3.2,3.2l0,0c0,1.8-1.4,3.2-3.2,3.2
			H32c-1.8,0-3.2-1.4-3.2-3.2l0,0C28.8,109.7,30.3,108.3,32,108.3z"/>
		<path fill-rule="evenodd" clip-rule="evenodd" fill="#E95513" d="M179.2,111.5c0,1.8-1.4,3.2-3.2,3.2H32c-1.8,0-3.2-1.4-3.2-3.2
			H179.2z"/>
	</g>
	<g>
		<g>
			<rect x="43" y="14" fill-rule="evenodd" clip-rule="evenodd" fill="#FFFFFF" width="122" height="74"/>
		</g>
	</g>
	<g>
		<polygon fill="#F7F7F7" points="165,14 149,14 75,88 165,88 		"/>
	</g>
	<g>
		<g>
			<path fill-rule="evenodd" clip-rule="evenodd" fill="#003A59" d="M182.8,64.6h-24.6c-4.8,0-8.7,3.9-8.7,8.7v42.5
				c0,4.8,3.9,8.7,8.7,8.7h24.6c4.8,0,8.7-3.9,8.7-8.7V73.3C191.5,68.5,187.6,64.6,182.8,64.6z"/>
			<path fill-rule="evenodd" clip-rule="evenodd" fill="#FFFFFF" d="M188.4,69.7h-35.8c-0.1,0-0.1,0.1-0.1,0.1v49.1
				c0,0.1,0.1,0.1,0.1,0.1h35.8c0.1,0,0.1-0.1,0.1-0.1V69.8C188.5,69.7,188.4,69.7,188.4,69.7z"/>
			<path fill-rule="evenodd" clip-rule="evenodd" fill="#9EC2E3" d="M175.1,66.1h-9.2c-0.2,0-0.5,0.2-0.5,0.5l0,0
				c0,0.2,0.2,0.5,0.5,0.5h9.2c0.2,0,0.5-0.2,0.5-0.5l0,0C175.6,66.3,175.4,66.1,175.1,66.1z"/>
			<circle fill-rule="evenodd" clip-rule="evenodd" fill="#9EC2E3" cx="170.5" cy="121.7" r="1.5"/>
			<g>
				<path fill="#F7F7F7" d="M152.5,115.3v3.5c0,0.1,0.1,0.1,0.1,0.1h35.8c0.1,0,0.1-0.1,0.1-0.1V79.3L152.5,115.3z"/>
			</g>
		</g>
	</g>
	<g>
		<g>
			<path fill-rule="evenodd" clip-rule="evenodd" fill="#003A59" d="M135.7,86h16.1c3.1,0,5.6,2.5,5.6,5.6v30.9
				c0,3.1-2.5,5.6-5.6,5.6h-16.1c-3.1,0-5.6-2.5-5.6-5.6V91.6C130.1,88.5,132.6,86,135.7,86z"/>
			<rect x="131.7" y="90.4" fill-rule="evenodd" clip-rule="evenodd" fill="#FFFFFF" width="24" height="31.8"/>
			<path fill-rule="evenodd" clip-rule="evenodd" fill="#9EC2E3" d="M139.7,88.3h8.1c0.2,0,0.4-0.2,0.4-0.4v0c0-0.2-0.2-0.4-0.4-0.4
				h-8.1c-0.2,0-0.4,0.2-0.4,0.4v0C139.3,88.1,139.5,88.3,139.7,88.3z"/>
			<path fill-rule="evenodd" clip-rule="evenodd" fill="#9EC2E3" d="M136.9,125.8h13.6c0.3,0,0.6-0.3,0.6-0.6v0
				c0-0.3-0.3-0.6-0.6-0.6h-13.6c-0.3,0-0.6,0.3-0.6,0.6v0C136.3,125.5,136.6,125.8,136.9,125.8z"/>
			<circle fill-rule="evenodd" clip-rule="evenodd" fill="#447095" cx="143.7" cy="125.2" r="2.4"/>
			<circle fill-rule="evenodd" clip-rule="evenodd" fill="#9EC2E3" cx="143.7" cy="125.2" r="1.7"/>
			<g>
				<polygon fill="#F7F7F7" points="131.7,116.5 131.7,122.2 155.7,122.2 155.7,92.4 				"/>
			</g>
		</g>
	</g>
	<g>
		<g>
			<path fill-rule="evenodd" clip-rule="evenodd" fill="#003A59" d="M122.5,102.7h8.2c1.6,0,2.8,1.3,2.8,2.8v22.1
				c0,1.6-1.3,2.8-2.8,2.8h-8.2c-1.6,0-2.8-1.3-2.8-2.8v-22.1C119.7,104,121,102.7,122.5,102.7z"/>
			<rect x="120.7" y="105.6" fill-rule="evenodd" clip-rule="evenodd" fill="#FFFFFF" width="11.9" height="21"/>
			<path fill-rule="evenodd" clip-rule="evenodd" fill="#9EC2E3" d="M124,104.2h5.3c0.1,0,0.3-0.1,0.3-0.3l0,0
				c0-0.1-0.1-0.3-0.3-0.3H124c-0.1,0-0.3,0.1-0.3,0.3l0,0C123.7,104.1,123.8,104.2,124,104.2z"/>
			<path fill-rule="evenodd" clip-rule="evenodd" fill="#9EC2E3" d="M122.2,129h9c0.2,0,0.4-0.2,0.4-0.4v0c0-0.2-0.2-0.4-0.4-0.4h-9
				c-0.2,0-0.4,0.2-0.4,0.4v0C121.7,128.8,121.9,129,122.2,129z"/>
			<circle fill-rule="evenodd" clip-rule="evenodd" fill="#447095" cx="126.6" cy="128.6" r="1.6"/>
			<circle fill-rule="evenodd" clip-rule="evenodd" fill="#9EC2E3" cx="126.6" cy="128.6" r="1.1"/>
			<g>
				<polygon fill="#F7F7F7" points="120.7,124.4 120.7,126.6 132.6,126.6 132.6,112.5 				"/>
			</g>
		</g>
	</g>
	<g>
		<g>
			<path fill="#F4BC1B" d="M127.2,44.9c1.6,6.1-2,12.4-8.1,14.1L95,65.4c-6.1,1.6-12.4-2-14.1-8.1l0-0.2C79.2,51,82.9,44.7,89,43
				l24.1-6.5c6.1-1.6,12.4,2,14.1,8.1L127.2,44.9z"/>
			<g>
				<path fill="#F19325" d="M127.2,57.3c-1.6,6.1-8,9.8-14.1,8.1L89,59c-6.1-1.6-9.8-8-8.1-14.1l0-0.2c1.6-6.1,8-9.8,14.1-8.1
					l24.1,6.5c6.1,1.6,9.8,8,8.1,14.1L127.2,57.3z"/>
			</g>
			<g>
				<circle fill="#FFFFFF" cx="115.6" cy="46.6" r="2.1"/>
				<circle fill="#FFFFFF" cx="115.6" cy="55.5" r="2.1"/>
				<circle fill="#FFFFFF" cx="120.1" cy="51" r="2.1"/>
				<circle fill="#FFFFFF" cx="111.1" cy="51" r="2.1"/>
				<path fill="#FFFFFF" d="M93.3,56c0,0.3-0.3,0.6-0.6,0.6h-2c-0.3,0-0.6-0.3-0.6-0.6V45.6c0-0.3,0.3-0.6,0.6-0.6h2
					c0.3,0,0.6,0.3,0.6,0.6V56z"/>
				<path fill="#FFFFFF" d="M96.9,49.2c0.3,0,0.6,0.3,0.6,0.6v2c0,0.3-0.3,0.6-0.6,0.6H86.5c-0.3,0-0.6-0.3-0.6-0.6v-2
					c0-0.3,0.3-0.6,0.6-0.6H96.9z"/>
			</g>
		</g>
	</g>
	<g>
		<g>
			<path fill="#F4BC1B" d="M130,115.4c0.2,0.9-0.3,1.8-1.2,2l-3.5,0.9c-0.9,0.2-1.8-0.3-2-1.2l0,0c-0.2-0.9,0.3-1.8,1.2-2l3.5-0.9
				C128.8,114,129.8,114.5,130,115.4L130,115.4z"/>
			<g>
				<path fill="#F19325" d="M130,117.2c-0.2,0.9-1.2,1.4-2,1.2l-3.5-0.9c-0.9-0.2-1.4-1.2-1.2-2l0,0c0.2-0.9,1.2-1.4,2-1.2l3.5,0.9
					C129.7,115.4,130.2,116.3,130,117.2L130,117.2z"/>
			</g>
			<g>
				<circle fill="#FFFFFF" cx="128.3" cy="115.7" r="0.3"/>
				<circle fill="#FFFFFF" cx="128.3" cy="117" r="0.3"/>
				<circle fill="#FFFFFF" cx="129" cy="116.3" r="0.3"/>
				<circle fill="#FFFFFF" cx="127.7" cy="116.3" r="0.3"/>
				<path fill="#FFFFFF" d="M125.1,117.1C125.1,117.1,125.1,117.1,125.1,117.1l-0.4,0.1c0,0-0.1,0-0.1-0.1v-1.5c0,0,0-0.1,0.1-0.1
					h0.3c0,0,0.1,0,0.1,0.1V117.1z"/>
				<path fill="#FFFFFF" d="M125.6,116.1C125.7,116.1,125.7,116.1,125.6,116.1l0.1,0.4c0,0,0,0.1-0.1,0.1h-1.5c0,0-0.1,0-0.1-0.1
					v-0.3c0,0,0-0.1,0.1-0.1H125.6z"/>
			</g>
		</g>
	</g>
	<g>
		<g>
			<path fill="#F4BC1B" d="M149.2,105.2c0.4,1.5-0.5,3-1.9,3.3l-5.7,1.5c-1.5,0.4-3-0.5-3.3-1.9l0,0c-0.4-1.5,0.5-3,1.9-3.3l5.7-1.5
				C147.3,102.8,148.8,103.7,149.2,105.2L149.2,105.2z"/>
			<g>
				<path fill="#F19325" d="M149.2,108.1c-0.4,1.5-1.9,2.3-3.3,1.9l-5.7-1.5c-1.5-0.4-2.3-1.9-1.9-3.3l0,0c0.4-1.5,1.9-2.3,3.3-1.9
					l5.7,1.5C148.8,105.1,149.6,106.7,149.2,108.1L149.2,108.1z"/>
			</g>
			<g>
				<circle fill="#FFFFFF" cx="146.5" cy="105.6" r="0.5"/>
				<circle fill="#FFFFFF" cx="146.5" cy="107.7" r="0.5"/>
				<circle fill="#FFFFFF" cx="147.6" cy="106.7" r="0.5"/>
				<circle fill="#FFFFFF" cx="145.4" cy="106.7" r="0.5"/>
				<path fill="#FFFFFF" d="M141.2,107.8c0,0.1-0.1,0.1-0.1,0.1h-0.5c-0.1,0-0.1-0.1-0.1-0.1v-2.5c0-0.1,0.1-0.1,0.1-0.1h0.5
					c0.1,0,0.1,0.1,0.1,0.1V107.8z"/>
				<path fill="#FFFFFF" d="M142,106.2c0.1,0,0.1,0.1,0.1,0.1v0.5c0,0.1-0.1,0.1-0.1,0.1h-2.5c-0.1,0-0.1-0.1-0.1-0.1v-0.5
					c0-0.1,0.1-0.1,0.1-0.1H142z"/>
			</g>
		</g>
	</g>
	<g>
		<g>
			<path fill="#F4BC1B" d="M178.8,92.6c0.6,2.2-0.7,4.4-2.9,5l-8.6,2.3c-2.2,0.6-4.4-0.7-5-2.9l0-0.1c-0.6-2.2,0.7-4.4,2.9-5
				l8.6-2.3C175.9,89.1,178.2,90.4,178.8,92.6L178.8,92.6z"/>
			<g>
				<path fill="#F19325" d="M178.7,97.1c-0.6,2.2-2.8,3.5-5,2.9l-8.6-2.3c-2.2-0.6-3.5-2.8-2.9-5l0-0.1c0.6-2.2,2.8-3.5,5-2.9
					l8.6,2.3C178,92.6,179.3,94.8,178.7,97.1L178.7,97.1z"/>
			</g>
			<g>
				<circle fill="#FFFFFF" cx="174.6" cy="93.2" r="0.7"/>
				<circle fill="#FFFFFF" cx="174.6" cy="96.4" r="0.7"/>
				<circle fill="#FFFFFF" cx="176.2" cy="94.8" r="0.7"/>
				<circle fill="#FFFFFF" cx="173" cy="94.8" r="0.7"/>
				<path fill="#FFFFFF" d="M166.7,96.6c0,0.1-0.1,0.2-0.2,0.2h-0.7c-0.1,0-0.2-0.1-0.2-0.2v-3.7c0-0.1,0.1-0.2,0.2-0.2h0.7
					c0.1,0,0.2,0.1,0.2,0.2V96.6z"/>
				<path fill="#FFFFFF" d="M168,94.2c0.1,0,0.2,0.1,0.2,0.2v0.7c0,0.1-0.1,0.2-0.2,0.2h-3.7c-0.1,0-0.2-0.1-0.2-0.2v-0.7
					c0-0.1,0.1-0.2,0.2-0.2H168z"/>
			</g>
		</g>
	</g>
	<g>
		<g>
			<g>
				<path fill-rule="evenodd" clip-rule="evenodd" fill="#E95513" d="M22.4,62.6h75.5c1.5,0,2.8,1.3,2.8,2.8v47.7
					c0,1.5-1.3,2.8-2.8,2.8H22.4c-1.5,0-2.8-1.3-2.8-2.8V65.4C19.6,63.9,20.9,62.6,22.4,62.6z"/>
				<rect x="23.8" y="68.2" fill-rule="evenodd" clip-rule="evenodd" fill="#FFFFFF" width="72.7" height="39"/>
				<circle fill-rule="evenodd" clip-rule="evenodd" fill="#F29600" cx="60.2" cy="65.5" r="1"/>
				<rect x="58.4" y="109.7" fill-rule="evenodd" clip-rule="evenodd" fill="#F29600" width="3.5" height="3.5"/>
				<polygon fill-rule="evenodd" clip-rule="evenodd" fill="#E95513" points="19.6,116 100.7,116 114.8,125.2 5.5,125.2 				"/>
				<path fill-rule="evenodd" clip-rule="evenodd" fill="#E95513" d="M5.5,125.2h109.3v3.1c0,1.1-0.9,2-2,2H7.5c-1.1,0-2-0.9-2-2
					V125.2z"/>
				<rect x="49.1" y="127.9" fill-rule="evenodd" clip-rule="evenodd" fill="#F29600" width="22.1" height="1.4"/>
				<rect x="5.5" y="125.2" fill-rule="evenodd" clip-rule="evenodd" fill="#E95513" width="109.3" height="1.6"/>
				<g>
					<polygon fill="#F7F7F7" points="96.5,68.2 88.1,68.2 49.1,107.2 96.5,107.2 					"/>
				</g>
			</g>
			<path fill-rule="evenodd" clip-rule="evenodd" fill="#F29600" d="M93.7,124.1v-2l14.1,0c0.5,0.3,1,0.6,1.5,1c0.5,0.3,1,0.6,1.5,1
				L93.7,124.1L93.7,124.1z M93.7,121.3v-2l1,0c0.4,0.3,0.8,0.6,1.1,1c0.4,0.3,0.8,0.6,1.1,1L93.7,121.3L93.7,121.3z M93.7,118.6
				L93.7,118.6h0.1H93.7L93.7,118.6z M93.7,116.8c0.4,0.3,0.7,0.6,1.1,0.9c0.4,0.3,0.8,0.6,1.2,1c2.2,0,4.3,0,6.5,0
				c-0.5-0.3-1-0.6-1.5-1c-0.5-0.3-1-0.6-1.5-1L93.7,116.8L93.7,116.8L93.7,116.8z M97,119.4c2.2,0,4.4,0,6.7,0c0.5,0.3,1,0.6,1.5,1
				c0.5,0.3,1,0.6,1.5,1c-2.4,0-4.8,0-7.1,0c-0.4-0.3-0.8-0.6-1.2-1C97.8,120,97.4,119.7,97,119.4z M26.8,122.3l8.4,0
				c7.8,0,15.6,0,23.4,0c-0.1,0.3-0.1,0.7-0.1,1c0,0.3-0.1,0.7-0.1,1c-8.3,0-16.6,0-24.9,0.1l-6.6,0V122.3L26.8,122.3z M93.7,116.7
				L93.7,116.7h-0.1H93.7L93.7,116.7z M93.7,118.5c-0.3-0.3-0.7-0.6-1-0.9c-0.4-0.3-0.8-0.6-1.1-1c-2,0-4,0-6,0
				c0.3,0.3,0.6,0.7,0.9,1c0.3,0.3,0.6,0.7,0.9,1L93.7,118.5L93.7,118.5L93.7,118.5z M93.7,119.4v2l-3.9,0c-0.3-0.3-0.6-0.7-0.9-1
				c-0.3-0.3-0.6-0.7-0.9-1L93.7,119.4L93.7,119.4z M93.7,122.1v2l-2.7,0c-6.5,0-13.1,0-19.6,0.1c-0.1-0.3-0.2-0.7-0.3-1
				c-0.1-0.3-0.2-0.7-0.3-1c6.1,0,12.3,0,18.4,0L93.7,122.1L93.7,122.1z M26.8,121.4v-2l5.3,0c-0.4,0.3-0.7,0.7-1.1,1
				c-0.4,0.3-0.7,0.7-1.1,1L26.8,121.4L26.8,121.4z M26.8,118.6v-0.2c0.3-0.3,0.7-0.5,1-0.8c0.4-0.3,0.9-0.7,1.3-1c2,0,4,0,6,0
				c-0.4,0.3-0.7,0.7-1.1,1c-0.4,0.3-0.7,0.7-1.1,1L26.8,118.6L26.8,118.6z M26.8,116.8l0.3-0.2l-0.3,0V116.8L26.8,116.8z M61,122.2
				c2.4,0,4.9,0,7.3,0c0.1,0.3,0.1,0.7,0.2,1c0.1,0.3,0.1,0.7,0.2,1c-2.6,0-5.2,0-7.8,0c0-0.3,0-0.7,0.1-1
				C61,122.9,61,122.5,61,122.2L61,122.2z M34.4,119.4c2.2,0,4.4,0,6.7,0c-0.3,0.3-0.5,0.7-0.8,1c-0.3,0.3-0.5,0.7-0.8,1
				c-2.4,0-4.8,0-7.1,0c0.3-0.3,0.7-0.7,1-1C33.7,120.1,34,119.7,34.4,119.4L34.4,119.4z M43.3,119.4c2.2,0,4.4,0,6.7,0
				c-0.2,0.3-0.3,0.7-0.5,1c-0.2,0.3-0.3,0.7-0.5,1c-2.4,0-4.8,0-7.1,0c0.2-0.3,0.5-0.7,0.7-1C42.8,120.1,43.1,119.7,43.3,119.4
				L43.3,119.4z M52.2,119.4c2.2,0,4.4,0,6.6,0c-0.1,0.3-0.1,0.7-0.1,1c0,0.3-0.1,0.7-0.1,1c-2.4,0-4.8,0-7.1,0
				c0.1-0.3,0.3-0.7,0.4-1C52,120.1,52.1,119.7,52.2,119.4L52.2,119.4z M61.2,119.4c2.2,0,4.4,0,6.6,0c0.1,0.3,0.1,0.7,0.2,1
				c0.1,0.3,0.1,0.7,0.2,1c-2.4,0-4.8,0-7.1,0c0-0.3,0.1-0.7,0.1-1C61.1,120.1,61.2,119.7,61.2,119.4L61.2,119.4z M70.1,119.4
				c2.2,0,4.4,0,6.7,0c0.2,0.3,0.3,0.7,0.5,1c0.2,0.3,0.3,0.7,0.5,1c-2.4,0-4.8,0-7.1,0c-0.1-0.3-0.2-0.7-0.3-1
				C70.3,120,70.2,119.7,70.1,119.4L70.1,119.4z M79.1,119.4c2.2,0,4.4,0,6.7,0c0.3,0.3,0.5,0.7,0.8,1c0.3,0.3,0.6,0.7,0.8,1
				c-2.4,0-4.8,0-7.1,0c-0.2-0.3-0.4-0.7-0.6-1C79.5,120,79.2,119.7,79.1,119.4L79.1,119.4z M37.2,116.6c2,0,4,0,6,0
				c-0.3,0.3-0.5,0.7-0.8,1c-0.3,0.3-0.5,0.7-0.8,1c-2.2,0-4.3,0-6.5,0c0.3-0.3,0.7-0.7,1-1C36.5,117.3,36.8,116.9,37.2,116.6
				L37.2,116.6z M45.2,116.6c2,0,4,0,6,0c-0.2,0.3-0.3,0.7-0.5,1c-0.2,0.3-0.3,0.7-0.5,1c-2.2,0-4.3,0-6.5,0c0.2-0.3,0.5-0.7,0.7-1
				C44.8,117.3,45,117,45.2,116.6L45.2,116.6z M53.3,116.6c2,0,4,0,6,0c-0.1,0.3-0.1,0.7-0.1,1c0,0.3-0.1,0.7-0.1,1
				c-2.2,0-4.3,0-6.5,0c0.1-0.3,0.3-0.7,0.4-1C53,117.3,53.2,117,53.3,116.6L53.3,116.6z M61.3,116.6c2,0,4,0,6,0
				c0.1,0.3,0.1,0.7,0.2,1c0.1,0.3,0.1,0.7,0.2,1c-2.2,0-4.3,0-6.5,0c0-0.3,0-0.7,0.1-1C61.3,117.3,61.3,117,61.3,116.6L61.3,116.6z
				 M69.4,116.6c2,0,4,0,6,0c0.2,0.3,0.3,0.7,0.5,1c0.2,0.3,0.3,0.7,0.5,1c-2.2,0-4.3,0-6.5,0c-0.1-0.3-0.2-0.7-0.3-1
				C69.6,117.3,69.5,117,69.4,116.6L69.4,116.6z M77.5,116.7c2,0,4,0,6,0c0.3,0.3,0.5,0.7,0.8,1c0.3,0.3,0.6,0.7,0.8,1
				c-2.2,0-4.3,0-6.5,0c-0.2-0.3-0.4-0.7-0.6-1C77.8,117.3,77.7,117,77.5,116.7z M22.9,122.3l3.8,0v2l-3.8,0V122.3L22.9,122.3z
				 M26.8,116.6v0.2c-0.4,0.3-0.7,0.5-1.1,0.8c-0.5,0.3-1,0.7-1.4,1h-1.3v-2L26.8,116.6L26.8,116.6z M26.8,118.4l-0.3,0.2h0.3V118.4
				L26.8,118.4z M26.8,119.4v2l-3.8,0v-0.1c0.4-0.3,0.8-0.6,1.2-0.9c0.4-0.3,0.9-0.7,1.3-1L26.8,119.4L26.8,119.4z M22.9,119.6
				l0.2-0.1h-0.2V119.6z M11.8,122.3l11.1,0v2l-14.5,0c0.6-0.3,1.1-0.7,1.7-1C10.7,123,11.2,122.6,11.8,122.3L11.8,122.3z
				 M22.9,116.6v2h-5.2c0.5-0.3,1.1-0.7,1.7-1c0.6-0.3,1.1-0.7,1.7-1L22.9,116.6L22.9,116.6z M22.9,119.4v0.1
				c-0.4,0.3-0.8,0.6-1.2,0.9c-0.5,0.3-0.9,0.7-1.4,1c-2.4,0-4.8,0-7.1,0c0.6-0.3,1.1-0.7,1.7-1c0.6-0.3,1.1-0.7,1.7-1L22.9,119.4
				L22.9,119.4z M22.9,121.3l-0.2,0.1l0.2,0V121.3z"/>
		</g>
		<g>
			<g>
				<path fill="#F4BC1B" d="M70.1,86.8c0.7,2.6-0.9,5.3-3.5,6l-10.3,2.8c-2.6,0.7-5.3-0.9-6-3.5l0-0.1c-0.7-2.6,0.9-5.3,3.5-6
					L64,83.3C66.7,82.6,69.4,84.1,70.1,86.8L70.1,86.8z"/>
				<g>
					<path fill="#F19325" d="M70.1,92.1c-0.7,2.6-3.4,4.2-6,3.5l-10.3-2.8c-2.6-0.7-4.2-3.4-3.5-6l0-0.1c0.7-2.6,3.4-4.2,6-3.5
						L66.6,86C69.2,86.7,70.8,89.4,70.1,92.1L70.1,92.1z"/>
				</g>
				<g>
					<circle fill="#FFFFFF" cx="65.1" cy="87.5" r="0.9"/>
					<circle fill="#FFFFFF" cx="65.1" cy="91.3" r="0.9"/>
					<circle fill="#FFFFFF" cx="67" cy="89.4" r="0.9"/>
					<circle fill="#FFFFFF" cx="63.2" cy="89.4" r="0.9"/>
					<path fill="#FFFFFF" d="M55.6,91.6c0,0.1-0.1,0.3-0.2,0.3h-0.9c-0.1,0-0.2-0.1-0.2-0.3v-4.5c0-0.1,0.1-0.3,0.2-0.3h0.9
						c0.1,0,0.2,0.1,0.2,0.3V91.6z"/>
					<path fill="#FFFFFF" d="M57.1,88.7c0.1,0,0.3,0.1,0.3,0.2v0.9c0,0.1-0.1,0.2-0.3,0.2h-4.5c-0.1,0-0.3-0.1-0.3-0.2v-0.9
						c0-0.1,0.1-0.2,0.3-0.2H57.1z"/>
				</g>
			</g>
		</g>
	</g>
</g>
</svg>
