<?xml version="1.0" encoding="utf-8"?>
<!-- Generator: Adobe Illustrator 17.0.0, SVG Export Plug-In . SVG Version: 6.00 Build 0)  -->
<!DOCTYPE svg PUBLIC "-//W3C//DTD SVG 1.1//EN" "http://www.w3.org/Graphics/SVG/1.1/DTD/svg11.dtd">
<svg version="1.1" id="圖層_1" xmlns="http://www.w3.org/2000/svg" xmlns:xlink="http://www.w3.org/1999/xlink" x="0px" y="0px"
	 width="200px" height="140px" viewBox="0 0 200 140" enable-background="new 0 0 200 140" xml:space="preserve">
<g>
	<path fill="#003A59" d="M177.6,84.4c0-0.1,0.2-0.2,0.3-0.2h0.9c0.8,0,1.5-0.7,1.5-1.5v-1.5c0-0.8-0.7-1.5-1.5-1.5h-0.9
		c-0.1,0-0.2-0.1-0.3-0.2c-0.1-0.3-0.2-0.5-0.3-0.8c-0.1-0.1,0-0.3,0-0.3l0.6-0.6c0.6-0.6,0.6-1.6,0-2.2l-1-1
		c-0.3-0.3-0.7-0.5-1.1-0.5c-0.4,0-0.8,0.2-1.1,0.5l-0.6,0.6c0,0-0.1,0.1-0.2,0.1c-0.1,0-0.1,0-0.2,0c-0.2-0.1-0.5-0.2-0.8-0.3
		c-0.1,0-0.2-0.2-0.2-0.3v-0.9c0-0.8-0.7-1.5-1.5-1.5h-1.5c-0.8,0-1.5,0.7-1.5,1.5v0.9c0,0.1-0.1,0.2-0.2,0.3
		c-0.3,0.1-0.5,0.2-0.8,0.3c0,0-0.1,0-0.1,0c-0.1,0-0.2,0-0.2-0.1l-0.6-0.6c-0.3-0.3-0.7-0.5-1.1-0.5c-0.4,0-0.8,0.2-1.1,0.5l-1,1
		c-0.6,0.6-0.6,1.6,0,2.2l0.6,0.6c0,0,0.1,0.2,0,0.3c-0.1,0.2-0.2,0.5-0.3,0.8c0,0.1-0.2,0.2-0.3,0.2h-0.9c-0.8,0-1.5,0.7-1.5,1.5
		v1.5c0,0.8,0.7,1.5,1.5,1.5h0.9c0.1,0,0.2,0.1,0.3,0.2c0.1,0.3,0.2,0.5,0.3,0.8c0.1,0.1,0,0.3,0,0.3l-0.6,0.6
		c-0.3,0.3-0.5,0.7-0.5,1.1c0,0.4,0.2,0.8,0.5,1.1l1,1c0.3,0.3,0.7,0.5,1.1,0.5c0.4,0,0.8-0.2,1.1-0.5l0.6-0.6c0,0,0.1-0.1,0.2-0.1
		c0.1,0,0.1,0,0.2,0c0.2,0.1,0.5,0.2,0.8,0.3c0.1,0,0.2,0.2,0.2,0.3v0.9c0,0.8,0.7,1.5,1.5,1.5h1.5c0.8,0,1.5-0.7,1.5-1.5v-0.9
		c0-0.1,0.1-0.2,0.2-0.3c0.3-0.1,0.5-0.2,0.8-0.3c0,0,0.1,0,0.2,0c0.1,0,0.2,0,0.2,0.1l0.6,0.6c0.3,0.3,0.7,0.5,1.1,0.5
		c0.4,0,0.8-0.2,1.1-0.5l1-1c0.6-0.6,0.6-1.6,0-2.2l-0.6-0.6c0,0-0.1-0.2,0-0.3C177.5,84.9,177.6,84.7,177.6,84.4z M173.5,81.9
		c0,1.7-1.3,3-3,3c-1.7,0-3-1.3-3-3c0-1.7,1.3-3,3-3C172.2,78.9,173.5,80.3,173.5,81.9z"/>
	<path id="Path" fill="#F29600" d="M157.6,89.4c0,14.6-11.8,26.5-26.3,26.5H50c-14.5,0-26.3-11.9-26.3-26.5
		c0-13.2,9.6-24.2,22.2-26.2c-0.2-0.9-0.2-1.9-0.2-2.9c0-9.3,7.5-16.8,16.7-16.8c4.1,0,7.9,1.5,10.8,4c5.2-11.7,11.8-22.5,30.4-22.5
		c22.6,0,33.3,17.5,33.3,36c0,0.8,0,1.5-0.1,2.3C148.6,65.9,157.6,76.6,157.6,89.4z"/>
	<g>
		<path fill="#F4BC1B" d="M148.5,69.3L102,115.9h29.4c14.5,0,26.3-11.9,26.3-26.5C157.6,81.4,154.1,74.2,148.5,69.3z"/>
	</g>
	<g>
		<path fill="#F7F7F7" d="M37,82.7c-0.2-0.4,0.1-0.8,0.5-0.8h4.1c0.2,0,0.5,0.2,0.5,0.3l5,10.6h0.2l5-10.6c0.1-0.2,0.3-0.3,0.5-0.3
			h4.1c0.5,0,0.7,0.4,0.5,0.8l-9.6,20.2c-0.1,0.2-0.3,0.3-0.5,0.3H47c-0.2,0-0.4-0.2-0.5-0.3L37,82.7z"/>
		<path fill="#F7F7F7" d="M82.4,82.5c0-0.3,0.2-0.6,0.6-0.6h12.6c0.3,0,0.6,0.3,0.6,0.6v3.3c0,0.3-0.2,0.6-0.6,0.6h-8.4v4.4h7
			c0.3,0,0.6,0.3,0.6,0.6v3.3c0,0.3-0.3,0.6-0.6,0.6h-7v7.4c0,0.3-0.3,0.6-0.6,0.6H83c-0.3,0-0.6-0.3-0.6-0.6V82.5z"/>
		<path fill="#F7F7F7" d="M99.2,82.5c0-0.3,0.3-0.6,0.6-0.6h3.7c0.3,0,0.6,0.3,0.6,0.6v20.2c0,0.3-0.3,0.6-0.6,0.6h-3.7
			c-0.3,0-0.6-0.3-0.6-0.6V82.5z"/>
		<path fill="#F7F7F7" d="M107.3,82.7c-0.2-0.4,0.1-0.8,0.5-0.8h4.1c0.2,0,0.5,0.2,0.5,0.3l5,10.6h0.2l5-10.6
			c0.1-0.2,0.3-0.3,0.5-0.3h4.1c0.5,0,0.7,0.4,0.5,0.8l-9.6,20.2c-0.1,0.2-0.3,0.3-0.5,0.3h-0.3c-0.2,0-0.4-0.2-0.5-0.3L107.3,82.7z
			"/>
		<path fill="#F7F7F7" d="M130.6,82.5c0-0.3,0.2-0.6,0.6-0.6h12.6c0.3,0,0.6,0.3,0.6,0.6v3.3c0,0.3-0.2,0.6-0.6,0.6h-8.4v3.8h7
			c0.3,0,0.6,0.3,0.6,0.6v3.3c0,0.3-0.3,0.6-0.6,0.6h-7v4.1h8.4c0.3,0,0.6,0.3,0.6,0.6v3.3c0,0.3-0.2,0.6-0.6,0.6h-12.6
			c-0.3,0-0.6-0.3-0.6-0.6V82.5z"/>
		<path fill="#F7F7F7" d="M68.6,96.8l2.5,5.8c0.1,0.4-0.2,0.7-0.6,0.7h-2.7h-0.5h-0.4c-0.3,0-0.5-0.2-0.6-0.5l-3.8-10.3l0,0h-0.1
			l-4,10.3c0,0.2-0.3,0.5-0.6,0.5h-3.6c-0.4,0-0.6-0.3-0.6-0.7l7.9-20.2c0-0.3,0.3-0.5,0.5-0.5h0.5c0.2,0,0.4,0.1,0.5,0.3L68.6,96.8
			z"/>
		<path fill="#F7F7F7" d="M67.7,89.4l2.6-7c0-0.3,0.3-0.5,0.5-0.5h0.5c0.2,0,0.4,0.1,0.5,0.3l5.5,14.6l2.5,5.8
			c0.1,0.4-0.2,0.7-0.6,0.7h-2.7H76h-0.4c-0.3,0-0.5-0.2-0.6-0.5l-3.8-10.3l0,0h-0.1l-1.2,3L67.7,89.4z"/>
	</g>
	<path fill="#003A59" d="M162.2,50.4h-1.8c-0.5,0-1.1-0.4-1.2-1c-0.2-0.5-0.4-1-0.6-1.4c-0.2-0.5-0.2-1.2,0.2-1.6l1.3-1.3
		c0.9-0.9,0.9-2.4,0-3.3l-2.1-2.1c-0.4-0.4-1-0.7-1.6-0.7c-0.6,0-1.2,0.2-1.6,0.7l-1.3,1.3c-0.2,0.2-0.5,0.3-0.9,0.3
		c-0.2,0-0.5,0-0.6-0.1c-0.5-0.2-1-0.4-1.4-0.6c-0.5-0.2-1-0.8-1-1.2v-1.8c0-1.3-1-2.3-2.3-2.3h-2.9c-1.3,0-2.3,1-2.3,2.3v1.8
		c0,0.5-0.4,1.1-1,1.2c-0.5,0.2-1,0.4-1.4,0.6c-0.2,0.1-0.4,0.1-0.6,0.1c-0.4,0-0.7-0.1-0.9-0.3l-1.3-1.3c-0.4-0.4-1-0.7-1.6-0.7
		c-0.6,0-1.2,0.2-1.6,0.7l-2.1,2.1c-0.4,0.4-0.7,1-0.7,1.6c0,0.6,0.2,1.2,0.7,1.6l1.3,1.3c0.3,0.3,0.4,1.1,0.2,1.6
		c-0.2,0.5-0.4,0.9-0.6,1.4c-0.2,0.5-0.8,1-1.2,1h-1.8c-1.3,0-2.3,1-2.3,2.3v2.9c0,1.3,1,2.3,2.3,2.3h1.8c0.5,0,1.1,0.4,1.2,1
		c0.2,0.5,0.4,1,0.6,1.4c0.2,0.5,0.2,1.2-0.2,1.6l-1.3,1.3c-0.9,0.9-0.9,2.4,0,3.3l2.1,2.1c0.4,0.4,1,0.7,1.6,0.7
		c0.6,0,1.2-0.2,1.6-0.7l1.3-1.3c0.2-0.2,0.6-0.3,0.9-0.3c0.2,0,0.4,0,0.6,0.1c0.5,0.2,0.9,0.4,1.4,0.6c0.5,0.2,1,0.8,1,1.2v1.8
		c0,1.3,1,2.3,2.3,2.3h2.9c1.3,0,2.3-1,2.3-2.3v-1.8c0-0.5,0.4-1.1,1-1.2c0.5-0.2,1-0.4,1.4-0.6c0.2-0.1,0.4-0.1,0.6-0.1
		c0.4,0,0.7,0.1,0.9,0.3l1.3,1.3c0.4,0.4,1,0.7,1.6,0.7c0.6,0,1.2-0.2,1.6-0.7l2.1-2.1c0.9-0.9,0.9-2.4,0-3.3l-1.3-1.3
		c-0.3-0.3-0.4-1.1-0.2-1.6c0.2-0.5,0.4-0.9,0.6-1.4c0.2-0.5,0.8-1,1.2-1h1.8c1.3,0,2.3-1,2.3-2.3v-3
		C164.5,51.4,163.5,50.4,162.2,50.4z M152.5,54.2c0,3.7-3,6.8-6.8,6.8c-3.7,0-6.8-3-6.8-6.8c0-3.7,3-6.8,6.8-6.8
		C149.4,47.4,152.5,50.5,152.5,54.2z"/>
</g>
</svg>
