<?xml version="1.0" encoding="utf-8"?>
<!-- Generator: Adobe Illustrator 17.0.0, SVG Export Plug-In . SVG Version: 6.00 Build 0)  -->
<!DOCTYPE svg PUBLIC "-//W3C//DTD SVG 1.1//EN" "http://www.w3.org/Graphics/SVG/1.1/DTD/svg11.dtd">
<svg version="1.1" id="Capa_1" xmlns="http://www.w3.org/2000/svg" xmlns:xlink="http://www.w3.org/1999/xlink" x="0px" y="0px"
	 width="785.6px" height="363px" viewBox="-367.6 281.7 785.6 363" enable-background="new -367.6 281.7 785.6 363"
	 xml:space="preserve">
<g>
	<g>
		<g>
			<polygon fill="#DC5519" points="339.7,315.1 351.7,281.7 362.3,315.1 372,298.7 373,316.4 400.1,306.4 386.7,333.4 418,339 
				390.7,352.4 404.3,377.5 379.7,369.1 376.8,386.5 362.7,370.4 352.8,409.7 342,371.7 316,396.1 324.2,363.9 302.6,369.9 
				309.3,352.7 282.7,343.9 313.7,335.9 293.9,309.2 325.3,320.2 327.3,304.1 			"/>
		</g>
	</g>
	<g>
		<path fill="#FFFFFF" d="M323.8,330.3l5.2,0.1l-0.2,13.9c0,2.2,0,3.6,0.1,4.3c0.2,1.1,0.7,1.9,1.5,2.6s2,1,3.4,1
			c1.5,0,2.6-0.3,3.3-0.8c0.8-0.6,1.2-1.3,1.4-2.2c0.2-0.9,0.3-2.3,0.3-4.4l0.3-14.2l5.2,0.1l-0.2,13.5c-0.1,3.1-0.2,5.3-0.5,6.5
			c-0.3,1.3-0.8,2.3-1.6,3.2c-0.8,0.9-1.8,1.5-3.1,2c-1.3,0.5-2.9,0.7-5,0.7c-2.5,0-4.3-0.4-5.6-0.9c-1.3-0.6-2.2-1.3-3-2.3
			s-1.2-1.9-1.4-2.9c-0.3-1.5-0.4-3.7-0.4-6.5L323.8,330.3z"/>
		<path fill="#FFFFFF" d="M349.3,356.5l0.5-25.7l8.3,0.1c3.2,0.1,5.2,0.2,6.2,0.5c1.5,0.4,2.7,1.3,3.7,2.6c1,1.3,1.4,3,1.4,5
			c0,1.6-0.3,2.9-0.9,4s-1.3,1.9-2.2,2.5s-1.8,1-2.7,1.2c-1.2,0.2-3,0.3-5.4,0.3l-3.4-0.1l-0.2,9.7L349.3,356.5z M354.9,335.2
			l-0.1,7.3l2.8,0.1c2,0,3.4-0.1,4.1-0.3c0.7-0.3,1.2-0.7,1.6-1.2s0.6-1.2,0.6-2c0-0.9-0.2-1.7-0.8-2.3c-0.5-0.6-1.2-1-2.1-1.2
			c-0.6-0.1-1.9-0.2-3.7-0.2L354.9,335.2z"/>
		<path fill="#FFFFFF" d="M374.1,356.9l0.1-4.9l4.9,0.1L379,357L374.1,356.9z M375.3,350.3l-1-13.1l0.1-6l5.3,0.1l-0.1,6l-1.5,13
			H375.3z"/>
	</g>
	<g>
		<circle fill="#003A59" cx="18" cy="431.2" r="60"/>
	</g>
	<g>
		<path fill="#FFFFFF" d="M-24.9,419.8h2v4.5h5.2v-4.5h2v11.4h-2V426h-5.2v5.2h-2C-24.9,431.2-24.9,419.8-24.9,419.8z"/>
		<path fill="#FFFFFF" d="M-13.5,419.8h1.8v1.7h-1.8V419.8z M-13.5,423h1.8v8.3h-1.8V423z"/>
		<path fill="#FFFFFF" d="M-2.1,430.8c0,1.2-0.3,2.2-1,2.8c-0.7,0.6-1.7,0.9-3,0.9c-0.4,0-0.8,0-1.3-0.1c-0.4-0.1-0.8-0.2-1.2-0.4
			c-0.3-0.2-0.6-0.5-0.9-0.8c-0.2-0.3-0.4-0.7-0.4-1.2H-8c0.1,0.3,0.1,0.5,0.3,0.6s0.3,0.3,0.5,0.4s0.4,0.1,0.6,0.2s0.4,0,0.7,0
			c0.7,0,1.3-0.2,1.6-0.5s0.5-0.9,0.5-1.6v-1.3l0,0c-0.3,0.5-0.6,0.8-1,1.1c-0.4,0.3-0.9,0.4-1.4,0.4c-0.7,0-1.2-0.1-1.7-0.3
			s-0.8-0.5-1.2-0.9c-0.3-0.4-0.5-0.9-0.7-1.4s-0.2-1.1-0.2-1.7s0.1-1.1,0.3-1.6s0.4-0.9,0.7-1.3s0.7-0.7,1.2-0.9
			c0.5-0.2,1-0.3,1.6-0.3c0.5,0,1,0.1,1.4,0.3c0.4,0.2,0.8,0.6,1,1l0,0V423H-2v7.8H-2.1z M-6.1,429.8c0.4,0,0.7-0.1,1-0.2
			c0.3-0.2,0.5-0.4,0.7-0.7c0.2-0.3,0.3-0.6,0.4-0.9s0.1-0.7,0.1-1c0-0.4,0-0.7-0.1-1s-0.2-0.6-0.4-0.9c-0.2-0.3-0.4-0.5-0.7-0.6
			c-0.3-0.1-0.6-0.2-1-0.2s-0.7,0.1-1,0.3c-0.3,0.2-0.5,0.4-0.7,0.7c-0.2,0.3-0.3,0.6-0.4,0.9s-0.1,0.7-0.1,1s0,0.7,0.1,1
			s0.2,0.6,0.4,0.9c0.2,0.3,0.4,0.5,0.7,0.6S-6.5,429.8-6.1,429.8z"/>
		<path fill="#FFFFFF" d="M-0.2,419.8h1.8v4.2l0,0c0.2-0.4,0.6-0.7,1-0.9c0.4-0.2,0.9-0.4,1.5-0.4c0.9,0,1.6,0.2,2.1,0.7
			s0.8,1.2,0.8,2.1v5.7H5.2V426c0-0.7-0.2-1.1-0.4-1.4c-0.3-0.3-0.7-0.4-1.2-0.4c-0.3,0-0.6,0.1-0.8,0.2c-0.2,0.1-0.5,0.3-0.6,0.5
			c-0.2,0.2-0.3,0.4-0.4,0.7c-0.1,0.3-0.1,0.5-0.1,0.8v4.9h-1.8v-11.5H-0.2z"/>
		<path fill="#FFFFFF" d="M23.8,431.2l-1,1.1l-1.7-1.5c-0.4,0.2-0.9,0.4-1.3,0.5c-0.5,0.1-0.9,0.2-1.4,0.2c-0.9,0-1.6-0.2-2.3-0.5
			c-0.7-0.3-1.3-0.7-1.7-1.3s-0.8-1.2-1.1-1.9s-0.4-1.5-0.4-2.3s0.1-1.6,0.4-2.3s0.6-1.4,1.1-1.9s1-1,1.7-1.3
			c0.7-0.3,1.4-0.5,2.3-0.5s1.6,0.2,2.3,0.5c0.7,0.3,1.3,0.8,1.7,1.3c0.5,0.5,0.8,1.2,1.1,1.9s0.4,1.5,0.4,2.3c0,0.4,0,0.8-0.1,1.2
			c-0.1,0.4-0.2,0.8-0.3,1.2s-0.3,0.7-0.5,1.1s-0.4,0.7-0.7,0.9L23.8,431.2z M18.6,428.6l1-1.1l1.4,1.2c0.4-0.4,0.6-0.9,0.8-1.5
			c0.1-0.6,0.2-1.1,0.2-1.7c0-0.5-0.1-1.1-0.2-1.6s-0.3-1-0.6-1.4c-0.3-0.4-0.6-0.7-1.1-1c-0.4-0.2-1-0.4-1.6-0.4s-1.1,0.1-1.6,0.4
			c-0.4,0.2-0.8,0.6-1.1,1c-0.3,0.4-0.5,0.9-0.6,1.4S15,425,15,425.5s0.1,1.1,0.2,1.6c0.1,0.5,0.3,1,0.6,1.4c0.3,0.4,0.6,0.7,1.1,1
			c0.4,0.2,1,0.4,1.6,0.4c0.2,0,0.4,0,0.6-0.1c0.2,0,0.4-0.1,0.6-0.2L18.6,428.6z"/>
		<path fill="#FFFFFF" d="M32.8,431.2H31V430l0,0c-0.2,0.4-0.6,0.8-1,1c-0.4,0.3-0.9,0.4-1.4,0.4c-1.1,0-1.9-0.3-2.4-0.8
			s-0.7-1.4-0.7-2.4V423h1.8v5.1c0,0.7,0.1,1.2,0.4,1.5s0.7,0.4,1.2,0.4c0.4,0,0.7-0.1,1-0.2s0.5-0.3,0.6-0.5
			c0.2-0.2,0.3-0.4,0.3-0.7s0.1-0.6,0.1-0.9V423h1.8v8.2H32.8z"/>
		<path fill="#FFFFFF" d="M41.7,429.4c0,0.2,0,0.4,0.1,0.5s0.2,0.1,0.3,0.1s0.1,0,0.2,0c0.1,0,0.2,0,0.3,0v1.3c-0.1,0-0.1,0-0.2,0.1
			c-0.1,0-0.2,0.1-0.3,0.1s-0.2,0-0.3,0s-0.2,0-0.3,0c-0.4,0-0.7-0.1-0.9-0.2s-0.4-0.4-0.5-0.8c-0.4,0.4-0.8,0.6-1.3,0.8
			c-0.5,0.2-1,0.2-1.5,0.2c-0.4,0-0.7-0.1-1.1-0.2c-0.3-0.1-0.6-0.3-0.9-0.4c-0.3-0.2-0.5-0.4-0.6-0.8c-0.2-0.3-0.2-0.7-0.2-1.1
			c0-0.5,0.1-0.9,0.3-1.2c0.2-0.3,0.4-0.6,0.7-0.8c0.3-0.2,0.6-0.3,1-0.4s0.8-0.1,1.1-0.2s0.6-0.1,0.9-0.1c0.3,0,0.6-0.1,0.8-0.1
			c0.2-0.1,0.4-0.2,0.5-0.3c0.1-0.1,0.2-0.3,0.2-0.6c0-0.2-0.1-0.4-0.2-0.6c-0.1-0.1-0.3-0.3-0.4-0.3c-0.2-0.1-0.3-0.1-0.6-0.2
			c-0.2,0-0.4,0-0.6,0c-0.5,0-0.9,0.1-1.3,0.3c-0.3,0.2-0.5,0.5-0.6,1h-1.8c0-0.5,0.2-1,0.4-1.3c0.2-0.4,0.5-0.6,0.9-0.8
			c0.3-0.2,0.7-0.4,1.2-0.4c0.4-0.1,0.9-0.1,1.3-0.1c0.4,0,0.8,0,1.2,0.1s0.7,0.2,1.1,0.4c0.3,0.2,0.6,0.4,0.8,0.7s0.3,0.7,0.3,1.1
			C41.7,425.2,41.7,429.4,41.7,429.4z M39.8,427.1c-0.3,0.2-0.6,0.3-1,0.3s-0.8,0.1-1.2,0.2c-0.2,0-0.4,0.1-0.6,0.1
			c-0.2,0.1-0.3,0.1-0.5,0.2c-0.1,0.1-0.2,0.2-0.3,0.4c-0.1,0.2-0.1,0.4-0.1,0.6s0.1,0.4,0.2,0.5c0.1,0.1,0.3,0.2,0.4,0.3
			c0.2,0.1,0.3,0.1,0.5,0.2c0.2,0,0.4,0,0.5,0c0.2,0,0.4,0,0.7-0.1s0.5-0.1,0.7-0.3s0.4-0.3,0.5-0.5s0.2-0.4,0.2-0.7
			C39.8,428.3,39.8,427.1,39.8,427.1z"/>
		<path fill="#FFFFFF" d="M43.7,419.8h1.8v11.4h-1.8V419.8z"/>
		<path fill="#FFFFFF" d="M47.5,419.8h1.8v1.7h-1.8V419.8z M47.5,423h1.8v8.3h-1.8V423z"/>
		<path fill="#FFFFFF" d="M50.5,423h1.4v-2.5h1.8v2.5h1.6v1.4h-1.6v4.4c0,0.2,0,0.4,0,0.5s0.1,0.3,0.1,0.4c0.1,0.1,0.1,0.2,0.3,0.2
			c0.1,0,0.3,0.1,0.5,0.1c0.1,0,0.3,0,0.4,0c0.1,0,0.3,0,0.4-0.1v1.4c-0.2,0-0.4,0-0.6,0.1c-0.2,0-0.4,0-0.6,0c-0.5,0-0.9,0-1.2-0.1
			s-0.5-0.2-0.7-0.4c-0.2-0.2-0.3-0.4-0.3-0.7s-0.1-0.6-0.1-0.9v-4.9h-1.4C50.5,424.4,50.5,423,50.5,423z"/>
		<path fill="#FFFFFF" d="M55.8,423h2l2.2,6.2l0,0l2-6.2h1.9l-3.2,8.7c-0.1,0.4-0.3,0.7-0.4,1.1c-0.1,0.3-0.3,0.6-0.5,0.9
			s-0.5,0.5-0.8,0.6c-0.3,0.2-0.7,0.2-1.2,0.2c-0.4,0-0.8,0-1.3-0.1v-1.5c0.1,0,0.3,0,0.4,0.1s0.3,0,0.4,0c0.2,0,0.4,0,0.5-0.1
			s0.3-0.1,0.3-0.2c0.1-0.1,0.2-0.2,0.2-0.4c0.1-0.1,0.1-0.3,0.2-0.5l0.2-0.6L55.8,423z"/>
		<path fill="#FFFFFF" d="M-1.3,438.8h2v6.7c0,0.4,0,0.8,0.1,1.2c0,0.4,0.1,0.7,0.3,1.1c0.2,0.3,0.4,0.6,0.8,0.8
			c0.4,0.2,0.9,0.3,1.5,0.3s1.2-0.1,1.5-0.3c0.4-0.2,0.6-0.5,0.8-0.8c0.2-0.3,0.3-0.7,0.3-1.1s0.1-0.8,0.1-1.2v-6.7h2v7.3
			c0,0.7-0.1,1.4-0.3,1.9s-0.5,1-1,1.4s-0.9,0.6-1.5,0.8c-0.6,0.2-1.2,0.3-1.9,0.3s-1.3-0.1-1.9-0.3s-1.1-0.5-1.5-0.8
			s-0.7-0.8-1-1.4c-0.2-0.5-0.3-1.2-0.3-1.9V438.8z"/>
		<path fill="#FFFFFF" d="M11.5,447.6c0.1,0.5,0.3,0.9,0.6,1.1c0.4,0.2,0.8,0.3,1.3,0.3c0.2,0,0.4,0,0.6,0s0.4-0.1,0.6-0.2
			c0.2-0.1,0.3-0.2,0.5-0.3c0.1-0.1,0.2-0.3,0.2-0.6s-0.1-0.4-0.3-0.6s-0.4-0.3-0.6-0.4c-0.3-0.1-0.5-0.2-0.9-0.2
			c-0.3-0.1-0.6-0.1-1-0.2c-0.3-0.1-0.7-0.2-1-0.3s-0.6-0.2-0.8-0.4c-0.3-0.2-0.5-0.4-0.6-0.7c-0.1-0.3-0.2-0.6-0.2-1
			s0.1-0.8,0.3-1.1c0.2-0.3,0.5-0.5,0.8-0.7s0.7-0.3,1.1-0.4c0.4-0.1,0.8-0.1,1.2-0.1s0.8,0,1.2,0.1s0.7,0.2,1.1,0.4
			c0.3,0.2,0.6,0.5,0.8,0.8s0.3,0.7,0.4,1.2h-1.9c-0.1-0.4-0.3-0.7-0.6-0.9c-0.3-0.1-0.7-0.2-1.1-0.2c-0.1,0-0.3,0-0.5,0
			s-0.3,0.1-0.5,0.1c-0.2,0.1-0.3,0.1-0.4,0.3c-0.1,0.1-0.2,0.3-0.2,0.4c0,0.2,0.1,0.4,0.2,0.5c0.2,0.1,0.4,0.3,0.6,0.3
			c0.3,0.1,0.5,0.2,0.9,0.2c0.3,0.1,0.7,0.1,1,0.2s0.7,0.2,1,0.3c0.3,0.1,0.6,0.3,0.9,0.4c0.3,0.2,0.5,0.4,0.6,0.7
			c0.2,0.3,0.2,0.6,0.2,1c0,0.5-0.1,0.9-0.3,1.2c-0.2,0.3-0.5,0.6-0.9,0.8c-0.4,0.2-0.8,0.4-1.2,0.5s-0.9,0.1-1.3,0.1
			c-0.5,0-1-0.1-1.4-0.2s-0.8-0.3-1.2-0.5c-0.3-0.2-0.6-0.5-0.8-0.9s-0.3-0.8-0.3-1.3h1.9V447.6z"/>
		<path fill="#FFFFFF" d="M19.9,446.6c0,0.3,0,0.6,0.1,0.9s0.2,0.6,0.4,0.8c0.2,0.2,0.4,0.4,0.7,0.5c0.3,0.1,0.6,0.2,1,0.2
			c0.5,0,1-0.1,1.3-0.3c0.3-0.2,0.6-0.6,0.7-1h1.7c-0.1,0.4-0.3,0.8-0.5,1.2c-0.2,0.4-0.5,0.6-0.8,0.9s-0.7,0.4-1.1,0.5
			s-0.8,0.2-1.3,0.2c-0.7,0-1.2-0.1-1.7-0.3c-0.5-0.2-0.9-0.5-1.3-0.9s-0.6-0.8-0.8-1.4c-0.2-0.5-0.3-1.1-0.3-1.8
			c0-0.6,0.1-1.1,0.3-1.7c0.2-0.5,0.5-1,0.8-1.4s0.8-0.7,1.3-1c0.5-0.2,1-0.4,1.7-0.4s1.2,0.1,1.8,0.4c0.5,0.3,0.9,0.6,1.3,1.1
			c0.3,0.4,0.6,1,0.7,1.5c0.2,0.6,0.2,1.2,0.1,1.8h-6.1V446.6z M24.1,445.4c0-0.3-0.1-0.6-0.2-0.8c-0.1-0.3-0.2-0.5-0.4-0.7
			c-0.2-0.2-0.4-0.4-0.6-0.5c-0.3-0.1-0.5-0.2-0.8-0.2s-0.6,0.1-0.9,0.2s-0.5,0.3-0.7,0.5s-0.3,0.4-0.4,0.7
			c-0.1,0.3-0.2,0.6-0.2,0.9h4.2V445.4z"/>
		<path fill="#FFFFFF" d="M27.3,442H29v1.6l0,0c0.1-0.2,0.2-0.4,0.3-0.7c0.2-0.2,0.3-0.4,0.6-0.6c0.2-0.2,0.5-0.3,0.7-0.4
			c0.3-0.1,0.5-0.2,0.8-0.2c0.2,0,0.4,0,0.4,0c0.1,0,0.2,0,0.2,0v1.8c-0.1,0-0.3,0-0.4-0.1c-0.1,0-0.3,0-0.4,0
			c-0.3,0-0.6,0.1-0.9,0.2s-0.5,0.3-0.7,0.5s-0.4,0.5-0.5,0.9s-0.2,0.8-0.2,1.2v3.9h-1.8V442H27.3z"/>
		<path fill="#FFFFFF" d="M34.3,447.6c0.1,0.5,0.3,0.9,0.6,1.1c0.4,0.2,0.8,0.3,1.3,0.3c0.2,0,0.4,0,0.6,0s0.4-0.1,0.6-0.2
			c0.2-0.1,0.3-0.2,0.5-0.3c0.1-0.1,0.2-0.3,0.2-0.6s-0.1-0.4-0.3-0.6s-0.4-0.3-0.6-0.4c-0.3-0.1-0.5-0.2-0.9-0.2
			c-0.3-0.1-0.6-0.1-1-0.2c-0.3-0.1-0.7-0.2-1-0.3s-0.6-0.2-0.8-0.4c-0.3-0.2-0.5-0.4-0.6-0.7c-0.1-0.3-0.2-0.6-0.2-1
			s0.1-0.8,0.3-1.1c0.2-0.3,0.5-0.5,0.8-0.7s0.7-0.3,1.1-0.4c0.4-0.1,0.8-0.1,1.2-0.1s0.8,0,1.2,0.1s0.7,0.2,1.1,0.4
			c0.3,0.2,0.6,0.5,0.8,0.8s0.3,0.7,0.4,1.2h-1.9c-0.1-0.4-0.3-0.7-0.6-0.9c-0.3-0.1-0.7-0.2-1.1-0.2c-0.1,0-0.3,0-0.5,0
			s-0.3,0.1-0.5,0.1c-0.2,0.1-0.3,0.1-0.4,0.3c-0.1,0.1-0.2,0.3-0.2,0.4c0,0.2,0.1,0.4,0.2,0.5c0.2,0.1,0.4,0.3,0.6,0.3
			c0.3,0.1,0.5,0.2,0.9,0.2c0.3,0.1,0.7,0.1,1,0.2s0.7,0.2,1,0.3c0.3,0.1,0.6,0.3,0.9,0.4c0.3,0.2,0.5,0.4,0.6,0.7
			c0.2,0.3,0.2,0.6,0.2,1c0,0.5-0.1,0.9-0.3,1.2c-0.2,0.3-0.5,0.6-0.9,0.8c-0.4,0.2-0.8,0.4-1.2,0.5s-0.9,0.1-1.3,0.1
			c-0.5,0-1-0.1-1.4-0.2s-0.8-0.3-1.2-0.5c-0.3-0.2-0.6-0.5-0.8-0.9s-0.3-0.8-0.3-1.3h1.9V447.6z"/>
	</g>
	<g>
		<circle fill="#003A59" cx="-307.6" cy="501.4" r="60"/>
	</g>
	<g>
		<path fill="#FFFFFF" d="M-340.6,493.6c-0.1-0.3-0.2-0.6-0.4-0.9c-0.1-0.3-0.3-0.5-0.6-0.7c-0.2-0.2-0.5-0.4-0.8-0.5
			s-0.7-0.2-1.1-0.2c-0.6,0-1.1,0.1-1.6,0.4c-0.4,0.2-0.8,0.6-1.1,1c-0.3,0.4-0.5,0.9-0.6,1.4s-0.2,1.1-0.2,1.6s0.1,1.1,0.2,1.6
			s0.3,1,0.6,1.4c0.3,0.4,0.6,0.7,1.1,1c0.4,0.2,1,0.4,1.6,0.4c0.4,0,0.8-0.1,1.2-0.2c0.3-0.2,0.6-0.4,0.9-0.6
			c0.2-0.3,0.4-0.6,0.6-1c0.1-0.4,0.2-0.8,0.3-1.2h2c0,0.7-0.2,1.3-0.4,1.9c-0.3,0.6-0.6,1.1-1,1.5s-0.9,0.7-1.5,1
			c-0.6,0.2-1.2,0.3-1.9,0.3c-0.9,0-1.6-0.2-2.3-0.5c-0.7-0.3-1.3-0.7-1.7-1.3s-0.8-1.2-1.1-1.9s-0.4-1.5-0.4-2.3s0.1-1.6,0.4-2.3
			s0.6-1.4,1.1-1.9s1-1,1.7-1.3s1.4-0.5,2.3-0.5c0.6,0,1.2,0.1,1.8,0.3c0.6,0.2,1.1,0.4,1.5,0.8c0.4,0.3,0.8,0.7,1,1.2
			c0.3,0.5,0.4,1,0.5,1.6h-2.1V493.6z"/>
		<path fill="#FFFFFF" d="M-333.2,501.6c-0.7,0-1.3-0.1-1.8-0.3c-0.5-0.2-1-0.5-1.3-0.9s-0.6-0.8-0.8-1.4s-0.3-1.1-0.3-1.8
			c0-0.6,0.1-1.2,0.3-1.7s0.5-1,0.8-1.4c0.4-0.4,0.8-0.7,1.3-0.9s1.1-0.3,1.8-0.3c0.7,0,1.3,0.1,1.8,0.3c0.5,0.2,1,0.5,1.3,0.9
			c0.4,0.4,0.6,0.8,0.8,1.4s0.3,1.1,0.3,1.7s-0.1,1.2-0.3,1.8s-0.5,1-0.8,1.4s-0.8,0.7-1.3,0.9C-332,501.5-332.6,501.6-333.2,501.6z
			 M-333.2,500.1c0.4,0,0.8-0.1,1.1-0.3c0.3-0.2,0.5-0.4,0.7-0.7s0.3-0.6,0.4-0.9s0.1-0.7,0.1-1.1s0-0.7-0.1-1.1s-0.2-0.7-0.4-0.9
			c-0.2-0.3-0.4-0.5-0.7-0.7c-0.3-0.2-0.7-0.3-1.1-0.3s-0.8,0.1-1.1,0.3c-0.3,0.2-0.5,0.4-0.7,0.7c-0.2,0.3-0.3,0.6-0.4,0.9
			c-0.1,0.4-0.1,0.7-0.1,1.1s0,0.7,0.1,1.1c0.1,0.3,0.2,0.7,0.4,0.9s0.4,0.5,0.7,0.7C-334,500.1-333.6,500.1-333.2,500.1z"/>
		<path fill="#FFFFFF" d="M-327.5,493.1h1.7v1.2l0,0c0.3-0.5,0.6-0.8,1.1-1.1c0.4-0.3,0.9-0.4,1.5-0.4c0.9,0,1.6,0.2,2.1,0.7
			s0.8,1.2,0.8,2.1v5.7h-1.8v-5.2c0-0.7-0.2-1.1-0.4-1.4c-0.3-0.3-0.7-0.4-1.2-0.4c-0.3,0-0.6,0.1-0.8,0.2c-0.2,0.1-0.5,0.3-0.6,0.5
			c-0.2,0.2-0.3,0.4-0.4,0.7c-0.1,0.3-0.1,0.5-0.1,0.8v4.9h-1.8v-8.3H-327.5z"/>
		<path fill="#FFFFFF" d="M-319.2,493.1h2l2.1,6.4l0,0l2-6.4h1.9l-3,8.3h-2L-319.2,493.1z"/>
		<path fill="#FFFFFF" d="M-308.6,497.7c0,0.3,0,0.6,0.1,0.9s0.2,0.6,0.4,0.8c0.2,0.2,0.4,0.4,0.7,0.5c0.3,0.1,0.6,0.2,1,0.2
			c0.5,0,1-0.1,1.3-0.3c0.3-0.2,0.6-0.6,0.7-1h1.7c-0.1,0.4-0.3,0.8-0.5,1.2c-0.2,0.4-0.5,0.6-0.8,0.9s-0.7,0.4-1.1,0.5
			s-0.8,0.2-1.3,0.2c-0.7,0-1.2-0.1-1.7-0.3c-0.5-0.2-0.9-0.5-1.3-0.9s-0.6-0.8-0.8-1.4c-0.2-0.5-0.3-1.1-0.3-1.8
			c0-0.6,0.1-1.1,0.3-1.7c0.2-0.5,0.5-1,0.8-1.4s0.8-0.7,1.3-1c0.5-0.2,1-0.4,1.7-0.4s1.2,0.1,1.8,0.4c0.5,0.3,0.9,0.6,1.3,1.1
			c0.3,0.4,0.6,1,0.7,1.5c0.2,0.6,0.2,1.2,0.1,1.8h-6.1V497.7z M-304.4,496.5c0-0.3-0.1-0.6-0.2-0.8c-0.1-0.3-0.2-0.5-0.4-0.7
			c-0.2-0.2-0.4-0.4-0.6-0.5c-0.3-0.1-0.5-0.2-0.8-0.2s-0.6,0.1-0.9,0.2s-0.5,0.3-0.7,0.5s-0.3,0.4-0.4,0.7
			c-0.1,0.3-0.2,0.6-0.2,0.9h4.2V496.5z"/>
		<path fill="#FFFFFF" d="M-301.1,493.1h1.7v1.6l0,0c0.1-0.2,0.2-0.4,0.3-0.7c0.2-0.2,0.3-0.4,0.6-0.6c0.2-0.2,0.5-0.3,0.7-0.4
			c0.3-0.1,0.5-0.2,0.8-0.2c0.2,0,0.4,0,0.4,0c0.1,0,0.2,0,0.2,0v1.8c-0.1,0-0.3,0-0.4-0.1c-0.1,0-0.3,0-0.4,0
			c-0.3,0-0.6,0.1-0.9,0.2s-0.5,0.3-0.7,0.5s-0.4,0.5-0.5,0.9s-0.2,0.8-0.2,1.2v3.9h-1.8v-8.1H-301.1z"/>
		<path fill="#FFFFFF" d="M-294.1,498.7c0.1,0.5,0.3,0.9,0.6,1.1c0.4,0.2,0.8,0.3,1.3,0.3c0.2,0,0.4,0,0.6,0s0.4-0.1,0.6-0.2
			s0.3-0.2,0.5-0.3c0.1-0.1,0.2-0.3,0.2-0.6s-0.1-0.4-0.3-0.6s-0.4-0.3-0.6-0.4c-0.3-0.1-0.5-0.2-0.9-0.2c-0.3-0.1-0.6-0.1-1-0.2
			c-0.3-0.1-0.7-0.2-1-0.3s-0.6-0.2-0.8-0.4c-0.3-0.2-0.5-0.4-0.6-0.7c-0.1-0.3-0.2-0.6-0.2-1s0.1-0.8,0.3-1.1
			c0.2-0.3,0.5-0.5,0.8-0.7s0.7-0.3,1.1-0.4s0.8-0.1,1.2-0.1c0.4,0,0.8,0,1.2,0.1c0.4,0.1,0.7,0.2,1.1,0.4c0.3,0.2,0.6,0.5,0.8,0.8
			s0.3,0.7,0.4,1.2h-1.9c-0.1-0.4-0.3-0.7-0.6-0.9c-0.3-0.1-0.7-0.2-1.1-0.2c-0.1,0-0.3,0-0.5,0s-0.3,0.1-0.5,0.1
			c-0.2,0.1-0.3,0.1-0.4,0.3c-0.1,0.1-0.2,0.3-0.2,0.4c0,0.2,0.1,0.4,0.2,0.5c0.2,0.1,0.4,0.3,0.6,0.3c0.3,0.1,0.5,0.2,0.9,0.2
			c0.3,0.1,0.7,0.1,1,0.2s0.7,0.2,1,0.3c0.3,0.1,0.6,0.3,0.9,0.4c0.3,0.2,0.5,0.4,0.6,0.7c0.2,0.3,0.2,0.6,0.2,1
			c0,0.5-0.1,0.9-0.3,1.2c-0.2,0.3-0.5,0.6-0.9,0.8c-0.4,0.2-0.8,0.4-1.2,0.5c-0.4,0.1-0.9,0.1-1.3,0.1c-0.5,0-1-0.1-1.4-0.2
			s-0.8-0.3-1.2-0.5c-0.3-0.2-0.6-0.5-0.8-0.9c-0.2-0.4-0.3-0.8-0.3-1.3h1.9V498.7z"/>
		<path fill="#FFFFFF" d="M-287.2,489.9h1.8v1.7h-1.8V489.9z M-287.2,493.1h1.8v8.3h-1.8V493.1z"/>
		<path fill="#FFFFFF" d="M-279.6,501.6c-0.7,0-1.3-0.1-1.8-0.3c-0.5-0.2-1-0.5-1.3-0.9s-0.6-0.8-0.8-1.4s-0.3-1.1-0.3-1.8
			c0-0.6,0.1-1.2,0.3-1.7s0.5-1,0.8-1.4c0.4-0.4,0.8-0.7,1.3-0.9s1.1-0.3,1.8-0.3c0.7,0,1.3,0.1,1.8,0.3c0.5,0.2,1,0.5,1.3,0.9
			c0.4,0.4,0.6,0.8,0.8,1.4s0.3,1.1,0.3,1.7s-0.1,1.2-0.3,1.8s-0.5,1-0.8,1.4s-0.8,0.7-1.3,0.9
			C-278.3,501.5-278.9,501.6-279.6,501.6z M-279.6,500.1c0.4,0,0.8-0.1,1.1-0.3c0.3-0.2,0.5-0.4,0.7-0.7s0.3-0.6,0.4-0.9
			s0.1-0.7,0.1-1.1s0-0.7-0.1-1.1s-0.2-0.7-0.4-0.9c-0.2-0.3-0.4-0.5-0.7-0.7c-0.3-0.2-0.7-0.3-1.1-0.3s-0.8,0.1-1.1,0.3
			c-0.3,0.2-0.5,0.4-0.7,0.7c-0.2,0.3-0.3,0.6-0.4,0.9c-0.1,0.4-0.1,0.7-0.1,1.1s0,0.7,0.1,1.1c0.1,0.3,0.2,0.7,0.4,0.9
			s0.4,0.5,0.7,0.7C-280.3,500.1-280,500.1-279.6,500.1z"/>
		<path fill="#FFFFFF" d="M-273.9,493.1h1.7v1.2l0,0c0.3-0.5,0.6-0.8,1.1-1.1c0.4-0.3,0.9-0.4,1.5-0.4c0.9,0,1.6,0.2,2.1,0.7
			s0.8,1.2,0.8,2.1v5.7h-1.8v-5.2c0-0.7-0.2-1.1-0.4-1.4c-0.3-0.3-0.7-0.4-1.2-0.4c-0.3,0-0.6,0.1-0.8,0.2c-0.2,0.1-0.5,0.3-0.6,0.5
			c-0.2,0.2-0.3,0.4-0.4,0.7c-0.1,0.3-0.1,0.5-0.1,0.8v4.9h-1.8v-8.3H-273.9z"/>
		<path fill="#FFFFFF" d="M-323.6,508.9h5.5c1.3,0,2.2,0.3,2.8,0.8s0.9,1.3,0.9,2.3c0,0.5-0.1,1-0.2,1.4c-0.2,0.4-0.3,0.6-0.6,0.9
			s-0.4,0.4-0.6,0.5s-0.4,0.2-0.5,0.2l0,0c0.2,0,0.4,0.1,0.6,0.2c0.2,0.1,0.4,0.2,0.6,0.4s0.3,0.4,0.4,0.7s0.2,0.7,0.2,1.1
			c0,0.7,0.1,1.3,0.2,1.8s0.3,0.9,0.5,1.2h-2.1c-0.1-0.2-0.2-0.5-0.3-0.8c0-0.3,0-0.6,0-0.9c0-0.5,0-1-0.1-1.4s-0.2-0.7-0.4-0.9
			c-0.2-0.3-0.4-0.4-0.7-0.6c-0.3-0.1-0.7-0.2-1.1-0.2h-2.9v4.7h-2v-11.4H-323.6z M-321.6,514.1h3.3c0.6,0,1.1-0.2,1.5-0.5
			c0.3-0.3,0.5-0.8,0.5-1.4c0-0.4-0.1-0.7-0.2-0.9c-0.1-0.2-0.3-0.4-0.4-0.5c-0.2-0.1-0.4-0.2-0.6-0.3c-0.2,0-0.5-0.1-0.7-0.1h-3.2
			v3.7H-321.6z"/>
		<path fill="#FFFFFF" d="M-305.6,518.5c0,0.2,0,0.4,0.1,0.5s0.2,0.1,0.3,0.1c0.1,0,0.1,0,0.2,0s0.2,0,0.3,0v1.3
			c-0.1,0-0.1,0-0.2,0.1c-0.1,0-0.2,0.1-0.3,0.1c-0.1,0-0.2,0-0.3,0c-0.1,0-0.2,0-0.3,0c-0.4,0-0.7-0.1-0.9-0.2
			c-0.2-0.1-0.4-0.4-0.5-0.8c-0.4,0.4-0.8,0.6-1.3,0.8s-1,0.2-1.5,0.2c-0.4,0-0.7-0.1-1.1-0.2c-0.3-0.1-0.6-0.3-0.9-0.4
			c-0.3-0.2-0.5-0.4-0.6-0.8c-0.2-0.3-0.2-0.7-0.2-1.1c0-0.5,0.1-0.9,0.3-1.2c0.2-0.3,0.4-0.6,0.7-0.8c0.3-0.2,0.6-0.3,1-0.4
			c0.4-0.1,0.8-0.1,1.1-0.2c0.3-0.1,0.6-0.1,0.9-0.1s0.6-0.1,0.8-0.1c0.2-0.1,0.4-0.2,0.5-0.3s0.2-0.3,0.2-0.6
			c0-0.2-0.1-0.4-0.2-0.6c-0.1-0.1-0.3-0.3-0.4-0.3c-0.2-0.1-0.3-0.1-0.6-0.2c-0.2,0-0.4,0-0.6,0c-0.5,0-0.9,0.1-1.3,0.3
			c-0.3,0.2-0.5,0.5-0.6,1h-1.8c0-0.5,0.2-1,0.4-1.3c0.2-0.4,0.5-0.6,0.9-0.8c0.3-0.2,0.7-0.4,1.2-0.4c0.4-0.1,0.9-0.1,1.3-0.1
			s0.8,0,1.2,0.1c0.4,0.1,0.7,0.2,1.1,0.4c0.3,0.2,0.6,0.4,0.8,0.7s0.3,0.7,0.3,1.1V518.5z M-307.5,516.2c-0.3,0.2-0.6,0.3-1,0.3
			s-0.8,0.1-1.2,0.2c-0.2,0-0.4,0.1-0.6,0.1c-0.2,0.1-0.3,0.1-0.5,0.2c-0.1,0.1-0.2,0.2-0.3,0.4c-0.1,0.2-0.1,0.4-0.1,0.6
			c0,0.2,0.1,0.4,0.2,0.5s0.3,0.2,0.4,0.3c0.2,0.1,0.3,0.1,0.5,0.2c0.2,0,0.4,0,0.5,0c0.2,0,0.4,0,0.7-0.1s0.5-0.1,0.7-0.3
			s0.4-0.3,0.5-0.5s0.2-0.4,0.2-0.7L-307.5,516.2L-307.5,516.2z"/>
		<path fill="#FFFFFF" d="M-304.5,512.1h1.4v-2.5h1.8v2.5h1.6v1.4h-1.6v4.4c0,0.2,0,0.4,0,0.5s0.1,0.3,0.1,0.4
			c0.1,0.1,0.1,0.2,0.3,0.2c0.1,0,0.3,0.1,0.5,0.1c0.1,0,0.3,0,0.4,0s0.3,0,0.4-0.1v1.4c-0.2,0-0.4,0-0.6,0.1c-0.2,0-0.4,0-0.6,0
			c-0.5,0-0.9,0-1.2-0.1c-0.3-0.1-0.5-0.2-0.7-0.4s-0.3-0.4-0.3-0.7s-0.1-0.6-0.1-0.9v-4.9h-1.4L-304.5,512.1L-304.5,512.1z"/>
		<path fill="#FFFFFF" d="M-296.9,516.7c0,0.3,0,0.6,0.1,0.9c0.1,0.3,0.2,0.6,0.4,0.8c0.2,0.2,0.4,0.4,0.7,0.5
			c0.3,0.1,0.6,0.2,1,0.2c0.5,0,1-0.1,1.3-0.3s0.6-0.6,0.7-1h1.7c-0.1,0.4-0.3,0.8-0.5,1.2s-0.5,0.6-0.8,0.9s-0.7,0.4-1.1,0.5
			s-0.8,0.2-1.3,0.2c-0.7,0-1.2-0.1-1.7-0.3s-0.9-0.5-1.3-0.9s-0.6-0.8-0.8-1.4c-0.2-0.5-0.3-1.1-0.3-1.8c0-0.6,0.1-1.1,0.3-1.7
			c0.2-0.5,0.5-1,0.8-1.4s0.8-0.7,1.3-1c0.5-0.2,1-0.4,1.7-0.4s1.2,0.1,1.8,0.4c0.5,0.3,0.9,0.6,1.3,1.1c0.3,0.4,0.6,1,0.7,1.5
			c0.2,0.6,0.2,1.2,0.1,1.8h-6.1V516.7z M-292.7,515.5c0-0.3-0.1-0.6-0.2-0.8c-0.1-0.3-0.2-0.5-0.4-0.7c-0.2-0.2-0.4-0.4-0.6-0.5
			c-0.3-0.1-0.5-0.2-0.8-0.2s-0.6,0.1-0.9,0.2c-0.3,0.1-0.5,0.3-0.7,0.5s-0.3,0.4-0.4,0.7s-0.2,0.6-0.2,0.9h4.2V515.5z"/>
	</g>
	<g>
		<circle fill="#003A59" cx="-154.4" cy="433.9" r="60"/>
	</g>
	<g>
		<path fill="#FFFFFF" d="M-188.9,422.5h5.5c1.3,0,2.2,0.3,2.8,0.8s0.9,1.3,0.9,2.3c0,0.5-0.1,1-0.2,1.4c-0.2,0.4-0.3,0.6-0.6,0.9
			s-0.4,0.4-0.6,0.5c-0.2,0.1-0.4,0.2-0.5,0.2l0,0c0.2,0,0.4,0.1,0.6,0.2c0.2,0.1,0.4,0.2,0.6,0.4c0.2,0.2,0.3,0.4,0.4,0.7
			c0.1,0.3,0.2,0.7,0.2,1.1c0,0.7,0.1,1.3,0.2,1.8c0.1,0.5,0.3,0.9,0.5,1.2h-2.1c-0.1-0.2-0.2-0.5-0.3-0.8c0-0.3,0-0.6,0-0.9
			c0-0.5,0-1-0.1-1.4s-0.2-0.7-0.4-0.9c-0.2-0.3-0.4-0.4-0.7-0.6c-0.3-0.1-0.7-0.2-1.1-0.2h-2.9v4.7h-2v-11.4H-188.9z M-186.9,427.7
			h3.3c0.6,0,1.1-0.2,1.5-0.5c0.3-0.3,0.5-0.8,0.5-1.4c0-0.4-0.1-0.7-0.2-0.9c-0.1-0.2-0.3-0.4-0.4-0.5c-0.2-0.1-0.4-0.2-0.6-0.3
			c-0.2,0-0.5-0.1-0.7-0.1h-3.2v3.7H-186.9z"/>
		<path fill="#FFFFFF" d="M-176.5,430.3c0,0.3,0,0.6,0.1,0.9s0.2,0.6,0.4,0.8c0.2,0.2,0.4,0.4,0.7,0.5s0.6,0.2,1,0.2
			c0.5,0,1-0.1,1.3-0.3c0.3-0.2,0.6-0.6,0.7-1h1.7c-0.1,0.4-0.3,0.8-0.5,1.2c-0.2,0.4-0.5,0.6-0.8,0.9s-0.7,0.4-1.1,0.5
			s-0.8,0.2-1.3,0.2c-0.7,0-1.2-0.1-1.7-0.3c-0.5-0.2-0.9-0.5-1.3-0.9s-0.6-0.8-0.8-1.4c-0.2-0.5-0.3-1.1-0.3-1.8
			c0-0.6,0.1-1.1,0.3-1.7c0.2-0.5,0.5-1,0.8-1.4s0.8-0.7,1.3-1c0.5-0.2,1-0.4,1.7-0.4s1.2,0.1,1.8,0.4c0.5,0.3,0.9,0.6,1.3,1.1
			c0.3,0.4,0.6,1,0.7,1.5c0.2,0.6,0.2,1.2,0.1,1.8h-6.1V430.3z M-172.2,429.1c0-0.3-0.1-0.6-0.2-0.8c-0.1-0.3-0.2-0.5-0.4-0.7
			s-0.4-0.4-0.6-0.5c-0.3-0.1-0.5-0.2-0.8-0.2s-0.6,0.1-0.9,0.2c-0.3,0.1-0.5,0.3-0.7,0.5s-0.3,0.4-0.4,0.7
			c-0.1,0.3-0.2,0.6-0.2,0.9h4.2V429.1z"/>
		<path fill="#FFFFFF" d="M-169.8,425.7h1.4v-2.5h1.8v2.5h1.6v1.4h-1.6v4.4c0,0.2,0,0.4,0,0.5s0.1,0.3,0.1,0.4
			c0.1,0.1,0.1,0.2,0.3,0.2c0.1,0,0.3,0.1,0.5,0.1c0.1,0,0.3,0,0.4,0c0.1,0,0.3,0,0.4-0.1v1.4c-0.2,0-0.4,0-0.6,0.1
			c-0.2,0-0.4,0-0.6,0c-0.5,0-0.9,0-1.2-0.1s-0.5-0.2-0.7-0.4s-0.3-0.4-0.3-0.7s-0.1-0.6-0.1-0.9v-5h-1.4L-169.8,425.7L-169.8,425.7
			z"/>
		<path fill="#FFFFFF" d="M-162.2,430.3c0,0.3,0,0.6,0.1,0.9s0.2,0.6,0.4,0.8c0.2,0.2,0.4,0.4,0.7,0.5s0.6,0.2,1,0.2
			c0.5,0,1-0.1,1.3-0.3c0.3-0.2,0.6-0.6,0.7-1h1.7c-0.1,0.4-0.3,0.8-0.5,1.2c-0.2,0.4-0.5,0.6-0.8,0.9s-0.7,0.4-1.1,0.5
			s-0.8,0.2-1.3,0.2c-0.7,0-1.2-0.1-1.7-0.3c-0.5-0.2-0.9-0.5-1.3-0.9s-0.6-0.8-0.8-1.4c-0.2-0.5-0.3-1.1-0.3-1.8
			c0-0.6,0.1-1.1,0.3-1.7c0.2-0.5,0.5-1,0.8-1.4s0.8-0.7,1.3-1c0.5-0.2,1-0.4,1.7-0.4s1.2,0.1,1.8,0.4c0.5,0.3,0.9,0.6,1.3,1.1
			c0.3,0.4,0.6,1,0.7,1.5c0.2,0.6,0.2,1.2,0.1,1.8h-6.1V430.3z M-158,429.1c0-0.3-0.1-0.6-0.2-0.8c-0.1-0.3-0.2-0.5-0.4-0.7
			s-0.4-0.4-0.6-0.5c-0.3-0.1-0.5-0.2-0.8-0.2s-0.6,0.1-0.9,0.2c-0.3,0.1-0.5,0.3-0.7,0.5s-0.3,0.4-0.4,0.7
			c-0.1,0.3-0.2,0.6-0.2,0.9h4.2V429.1z"/>
		<path fill="#FFFFFF" d="M-154.8,425.7h1.7v1.2l0,0c0.3-0.5,0.6-0.8,1.1-1.1c0.4-0.3,0.9-0.4,1.5-0.4c0.9,0,1.6,0.2,2.1,0.7
			s0.8,1.2,0.8,2.1v5.7h-1.8v-5.2c0-0.7-0.2-1.1-0.4-1.4c-0.3-0.3-0.7-0.4-1.2-0.4c-0.3,0-0.6,0.1-0.8,0.2s-0.5,0.3-0.6,0.5
			c-0.2,0.2-0.3,0.4-0.4,0.7c-0.1,0.3-0.1,0.5-0.1,0.8v4.9h-1.8v-8.3H-154.8z"/>
		<path fill="#FFFFFF" d="M-146.4,425.7h1.4v-2.5h1.8v2.5h1.6v1.4h-1.6v4.4c0,0.2,0,0.4,0,0.5s0.1,0.3,0.1,0.4
			c0.1,0.1,0.1,0.2,0.3,0.2c0.1,0,0.3,0.1,0.5,0.1c0.1,0,0.3,0,0.4,0c0.1,0,0.3,0,0.4-0.1v1.4c-0.2,0-0.4,0-0.6,0.1
			c-0.2,0-0.4,0-0.6,0c-0.5,0-0.9,0-1.2-0.1s-0.5-0.2-0.7-0.4s-0.3-0.4-0.3-0.7s-0.1-0.6-0.1-0.9v-5h-1.4L-146.4,425.7L-146.4,425.7
			z"/>
		<path fill="#FFFFFF" d="M-140.2,422.5h1.8v1.7h-1.8V422.5z M-140.2,425.7h1.8v8.3h-1.8V425.7z"/>
		<path fill="#FFFFFF" d="M-132.6,434.2c-0.7,0-1.3-0.1-1.8-0.3c-0.5-0.2-1-0.5-1.3-0.9s-0.6-0.8-0.8-1.4s-0.3-1.1-0.3-1.8
			c0-0.6,0.1-1.2,0.3-1.7s0.5-1,0.8-1.4c0.4-0.4,0.8-0.7,1.3-0.9s1.1-0.3,1.8-0.3s1.3,0.1,1.8,0.3c0.5,0.2,1,0.5,1.3,0.9
			c0.4,0.4,0.6,0.8,0.8,1.4s0.3,1.1,0.3,1.7s-0.1,1.2-0.3,1.8s-0.5,1-0.8,1.4s-0.8,0.7-1.3,0.9
			C-131.4,434.1-131.9,434.2-132.6,434.2z M-132.6,432.7c0.4,0,0.8-0.1,1.1-0.3c0.3-0.2,0.5-0.4,0.7-0.7s0.3-0.6,0.4-0.9
			c0.1-0.3,0.1-0.7,0.1-1.1s0-0.7-0.1-1.1s-0.2-0.7-0.4-0.9c-0.2-0.3-0.4-0.5-0.7-0.7s-0.7-0.3-1.1-0.3s-0.8,0.1-1.1,0.3
			c-0.3,0.2-0.5,0.4-0.7,0.7c-0.2,0.3-0.3,0.6-0.4,0.9c-0.1,0.4-0.1,0.7-0.1,1.1s0,0.7,0.1,1.1c0.1,0.3,0.2,0.7,0.4,0.9
			s0.4,0.5,0.7,0.7C-133.4,432.6-133,432.7-132.6,432.7z"/>
		<path fill="#FFFFFF" d="M-126.9,425.7h1.7v1.2l0,0c0.3-0.5,0.6-0.8,1.1-1.1c0.4-0.3,0.9-0.4,1.5-0.4c0.9,0,1.6,0.2,2.1,0.7
			s0.8,1.2,0.8,2.1v5.7h-1.8v-5.2c0-0.7-0.2-1.1-0.4-1.4c-0.3-0.3-0.7-0.4-1.2-0.4c-0.3,0-0.6,0.1-0.8,0.2c-0.2,0.1-0.5,0.3-0.6,0.5
			c-0.2,0.2-0.3,0.4-0.4,0.7c-0.1,0.3-0.1,0.5-0.1,0.8v4.9h-1.8v-8.3H-126.9z"/>
		<path fill="#FFFFFF" d="M-170.4,441.5h5.5c1.3,0,2.2,0.3,2.8,0.8s0.9,1.3,0.9,2.3c0,0.5-0.1,1-0.2,1.4c-0.2,0.4-0.3,0.6-0.6,0.9
			s-0.4,0.4-0.6,0.5c-0.2,0.1-0.4,0.2-0.5,0.2l0,0c0.2,0,0.4,0.1,0.6,0.2c0.2,0.1,0.4,0.2,0.6,0.4c0.2,0.2,0.3,0.4,0.4,0.7
			c0.1,0.3,0.2,0.7,0.2,1.1c0,0.7,0.1,1.3,0.2,1.8c0.1,0.5,0.3,0.9,0.5,1.2h-2.1c-0.1-0.2-0.2-0.5-0.3-0.8c0-0.3,0-0.6,0-0.9
			c0-0.5,0-1-0.1-1.4s-0.2-0.7-0.4-0.9c-0.2-0.3-0.4-0.4-0.7-0.6c-0.3-0.1-0.7-0.2-1.1-0.2h-2.9v4.7h-2v-11.4H-170.4z M-168.4,446.7
			h3.3c0.6,0,1.1-0.2,1.5-0.5c0.3-0.3,0.5-0.8,0.5-1.4c0-0.4-0.1-0.7-0.2-0.9c-0.1-0.2-0.3-0.4-0.4-0.5c-0.2-0.1-0.4-0.2-0.6-0.3
			c-0.2,0-0.5-0.1-0.7-0.1h-3.2v3.7H-168.4z"/>
		<path fill="#FFFFFF" d="M-152.4,451.1c0,0.2,0,0.4,0.1,0.5s0.2,0.1,0.3,0.1s0.1,0,0.2,0c0.1,0,0.2,0,0.3,0v1.3
			c-0.1,0-0.1,0-0.2,0.1c-0.1,0-0.2,0.1-0.3,0.1s-0.2,0-0.3,0s-0.2,0-0.3,0c-0.4,0-0.7-0.1-0.9-0.2s-0.4-0.4-0.5-0.8
			c-0.4,0.4-0.8,0.6-1.3,0.8c-0.5,0.2-1,0.2-1.5,0.2c-0.4,0-0.7-0.1-1.1-0.2c-0.3-0.1-0.6-0.3-0.9-0.4c-0.3-0.2-0.5-0.4-0.6-0.8
			c-0.2-0.3-0.2-0.7-0.2-1.1c0-0.5,0.1-0.9,0.3-1.2c0.2-0.3,0.4-0.6,0.7-0.8c0.3-0.2,0.6-0.3,1-0.4s0.8-0.1,1.1-0.2s0.6-0.1,0.9-0.1
			c0.3,0,0.6-0.1,0.8-0.1c0.2-0.1,0.4-0.2,0.5-0.3c0.1-0.1,0.2-0.3,0.2-0.6c0-0.2-0.1-0.4-0.2-0.6c-0.1-0.1-0.3-0.3-0.4-0.3
			c-0.2-0.1-0.3-0.1-0.6-0.2c-0.2,0-0.4,0-0.6,0c-0.5,0-0.9,0.1-1.3,0.3c-0.3,0.2-0.5,0.5-0.6,1h-1.8c0-0.5,0.2-1,0.4-1.3
			c0.2-0.4,0.5-0.6,0.9-0.8c0.3-0.2,0.7-0.4,1.2-0.4c0.4-0.1,0.9-0.1,1.3-0.1c0.4,0,0.8,0,1.2,0.1s0.7,0.2,1.1,0.4
			c0.3,0.2,0.6,0.4,0.8,0.7s0.3,0.7,0.3,1.1L-152.4,451.1L-152.4,451.1z M-154.3,448.8c-0.3,0.2-0.6,0.3-1,0.3s-0.8,0.1-1.2,0.2
			c-0.2,0-0.4,0.1-0.6,0.1c-0.2,0.1-0.3,0.1-0.5,0.2c-0.1,0.1-0.2,0.2-0.3,0.4c-0.1,0.2-0.1,0.4-0.1,0.6s0.1,0.4,0.2,0.5
			c0.1,0.1,0.3,0.2,0.4,0.3c0.2,0.1,0.3,0.1,0.5,0.2c0.2,0,0.4,0,0.5,0c0.2,0,0.4,0,0.7-0.1s0.5-0.1,0.7-0.3s0.4-0.3,0.5-0.5
			s0.2-0.4,0.2-0.7L-154.3,448.8L-154.3,448.8z"/>
		<path fill="#FFFFFF" d="M-151.3,444.7h1.4v-2.5h1.8v2.5h1.6v1.4h-1.6v4.4c0,0.2,0,0.4,0,0.5s0.1,0.3,0.1,0.4
			c0.1,0.1,0.1,0.2,0.3,0.2c0.1,0,0.3,0.1,0.5,0.1c0.1,0,0.3,0,0.4,0c0.1,0,0.3,0,0.4-0.1v1.4c-0.2,0-0.4,0-0.6,0.1
			c-0.2,0-0.4,0-0.6,0c-0.5,0-0.9,0-1.2-0.1s-0.5-0.2-0.7-0.4s-0.3-0.4-0.3-0.7s-0.1-0.6-0.1-0.9v-5h-1.4L-151.3,444.7L-151.3,444.7
			z"/>
		<path fill="#FFFFFF" d="M-143.7,449.3c0,0.3,0,0.6,0.1,0.9s0.2,0.6,0.4,0.8c0.2,0.2,0.4,0.4,0.7,0.5s0.6,0.2,1,0.2
			c0.5,0,1-0.1,1.3-0.3c0.3-0.2,0.6-0.6,0.7-1h1.7c-0.1,0.4-0.3,0.8-0.5,1.2c-0.2,0.4-0.5,0.6-0.8,0.9s-0.7,0.4-1.1,0.5
			s-0.8,0.2-1.3,0.2c-0.7,0-1.2-0.1-1.7-0.3c-0.5-0.2-0.9-0.5-1.3-0.9s-0.6-0.8-0.8-1.4c-0.2-0.5-0.3-1.1-0.3-1.8
			c0-0.6,0.1-1.1,0.3-1.7c0.2-0.5,0.5-1,0.8-1.4s0.8-0.7,1.3-1c0.5-0.2,1-0.4,1.7-0.4s1.2,0.1,1.8,0.4c0.5,0.3,0.9,0.6,1.3,1.1
			c0.3,0.4,0.6,1,0.7,1.5c0.2,0.6,0.2,1.2,0.1,1.8h-6.1V449.3z M-139.5,448.1c0-0.3-0.1-0.6-0.2-0.8c-0.1-0.3-0.2-0.5-0.4-0.7
			s-0.4-0.4-0.6-0.5c-0.3-0.1-0.5-0.2-0.8-0.2s-0.6,0.1-0.9,0.2c-0.3,0.1-0.5,0.3-0.7,0.5s-0.3,0.4-0.4,0.7
			c-0.1,0.3-0.2,0.6-0.2,0.9h4.2V448.1z"/>
	</g>
	<g>
		<circle fill="#003A59" cx="157.8" cy="353.2" r="60"/>
	</g>
	<g>
		<path fill="#FFFFFF" d="M124.5,341.2h2l-0.2,9.7l5.8,0.1v1.7l-7.8-0.1L124.5,341.2z"/>
		<path fill="#FFFFFF" d="M133.4,344.5h1.8l-0.1,8.3h-1.8L133.4,344.5z M133.5,341.3h1.8v1.7h-1.8V341.3z"/>
		<path fill="#FFFFFF" d="M136.4,344.5h1.4v-0.7c0-0.5,0.1-0.9,0.2-1.3c0.1-0.3,0.3-0.6,0.5-0.7c0.2-0.2,0.5-0.3,0.7-0.3
			s0.6-0.1,0.9-0.1c0.6,0,1,0.1,1.3,0.1v1.4c-0.1,0-0.2-0.1-0.4-0.1s-0.3,0-0.5,0s-0.5,0.1-0.6,0.2s-0.3,0.3-0.3,0.7v0.8h1.6v1.4
			h-1.6l-0.1,6.9h-1.8l0.1-6.9h-1.4L136.4,344.5z"/>
		<path fill="#FFFFFF" d="M143.6,349.3c0,0.3,0,0.6,0.1,0.9s0.2,0.6,0.4,0.8c0.2,0.2,0.4,0.4,0.7,0.5s0.6,0.2,1,0.2
			c0.5,0,1-0.1,1.3-0.3c0.3-0.2,0.6-0.6,0.7-1h1.7c-0.1,0.4-0.3,0.8-0.5,1.2c-0.2,0.3-0.5,0.6-0.9,0.9s-0.7,0.4-1.1,0.5
			c-0.4,0.1-0.8,0.2-1.3,0.2c-0.7,0-1.2-0.1-1.7-0.4c-0.5-0.2-0.9-0.5-1.3-0.9c-0.3-0.4-0.6-0.9-0.8-1.4s-0.2-1.1-0.2-1.8
			c0-0.6,0.1-1.1,0.3-1.7c0.2-0.5,0.5-1,0.8-1.4c0.4-0.4,0.8-0.7,1.3-0.9c0.5-0.2,1.1-0.3,1.7-0.3c0.7,0,1.2,0.2,1.7,0.4
			c0.5,0.3,0.9,0.6,1.3,1.1c0.3,0.5,0.6,1,0.7,1.6s0.2,1.2,0.1,1.8L143.6,349.3z M147.9,348.2c0-0.3-0.1-0.6-0.2-0.8
			s-0.2-0.5-0.4-0.7s-0.4-0.4-0.6-0.5c-0.2-0.1-0.5-0.2-0.8-0.2s-0.6,0-0.9,0.2c-0.3,0.1-0.5,0.3-0.7,0.5s-0.3,0.4-0.5,0.7
			c-0.1,0.3-0.2,0.6-0.2,0.9L147.9,348.2z"/>
		<path fill="#FFFFFF" d="M150.9,347.9l4.7,0.1v1.7l-4.7-0.1V347.9z"/>
		<path fill="#FFFFFF" d="M156.6,341.8l9.2,0.2v1.7l-3.6-0.1l-0.2,9.7h-2l0.2-9.7l-3.6-0.1L156.6,341.8z"/>
		<path fill="#FFFFFF" d="M166.9,345.1h1.8l-0.1,8.3h-1.8L166.9,345.1z M167,341.9h1.8v1.7H167V341.9z"/>
		<path fill="#FFFFFF" d="M170.7,345.2h1.7v1.2l0,0c0.1-0.2,0.3-0.4,0.5-0.6s0.3-0.3,0.5-0.4s0.4-0.2,0.7-0.3
			c0.3-0.1,0.6-0.1,0.9-0.1c0.5,0,1,0.1,1.4,0.4c0.4,0.2,0.7,0.6,0.9,1.1c0.3-0.4,0.7-0.8,1.1-1c0.4-0.2,0.9-0.4,1.5-0.3
			c0.9,0,1.6,0.2,2,0.7s0.7,1.2,0.7,2.2l-0.1,5.7h-1.8l0.1-4.8c0-0.3,0-0.6,0-0.9s-0.1-0.5-0.2-0.7c-0.1-0.2-0.2-0.4-0.4-0.5
			s-0.5-0.2-0.8-0.2c-0.6,0-1.1,0.2-1.4,0.6c-0.3,0.4-0.4,0.9-0.4,1.6l-0.1,4.8h-1.8l0.1-5.3c0-0.6-0.1-1-0.3-1.3s-0.6-0.5-1.1-0.5
			c-0.2,0-0.5,0-0.7,0.1s-0.4,0.2-0.6,0.4s-0.3,0.4-0.4,0.7c-0.1,0.3-0.2,0.6-0.2,0.9l-0.1,4.9h-1.8L170.7,345.2z"/>
		<path fill="#FFFFFF" d="M186,350c0,0.3,0,0.6,0.1,0.9s0.2,0.6,0.4,0.8c0.2,0.2,0.4,0.4,0.7,0.5s0.6,0.2,1,0.2c0.5,0,1-0.1,1.3-0.3
			c0.3-0.2,0.6-0.6,0.7-1h1.7c-0.1,0.4-0.3,0.8-0.5,1.2c-0.2,0.3-0.5,0.6-0.9,0.9c-0.3,0.2-0.7,0.4-1.1,0.5
			c-0.4,0.1-0.8,0.2-1.3,0.2c-0.7,0-1.2-0.1-1.7-0.3c-0.5-0.2-0.9-0.5-1.3-0.9c-0.3-0.4-0.6-0.9-0.8-1.4s-0.2-1.1-0.2-1.8
			c0-0.6,0.1-1.1,0.3-1.7c0.2-0.5,0.5-1,0.8-1.4c0.4-0.4,0.8-0.7,1.3-0.9c0.5-0.2,1.1-0.3,1.7-0.3c0.7,0,1.2,0.2,1.7,0.4
			c0.5,0.3,0.9,0.6,1.3,1.1c0.3,0.5,0.6,1,0.7,1.6c0.1,0.6,0.2,1.2,0.1,1.8L186,350z M190.3,348.9c0-0.3-0.1-0.6-0.2-0.8
			c-0.1-0.3-0.2-0.5-0.4-0.7s-0.4-0.4-0.6-0.5c-0.2-0.1-0.5-0.2-0.8-0.2s-0.6,0-0.9,0.2c-0.3,0.1-0.5,0.3-0.7,0.5s-0.3,0.4-0.5,0.7
			c-0.1,0.3-0.2,0.6-0.2,0.9L190.3,348.9z"/>
		<path fill="#FFFFFF" d="M137.2,360.4h2.1l2.7,9.1l0,0l3.1-9h2l-4.1,11.4h-2.2L137.2,360.4z"/>
		<path fill="#FFFFFF" d="M154.8,370.3c0,0.2,0,0.4,0.1,0.5s0.2,0.1,0.3,0.2c0.1,0,0.1,0,0.2,0c0.1,0,0.2,0,0.3,0v1.3
			c-0.1,0-0.1,0-0.2,0.1c-0.1,0-0.2,0-0.3,0.1s-0.2,0-0.3,0s-0.2,0-0.3,0c-0.4,0-0.7-0.1-0.9-0.2c-0.2-0.2-0.4-0.4-0.5-0.8
			c-0.4,0.3-0.8,0.6-1.3,0.7s-1,0.2-1.5,0.2c-0.4,0-0.7-0.1-1.1-0.2c-0.3-0.1-0.6-0.3-0.9-0.5c-0.3-0.2-0.5-0.5-0.6-0.8
			s-0.2-0.7-0.2-1.1c0-0.5,0.1-0.9,0.3-1.2c0.2-0.3,0.4-0.6,0.8-0.7c0.3-0.2,0.7-0.3,1-0.4s0.8-0.1,1.1-0.2s0.6-0.1,0.9-0.1
			s0.6-0.1,0.8-0.1c0.2-0.1,0.4-0.2,0.5-0.3c0.1-0.1,0.2-0.3,0.2-0.6c0-0.2,0-0.4-0.2-0.6s-0.2-0.3-0.4-0.4s-0.3-0.1-0.5-0.2
			c-0.2,0-0.4,0-0.6-0.1c-0.5,0-0.9,0.1-1.3,0.3c-0.3,0.2-0.5,0.5-0.6,1h-1.8c0-0.5,0.2-1,0.4-1.3s0.5-0.6,0.9-0.8s0.7-0.3,1.2-0.4
			c0.4-0.1,0.9-0.1,1.3-0.1c0.4,0,0.8,0.1,1.2,0.1c0.4,0.1,0.7,0.2,1.1,0.4c0.3,0.2,0.6,0.5,0.7,0.8c0.2,0.3,0.3,0.7,0.3,1.1
			L154.8,370.3z M153,368c-0.3,0.2-0.6,0.3-1,0.3s-0.8,0.1-1.2,0.1c-0.2,0-0.4,0.1-0.6,0.1c-0.2,0.1-0.3,0.1-0.5,0.2
			c-0.1,0.1-0.3,0.2-0.3,0.4s-0.1,0.4-0.1,0.6s0.1,0.4,0.2,0.5s0.3,0.3,0.4,0.3s0.3,0.1,0.5,0.2c0.2,0,0.4,0.1,0.5,0.1
			c0.2,0,0.4,0,0.7-0.1c0.2,0,0.5-0.1,0.7-0.3s0.4-0.3,0.5-0.5s0.2-0.4,0.2-0.7L153,368z"/>
		<path fill="#FFFFFF" d="M157,360.8h1.8l-0.2,11.4h-1.8L157,360.8z"/>
		<path fill="#FFFFFF" d="M167.9,372.4h-1.8v-1.2l0,0c-0.2,0.4-0.6,0.7-1,1c-0.4,0.2-0.9,0.4-1.4,0.4c-1.1,0-1.9-0.3-2.3-0.8
			c-0.5-0.5-0.7-1.4-0.7-2.5l0.1-5.2h1.8l-0.1,5.1c0,0.7,0.1,1.2,0.4,1.5c0.3,0.3,0.7,0.5,1.2,0.5c0.4,0,0.7,0,1-0.2
			c0.3-0.1,0.5-0.3,0.6-0.5c0.2-0.2,0.3-0.4,0.4-0.7s0.1-0.6,0.1-0.9l0.1-4.8h1.8L167.9,372.4z"/>
		<path fill="#FFFFFF" d="M171.3,368.8c0,0.3,0,0.6,0.1,0.9s0.2,0.6,0.4,0.8c0.2,0.2,0.4,0.4,0.7,0.5s0.6,0.2,1,0.2
			c0.5,0,1-0.1,1.3-0.3c0.3-0.2,0.6-0.6,0.7-1h1.7c-0.1,0.4-0.3,0.8-0.5,1.2c-0.2,0.3-0.5,0.6-0.9,0.9s-0.7,0.4-1.1,0.5
			c-0.4,0.1-0.8,0.2-1.3,0.2c-0.7,0-1.2-0.1-1.7-0.3c-0.5-0.2-0.9-0.5-1.3-0.9c-0.3-0.4-0.6-0.9-0.8-1.4s-0.2-1.1-0.2-1.8
			c0-0.6,0.1-1.1,0.3-1.7c0.2-0.5,0.5-1,0.8-1.4c0.4-0.4,0.8-0.7,1.3-0.9c0.5-0.2,1.1-0.3,1.7-0.3c0.7,0,1.2,0.2,1.7,0.4
			c0.5,0.3,0.9,0.6,1.3,1.1c0.3,0.5,0.6,1,0.7,1.6c0.1,0.6,0.2,1.2,0.1,1.8L171.3,368.8z M175.5,367.7c0-0.3-0.1-0.6-0.2-0.8
			c-0.1-0.3-0.2-0.5-0.4-0.7s-0.4-0.4-0.6-0.5c-0.2-0.1-0.5-0.2-0.8-0.2s-0.6,0-0.9,0.2s-0.5,0.3-0.7,0.5s-0.3,0.4-0.5,0.7
			c-0.1,0.3-0.2,0.6-0.2,0.9L175.5,367.7z"/>
	</g>
	<g>
		<g>
			
				<rect x="-286.436" y="538.303" transform="matrix(-0.6362 -0.7715 0.7715 -0.6362 -883.546 660.9924)" fill="#003A59" width="1" height="1"/>
		</g>
		<g>
			<path fill="#003A59" d="M-257.6,573.9l-1.3-1.6l0.8-0.6l1.3,1.6L-257.6,573.9z M-260.2,570.7l-1.3-1.6l0.8-0.6l1.3,1.6
				L-260.2,570.7z M-262.8,567.6l-1.3-1.6l0.8-0.6l1.3,1.6L-262.8,567.6z M-265.4,564.5l-1.3-1.6l0.8-0.6l1.3,1.6L-265.4,564.5z
				 M-268,561.4l-1.3-1.6l0.8-0.6l1.3,1.6L-268,561.4z M-270.5,558.2l-1.3-1.6l0.8-0.6l1.3,1.6L-270.5,558.2z M-273.1,555.1
				l-1.3-1.6l0.8-0.6l1.3,1.6L-273.1,555.1z M-275.7,552l-1.3-1.6l0.8-0.6l1.3,1.6L-275.7,552z M-278.3,548.9l-1.3-1.6l0.8-0.6
				l1.3,1.6L-278.3,548.9z M-280.9,545.7l-1.3-1.6l0.8-0.6l1.3,1.6L-280.9,545.7z M-283.4,542.6l-1.3-1.6l0.8-0.6l1.3,1.6
				L-283.4,542.6z"/>
		</g>
		<g>
			
				<rect x="-256.116" y="575.019" transform="matrix(-0.6367 -0.7711 0.7711 -0.6367 -862.1552 744.8472)" fill="#003A59" width="1" height="1"/>
		</g>
	</g>
	<g>
		<g>
			
				<rect x="-139.012" y="469.73" transform="matrix(-0.6445 -0.7646 0.7646 -0.6445 -587.3221 667.3869)" fill="#003A59" width="1" height="1"/>
		</g>
		<g>
			<path fill="#003A59" d="M-90.6,527.9l-1.3-1.5l0.8-0.6l1.3,1.5L-90.6,527.9z M-93.1,524.9l-1.3-1.5l0.8-0.6l1.3,1.5L-93.1,524.9z
				 M-95.6,521.9l-1.3-1.5l0.8-0.6l1.3,1.5L-95.6,521.9z M-98.2,518.9l-1.3-1.5l0.8-0.6l1.3,1.5L-98.2,518.9z M-100.7,515.9
				l-1.3-1.5l0.8-0.6l1.3,1.5L-100.7,515.9z M-103.2,512.9l-1.3-1.5l0.8-0.6l1.3,1.5L-103.2,512.9z M-105.7,509.9l-1.3-1.5l0.8-0.6
				l1.3,1.5L-105.7,509.9z M-108.3,506.9l-1.3-1.5l0.8-0.6l1.3,1.5L-108.3,506.9z M-110.8,503.9l-1.3-1.5l0.8-0.6l1.3,1.5
				L-110.8,503.9z M-113.3,500.9l-1.3-1.5l0.8-0.6l1.3,1.5L-113.3,500.9z M-115.9,497.9l-1.3-1.5l0.8-0.6l1.3,1.5L-115.9,497.9z
				 M-118.4,494.9l-1.3-1.5l0.8-0.6l1.3,1.5L-118.4,494.9z M-120.9,491.9l-1.3-1.5l0.8-0.6l1.3,1.5L-120.9,491.9z M-123.4,488.9
				l-1.3-1.5l0.8-0.6l1.3,1.5L-123.4,488.9z M-126,485.9l-1.3-1.5l0.8-0.6l1.3,1.5L-126,485.9z M-128.5,482.9l-1.3-1.5l0.8-0.6
				l1.3,1.5L-128.5,482.9z M-131,479.9l-1.3-1.5l0.8-0.6l1.3,1.5L-131,479.9z M-133.5,476.9l-1.3-1.5l0.8-0.6l1.3,1.5L-133.5,476.9z
				 M-136.1,473.9l-1.3-1.5l0.8-0.6l1.3,1.5L-136.1,473.9z"/>
		</g>
		<g>
			
				<rect x="-89.076" y="528.923" transform="matrix(-0.6445 -0.7646 0.7646 -0.6445 -550.4611 802.9122)" fill="#003A59" width="1" height="1"/>
		</g>
	</g>
	<g>
		<g>
			
				<rect x="52.506" y="472.408" transform="matrix(-0.6445 -0.7646 0.7646 -0.6445 -274.4189 818.2263)" fill="#003A59" width="1" height="1"/>
		</g>
		<g>
			<path fill="#003A59" d="M83.3,509.6l-1.3-1.5l0.8-0.6l1.3,1.5L83.3,509.6z M80.8,506.6l-1.3-1.5l0.8-0.6l1.3,1.5L80.8,506.6z
				 M78.2,503.6l-1.3-1.5l0.8-0.6L79,503L78.2,503.6z M75.7,500.6l-1.3-1.5l0.8-0.6l1.3,1.5L75.7,500.6z M73.2,497.6l-1.3-1.5
				l0.8-0.6L74,497L73.2,497.6z M70.6,494.6l-1.3-1.5l0.8-0.6l1.3,1.5L70.6,494.6z M68.1,491.6l-1.3-1.5l0.8-0.6l1.3,1.5L68.1,491.6
				z M65.6,488.6l-1.3-1.5l0.8-0.6l1.3,1.5L65.6,488.6z M63.1,485.6l-1.3-1.5l0.8-0.6l1.3,1.5L63.1,485.6z M60.5,482.6l-1.3-1.5
				l0.8-0.6l1.3,1.5L60.5,482.6z M58,479.6l-1.3-1.5l0.8-0.6l1.3,1.5L58,479.6z M55.5,476.6l-1.3-1.5l0.8-0.6l1.3,1.5L55.5,476.6z"
				/>
		</g>
		<g>
			
				<rect x="84.78" y="510.728" transform="matrix(-0.6445 -0.7646 0.7646 -0.6445 -250.6427 905.9206)" fill="#003A59" width="1" height="1"/>
		</g>
	</g>
	<g>
		<g>
			
				<rect x="172.212" y="371.109" transform="matrix(-0.6198 -0.7848 0.7848 -0.6198 -11.8741 737.4655)" fill="#003A59" width="1" height="1"/>
		</g>
		<g>
			<path fill="#003A59" d="M213.9,424.6l-1.2-1.5l0.8-0.6l1.2,1.5L213.9,424.6z M211.5,421.5l-1.2-1.5l0.8-0.6l1.2,1.5L211.5,421.5z
				 M209.1,418.4l-1.2-1.5l0.8-0.6l1.2,1.5L209.1,418.4z M206.7,415.4l-1.2-1.5l0.8-0.6l1.2,1.5L206.7,415.4z M204.2,412.3l-1.2-1.5
				l0.8-0.6l1.2,1.5L204.2,412.3z M201.8,409.2l-1.2-1.5l0.8-0.6l1.2,1.5L201.8,409.2z M199.4,406.1l-1.2-1.5l0.8-0.6l1.2,1.5
				L199.4,406.1z M196.9,403.1l-1.2-1.5l0.8-0.6l1.2,1.5L196.9,403.1z M194.5,400l-1.2-1.5l0.8-0.6l1.2,1.5L194.5,400z M192.1,396.9
				l-1.2-1.5l0.8-0.6l1.2,1.5L192.1,396.9z M189.6,393.9l-1.2-1.5l0.8-0.6l1.2,1.5L189.6,393.9z M187.2,390.8l-1.2-1.5l0.8-0.6
				l1.2,1.5L187.2,390.8z M184.8,387.7l-1.2-1.5l0.8-0.6l1.2,1.5L184.8,387.7z M182.4,384.6l-1.2-1.5l0.8-0.6l1.2,1.5L182.4,384.6z
				 M179.9,381.6l-1.2-1.5l0.8-0.6l1.2,1.5L179.9,381.6z M177.5,378.5l-1.2-1.5l0.8-0.6l1.2,1.5L177.5,378.5z M175.1,375.4l-1.2-1.5
				l0.8-0.6l1.2,1.5L175.1,375.4z"/>
		</g>
		<g>
			
				<rect x="215.39" y="425.747" transform="matrix(-0.6203 -0.7844 0.7844 -0.6203 15.4638 859.98)" fill="#003A59" width="1" height="1"/>
		</g>
	</g>
	<g>
		<polygon fill="#E79012" points="297.7,375.3 278.5,412.5 274.5,399.8 155.2,456.2 51.7,545.1 -41,512 -140.6,576.4 -206.3,555.3 
			-355.4,644.7 -365.6,630.7 -207,539.8 -141.8,559.7 -42.3,496.5 48.5,526.8 147.7,443.1 267.4,385.1 256.7,375.3 		"/>
	</g>
	<g opacity="0.3">
		<g>
			<path fill="#FFFFFF" d="M-347.2,546.4c10.6,9.3,24.4,14.9,39.6,14.9c33.1,0,60-26.9,60-60c0-15.2-5.6-29-14.9-39.6L-347.2,546.4z
				"/>
		</g>
	</g>
	<g opacity="0.3">
		<g>
			<path fill="#FFFFFF" d="M-194,479c10.6,9.3,24.4,14.9,39.6,14.9c33.1,0,60-26.9,60-60c0-15.2-5.6-29-14.9-39.6L-194,479z"/>
		</g>
	</g>
	<g opacity="0.3">
		<g>
			<path fill="#FFFFFF" d="M-21.6,476.3c10.6,9.3,24.4,14.9,39.6,14.9c33.1,0,60-26.9,60-60c0-15.2-5.6-29-14.9-39.6L-21.6,476.3z"
				/>
		</g>
	</g>
	<g opacity="0.3">
		<g>
			<path fill="#FFFFFF" d="M118.2,398.3c10.6,9.3,24.4,14.9,39.6,14.9c33.1,0,60-26.9,60-60c0-15.2-5.6-29-14.9-39.6L118.2,398.3z"
				/>
		</g>
	</g>
</g>
</svg>
