<?xml version="1.0" encoding="utf-8"?>
<!-- Generator: Adobe Illustrator 17.0.0, SVG Export Plug-In . SVG Version: 6.00 Build 0)  -->
<!DOCTYPE svg PUBLIC "-//W3C//DTD SVG 1.1//EN" "http://www.w3.org/Graphics/SVG/1.1/DTD/svg11.dtd">
<svg version="1.1" id="圖層_1" xmlns="http://www.w3.org/2000/svg" xmlns:xlink="http://www.w3.org/1999/xlink" x="0px" y="0px"
	 width="446.035px" height="208px" viewBox="-51.459 -312.641 446.035 208" enable-background="new -51.459 -312.641 446.035 208"
	 xml:space="preserve">
<g>
	<path fill="#003B5A" d="M394.577-230.233c0,5.543-4.512,9.926-9.926,9.926H190.772c-5.543,0-9.926-4.512-9.926-9.926v-34.419
		c0-5.543,4.512-9.926,9.926-9.926h193.878c5.543,0,9.926,4.512,9.926,9.926V-230.233z"/>
	<path fill="#E89214" d="M394.577-236.163c0,5.543-4.512,9.926-9.926,9.926H190.772c-5.543,0-9.926-4.512-9.926-9.926v-34.419
		c0-5.543,4.512-9.926,9.926-9.926h193.878c5.543,0,9.926,4.512,9.926,9.926V-236.163z"/>
	<path fill="#003B5A" d="M394.577-152.501c0,5.543-4.512,9.926-9.926,9.926H190.772c-5.543,0-9.926-4.512-9.926-9.926v-34.419
		c0-5.543,4.512-9.926,9.926-9.926h193.878c5.543,0,9.926,4.512,9.926,9.926V-152.501z"/>
	<path fill="#E89214" d="M394.577-158.56c0,5.543-4.512,9.926-9.926,9.926H190.772c-5.543,0-9.926-4.512-9.926-9.926v-34.419
		c0-5.543,4.512-9.926,9.926-9.926h193.878c5.543,0,9.926,4.512,9.926,9.926V-158.56z"/>
	<g>
		<path fill="#FFFFFF" d="M229.832-250.085v-3.094h7.992v7.348c-0.773,0.773-1.934,1.418-3.352,1.934
			c-1.418,0.516-2.965,0.902-4.512,0.902c-1.934,0-3.609-0.387-5.027-1.16s-2.449-1.934-3.223-3.481
			c-0.773-1.547-1.031-3.094-1.031-4.899c0-1.934,0.387-3.609,1.16-5.156c0.773-1.547,1.934-2.578,3.481-3.481
			c1.16-0.645,2.707-0.902,4.383-0.902c2.32,0,4.125,0.516,5.414,1.418c1.289,0.902,2.063,2.32,2.449,3.996l-3.738,0.645
			c-0.258-0.902-0.773-1.676-1.418-2.191c-0.645-0.516-1.676-0.773-2.707-0.773c-1.676,0-2.965,0.516-3.867,1.547
			s-1.418,2.578-1.418,4.641c0,2.191,0.516,3.867,1.418,4.899s2.191,1.676,3.867,1.676c0.773,0,1.547-0.129,2.32-0.516
			c0.773-0.387,1.418-0.645,2.063-1.16v-2.32h-4.254V-250.085z"/>
		<path fill="#FFFFFF" d="M257.934-243.253h-3.996l-1.547-4.254h-7.348l-1.547,4.254H239.5l7.219-18.434h3.996L257.934-243.253z
			 M251.102-250.6l-2.578-6.832l-2.449,6.832H251.102z"/>
		<path fill="#FFFFFF" d="M259.867-243.253v-18.563h5.543l3.352,12.633l3.352-12.633h5.543v18.434h-3.352v-14.438l-3.609,14.567
			h-3.609l-3.609-14.567v14.567H259.867z"/>
		<path fill="#FFFFFF" d="M281.395-243.253v-18.563h13.664v3.094h-9.926v4.125h9.281v3.094h-9.281v5.027h10.313v3.094h-14.051
			V-243.253z"/>
		<path fill="#FFFFFF" d="M321.486-243.253h-3.996l-1.547-4.254h-7.348l-1.547,4.254h-3.996l7.219-18.434h3.996L321.486-243.253z
			 M314.653-250.6l-2.578-6.832l-2.449,6.832H314.653z"/>
		<path fill="#FFFFFF" d="M323.419-243.253v-18.563h5.93c2.32,0,3.738,0.129,4.383,0.258c1.031,0.258,1.934,0.902,2.707,1.805
			c0.773,0.902,1.031,2.063,1.031,3.609c0,1.16-0.258,2.063-0.645,2.836c-0.387,0.773-0.902,1.418-1.547,1.805
			c-0.645,0.387-1.289,0.773-1.934,0.902c-0.902,0.129-2.191,0.258-3.867,0.258h-2.32v6.961h-3.738V-243.253z M327.157-258.593
			v5.285h2.063c1.418,0,2.449-0.129,2.965-0.258s0.902-0.516,1.16-0.902c0.258-0.387,0.387-0.902,0.387-1.418
			c0-0.645-0.258-1.289-0.645-1.676c-0.387-0.387-0.902-0.773-1.547-0.773c-0.387-0.129-1.289-0.129-2.707-0.129h-1.676V-258.593z"
			/>
		<path fill="#FFFFFF" d="M340.693-243.253v-18.563h5.93c2.32,0,3.738,0.129,4.383,0.258c1.031,0.258,1.934,0.902,2.707,1.805
			c0.773,0.902,1.031,2.063,1.031,3.609c0,1.16-0.258,2.063-0.645,2.836c-0.387,0.773-0.902,1.418-1.547,1.805
			c-0.645,0.387-1.289,0.773-1.934,0.902c-0.902,0.129-2.191,0.258-3.867,0.258h-2.449v6.961h-3.609V-243.253z M344.431-258.593
			v5.285h2.063c1.418,0,2.449-0.129,2.965-0.258s0.902-0.516,1.16-0.902c0.258-0.387,0.387-0.902,0.387-1.418
			c0-0.645-0.258-1.289-0.645-1.676c-0.387-0.387-0.902-0.773-1.547-0.773c-0.387-0.129-1.289-0.129-2.707-0.129h-1.676V-258.593z"
			/>
	</g>
	<g>
		<path fill="#FFFFFF" d="M218.488-166.037h-3.996l-1.547-4.254h-7.348l-1.547,4.254h-3.996l7.219-18.434h3.996L218.488-166.037z
			 M211.656-173.255l-2.578-6.832l-2.449,6.832H211.656z"/>
		<path fill="#FFFFFF" d="M283.586-166.037h-3.996l-1.547-4.254h-7.348l-1.547,4.254h-3.996l7.219-18.434h3.996L283.586-166.037z
			 M276.754-173.255l-2.578-6.832l-2.449,6.832H276.754z"/>
		<path fill="#FFFFFF" d="M220.55-184.47h6.832c1.547,0,2.707,0.129,3.481,0.387c1.031,0.258,2.063,0.902,2.836,1.676
			c0.773,0.773,1.418,1.805,1.805,2.965c0.387,1.16,0.645,2.578,0.645,4.383c0,1.547-0.129,2.836-0.516,3.867
			c-0.516,1.289-1.16,2.449-1.934,3.223c-0.645,0.645-1.547,1.16-2.578,1.418c-0.773,0.258-1.934,0.387-3.352,0.387h-6.961v-18.305
			H220.55z M224.289-181.248v12.246h2.836c1.031,0,1.805,0,2.191-0.129c0.645-0.129,1.16-0.387,1.547-0.773
			c0.387-0.387,0.773-0.902,1.031-1.805c0.258-0.902,0.387-1.934,0.387-3.352s-0.129-2.578-0.387-3.223
			c-0.258-0.645-0.645-1.418-1.031-1.805c-0.387-0.387-1.031-0.773-1.676-0.902c-0.516-0.129-1.547-0.129-3.094-0.129h-1.805
			V-181.248z"/>
		<path fill="#FFFFFF" d="M246.203-166.037v-18.434h5.543l3.352,12.633l3.352-12.633h5.543v18.434h-3.481v-14.567l-3.609,14.567
			h-3.609l-3.609-14.567v14.567H246.203z"/>
		<path fill="#FFFFFF" d="M289.13-166.037v-15.34h-5.414v-3.094h14.696v3.094h-5.414v15.34H289.13z"/>
		<path fill="#FFFFFF" d="M300.731-166.037v-18.434h13.664v3.094h-9.926v4.125h9.281v3.094h-9.281v5.027h10.313v3.094
			L300.731-166.037L300.731-166.037z"/>
		<path fill="#FFFFFF" d="M317.876-166.037v-18.434h7.863c1.934,0,3.352,0.129,4.254,0.516c0.902,0.387,1.547,0.902,2.191,1.805
			c0.645,0.902,0.773,1.805,0.773,2.965c0,1.418-0.387,2.578-1.16,3.481c-0.773,0.902-2.063,1.418-3.609,1.676
			c0.773,0.516,1.418,1.031,1.934,1.547s1.289,1.547,2.063,2.965l2.191,3.609h-4.512l-2.707-3.996
			c-0.902-1.418-1.547-2.32-1.934-2.707c-0.387-0.387-0.773-0.645-1.16-0.773c-0.387-0.129-1.031-0.258-1.934-0.258h-0.773v7.734
			h-3.481V-166.037z M321.614-176.607h2.707c1.805,0,2.965-0.129,3.352-0.258c0.387-0.129,0.773-0.387,1.031-0.773
			c0.258-0.387,0.387-0.773,0.387-1.418c0-0.645-0.129-1.16-0.516-1.547s-0.773-0.645-1.418-0.773c-0.258,0-1.16,0-2.707,0h-2.965
			v4.77H321.614z"/>
		<path fill="#FFFFFF" d="M336.439-166.037v-18.434h3.738v18.434H336.439z"/>
		<path fill="#FFFFFF" d="M360.287-166.037h-3.996l-1.547-4.254h-7.348l-1.547,4.254h-3.996l7.219-18.434h3.996L360.287-166.037z
			 M353.455-173.255l-2.578-6.832l-2.449,6.832H353.455z"/>
		<path fill="#FFFFFF" d="M362.478-166.037v-18.305h3.738v15.211h9.281v3.094H362.478z"/>
	</g>
	<rect x="134.341" y="-255.772" fill="#014465" width="45.7" height="4.8"/>
	<rect x="140.358" y="-178.169" fill="#014465" width="39.683" height="4.8"/>
	<g>
		<g>
			<path fill="#014465" d="M92.041-304.841v42.2c0,9.9-5.6,14.4-10.8,14.4c-5.4,0-10.9-4.9-10.9-14.4v-24.2c0-6.7-3.3-9.8-6.4-9.8
				c-3.2,0-6.6,3.1-6.6,9.8v47.2h-4.1v-47.2c0-4.1,1.1-7.6,3.2-10.2c1.9-2.4,4.7-3.7,7.5-3.7c5.1,0,10.6,4.3,10.6,13.9v24.2
				c0,7.1,3.5,10.3,6.8,10.3c3.2,0,6.7-3.2,6.7-10.3v-43.8c-11-4-22.9-6.2-35.3-6.2c-57.6,0-104.2,46.6-104.2,104s46.6,104,104,104
				s104-46.6,104-104C156.541-252.141,129.841-289.341,92.041-304.841z"/>
			<path fill="#FFFFFF" d="M81.141-252.441c-3.3,0-6.8-3.2-6.8-10.3v-24.1c0-9.5-5.5-13.9-10.6-13.9c-2.8,0-5.6,1.4-7.5,3.7
				c-2.1,2.5-3.2,6-3.2,10.2v47.2h4.1v-47.2c0-6.7,3.4-9.8,6.6-9.8c3.1,0,6.4,3.1,6.4,9.8v24.2c0,9.5,5.5,14.4,10.9,14.4
				c5.2,0,10.8-4.5,10.8-14.4v-42.2c-1.4-0.6-2.7-1.1-4.1-1.6v43.8C87.841-255.641,84.441-252.441,81.141-252.441z"/>
		</g>
		<path opacity="0.25" fill="#040000" enable-background="new    " d="M104.141-229.941L104.141-229.941h-5.4c-0.1,0-0.3,0-0.4,0
			c-0.1,0-0.3,0-0.4,0h-28.1v-5h-29.5v5h-32.8l0,0c-0.3,0-0.6,0-0.8,0c-19.8,0-35.9,16.1-35.9,35.9s16.1,35.9,35.9,35.9
			c12.9,0,24.3-6.9,30.6-17.1h30.5c6.3,10.3,17.6,17.1,30.6,17.1c19.8,0,35.9-16.1,35.9-35.9
			C134.341-211.841,121.241-227.141,104.141-229.941z"/>
		<path fill="#FFFFFF" d="M104.141-234.641L104.141-234.641h-5.4c-0.1,0-0.3,0-0.4,0c-0.1,0-0.3,0-0.4,0h-28.1v-5h-29.5v5h-32.8l0,0
			c-0.3,0-0.6,0-0.8,0c-19.9,0-36,16-36,35.9c0,19.8,16.1,35.9,35.9,35.9c12.9,0,24.3-6.9,30.6-17.1h30.5
			c6.3,10.3,17.6,17.1,30.6,17.1c19.8,0,35.9-16.1,35.9-35.9C134.341-216.641,121.241-231.941,104.141-234.641z"/>
		<path fill="#E0EDF8" d="M128.041-219.041c0.2,1.4,0.3,2.8,0.3,4.2c0,19.8-16.1,35.9-35.9,35.9c-12.9,0-24.3-6.9-30.6-17.1h-30.6
			c-6.3,10.3-17.6,17.1-30.6,17.1c-12.3,0-23.1-6.2-29.6-15.6c2.1,17.8,17.3,31.7,35.7,31.7c12.9,0,24.3-6.9,30.6-17.1h30.5
			c6.3,10.3,17.6,17.1,30.6,17.1c19.8,0,35.9-16.1,35.9-35.9C134.341-206.341,131.941-213.241,128.041-219.041z"/>
		<g>
			<circle fill="#D2411C" cx="86.941" cy="-211.141" r="7.4"/>
			<path opacity="0.15" fill="#040000" enable-background="new    " d="M86.941-205.741c-3.8,0-6.8-2.8-7.4-6.4c0,0.3-0.1,0.7-0.1,1
				c0,4.1,3.3,7.4,7.4,7.4c4.1,0,7.4-3.3,7.4-7.4c0-0.4,0-0.7-0.1-1C93.741-208.541,90.641-205.741,86.941-205.741z"/>
		</g>
		<g>
			<circle fill="#F0EB3B" cx="111.741" cy="-211.141" r="7.4"/>
			<path opacity="0.15" fill="#040000" enable-background="new    " d="M111.741-205.741c-3.8,0-6.8-2.8-7.4-6.4
				c0,0.3-0.1,0.7-0.1,1c0,4.1,3.3,7.4,7.4,7.4c4.1,0,7.4-3.3,7.4-7.4c0-0.4,0-0.7-0.1-1
				C118.541-208.541,115.441-205.741,111.741-205.741z"/>
		</g>
		<g>
			<circle fill="#64B736" cx="86.941" cy="-186.341" r="7.4"/>
			<path opacity="0.15" fill="#040000" enable-background="new    " d="M86.941-181.041c-3.8,0-6.8-2.8-7.4-6.4c0,0.3-0.1,0.7-0.1,1
				c0,4.1,3.3,7.4,7.4,7.4c4.1,0,7.4-3.3,7.4-7.4c0-0.4,0-0.7-0.1-1C93.741-183.741,90.641-181.041,86.941-181.041z"/>
		</g>
		<g>
			<circle fill="#52BCE9" cx="111.741" cy="-186.341" r="7.4"/>
			<path opacity="0.15" fill="#040000" enable-background="new    " d="M111.741-181.041c-3.8,0-6.8-2.8-7.4-6.4
				c0,0.3-0.1,0.7-0.1,1c0,4.1,3.3,7.4,7.4,7.4c4.1,0,7.4-3.3,7.4-7.4c0-0.4,0-0.7-0.1-1
				C118.541-183.741,115.441-181.041,111.741-181.041z"/>
		</g>
		<g>
			<g>
				<polygon fill="#29435C" points="18.341,-203.441 8.441,-203.441 8.441,-213.441 -1.459,-213.441 -1.459,-203.441 
					-11.359,-203.441 -11.359,-193.541 -1.459,-193.541 -1.459,-183.641 8.441,-183.641 8.441,-193.541 18.341,-193.541 				"/>
				<polygon fill="#1F364C" points="8.441,-183.641 8.441,-193.541 18.341,-193.541 18.341,-203.441 8.441,-203.441 8.441,-213.441 
					3.541,-213.441 3.541,-183.641 				"/>
			</g>
			<g>
				<polygon fill="#FFFFFF" points="1.441,-207.341 3.541,-210.941 5.541,-207.341 				"/>
				<polygon fill="#FFFFFF" points="5.541,-189.641 3.541,-186.141 1.441,-189.641 				"/>
				<polygon fill="#FFFFFF" points="12.341,-200.641 15.941,-198.541 12.341,-196.441 				"/>
				<polygon fill="#FFFFFF" points="-5.359,-196.441 -8.959,-198.541 -5.359,-200.641 				"/>
			</g>
		</g>
		<rect x="43.541" y="-209.141" fill="#29435C" width="8.7" height="1.8"/>
		<rect x="58.241" y="-209.141" fill="#29435C" width="8.7" height="1.8"/>
	</g>
</g>
</svg>
