<?xml version="1.0" encoding="utf-8"?>
<!-- Generator: Adobe Illustrator 17.0.0, SVG Export Plug-In . SVG Version: 6.00 Build 0)  -->
<!DOCTYPE svg PUBLIC "-//W3C//DTD SVG 1.1//EN" "http://www.w3.org/Graphics/SVG/1.1/DTD/svg11.dtd">
<svg version="1.1" id="圖層_1" xmlns="http://www.w3.org/2000/svg" xmlns:xlink="http://www.w3.org/1999/xlink" x="0px" y="0px"
	 width="397.3px" height="208px" viewBox="0 0 397.3 208" enable-background="new 0 0 397.3 208" xml:space="preserve">
<g>
	<path fill="#003B5A" d="M397.3,86.6c0,4.3-3.5,7.7-7.7,7.7H239.2c-4.3,0-7.7-3.5-7.7-7.7V59.9c0-4.3,3.5-7.7,7.7-7.7h150.4
		c4.3,0,7.7,3.5,7.7,7.7V86.6z"/>
	<path fill="#E89214" d="M397.3,82c0,4.3-3.5,7.7-7.7,7.7H239.2c-4.3,0-7.7-3.5-7.7-7.7V55.3c0-4.3,3.5-7.7,7.7-7.7h150.4
		c4.3,0,7.7,3.5,7.7,7.7V82z"/>
	<path fill="#003B5A" d="M397.3,146.9c0,4.3-3.5,7.7-7.7,7.7H239.2c-4.3,0-7.7-3.5-7.7-7.7v-26.7c0-4.3,3.5-7.7,7.7-7.7h150.4
		c4.3,0,7.7,3.5,7.7,7.7V146.9z"/>
	<path fill="#E89214" d="M397.3,142.2c0,4.3-3.5,7.7-7.7,7.7H239.2c-4.3,0-7.7-3.5-7.7-7.7v-26.7c0-4.3,3.5-7.7,7.7-7.7h150.4
		c4.3,0,7.7,3.5,7.7,7.7V142.2z"/>
	<g>
		<path fill="#FFFFFF" d="M269.5,71.2v-2.4h6.2v5.7c-0.6,0.6-1.5,1.1-2.6,1.5s-2.3,0.7-3.5,0.7c-1.5,0-2.8-0.3-3.9-0.9
			s-1.9-1.5-2.5-2.7s-0.8-2.4-0.8-3.8c0-1.5,0.3-2.8,0.9-4s1.5-2,2.7-2.7c0.9-0.5,2.1-0.7,3.4-0.7c1.8,0,3.2,0.4,4.2,1.1
			s1.6,1.8,1.9,3.1l-2.9,0.5c-0.2-0.7-0.6-1.3-1.1-1.7s-1.3-0.6-2.1-0.6c-1.3,0-2.3,0.4-3,1.2s-1.1,2-1.1,3.6c0,1.7,0.4,3,1.1,3.8
			s1.7,1.3,3,1.3c0.6,0,1.2-0.1,1.8-0.4s1.1-0.5,1.6-0.9v-1.8H269.5z"/>
		<path fill="#FFFFFF" d="M291.3,76.5h-3.1l-1.2-3.3h-5.7l-1.2,3.3H277l5.6-14.3h3.1L291.3,76.5z M286,70.8l-2-5.3l-1.9,5.3H286z"/>
		<path fill="#FFFFFF" d="M292.8,76.5V62.1h4.3l2.6,9.8l2.6-9.8h4.3v14.3H304V65.2l-2.8,11.3h-2.8l-2.8-11.3v11.3H292.8z"/>
		<path fill="#FFFFFF" d="M309.5,76.5V62.1h10.6v2.4h-7.7v3.2h7.2v2.4h-7.2v3.9h8v2.4H309.5z"/>
		<path fill="#FFFFFF" d="M340.6,76.5h-3.1l-1.2-3.3h-5.7l-1.2,3.3h-3.1l5.6-14.3h3.1L340.6,76.5z M335.3,70.8l-2-5.3l-1.9,5.3
			H335.3z"/>
		<path fill="#FFFFFF" d="M342.1,76.5V62.1h4.6c1.8,0,2.9,0.1,3.4,0.2c0.8,0.2,1.5,0.7,2.1,1.4c0.6,0.7,0.8,1.6,0.8,2.8
			c0,0.9-0.2,1.6-0.5,2.2s-0.7,1.1-1.2,1.4s-1,0.6-1.5,0.7c-0.7,0.1-1.7,0.2-3,0.2H345v5.4H342.1z M345,64.6v4.1h1.6
			c1.1,0,1.9-0.1,2.3-0.2s0.7-0.4,0.9-0.7s0.3-0.7,0.3-1.1c0-0.5-0.2-1-0.5-1.3s-0.7-0.6-1.2-0.6c-0.3-0.1-1-0.1-2.1-0.1H345z"/>
		<path fill="#FFFFFF" d="M355.5,76.5V62.1h4.6c1.8,0,2.9,0.1,3.4,0.2c0.8,0.2,1.5,0.7,2.1,1.4c0.6,0.7,0.8,1.6,0.8,2.8
			c0,0.9-0.2,1.6-0.5,2.2s-0.7,1.1-1.2,1.4s-1,0.6-1.5,0.7c-0.7,0.1-1.7,0.2-3,0.2h-1.9v5.4H355.5z M358.4,64.6v4.1h1.6
			c1.1,0,1.9-0.1,2.3-0.2s0.7-0.4,0.9-0.7s0.3-0.7,0.3-1.1c0-0.5-0.2-1-0.5-1.3s-0.7-0.6-1.2-0.6c-0.3-0.1-1-0.1-2.1-0.1H358.4z"/>
	</g>
	<g>
		<path fill="#FFFFFF" d="M260.7,136.4h-3.1l-1.2-3.3h-5.7l-1.2,3.3h-3.1l5.6-14.3h3.1L260.7,136.4z M255.4,130.8l-2-5.3l-1.9,5.3
			H255.4z"/>
		<path fill="#FFFFFF" d="M311.2,136.4h-3.1l-1.2-3.3h-5.7l-1.2,3.3h-3.1l5.6-14.3h3.1L311.2,136.4z M305.9,130.8l-2-5.3l-1.9,5.3
			H305.9z"/>
		<path fill="#FFFFFF" d="M262.3,122.1h5.3c1.2,0,2.1,0.1,2.7,0.3c0.8,0.2,1.6,0.7,2.2,1.3s1.1,1.4,1.4,2.3s0.5,2,0.5,3.4
			c0,1.2-0.1,2.2-0.4,3c-0.4,1-0.9,1.9-1.5,2.5c-0.5,0.5-1.2,0.9-2,1.1c-0.6,0.2-1.5,0.3-2.6,0.3h-5.4V122.1z M265.2,124.6v9.5h2.2
			c0.8,0,1.4,0,1.7-0.1c0.5-0.1,0.9-0.3,1.2-0.6s0.6-0.7,0.8-1.4s0.3-1.5,0.3-2.6s-0.1-2-0.3-2.5s-0.5-1.1-0.8-1.4s-0.8-0.6-1.3-0.7
			c-0.4-0.1-1.2-0.1-2.4-0.1H265.2z"/>
		<path fill="#FFFFFF" d="M282.2,136.4v-14.3h4.3l2.6,9.8l2.6-9.8h4.3v14.3h-2.7v-11.3l-2.8,11.3h-2.8l-2.8-11.3v11.3H282.2z"/>
		<path fill="#FFFFFF" d="M315.5,136.4v-11.9h-4.2v-2.4h11.4v2.4h-4.2v11.9H315.5z"/>
		<path fill="#FFFFFF" d="M324.5,136.4v-14.3h10.6v2.4h-7.7v3.2h7.2v2.4h-7.2v3.9h8v2.4H324.5z"/>
		<path fill="#FFFFFF" d="M337.8,136.4v-14.3h6.1c1.5,0,2.6,0.1,3.3,0.4s1.2,0.7,1.7,1.4s0.6,1.4,0.6,2.3c0,1.1-0.3,2-0.9,2.7
			s-1.6,1.1-2.8,1.3c0.6,0.4,1.1,0.8,1.5,1.2s1,1.2,1.6,2.3l1.7,2.8h-3.5l-2.1-3.1c-0.7-1.1-1.2-1.8-1.5-2.1s-0.6-0.5-0.9-0.6
			s-0.8-0.2-1.5-0.2h-0.6v6H337.8z M340.7,128.2h2.1c1.4,0,2.3-0.1,2.6-0.2s0.6-0.3,0.8-0.6s0.3-0.6,0.3-1.1c0-0.5-0.1-0.9-0.4-1.2
			s-0.6-0.5-1.1-0.6c-0.2,0-0.9,0-2.1,0h-2.3V128.2z"/>
		<path fill="#FFFFFF" d="M352.2,136.4v-14.3h2.9v14.3H352.2z"/>
		<path fill="#FFFFFF" d="M370.7,136.4h-3.1l-1.2-3.3h-5.7l-1.2,3.3h-3.1l5.6-14.3h3.1L370.7,136.4z M365.4,130.8l-2-5.3l-1.9,5.3
			H365.4z"/>
		<path fill="#FFFFFF" d="M372.4,136.4v-14.2h2.9V134h7.2v2.4H372.4z"/>
	</g>
	<rect x="201.1" y="66.2" fill-rule="evenodd" clip-rule="evenodd" fill="#014465" width="30.4" height="4.8"/>
	<rect x="201.1" y="126.5" fill-rule="evenodd" clip-rule="evenodd" fill="#014465" width="30.4" height="4.8"/>
	<g>
		<g>
			<path fill="#014465" d="M143.5,7.8v42.2c0,9.9-5.6,14.4-10.8,14.4c-5.4,0-10.9-4.9-10.9-14.4V25.8c0-6.7-3.3-9.8-6.4-9.8
				c-3.2,0-6.6,3.1-6.6,9.8V73h-4.1V25.8c0-4.1,1.1-7.6,3.2-10.2c1.9-2.4,4.7-3.7,7.5-3.7c5.1,0,10.6,4.3,10.6,13.9v24.2
				c0,7.1,3.5,10.3,6.8,10.3c3.2,0,6.7-3.2,6.7-10.3V6.2c-11-4-22.9-6.2-35.3-6.2C46.6,0,0,46.6,0,104c0,57.4,46.6,104,104,104
				c57.4,0,104-46.6,104-104C208,60.5,181.3,23.3,143.5,7.8z"/>
			<path fill="#FFFFFF" d="M132.6,60.2c-3.3,0-6.8-3.2-6.8-10.3V25.8c0-9.5-5.5-13.9-10.6-13.9c-2.8,0-5.6,1.4-7.5,3.7
				c-2.1,2.5-3.2,6-3.2,10.2V73h4.1V25.8c0-6.7,3.4-9.8,6.6-9.8c3.1,0,6.4,3.1,6.4,9.8v24.2c0,9.5,5.5,14.4,10.9,14.4
				c5.2,0,10.8-4.5,10.8-14.4V7.8c-1.4-0.6-2.7-1.1-4.1-1.6v43.8C139.3,57,135.9,60.2,132.6,60.2z"/>
		</g>
		<path opacity="0.25" fill="#040000" d="M155.6,82.7L155.6,82.7h-5.4c-0.1,0-0.3,0-0.4,0c-0.1,0-0.3,0-0.4,0h-28.1v-5H91.8v5H59v0
			c-0.3,0-0.6,0-0.8,0c-19.8,0-35.9,16.1-35.9,35.9c0,19.8,16.1,35.9,35.9,35.9c12.9,0,24.3-6.9,30.6-17.1h30.5
			c6.3,10.3,17.6,17.1,30.6,17.1c19.8,0,35.9-16.1,35.9-35.9C185.8,100.8,172.7,85.5,155.6,82.7z"/>
		<path fill="#FFFFFF" d="M155.6,78L155.6,78h-5.4c-0.1,0-0.3,0-0.4,0c-0.1,0-0.3,0-0.4,0h-28.1v-5H91.8v5H59v0c-0.3,0-0.6,0-0.8,0
			C38.3,78,22.2,94,22.2,113.9c0,19.8,16.1,35.9,35.9,35.9c12.9,0,24.3-6.9,30.6-17.1h30.5c6.3,10.3,17.6,17.1,30.6,17.1
			c19.8,0,35.9-16.1,35.9-35.9C185.8,96,172.7,80.7,155.6,78z"/>
		<path fill="#E0EDF8" d="M179.5,93.6c0.2,1.4,0.3,2.8,0.3,4.2c0,19.8-16.1,35.9-35.9,35.9c-12.9,0-24.3-6.9-30.6-17.1H82.7
			c-6.3,10.3-17.6,17.1-30.6,17.1c-12.3,0-23.1-6.2-29.6-15.6c2.1,17.8,17.3,31.7,35.7,31.7c12.9,0,24.3-6.9,30.6-17.1h30.5
			c6.3,10.3,17.6,17.1,30.6,17.1c19.8,0,35.9-16.1,35.9-35.9C185.8,106.3,183.4,99.4,179.5,93.6z"/>
		<g>
			<circle fill="#D2411C" cx="138.4" cy="101.5" r="7.4"/>
			<path opacity="0.15" fill="#040000" d="M138.4,106.9c-3.8,0-6.8-2.8-7.4-6.4c0,0.3-0.1,0.7-0.1,1c0,4.1,3.3,7.4,7.4,7.4
				c4.1,0,7.4-3.3,7.4-7.4c0-0.4,0-0.7-0.1-1C145.2,104.1,142.1,106.9,138.4,106.9z"/>
		</g>
		<g>
			<circle fill="#F0EB3B" cx="163.2" cy="101.5" r="7.4"/>
			<path opacity="0.15" fill="#040000" d="M163.2,106.9c-3.8,0-6.8-2.8-7.4-6.4c0,0.3-0.1,0.7-0.1,1c0,4.1,3.3,7.4,7.4,7.4
				c4.1,0,7.4-3.3,7.4-7.4c0-0.4,0-0.7-0.1-1C170,104.1,166.9,106.9,163.2,106.9z"/>
		</g>
		<g>
			<circle fill="#64B736" cx="138.4" cy="126.3" r="7.4"/>
			<path opacity="0.15" fill="#040000" d="M138.4,131.6c-3.8,0-6.8-2.8-7.4-6.4c0,0.3-0.1,0.7-0.1,1c0,4.1,3.3,7.4,7.4,7.4
				c4.1,0,7.4-3.3,7.4-7.4c0-0.4,0-0.7-0.1-1C145.2,128.9,142.1,131.6,138.4,131.6z"/>
		</g>
		<g>
			<circle fill="#52BCE9" cx="163.2" cy="126.3" r="7.4"/>
			<path opacity="0.15" fill="#040000" d="M163.2,131.6c-3.8,0-6.8-2.8-7.4-6.4c0,0.3-0.1,0.7-0.1,1c0,4.1,3.3,7.4,7.4,7.4
				c4.1,0,7.4-3.3,7.4-7.4c0-0.4,0-0.7-0.1-1C170,128.9,166.9,131.6,163.2,131.6z"/>
		</g>
		<g>
			<g>
				<polygon fill="#29435C" points="69.8,109.2 59.9,109.2 59.9,99.2 50,99.2 50,109.2 40.1,109.2 40.1,119.1 50,119.1 50,129 
					59.9,129 59.9,119.1 69.8,119.1 				"/>
				<polygon fill="#1F364C" points="59.9,129 59.9,119.1 69.8,119.1 69.8,109.2 59.9,109.2 59.9,99.2 55,99.2 55,129 				"/>
			</g>
			<g>
				<polygon fill="#FFFFFF" points="52.9,105.3 55,101.7 57,105.3 				"/>
				<polygon fill="#FFFFFF" points="57,123 55,126.5 52.9,123 				"/>
				<polygon fill="#FFFFFF" points="63.8,112 67.4,114.1 63.8,116.2 				"/>
				<polygon fill="#FFFFFF" points="46.1,116.2 42.5,114.1 46.1,112 				"/>
			</g>
		</g>
		<rect x="95" y="103.5" fill="#29435C" width="8.7" height="1.8"/>
		<rect x="109.7" y="103.5" fill="#29435C" width="8.7" height="1.8"/>
	</g>
</g>
</svg>
