<?xml version="1.0" encoding="utf-8"?>
<!-- Generator: Adobe Illustrator 17.0.0, SVG Export Plug-In . SVG Version: 6.00 Build 0)  -->
<!DOCTYPE svg PUBLIC "-//W3C//DTD SVG 1.1//EN" "http://www.w3.org/Graphics/SVG/1.1/DTD/svg11.dtd">
<svg version="1.1" id="圖層_1" xmlns="http://www.w3.org/2000/svg" xmlns:xlink="http://www.w3.org/1999/xlink" x="0px" y="0px"
	 width="40px" height="40px" viewBox="0 0 40 40" enable-background="new 0 0 40 40" xml:space="preserve">
<g>
	<path fill="#ffffff" d="M13,22.7l1.2-0.3c0.9-0.2,1.8-0.5,2.5-0.7c-0.5-0.8-1-1.8-1.5-2.8c-0.3-0.2-0.5-0.5-0.7-0.8
		c-0.4-0.5-0.7-1.2-0.8-1.9c-0.1-0.4-0.2-0.9-0.2-1.3c0-0.8,0.2-1.5,0.5-2.1c0.1-1.5,0.5-2.9,1.1-4.1c-0.8-0.6-1.7-0.9-2.7-0.9
		c-2.6,0-4.8,2.3-4.8,5.1c-0.2,0.3-0.3,0.7-0.3,1.1c0,0.2,0,0.4,0.1,0.7c0.1,0.4,0.2,0.7,0.4,0.9C8,15.8,8.1,16,8.3,16.1
		c0.4,1,0.9,1.9,1.5,2.6c0,0,0,0,0,0c0,0,0,0,0,0.1c-0.1,0.1-0.3,0.2-0.6,0.3c-0.5,0.2-1.2,0.4-2,0.6l-0.7,0.2
		c-1.2,0.3-2.6,1.5-2.6,4.9c0,0,0,0.1,0,0.1l0,0.1l0,0.5l0.5,0.2l0.1,0c1.3,0.5,2.8,0.8,4.4,1.1C9.9,24.2,11.5,23.2,13,22.7z
		 M32.1,23.9c-0.4-0.1-0.8-0.2-1.1-0.3c-1.2-0.3-2.3-0.6-3.1-0.9c-0.4-0.1-0.7-0.3-0.9-0.4c0,0,0-0.1,0-0.1c0,0,0,0,0-0.1
		c0.9-1.1,1.7-2.4,2.3-4c0.3-0.2,0.5-0.4,0.7-0.7c0.3-0.4,0.5-0.9,0.7-1.5c0.1-0.3,0.1-0.7,0.1-1c0-0.7-0.2-1.3-0.5-1.8
		c-0.1-4.4-3.4-8-7.5-8c-4.1,0-7.4,3.6-7.5,8c-0.3,0.5-0.5,1.1-0.5,1.8c0,0.3,0,0.7,0.1,1c0.1,0.6,0.4,1.1,0.7,1.5
		c0.2,0.3,0.5,0.6,0.7,0.7c0.6,1.5,1.4,2.9,2.3,4c0,0,0,0,0,0c0,0,0,0.1,0,0.1c-0.2,0.1-0.4,0.2-0.9,0.4c-0.8,0.3-1.9,0.6-3.1,0.9
		l-1.1,0.3c-1.8,0.5-4,2.3-4.1,7.7c0,0.1,0,0.1,0,0.2l0,0.2l0,0.8L10,33l0.2,0.1c3.6,1.3,7.9,2,12.5,2c4.6,0,8.9-0.7,12.5-2l0.2-0.1
		l0.7-0.3l0-0.8l0-0.2v-0.2C36.1,26.2,33.9,24.4,32.1,23.9z"/>
</g>
</svg>
