<?xml version="1.0" encoding="utf-8"?>
<!-- Generator: Adobe Illustrator 17.0.0, SVG Export Plug-In . SVG Version: 6.00 Build 0)  -->
<!DOCTYPE svg PUBLIC "-//W3C//DTD SVG 1.1//EN" "http://www.w3.org/Graphics/SVG/1.1/DTD/svg11.dtd">
<svg version="1.1" id="圖層_1" xmlns="http://www.w3.org/2000/svg" xmlns:xlink="http://www.w3.org/1999/xlink" x="0px" y="0px"
	 width="40px" height="40px" viewBox="0 0 40 40" enable-background="new 0 0 40 40" xml:space="preserve">
<path id="SHOP_2_" fill-rule="evenodd" clip-rule="evenodd" fill="#ffffff" d="M36,17.6c0,2.2-1.8,4-4,4c-2.2,0-4-1.8-4-4l0,0l0,0
	l0,0c0,2.2-1.8,4-4,4c-2.2,0-4-1.8-4-4l0,0l0,0l0,0l0,0c0,2.2-1.8,4-4,4c-2.2,0-4-1.8-4-4l0,0l0,0l0,0l0,0c0,2.2-1.8,4-4,4
	s-4-1.8-4-4l0,0l0,0l0,0l2.8-7.5h26.4L36,17.6L36,17.6L36,17.6z M31,8.6H9c-0.8,0-1.5-0.7-1.5-1.5c0-0.8,0.7-1.5,1.5-1.5h22
	c0.8,0,1.5,0.7,1.5,1.5C32.5,7.9,31.8,8.6,31,8.6z M8.5,23.1L8.5,23.1c0.1,0,0.3,0,0.4-0.1C9,23,9,23,9,23c0.1,0,0.1,0,0.2,0
	c0.3-0.1,0.5-0.1,0.8-0.2v0l0,0v7.4h20v-7.4l0,0v0c0.3,0.1,0.5,0.2,0.8,0.2c0.1,0,0.1,0,0.2,0c0,0,0.1,0,0.1,0c0.1,0,0.3,0,0.4,0.1
	v0c0.2,0,0.3,0,0.5,0c0.3,0,0.7,0,1-0.1v10.1c0,0.8-0.7,1.5-1.5,1.5h-23c-0.8,0-1.5-0.7-1.5-1.5V23c0.3,0.1,0.7,0.1,1,0.1
	C8.2,23.1,8.3,23.1,8.5,23.1z"/>
</svg>
