<?xml version="1.0" encoding="utf-8"?>
<!-- Generator: Adobe Illustrator 17.0.0, SVG Export Plug-In . SVG Version: 6.00 Build 0)  -->
<!DOCTYPE svg PUBLIC "-//W3C//DTD SVG 1.1//EN" "http://www.w3.org/Graphics/SVG/1.1/DTD/svg11.dtd">
<svg version="1.1" id="圖層_1" xmlns="http://www.w3.org/2000/svg" xmlns:xlink="http://www.w3.org/1999/xlink" x="0px" y="0px"
	 width="40px" height="40px" viewBox="0 0 40 40" enable-background="new 0 0 40 40" xml:space="preserve">
<g>
	<path fill="#ffffff" d="M11.5,17c0.6,0,1.1-0.1,1.6-0.3l3.2,3.2l3.5-3.5l-3.2-3.2c0.6-1.9,0.1-4-1.3-5.4c-1-1-2.4-1.6-3.8-1.6
		c-0.8,0-1.6,0.2-2.3,0.5C9.1,6.9,9.1,7,9,7.1c0,0.1,0,0.2,0.1,0.3l3.3,3.3c0.2,0.2,0.4,0.6,0.4,0.9c0,0.3-0.1,0.7-0.4,0.9
		c-0.5,0.5-1.3,0.5-1.8,0L7.3,9.2C7.2,9.1,7.1,9.1,7,9.1c-0.1,0-0.2,0.1-0.3,0.2c-1,2.1-0.6,4.5,1,6.1C8.8,16.5,10.1,17,11.5,17z"/>
	<path fill="#ffffff" d="M28.5,23.2c-0.6,0-1.1,0.1-1.7,0.3l-3.5-3.5l-3.5,3.5l3.5,3.5c-0.6,1.9-0.1,4,1.3,5.4c1,1,2.4,1.6,3.8,1.6
		c0.8,0,1.6-0.2,2.3-0.5c0.1-0.1,0.2-0.2,0.2-0.3c0-0.1,0-0.2-0.1-0.3l-3.3-3.3c-0.2-0.2-0.4-0.6-0.4-0.9c0-0.3,0.1-0.7,0.4-0.9
		c0.5-0.5,1.3-0.5,1.8,0l3.3,3.3c0.1,0.1,0.2,0.1,0.3,0.1c0.1,0,0.2-0.1,0.3-0.2c1-2,0.6-4.5-1-6.1C31.2,23.7,29.9,23.2,28.5,23.2z"
		/>
	<path fill="#ffffff" d="M27,15.3c0,0,0.6,0.5,1.1,0.3c0.5-0.3,2.1,1.2,2.5,1.6c0,0,0,0,0,0l-0.3,0.3c-0.4,0.3-0.4,0.9,0,1.3
		c0.3,0.3,0.9,0.3,1.3,0l2.1-2.1c0.3-0.3,0.3-0.9,0-1.3c-0.3-0.3-0.9-0.3-1.3,0l-0.3,0.3c-0.3-0.4-0.8-1.1-0.7-1.3
		c0.3-1-1.8-3.3-1.8-3.3c-5-5-8.3-4.9-9.9-4.3c-0.6,0.2-0.5,0.4,0.1,0.5c4.8,0.8,5.4,3.7,4.6,4.8c-0.3,0.4,0.1,0.9,0.1,0.9l0.2,0.2
		l-8.1,8.1c0.1,0.1,0.2,0.1,0.3,0.2l1.4,1.4c0.1,0.1,0.2,0.2,0.2,0.3l8.1-8.1L27,15.3z"/>
	<path fill="#ffffff" d="M16.4,22c-0.3-0.3-0.8-0.3-1.1,0l-9,8.1c-0.3,0.3-0.3,0.8,0,1.1l2.5,2.5c0.3,0.3,0.8,0.3,1.1,0l8.1-9
		c0.3-0.3,0.3-0.8,0-1.1L16.4,22z"/>
</g>
</svg>
