<?xml version="1.0" encoding="UTF-8"?>
<svg width="100%" height="634px" viewBox="0 0 1240 634" version="1.1" xmlns="http://www.w3.org/2000/svg" xmlns:xlink="http://www.w3.org/1999/xlink" preserveAspectRatio="none">
    <!-- Generator: Sketch 48.2 (47327) - http://www.bohemiancoding.com/sketch -->
    <title>Group 8</title>
    <desc>Created with Sketch.</desc>
    <defs>
        <path d="M76.8844933,93.993399 L1280,0 L1280,540 L83.1155067,633.506601 C61.0912272,635.227248 41.8421612,618.767902 40.1215143,596.743622 C40.0405356,595.707094 40,594.667802 40,593.628115 L40,133.871885 C40,112.988807 56.0648552,95.6199332 76.8844933,93.993399 Z" id="path-1"></path>
    </defs>
    <g id="1_main_PMP_dt" stroke="none" stroke-width="1" fill="none" fill-rule="evenodd" transform="translate(-40.000000, -1490.000000)">
        <g id="優質媒體" transform="translate(0.000000, 1490.000000)">
            <g id="Group-8">
                <mask id="mask-2" fill="white">
                    <use xlink:href="#path-1"></use>
                </mask>
                <use id="Combined-Shape" fill="#FFC074" xlink:href="#path-1"></use>
                <g id="Page-1" opacity="0.433990036" style="mix-blend-mode: soft-light;" mask="url(#mask-2)">
                    <g transform="translate(328.112897, 532.176062) rotate(-60.000000) translate(-328.112897, -532.176062) translate(-115.387103, -75.323938)">
                        <polygon id="Stroke-7" stroke="#000000" points="507.74771 850.225878 416.124941 916.028034 390.154625 839.857889"></polygon>
                        <polygon id="Stroke-9" stroke="#000000" points="406.202752 427.302524 540.452715 507.407365 575.20522 439.637862"></polygon>
                        <polygon id="Stroke-10" stroke="#000000" points="752.328396 332.448934 575.206147 439.636934 561.169749 299.532621"></polygon>
                        <polygon id="Stroke-12" stroke="#000000" points="516.255396 206.318751 522.994722 217.569067 631.97917 137.000541"></polygon>
                        <polygon id="Stroke-13" stroke="#000000" points="694.312169 1010.37952 756.275015 1079.18635 770.430646 1055.41788"></polygon>
                        <polygon id="Stroke-14" stroke="#000000" points="694.312169 1010.37952 756.275015 1079.18635 690.337729 1173.28122"></polygon>
                        <polygon id="Stroke-15" stroke="#000000" points="694.312169 1010.37952 537.778844 1084.48693 690.337729 1173.28122"></polygon>
                        <polygon id="Stroke-16" stroke="#000000" points="537.778447 1084.48759 690.337331 1173.28056 531.582295 1207.22493"></polygon>
                        <polygon id="Stroke-37" stroke="#000000" points="507.74771 850.225878 416.124941 916.028034 573.900941 902.328139"></polygon>
                        <polygon id="Stroke-38" stroke="#000000" points="416.124676 916.027901 415.064826 1045.51781 573.900676 902.328006"></polygon>
                        <polygon id="Stroke-39" stroke="#000000" points="415.065091 1045.51808 537.778579 1084.48746 573.900941 902.328271"></polygon>
                        <polygon id="Stroke-40" stroke="#000000" points="575.20575 439.637199 540.453245 507.406703 583.144031 565.91841"></polygon>
                        <polygon id="Stroke-41" stroke="#000000" points="575.20575 439.637199 666.342311 599.07584 583.144031 565.91841"></polygon>
                        <polygon id="Stroke-42" stroke="#000000" points="540.452715 507.4071 422.127008 619.78042 583.144826 565.918808"></polygon>
                        <polygon id="Stroke-43" stroke="#000000" points="406.202752 427.302524 540.452715 507.407365 401.897108 602.416356"></polygon>
                        <polygon id="Stroke-44" stroke="#000000" points="406.202752 427.302524 291.110914 510.437213 401.897108 602.416356"></polygon>
                        <polygon id="Stroke-45" stroke="#000000" points="540.452715 507.4071 422.127008 619.78042 401.897108 602.416092"></polygon>
                        <polygon id="Stroke-46" stroke="#000000" points="422.126479 619.780818 302.865454 692.310376 401.896578 602.416489"></polygon>
                        <polygon id="Stroke-47" stroke="#000000" points="406.202752 427.302524 291.110914 510.437213 334.890697 401.222248"></polygon>
                        <polygon id="Stroke-50" stroke="#000000" points="631.97864 137.000144 522.994192 217.568669 683.360202 177.20293"></polygon>
                        <polygon id="Stroke-51" stroke="#000000" points="876.488184 153.245933 631.977977 136.999746 683.360864 177.202533"></polygon>
                        <polygon id="Stroke-52" stroke="#000000" points="752.328396 332.448934 561.169749 299.532621 743.030856 304.165493"></polygon>
                        <polygon id="Stroke-53" stroke="#000000" points="743.031386 304.166023 752.328926 332.449464 776.497497 236.07194"></polygon>
                        <polygon id="Stroke-54" stroke="#000000" points="752.328396 332.448934 873.395142 427.004839 776.496967 236.07141"></polygon>
                        <polygon id="Stroke-55" stroke="#000000" points="876.488184 153.245933 683.360864 177.202533 776.496569 236.07194"></polygon>
                        <polygon id="Stroke-56" stroke="#000000" points="876.488184 153.245933 873.394744 427.005369 776.496569 236.07194"></polygon>
                        <polygon id="Stroke-57" stroke="#000000" points="752.328396 332.448934 873.395142 427.004839 810.104832 412.496808"></polygon>
                        <polygon id="Stroke-58" stroke="#000000" points="752.328396 332.448934 575.206147 439.636934 810.104832 412.496808"></polygon>
                        <polygon id="Stroke-59" stroke="#000000" points="873.394877 427.004971 879.129994 491.271668 810.105892 412.49694"></polygon>
                        <polygon id="Stroke-60" stroke="#000000" points="666.342311 599.075442 615.468153 742.022805 750.837584 610.704654"></polygon>
                        <polygon id="Stroke-61" stroke="#000000" points="631.97864 137.000144 516.254866 206.318354 512.786505 116.669558"></polygon>
                        <polygon id="Stroke-69" stroke="#000000" points="333.08193 239.599521 221.832051 340.09059 222.895876 205.138475"></polygon>
                        <polygon id="Stroke-72" stroke="#000000" points="221.832448 340.089927 124.489136 319.775239 219.213292 404.992535"></polygon>
                        <polygon id="Stroke-73" stroke="#000000" points="221.832448 340.089927 334.890697 401.223441 219.213292 404.992535"></polygon>
                        <polygon id="Stroke-74" stroke="#000000" points="124.489798 319.775239 89.6564803 496.794153 219.213955 404.992535"></polygon>
                        <polygon id="Stroke-75" stroke="#000000" points="334.890565 401.222778 291.110782 510.437743 219.214485 404.993197"></polygon>
                        <polygon id="Stroke-76" stroke="#000000" points="394.178613 175.703772 516.254866 206.318884 375.133096 295.217836"></polygon>
                        <polygon id="Stroke-78" stroke="#000000" points="516.255396 206.318751 522.994722 217.569067 375.133626 295.219028"></polygon>
                        <polygon id="Stroke-79" stroke="#000000" points="522.994722 217.569332 375.133626 295.217968 499.456763 327.763334"></polygon>
                        <polygon id="Stroke-80" stroke="#000000" points="375.133096 295.218366 406.202619 427.302259 499.457558 327.762406"></polygon>
                        <polygon id="Stroke-81" stroke="#000000" points="575.20575 439.637199 406.203282 427.301862 499.456895 327.763334"></polygon>
                        <polygon id="Stroke-82" stroke="#000000" points="615.467623 742.023335 507.747047 850.226143 594.509075 841.935461"></polygon>
                        <polygon id="Stroke-83" stroke="#000000" points="507.74771 850.225878 573.900941 902.328139 594.508413 841.935196"></polygon>
                        <polygon id="Stroke-84" stroke="#000000" points="809.956453 614.604507 750.837981 610.705581 781.589549 738.611014"></polygon>
                        <polygon id="Stroke-85" stroke="#000000" points="750.837981 610.705051 615.467226 742.023203 781.589549 738.610484"></polygon>
                        <polygon id="Stroke-86" stroke="#000000" points="583.144296 565.918808 666.342576 599.074912 589.482203 687.702277"></polygon>
                        <polygon id="Stroke-87" stroke="#000000" points="666.342311 599.075442 615.468153 742.022805 589.481939 687.701483"></polygon>
                        <polygon id="Stroke-88" stroke="#000000" points="583.144296 565.918808 422.126479 619.78042 500.791247 698.239843"></polygon>
                        <polygon id="Stroke-89" stroke="#000000" points="583.144296 565.918808 589.482203 687.702277 500.791247 698.239843"></polygon>
                        <polygon id="Stroke-90" stroke="#000000" points="422.126479 619.780818 302.865454 692.310376 500.791247 698.240241"></polygon>
                        <polygon id="Stroke-91" stroke="#000000" points="589.482468 687.702012 615.467358 742.023335 500.791512 698.239578"></polygon>
                        <polygon id="Stroke-92" stroke="#000000" points="615.467623 742.023335 507.747047 850.226143 500.790452 698.239578"></polygon>
                        <polygon id="Stroke-93" stroke="#000000" points="302.864791 692.310508 390.15542 839.857624 500.790585 698.240373"></polygon>
                        <polygon id="Stroke-94" stroke="#000000" points="507.74771 850.225878 390.154625 839.857889 500.791115 698.239313"></polygon>
                        <polygon id="Stroke-96" stroke="#000000" points="302.864791 692.310508 390.15542 839.857624 289.325198 751.742961"></polygon>
                        <polygon id="Stroke-98" stroke="#000000" points="291.110914 510.437081 401.897108 602.416224 258.619866 563.751546"></polygon>
                        <polygon id="Stroke-99" stroke="#000000" points="401.897108 602.415959 302.864659 692.309846 258.619866 563.751281"></polygon>
                        <polygon id="Stroke-100" stroke="#000000" points="302.864791 692.310508 199.092159 675.845728 258.619999 563.751943"></polygon>
                        <polygon id="Stroke-101" stroke="#000000" points="219.213955 404.9928 291.111577 510.437346 167.370033 557.2589"></polygon>
                        <polygon id="Stroke-102" stroke="#000000" points="219.213955 404.9928 89.6564803 496.794418 167.370033 557.2589"></polygon>
                        <polygon id="Stroke-103" stroke="#000000" points="291.110914 510.437081 258.619866 563.751546 167.370695 557.258635"></polygon>
                        <polygon id="Stroke-112" stroke="#000000" points="333.08193 239.599521 375.132831 295.217836 353.258837 327.976496"></polygon>
                        <polygon id="Stroke-113" stroke="#000000" points="333.08193 239.599521 221.832051 340.09059 353.258837 327.976496"></polygon>
                        <polygon id="Stroke-114" stroke="#000000" points="375.133096 295.218366 406.202619 427.302259 353.259102 327.977026"></polygon>
                        <polygon id="Stroke-115" stroke="#000000" points="221.832448 340.089927 334.890697 401.223441 353.259235 327.975834"></polygon>
                        <polygon id="Stroke-116" stroke="#000000" points="334.890565 401.222778 406.202619 427.303054 353.259102 327.976496"></polygon>
                        <polygon id="Stroke-117" stroke="#000000" points="522.994722 217.569332 561.169219 299.532885 529.351177 312.041773"></polygon>
                        <polygon id="Stroke-118" stroke="#000000" points="522.994722 217.569332 499.456763 327.763334 529.351177 312.041773"></polygon>
                        <polygon id="Stroke-119" stroke="#000000" points="561.169749 299.533018 575.206147 439.637332 529.350382 312.040581"></polygon>
                        <polygon id="Stroke-120" stroke="#000000" points="499.457293 327.762936 575.206147 439.636802 529.350382 312.041376"></polygon>
                        <polygon id="Stroke-121" stroke="#000000" points="683.360467 177.202533 776.497497 236.07194 690.695958 251.430502"></polygon>
                        <polygon id="Stroke-122" stroke="#000000" points="683.360467 177.202533 522.994457 217.569596 690.695958 251.430502"></polygon>
                        <polygon id="Stroke-123" stroke="#000000" points="776.497232 236.07141 743.031121 304.165493 690.695693 251.431296"></polygon>
                        <polygon id="Stroke-124" stroke="#000000" points="522.994722 217.569332 561.169219 299.532885 690.696223 251.431561"></polygon>
                        <polygon id="Stroke-125" stroke="#000000" points="743.031386 304.166023 561.170279 299.53315 690.695958 251.430502"></polygon>
                        <polygon id="Stroke-126" stroke="#000000" points="810.10523 412.496675 879.130656 491.271403 776.929253 523.005983"></polygon>
                        <polygon id="Stroke-127" stroke="#000000" points="810.10523 412.496675 575.20522 439.636802 776.929253 523.005983"></polygon>
                        <polygon id="Stroke-128" stroke="#000000" points="879.130126 491.271271 809.956321 614.604772 776.928723 523.00585"></polygon>
                        <polygon id="Stroke-129" stroke="#000000" points="575.20575 439.637199 666.342311 599.07584 776.929783 523.00638"></polygon>
                        <polygon id="Stroke-130" stroke="#000000" points="809.956453 614.604507 750.837981 610.705581 776.928856 523.005585"></polygon>
                        <polygon id="Stroke-131" stroke="#000000" points="750.837981 610.705051 666.342709 599.07584 776.928856 523.00638"></polygon>
                        <polygon id="Stroke-132" stroke="#000000" points="781.589417 738.610351 615.467093 742.02307 693.168722 818.875494"></polygon>
                        <polygon id="Stroke-133" stroke="#000000" points="781.589417 738.610351 769.326944 809.291794 693.168722 818.875494"></polygon>
                        <polygon id="Stroke-134" stroke="#000000" points="615.467623 742.023335 594.509075 841.935461 693.167928 818.875759"></polygon>
                        <polygon id="Stroke-135" stroke="#000000" points="769.327209 809.291265 693.168987 818.874964 682.775826 969.242608"></polygon>
                        <polygon id="Stroke-136" stroke="#000000" points="769.327209 809.291265 770.430779 1055.41774 682.775826 969.242608"></polygon>
                        <polygon id="Stroke-137" stroke="#000000" points="693.168457 818.875362 594.50828 841.935064 682.775297 969.243005"></polygon>
                        <polygon id="Stroke-138" stroke="#000000" points="594.508678 841.935461 573.899881 902.328404 682.775694 969.243402"></polygon>
                        <polygon id="Stroke-139" stroke="#000000" points="573.900411 902.328271 537.778049 1084.48746 682.776224 969.24327"></polygon>
                        <polygon id="Stroke-140" stroke="#000000" points="694.312169 1010.37952 770.430646 1055.41788 682.775694 969.24274"></polygon>
                        <polygon id="Stroke-141" stroke="#000000" points="694.312169 1010.37952 537.778844 1084.48693 682.775694 969.24274"></polygon>
                        <g id="Group-1040" stroke="none" fill-rule="evenodd" transform="translate(0.000000, 0.981687)">
                            <path d="M500.461236,849.244191 C500.461236,853.26765 503.722927,856.530665 507.74771,856.530665 C511.772493,856.530665 515.034183,853.26765 515.034183,849.244191 C515.034183,845.220733 511.772493,841.957718 507.74771,841.957718 C503.722927,841.957718 500.461236,845.220733 500.461236,849.244191" id="Fill-189" fill="#000000"></path>
                            <path d="M567.919276,438.655513 C567.919276,442.678971 571.182291,445.941986 575.20575,445.941986 C579.229208,445.941986 582.492223,442.678971 582.492223,438.655513 C582.492223,434.632054 579.229208,431.369039 575.20575,431.369039 C571.182291,431.369039 567.919276,434.632054 567.919276,438.655513" id="Fill-197" fill="#000000"></path>
                            <path d="M533.166242,506.425414 C533.166242,510.448872 536.429257,513.711887 540.452715,513.711887 C544.476173,513.711887 547.739189,510.448872 547.739189,506.425414 C547.739189,502.401955 544.476173,499.13894 540.452715,499.13894 C536.429257,499.13894 533.166242,502.401955 533.166242,506.425414" id="Fill-199" fill="#000000"></path>
                            <path d="M398.916278,426.320838 C398.916278,430.344296 402.177969,433.607311 406.202752,433.607311 C410.227535,433.607311 413.489225,430.344296 413.489225,426.320838 C413.489225,422.297379 410.227535,419.034364 406.202752,419.034364 C402.177969,419.034364 398.916278,422.297379 398.916278,426.320838" id="Fill-201" fill="#000000"></path>
                            <path d="M553.883276,298.551331 C553.883276,302.576114 557.144966,305.837805 561.169749,305.837805 C565.194532,305.837805 568.456223,302.576114 568.456223,298.551331 C568.456223,294.526548 565.194532,291.264858 561.169749,291.264858 C557.144966,291.264858 553.883276,294.526548 553.883276,298.551331" id="Fill-203" fill="#000000"></path>
                            <path d="M567.919276,438.655513 C567.919276,442.678971 571.182291,445.941986 575.20575,445.941986 C579.229208,445.941986 582.492223,442.678971 582.492223,438.655513 C582.492223,434.632054 579.229208,431.369039 575.20575,431.369039 C571.182291,431.369039 567.919276,434.632054 567.919276,438.655513" id="Fill-205" fill="#000000"></path>
                            <path d="M745.041923,331.467247 C745.041923,335.490705 748.304938,338.753721 752.328396,338.753721 C756.353179,338.753721 759.61487,335.490705 759.61487,331.467247 C759.61487,327.443789 756.353179,324.180773 752.328396,324.180773 C748.304938,324.180773 745.041923,327.443789 745.041923,331.467247" id="Fill-207" fill="#000000"></path>
                            <path d="M515.708248,216.587645 C515.708248,220.611103 518.971264,223.874118 522.994722,223.874118 C527.01818,223.874118 530.281196,220.611103 530.281196,216.587645 C530.281196,212.564187 527.01818,209.301171 522.994722,209.301171 C518.971264,209.301171 515.708248,212.564187 515.708248,216.587645" id="Fill-217" fill="#000000"></path>
                            <path d="M763.144305,1054.43632 C763.144305,1058.4611 766.405996,1061.7228 770.430779,1061.7228 C774.454237,1061.7228 777.717252,1058.4611 777.717252,1054.43632 C777.717252,1050.41154 774.454237,1047.14985 770.430779,1047.14985 C766.405996,1047.14985 763.144305,1050.41154 763.144305,1054.43632" id="Fill-221" fill="#000000"></path>
                            <path d="M748.989204,1078.204 C748.989204,1082.22746 752.250895,1085.49048 756.275678,1085.49048 C760.299136,1085.49048 763.562151,1082.22746 763.562151,1078.204 C763.562151,1074.18055 760.299136,1070.91753 756.275678,1070.91753 C752.250895,1070.91753 748.989204,1074.18055 748.989204,1078.204" id="Fill-223" fill="#000000"></path>
                            <path d="M687.025695,1009.39783 C687.025695,1013.42262 690.288711,1016.68431 694.312169,1016.68431 C698.336952,1016.68431 701.598642,1013.42262 701.598642,1009.39783 C701.598642,1005.37305 698.336952,1002.11136 694.312169,1002.11136 C690.288711,1002.11136 687.025695,1005.37305 687.025695,1009.39783" id="Fill-225" fill="#000000"></path>
                            <path d="M683.051255,1172.2994 C683.051255,1176.32286 686.312946,1179.58588 690.337729,1179.58588 C694.361187,1179.58588 697.624202,1176.32286 697.624202,1172.2994 C697.624202,1168.27595 694.361187,1165.01293 690.337729,1165.01293 C686.312946,1165.01293 683.051255,1168.27595 683.051255,1172.2994" id="Fill-227" fill="#000000"></path>
                            <path d="M748.989204,1078.204 C748.989204,1082.22746 752.250895,1085.49048 756.275678,1085.49048 C760.299136,1085.49048 763.562151,1082.22746 763.562151,1078.204 C763.562151,1074.18055 760.299136,1070.91753 756.275678,1070.91753 C752.250895,1070.91753 748.989204,1074.18055 748.989204,1078.204" id="Fill-229" fill="#000000"></path>
                            <path d="M687.025695,1009.39783 C687.025695,1013.42262 690.288711,1016.68431 694.312169,1016.68431 C698.336952,1016.68431 701.598642,1013.42262 701.598642,1009.39783 C701.598642,1005.37305 698.336952,1002.11136 694.312169,1002.11136 C690.288711,1002.11136 687.025695,1005.37305 687.025695,1009.39783" id="Fill-231" fill="#000000"></path>
                            <path d="M683.051255,1172.2994 C683.051255,1176.32286 686.312946,1179.58588 690.337729,1179.58588 C694.361187,1179.58588 697.624202,1176.32286 697.624202,1172.2994 C697.624202,1168.27595 694.361187,1165.01293 690.337729,1165.01293 C686.312946,1165.01293 683.051255,1168.27595 683.051255,1172.2994" id="Fill-233" fill="#000000"></path>
                            <path d="M687.025695,1009.39783 C687.025695,1013.42262 690.288711,1016.68431 694.312169,1016.68431 C698.336952,1016.68431 701.598642,1013.42262 701.598642,1009.39783 C701.598642,1005.37305 698.336952,1002.11136 694.312169,1002.11136 C690.288711,1002.11136 687.025695,1005.37305 687.025695,1009.39783" id="Fill-237" fill="#000000"></path>
                            <path d="M683.051255,1172.2994 C683.051255,1176.32286 686.312946,1179.58588 690.337729,1179.58588 C694.361187,1179.58588 697.624202,1176.32286 697.624202,1172.2994 C697.624202,1168.27595 694.361187,1165.01293 690.337729,1165.01293 C686.312946,1165.01293 683.051255,1168.27595 683.051255,1172.2994" id="Fill-241" fill="#000000"></path>
                            <path d="M566.613937,901.346584 C566.613937,905.370043 569.875628,908.633058 573.900411,908.633058 C577.925194,908.633058 581.186885,905.370043 581.186885,901.346584 C581.186885,897.323126 577.925194,894.060111 573.900411,894.060111 C569.875628,894.060111 566.613937,897.323126 566.613937,901.346584" id="Fill-365" fill="#000000"></path>
                            <path d="M500.461236,849.244191 C500.461236,853.26765 503.722927,856.530665 507.74771,856.530665 C511.772493,856.530665 515.034183,853.26765 515.034183,849.244191 C515.034183,845.220733 511.772493,841.957718 507.74771,841.957718 C503.722927,841.957718 500.461236,845.220733 500.461236,849.244191" id="Fill-369" fill="#000000"></path>
                            <path d="M566.613937,901.346584 C566.613937,905.370043 569.875628,908.633058 573.900411,908.633058 C577.925194,908.633058 581.186885,905.370043 581.186885,901.346584 C581.186885,897.323126 577.925194,894.060111 573.900411,894.060111 C569.875628,894.060111 566.613937,897.323126 566.613937,901.346584" id="Fill-371" fill="#000000"></path>
                            <path d="M566.613937,901.346584 C566.613937,905.370043 569.875628,908.633058 573.900411,908.633058 C577.925194,908.633058 581.186885,905.370043 581.186885,901.346584 C581.186885,897.323126 577.925194,894.060111 573.900411,894.060111 C569.875628,894.060111 566.613937,897.323126 566.613937,901.346584" id="Fill-377" fill="#000000"></path>
                            <path d="M575.857823,564.937121 C575.857823,568.960579 579.120838,572.223595 583.144296,572.223595 C587.167755,572.223595 590.43077,568.960579 590.43077,564.937121 C590.43077,560.913663 587.167755,557.650648 583.144296,557.650648 C579.120838,557.650648 575.857823,560.913663 575.857823,564.937121" id="Fill-383" fill="#000000"></path>
                            <path d="M533.166242,506.425414 C533.166242,510.448872 536.429257,513.711887 540.452715,513.711887 C544.476173,513.711887 547.739189,510.448872 547.739189,506.425414 C547.739189,502.401955 544.476173,499.13894 540.452715,499.13894 C536.429257,499.13894 533.166242,502.401955 533.166242,506.425414" id="Fill-385" fill="#000000"></path>
                            <path d="M567.919276,438.655513 C567.919276,442.678971 571.182291,445.941986 575.20575,445.941986 C579.229208,445.941986 582.492223,442.678971 582.492223,438.655513 C582.492223,434.632054 579.229208,431.369039 575.20575,431.369039 C571.182291,431.369039 567.919276,434.632054 567.919276,438.655513" id="Fill-387" fill="#000000"></path>
                            <path d="M575.857823,564.937121 C575.857823,568.960579 579.120838,572.223595 583.144296,572.223595 C587.167755,572.223595 590.43077,568.960579 590.43077,564.937121 C590.43077,560.913663 587.167755,557.650648 583.144296,557.650648 C579.120838,557.650648 575.857823,560.913663 575.857823,564.937121" id="Fill-389" fill="#000000"></path>
                            <path d="M659.055838,598.093755 C659.055838,602.117214 662.317528,605.380229 666.342311,605.380229 C670.36577,605.380229 673.628785,602.117214 673.628785,598.093755 C673.628785,594.070297 670.36577,590.807282 666.342311,590.807282 C662.317528,590.807282 659.055838,594.070297 659.055838,598.093755" id="Fill-391" fill="#000000"></path>
                            <path d="M567.919276,438.655513 C567.919276,442.678971 571.182291,445.941986 575.20575,445.941986 C579.229208,445.941986 582.492223,442.678971 582.492223,438.655513 C582.492223,434.632054 579.229208,431.369039 575.20575,431.369039 C571.182291,431.369039 567.919276,434.632054 567.919276,438.655513" id="Fill-393" fill="#000000"></path>
                            <path d="M575.857823,564.937121 C575.857823,568.960579 579.120838,572.223595 583.144296,572.223595 C587.167755,572.223595 590.43077,568.960579 590.43077,564.937121 C590.43077,560.913663 587.167755,557.650648 583.144296,557.650648 C579.120838,557.650648 575.857823,560.913663 575.857823,564.937121" id="Fill-395" fill="#000000"></path>
                            <path d="M414.840005,618.799131 C414.840005,622.822589 418.101695,626.085605 422.126479,626.085605 C426.151262,626.085605 429.412952,622.822589 429.412952,618.799131 C429.412952,614.775673 426.151262,611.512658 422.126479,611.512658 C418.101695,611.512658 414.840005,614.775673 414.840005,618.799131" id="Fill-397" fill="#000000"></path>
                            <path d="M533.166242,506.425414 C533.166242,510.448872 536.429257,513.711887 540.452715,513.711887 C544.476173,513.711887 547.739189,510.448872 547.739189,506.425414 C547.739189,502.401955 544.476173,499.13894 540.452715,499.13894 C536.429257,499.13894 533.166242,502.401955 533.166242,506.425414" id="Fill-399" fill="#000000"></path>
                            <path d="M394.610635,601.434272 C394.610635,605.457731 397.872325,608.720746 401.897108,608.720746 C405.921891,608.720746 409.183582,605.457731 409.183582,601.434272 C409.183582,597.410814 405.921891,594.147799 401.897108,594.147799 C397.872325,594.147799 394.610635,597.410814 394.610635,601.434272" id="Fill-401" fill="#000000"></path>
                            <path d="M533.166242,506.425414 C533.166242,510.448872 536.429257,513.711887 540.452715,513.711887 C544.476173,513.711887 547.739189,510.448872 547.739189,506.425414 C547.739189,502.401955 544.476173,499.13894 540.452715,499.13894 C536.429257,499.13894 533.166242,502.401955 533.166242,506.425414" id="Fill-403" fill="#000000"></path>
                            <path d="M398.916278,426.320838 C398.916278,430.344296 402.177969,433.607311 406.202752,433.607311 C410.227535,433.607311 413.489225,430.344296 413.489225,426.320838 C413.489225,422.297379 410.227535,419.034364 406.202752,419.034364 C402.177969,419.034364 398.916278,422.297379 398.916278,426.320838" id="Fill-405" fill="#000000"></path>
                            <path d="M394.610635,601.434272 C394.610635,605.457731 397.872325,608.720746 401.897108,608.720746 C405.921891,608.720746 409.183582,605.457731 409.183582,601.434272 C409.183582,597.410814 405.921891,594.147799 401.897108,594.147799 C397.872325,594.147799 394.610635,597.410814 394.610635,601.434272" id="Fill-407" fill="#000000"></path>
                            <path d="M283.824441,509.455394 C283.824441,513.478852 287.087456,516.741868 291.110914,516.741868 C295.134373,516.741868 298.397388,513.478852 298.397388,509.455394 C298.397388,505.431936 295.134373,502.168921 291.110914,502.168921 C287.087456,502.168921 283.824441,505.431936 283.824441,509.455394" id="Fill-409" fill="#000000"></path>
                            <path d="M398.916278,426.320838 C398.916278,430.344296 402.177969,433.607311 406.202752,433.607311 C410.227535,433.607311 413.489225,430.344296 413.489225,426.320838 C413.489225,422.297379 410.227535,419.034364 406.202752,419.034364 C402.177969,419.034364 398.916278,422.297379 398.916278,426.320838" id="Fill-411" fill="#000000"></path>
                            <path d="M394.610635,601.434272 C394.610635,605.457731 397.872325,608.720746 401.897108,608.720746 C405.921891,608.720746 409.183582,605.457731 409.183582,601.434272 C409.183582,597.410814 405.921891,594.147799 401.897108,594.147799 C397.872325,594.147799 394.610635,597.410814 394.610635,601.434272" id="Fill-413" fill="#000000"></path>
                            <path d="M414.840005,618.799131 C414.840005,622.822589 418.101695,626.085605 422.126479,626.085605 C426.151262,626.085605 429.412952,622.822589 429.412952,618.799131 C429.412952,614.775673 426.151262,611.512658 422.126479,611.512658 C418.101695,611.512658 414.840005,614.775673 414.840005,618.799131" id="Fill-415" fill="#000000"></path>
                            <path d="M533.166242,506.425414 C533.166242,510.448872 536.429257,513.711887 540.452715,513.711887 C544.476173,513.711887 547.739189,510.448872 547.739189,506.425414 C547.739189,502.401955 544.476173,499.13894 540.452715,499.13894 C536.429257,499.13894 533.166242,502.401955 533.166242,506.425414" id="Fill-417" fill="#000000"></path>
                            <path d="M394.610635,601.434272 C394.610635,605.457731 397.872325,608.720746 401.897108,608.720746 C405.921891,608.720746 409.183582,605.457731 409.183582,601.434272 C409.183582,597.410814 405.921891,594.147799 401.897108,594.147799 C397.872325,594.147799 394.610635,597.410814 394.610635,601.434272" id="Fill-419" fill="#000000"></path>
                            <path d="M414.840005,618.799131 C414.840005,622.822589 418.101695,626.085605 422.126479,626.085605 C426.151262,626.085605 429.412952,622.822589 429.412952,618.799131 C429.412952,614.775673 426.151262,611.512658 422.126479,611.512658 C418.101695,611.512658 414.840005,614.775673 414.840005,618.799131" id="Fill-423" fill="#000000"></path>
                            <path d="M327.604091,400.241091 C327.604091,404.26455 330.865782,407.527565 334.890565,407.527565 C338.915348,407.527565 342.177038,404.26455 342.177038,400.241091 C342.177038,396.217633 338.915348,392.954618 334.890565,392.954618 C330.865782,392.954618 327.604091,396.217633 327.604091,400.241091" id="Fill-425" fill="#000000"></path>
                            <path d="M283.824441,509.455394 C283.824441,513.478852 287.087456,516.741868 291.110914,516.741868 C295.134373,516.741868 298.397388,513.478852 298.397388,509.455394 C298.397388,505.431936 295.134373,502.168921 291.110914,502.168921 C287.087456,502.168921 283.824441,505.431936 283.824441,509.455394" id="Fill-427" fill="#000000"></path>
                            <path d="M398.916278,426.320838 C398.916278,430.344296 402.177969,433.607311 406.202752,433.607311 C410.227535,433.607311 413.489225,430.344296 413.489225,426.320838 C413.489225,422.297379 410.227535,419.034364 406.202752,419.034364 C402.177969,419.034364 398.916278,422.297379 398.916278,426.320838" id="Fill-429" fill="#000000"></path>
                            <path d="M676.073993,176.220846 C676.073993,180.245629 679.337008,183.50732 683.360467,183.50732 C687.383925,183.50732 690.64694,180.245629 690.64694,176.220846 C690.64694,172.196063 687.383925,168.934373 683.360467,168.934373 C679.337008,168.934373 676.073993,172.196063 676.073993,176.220846" id="Fill-443" fill="#000000"></path>
                            <path d="M515.708248,216.587645 C515.708248,220.611103 518.971264,223.874118 522.994722,223.874118 C527.01818,223.874118 530.281196,220.611103 530.281196,216.587645 C530.281196,212.564187 527.01818,209.301171 522.994722,209.301171 C518.971264,209.301171 515.708248,212.564187 515.708248,216.587645" id="Fill-445" fill="#000000"></path>
                            <path d="M676.073993,176.220846 C676.073993,180.245629 679.337008,183.50732 683.360467,183.50732 C687.383925,183.50732 690.64694,180.245629 690.64694,176.220846 C690.64694,172.196063 687.383925,168.934373 683.360467,168.934373 C679.337008,168.934373 676.073993,172.196063 676.073993,176.220846" id="Fill-449" fill="#000000"></path>
                            <path d="M735.744912,303.184336 C735.744912,307.207794 739.006603,310.469485 743.031386,310.469485 C747.054844,310.469485 750.317859,307.207794 750.317859,303.184336 C750.317859,299.159553 747.054844,295.897863 743.031386,295.897863 C739.006603,295.897863 735.744912,299.159553 735.744912,303.184336" id="Fill-455" fill="#000000"></path>
                            <path d="M553.883276,298.551331 C553.883276,302.576114 557.144966,305.837805 561.169749,305.837805 C565.194532,305.837805 568.456223,302.576114 568.456223,298.551331 C568.456223,294.526548 565.194532,291.264858 561.169749,291.264858 C557.144966,291.264858 553.883276,294.526548 553.883276,298.551331" id="Fill-457" fill="#000000"></path>
                            <path d="M745.041923,331.467247 C745.041923,335.490705 748.304938,338.753721 752.328396,338.753721 C756.353179,338.753721 759.61487,335.490705 759.61487,331.467247 C759.61487,327.443789 756.353179,324.180773 752.328396,324.180773 C748.304938,324.180773 745.041923,327.443789 745.041923,331.467247" id="Fill-459" fill="#000000"></path>
                            <path d="M769.210758,235.089723 C769.210758,239.114506 772.473773,242.376197 776.497232,242.376197 C780.522015,242.376197 783.783705,239.114506 783.783705,235.089723 C783.783705,231.06494 780.522015,227.80325 776.497232,227.80325 C772.473773,227.80325 769.210758,231.06494 769.210758,235.089723" id="Fill-461" fill="#000000"></path>
                            <path d="M745.041923,331.467247 C745.041923,335.490705 748.304938,338.753721 752.328396,338.753721 C756.353179,338.753721 759.61487,335.490705 759.61487,331.467247 C759.61487,327.443789 756.353179,324.180773 752.328396,324.180773 C748.304938,324.180773 745.041923,327.443789 745.041923,331.467247" id="Fill-463" fill="#000000"></path>
                            <path d="M735.744912,303.184336 C735.744912,307.207794 739.006603,310.469485 743.031386,310.469485 C747.054844,310.469485 750.317859,307.207794 750.317859,303.184336 C750.317859,299.159553 747.054844,295.897863 743.031386,295.897863 C739.006603,295.897863 735.744912,299.159553 735.744912,303.184336" id="Fill-465" fill="#000000"></path>
                            <path d="M769.210758,235.089723 C769.210758,239.114506 772.473773,242.376197 776.497232,242.376197 C780.522015,242.376197 783.783705,239.114506 783.783705,235.089723 C783.783705,231.06494 780.522015,227.80325 776.497232,227.80325 C772.473773,227.80325 769.210758,231.06494 769.210758,235.089723" id="Fill-467" fill="#000000"></path>
                            <path d="M866.108403,426.023285 C866.108403,430.046743 869.370094,433.309758 873.394877,433.309758 C877.418335,433.309758 880.68135,430.046743 880.68135,426.023285 C880.68135,421.999826 877.418335,418.736811 873.394877,418.736811 C869.370094,418.736811 866.108403,421.999826 866.108403,426.023285" id="Fill-469" fill="#000000"></path>
                            <path d="M745.041923,331.467247 C745.041923,335.490705 748.304938,338.753721 752.328396,338.753721 C756.353179,338.753721 759.61487,335.490705 759.61487,331.467247 C759.61487,327.443789 756.353179,324.180773 752.328396,324.180773 C748.304938,324.180773 745.041923,327.443789 745.041923,331.467247" id="Fill-471" fill="#000000"></path>
                            <path d="M769.210758,235.089723 C769.210758,239.114506 772.473773,242.376197 776.497232,242.376197 C780.522015,242.376197 783.783705,239.114506 783.783705,235.089723 C783.783705,231.06494 780.522015,227.80325 776.497232,227.80325 C772.473773,227.80325 769.210758,231.06494 769.210758,235.089723" id="Fill-473" fill="#000000"></path>
                            <path d="M676.073993,176.220846 C676.073993,180.245629 679.337008,183.50732 683.360467,183.50732 C687.383925,183.50732 690.64694,180.245629 690.64694,176.220846 C690.64694,172.196063 687.383925,168.934373 683.360467,168.934373 C679.337008,168.934373 676.073993,172.196063 676.073993,176.220846" id="Fill-475" fill="#000000"></path>
                            <path d="M769.210758,235.089723 C769.210758,239.114506 772.473773,242.376197 776.497232,242.376197 C780.522015,242.376197 783.783705,239.114506 783.783705,235.089723 C783.783705,231.06494 780.522015,227.80325 776.497232,227.80325 C772.473773,227.80325 769.210758,231.06494 769.210758,235.089723" id="Fill-479" fill="#000000"></path>
                            <path d="M866.108403,426.023285 C866.108403,430.046743 869.370094,433.309758 873.394877,433.309758 C877.418335,433.309758 880.68135,430.046743 880.68135,426.023285 C880.68135,421.999826 877.418335,418.736811 873.394877,418.736811 C869.370094,418.736811 866.108403,421.999826 866.108403,426.023285" id="Fill-481" fill="#000000"></path>
                            <path d="M802.818756,411.514988 C802.818756,415.538447 806.081772,418.801462 810.10523,418.801462 C814.130013,418.801462 817.391703,415.538447 817.391703,411.514988 C817.391703,407.49153 814.130013,404.228515 810.10523,404.228515 C806.081772,404.228515 802.818756,407.49153 802.818756,411.514988" id="Fill-485" fill="#000000"></path>
                            <path d="M866.108403,426.023285 C866.108403,430.046743 869.370094,433.309758 873.394877,433.309758 C877.418335,433.309758 880.68135,430.046743 880.68135,426.023285 C880.68135,421.999826 877.418335,418.736811 873.394877,418.736811 C869.370094,418.736811 866.108403,421.999826 866.108403,426.023285" id="Fill-487" fill="#000000"></path>
                            <path d="M745.041923,331.467247 C745.041923,335.490705 748.304938,338.753721 752.328396,338.753721 C756.353179,338.753721 759.61487,335.490705 759.61487,331.467247 C759.61487,327.443789 756.353179,324.180773 752.328396,324.180773 C748.304938,324.180773 745.041923,327.443789 745.041923,331.467247" id="Fill-489" fill="#000000"></path>
                            <path d="M802.818756,411.514988 C802.818756,415.538447 806.081772,418.801462 810.10523,418.801462 C814.130013,418.801462 817.391703,415.538447 817.391703,411.514988 C817.391703,407.49153 814.130013,404.228515 810.10523,404.228515 C806.081772,404.228515 802.818756,407.49153 802.818756,411.514988" id="Fill-491" fill="#000000"></path>
                            <path d="M567.919276,438.655513 C567.919276,442.678971 571.182291,445.941986 575.20575,445.941986 C579.229208,445.941986 582.492223,442.678971 582.492223,438.655513 C582.492223,434.632054 579.229208,431.369039 575.20575,431.369039 C571.182291,431.369039 567.919276,434.632054 567.919276,438.655513" id="Fill-493" fill="#000000"></path>
                            <path d="M745.041923,331.467247 C745.041923,335.490705 748.304938,338.753721 752.328396,338.753721 C756.353179,338.753721 759.61487,335.490705 759.61487,331.467247 C759.61487,327.443789 756.353179,324.180773 752.328396,324.180773 C748.304938,324.180773 745.041923,327.443789 745.041923,331.467247" id="Fill-495" fill="#000000"></path>
                            <path d="M802.818756,411.514988 C802.818756,415.538447 806.081772,418.801462 810.10523,418.801462 C814.130013,418.801462 817.391703,415.538447 817.391703,411.514988 C817.391703,407.49153 814.130013,404.228515 810.10523,404.228515 C806.081772,404.228515 802.818756,407.49153 802.818756,411.514988" id="Fill-497" fill="#000000"></path>
                            <path d="M871.843653,490.289584 C871.843653,494.313042 875.106668,497.576058 879.130126,497.576058 C883.154909,497.576058 886.4166,494.313042 886.4166,490.289584 C886.4166,486.266126 883.154909,483.00311 879.130126,483.00311 C875.106668,483.00311 871.843653,486.266126 871.843653,490.289584" id="Fill-499" fill="#000000"></path>
                            <path d="M866.108403,426.023285 C866.108403,430.046743 869.370094,433.309758 873.394877,433.309758 C877.418335,433.309758 880.68135,430.046743 880.68135,426.023285 C880.68135,421.999826 877.418335,418.736811 873.394877,418.736811 C869.370094,418.736811 866.108403,421.999826 866.108403,426.023285" id="Fill-501" fill="#000000"></path>
                            <path d="M743.551508,609.723365 C743.551508,613.748148 746.813198,617.009838 750.837981,617.009838 C754.861439,617.009838 758.124455,613.748148 758.124455,609.723365 C758.124455,605.698582 754.861439,602.436891 750.837981,602.436891 C746.813198,602.436891 743.551508,605.698582 743.551508,609.723365" id="Fill-503" fill="#000000"></path>
                            <path d="M608.181149,741.041649 C608.181149,745.065107 611.444165,748.328122 615.467623,748.328122 C619.491081,748.328122 622.754097,745.065107 622.754097,741.041649 C622.754097,737.01819 619.491081,733.755175 615.467623,733.755175 C611.444165,733.755175 608.181149,737.01819 608.181149,741.041649" id="Fill-505" fill="#000000"></path>
                            <path d="M659.055838,598.093755 C659.055838,602.117214 662.317528,605.380229 666.342311,605.380229 C670.36577,605.380229 673.628785,602.117214 673.628785,598.093755 C673.628785,594.070297 670.36577,590.807282 666.342311,590.807282 C662.317528,590.807282 659.055838,594.070297 659.055838,598.093755" id="Fill-507" fill="#000000"></path>
                            <path d="M211.927481,404.011113 C211.927481,408.034571 215.190497,411.297586 219.213955,411.297586 C223.237413,411.297586 226.500428,408.034571 226.500428,404.011113 C226.500428,399.987655 223.237413,396.724639 219.213955,396.724639 C215.190497,396.724639 211.927481,399.987655 211.927481,404.011113" id="Fill-578" fill="#000000"></path>
                            <path d="M211.927481,404.011113 C211.927481,408.034571 215.190497,411.297586 219.213955,411.297586 C223.237413,411.297586 226.500428,408.034571 226.500428,404.011113 C226.500428,399.987655 223.237413,396.724639 219.213955,396.724639 C215.190497,396.724639 211.927481,399.987655 211.927481,404.011113" id="Fill-584" fill="#000000"></path>
                            <path d="M327.604091,400.241091 C327.604091,404.26455 330.865782,407.527565 334.890565,407.527565 C338.915348,407.527565 342.177038,404.26455 342.177038,400.241091 C342.177038,396.217633 338.915348,392.954618 334.890565,392.954618 C330.865782,392.954618 327.604091,396.217633 327.604091,400.241091" id="Fill-586" fill="#000000"></path>
                            <path d="M211.927481,404.011113 C211.927481,408.034571 215.190497,411.297586 219.213955,411.297586 C223.237413,411.297586 226.500428,408.034571 226.500428,404.011113 C226.500428,399.987655 223.237413,396.724639 219.213955,396.724639 C215.190497,396.724639 211.927481,399.987655 211.927481,404.011113" id="Fill-590" fill="#000000"></path>
                            <path d="M211.927481,404.011113 C211.927481,408.034571 215.190497,411.297586 219.213955,411.297586 C223.237413,411.297586 226.500428,408.034571 226.500428,404.011113 C226.500428,399.987655 223.237413,396.724639 219.213955,396.724639 C215.190497,396.724639 211.927481,399.987655 211.927481,404.011113" id="Fill-596" fill="#000000"></path>
                            <path d="M283.824441,509.455394 C283.824441,513.478852 287.087456,516.741868 291.110914,516.741868 C295.134373,516.741868 298.397388,513.478852 298.397388,509.455394 C298.397388,505.431936 295.134373,502.168921 291.110914,502.168921 C287.087456,502.168921 283.824441,505.431936 283.824441,509.455394" id="Fill-598" fill="#000000"></path>
                            <path d="M327.604091,400.241091 C327.604091,404.26455 330.865782,407.527565 334.890565,407.527565 C338.915348,407.527565 342.177038,404.26455 342.177038,400.241091 C342.177038,396.217633 338.915348,392.954618 334.890565,392.954618 C330.865782,392.954618 327.604091,396.217633 327.604091,400.241091" id="Fill-600" fill="#000000"></path>
                            <path d="M515.708248,216.587645 C515.708248,220.611103 518.971264,223.874118 522.994722,223.874118 C527.01818,223.874118 530.281196,220.611103 530.281196,216.587645 C530.281196,212.564187 527.01818,209.301171 522.994722,209.301171 C518.971264,209.301171 515.708248,212.564187 515.708248,216.587645" id="Fill-616" fill="#000000"></path>
                            <path d="M492.170819,326.78125 C492.170819,330.804708 495.43251,334.067723 499.457293,334.067723 C503.482076,334.067723 506.743766,330.804708 506.743766,326.78125 C506.743766,322.757791 503.482076,319.494776 499.457293,319.494776 C495.43251,319.494776 492.170819,322.757791 492.170819,326.78125" id="Fill-620" fill="#000000"></path>
                            <path d="M515.708248,216.587645 C515.708248,220.611103 518.971264,223.874118 522.994722,223.874118 C527.01818,223.874118 530.281196,220.611103 530.281196,216.587645 C530.281196,212.564187 527.01818,209.301171 522.994722,209.301171 C518.971264,209.301171 515.708248,212.564187 515.708248,216.587645" id="Fill-624" fill="#000000"></path>
                            <path d="M492.170819,326.78125 C492.170819,330.804708 495.43251,334.067723 499.457293,334.067723 C503.482076,334.067723 506.743766,330.804708 506.743766,326.78125 C506.743766,322.757791 503.482076,319.494776 499.457293,319.494776 C495.43251,319.494776 492.170819,322.757791 492.170819,326.78125" id="Fill-626" fill="#000000"></path>
                            <path d="M398.916278,426.320838 C398.916278,430.344296 402.177969,433.607311 406.202752,433.607311 C410.227535,433.607311 413.489225,430.344296 413.489225,426.320838 C413.489225,422.297379 410.227535,419.034364 406.202752,419.034364 C402.177969,419.034364 398.916278,422.297379 398.916278,426.320838" id="Fill-628" fill="#000000"></path>
                            <path d="M492.170819,326.78125 C492.170819,330.804708 495.43251,334.067723 499.457293,334.067723 C503.482076,334.067723 506.743766,330.804708 506.743766,326.78125 C506.743766,322.757791 503.482076,319.494776 499.457293,319.494776 C495.43251,319.494776 492.170819,322.757791 492.170819,326.78125" id="Fill-632" fill="#000000"></path>
                            <path d="M398.916278,426.320838 C398.916278,430.344296 402.177969,433.607311 406.202752,433.607311 C410.227535,433.607311 413.489225,430.344296 413.489225,426.320838 C413.489225,422.297379 410.227535,419.034364 406.202752,419.034364 C402.177969,419.034364 398.916278,422.297379 398.916278,426.320838" id="Fill-634" fill="#000000"></path>
                            <path d="M567.919276,438.655513 C567.919276,442.678971 571.182291,445.941986 575.20575,445.941986 C579.229208,445.941986 582.492223,442.678971 582.492223,438.655513 C582.492223,434.632054 579.229208,431.369039 575.20575,431.369039 C571.182291,431.369039 567.919276,434.632054 567.919276,438.655513" id="Fill-636" fill="#000000"></path>
                            <path d="M587.222204,840.953774 C587.222204,844.977233 590.48522,848.240248 594.508678,848.240248 C598.532136,848.240248 601.795152,844.977233 601.795152,840.953774 C601.795152,836.930316 598.532136,833.667301 594.508678,833.667301 C590.48522,833.667301 587.222204,836.930316 587.222204,840.953774" id="Fill-638" fill="#000000"></path>
                            <path d="M500.461236,849.244191 C500.461236,853.26765 503.722927,856.530665 507.74771,856.530665 C511.772493,856.530665 515.034183,853.26765 515.034183,849.244191 C515.034183,845.220733 511.772493,841.957718 507.74771,841.957718 C503.722927,841.957718 500.461236,845.220733 500.461236,849.244191" id="Fill-640" fill="#000000"></path>
                            <path d="M608.181149,741.041649 C608.181149,745.065107 611.444165,748.328122 615.467623,748.328122 C619.491081,748.328122 622.754097,745.065107 622.754097,741.041649 C622.754097,737.01819 619.491081,733.755175 615.467623,733.755175 C611.444165,733.755175 608.181149,737.01819 608.181149,741.041649" id="Fill-642" fill="#000000"></path>
                            <path d="M587.222204,840.953774 C587.222204,844.977233 590.48522,848.240248 594.508678,848.240248 C598.532136,848.240248 601.795152,844.977233 601.795152,840.953774 C601.795152,836.930316 598.532136,833.667301 594.508678,833.667301 C590.48522,833.667301 587.222204,836.930316 587.222204,840.953774" id="Fill-644" fill="#000000"></path>
                            <path d="M566.613937,901.346584 C566.613937,905.370043 569.875628,908.633058 573.900411,908.633058 C577.925194,908.633058 581.186885,905.370043 581.186885,901.346584 C581.186885,897.323126 577.925194,894.060111 573.900411,894.060111 C569.875628,894.060111 566.613937,897.323126 566.613937,901.346584" id="Fill-646" fill="#000000"></path>
                            <path d="M500.461236,849.244191 C500.461236,853.26765 503.722927,856.530665 507.74771,856.530665 C511.772493,856.530665 515.034183,853.26765 515.034183,849.244191 C515.034183,845.220733 511.772493,841.957718 507.74771,841.957718 C503.722927,841.957718 500.461236,845.220733 500.461236,849.244191" id="Fill-648" fill="#000000"></path>
                            <path d="M774.302943,737.628664 C774.302943,741.652123 777.565959,744.915138 781.589417,744.915138 C785.6142,744.915138 788.87589,741.652123 788.87589,737.628664 C788.87589,733.605206 785.6142,730.342191 781.589417,730.342191 C777.565959,730.342191 774.302943,733.605206 774.302943,737.628664" id="Fill-650" fill="#000000"></path>
                            <path d="M743.551508,609.723365 C743.551508,613.748148 746.813198,617.009838 750.837981,617.009838 C754.861439,617.009838 758.124455,613.748148 758.124455,609.723365 C758.124455,605.698582 754.861439,602.436891 750.837981,602.436891 C746.813198,602.436891 743.551508,605.698582 743.551508,609.723365" id="Fill-652" fill="#000000"></path>
                            <path d="M802.66998,613.62282 C802.66998,617.647603 805.932995,620.909294 809.956453,620.909294 C813.981236,620.909294 817.242927,617.647603 817.242927,613.62282 C817.242927,609.598037 813.981236,606.336347 809.956453,606.336347 C805.932995,606.336347 802.66998,609.598037 802.66998,613.62282" id="Fill-654" fill="#000000"></path>
                            <path d="M774.302943,737.628664 C774.302943,741.652123 777.565959,744.915138 781.589417,744.915138 C785.6142,744.915138 788.87589,741.652123 788.87589,737.628664 C788.87589,733.605206 785.6142,730.342191 781.589417,730.342191 C777.565959,730.342191 774.302943,733.605206 774.302943,737.628664" id="Fill-656" fill="#000000"></path>
                            <path d="M608.181149,741.041649 C608.181149,745.065107 611.444165,748.328122 615.467623,748.328122 C619.491081,748.328122 622.754097,745.065107 622.754097,741.041649 C622.754097,737.01819 619.491081,733.755175 615.467623,733.755175 C611.444165,733.755175 608.181149,737.01819 608.181149,741.041649" id="Fill-658" fill="#000000"></path>
                            <path d="M743.551508,609.723365 C743.551508,613.748148 746.813198,617.009838 750.837981,617.009838 C754.861439,617.009838 758.124455,613.748148 758.124455,609.723365 C758.124455,605.698582 754.861439,602.436891 750.837981,602.436891 C746.813198,602.436891 743.551508,605.698582 743.551508,609.723365" id="Fill-660" fill="#000000"></path>
                            <path d="M582.195995,686.720326 C582.195995,690.745109 585.457685,694.006799 589.482468,694.006799 C593.507251,694.006799 596.768942,690.745109 596.768942,686.720326 C596.768942,682.695543 593.507251,679.433852 589.482468,679.433852 C585.457685,679.433852 582.195995,682.695543 582.195995,686.720326" id="Fill-662" fill="#000000"></path>
                            <path d="M659.055838,598.093755 C659.055838,602.117214 662.317528,605.380229 666.342311,605.380229 C670.36577,605.380229 673.628785,602.117214 673.628785,598.093755 C673.628785,594.070297 670.36577,590.807282 666.342311,590.807282 C662.317528,590.807282 659.055838,594.070297 659.055838,598.093755" id="Fill-664" fill="#000000"></path>
                            <path d="M575.857823,564.937121 C575.857823,568.960579 579.120838,572.223595 583.144296,572.223595 C587.167755,572.223595 590.43077,568.960579 590.43077,564.937121 C590.43077,560.913663 587.167755,557.650648 583.144296,557.650648 C579.120838,557.650648 575.857823,560.913663 575.857823,564.937121" id="Fill-666" fill="#000000"></path>
                            <path d="M582.195995,686.720326 C582.195995,690.745109 585.457685,694.006799 589.482468,694.006799 C593.507251,694.006799 596.768942,690.745109 596.768942,686.720326 C596.768942,682.695543 593.507251,679.433852 589.482468,679.433852 C585.457685,679.433852 582.195995,682.695543 582.195995,686.720326" id="Fill-668" fill="#000000"></path>
                            <path d="M608.181149,741.041649 C608.181149,745.065107 611.444165,748.328122 615.467623,748.328122 C619.491081,748.328122 622.754097,745.065107 622.754097,741.041649 C622.754097,737.01819 619.491081,733.755175 615.467623,733.755175 C611.444165,733.755175 608.181149,737.01819 608.181149,741.041649" id="Fill-670" fill="#000000"></path>
                            <path d="M659.055838,598.093755 C659.055838,602.117214 662.317528,605.380229 666.342311,605.380229 C670.36577,605.380229 673.628785,602.117214 673.628785,598.093755 C673.628785,594.070297 670.36577,590.807282 666.342311,590.807282 C662.317528,590.807282 659.055838,594.070297 659.055838,598.093755" id="Fill-672" fill="#000000"></path>
                            <path d="M493.504641,697.258024 C493.504641,701.281482 496.767656,704.544497 500.791115,704.544497 C504.814573,704.544497 508.077588,701.281482 508.077588,697.258024 C508.077588,693.234566 504.814573,689.97155 500.791115,689.97155 C496.767656,689.97155 493.504641,693.234566 493.504641,697.258024" id="Fill-674" fill="#000000"></path>
                            <path d="M414.840005,618.799131 C414.840005,622.822589 418.101695,626.085605 422.126479,626.085605 C426.151262,626.085605 429.412952,622.822589 429.412952,618.799131 C429.412952,614.775673 426.151262,611.512658 422.126479,611.512658 C418.101695,611.512658 414.840005,614.775673 414.840005,618.799131" id="Fill-676" fill="#000000"></path>
                            <path d="M575.857823,564.937121 C575.857823,568.960579 579.120838,572.223595 583.144296,572.223595 C587.167755,572.223595 590.43077,568.960579 590.43077,564.937121 C590.43077,560.913663 587.167755,557.650648 583.144296,557.650648 C579.120838,557.650648 575.857823,560.913663 575.857823,564.937121" id="Fill-678" fill="#000000"></path>
                            <path d="M493.504641,697.258024 C493.504641,701.281482 496.767656,704.544497 500.791115,704.544497 C504.814573,704.544497 508.077588,701.281482 508.077588,697.258024 C508.077588,693.234566 504.814573,689.97155 500.791115,689.97155 C496.767656,689.97155 493.504641,693.234566 493.504641,697.258024" id="Fill-680" fill="#000000"></path>
                            <path d="M582.195995,686.720326 C582.195995,690.745109 585.457685,694.006799 589.482468,694.006799 C593.507251,694.006799 596.768942,690.745109 596.768942,686.720326 C596.768942,682.695543 593.507251,679.433852 589.482468,679.433852 C585.457685,679.433852 582.195995,682.695543 582.195995,686.720326" id="Fill-682" fill="#000000"></path>
                            <path d="M575.857823,564.937121 C575.857823,568.960579 579.120838,572.223595 583.144296,572.223595 C587.167755,572.223595 590.43077,568.960579 590.43077,564.937121 C590.43077,560.913663 587.167755,557.650648 583.144296,557.650648 C579.120838,557.650648 575.857823,560.913663 575.857823,564.937121" id="Fill-684" fill="#000000"></path>
                            <path d="M493.504641,697.258024 C493.504641,701.281482 496.767656,704.544497 500.791115,704.544497 C504.814573,704.544497 508.077588,701.281482 508.077588,697.258024 C508.077588,693.234566 504.814573,689.97155 500.791115,689.97155 C496.767656,689.97155 493.504641,693.234566 493.504641,697.258024" id="Fill-686" fill="#000000"></path>
                            <path d="M414.840005,618.799131 C414.840005,622.822589 418.101695,626.085605 422.126479,626.085605 C426.151262,626.085605 429.412952,622.822589 429.412952,618.799131 C429.412952,614.775673 426.151262,611.512658 422.126479,611.512658 C418.101695,611.512658 414.840005,614.775673 414.840005,618.799131" id="Fill-690" fill="#000000"></path>
                            <path d="M493.504641,697.258024 C493.504641,701.281482 496.767656,704.544497 500.791115,704.544497 C504.814573,704.544497 508.077588,701.281482 508.077588,697.258024 C508.077588,693.234566 504.814573,689.97155 500.791115,689.97155 C496.767656,689.97155 493.504641,693.234566 493.504641,697.258024" id="Fill-692" fill="#000000"></path>
                            <path d="M608.181149,741.041649 C608.181149,745.065107 611.444165,748.328122 615.467623,748.328122 C619.491081,748.328122 622.754097,745.065107 622.754097,741.041649 C622.754097,737.01819 619.491081,733.755175 615.467623,733.755175 C611.444165,733.755175 608.181149,737.01819 608.181149,741.041649" id="Fill-694" fill="#000000"></path>
                            <path d="M582.195995,686.720326 C582.195995,690.745109 585.457685,694.006799 589.482468,694.006799 C593.507251,694.006799 596.768942,690.745109 596.768942,686.720326 C596.768942,682.695543 593.507251,679.433852 589.482468,679.433852 C585.457685,679.433852 582.195995,682.695543 582.195995,686.720326" id="Fill-696" fill="#000000"></path>
                            <path d="M493.504641,697.258024 C493.504641,701.281482 496.767656,704.544497 500.791115,704.544497 C504.814573,704.544497 508.077588,701.281482 508.077588,697.258024 C508.077588,693.234566 504.814573,689.97155 500.791115,689.97155 C496.767656,689.97155 493.504641,693.234566 493.504641,697.258024" id="Fill-698" fill="#000000"></path>
                            <path d="M500.461236,849.244191 C500.461236,853.26765 503.722927,856.530665 507.74771,856.530665 C511.772493,856.530665 515.034183,853.26765 515.034183,849.244191 C515.034183,845.220733 511.772493,841.957718 507.74771,841.957718 C503.722927,841.957718 500.461236,845.220733 500.461236,849.244191" id="Fill-700" fill="#000000"></path>
                            <path d="M608.181149,741.041649 C608.181149,745.065107 611.444165,748.328122 615.467623,748.328122 C619.491081,748.328122 622.754097,745.065107 622.754097,741.041649 C622.754097,737.01819 619.491081,733.755175 615.467623,733.755175 C611.444165,733.755175 608.181149,737.01819 608.181149,741.041649" id="Fill-702" fill="#000000"></path>
                            <path d="M493.504641,697.258024 C493.504641,701.281482 496.767656,704.544497 500.791115,704.544497 C504.814573,704.544497 508.077588,701.281482 508.077588,697.258024 C508.077588,693.234566 504.814573,689.97155 500.791115,689.97155 C496.767656,689.97155 493.504641,693.234566 493.504641,697.258024" id="Fill-704" fill="#000000"></path>
                            <path d="M493.504641,697.258024 C493.504641,701.281482 496.767656,704.544497 500.791115,704.544497 C504.814573,704.544497 508.077588,701.281482 508.077588,697.258024 C508.077588,693.234566 504.814573,689.97155 500.791115,689.97155 C496.767656,689.97155 493.504641,693.234566 493.504641,697.258024" id="Fill-710" fill="#000000"></path>
                            <path d="M500.461236,849.244191 C500.461236,853.26765 503.722927,856.530665 507.74771,856.530665 C511.772493,856.530665 515.034183,853.26765 515.034183,849.244191 C515.034183,845.220733 511.772493,841.957718 507.74771,841.957718 C503.722927,841.957718 500.461236,845.220733 500.461236,849.244191" id="Fill-714" fill="#000000"></path>
                            <path d="M394.610635,601.434272 C394.610635,605.457731 397.872325,608.720746 401.897108,608.720746 C405.921891,608.720746 409.183582,605.457731 409.183582,601.434272 C409.183582,597.410814 405.921891,594.147799 401.897108,594.147799 C397.872325,594.147799 394.610635,597.410814 394.610635,601.434272" id="Fill-736" fill="#000000"></path>
                            <path d="M283.824441,509.455394 C283.824441,513.478852 287.087456,516.741868 291.110914,516.741868 C295.134373,516.741868 298.397388,513.478852 298.397388,509.455394 C298.397388,505.431936 295.134373,502.168921 291.110914,502.168921 C287.087456,502.168921 283.824441,505.431936 283.824441,509.455394" id="Fill-738" fill="#000000"></path>
                            <path d="M394.610635,601.434272 C394.610635,605.457731 397.872325,608.720746 401.897108,608.720746 C405.921891,608.720746 409.183582,605.457731 409.183582,601.434272 C409.183582,597.410814 405.921891,594.147799 401.897108,594.147799 C397.872325,594.147799 394.610635,597.410814 394.610635,601.434272" id="Fill-744" fill="#000000"></path>
                            <path d="M283.824441,509.455394 C283.824441,513.478852 287.087456,516.741868 291.110914,516.741868 C295.134373,516.741868 298.397388,513.478852 298.397388,509.455394 C298.397388,505.431936 295.134373,502.168921 291.110914,502.168921 C287.087456,502.168921 283.824441,505.431936 283.824441,509.455394" id="Fill-754" fill="#000000"></path>
                            <path d="M211.927481,404.011113 C211.927481,408.034571 215.190497,411.297586 219.213955,411.297586 C223.237413,411.297586 226.500428,408.034571 226.500428,404.011113 C226.500428,399.987655 223.237413,396.724639 219.213955,396.724639 C215.190497,396.724639 211.927481,399.987655 211.927481,404.011113" id="Fill-756" fill="#000000"></path>
                            <path d="M211.927481,404.011113 C211.927481,408.034571 215.190497,411.297586 219.213955,411.297586 C223.237413,411.297586 226.500428,408.034571 226.500428,404.011113 C226.500428,399.987655 223.237413,396.724639 219.213955,396.724639 C215.190497,396.724639 211.927481,399.987655 211.927481,404.011113" id="Fill-762" fill="#000000"></path>
                            <path d="M283.824441,509.455394 C283.824441,513.478852 287.087456,516.741868 291.110914,516.741868 C295.134373,516.741868 298.397388,513.478852 298.397388,509.455394 C298.397388,505.431936 295.134373,502.168921 291.110914,502.168921 C287.087456,502.168921 283.824441,505.431936 283.824441,509.455394" id="Fill-768" fill="#000000"></path>
                            <path d="M345.972894,326.994677 C345.972894,331.01946 349.234584,334.281151 353.259367,334.281151 C357.28415,334.281151 360.545841,331.01946 360.545841,326.994677 C360.545841,322.969894 357.28415,319.708203 353.259367,319.708203 C349.234584,319.708203 345.972894,322.969894 345.972894,326.994677" id="Fill-818" fill="#000000"></path>
                            <path d="M345.972894,326.994677 C345.972894,331.01946 349.234584,334.281151 353.259367,334.281151 C357.28415,334.281151 360.545841,331.01946 360.545841,326.994677 C360.545841,322.969894 357.28415,319.708203 353.259367,319.708203 C349.234584,319.708203 345.972894,322.969894 345.972894,326.994677" id="Fill-824" fill="#000000"></path>
                            <path d="M345.972894,326.994677 C345.972894,331.01946 349.234584,334.281151 353.259367,334.281151 C357.28415,334.281151 360.545841,331.01946 360.545841,326.994677 C360.545841,322.969894 357.28415,319.708203 353.259367,319.708203 C349.234584,319.708203 345.972894,322.969894 345.972894,326.994677" id="Fill-830" fill="#000000"></path>
                            <path d="M398.916278,426.320838 C398.916278,430.344296 402.177969,433.607311 406.202752,433.607311 C410.227535,433.607311 413.489225,430.344296 413.489225,426.320838 C413.489225,422.297379 410.227535,419.034364 406.202752,419.034364 C402.177969,419.034364 398.916278,422.297379 398.916278,426.320838" id="Fill-832" fill="#000000"></path>
                            <path d="M345.972894,326.994677 C345.972894,331.01946 349.234584,334.281151 353.259367,334.281151 C357.28415,334.281151 360.545841,331.01946 360.545841,326.994677 C360.545841,322.969894 357.28415,319.708203 353.259367,319.708203 C349.234584,319.708203 345.972894,322.969894 345.972894,326.994677" id="Fill-836" fill="#000000"></path>
                            <path d="M327.604091,400.241091 C327.604091,404.26455 330.865782,407.527565 334.890565,407.527565 C338.915348,407.527565 342.177038,404.26455 342.177038,400.241091 C342.177038,396.217633 338.915348,392.954618 334.890565,392.954618 C330.865782,392.954618 327.604091,396.217633 327.604091,400.241091" id="Fill-838" fill="#000000"></path>
                            <path d="M345.972894,326.994677 C345.972894,331.01946 349.234584,334.281151 353.259367,334.281151 C357.28415,334.281151 360.545841,331.01946 360.545841,326.994677 C360.545841,322.969894 357.28415,319.708203 353.259367,319.708203 C349.234584,319.708203 345.972894,322.969894 345.972894,326.994677" id="Fill-842" fill="#000000"></path>
                            <path d="M398.916278,426.320838 C398.916278,430.344296 402.177969,433.607311 406.202752,433.607311 C410.227535,433.607311 413.489225,430.344296 413.489225,426.320838 C413.489225,422.297379 410.227535,419.034364 406.202752,419.034364 C402.177969,419.034364 398.916278,422.297379 398.916278,426.320838" id="Fill-844" fill="#000000"></path>
                            <path d="M327.604091,400.241091 C327.604091,404.26455 330.865782,407.527565 334.890565,407.527565 C338.915348,407.527565 342.177038,404.26455 342.177038,400.241091 C342.177038,396.217633 338.915348,392.954618 334.890565,392.954618 C330.865782,392.954618 327.604091,396.217633 327.604091,400.241091" id="Fill-846" fill="#000000"></path>
                            <path d="M522.064438,311.059424 C522.064438,315.082882 525.326129,318.345898 529.350912,318.345898 C533.375695,318.345898 536.637385,315.082882 536.637385,311.059424 C536.637385,307.034641 533.375695,303.772951 529.350912,303.772951 C525.326129,303.772951 522.064438,307.034641 522.064438,311.059424" id="Fill-848" fill="#000000"></path>
                            <path d="M553.883276,298.551331 C553.883276,302.576114 557.144966,305.837805 561.169749,305.837805 C565.194532,305.837805 568.456223,302.576114 568.456223,298.551331 C568.456223,294.526548 565.194532,291.264858 561.169749,291.264858 C557.144966,291.264858 553.883276,294.526548 553.883276,298.551331" id="Fill-850" fill="#000000"></path>
                            <path d="M515.708248,216.587645 C515.708248,220.611103 518.971264,223.874118 522.994722,223.874118 C527.01818,223.874118 530.281196,220.611103 530.281196,216.587645 C530.281196,212.564187 527.01818,209.301171 522.994722,209.301171 C518.971264,209.301171 515.708248,212.564187 515.708248,216.587645" id="Fill-852" fill="#000000"></path>
                            <path d="M522.064438,311.059424 C522.064438,315.082882 525.326129,318.345898 529.350912,318.345898 C533.375695,318.345898 536.637385,315.082882 536.637385,311.059424 C536.637385,307.034641 533.375695,303.772951 529.350912,303.772951 C525.326129,303.772951 522.064438,307.034641 522.064438,311.059424" id="Fill-854" fill="#000000"></path>
                            <path d="M492.170819,326.78125 C492.170819,330.804708 495.43251,334.067723 499.457293,334.067723 C503.482076,334.067723 506.743766,330.804708 506.743766,326.78125 C506.743766,322.757791 503.482076,319.494776 499.457293,319.494776 C495.43251,319.494776 492.170819,322.757791 492.170819,326.78125" id="Fill-856" fill="#000000"></path>
                            <path d="M515.708248,216.587645 C515.708248,220.611103 518.971264,223.874118 522.994722,223.874118 C527.01818,223.874118 530.281196,220.611103 530.281196,216.587645 C530.281196,212.564187 527.01818,209.301171 522.994722,209.301171 C518.971264,209.301171 515.708248,212.564187 515.708248,216.587645" id="Fill-858" fill="#000000"></path>
                            <path d="M522.064438,311.059424 C522.064438,315.082882 525.326129,318.345898 529.350912,318.345898 C533.375695,318.345898 536.637385,315.082882 536.637385,311.059424 C536.637385,307.034641 533.375695,303.772951 529.350912,303.772951 C525.326129,303.772951 522.064438,307.034641 522.064438,311.059424" id="Fill-860" fill="#000000"></path>
                            <path d="M567.919276,438.655513 C567.919276,442.678971 571.182291,445.941986 575.20575,445.941986 C579.229208,445.941986 582.492223,442.678971 582.492223,438.655513 C582.492223,434.632054 579.229208,431.369039 575.20575,431.369039 C571.182291,431.369039 567.919276,434.632054 567.919276,438.655513" id="Fill-862" fill="#000000"></path>
                            <path d="M553.883276,298.551331 C553.883276,302.576114 557.144966,305.837805 561.169749,305.837805 C565.194532,305.837805 568.456223,302.576114 568.456223,298.551331 C568.456223,294.526548 565.194532,291.264858 561.169749,291.264858 C557.144966,291.264858 553.883276,294.526548 553.883276,298.551331" id="Fill-864" fill="#000000"></path>
                            <path d="M522.064438,311.059424 C522.064438,315.082882 525.326129,318.345898 529.350912,318.345898 C533.375695,318.345898 536.637385,315.082882 536.637385,311.059424 C536.637385,307.034641 533.375695,303.772951 529.350912,303.772951 C525.326129,303.772951 522.064438,307.034641 522.064438,311.059424" id="Fill-866" fill="#000000"></path>
                            <path d="M567.919276,438.655513 C567.919276,442.678971 571.182291,445.941986 575.20575,445.941986 C579.229208,445.941986 582.492223,442.678971 582.492223,438.655513 C582.492223,434.632054 579.229208,431.369039 575.20575,431.369039 C571.182291,431.369039 567.919276,434.632054 567.919276,438.655513" id="Fill-868" fill="#000000"></path>
                            <path d="M492.170819,326.78125 C492.170819,330.804708 495.43251,334.067723 499.457293,334.067723 C503.482076,334.067723 506.743766,330.804708 506.743766,326.78125 C506.743766,322.757791 503.482076,319.494776 499.457293,319.494776 C495.43251,319.494776 492.170819,322.757791 492.170819,326.78125" id="Fill-870" fill="#000000"></path>
                            <path d="M683.409617,250.449212 C683.409617,254.473995 686.671308,257.735686 690.696091,257.735686 C694.719549,257.735686 697.982564,254.473995 697.982564,250.449212 C697.982564,246.424429 694.719549,243.162739 690.696091,243.162739 C686.671308,243.162739 683.409617,246.424429 683.409617,250.449212" id="Fill-872" fill="#000000"></path>
                            <path d="M769.210758,235.089723 C769.210758,239.114506 772.473773,242.376197 776.497232,242.376197 C780.522015,242.376197 783.783705,239.114506 783.783705,235.089723 C783.783705,231.06494 780.522015,227.80325 776.497232,227.80325 C772.473773,227.80325 769.210758,231.06494 769.210758,235.089723" id="Fill-874" fill="#000000"></path>
                            <path d="M676.073993,176.220846 C676.073993,180.245629 679.337008,183.50732 683.360467,183.50732 C687.383925,183.50732 690.64694,180.245629 690.64694,176.220846 C690.64694,172.196063 687.383925,168.934373 683.360467,168.934373 C679.337008,168.934373 676.073993,172.196063 676.073993,176.220846" id="Fill-876" fill="#000000"></path>
                            <path d="M683.409617,250.449212 C683.409617,254.473995 686.671308,257.735686 690.696091,257.735686 C694.719549,257.735686 697.982564,254.473995 697.982564,250.449212 C697.982564,246.424429 694.719549,243.162739 690.696091,243.162739 C686.671308,243.162739 683.409617,246.424429 683.409617,250.449212" id="Fill-878" fill="#000000"></path>
                            <path d="M515.708248,216.587645 C515.708248,220.611103 518.971264,223.874118 522.994722,223.874118 C527.01818,223.874118 530.281196,220.611103 530.281196,216.587645 C530.281196,212.564187 527.01818,209.301171 522.994722,209.301171 C518.971264,209.301171 515.708248,212.564187 515.708248,216.587645" id="Fill-880" fill="#000000"></path>
                            <path d="M676.073993,176.220846 C676.073993,180.245629 679.337008,183.50732 683.360467,183.50732 C687.383925,183.50732 690.64694,180.245629 690.64694,176.220846 C690.64694,172.196063 687.383925,168.934373 683.360467,168.934373 C679.337008,168.934373 676.073993,172.196063 676.073993,176.220846" id="Fill-882" fill="#000000"></path>
                            <path d="M683.409617,250.449212 C683.409617,254.473995 686.671308,257.735686 690.696091,257.735686 C694.719549,257.735686 697.982564,254.473995 697.982564,250.449212 C697.982564,246.424429 694.719549,243.162739 690.696091,243.162739 C686.671308,243.162739 683.409617,246.424429 683.409617,250.449212" id="Fill-884" fill="#000000"></path>
                            <path d="M735.744912,303.184336 C735.744912,307.207794 739.006603,310.469485 743.031386,310.469485 C747.054844,310.469485 750.317859,307.207794 750.317859,303.184336 C750.317859,299.159553 747.054844,295.897863 743.031386,295.897863 C739.006603,295.897863 735.744912,299.159553 735.744912,303.184336" id="Fill-886" fill="#000000"></path>
                            <path d="M769.210758,235.089723 C769.210758,239.114506 772.473773,242.376197 776.497232,242.376197 C780.522015,242.376197 783.783705,239.114506 783.783705,235.089723 C783.783705,231.06494 780.522015,227.80325 776.497232,227.80325 C772.473773,227.80325 769.210758,231.06494 769.210758,235.089723" id="Fill-888" fill="#000000"></path>
                            <path d="M683.409617,250.449212 C683.409617,254.473995 686.671308,257.735686 690.696091,257.735686 C694.719549,257.735686 697.982564,254.473995 697.982564,250.449212 C697.982564,246.424429 694.719549,243.162739 690.696091,243.162739 C686.671308,243.162739 683.409617,246.424429 683.409617,250.449212" id="Fill-890" fill="#000000"></path>
                            <path d="M553.883276,298.551331 C553.883276,302.576114 557.144966,305.837805 561.169749,305.837805 C565.194532,305.837805 568.456223,302.576114 568.456223,298.551331 C568.456223,294.526548 565.194532,291.264858 561.169749,291.264858 C557.144966,291.264858 553.883276,294.526548 553.883276,298.551331" id="Fill-892" fill="#000000"></path>
                            <path d="M515.708248,216.587645 C515.708248,220.611103 518.971264,223.874118 522.994722,223.874118 C527.01818,223.874118 530.281196,220.611103 530.281196,216.587645 C530.281196,212.564187 527.01818,209.301171 522.994722,209.301171 C518.971264,209.301171 515.708248,212.564187 515.708248,216.587645" id="Fill-894" fill="#000000"></path>
                            <path d="M683.409617,250.449212 C683.409617,254.473995 686.671308,257.735686 690.696091,257.735686 C694.719549,257.735686 697.982564,254.473995 697.982564,250.449212 C697.982564,246.424429 694.719549,243.162739 690.696091,243.162739 C686.671308,243.162739 683.409617,246.424429 683.409617,250.449212" id="Fill-896" fill="#000000"></path>
                            <path d="M553.883276,298.551331 C553.883276,302.576114 557.144966,305.837805 561.169749,305.837805 C565.194532,305.837805 568.456223,302.576114 568.456223,298.551331 C568.456223,294.526548 565.194532,291.264858 561.169749,291.264858 C557.144966,291.264858 553.883276,294.526548 553.883276,298.551331" id="Fill-898" fill="#000000"></path>
                            <path d="M735.744912,303.184336 C735.744912,307.207794 739.006603,310.469485 743.031386,310.469485 C747.054844,310.469485 750.317859,307.207794 750.317859,303.184336 C750.317859,299.159553 747.054844,295.897863 743.031386,295.897863 C739.006603,295.897863 735.744912,299.159553 735.744912,303.184336" id="Fill-900" fill="#000000"></path>
                            <path d="M769.64278,522.024296 C769.64278,526.049079 772.90447,529.31077 776.929253,529.31077 C780.952711,529.31077 784.215727,526.049079 784.215727,522.024296 C784.215727,517.999513 780.952711,514.737823 776.929253,514.737823 C772.90447,514.737823 769.64278,517.999513 769.64278,522.024296" id="Fill-902" fill="#000000"></path>
                            <path d="M871.843653,490.289584 C871.843653,494.313042 875.106668,497.576058 879.130126,497.576058 C883.154909,497.576058 886.4166,494.313042 886.4166,490.289584 C886.4166,486.266126 883.154909,483.00311 879.130126,483.00311 C875.106668,483.00311 871.843653,486.266126 871.843653,490.289584" id="Fill-904" fill="#000000"></path>
                            <path d="M802.818756,411.514988 C802.818756,415.538447 806.081772,418.801462 810.10523,418.801462 C814.130013,418.801462 817.391703,415.538447 817.391703,411.514988 C817.391703,407.49153 814.130013,404.228515 810.10523,404.228515 C806.081772,404.228515 802.818756,407.49153 802.818756,411.514988" id="Fill-906" fill="#000000"></path>
                            <path d="M769.64278,522.024296 C769.64278,526.049079 772.90447,529.31077 776.929253,529.31077 C780.952711,529.31077 784.215727,526.049079 784.215727,522.024296 C784.215727,517.999513 780.952711,514.737823 776.929253,514.737823 C772.90447,514.737823 769.64278,517.999513 769.64278,522.024296" id="Fill-908" fill="#000000"></path>
                            <path d="M567.919276,438.655513 C567.919276,442.678971 571.182291,445.941986 575.20575,445.941986 C579.229208,445.941986 582.492223,442.678971 582.492223,438.655513 C582.492223,434.632054 579.229208,431.369039 575.20575,431.369039 C571.182291,431.369039 567.919276,434.632054 567.919276,438.655513" id="Fill-910" fill="#000000"></path>
                            <path d="M802.818756,411.514988 C802.818756,415.538447 806.081772,418.801462 810.10523,418.801462 C814.130013,418.801462 817.391703,415.538447 817.391703,411.514988 C817.391703,407.49153 814.130013,404.228515 810.10523,404.228515 C806.081772,404.228515 802.818756,407.49153 802.818756,411.514988" id="Fill-912" fill="#000000"></path>
                            <path d="M769.64278,522.024296 C769.64278,526.049079 772.90447,529.31077 776.929253,529.31077 C780.952711,529.31077 784.215727,526.049079 784.215727,522.024296 C784.215727,517.999513 780.952711,514.737823 776.929253,514.737823 C772.90447,514.737823 769.64278,517.999513 769.64278,522.024296" id="Fill-914" fill="#000000"></path>
                            <path d="M802.66998,613.62282 C802.66998,617.647603 805.932995,620.909294 809.956453,620.909294 C813.981236,620.909294 817.242927,617.647603 817.242927,613.62282 C817.242927,609.598037 813.981236,606.336347 809.956453,606.336347 C805.932995,606.336347 802.66998,609.598037 802.66998,613.62282" id="Fill-916" fill="#000000"></path>
                            <path d="M871.843653,490.289584 C871.843653,494.313042 875.106668,497.576058 879.130126,497.576058 C883.154909,497.576058 886.4166,494.313042 886.4166,490.289584 C886.4166,486.266126 883.154909,483.00311 879.130126,483.00311 C875.106668,483.00311 871.843653,486.266126 871.843653,490.289584" id="Fill-918" fill="#000000"></path>
                            <path d="M769.64278,522.024296 C769.64278,526.049079 772.90447,529.31077 776.929253,529.31077 C780.952711,529.31077 784.215727,526.049079 784.215727,522.024296 C784.215727,517.999513 780.952711,514.737823 776.929253,514.737823 C772.90447,514.737823 769.64278,517.999513 769.64278,522.024296" id="Fill-920" fill="#000000"></path>
                            <path d="M659.055838,598.093755 C659.055838,602.117214 662.317528,605.380229 666.342311,605.380229 C670.36577,605.380229 673.628785,602.117214 673.628785,598.093755 C673.628785,594.070297 670.36577,590.807282 666.342311,590.807282 C662.317528,590.807282 659.055838,594.070297 659.055838,598.093755" id="Fill-922" fill="#000000"></path>
                            <path d="M567.919276,438.655513 C567.919276,442.678971 571.182291,445.941986 575.20575,445.941986 C579.229208,445.941986 582.492223,442.678971 582.492223,438.655513 C582.492223,434.632054 579.229208,431.369039 575.20575,431.369039 C571.182291,431.369039 567.919276,434.632054 567.919276,438.655513" id="Fill-924" fill="#000000"></path>
                            <path d="M769.64278,522.024296 C769.64278,526.049079 772.90447,529.31077 776.929253,529.31077 C780.952711,529.31077 784.215727,526.049079 784.215727,522.024296 C784.215727,517.999513 780.952711,514.737823 776.929253,514.737823 C772.90447,514.737823 769.64278,517.999513 769.64278,522.024296" id="Fill-926" fill="#000000"></path>
                            <path d="M743.551508,609.723365 C743.551508,613.748148 746.813198,617.009838 750.837981,617.009838 C754.861439,617.009838 758.124455,613.748148 758.124455,609.723365 C758.124455,605.698582 754.861439,602.436891 750.837981,602.436891 C746.813198,602.436891 743.551508,605.698582 743.551508,609.723365" id="Fill-928" fill="#000000"></path>
                            <path d="M802.66998,613.62282 C802.66998,617.647603 805.932995,620.909294 809.956453,620.909294 C813.981236,620.909294 817.242927,617.647603 817.242927,613.62282 C817.242927,609.598037 813.981236,606.336347 809.956453,606.336347 C805.932995,606.336347 802.66998,609.598037 802.66998,613.62282" id="Fill-930" fill="#000000"></path>
                            <path d="M769.64278,522.024296 C769.64278,526.049079 772.90447,529.31077 776.929253,529.31077 C780.952711,529.31077 784.215727,526.049079 784.215727,522.024296 C784.215727,517.999513 780.952711,514.737823 776.929253,514.737823 C772.90447,514.737823 769.64278,517.999513 769.64278,522.024296" id="Fill-932" fill="#000000"></path>
                            <path d="M659.055838,598.093755 C659.055838,602.117214 662.317528,605.380229 666.342311,605.380229 C670.36577,605.380229 673.628785,602.117214 673.628785,598.093755 C673.628785,594.070297 670.36577,590.807282 666.342311,590.807282 C662.317528,590.807282 659.055838,594.070297 659.055838,598.093755" id="Fill-934" fill="#000000"></path>
                            <path d="M743.551508,609.723365 C743.551508,613.748148 746.813198,617.009838 750.837981,617.009838 C754.861439,617.009838 758.124455,613.748148 758.124455,609.723365 C758.124455,605.698582 754.861439,602.436891 750.837981,602.436891 C746.813198,602.436891 743.551508,605.698582 743.551508,609.723365" id="Fill-936" fill="#000000"></path>
                            <path d="M685.881984,817.893675 C685.881984,821.917133 689.144999,825.180149 693.168457,825.180149 C697.19324,825.180149 700.454931,821.917133 700.454931,817.893675 C700.454931,813.870217 697.19324,810.607202 693.168457,810.607202 C689.144999,810.607202 685.881984,813.870217 685.881984,817.893675" id="Fill-938" fill="#000000"></path>
                            <path d="M608.181149,741.041649 C608.181149,745.065107 611.444165,748.328122 615.467623,748.328122 C619.491081,748.328122 622.754097,745.065107 622.754097,741.041649 C622.754097,737.01819 619.491081,733.755175 615.467623,733.755175 C611.444165,733.755175 608.181149,737.01819 608.181149,741.041649" id="Fill-940" fill="#000000"></path>
                            <path d="M774.302943,737.628664 C774.302943,741.652123 777.565959,744.915138 781.589417,744.915138 C785.6142,744.915138 788.87589,741.652123 788.87589,737.628664 C788.87589,733.605206 785.6142,730.342191 781.589417,730.342191 C777.565959,730.342191 774.302943,733.605206 774.302943,737.628664" id="Fill-942" fill="#000000"></path>
                            <path d="M685.881984,817.893675 C685.881984,821.917133 689.144999,825.180149 693.168457,825.180149 C697.19324,825.180149 700.454931,821.917133 700.454931,817.893675 C700.454931,813.870217 697.19324,810.607202 693.168457,810.607202 C689.144999,810.607202 685.881984,813.870217 685.881984,817.893675" id="Fill-944" fill="#000000"></path>
                            <path d="M762.040736,808.309578 C762.040736,812.333036 765.303751,815.596051 769.327209,815.596051 C773.351992,815.596051 776.613683,812.333036 776.613683,808.309578 C776.613683,804.28612 773.351992,801.023104 769.327209,801.023104 C765.303751,801.023104 762.040736,804.28612 762.040736,808.309578" id="Fill-946" fill="#000000"></path>
                            <path d="M774.302943,737.628664 C774.302943,741.652123 777.565959,744.915138 781.589417,744.915138 C785.6142,744.915138 788.87589,741.652123 788.87589,737.628664 C788.87589,733.605206 785.6142,730.342191 781.589417,730.342191 C777.565959,730.342191 774.302943,733.605206 774.302943,737.628664" id="Fill-948" fill="#000000"></path>
                            <path d="M685.881984,817.893675 C685.881984,821.917133 689.144999,825.180149 693.168457,825.180149 C697.19324,825.180149 700.454931,821.917133 700.454931,817.893675 C700.454931,813.870217 697.19324,810.607202 693.168457,810.607202 C689.144999,810.607202 685.881984,813.870217 685.881984,817.893675" id="Fill-950" fill="#000000"></path>
                            <path d="M587.222204,840.953774 C587.222204,844.977233 590.48522,848.240248 594.508678,848.240248 C598.532136,848.240248 601.795152,844.977233 601.795152,840.953774 C601.795152,836.930316 598.532136,833.667301 594.508678,833.667301 C590.48522,833.667301 587.222204,836.930316 587.222204,840.953774" id="Fill-952" fill="#000000"></path>
                            <path d="M608.181149,741.041649 C608.181149,745.065107 611.444165,748.328122 615.467623,748.328122 C619.491081,748.328122 622.754097,745.065107 622.754097,741.041649 C622.754097,737.01819 619.491081,733.755175 615.467623,733.755175 C611.444165,733.755175 608.181149,737.01819 608.181149,741.041649" id="Fill-954" fill="#000000"></path>
                            <path d="M675.48922,968.261318 C675.48922,972.286101 678.752236,975.547792 682.775694,975.547792 C686.800477,975.547792 690.062168,972.286101 690.062168,968.261318 C690.062168,964.236535 686.800477,960.974845 682.775694,960.974845 C678.752236,960.974845 675.48922,964.236535 675.48922,968.261318" id="Fill-956" fill="#000000"></path>
                            <path d="M685.881984,817.893675 C685.881984,821.917133 689.144999,825.180149 693.168457,825.180149 C697.19324,825.180149 700.454931,821.917133 700.454931,817.893675 C700.454931,813.870217 697.19324,810.607202 693.168457,810.607202 C689.144999,810.607202 685.881984,813.870217 685.881984,817.893675" id="Fill-958" fill="#000000"></path>
                            <path d="M762.040736,808.309578 C762.040736,812.333036 765.303751,815.596051 769.327209,815.596051 C773.351992,815.596051 776.613683,812.333036 776.613683,808.309578 C776.613683,804.28612 773.351992,801.023104 769.327209,801.023104 C765.303751,801.023104 762.040736,804.28612 762.040736,808.309578" id="Fill-960" fill="#000000"></path>
                            <path d="M675.48922,968.261318 C675.48922,972.286101 678.752236,975.547792 682.775694,975.547792 C686.800477,975.547792 690.062168,972.286101 690.062168,968.261318 C690.062168,964.236535 686.800477,960.974845 682.775694,960.974845 C678.752236,960.974845 675.48922,964.236535 675.48922,968.261318" id="Fill-962" fill="#000000"></path>
                            <path d="M763.144305,1054.43632 C763.144305,1058.4611 766.405996,1061.7228 770.430779,1061.7228 C774.454237,1061.7228 777.717252,1058.4611 777.717252,1054.43632 C777.717252,1050.41154 774.454237,1047.14985 770.430779,1047.14985 C766.405996,1047.14985 763.144305,1050.41154 763.144305,1054.43632" id="Fill-964" fill="#000000"></path>
                            <path d="M762.040736,808.309578 C762.040736,812.333036 765.303751,815.596051 769.327209,815.596051 C773.351992,815.596051 776.613683,812.333036 776.613683,808.309578 C776.613683,804.28612 773.351992,801.023104 769.327209,801.023104 C765.303751,801.023104 762.040736,804.28612 762.040736,808.309578" id="Fill-966" fill="#000000"></path>
                            <path d="M675.48922,968.261318 C675.48922,972.286101 678.752236,975.547792 682.775694,975.547792 C686.800477,975.547792 690.062168,972.286101 690.062168,968.261318 C690.062168,964.236535 686.800477,960.974845 682.775694,960.974845 C678.752236,960.974845 675.48922,964.236535 675.48922,968.261318" id="Fill-968" fill="#000000"></path>
                            <path d="M587.222204,840.953774 C587.222204,844.977233 590.48522,848.240248 594.508678,848.240248 C598.532136,848.240248 601.795152,844.977233 601.795152,840.953774 C601.795152,836.930316 598.532136,833.667301 594.508678,833.667301 C590.48522,833.667301 587.222204,836.930316 587.222204,840.953774" id="Fill-970" fill="#000000"></path>
                            <path d="M685.881984,817.893675 C685.881984,821.917133 689.144999,825.180149 693.168457,825.180149 C697.19324,825.180149 700.454931,821.917133 700.454931,817.893675 C700.454931,813.870217 697.19324,810.607202 693.168457,810.607202 C689.144999,810.607202 685.881984,813.870217 685.881984,817.893675" id="Fill-972" fill="#000000"></path>
                            <path d="M675.48922,968.261318 C675.48922,972.286101 678.752236,975.547792 682.775694,975.547792 C686.800477,975.547792 690.062168,972.286101 690.062168,968.261318 C690.062168,964.236535 686.800477,960.974845 682.775694,960.974845 C678.752236,960.974845 675.48922,964.236535 675.48922,968.261318" id="Fill-974" fill="#000000"></path>
                            <path d="M566.613937,901.346584 C566.613937,905.370043 569.875628,908.633058 573.900411,908.633058 C577.925194,908.633058 581.186885,905.370043 581.186885,901.346584 C581.186885,897.323126 577.925194,894.060111 573.900411,894.060111 C569.875628,894.060111 566.613937,897.323126 566.613937,901.346584" id="Fill-976" fill="#000000"></path>
                            <path d="M587.222204,840.953774 C587.222204,844.977233 590.48522,848.240248 594.508678,848.240248 C598.532136,848.240248 601.795152,844.977233 601.795152,840.953774 C601.795152,836.930316 598.532136,833.667301 594.508678,833.667301 C590.48522,833.667301 587.222204,836.930316 587.222204,840.953774" id="Fill-978" fill="#000000"></path>
                            <path d="M675.48922,968.261318 C675.48922,972.286101 678.752236,975.547792 682.775694,975.547792 C686.800477,975.547792 690.062168,972.286101 690.062168,968.261318 C690.062168,964.236535 686.800477,960.974845 682.775694,960.974845 C678.752236,960.974845 675.48922,964.236535 675.48922,968.261318" id="Fill-980" fill="#000000"></path>
                            <path d="M566.613937,901.346584 C566.613937,905.370043 569.875628,908.633058 573.900411,908.633058 C577.925194,908.633058 581.186885,905.370043 581.186885,901.346584 C581.186885,897.323126 577.925194,894.060111 573.900411,894.060111 C569.875628,894.060111 566.613937,897.323126 566.613937,901.346584" id="Fill-984" fill="#000000"></path>
                            <path d="M675.48922,968.261318 C675.48922,972.286101 678.752236,975.547792 682.775694,975.547792 C686.800477,975.547792 690.062168,972.286101 690.062168,968.261318 C690.062168,964.236535 686.800477,960.974845 682.775694,960.974845 C678.752236,960.974845 675.48922,964.236535 675.48922,968.261318" id="Fill-986" fill="#000000"></path>
                            <path d="M763.144305,1054.43632 C763.144305,1058.4611 766.405996,1061.7228 770.430779,1061.7228 C774.454237,1061.7228 777.717252,1058.4611 777.717252,1054.43632 C777.717252,1050.41154 774.454237,1047.14985 770.430779,1047.14985 C766.405996,1047.14985 763.144305,1050.41154 763.144305,1054.43632" id="Fill-988" fill="#000000"></path>
                            <path d="M687.025695,1009.39783 C687.025695,1013.42262 690.288711,1016.68431 694.312169,1016.68431 C698.336952,1016.68431 701.598642,1013.42262 701.598642,1009.39783 C701.598642,1005.37305 698.336952,1002.11136 694.312169,1002.11136 C690.288711,1002.11136 687.025695,1005.37305 687.025695,1009.39783" id="Fill-990" fill="#000000"></path>
                            <path d="M675.48922,968.261318 C675.48922,972.286101 678.752236,975.547792 682.775694,975.547792 C686.800477,975.547792 690.062168,972.286101 690.062168,968.261318 C690.062168,964.236535 686.800477,960.974845 682.775694,960.974845 C678.752236,960.974845 675.48922,964.236535 675.48922,968.261318" id="Fill-992" fill="#000000"></path>
                            <path d="M687.025695,1009.39783 C687.025695,1013.42262 690.288711,1016.68431 694.312169,1016.68431 C698.336952,1016.68431 701.598642,1013.42262 701.598642,1009.39783 C701.598642,1005.37305 698.336952,1002.11136 694.312169,1002.11136 C690.288711,1002.11136 687.025695,1005.37305 687.025695,1009.39783" id="Fill-996" fill="#000000"></path>
                        </g>
                    </g>
                </g>
                <text id="FF7E8F" mask="url(#mask-2)" font-family="PingFangTC-Medium, PingFang TC" font-size="32" font-weight="400" line-spacing="32" fill="#FFFFFF">
                    <tspan x="583" y="662">FF7E8F</tspan>
                </text>
            </g>
        </g>
    </g>
</svg>
