<?xml version="1.0" encoding="utf-8"?>
<!-- Generator: Adobe Illustrator 17.0.0, SVG Export Plug-In . SVG Version: 6.00 Build 0)  -->
<!DOCTYPE svg PUBLIC "-//W3C//DTD SVG 1.1//EN" "http://www.w3.org/Graphics/SVG/1.1/DTD/svg11.dtd">
<svg version="1.1" id="圖層_1" xmlns="http://www.w3.org/2000/svg" xmlns:xlink="http://www.w3.org/1999/xlink" x="0px" y="0px"
	 width="40px" height="40px" viewBox="0 0 40 40" enable-background="new 0 0 40 40" xml:space="preserve">
<path id="TIME_2_" fill-rule="evenodd" clip-rule="evenodd" fill="#ffffff" d="M20,37.1c-9.4,0-17-7.6-17-17c0-9.4,7.6-17,17-17
	c9.4,0,17,7.6,17,17C37,29.5,29.4,37.1,20,37.1z M20,6.3c-7.6,0-13.8,6.2-13.8,13.8c0,7.6,6.2,13.8,13.8,13.8s13.8-6.2,13.8-13.8
	C33.8,12.5,27.6,6.3,20,6.3z M26.9,21.7h-3.2h-2.1H20h0c-0.9,0-1.6-0.7-1.6-1.6v-9.6c0-0.9,0.7-1.6,1.6-1.6c0.9,0,1.6,0.7,1.6,1.6v8
	h2.1h3.2c0.9,0,1.6,0.7,1.6,1.6C28.5,21,27.8,21.7,26.9,21.7z"/>
</svg>
