<?xml version="1.0" encoding="utf-8"?>
<!-- Generator: Adobe Illustrator 17.0.0, SVG Export Plug-In . SVG Version: 6.00 Build 0)  -->
<!DOCTYPE svg PUBLIC "-//W3C//DTD SVG 1.1//EN" "http://www.w3.org/Graphics/SVG/1.1/DTD/svg11.dtd">
<svg version="1.1" id="圖層_1" xmlns="http://www.w3.org/2000/svg" xmlns:xlink="http://www.w3.org/1999/xlink" x="0px" y="0px"
	 width="40px" height="40px" viewBox="0 0 40 40" enable-background="new 0 0 40 40" xml:space="preserve">
<path fill="#fea800" d="M31.1,6.9c0-1.1,0-1.8,0-1.8l-11.1,0l0,0H20h-0.1l0,0l-11.1,0c0,0,0,0.7,0,1.8H1.5v1.2c0,0.3,0,6.8,4.1,10.3
	c1.7,1.5,3.8,2.2,6.2,2.2c0.4,0,0.8,0,1.1-0.1c1.4,1.9,3,3.3,4.8,3.9v5.3h-5.3v3.3h-1.8v1.9h9.2h0.1h9.2v-1.9h-1.8v-3.3h-5.3v-5.3
	c1.8-0.7,3.4-2,4.8-3.9c0.4,0,0.8,0.1,1.1,0.1c2.5,0,4.6-0.7,6.2-2.2c4-3.6,4.1-10.1,4.1-10.3V6.9H31.1z M7.2,16.7
	c-2.3-2-3-5.5-3.2-7.3h5c0.2,2.3,0.7,5.1,1.8,7.6c0.2,0.5,0.4,0.9,0.7,1.3C9.8,18.2,8.4,17.7,7.2,16.7z M32.8,16.7
	c-1.1,1-2.6,1.5-4.3,1.6c0.2-0.4,0.4-0.9,0.7-1.3c1.1-2.5,1.6-5.3,1.8-7.6h5C35.8,11.2,35.1,14.7,32.8,16.7z"/>
</svg>
