<?xml version="1.0" encoding="utf-8"?>
<!-- Generator: Adobe Illustrator 17.0.0, SVG Export Plug-In . SVG Version: 6.00 Build 0)  -->
<!DOCTYPE svg PUBLIC "-//W3C//DTD SVG 1.1//EN" "http://www.w3.org/Graphics/SVG/1.1/DTD/svg11.dtd">
<svg version="1.1" id="圖層_1" xmlns="http://www.w3.org/2000/svg" xmlns:xlink="http://www.w3.org/1999/xlink" x="0px" y="0px"
	 width="1212.4px" height="312.9px" viewBox="0 0 1212.4 312.9" enable-background="new 0 0 1212.4 312.9" xml:space="preserve">
<g>
	<g>
		<path fill="#FC981C" d="M39,171.9l-39,0l0,116.9c0,21.4,15.2,30.2,33.8,19.5L134.9,250l-19.5-33.8L39,260.3L39,171.9z
			 M274.1,165.6c5.9-9.8,2.2-21.1-11.1-28.9L34,4.5C20.6-3.2,9-0.7,3.5,9.3C1.2,13.2,0,18.3,0,24.5l0,118.1l39,0l0-90.3l60,104
			h120.1l-78.3,45.2l19.5,33.8l102.4-59.1C268,173.1,271.8,169.4,274.1,165.6z"/>
	</g>
	<g>
		<path fill="#FFFFFF" d="M341.3,77.3c-1.5-3.2,0.5-6.4,4.2-6.4h32.9c2,0,3.7,1.5,4.2,2.7l40.8,86.1h1.5l40.8-86.1
			c0.5-1.2,2.2-2.7,4.2-2.7h32.9c3.7,0,5.7,3.2,4.2,6.4l-77.6,163.9c-0.7,1.5-2.2,2.7-4.2,2.7h-2.5c-2,0-3.5-1.2-4.2-2.7L341.3,77.3
			z"/>
		<path fill="#FFFFFF" d="M709.6,75.6c0-2.5,2-4.7,4.7-4.7h102.3c2.7,0,4.7,2.2,4.7,4.7v26.9c0,2.5-2,4.7-4.7,4.7h-68.5v35.6h56.4
			c2.5,0,4.7,2.2,4.7,4.7v26.9c0,2.5-2.2,4.7-4.7,4.7h-56.4v60.1c0,2.5-2.2,4.7-4.7,4.7h-29.2c-2.7,0-4.7-2.2-4.7-4.7V75.6z"/>
		<path fill="#FFFFFF" d="M845.8,75.6c0-2.5,2.2-4.7,4.7-4.7h29.7c2.5,0,4.7,2.2,4.7,4.7v163.6c0,2.5-2.2,4.7-4.7,4.7h-29.7
			c-2.5,0-4.7-2.2-4.7-4.7V75.6z"/>
		<path fill="#FFFFFF" d="M911.8,77.3c-1.5-3.2,0.5-6.4,4.2-6.4h32.9c2,0,3.7,1.5,4.2,2.7l40.8,86.1h1.5l40.8-86.1
			c0.5-1.2,2.2-2.7,4.2-2.7h32.9c3.7,0,5.7,3.2,4.2,6.4l-77.6,163.9c-0.7,1.5-2.2,2.7-4.2,2.7h-2.5c-2,0-3.5-1.2-4.2-2.7L911.8,77.3
			z"/>
		<path fill="#FFFFFF" d="M1100.7,75.6c0-2.5,2-4.7,4.7-4.7h102.3c2.7,0,4.7,2.2,4.7,4.7v26.9c0,2.5-2,4.7-4.7,4.7h-68.5v30.7h56.4
			c2.5,0,4.7,2.2,4.7,4.7v26.9c0,2.7-2.2,4.7-4.7,4.7h-56.4v33.4h68.5c2.7,0,4.7,2.2,4.7,4.7v26.9c0,2.5-2,4.7-4.7,4.7h-102.3
			c-2.7,0-4.7-2.2-4.7-4.7V75.6z"/>
		<path fill="#FFFFFF" d="M598.1,191.5l19.9,47c0.5,3.2-1.7,5.4-4.7,5.4h-21.7h-4.4h-3c-2.2,0-4.4-2-4.7-4l-31-83.3l-0.1-0.3h-0.5
			l-32.5,83.6c-0.2,2-2.2,4-4.7,4h-29.2c-3,0-5.2-2.2-4.7-5.4l64-163.6c0.2-2.2,2.5-4,4.4-4h4c1.2,0,3.5,1,4.2,2.5L598.1,191.5z"/>
		<path fill="#FFFFFF" d="M590.6,131.2l20.9-56.4c0.2-2.2,2.5-4,4.4-4h4c1.2,0,3.5,1,4.2,2.5l44.7,118.1l19.9,47
			c0.5,3.2-1.7,5.4-4.7,5.4h-21.7h-4.4h-3c-2.2,0-4.4-2-4.7-4l-31-83.3l-0.1-0.3h-0.5l-9.3,24L590.6,131.2z"/>
	</g>
</g>
</svg>
