<?xml version="1.0" encoding="utf-8"?>
<!-- Generator: Adobe Illustrator 17.0.0, SVG Export Plug-In . SVG Version: 6.00 Build 0)  -->
<!DOCTYPE svg PUBLIC "-//W3C//DTD SVG 1.1//EN" "http://www.w3.org/Graphics/SVG/1.1/DTD/svg11.dtd">
<svg version="1.1" id="ROW_1" xmlns="http://www.w3.org/2000/svg" xmlns:xlink="http://www.w3.org/1999/xlink" x="0px" y="0px"
	 width="48px" height="64px" viewBox="0 0 48 64" enable-background="new 0 0 48 64" xml:space="preserve">
<path id="PIN_2_2_" fill-rule="evenodd" fill="#ffffff" clip-rule="evenodd" d="M24,64c0,0-24-26.7-24-40C0,10.7,10.7,0,24,0c13.3,0,24,10.7,24,24
	C48,37.3,24,64,24,64z M24,8C15.2,8,8,15.2,8,24c0,8.8,7.2,16,16,16c8.8,0,16-7.2,16-16C40,15.2,32.8,8,24,8z M24,32
	c-4.4,0-8-3.6-8-8c0-4.4,3.6-8,8-8c4.4,0,8,3.6,8,8C32,28.4,28.4,32,24,32z"/>
</svg>
