<?xml version="1.0" encoding="utf-8"?>
<!-- Generator: Adobe Illustrator 17.0.0, SVG Export Plug-In . SVG Version: 6.00 Build 0)  -->
<!DOCTYPE svg PUBLIC "-//W3C//DTD SVG 1.1//EN" "http://www.w3.org/Graphics/SVG/1.1/DTD/svg11.dtd">
<svg version="1.1" id="ROW_1" xmlns="http://www.w3.org/2000/svg" xmlns:xlink="http://www.w3.org/1999/xlink" x="0px" y="0px"
	 width="56px" height="44px" viewBox="0 0 56 44" enable-background="new 0 0 56 44" xml:space="preserve">
<g>
	<path fill="#ffffff" d="M0,40.2C0,31.6,0,23,0,14.4c1,0.8,1.9,1.7,2.9,2.4c6.2,4.3,12.3,8.7,18.6,12.9c2.3,1.6,4.9,2.9,7.8,2.1
		c1.9-0.5,3.8-1.4,5.6-2.4c2.1-1.3,4.1-2.8,6.1-4.2c5-3.5,10-7,15.1-10.5c0,0.9,0,2,0,3c0,7,0,14,0,21c0,3.2-2,5.2-5.2,5.4
		c-0.1,0-0.3,0-0.4,0c-14.9,0-29.8,0-44.7,0c-2,0-3.7-0.6-4.8-2.3C0.5,41.3,0.3,40.7,0,40.2z"/>
	<path fill="#ffffff" d="M0,6.7C0,6,0,5.3,0,4.5C0.1,4.3,0.2,4,0.2,3.8c0.7-2.4,2-3.6,4.5-3.7C6.8,0,8.8,0,10.9,0C24,0,37,0,50.1,0
		c1.4,0,2.7,0.1,3.8,1c2,1.6,2.6,4,1.5,6.7c-1,2.6-3,4.5-5.2,6.1c-5.6,3.9-11.2,7.8-16.9,11.7c-1,0.7-2.1,1.3-3.2,1.9
		c-1.4,0.7-2.9,0.8-4.3,0c-1.2-0.6-2.4-1.3-3.5-2c-5.2-3.6-10.4-7.3-15.7-10.9C3.7,12.5,1.3,10.1,0,6.7z"/>
</g>
</svg>
