<?xml version="1.0" encoding="utf-8"?>
<!-- Generator: Adobe Illustrator 17.0.0, SVG Export Plug-In . SVG Version: 6.00 Build 0)  -->
<!DOCTYPE svg PUBLIC "-//W3C//DTD SVG 1.1//EN" "http://www.w3.org/Graphics/SVG/1.1/DTD/svg11.dtd">
<svg version="1.1" id="ROW_1" xmlns="http://www.w3.org/2000/svg" xmlns:xlink="http://www.w3.org/1999/xlink" x="0px" y="0px"
	 width="56.1px" height="57px" viewBox="0 0 56.1 57" enable-background="new 0 0 56.1 57" xml:space="preserve">
<g>
	<path fill="#ffffff" d="M9.2,0c1.5,0.3,2.6,1.2,3.6,2.3c2.3,2.4,4.6,4.9,7,7.2c2.6,2.5,2.4,5.2,0,7.8c-1.2,1.3-2.5,2.5-3.7,3.7
		c4.1,9,10.8,15.2,19.3,19.9c0.7-0.7,1.4-1.5,2.1-2.3c1-1,1.9-2.1,3-2.9c1.7-1.3,3.9-1.1,5.4,0.3c3.1,3,6.1,6.1,9.1,9.3
		c1.4,1.5,1.4,4.1,0.1,5.8c-3.6,4.4-8.2,6.5-14,5.6c-5.8-0.9-11.1-3.1-15.8-6.5c-4.6-3.2-8.9-6.8-12.6-11.1c-2.6-3-5.1-6-7.3-9.2
		c-2.5-3.5-4.2-7.4-5-11.8C0.2,17.6,0.1,17,0,16.4c0-1.5,0-2.9,0-4.4c0.7-2.1,1.2-4.3,2.1-6.3C3.4,3,5.3,0.9,8.3,0
		C8.6,0,8.9,0,9.2,0z"/>
</g>
</svg>
